<svg xmlns="http://www.w3.org/2000/svg" xmlns:xlink="http://www.w3.org/1999/xlink" width="102" height="102" viewBox="0 0 102 102">
  <defs>
    <clipPath id="clip-path">
      <path id="Unión_18" data-name="Unión 18" d="M92.412,96.7a1.428,1.428,0,1,1,1.428,1.428A1.428,1.428,0,0,1,92.412,96.7Zm-5.712,0a1.428,1.428,0,1,1,1.428,1.428A1.428,1.428,0,0,1,86.7,96.7Zm-5.712,0a1.428,1.428,0,1,1,1.428,1.428A1.428,1.428,0,0,1,80.988,96.7Zm-14.28,0a1.428,1.428,0,1,1,1.428,1.428A1.428,1.428,0,0,1,66.708,96.7Zm-2.856,0a1.428,1.428,0,1,1,1.428,1.428A1.428,1.428,0,0,1,63.852,96.7ZM61,96.7a1.428,1.428,0,1,1,1.428,1.428A1.428,1.428,0,0,1,61,96.7Zm-2.856,0a1.428,1.428,0,1,1,1.428,1.428A1.428,1.428,0,0,1,58.14,96.7Zm-5.712,0a1.428,1.428,0,1,1,1.428,1.428A1.428,1.428,0,0,1,52.428,96.7Zm-14.28,0a1.428,1.428,0,1,1,1.428,1.428A1.428,1.428,0,0,1,38.148,96.7Zm-2.856,0a1.428,1.428,0,1,1,1.428,1.428A1.428,1.428,0,0,1,35.292,96.7Zm-2.856,0a1.428,1.428,0,1,1,1.428,1.428A1.428,1.428,0,0,1,32.436,96.7Zm-2.856,0a1.428,1.428,0,1,1,1.428,1.428A1.428,1.428,0,0,1,29.58,96.7ZM86.7,93.84a1.428,1.428,0,1,1,1.428,1.428A1.428,1.428,0,0,1,86.7,93.84Zm-2.856,0a1.428,1.428,0,1,1,1.428,1.428A1.428,1.428,0,0,1,83.844,93.84Zm-2.856,0a1.428,1.428,0,1,1,1.428,1.428A1.428,1.428,0,0,1,80.988,93.84Zm-8.568,0a1.428,1.428,0,1,1,1.428,1.428A1.428,1.428,0,0,1,72.42,93.84Zm-5.712,0a1.428,1.428,0,1,1,1.428,1.428A1.428,1.428,0,0,1,66.708,93.84Zm-8.568,0a1.428,1.428,0,1,1,1.428,1.428A1.428,1.428,0,0,1,58.14,93.84Zm-5.712,0a1.428,1.428,0,1,1,1.428,1.428A1.428,1.428,0,0,1,52.428,93.84ZM41,93.84a1.428,1.428,0,1,1,1.428,1.428A1.428,1.428,0,0,1,41,93.84Zm-2.856,0a1.428,1.428,0,1,1,1.428,1.428A1.428,1.428,0,0,1,38.148,93.84Zm-5.712,0a1.428,1.428,0,1,1,1.428,1.428A1.428,1.428,0,0,1,32.436,93.84Zm-2.856,0a1.428,1.428,0,1,1,1.428,1.428A1.428,1.428,0,0,1,29.58,93.84Zm-2.856,0a1.428,1.428,0,1,1,1.428,1.428A1.428,1.428,0,0,1,26.724,93.84Zm68.544-2.856A1.428,1.428,0,1,1,96.7,92.412,1.428,1.428,0,0,1,95.268,90.984Zm-11.424,0a1.428,1.428,0,1,1,1.428,1.428A1.428,1.428,0,0,1,83.844,90.984Zm-2.856,0a1.428,1.428,0,1,1,1.428,1.428A1.428,1.428,0,0,1,80.988,90.984Zm-14.28,0a1.428,1.428,0,1,1,1.428,1.428A1.428,1.428,0,0,1,66.708,90.984Zm-5.712,0a1.428,1.428,0,1,1,1.428,1.428A1.428,1.428,0,0,1,61,90.984Zm-5.712,0a1.428,1.428,0,1,1,1.428,1.428A1.428,1.428,0,0,1,55.284,90.984Zm-5.712,0A1.428,1.428,0,1,1,51,92.412,1.428,1.428,0,0,1,49.572,90.984Zm-2.856,0a1.428,1.428,0,1,1,1.428,1.428A1.428,1.428,0,0,1,46.716,90.984Zm-2.856,0a1.428,1.428,0,1,1,1.428,1.428A1.428,1.428,0,0,1,43.86,90.984Zm-14.28,0a1.428,1.428,0,1,1,1.428,1.428A1.428,1.428,0,0,1,29.58,90.984Zm-2.856,0a1.428,1.428,0,1,1,1.428,1.428A1.428,1.428,0,0,1,26.724,90.984Zm68.544-2.856A1.428,1.428,0,1,1,96.7,89.556,1.428,1.428,0,0,1,95.268,88.128Zm-5.712,0a1.428,1.428,0,1,1,1.428,1.428A1.428,1.428,0,0,1,89.556,88.128Zm-2.856,0a1.428,1.428,0,1,1,1.428,1.428A1.428,1.428,0,0,1,86.7,88.128Zm-5.712,0a1.428,1.428,0,1,1,1.428,1.428A1.428,1.428,0,0,1,80.988,88.128Zm-5.712,0A1.428,1.428,0,1,1,76.7,89.556,1.428,1.428,0,0,1,75.276,88.128Zm-2.856,0a1.428,1.428,0,1,1,1.428,1.428A1.428,1.428,0,0,1,72.42,88.128Zm-2.856,0a1.428,1.428,0,1,1,1.428,1.428A1.428,1.428,0,0,1,69.564,88.128Zm-5.712,0a1.428,1.428,0,1,1,1.428,1.428A1.428,1.428,0,0,1,63.852,88.128Zm-2.856,0a1.428,1.428,0,1,1,1.428,1.428A1.428,1.428,0,0,1,61,88.128Zm-8.568,0a1.428,1.428,0,1,1,1.428,1.428A1.428,1.428,0,0,1,52.428,88.128Zm-2.856,0A1.428,1.428,0,1,1,51,89.556,1.428,1.428,0,0,1,49.572,88.128Zm-8.568,0a1.428,1.428,0,1,1,1.428,1.428A1.428,1.428,0,0,1,41,88.128Zm-2.856,0a1.428,1.428,0,1,1,1.428,1.428A1.428,1.428,0,0,1,38.148,88.128Zm-2.856,0a1.428,1.428,0,1,1,1.428,1.428A1.428,1.428,0,0,1,35.292,88.128Zm-2.856,0a1.428,1.428,0,1,1,1.428,1.428A1.428,1.428,0,0,1,32.436,88.128Zm-2.856,0a1.428,1.428,0,1,1,1.428,1.428A1.428,1.428,0,0,1,29.58,88.128Zm65.688-2.856A1.428,1.428,0,1,1,96.7,86.7,1.428,1.428,0,0,1,95.268,85.272Zm-2.856,0A1.428,1.428,0,1,1,93.84,86.7,1.428,1.428,0,0,1,92.412,85.272Zm-8.568,0A1.428,1.428,0,1,1,85.272,86.7,1.428,1.428,0,0,1,83.844,85.272Zm-2.856,0A1.428,1.428,0,1,1,82.416,86.7,1.428,1.428,0,0,1,80.988,85.272Zm-2.856,0A1.428,1.428,0,1,1,79.56,86.7,1.428,1.428,0,0,1,78.132,85.272Zm-2.856,0A1.428,1.428,0,1,1,76.7,86.7,1.428,1.428,0,0,1,75.276,85.272Zm-2.856,0A1.428,1.428,0,1,1,73.848,86.7,1.428,1.428,0,0,1,72.42,85.272Zm-2.856,0A1.428,1.428,0,1,1,70.992,86.7,1.428,1.428,0,0,1,69.564,85.272Zm-2.856,0A1.428,1.428,0,1,1,68.136,86.7,1.428,1.428,0,0,1,66.708,85.272Zm-8.568,0A1.428,1.428,0,1,1,59.568,86.7,1.428,1.428,0,0,1,58.14,85.272Zm-2.856,0A1.428,1.428,0,1,1,56.712,86.7,1.428,1.428,0,0,1,55.284,85.272Zm-2.856,0A1.428,1.428,0,1,1,53.856,86.7,1.428,1.428,0,0,1,52.428,85.272Zm-2.856,0A1.428,1.428,0,1,1,51,86.7,1.428,1.428,0,0,1,49.572,85.272Zm-2.856,0A1.428,1.428,0,1,1,48.144,86.7,1.428,1.428,0,0,1,46.716,85.272Zm-2.856,0A1.428,1.428,0,1,1,45.288,86.7,1.428,1.428,0,0,1,43.86,85.272Zm-11.424,0A1.428,1.428,0,1,1,33.864,86.7,1.428,1.428,0,0,1,32.436,85.272Zm59.976-2.856a1.428,1.428,0,1,1,1.428,1.428A1.428,1.428,0,0,1,92.412,82.416Zm-2.856,0a1.428,1.428,0,1,1,1.428,1.428A1.428,1.428,0,0,1,89.556,82.416Zm-2.856,0a1.428,1.428,0,1,1,1.428,1.428A1.428,1.428,0,0,1,86.7,82.416Zm-2.856,0a1.428,1.428,0,1,1,1.428,1.428A1.428,1.428,0,0,1,83.844,82.416Zm-11.424,0a1.428,1.428,0,1,1,1.428,1.428A1.428,1.428,0,0,1,72.42,82.416Zm-8.568,0a1.428,1.428,0,1,1,1.428,1.428A1.428,1.428,0,0,1,63.852,82.416Zm-2.856,0a1.428,1.428,0,1,1,1.428,1.428A1.428,1.428,0,0,1,61,82.416Zm-5.712,0a1.428,1.428,0,1,1,1.428,1.428A1.428,1.428,0,0,1,55.284,82.416Zm-8.568,0a1.428,1.428,0,1,1,1.428,1.428A1.428,1.428,0,0,1,46.716,82.416Zm-5.712,0a1.428,1.428,0,1,1,1.428,1.428A1.428,1.428,0,0,1,41,82.416Zm-5.712,0a1.428,1.428,0,1,1,1.428,1.428A1.428,1.428,0,0,1,35.292,82.416Zm-2.856,0a1.428,1.428,0,1,1,1.428,1.428A1.428,1.428,0,0,1,32.436,82.416Zm-2.856,0a1.428,1.428,0,1,1,1.428,1.428A1.428,1.428,0,0,1,29.58,82.416ZM95.268,79.56A1.428,1.428,0,1,1,96.7,80.988,1.428,1.428,0,0,1,95.268,79.56Zm-2.856,0a1.428,1.428,0,1,1,1.428,1.428A1.428,1.428,0,0,1,92.412,79.56Zm-2.856,0a1.428,1.428,0,1,1,1.428,1.428A1.428,1.428,0,0,1,89.556,79.56Zm-5.712,0a1.428,1.428,0,1,1,1.428,1.428A1.428,1.428,0,0,1,83.844,79.56Zm-5.712,0a1.428,1.428,0,1,1,1.428,1.428A1.428,1.428,0,0,1,78.132,79.56Zm-5.712,0a1.428,1.428,0,1,1,1.428,1.428A1.428,1.428,0,0,1,72.42,79.56Zm-2.856,0a1.428,1.428,0,1,1,1.428,1.428A1.428,1.428,0,0,1,69.564,79.56Zm-2.856,0a1.428,1.428,0,1,1,1.428,1.428A1.428,1.428,0,0,1,66.708,79.56Zm-2.856,0a1.428,1.428,0,1,1,1.428,1.428A1.428,1.428,0,0,1,63.852,79.56Zm-5.712,0a1.428,1.428,0,1,1,1.428,1.428A1.428,1.428,0,0,1,58.14,79.56Zm-5.712,0a1.428,1.428,0,1,1,1.428,1.428A1.428,1.428,0,0,1,52.428,79.56Zm-2.856,0A1.428,1.428,0,1,1,51,80.988,1.428,1.428,0,0,1,49.572,79.56Zm-2.856,0a1.428,1.428,0,1,1,1.428,1.428A1.428,1.428,0,0,1,46.716,79.56Zm-2.856,0a1.428,1.428,0,1,1,1.428,1.428A1.428,1.428,0,0,1,43.86,79.56Zm-14.28,0a1.428,1.428,0,1,1,1.428,1.428A1.428,1.428,0,0,1,29.58,79.56ZM95.268,76.7A1.428,1.428,0,1,1,96.7,78.132,1.428,1.428,0,0,1,95.268,76.7Zm-11.424,0a1.428,1.428,0,1,1,1.428,1.428A1.428,1.428,0,0,1,83.844,76.7Zm-11.424,0a1.428,1.428,0,1,1,1.428,1.428A1.428,1.428,0,0,1,72.42,76.7Zm-2.856,0a1.428,1.428,0,1,1,1.428,1.428A1.428,1.428,0,0,1,69.564,76.7Zm-2.856,0a1.428,1.428,0,1,1,1.428,1.428A1.428,1.428,0,0,1,66.708,76.7Zm-14.28,0a1.428,1.428,0,1,1,1.428,1.428A1.428,1.428,0,0,1,52.428,76.7Zm-2.856,0A1.428,1.428,0,1,1,51,78.132,1.428,1.428,0,0,1,49.572,76.7Zm-2.856,0a1.428,1.428,0,1,1,1.428,1.428A1.428,1.428,0,0,1,46.716,76.7ZM41,76.7a1.428,1.428,0,1,1,1.428,1.428A1.428,1.428,0,0,1,41,76.7Zm51.408-2.856a1.428,1.428,0,1,1,1.428,1.428A1.428,1.428,0,0,1,92.412,73.848Zm-5.712,0a1.428,1.428,0,1,1,1.428,1.428A1.428,1.428,0,0,1,86.7,73.848Zm-2.856,0a1.428,1.428,0,1,1,1.428,1.428A1.428,1.428,0,0,1,83.844,73.848Zm-2.856,0a1.428,1.428,0,1,1,1.428,1.428A1.428,1.428,0,0,1,80.988,73.848Zm-2.856,0a1.428,1.428,0,1,1,1.428,1.428A1.428,1.428,0,0,1,78.132,73.848Zm-2.856,0A1.428,1.428,0,1,1,76.7,75.276,1.428,1.428,0,0,1,75.276,73.848Zm-2.856,0a1.428,1.428,0,1,1,1.428,1.428A1.428,1.428,0,0,1,72.42,73.848ZM61,73.848a1.428,1.428,0,1,1,1.428,1.428A1.428,1.428,0,0,1,61,73.848Zm-5.712,0a1.428,1.428,0,1,1,1.428,1.428A1.428,1.428,0,0,1,55.284,73.848Zm-2.856,0a1.428,1.428,0,1,1,1.428,1.428A1.428,1.428,0,0,1,52.428,73.848Zm-5.712,0a1.428,1.428,0,1,1,1.428,1.428A1.428,1.428,0,0,1,46.716,73.848Zm-5.712,0a1.428,1.428,0,1,1,1.428,1.428A1.428,1.428,0,0,1,41,73.848Zm-5.712,0a1.428,1.428,0,1,1,1.428,1.428A1.428,1.428,0,0,1,35.292,73.848Zm-2.856,0a1.428,1.428,0,1,1,1.428,1.428A1.428,1.428,0,0,1,32.436,73.848Zm-5.712,0a1.428,1.428,0,1,1,1.428,1.428A1.428,1.428,0,0,1,26.724,73.848Zm-5.712,0a1.428,1.428,0,1,1,1.428,1.428A1.428,1.428,0,0,1,21.012,73.848Zm-14.28,0A1.428,1.428,0,1,1,8.16,75.276,1.428,1.428,0,0,1,6.732,73.848Zm-2.856,0A1.428,1.428,0,1,1,5.3,75.276,1.428,1.428,0,0,1,3.876,73.848Zm91.392-2.856A1.428,1.428,0,1,1,96.7,72.42,1.428,1.428,0,0,1,95.268,70.992Zm-2.856,0A1.428,1.428,0,1,1,93.84,72.42,1.428,1.428,0,0,1,92.412,70.992Zm-2.856,0a1.428,1.428,0,1,1,1.428,1.428A1.428,1.428,0,0,1,89.556,70.992Zm-2.856,0a1.428,1.428,0,1,1,1.428,1.428A1.428,1.428,0,0,1,86.7,70.992Zm-2.856,0a1.428,1.428,0,1,1,1.428,1.428A1.428,1.428,0,0,1,83.844,70.992Zm-2.856,0a1.428,1.428,0,1,1,1.428,1.428A1.428,1.428,0,0,1,80.988,70.992Zm-2.856,0A1.428,1.428,0,1,1,79.56,72.42,1.428,1.428,0,0,1,78.132,70.992Zm-5.712,0a1.428,1.428,0,1,1,1.428,1.428A1.428,1.428,0,0,1,72.42,70.992Zm-5.712,0a1.428,1.428,0,1,1,1.428,1.428A1.428,1.428,0,0,1,66.708,70.992Zm-2.856,0A1.428,1.428,0,1,1,65.28,72.42,1.428,1.428,0,0,1,63.852,70.992Zm-11.424,0a1.428,1.428,0,1,1,1.428,1.428A1.428,1.428,0,0,1,52.428,70.992ZM41,70.992a1.428,1.428,0,1,1,1.428,1.428A1.428,1.428,0,0,1,41,70.992Zm-2.856,0a1.428,1.428,0,1,1,1.428,1.428A1.428,1.428,0,0,1,38.148,70.992Zm-5.712,0a1.428,1.428,0,1,1,1.428,1.428A1.428,1.428,0,0,1,32.436,70.992Zm-2.856,0a1.428,1.428,0,1,1,1.428,1.428A1.428,1.428,0,0,1,29.58,70.992Zm-2.856,0a1.428,1.428,0,1,1,1.428,1.428A1.428,1.428,0,0,1,26.724,70.992Zm-17.136,0a1.428,1.428,0,1,1,1.428,1.428A1.428,1.428,0,0,1,9.588,70.992Zm-2.856,0A1.428,1.428,0,1,1,8.16,72.42,1.428,1.428,0,0,1,6.732,70.992Zm-2.856,0A1.428,1.428,0,1,1,5.3,72.42,1.428,1.428,0,0,1,3.876,70.992Zm85.68-2.856a1.428,1.428,0,1,1,1.428,1.428A1.428,1.428,0,0,1,89.556,68.136Zm-2.856,0a1.428,1.428,0,1,1,1.428,1.428A1.428,1.428,0,0,1,86.7,68.136Zm-2.856,0a1.428,1.428,0,1,1,1.428,1.428A1.428,1.428,0,0,1,83.844,68.136Zm-11.424,0a1.428,1.428,0,1,1,1.428,1.428A1.428,1.428,0,0,1,72.42,68.136Zm-2.856,0a1.428,1.428,0,1,1,1.428,1.428A1.428,1.428,0,0,1,69.564,68.136Zm-2.856,0a1.428,1.428,0,1,1,1.428,1.428A1.428,1.428,0,0,1,66.708,68.136Zm-2.856,0a1.428,1.428,0,1,1,1.428,1.428A1.428,1.428,0,0,1,63.852,68.136Zm-2.856,0a1.428,1.428,0,1,1,1.428,1.428A1.428,1.428,0,0,1,61,68.136Zm-2.856,0a1.428,1.428,0,1,1,1.428,1.428A1.428,1.428,0,0,1,58.14,68.136Zm-5.712,0a1.428,1.428,0,1,1,1.428,1.428A1.428,1.428,0,0,1,52.428,68.136Zm-2.856,0A1.428,1.428,0,1,1,51,69.564,1.428,1.428,0,0,1,49.572,68.136Zm-2.856,0a1.428,1.428,0,1,1,1.428,1.428A1.428,1.428,0,0,1,46.716,68.136Zm-8.568,0a1.428,1.428,0,1,1,1.428,1.428A1.428,1.428,0,0,1,38.148,68.136Zm-2.856,0a1.428,1.428,0,1,1,1.428,1.428A1.428,1.428,0,0,1,35.292,68.136Zm-2.856,0a1.428,1.428,0,1,1,1.428,1.428A1.428,1.428,0,0,1,32.436,68.136Zm-11.424,0a1.428,1.428,0,1,1,1.428,1.428A1.428,1.428,0,0,1,21.012,68.136Zm-11.424,0a1.428,1.428,0,1,1,1.428,1.428A1.428,1.428,0,0,1,9.588,68.136Zm85.68-2.856A1.428,1.428,0,1,1,96.7,66.708,1.428,1.428,0,0,1,95.268,65.28Zm-17.136,0a1.428,1.428,0,1,1,1.428,1.428A1.428,1.428,0,0,1,78.132,65.28Zm-2.856,0A1.428,1.428,0,1,1,76.7,66.708,1.428,1.428,0,0,1,75.276,65.28Zm-8.568,0a1.428,1.428,0,1,1,1.428,1.428A1.428,1.428,0,0,1,66.708,65.28Zm-2.856,0a1.428,1.428,0,1,1,1.428,1.428A1.428,1.428,0,0,1,63.852,65.28Zm-8.568,0a1.428,1.428,0,1,1,1.428,1.428A1.428,1.428,0,0,1,55.284,65.28Zm-5.712,0A1.428,1.428,0,1,1,51,66.708,1.428,1.428,0,0,1,49.572,65.28Zm-2.856,0a1.428,1.428,0,1,1,1.428,1.428A1.428,1.428,0,0,1,46.716,65.28Zm-2.856,0a1.428,1.428,0,1,1,1.428,1.428A1.428,1.428,0,0,1,43.86,65.28ZM41,65.28a1.428,1.428,0,1,1,1.428,1.428A1.428,1.428,0,0,1,41,65.28Zm-2.856,0a1.428,1.428,0,1,1,1.428,1.428A1.428,1.428,0,0,1,38.148,65.28Zm-2.856,0a1.428,1.428,0,1,1,1.428,1.428A1.428,1.428,0,0,1,35.292,65.28Zm-2.856,0a1.428,1.428,0,1,1,1.428,1.428A1.428,1.428,0,0,1,32.436,65.28Zm-5.712,0a1.428,1.428,0,1,1,1.428,1.428A1.428,1.428,0,0,1,26.724,65.28Zm-8.568,0a1.428,1.428,0,1,1,1.428,1.428A1.428,1.428,0,0,1,18.156,65.28Zm-2.856,0a1.428,1.428,0,1,1,1.428,1.428A1.428,1.428,0,0,1,15.3,65.28Zm-2.856,0a1.428,1.428,0,1,1,1.428,1.428A1.428,1.428,0,0,1,12.444,65.28Zm-5.712,0A1.428,1.428,0,1,1,8.16,66.708,1.428,1.428,0,0,1,6.732,65.28Zm-2.856,0A1.428,1.428,0,1,1,5.3,66.708,1.428,1.428,0,0,1,3.876,65.28Zm88.536-2.856a1.428,1.428,0,1,1,1.428,1.428A1.428,1.428,0,0,1,92.412,62.424Zm-2.856,0a1.428,1.428,0,1,1,1.428,1.428A1.428,1.428,0,0,1,89.556,62.424Zm-11.424,0a1.428,1.428,0,1,1,1.428,1.428A1.428,1.428,0,0,1,78.132,62.424Zm-8.568,0a1.428,1.428,0,1,1,1.428,1.428A1.428,1.428,0,0,1,69.564,62.424Zm-2.856,0a1.428,1.428,0,1,1,1.428,1.428A1.428,1.428,0,0,1,66.708,62.424Zm-2.856,0a1.428,1.428,0,1,1,1.428,1.428A1.428,1.428,0,0,1,63.852,62.424Zm-5.712,0a1.428,1.428,0,1,1,1.428,1.428A1.428,1.428,0,0,1,58.14,62.424Zm-2.856,0a1.428,1.428,0,1,1,1.428,1.428A1.428,1.428,0,0,1,55.284,62.424Zm-2.856,0a1.428,1.428,0,1,1,1.428,1.428A1.428,1.428,0,0,1,52.428,62.424Zm-2.856,0A1.428,1.428,0,1,1,51,63.852,1.428,1.428,0,0,1,49.572,62.424Zm-5.712,0a1.428,1.428,0,1,1,1.428,1.428A1.428,1.428,0,0,1,43.86,62.424Zm-2.856,0a1.428,1.428,0,1,1,1.428,1.428A1.428,1.428,0,0,1,41,62.424Zm-2.856,0a1.428,1.428,0,1,1,1.428,1.428A1.428,1.428,0,0,1,38.148,62.424Zm-2.856,0a1.428,1.428,0,1,1,1.428,1.428A1.428,1.428,0,0,1,35.292,62.424Zm-14.28,0a1.428,1.428,0,1,1,1.428,1.428A1.428,1.428,0,0,1,21.012,62.424Zm-11.424,0a1.428,1.428,0,1,1,1.428,1.428A1.428,1.428,0,0,1,9.588,62.424Zm-2.856,0A1.428,1.428,0,1,1,8.16,63.852,1.428,1.428,0,0,1,6.732,62.424Zm-2.856,0A1.428,1.428,0,1,1,5.3,63.852,1.428,1.428,0,0,1,3.876,62.424Zm91.392-2.856A1.428,1.428,0,1,1,96.7,61,1.428,1.428,0,0,1,95.268,59.568Zm-8.568,0A1.428,1.428,0,1,1,88.128,61,1.428,1.428,0,0,1,86.7,59.568Zm-2.856,0A1.428,1.428,0,1,1,85.272,61,1.428,1.428,0,0,1,83.844,59.568Zm-5.712,0A1.428,1.428,0,1,1,79.56,61,1.428,1.428,0,0,1,78.132,59.568Zm-2.856,0A1.428,1.428,0,1,1,76.7,61,1.428,1.428,0,0,1,75.276,59.568Zm-2.856,0A1.428,1.428,0,1,1,73.848,61,1.428,1.428,0,0,1,72.42,59.568Zm-5.712,0A1.428,1.428,0,1,1,68.136,61,1.428,1.428,0,0,1,66.708,59.568Zm-5.712,0A1.428,1.428,0,1,1,62.424,61,1.428,1.428,0,0,1,61,59.568Zm-2.856,0A1.428,1.428,0,1,1,59.568,61,1.428,1.428,0,0,1,58.14,59.568Zm-14.28,0A1.428,1.428,0,1,1,45.288,61,1.428,1.428,0,0,1,43.86,59.568Zm-8.568,0A1.428,1.428,0,1,1,36.72,61,1.428,1.428,0,0,1,35.292,59.568Zm-5.712,0A1.428,1.428,0,1,1,31.008,61,1.428,1.428,0,0,1,29.58,59.568Zm-5.712,0A1.428,1.428,0,1,1,25.3,61,1.428,1.428,0,0,1,23.868,59.568Zm-11.424,0A1.428,1.428,0,1,1,13.872,61,1.428,1.428,0,0,1,12.444,59.568Zm-8.568,0A1.428,1.428,0,1,1,5.3,61,1.428,1.428,0,0,1,3.876,59.568ZM86.7,56.712a1.428,1.428,0,1,1,1.428,1.428A1.428,1.428,0,0,1,86.7,56.712Zm-8.568,0A1.428,1.428,0,1,1,79.56,58.14,1.428,1.428,0,0,1,78.132,56.712Zm-2.856,0A1.428,1.428,0,1,1,76.7,58.14,1.428,1.428,0,0,1,75.276,56.712Zm-2.856,0a1.428,1.428,0,1,1,1.428,1.428A1.428,1.428,0,0,1,72.42,56.712Zm-2.856,0a1.428,1.428,0,1,1,1.428,1.428A1.428,1.428,0,0,1,69.564,56.712Zm-5.712,0A1.428,1.428,0,1,1,65.28,58.14,1.428,1.428,0,0,1,63.852,56.712Zm-8.568,0a1.428,1.428,0,1,1,1.428,1.428A1.428,1.428,0,0,1,55.284,56.712Zm-2.856,0a1.428,1.428,0,1,1,1.428,1.428A1.428,1.428,0,0,1,52.428,56.712Zm-19.992,0a1.428,1.428,0,1,1,1.428,1.428A1.428,1.428,0,0,1,32.436,56.712Zm-2.856,0a1.428,1.428,0,1,1,1.428,1.428A1.428,1.428,0,0,1,29.58,56.712Zm-2.856,0a1.428,1.428,0,1,1,1.428,1.428A1.428,1.428,0,0,1,26.724,56.712Zm-2.856,0A1.428,1.428,0,1,1,25.3,58.14,1.428,1.428,0,0,1,23.868,56.712Zm-2.856,0A1.428,1.428,0,1,1,22.44,58.14,1.428,1.428,0,0,1,21.012,56.712Zm-5.712,0a1.428,1.428,0,1,1,1.428,1.428A1.428,1.428,0,0,1,15.3,56.712Zm-2.856,0a1.428,1.428,0,1,1,1.428,1.428A1.428,1.428,0,0,1,12.444,56.712Zm-2.856,0a1.428,1.428,0,1,1,1.428,1.428A1.428,1.428,0,0,1,9.588,56.712Zm-5.712,0A1.428,1.428,0,1,1,5.3,58.14,1.428,1.428,0,0,1,3.876,56.712Zm88.536-2.856a1.428,1.428,0,1,1,1.428,1.428A1.428,1.428,0,0,1,92.412,53.856Zm-2.856,0a1.428,1.428,0,1,1,1.428,1.428A1.428,1.428,0,0,1,89.556,53.856Zm-2.856,0a1.428,1.428,0,1,1,1.428,1.428A1.428,1.428,0,0,1,86.7,53.856Zm-11.424,0A1.428,1.428,0,1,1,76.7,55.284,1.428,1.428,0,0,1,75.276,53.856Zm-2.856,0a1.428,1.428,0,1,1,1.428,1.428A1.428,1.428,0,0,1,72.42,53.856Zm-2.856,0a1.428,1.428,0,1,1,1.428,1.428A1.428,1.428,0,0,1,69.564,53.856Zm-2.856,0a1.428,1.428,0,1,1,1.428,1.428A1.428,1.428,0,0,1,66.708,53.856Zm-5.712,0a1.428,1.428,0,1,1,1.428,1.428A1.428,1.428,0,0,1,61,53.856Zm-11.424,0A1.428,1.428,0,1,1,51,55.284,1.428,1.428,0,0,1,49.572,53.856Zm-5.712,0a1.428,1.428,0,1,1,1.428,1.428A1.428,1.428,0,0,1,43.86,53.856Zm-8.568,0a1.428,1.428,0,1,1,1.428,1.428A1.428,1.428,0,0,1,35.292,53.856Zm-5.712,0a1.428,1.428,0,1,1,1.428,1.428A1.428,1.428,0,0,1,29.58,53.856Zm-2.856,0a1.428,1.428,0,1,1,1.428,1.428A1.428,1.428,0,0,1,26.724,53.856Zm-2.856,0A1.428,1.428,0,1,1,25.3,55.284,1.428,1.428,0,0,1,23.868,53.856Zm-5.712,0a1.428,1.428,0,1,1,1.428,1.428A1.428,1.428,0,0,1,18.156,53.856Zm-2.856,0a1.428,1.428,0,1,1,1.428,1.428A1.428,1.428,0,0,1,15.3,53.856Zm-8.568,0A1.428,1.428,0,1,1,8.16,55.284,1.428,1.428,0,0,1,6.732,53.856ZM92.412,51a1.428,1.428,0,1,1,1.428,1.428A1.428,1.428,0,0,1,92.412,51Zm-2.856,0a1.428,1.428,0,1,1,1.428,1.428A1.428,1.428,0,0,1,89.556,51Zm-8.568,0a1.428,1.428,0,1,1,1.428,1.428A1.428,1.428,0,0,1,80.988,51Zm-14.28,0a1.428,1.428,0,1,1,1.428,1.428A1.428,1.428,0,0,1,66.708,51ZM58.14,51a1.428,1.428,0,1,1,1.428,1.428A1.428,1.428,0,0,1,58.14,51Zm-5.712,0a1.428,1.428,0,1,1,1.428,1.428A1.428,1.428,0,0,1,52.428,51Zm-5.712,0a1.428,1.428,0,1,1,1.428,1.428A1.428,1.428,0,0,1,46.716,51ZM41,51a1.428,1.428,0,1,1,1.428,1.428A1.428,1.428,0,0,1,41,51Zm-5.712,0a1.428,1.428,0,1,1,1.428,1.428A1.428,1.428,0,0,1,35.292,51Zm-2.856,0a1.428,1.428,0,1,1,1.428,1.428A1.428,1.428,0,0,1,32.436,51ZM29.58,51a1.428,1.428,0,1,1,1.428,1.428A1.428,1.428,0,0,1,29.58,51Zm-2.856,0a1.428,1.428,0,1,1,1.428,1.428A1.428,1.428,0,0,1,26.724,51Zm-5.712,0a1.428,1.428,0,1,1,1.428,1.428A1.428,1.428,0,0,1,21.012,51ZM15.3,51a1.428,1.428,0,1,1,1.428,1.428A1.428,1.428,0,0,1,15.3,51ZM6.732,51A1.428,1.428,0,1,1,8.16,52.428,1.428,1.428,0,0,1,6.732,51ZM3.876,51A1.428,1.428,0,1,1,5.3,52.428,1.428,1.428,0,0,1,3.876,51ZM86.7,48.144a1.428,1.428,0,1,1,1.428,1.428A1.428,1.428,0,0,1,86.7,48.144Zm-2.856,0a1.428,1.428,0,1,1,1.428,1.428A1.428,1.428,0,0,1,83.844,48.144Zm-2.856,0a1.428,1.428,0,1,1,1.428,1.428A1.428,1.428,0,0,1,80.988,48.144Zm-2.856,0a1.428,1.428,0,1,1,1.428,1.428A1.428,1.428,0,0,1,78.132,48.144Zm-2.856,0A1.428,1.428,0,1,1,76.7,49.572,1.428,1.428,0,0,1,75.276,48.144Zm-2.856,0a1.428,1.428,0,1,1,1.428,1.428A1.428,1.428,0,0,1,72.42,48.144Zm-5.712,0a1.428,1.428,0,1,1,1.428,1.428A1.428,1.428,0,0,1,66.708,48.144Zm-2.856,0a1.428,1.428,0,1,1,1.428,1.428A1.428,1.428,0,0,1,63.852,48.144Zm-5.712,0a1.428,1.428,0,1,1,1.428,1.428A1.428,1.428,0,0,1,58.14,48.144Zm-2.856,0a1.428,1.428,0,1,1,1.428,1.428A1.428,1.428,0,0,1,55.284,48.144Zm-2.856,0a1.428,1.428,0,1,1,1.428,1.428A1.428,1.428,0,0,1,52.428,48.144Zm-2.856,0A1.428,1.428,0,1,1,51,49.572,1.428,1.428,0,0,1,49.572,48.144Zm-2.856,0a1.428,1.428,0,1,1,1.428,1.428A1.428,1.428,0,0,1,46.716,48.144Zm-19.992,0a1.428,1.428,0,1,1,1.428,1.428A1.428,1.428,0,0,1,26.724,48.144Zm-8.568,0a1.428,1.428,0,1,1,1.428,1.428A1.428,1.428,0,0,1,18.156,48.144Zm-8.568,0a1.428,1.428,0,1,1,1.428,1.428A1.428,1.428,0,0,1,9.588,48.144Zm-2.856,0A1.428,1.428,0,1,1,8.16,49.572,1.428,1.428,0,0,1,6.732,48.144Zm88.536-2.856A1.428,1.428,0,1,1,96.7,46.716,1.428,1.428,0,0,1,95.268,45.288Zm-2.856,0a1.428,1.428,0,1,1,1.428,1.428A1.428,1.428,0,0,1,92.412,45.288Zm-2.856,0a1.428,1.428,0,1,1,1.428,1.428A1.428,1.428,0,0,1,89.556,45.288Zm-5.712,0a1.428,1.428,0,1,1,1.428,1.428A1.428,1.428,0,0,1,83.844,45.288Zm-5.712,0a1.428,1.428,0,1,1,1.428,1.428A1.428,1.428,0,0,1,78.132,45.288Zm-2.856,0A1.428,1.428,0,1,1,76.7,46.716,1.428,1.428,0,0,1,75.276,45.288Zm-11.424,0a1.428,1.428,0,1,1,1.428,1.428A1.428,1.428,0,0,1,63.852,45.288Zm-2.856,0a1.428,1.428,0,1,1,1.428,1.428A1.428,1.428,0,0,1,61,45.288Zm-5.712,0a1.428,1.428,0,1,1,1.428,1.428A1.428,1.428,0,0,1,55.284,45.288Zm-8.568,0a1.428,1.428,0,1,1,1.428,1.428A1.428,1.428,0,0,1,46.716,45.288Zm-5.712,0a1.428,1.428,0,1,1,1.428,1.428A1.428,1.428,0,0,1,41,45.288Zm-8.568,0a1.428,1.428,0,1,1,1.428,1.428A1.428,1.428,0,0,1,32.436,45.288Zm-2.856,0a1.428,1.428,0,1,1,1.428,1.428A1.428,1.428,0,0,1,29.58,45.288Zm-5.712,0A1.428,1.428,0,1,1,25.3,46.716,1.428,1.428,0,0,1,23.868,45.288Zm-2.856,0a1.428,1.428,0,1,1,1.428,1.428A1.428,1.428,0,0,1,21.012,45.288Zm-11.424,0a1.428,1.428,0,1,1,1.428,1.428A1.428,1.428,0,0,1,9.588,45.288Zm-2.856,0A1.428,1.428,0,1,1,8.16,46.716,1.428,1.428,0,0,1,6.732,45.288Zm-2.856,0A1.428,1.428,0,1,1,5.3,46.716,1.428,1.428,0,0,1,3.876,45.288Zm91.392-2.856A1.428,1.428,0,1,1,96.7,43.86,1.428,1.428,0,0,1,95.268,42.432Zm-2.856,0A1.428,1.428,0,1,1,93.84,43.86,1.428,1.428,0,0,1,92.412,42.432Zm-2.856,0a1.428,1.428,0,1,1,1.428,1.428A1.428,1.428,0,0,1,89.556,42.432Zm-2.856,0a1.428,1.428,0,1,1,1.428,1.428A1.428,1.428,0,0,1,86.7,42.432Zm-2.856,0a1.428,1.428,0,1,1,1.428,1.428A1.428,1.428,0,0,1,83.844,42.432Zm-2.856,0a1.428,1.428,0,1,1,1.428,1.428A1.428,1.428,0,0,1,80.988,42.432Zm-2.856,0A1.428,1.428,0,1,1,79.56,43.86,1.428,1.428,0,0,1,78.132,42.432Zm-2.856,0A1.428,1.428,0,1,1,76.7,43.86,1.428,1.428,0,0,1,75.276,42.432Zm-11.424,0A1.428,1.428,0,1,1,65.28,43.86,1.428,1.428,0,0,1,63.852,42.432Zm-2.856,0a1.428,1.428,0,1,1,1.428,1.428A1.428,1.428,0,0,1,61,42.432Zm-14.28,0a1.428,1.428,0,1,1,1.428,1.428A1.428,1.428,0,0,1,46.716,42.432Zm-5.712,0a1.428,1.428,0,1,1,1.428,1.428A1.428,1.428,0,0,1,41,42.432Zm-8.568,0a1.428,1.428,0,1,1,1.428,1.428A1.428,1.428,0,0,1,32.436,42.432Zm-2.856,0a1.428,1.428,0,1,1,1.428,1.428A1.428,1.428,0,0,1,29.58,42.432Zm-2.856,0a1.428,1.428,0,1,1,1.428,1.428A1.428,1.428,0,0,1,26.724,42.432Zm-8.568,0a1.428,1.428,0,1,1,1.428,1.428A1.428,1.428,0,0,1,18.156,42.432Zm-5.712,0a1.428,1.428,0,1,1,1.428,1.428A1.428,1.428,0,0,1,12.444,42.432Zm-5.712,0A1.428,1.428,0,1,1,8.16,43.86,1.428,1.428,0,0,1,6.732,42.432Zm85.68-2.856A1.428,1.428,0,1,1,93.84,41,1.428,1.428,0,0,1,92.412,39.576Zm-5.712,0A1.428,1.428,0,1,1,88.128,41,1.428,1.428,0,0,1,86.7,39.576Zm-8.568,0A1.428,1.428,0,1,1,79.56,41,1.428,1.428,0,0,1,78.132,39.576Zm-2.856,0A1.428,1.428,0,1,1,76.7,41,1.428,1.428,0,0,1,75.276,39.576Zm-5.712,0A1.428,1.428,0,1,1,70.992,41,1.428,1.428,0,0,1,69.564,39.576Zm-2.856,0A1.428,1.428,0,1,1,68.136,41,1.428,1.428,0,0,1,66.708,39.576Zm-2.856,0A1.428,1.428,0,1,1,65.28,41,1.428,1.428,0,0,1,63.852,39.576Zm-5.712,0A1.428,1.428,0,1,1,59.568,41,1.428,1.428,0,0,1,58.14,39.576Zm-2.856,0A1.428,1.428,0,1,1,56.712,41,1.428,1.428,0,0,1,55.284,39.576Zm-2.856,0A1.428,1.428,0,1,1,53.856,41,1.428,1.428,0,0,1,52.428,39.576ZM41,39.576A1.428,1.428,0,1,1,42.432,41,1.428,1.428,0,0,1,41,39.576Zm-17.136,0A1.428,1.428,0,1,1,25.3,41,1.428,1.428,0,0,1,23.868,39.576Zm-2.856,0A1.428,1.428,0,1,1,22.44,41,1.428,1.428,0,0,1,21.012,39.576Zm-5.712,0A1.428,1.428,0,1,1,16.728,41,1.428,1.428,0,0,1,15.3,39.576Zm-2.856,0A1.428,1.428,0,1,1,13.872,41,1.428,1.428,0,0,1,12.444,39.576Zm-2.856,0A1.428,1.428,0,1,1,11.016,41,1.428,1.428,0,0,1,9.588,39.576Zm-2.856,0A1.428,1.428,0,1,1,8.16,41,1.428,1.428,0,0,1,6.732,39.576Zm-2.856,0A1.428,1.428,0,1,1,5.3,41,1.428,1.428,0,0,1,3.876,39.576ZM92.412,36.72a1.428,1.428,0,1,1,1.428,1.428A1.428,1.428,0,0,1,92.412,36.72Zm-2.856,0a1.428,1.428,0,1,1,1.428,1.428A1.428,1.428,0,0,1,89.556,36.72Zm-2.856,0a1.428,1.428,0,1,1,1.428,1.428A1.428,1.428,0,0,1,86.7,36.72Zm-2.856,0a1.428,1.428,0,1,1,1.428,1.428A1.428,1.428,0,0,1,83.844,36.72Zm-8.568,0A1.428,1.428,0,1,1,76.7,38.148,1.428,1.428,0,0,1,75.276,36.72Zm-2.856,0a1.428,1.428,0,1,1,1.428,1.428A1.428,1.428,0,0,1,72.42,36.72Zm-5.712,0a1.428,1.428,0,1,1,1.428,1.428A1.428,1.428,0,0,1,66.708,36.72Zm-14.28,0a1.428,1.428,0,1,1,1.428,1.428A1.428,1.428,0,0,1,52.428,36.72Zm-5.712,0a1.428,1.428,0,1,1,1.428,1.428A1.428,1.428,0,0,1,46.716,36.72Zm-8.568,0a1.428,1.428,0,1,1,1.428,1.428A1.428,1.428,0,0,1,38.148,36.72Zm-5.712,0a1.428,1.428,0,1,1,1.428,1.428A1.428,1.428,0,0,1,32.436,36.72Zm-5.712,0a1.428,1.428,0,1,1,1.428,1.428A1.428,1.428,0,0,1,26.724,36.72Zm-8.568,0a1.428,1.428,0,1,1,1.428,1.428A1.428,1.428,0,0,1,18.156,36.72Zm-2.856,0a1.428,1.428,0,1,1,1.428,1.428A1.428,1.428,0,0,1,15.3,36.72Zm79.968-2.856A1.428,1.428,0,1,1,96.7,35.292,1.428,1.428,0,0,1,95.268,33.864Zm-17.136,0a1.428,1.428,0,1,1,1.428,1.428A1.428,1.428,0,0,1,78.132,33.864Zm-11.424,0a1.428,1.428,0,1,1,1.428,1.428A1.428,1.428,0,0,1,66.708,33.864Zm-2.856,0a1.428,1.428,0,1,1,1.428,1.428A1.428,1.428,0,0,1,63.852,33.864Zm-2.856,0a1.428,1.428,0,1,1,1.428,1.428A1.428,1.428,0,0,1,61,33.864Zm-2.856,0a1.428,1.428,0,1,1,1.428,1.428A1.428,1.428,0,0,1,58.14,33.864Zm-2.856,0a1.428,1.428,0,1,1,1.428,1.428A1.428,1.428,0,0,1,55.284,33.864Zm-2.856,0a1.428,1.428,0,1,1,1.428,1.428A1.428,1.428,0,0,1,52.428,33.864Zm-5.712,0a1.428,1.428,0,1,1,1.428,1.428A1.428,1.428,0,0,1,46.716,33.864Zm-14.28,0a1.428,1.428,0,1,1,1.428,1.428A1.428,1.428,0,0,1,32.436,33.864Zm-2.856,0a1.428,1.428,0,1,1,1.428,1.428A1.428,1.428,0,0,1,29.58,33.864Zm-5.712,0A1.428,1.428,0,1,1,25.3,35.292,1.428,1.428,0,0,1,23.868,33.864Zm-2.856,0a1.428,1.428,0,1,1,1.428,1.428A1.428,1.428,0,0,1,21.012,33.864Zm-2.856,0a1.428,1.428,0,1,1,1.428,1.428A1.428,1.428,0,0,1,18.156,33.864Zm-8.568,0a1.428,1.428,0,1,1,1.428,1.428A1.428,1.428,0,0,1,9.588,33.864Zm-2.856,0A1.428,1.428,0,1,1,8.16,35.292,1.428,1.428,0,0,1,6.732,33.864Zm-2.856,0A1.428,1.428,0,1,1,5.3,35.292,1.428,1.428,0,0,1,3.876,33.864Zm88.536-2.856a1.428,1.428,0,1,1,1.428,1.428A1.428,1.428,0,0,1,92.412,31.008Zm-2.856,0a1.428,1.428,0,1,1,1.428,1.428A1.428,1.428,0,0,1,89.556,31.008Zm-2.856,0a1.428,1.428,0,1,1,1.428,1.428A1.428,1.428,0,0,1,86.7,31.008Zm-14.28,0a1.428,1.428,0,1,1,1.428,1.428A1.428,1.428,0,0,1,72.42,31.008Zm-14.28,0a1.428,1.428,0,1,1,1.428,1.428A1.428,1.428,0,0,1,58.14,31.008Zm-5.712,0a1.428,1.428,0,1,1,1.428,1.428A1.428,1.428,0,0,1,52.428,31.008Zm-2.856,0A1.428,1.428,0,1,1,51,32.436,1.428,1.428,0,0,1,49.572,31.008Zm-2.856,0a1.428,1.428,0,1,1,1.428,1.428A1.428,1.428,0,0,1,46.716,31.008Zm-17.136,0a1.428,1.428,0,1,1,1.428,1.428A1.428,1.428,0,0,1,29.58,31.008Zm-11.424,0a1.428,1.428,0,1,1,1.428,1.428A1.428,1.428,0,0,1,18.156,31.008Zm-5.712,0a1.428,1.428,0,1,1,1.428,1.428A1.428,1.428,0,0,1,12.444,31.008Zm-2.856,0a1.428,1.428,0,1,1,1.428,1.428A1.428,1.428,0,0,1,9.588,31.008Zm-5.712,0A1.428,1.428,0,1,1,5.3,32.436,1.428,1.428,0,0,1,3.876,31.008Zm88.536-2.856A1.428,1.428,0,1,1,93.84,29.58,1.428,1.428,0,0,1,92.412,28.152Zm-2.856,0a1.428,1.428,0,1,1,1.428,1.428A1.428,1.428,0,0,1,89.556,28.152Zm-2.856,0a1.428,1.428,0,1,1,1.428,1.428A1.428,1.428,0,0,1,86.7,28.152Zm-5.712,0a1.428,1.428,0,1,1,1.428,1.428A1.428,1.428,0,0,1,80.988,28.152Zm-5.712,0A1.428,1.428,0,1,1,76.7,29.58,1.428,1.428,0,0,1,75.276,28.152Zm-2.856,0a1.428,1.428,0,1,1,1.428,1.428A1.428,1.428,0,0,1,72.42,28.152Zm-2.856,0a1.428,1.428,0,1,1,1.428,1.428A1.428,1.428,0,0,1,69.564,28.152Zm-2.856,0a1.428,1.428,0,1,1,1.428,1.428A1.428,1.428,0,0,1,66.708,28.152Zm-5.712,0a1.428,1.428,0,1,1,1.428,1.428A1.428,1.428,0,0,1,61,28.152Zm-2.856,0a1.428,1.428,0,1,1,1.428,1.428A1.428,1.428,0,0,1,58.14,28.152Zm-5.712,0a1.428,1.428,0,1,1,1.428,1.428A1.428,1.428,0,0,1,52.428,28.152Zm-5.712,0a1.428,1.428,0,1,1,1.428,1.428A1.428,1.428,0,0,1,46.716,28.152Zm-5.712,0a1.428,1.428,0,1,1,1.428,1.428A1.428,1.428,0,0,1,41,28.152Zm-2.856,0a1.428,1.428,0,1,1,1.428,1.428A1.428,1.428,0,0,1,38.148,28.152Zm-2.856,0A1.428,1.428,0,1,1,36.72,29.58,1.428,1.428,0,0,1,35.292,28.152Zm-5.712,0a1.428,1.428,0,1,1,1.428,1.428A1.428,1.428,0,0,1,29.58,28.152Zm-8.568,0A1.428,1.428,0,1,1,22.44,29.58,1.428,1.428,0,0,1,21.012,28.152Zm-11.424,0a1.428,1.428,0,1,1,1.428,1.428A1.428,1.428,0,0,1,9.588,28.152Zm-2.856,0A1.428,1.428,0,1,1,8.16,29.58,1.428,1.428,0,0,1,6.732,28.152ZM72.42,25.3a1.428,1.428,0,1,1,1.428,1.428A1.428,1.428,0,0,1,72.42,25.3ZM61,25.3a1.428,1.428,0,1,1,1.428,1.428A1.428,1.428,0,0,1,61,25.3Zm-8.568,0a1.428,1.428,0,1,1,1.428,1.428A1.428,1.428,0,0,1,52.428,25.3Zm-2.856,0A1.428,1.428,0,1,1,51,26.724,1.428,1.428,0,0,1,49.572,25.3Zm-2.856,0a1.428,1.428,0,1,1,1.428,1.428A1.428,1.428,0,0,1,46.716,25.3Zm-2.856,0a1.428,1.428,0,1,1,1.428,1.428A1.428,1.428,0,0,1,43.86,25.3Zm-11.424,0a1.428,1.428,0,1,1,1.428,1.428A1.428,1.428,0,0,1,32.436,25.3ZM72.42,22.44a1.428,1.428,0,1,1,1.428,1.428A1.428,1.428,0,0,1,72.42,22.44Zm-5.712,0a1.428,1.428,0,1,1,1.428,1.428A1.428,1.428,0,0,1,66.708,22.44ZM61,22.44a1.428,1.428,0,1,1,1.428,1.428A1.428,1.428,0,0,1,61,22.44Zm-5.712,0a1.428,1.428,0,1,1,1.428,1.428A1.428,1.428,0,0,1,55.284,22.44Zm-5.712,0A1.428,1.428,0,1,1,51,23.868,1.428,1.428,0,0,1,49.572,22.44Zm-5.712,0a1.428,1.428,0,1,1,1.428,1.428A1.428,1.428,0,0,1,43.86,22.44Zm-5.712,0a1.428,1.428,0,1,1,1.428,1.428A1.428,1.428,0,0,1,38.148,22.44Zm-5.712,0a1.428,1.428,0,1,1,1.428,1.428A1.428,1.428,0,0,1,32.436,22.44Zm-5.712,0a1.428,1.428,0,1,1,1.428,1.428A1.428,1.428,0,0,1,26.724,22.44Zm42.84-2.856a1.428,1.428,0,1,1,1.428,1.428A1.428,1.428,0,0,1,69.564,19.584Zm-2.856,0a1.428,1.428,0,1,1,1.428,1.428A1.428,1.428,0,0,1,66.708,19.584Zm-2.856,0a1.428,1.428,0,1,1,1.428,1.428A1.428,1.428,0,0,1,63.852,19.584Zm-8.568,0a1.428,1.428,0,1,1,1.428,1.428A1.428,1.428,0,0,1,55.284,19.584Zm-8.568,0a1.428,1.428,0,1,1,1.428,1.428A1.428,1.428,0,0,1,46.716,19.584Zm-2.856,0a1.428,1.428,0,1,1,1.428,1.428A1.428,1.428,0,0,1,43.86,19.584Zm-2.856,0a1.428,1.428,0,1,1,1.428,1.428A1.428,1.428,0,0,1,41,19.584Zm-5.712,0a1.428,1.428,0,1,1,1.428,1.428A1.428,1.428,0,0,1,35.292,19.584Zm-2.856,0a1.428,1.428,0,1,1,1.428,1.428A1.428,1.428,0,0,1,32.436,19.584Zm-5.712,0a1.428,1.428,0,1,1,1.428,1.428A1.428,1.428,0,0,1,26.724,19.584Zm45.7-2.856a1.428,1.428,0,1,1,1.428,1.428A1.428,1.428,0,0,1,72.42,16.728Zm-2.856,0a1.428,1.428,0,1,1,1.428,1.428A1.428,1.428,0,0,1,69.564,16.728Zm-5.712,0a1.428,1.428,0,1,1,1.428,1.428A1.428,1.428,0,0,1,63.852,16.728Zm-2.856,0a1.428,1.428,0,1,1,1.428,1.428A1.428,1.428,0,0,1,61,16.728Zm-5.712,0a1.428,1.428,0,1,1,1.428,1.428A1.428,1.428,0,0,1,55.284,16.728Zm-2.856,0a1.428,1.428,0,1,1,1.428,1.428A1.428,1.428,0,0,1,52.428,16.728Zm-5.712,0a1.428,1.428,0,1,1,1.428,1.428A1.428,1.428,0,0,1,46.716,16.728Zm-5.712,0a1.428,1.428,0,1,1,1.428,1.428A1.428,1.428,0,0,1,41,16.728Zm-2.856,0a1.428,1.428,0,1,1,1.428,1.428A1.428,1.428,0,0,1,38.148,16.728Zm25.7-2.856A1.428,1.428,0,1,1,65.28,15.3,1.428,1.428,0,0,1,63.852,13.872Zm-2.856,0A1.428,1.428,0,1,1,62.424,15.3,1.428,1.428,0,0,1,61,13.872Zm-5.712,0A1.428,1.428,0,1,1,56.712,15.3,1.428,1.428,0,0,1,55.284,13.872Zm-5.712,0A1.428,1.428,0,1,1,51,15.3,1.428,1.428,0,0,1,49.572,13.872Zm-2.856,0A1.428,1.428,0,1,1,48.144,15.3,1.428,1.428,0,0,1,46.716,13.872Zm-5.712,0A1.428,1.428,0,1,1,42.432,15.3,1.428,1.428,0,0,1,41,13.872Zm-5.712,0A1.428,1.428,0,1,1,36.72,15.3,1.428,1.428,0,0,1,35.292,13.872Zm-2.856,0A1.428,1.428,0,1,1,33.864,15.3,1.428,1.428,0,0,1,32.436,13.872Zm-5.712,0A1.428,1.428,0,1,1,28.152,15.3,1.428,1.428,0,0,1,26.724,13.872Zm45.7-2.856a1.428,1.428,0,1,1,1.428,1.428A1.428,1.428,0,0,1,72.42,11.016Zm-17.136,0a1.428,1.428,0,1,1,1.428,1.428A1.428,1.428,0,0,1,55.284,11.016Zm-5.712,0A1.428,1.428,0,1,1,51,12.444,1.428,1.428,0,0,1,49.572,11.016Zm-2.856,0a1.428,1.428,0,1,1,1.428,1.428A1.428,1.428,0,0,1,46.716,11.016Zm-2.856,0a1.428,1.428,0,1,1,1.428,1.428A1.428,1.428,0,0,1,43.86,11.016Zm-8.568,0a1.428,1.428,0,1,1,1.428,1.428A1.428,1.428,0,0,1,35.292,11.016Zm-8.568,0a1.428,1.428,0,1,1,1.428,1.428A1.428,1.428,0,0,1,26.724,11.016ZM69.564,8.16a1.428,1.428,0,1,1,1.428,1.428A1.428,1.428,0,0,1,69.564,8.16ZM61,8.16a1.428,1.428,0,1,1,1.428,1.428A1.428,1.428,0,0,1,61,8.16Zm-5.712,0a1.428,1.428,0,1,1,1.428,1.428A1.428,1.428,0,0,1,55.284,8.16Zm-2.856,0a1.428,1.428,0,1,1,1.428,1.428A1.428,1.428,0,0,1,52.428,8.16Zm-5.712,0a1.428,1.428,0,1,1,1.428,1.428A1.428,1.428,0,0,1,46.716,8.16ZM41,8.16a1.428,1.428,0,1,1,1.428,1.428A1.428,1.428,0,0,1,41,8.16Zm-8.568,0a1.428,1.428,0,1,1,1.428,1.428A1.428,1.428,0,0,1,32.436,8.16Zm-2.856,0a1.428,1.428,0,1,1,1.428,1.428A1.428,1.428,0,0,1,29.58,8.16Zm-2.856,0a1.428,1.428,0,1,1,1.428,1.428A1.428,1.428,0,0,1,26.724,8.16ZM72.42,5.3a1.428,1.428,0,1,1,1.428,1.428A1.428,1.428,0,0,1,72.42,5.3Zm-8.568,0A1.428,1.428,0,1,1,65.28,6.732,1.428,1.428,0,0,1,63.852,5.3ZM61,5.3a1.428,1.428,0,1,1,1.428,1.428A1.428,1.428,0,0,1,61,5.3Zm-2.856,0a1.428,1.428,0,1,1,1.428,1.428A1.428,1.428,0,0,1,58.14,5.3Zm-2.856,0a1.428,1.428,0,1,1,1.428,1.428A1.428,1.428,0,0,1,55.284,5.3Zm-8.568,0a1.428,1.428,0,1,1,1.428,1.428A1.428,1.428,0,0,1,46.716,5.3Zm-2.856,0a1.428,1.428,0,1,1,1.428,1.428A1.428,1.428,0,0,1,43.86,5.3Zm-8.568,0A1.428,1.428,0,1,1,36.72,6.732,1.428,1.428,0,0,1,35.292,5.3Zm-2.856,0a1.428,1.428,0,1,1,1.428,1.428A1.428,1.428,0,0,1,32.436,5.3Zm-2.856,0a1.428,1.428,0,1,1,1.428,1.428A1.428,1.428,0,0,1,29.58,5.3Z" fill="none"/>
    </clipPath>
    <clipPath id="clip-path-2">
      <path id="Trazado_1832" data-name="Trazado 1832" d="M13.872,3.876a10,10,0,1,0,.02,0Zm0,2.856a7.14,7.14,0,1,1-.02,0Z" transform="translate(-3.876 -3.876)"/>
    </clipPath>
    <clipPath id="clip-path-3">
      <circle id="Elipse_11997" data-name="Elipse 11997" cx="4.284" cy="4.284" r="4.284"/>
    </clipPath>
    <clipPath id="clip-path-4">
      <path id="Trazado_1833" data-name="Trazado 1833" d="M88.128,3.876a10,10,0,1,0,.02,0Zm0,2.856a7.14,7.14,0,1,1-.02,0Z" transform="translate(23.868 -78.132) rotate(90)"/>
    </clipPath>
    <clipPath id="clip-path-5">
      <circle id="Elipse_11998" data-name="Elipse 11998" cx="4.284" cy="4.284" r="4.284" transform="translate(8.568) rotate(90)"/>
    </clipPath>
    <clipPath id="clip-path-6">
      <path id="Trazado_1834" data-name="Trazado 1834" d="M13.872,78.132a9.992,9.992,0,1,0,.02,0Zm0,2.856a7.14,7.14,0,1,1-.02,0Z" transform="translate(-78.132 23.868) rotate(-90)"/>
    </clipPath>
    <clipPath id="clip-path-7">
      <circle id="Elipse_11999" data-name="Elipse 11999" cx="4.284" cy="4.284" r="4.284" transform="translate(0 8.568) rotate(-90)"/>
    </clipPath>
  </defs>
  <g id="QR_1" transform="translate(-652.412 -493.007)">
    <rect id="Rectángulo_1251" data-name="Rectángulo 1251" width="102" height="102" transform="translate(652.412 493.007)" fill="#fff"/>
    <g id="Grupo_2458" data-name="Grupo 2458" transform="translate(652.412 493.007)" clip-path="url(#clip-path)">
      <rect id="Rectángulo_1252" data-name="Rectángulo 1252" width="102" height="102"/>
    </g>
    <g id="Grupo_2459" data-name="Grupo 2459" transform="translate(656.288 496.883)" clip-path="url(#clip-path-2)">
      <rect id="Rectángulo_1253" data-name="Rectángulo 1253" width="19.992" height="19.992"/>
    </g>
    <g id="Grupo_2460" data-name="Grupo 2460" transform="translate(662 502.595)" clip-path="url(#clip-path-3)">
      <rect id="Rectángulo_1254" data-name="Rectángulo 1254" width="8.568" height="8.568"/>
    </g>
    <g id="Grupo_2461" data-name="Grupo 2461" transform="translate(730.544 496.883)" clip-path="url(#clip-path-4)">
      <rect id="Rectángulo_1255" data-name="Rectángulo 1255" width="19.992" height="19.992"/>
    </g>
    <g id="Grupo_2462" data-name="Grupo 2462" transform="translate(736.256 502.595)" clip-path="url(#clip-path-5)">
      <rect id="Rectángulo_1256" data-name="Rectángulo 1256" width="8.568" height="8.568"/>
    </g>
    <g id="Grupo_2463" data-name="Grupo 2463" transform="translate(656.288 571.139)" clip-path="url(#clip-path-6)">
      <rect id="Rectángulo_1257" data-name="Rectángulo 1257" width="19.992" height="19.992"/>
    </g>
    <g id="Grupo_2464" data-name="Grupo 2464" transform="translate(662 576.851)" clip-path="url(#clip-path-7)">
      <rect id="Rectángulo_1258" data-name="Rectángulo 1258" width="8.568" height="8.568"/>
    </g>
  </g>
</svg>
