<svg xmlns="http://www.w3.org/2000/svg" xmlns:xlink="http://www.w3.org/1999/xlink" width="103.5" height="103.5" viewBox="0 0 103.5 103.5">
  <defs>
    <clipPath id="clip-path">
      <path id="Unión_17" data-name="Unión 17" d="M95.22,96.462A1.242,1.242,0,1,1,96.462,97.7,1.242,1.242,0,0,1,95.22,96.462Zm-9.936,0A1.242,1.242,0,1,1,86.526,97.7,1.242,1.242,0,0,1,85.284,96.462Zm-9.936,0A1.242,1.242,0,1,1,76.59,97.7,1.242,1.242,0,0,1,75.348,96.462Zm-12.42,0A1.242,1.242,0,1,1,64.17,97.7,1.242,1.242,0,0,1,62.928,96.462Zm-9.936,0A1.242,1.242,0,1,1,54.234,97.7,1.242,1.242,0,0,1,52.992,96.462Zm-7.452,0A1.242,1.242,0,1,1,46.782,97.7,1.242,1.242,0,0,1,45.54,96.462Zm-2.484,0A1.242,1.242,0,1,1,44.3,97.7,1.242,1.242,0,0,1,43.056,96.462Zm-7.452,0A1.242,1.242,0,1,1,36.846,97.7,1.242,1.242,0,0,1,35.6,96.462Zm-2.484,0A1.242,1.242,0,1,1,34.362,97.7,1.242,1.242,0,0,1,33.12,96.462Zm62.1-2.484a1.242,1.242,0,1,1,1.242,1.242A1.242,1.242,0,0,1,95.22,93.978Zm-2.484,0a1.242,1.242,0,1,1,1.242,1.242A1.242,1.242,0,0,1,92.736,93.978Zm-2.484,0a1.242,1.242,0,1,1,1.242,1.242A1.242,1.242,0,0,1,90.252,93.978Zm-4.968,0a1.242,1.242,0,1,1,1.242,1.242A1.242,1.242,0,0,1,85.284,93.978Zm-2.484,0a1.242,1.242,0,1,1,1.242,1.242A1.242,1.242,0,0,1,82.8,93.978Zm-4.968,0a1.242,1.242,0,1,1,1.242,1.242A1.242,1.242,0,0,1,77.832,93.978Zm-2.484,0A1.242,1.242,0,1,1,76.59,95.22,1.242,1.242,0,0,1,75.348,93.978Zm-9.936,0a1.242,1.242,0,1,1,1.242,1.242A1.242,1.242,0,0,1,65.412,93.978Zm-7.452,0A1.242,1.242,0,1,1,59.2,95.22,1.242,1.242,0,0,1,57.96,93.978Zm-2.484,0a1.242,1.242,0,1,1,1.242,1.242A1.242,1.242,0,0,1,55.476,93.978Zm-12.42,0A1.242,1.242,0,1,1,44.3,95.22,1.242,1.242,0,0,1,43.056,93.978Zm-12.42,0a1.242,1.242,0,1,1,1.242,1.242A1.242,1.242,0,0,1,30.636,93.978ZM95.22,91.494a1.242,1.242,0,1,1,1.242,1.242A1.242,1.242,0,0,1,95.22,91.494Zm-2.484,0a1.242,1.242,0,1,1,1.242,1.242A1.242,1.242,0,0,1,92.736,91.494Zm-7.452,0a1.242,1.242,0,1,1,1.242,1.242A1.242,1.242,0,0,1,85.284,91.494Zm-2.484,0a1.242,1.242,0,1,1,1.242,1.242A1.242,1.242,0,0,1,82.8,91.494Zm-2.484,0a1.242,1.242,0,1,1,1.242,1.242A1.242,1.242,0,0,1,80.316,91.494Zm-7.452,0a1.242,1.242,0,1,1,1.242,1.242A1.242,1.242,0,0,1,72.864,91.494Zm-4.968,0a1.242,1.242,0,1,1,1.242,1.242A1.242,1.242,0,0,1,67.9,91.494Zm-2.484,0a1.242,1.242,0,1,1,1.242,1.242A1.242,1.242,0,0,1,65.412,91.494Zm-2.484,0a1.242,1.242,0,1,1,1.242,1.242A1.242,1.242,0,0,1,62.928,91.494Zm-4.968,0A1.242,1.242,0,1,1,59.2,92.736,1.242,1.242,0,0,1,57.96,91.494Zm-2.484,0a1.242,1.242,0,1,1,1.242,1.242A1.242,1.242,0,0,1,55.476,91.494Zm-2.484,0a1.242,1.242,0,1,1,1.242,1.242A1.242,1.242,0,0,1,52.992,91.494Zm-4.968,0a1.242,1.242,0,1,1,1.242,1.242A1.242,1.242,0,0,1,48.024,91.494Zm-2.484,0a1.242,1.242,0,1,1,1.242,1.242A1.242,1.242,0,0,1,45.54,91.494Zm-2.484,0A1.242,1.242,0,1,1,44.3,92.736,1.242,1.242,0,0,1,43.056,91.494Zm-2.484,0a1.242,1.242,0,1,1,1.242,1.242A1.242,1.242,0,0,1,40.572,91.494Zm-2.484,0a1.242,1.242,0,1,1,1.242,1.242A1.242,1.242,0,0,1,38.088,91.494Zm-2.484,0a1.242,1.242,0,1,1,1.242,1.242A1.242,1.242,0,0,1,35.6,91.494Zm-2.484,0a1.242,1.242,0,1,1,1.242,1.242A1.242,1.242,0,0,1,33.12,91.494Zm-7.452,0a1.242,1.242,0,1,1,1.242,1.242A1.242,1.242,0,0,1,25.668,91.494ZM85.284,89.01a1.242,1.242,0,1,1,1.242,1.242A1.242,1.242,0,0,1,85.284,89.01Zm-4.968,0a1.242,1.242,0,1,1,1.242,1.242A1.242,1.242,0,0,1,80.316,89.01Zm-2.484,0a1.242,1.242,0,1,1,1.242,1.242A1.242,1.242,0,0,1,77.832,89.01Zm-4.968,0a1.242,1.242,0,1,1,1.242,1.242A1.242,1.242,0,0,1,72.864,89.01Zm-4.968,0a1.242,1.242,0,1,1,1.242,1.242A1.242,1.242,0,0,1,67.9,89.01Zm-7.452,0a1.242,1.242,0,1,1,1.242,1.242A1.242,1.242,0,0,1,60.444,89.01Zm-2.484,0A1.242,1.242,0,1,1,59.2,90.252,1.242,1.242,0,0,1,57.96,89.01Zm-2.484,0a1.242,1.242,0,1,1,1.242,1.242A1.242,1.242,0,0,1,55.476,89.01Zm-7.452,0a1.242,1.242,0,1,1,1.242,1.242A1.242,1.242,0,0,1,48.024,89.01Zm-2.484,0a1.242,1.242,0,1,1,1.242,1.242A1.242,1.242,0,0,1,45.54,89.01Zm-4.968,0a1.242,1.242,0,1,1,1.242,1.242A1.242,1.242,0,0,1,40.572,89.01Zm-7.452,0a1.242,1.242,0,1,1,1.242,1.242A1.242,1.242,0,0,1,33.12,89.01Zm62.1-2.484a1.242,1.242,0,1,1,1.242,1.242A1.242,1.242,0,0,1,95.22,86.526Zm-2.484,0a1.242,1.242,0,1,1,1.242,1.242A1.242,1.242,0,0,1,92.736,86.526Zm-7.452,0a1.242,1.242,0,1,1,1.242,1.242A1.242,1.242,0,0,1,85.284,86.526Zm-2.484,0a1.242,1.242,0,1,1,1.242,1.242A1.242,1.242,0,0,1,82.8,86.526Zm-2.484,0a1.242,1.242,0,1,1,1.242,1.242A1.242,1.242,0,0,1,80.316,86.526Zm-2.484,0a1.242,1.242,0,1,1,1.242,1.242A1.242,1.242,0,0,1,77.832,86.526Zm-2.484,0a1.242,1.242,0,1,1,1.242,1.242A1.242,1.242,0,0,1,75.348,86.526Zm-2.484,0a1.242,1.242,0,1,1,1.242,1.242A1.242,1.242,0,0,1,72.864,86.526Zm-2.484,0a1.242,1.242,0,1,1,1.242,1.242A1.242,1.242,0,0,1,70.38,86.526Zm-4.968,0a1.242,1.242,0,1,1,1.242,1.242A1.242,1.242,0,0,1,65.412,86.526Zm-7.452,0A1.242,1.242,0,1,1,59.2,87.768,1.242,1.242,0,0,1,57.96,86.526Zm-9.936,0a1.242,1.242,0,1,1,1.242,1.242A1.242,1.242,0,0,1,48.024,86.526Zm-4.968,0A1.242,1.242,0,1,1,44.3,87.768,1.242,1.242,0,0,1,43.056,86.526Zm-4.968,0a1.242,1.242,0,1,1,1.242,1.242A1.242,1.242,0,0,1,38.088,86.526Zm-9.936,0a1.242,1.242,0,1,1,1.242,1.242A1.242,1.242,0,0,1,28.152,86.526Zm-2.484,0a1.242,1.242,0,1,1,1.242,1.242A1.242,1.242,0,0,1,25.668,86.526ZM95.22,84.042a1.242,1.242,0,1,1,1.242,1.242A1.242,1.242,0,0,1,95.22,84.042Zm-2.484,0a1.242,1.242,0,1,1,1.242,1.242A1.242,1.242,0,0,1,92.736,84.042Zm-2.484,0a1.242,1.242,0,1,1,1.242,1.242A1.242,1.242,0,0,1,90.252,84.042Zm-2.484,0a1.242,1.242,0,1,1,1.242,1.242A1.242,1.242,0,0,1,87.768,84.042Zm-2.484,0a1.242,1.242,0,1,1,1.242,1.242A1.242,1.242,0,0,1,85.284,84.042Zm-9.936,0a1.242,1.242,0,1,1,1.242,1.242A1.242,1.242,0,0,1,75.348,84.042Zm-2.484,0a1.242,1.242,0,1,1,1.242,1.242A1.242,1.242,0,0,1,72.864,84.042Zm-7.452,0a1.242,1.242,0,1,1,1.242,1.242A1.242,1.242,0,0,1,65.412,84.042Zm-2.484,0a1.242,1.242,0,1,1,1.242,1.242A1.242,1.242,0,0,1,62.928,84.042Zm-12.42,0a1.242,1.242,0,1,1,1.242,1.242A1.242,1.242,0,0,1,50.508,84.042Zm-4.968,0a1.242,1.242,0,1,1,1.242,1.242A1.242,1.242,0,0,1,45.54,84.042Zm-2.484,0A1.242,1.242,0,1,1,44.3,85.284,1.242,1.242,0,0,1,43.056,84.042Zm-4.968,0a1.242,1.242,0,1,1,1.242,1.242A1.242,1.242,0,0,1,38.088,84.042Zm-2.484,0a1.242,1.242,0,1,1,1.242,1.242A1.242,1.242,0,0,1,35.6,84.042Zm-4.968,0a1.242,1.242,0,1,1,1.242,1.242A1.242,1.242,0,0,1,30.636,84.042Zm-2.484,0a1.242,1.242,0,1,1,1.242,1.242A1.242,1.242,0,0,1,28.152,84.042Zm-2.484,0a1.242,1.242,0,1,1,1.242,1.242A1.242,1.242,0,0,1,25.668,84.042ZM95.22,81.558A1.242,1.242,0,1,1,96.462,82.8,1.242,1.242,0,0,1,95.22,81.558Zm-4.968,0A1.242,1.242,0,1,1,91.494,82.8,1.242,1.242,0,0,1,90.252,81.558Zm-2.484,0A1.242,1.242,0,1,1,89.01,82.8,1.242,1.242,0,0,1,87.768,81.558Zm-2.484,0A1.242,1.242,0,1,1,86.526,82.8,1.242,1.242,0,0,1,85.284,81.558Zm-4.968,0A1.242,1.242,0,1,1,81.558,82.8,1.242,1.242,0,0,1,80.316,81.558Zm-4.968,0A1.242,1.242,0,1,1,76.59,82.8,1.242,1.242,0,0,1,75.348,81.558Zm-2.484,0A1.242,1.242,0,1,1,74.106,82.8,1.242,1.242,0,0,1,72.864,81.558Zm-4.968,0A1.242,1.242,0,1,1,69.138,82.8,1.242,1.242,0,0,1,67.9,81.558Zm-4.968,0A1.242,1.242,0,1,1,64.17,82.8,1.242,1.242,0,0,1,62.928,81.558Zm-2.484,0A1.242,1.242,0,1,1,61.686,82.8,1.242,1.242,0,0,1,60.444,81.558Zm-4.968,0A1.242,1.242,0,1,1,56.718,82.8,1.242,1.242,0,0,1,55.476,81.558Zm-2.484,0A1.242,1.242,0,1,1,54.234,82.8,1.242,1.242,0,0,1,52.992,81.558Zm-2.484,0A1.242,1.242,0,1,1,51.75,82.8,1.242,1.242,0,0,1,50.508,81.558Zm-4.968,0A1.242,1.242,0,1,1,46.782,82.8,1.242,1.242,0,0,1,45.54,81.558Zm-2.484,0A1.242,1.242,0,1,1,44.3,82.8,1.242,1.242,0,0,1,43.056,81.558Zm-7.452,0A1.242,1.242,0,1,1,36.846,82.8,1.242,1.242,0,0,1,35.6,81.558Zm-7.452,0A1.242,1.242,0,1,1,29.394,82.8,1.242,1.242,0,0,1,28.152,81.558ZM95.22,79.074a1.242,1.242,0,1,1,1.242,1.242A1.242,1.242,0,0,1,95.22,79.074Zm-2.484,0a1.242,1.242,0,1,1,1.242,1.242A1.242,1.242,0,0,1,92.736,79.074Zm-7.452,0a1.242,1.242,0,1,1,1.242,1.242A1.242,1.242,0,0,1,85.284,79.074Zm-9.936,0a1.242,1.242,0,1,1,1.242,1.242A1.242,1.242,0,0,1,75.348,79.074Zm-4.968,0a1.242,1.242,0,1,1,1.242,1.242A1.242,1.242,0,0,1,70.38,79.074Zm-4.968,0a1.242,1.242,0,1,1,1.242,1.242A1.242,1.242,0,0,1,65.412,79.074Zm-2.484,0a1.242,1.242,0,1,1,1.242,1.242A1.242,1.242,0,0,1,62.928,79.074Zm-7.452,0a1.242,1.242,0,1,1,1.242,1.242A1.242,1.242,0,0,1,55.476,79.074Zm-9.936,0a1.242,1.242,0,1,1,1.242,1.242A1.242,1.242,0,0,1,45.54,79.074Zm-4.968,0a1.242,1.242,0,1,1,1.242,1.242A1.242,1.242,0,0,1,40.572,79.074Zm-2.484,0a1.242,1.242,0,1,1,1.242,1.242A1.242,1.242,0,0,1,38.088,79.074Zm-2.484,0a1.242,1.242,0,1,1,1.242,1.242A1.242,1.242,0,0,1,35.6,79.074Zm-2.484,0a1.242,1.242,0,1,1,1.242,1.242A1.242,1.242,0,0,1,33.12,79.074Zm-2.484,0a1.242,1.242,0,1,1,1.242,1.242A1.242,1.242,0,0,1,30.636,79.074Zm-2.484,0a1.242,1.242,0,1,1,1.242,1.242A1.242,1.242,0,0,1,28.152,79.074Zm-2.484,0a1.242,1.242,0,1,1,1.242,1.242A1.242,1.242,0,0,1,25.668,79.074ZM90.252,76.59a1.242,1.242,0,1,1,1.242,1.242A1.242,1.242,0,0,1,90.252,76.59Zm-2.484,0a1.242,1.242,0,1,1,1.242,1.242A1.242,1.242,0,0,1,87.768,76.59Zm-2.484,0a1.242,1.242,0,1,1,1.242,1.242A1.242,1.242,0,0,1,85.284,76.59Zm-2.484,0a1.242,1.242,0,1,1,1.242,1.242A1.242,1.242,0,0,1,82.8,76.59Zm-2.484,0a1.242,1.242,0,1,1,1.242,1.242A1.242,1.242,0,0,1,80.316,76.59Zm-2.484,0a1.242,1.242,0,1,1,1.242,1.242A1.242,1.242,0,0,1,77.832,76.59Zm-2.484,0a1.242,1.242,0,1,1,1.242,1.242A1.242,1.242,0,0,1,75.348,76.59Zm-2.484,0a1.242,1.242,0,1,1,1.242,1.242A1.242,1.242,0,0,1,72.864,76.59Zm-7.452,0a1.242,1.242,0,1,1,1.242,1.242A1.242,1.242,0,0,1,65.412,76.59Zm-2.484,0a1.242,1.242,0,1,1,1.242,1.242A1.242,1.242,0,0,1,62.928,76.59Zm-2.484,0a1.242,1.242,0,1,1,1.242,1.242A1.242,1.242,0,0,1,60.444,76.59Zm-9.936,0a1.242,1.242,0,1,1,1.242,1.242A1.242,1.242,0,0,1,50.508,76.59Zm-2.484,0a1.242,1.242,0,1,1,1.242,1.242A1.242,1.242,0,0,1,48.024,76.59Zm-9.936,0a1.242,1.242,0,1,1,1.242,1.242A1.242,1.242,0,0,1,38.088,76.59Zm-2.484,0a1.242,1.242,0,1,1,1.242,1.242A1.242,1.242,0,0,1,35.6,76.59Zm-4.968,0a1.242,1.242,0,1,1,1.242,1.242A1.242,1.242,0,0,1,30.636,76.59Zm-2.484,0a1.242,1.242,0,1,1,1.242,1.242A1.242,1.242,0,0,1,28.152,76.59Zm-7.452,0a1.242,1.242,0,1,1,1.242,1.242A1.242,1.242,0,0,1,20.7,76.59Zm-2.484,0a1.242,1.242,0,1,1,1.242,1.242A1.242,1.242,0,0,1,18.216,76.59Zm-4.968,0a1.242,1.242,0,1,1,1.242,1.242A1.242,1.242,0,0,1,13.248,76.59Zm-4.968,0a1.242,1.242,0,1,1,1.242,1.242A1.242,1.242,0,0,1,8.28,76.59Zm-2.484,0a1.242,1.242,0,1,1,1.242,1.242A1.242,1.242,0,0,1,5.8,76.59ZM95.22,74.106a1.242,1.242,0,1,1,1.242,1.242A1.242,1.242,0,0,1,95.22,74.106Zm-2.484,0a1.242,1.242,0,1,1,1.242,1.242A1.242,1.242,0,0,1,92.736,74.106Zm-2.484,0a1.242,1.242,0,1,1,1.242,1.242A1.242,1.242,0,0,1,90.252,74.106Zm-2.484,0a1.242,1.242,0,1,1,1.242,1.242A1.242,1.242,0,0,1,87.768,74.106Zm-14.9,0a1.242,1.242,0,1,1,1.242,1.242A1.242,1.242,0,0,1,72.864,74.106Zm-2.484,0a1.242,1.242,0,1,1,1.242,1.242A1.242,1.242,0,0,1,70.38,74.106Zm-4.968,0a1.242,1.242,0,1,1,1.242,1.242A1.242,1.242,0,0,1,65.412,74.106Zm-4.968,0a1.242,1.242,0,1,1,1.242,1.242A1.242,1.242,0,0,1,60.444,74.106Zm-2.484,0A1.242,1.242,0,1,1,59.2,75.348,1.242,1.242,0,0,1,57.96,74.106Zm-4.968,0a1.242,1.242,0,1,1,1.242,1.242A1.242,1.242,0,0,1,52.992,74.106Zm-2.484,0a1.242,1.242,0,1,1,1.242,1.242A1.242,1.242,0,0,1,50.508,74.106Zm-2.484,0a1.242,1.242,0,1,1,1.242,1.242A1.242,1.242,0,0,1,48.024,74.106Zm-4.968,0A1.242,1.242,0,1,1,44.3,75.348,1.242,1.242,0,0,1,43.056,74.106Zm-2.484,0a1.242,1.242,0,1,1,1.242,1.242A1.242,1.242,0,0,1,40.572,74.106Zm-2.484,0a1.242,1.242,0,1,1,1.242,1.242A1.242,1.242,0,0,1,38.088,74.106Zm-2.484,0a1.242,1.242,0,1,1,1.242,1.242A1.242,1.242,0,0,1,35.6,74.106Zm-9.936,0a1.242,1.242,0,1,1,1.242,1.242A1.242,1.242,0,0,1,25.668,74.106Zm-9.936,0a1.242,1.242,0,1,1,1.242,1.242A1.242,1.242,0,0,1,15.732,74.106Zm-2.484,0a1.242,1.242,0,1,1,1.242,1.242A1.242,1.242,0,0,1,13.248,74.106Zm-2.484,0a1.242,1.242,0,1,1,1.242,1.242A1.242,1.242,0,0,1,10.764,74.106Zm-4.968,0a1.242,1.242,0,1,1,1.242,1.242A1.242,1.242,0,0,1,5.8,74.106Zm86.94-2.484a1.242,1.242,0,1,1,1.242,1.242A1.242,1.242,0,0,1,92.736,71.622Zm-4.968,0a1.242,1.242,0,1,1,1.242,1.242A1.242,1.242,0,0,1,87.768,71.622Zm-4.968,0a1.242,1.242,0,1,1,1.242,1.242A1.242,1.242,0,0,1,82.8,71.622Zm-4.968,0a1.242,1.242,0,1,1,1.242,1.242A1.242,1.242,0,0,1,77.832,71.622Zm-9.936,0a1.242,1.242,0,1,1,1.242,1.242A1.242,1.242,0,0,1,67.9,71.622Zm-7.452,0a1.242,1.242,0,1,1,1.242,1.242A1.242,1.242,0,0,1,60.444,71.622Zm-2.484,0A1.242,1.242,0,1,1,59.2,72.864,1.242,1.242,0,0,1,57.96,71.622Zm-7.452,0a1.242,1.242,0,1,1,1.242,1.242A1.242,1.242,0,0,1,50.508,71.622Zm-2.484,0a1.242,1.242,0,1,1,1.242,1.242A1.242,1.242,0,0,1,48.024,71.622Zm-4.968,0A1.242,1.242,0,1,1,44.3,72.864,1.242,1.242,0,0,1,43.056,71.622Zm-2.484,0a1.242,1.242,0,1,1,1.242,1.242A1.242,1.242,0,0,1,40.572,71.622Zm-7.452,0a1.242,1.242,0,1,1,1.242,1.242A1.242,1.242,0,0,1,33.12,71.622Zm-2.484,0a1.242,1.242,0,1,1,1.242,1.242A1.242,1.242,0,0,1,30.636,71.622Zm-4.968,0a1.242,1.242,0,1,1,1.242,1.242A1.242,1.242,0,0,1,25.668,71.622Zm-2.484,0a1.242,1.242,0,1,1,1.242,1.242A1.242,1.242,0,0,1,23.184,71.622Zm-2.484,0a1.242,1.242,0,1,1,1.242,1.242A1.242,1.242,0,0,1,20.7,71.622Zm-2.484,0a1.242,1.242,0,1,1,1.242,1.242A1.242,1.242,0,0,1,18.216,71.622Zm-4.968,0a1.242,1.242,0,1,1,1.242,1.242A1.242,1.242,0,0,1,13.248,71.622Zm-4.968,0a1.242,1.242,0,1,1,1.242,1.242A1.242,1.242,0,0,1,8.28,71.622Zm-2.484,0a1.242,1.242,0,1,1,1.242,1.242A1.242,1.242,0,0,1,5.8,71.622ZM70.38,69.138a1.242,1.242,0,1,1,1.242,1.242A1.242,1.242,0,0,1,70.38,69.138Zm-2.484,0a1.242,1.242,0,1,1,1.242,1.242A1.242,1.242,0,0,1,67.9,69.138Zm-2.484,0a1.242,1.242,0,1,1,1.242,1.242A1.242,1.242,0,0,1,65.412,69.138Zm-2.484,0A1.242,1.242,0,1,1,64.17,70.38,1.242,1.242,0,0,1,62.928,69.138Zm-2.484,0a1.242,1.242,0,1,1,1.242,1.242A1.242,1.242,0,0,1,60.444,69.138Zm-12.42,0a1.242,1.242,0,1,1,1.242,1.242A1.242,1.242,0,0,1,48.024,69.138Zm-17.388,0a1.242,1.242,0,1,1,1.242,1.242A1.242,1.242,0,0,1,30.636,69.138Zm-4.968,0A1.242,1.242,0,1,1,26.91,70.38,1.242,1.242,0,0,1,25.668,69.138Zm-7.452,0a1.242,1.242,0,1,1,1.242,1.242A1.242,1.242,0,0,1,18.216,69.138Zm-2.484,0a1.242,1.242,0,1,1,1.242,1.242A1.242,1.242,0,0,1,15.732,69.138Zm-2.484,0A1.242,1.242,0,1,1,14.49,70.38,1.242,1.242,0,0,1,13.248,69.138Zm-7.452,0A1.242,1.242,0,1,1,7.038,70.38,1.242,1.242,0,0,1,5.8,69.138ZM95.22,66.654A1.242,1.242,0,1,1,96.462,67.9,1.242,1.242,0,0,1,95.22,66.654Zm-4.968,0A1.242,1.242,0,1,1,91.494,67.9,1.242,1.242,0,0,1,90.252,66.654Zm-2.484,0A1.242,1.242,0,1,1,89.01,67.9,1.242,1.242,0,0,1,87.768,66.654Zm-4.968,0A1.242,1.242,0,1,1,84.042,67.9,1.242,1.242,0,0,1,82.8,66.654Zm-2.484,0A1.242,1.242,0,1,1,81.558,67.9,1.242,1.242,0,0,1,80.316,66.654Zm-4.968,0A1.242,1.242,0,1,1,76.59,67.9,1.242,1.242,0,0,1,75.348,66.654Zm-4.968,0A1.242,1.242,0,1,1,71.622,67.9,1.242,1.242,0,0,1,70.38,66.654Zm-4.968,0A1.242,1.242,0,1,1,66.654,67.9,1.242,1.242,0,0,1,65.412,66.654Zm-2.484,0A1.242,1.242,0,1,1,64.17,67.9,1.242,1.242,0,0,1,62.928,66.654Zm-7.452,0A1.242,1.242,0,1,1,56.718,67.9,1.242,1.242,0,0,1,55.476,66.654Zm-2.484,0A1.242,1.242,0,1,1,54.234,67.9,1.242,1.242,0,0,1,52.992,66.654Zm-7.452,0A1.242,1.242,0,1,1,46.782,67.9,1.242,1.242,0,0,1,45.54,66.654Zm-2.484,0A1.242,1.242,0,1,1,44.3,67.9,1.242,1.242,0,0,1,43.056,66.654Zm-2.484,0A1.242,1.242,0,1,1,41.814,67.9,1.242,1.242,0,0,1,40.572,66.654Zm-4.968,0A1.242,1.242,0,1,1,36.846,67.9,1.242,1.242,0,0,1,35.6,66.654Zm-2.484,0A1.242,1.242,0,1,1,34.362,67.9,1.242,1.242,0,0,1,33.12,66.654Zm-2.484,0A1.242,1.242,0,1,1,31.878,67.9,1.242,1.242,0,0,1,30.636,66.654Zm-9.936,0A1.242,1.242,0,1,1,21.942,67.9,1.242,1.242,0,0,1,20.7,66.654Zm-14.9,0A1.242,1.242,0,1,1,7.038,67.9,1.242,1.242,0,0,1,5.8,66.654Zm86.94-2.484a1.242,1.242,0,1,1,1.242,1.242A1.242,1.242,0,0,1,92.736,64.17Zm-2.484,0a1.242,1.242,0,1,1,1.242,1.242A1.242,1.242,0,0,1,90.252,64.17Zm-7.452,0a1.242,1.242,0,1,1,1.242,1.242A1.242,1.242,0,0,1,82.8,64.17Zm-2.484,0a1.242,1.242,0,1,1,1.242,1.242A1.242,1.242,0,0,1,80.316,64.17Zm-2.484,0a1.242,1.242,0,1,1,1.242,1.242A1.242,1.242,0,0,1,77.832,64.17Zm-7.452,0a1.242,1.242,0,1,1,1.242,1.242A1.242,1.242,0,0,1,70.38,64.17Zm-2.484,0a1.242,1.242,0,1,1,1.242,1.242A1.242,1.242,0,0,1,67.9,64.17Zm-7.452,0a1.242,1.242,0,1,1,1.242,1.242A1.242,1.242,0,0,1,60.444,64.17Zm-2.484,0A1.242,1.242,0,1,1,59.2,65.412,1.242,1.242,0,0,1,57.96,64.17Zm-2.484,0a1.242,1.242,0,1,1,1.242,1.242A1.242,1.242,0,0,1,55.476,64.17Zm-14.9,0a1.242,1.242,0,1,1,1.242,1.242A1.242,1.242,0,0,1,40.572,64.17Zm-2.484,0a1.242,1.242,0,1,1,1.242,1.242A1.242,1.242,0,0,1,38.088,64.17Zm-2.484,0a1.242,1.242,0,1,1,1.242,1.242A1.242,1.242,0,0,1,35.6,64.17Zm-4.968,0a1.242,1.242,0,1,1,1.242,1.242A1.242,1.242,0,0,1,30.636,64.17Zm-2.484,0a1.242,1.242,0,1,1,1.242,1.242A1.242,1.242,0,0,1,28.152,64.17Zm-2.484,0a1.242,1.242,0,1,1,1.242,1.242A1.242,1.242,0,0,1,25.668,64.17Zm-2.484,0a1.242,1.242,0,1,1,1.242,1.242A1.242,1.242,0,0,1,23.184,64.17Zm-7.452,0a1.242,1.242,0,1,1,1.242,1.242A1.242,1.242,0,0,1,15.732,64.17Zm-2.484,0a1.242,1.242,0,1,1,1.242,1.242A1.242,1.242,0,0,1,13.248,64.17Zm-2.484,0a1.242,1.242,0,1,1,1.242,1.242A1.242,1.242,0,0,1,10.764,64.17ZM95.22,61.686a1.242,1.242,0,1,1,1.242,1.242A1.242,1.242,0,0,1,95.22,61.686Zm-2.484,0a1.242,1.242,0,1,1,1.242,1.242A1.242,1.242,0,0,1,92.736,61.686Zm-4.968,0a1.242,1.242,0,1,1,1.242,1.242A1.242,1.242,0,0,1,87.768,61.686Zm-7.452,0a1.242,1.242,0,1,1,1.242,1.242A1.242,1.242,0,0,1,80.316,61.686Zm-4.968,0a1.242,1.242,0,1,1,1.242,1.242A1.242,1.242,0,0,1,75.348,61.686Zm-4.968,0a1.242,1.242,0,1,1,1.242,1.242A1.242,1.242,0,0,1,70.38,61.686Zm-2.484,0a1.242,1.242,0,1,1,1.242,1.242A1.242,1.242,0,0,1,67.9,61.686Zm-2.484,0a1.242,1.242,0,1,1,1.242,1.242A1.242,1.242,0,0,1,65.412,61.686Zm-2.484,0a1.242,1.242,0,1,1,1.242,1.242A1.242,1.242,0,0,1,62.928,61.686Zm-4.968,0A1.242,1.242,0,1,1,59.2,62.928,1.242,1.242,0,0,1,57.96,61.686Zm-2.484,0a1.242,1.242,0,1,1,1.242,1.242A1.242,1.242,0,0,1,55.476,61.686Zm-4.968,0a1.242,1.242,0,1,1,1.242,1.242A1.242,1.242,0,0,1,50.508,61.686Zm-4.968,0a1.242,1.242,0,1,1,1.242,1.242A1.242,1.242,0,0,1,45.54,61.686Zm-2.484,0A1.242,1.242,0,1,1,44.3,62.928,1.242,1.242,0,0,1,43.056,61.686Zm-7.452,0a1.242,1.242,0,1,1,1.242,1.242A1.242,1.242,0,0,1,35.6,61.686Zm-4.968,0a1.242,1.242,0,1,1,1.242,1.242A1.242,1.242,0,0,1,30.636,61.686Zm-9.936,0a1.242,1.242,0,1,1,1.242,1.242A1.242,1.242,0,0,1,20.7,61.686Zm-4.968,0a1.242,1.242,0,1,1,1.242,1.242A1.242,1.242,0,0,1,15.732,61.686Zm-9.936,0a1.242,1.242,0,1,1,1.242,1.242A1.242,1.242,0,0,1,5.8,61.686ZM95.22,59.2a1.242,1.242,0,1,1,1.242,1.242A1.242,1.242,0,0,1,95.22,59.2Zm-2.484,0a1.242,1.242,0,1,1,1.242,1.242A1.242,1.242,0,0,1,92.736,59.2Zm-2.484,0a1.242,1.242,0,1,1,1.242,1.242A1.242,1.242,0,0,1,90.252,59.2Zm-7.452,0a1.242,1.242,0,1,1,1.242,1.242A1.242,1.242,0,0,1,82.8,59.2Zm-2.484,0a1.242,1.242,0,1,1,1.242,1.242A1.242,1.242,0,0,1,80.316,59.2Zm-4.968,0a1.242,1.242,0,1,1,1.242,1.242A1.242,1.242,0,0,1,75.348,59.2Zm-2.484,0a1.242,1.242,0,1,1,1.242,1.242A1.242,1.242,0,0,1,72.864,59.2Zm-2.484,0a1.242,1.242,0,1,1,1.242,1.242A1.242,1.242,0,0,1,70.38,59.2Zm-4.968,0a1.242,1.242,0,1,1,1.242,1.242A1.242,1.242,0,0,1,65.412,59.2Zm-2.484,0a1.242,1.242,0,1,1,1.242,1.242A1.242,1.242,0,0,1,62.928,59.2Zm-4.968,0A1.242,1.242,0,1,1,59.2,60.444,1.242,1.242,0,0,1,57.96,59.2Zm-2.484,0a1.242,1.242,0,1,1,1.242,1.242A1.242,1.242,0,0,1,55.476,59.2Zm-2.484,0a1.242,1.242,0,1,1,1.242,1.242A1.242,1.242,0,0,1,52.992,59.2Zm-14.9,0a1.242,1.242,0,1,1,1.242,1.242A1.242,1.242,0,0,1,38.088,59.2Zm-2.484,0a1.242,1.242,0,1,1,1.242,1.242A1.242,1.242,0,0,1,35.6,59.2Zm-2.484,0a1.242,1.242,0,1,1,1.242,1.242A1.242,1.242,0,0,1,33.12,59.2Zm-7.452,0a1.242,1.242,0,1,1,1.242,1.242A1.242,1.242,0,0,1,25.668,59.2Zm-2.484,0a1.242,1.242,0,1,1,1.242,1.242A1.242,1.242,0,0,1,23.184,59.2Zm-4.968,0a1.242,1.242,0,1,1,1.242,1.242A1.242,1.242,0,0,1,18.216,59.2Zm-7.452,0a1.242,1.242,0,1,1,1.242,1.242A1.242,1.242,0,0,1,10.764,59.2ZM5.8,59.2a1.242,1.242,0,1,1,1.242,1.242A1.242,1.242,0,0,1,5.8,59.2ZM95.22,56.718a1.242,1.242,0,1,1,1.242,1.242A1.242,1.242,0,0,1,95.22,56.718Zm-2.484,0a1.242,1.242,0,1,1,1.242,1.242A1.242,1.242,0,0,1,92.736,56.718Zm-7.452,0a1.242,1.242,0,1,1,1.242,1.242A1.242,1.242,0,0,1,85.284,56.718Zm-2.484,0a1.242,1.242,0,1,1,1.242,1.242A1.242,1.242,0,0,1,82.8,56.718Zm-4.968,0a1.242,1.242,0,1,1,1.242,1.242A1.242,1.242,0,0,1,77.832,56.718Zm-2.484,0A1.242,1.242,0,1,1,76.59,57.96,1.242,1.242,0,0,1,75.348,56.718Zm-4.968,0a1.242,1.242,0,1,1,1.242,1.242A1.242,1.242,0,0,1,70.38,56.718Zm-2.484,0a1.242,1.242,0,1,1,1.242,1.242A1.242,1.242,0,0,1,67.9,56.718Zm-7.452,0a1.242,1.242,0,1,1,1.242,1.242A1.242,1.242,0,0,1,60.444,56.718Zm-4.968,0a1.242,1.242,0,1,1,1.242,1.242A1.242,1.242,0,0,1,55.476,56.718Zm-4.968,0A1.242,1.242,0,1,1,51.75,57.96,1.242,1.242,0,0,1,50.508,56.718Zm-7.452,0A1.242,1.242,0,1,1,44.3,57.96,1.242,1.242,0,0,1,43.056,56.718Zm-7.452,0a1.242,1.242,0,1,1,1.242,1.242A1.242,1.242,0,0,1,35.6,56.718Zm-7.452,0a1.242,1.242,0,1,1,1.242,1.242A1.242,1.242,0,0,1,28.152,56.718Zm-7.452,0a1.242,1.242,0,1,1,1.242,1.242A1.242,1.242,0,0,1,20.7,56.718Zm-4.968,0a1.242,1.242,0,1,1,1.242,1.242A1.242,1.242,0,0,1,15.732,56.718Zm-4.968,0a1.242,1.242,0,1,1,1.242,1.242A1.242,1.242,0,0,1,10.764,56.718Zm-2.484,0A1.242,1.242,0,1,1,9.522,57.96,1.242,1.242,0,0,1,8.28,56.718Zm-2.484,0A1.242,1.242,0,1,1,7.038,57.96,1.242,1.242,0,0,1,5.8,56.718Zm86.94-2.484a1.242,1.242,0,1,1,1.242,1.242A1.242,1.242,0,0,1,92.736,54.234Zm-2.484,0a1.242,1.242,0,1,1,1.242,1.242A1.242,1.242,0,0,1,90.252,54.234Zm-2.484,0a1.242,1.242,0,1,1,1.242,1.242A1.242,1.242,0,0,1,87.768,54.234Zm-12.42,0a1.242,1.242,0,1,1,1.242,1.242A1.242,1.242,0,0,1,75.348,54.234Zm-4.968,0a1.242,1.242,0,1,1,1.242,1.242A1.242,1.242,0,0,1,70.38,54.234Zm-9.936,0a1.242,1.242,0,1,1,1.242,1.242A1.242,1.242,0,0,1,60.444,54.234Zm-7.452,0a1.242,1.242,0,1,1,1.242,1.242A1.242,1.242,0,0,1,52.992,54.234Zm-14.9,0a1.242,1.242,0,1,1,1.242,1.242A1.242,1.242,0,0,1,38.088,54.234Zm-4.968,0a1.242,1.242,0,1,1,1.242,1.242A1.242,1.242,0,0,1,33.12,54.234Zm-9.936,0a1.242,1.242,0,1,1,1.242,1.242A1.242,1.242,0,0,1,23.184,54.234Zm-9.936,0a1.242,1.242,0,1,1,1.242,1.242A1.242,1.242,0,0,1,13.248,54.234Zm-4.968,0a1.242,1.242,0,1,1,1.242,1.242A1.242,1.242,0,0,1,8.28,54.234ZM95.22,51.75a1.242,1.242,0,1,1,1.242,1.242A1.242,1.242,0,0,1,95.22,51.75Zm-2.484,0a1.242,1.242,0,1,1,1.242,1.242A1.242,1.242,0,0,1,92.736,51.75Zm-7.452,0a1.242,1.242,0,1,1,1.242,1.242A1.242,1.242,0,0,1,85.284,51.75Zm-7.452,0a1.242,1.242,0,1,1,1.242,1.242A1.242,1.242,0,0,1,77.832,51.75Zm-2.484,0a1.242,1.242,0,1,1,1.242,1.242A1.242,1.242,0,0,1,75.348,51.75Zm-2.484,0a1.242,1.242,0,1,1,1.242,1.242A1.242,1.242,0,0,1,72.864,51.75Zm-2.484,0a1.242,1.242,0,1,1,1.242,1.242A1.242,1.242,0,0,1,70.38,51.75Zm-4.968,0a1.242,1.242,0,1,1,1.242,1.242A1.242,1.242,0,0,1,65.412,51.75Zm-4.968,0a1.242,1.242,0,1,1,1.242,1.242A1.242,1.242,0,0,1,60.444,51.75Zm-2.484,0A1.242,1.242,0,1,1,59.2,52.992,1.242,1.242,0,0,1,57.96,51.75Zm-4.968,0a1.242,1.242,0,1,1,1.242,1.242A1.242,1.242,0,0,1,52.992,51.75Zm-2.484,0a1.242,1.242,0,1,1,1.242,1.242A1.242,1.242,0,0,1,50.508,51.75Zm-2.484,0a1.242,1.242,0,1,1,1.242,1.242A1.242,1.242,0,0,1,48.024,51.75Zm-2.484,0a1.242,1.242,0,1,1,1.242,1.242A1.242,1.242,0,0,1,45.54,51.75Zm-2.484,0A1.242,1.242,0,1,1,44.3,52.992,1.242,1.242,0,0,1,43.056,51.75Zm-2.484,0a1.242,1.242,0,1,1,1.242,1.242A1.242,1.242,0,0,1,40.572,51.75Zm-2.484,0a1.242,1.242,0,1,1,1.242,1.242A1.242,1.242,0,0,1,38.088,51.75Zm-4.968,0a1.242,1.242,0,1,1,1.242,1.242A1.242,1.242,0,0,1,33.12,51.75Zm-2.484,0a1.242,1.242,0,1,1,1.242,1.242A1.242,1.242,0,0,1,30.636,51.75Zm-2.484,0a1.242,1.242,0,1,1,1.242,1.242A1.242,1.242,0,0,1,28.152,51.75Zm-2.484,0a1.242,1.242,0,1,1,1.242,1.242A1.242,1.242,0,0,1,25.668,51.75Zm-4.968,0a1.242,1.242,0,1,1,1.242,1.242A1.242,1.242,0,0,1,20.7,51.75Zm-2.484,0a1.242,1.242,0,1,1,1.242,1.242A1.242,1.242,0,0,1,18.216,51.75Zm-4.968,0a1.242,1.242,0,1,1,1.242,1.242A1.242,1.242,0,0,1,13.248,51.75Zm-4.968,0a1.242,1.242,0,1,1,1.242,1.242A1.242,1.242,0,0,1,8.28,51.75Zm84.456-2.484a1.242,1.242,0,1,1,1.242,1.242A1.242,1.242,0,0,1,92.736,49.266Zm-2.484,0a1.242,1.242,0,1,1,1.242,1.242A1.242,1.242,0,0,1,90.252,49.266Zm-4.968,0a1.242,1.242,0,1,1,1.242,1.242A1.242,1.242,0,0,1,85.284,49.266Zm-9.936,0a1.242,1.242,0,1,1,1.242,1.242A1.242,1.242,0,0,1,75.348,49.266Zm-7.452,0a1.242,1.242,0,1,1,1.242,1.242A1.242,1.242,0,0,1,67.9,49.266Zm-7.452,0a1.242,1.242,0,1,1,1.242,1.242A1.242,1.242,0,0,1,60.444,49.266Zm-2.484,0A1.242,1.242,0,1,1,59.2,50.508,1.242,1.242,0,0,1,57.96,49.266Zm-2.484,0a1.242,1.242,0,1,1,1.242,1.242A1.242,1.242,0,0,1,55.476,49.266Zm-7.452,0a1.242,1.242,0,1,1,1.242,1.242A1.242,1.242,0,0,1,48.024,49.266Zm-2.484,0a1.242,1.242,0,1,1,1.242,1.242A1.242,1.242,0,0,1,45.54,49.266Zm-2.484,0A1.242,1.242,0,1,1,44.3,50.508,1.242,1.242,0,0,1,43.056,49.266Zm-2.484,0a1.242,1.242,0,1,1,1.242,1.242A1.242,1.242,0,0,1,40.572,49.266Zm-2.484,0a1.242,1.242,0,1,1,1.242,1.242A1.242,1.242,0,0,1,38.088,49.266Zm-2.484,0a1.242,1.242,0,1,1,1.242,1.242A1.242,1.242,0,0,1,35.6,49.266Zm-4.968,0a1.242,1.242,0,1,1,1.242,1.242A1.242,1.242,0,0,1,30.636,49.266Zm-4.968,0a1.242,1.242,0,1,1,1.242,1.242A1.242,1.242,0,0,1,25.668,49.266Zm-2.484,0a1.242,1.242,0,1,1,1.242,1.242A1.242,1.242,0,0,1,23.184,49.266Zm-9.936,0a1.242,1.242,0,1,1,1.242,1.242A1.242,1.242,0,0,1,13.248,49.266Zm-2.484,0a1.242,1.242,0,1,1,1.242,1.242A1.242,1.242,0,0,1,10.764,49.266Zm-4.968,0a1.242,1.242,0,1,1,1.242,1.242A1.242,1.242,0,0,1,5.8,49.266ZM95.22,46.782a1.242,1.242,0,1,1,1.242,1.242A1.242,1.242,0,0,1,95.22,46.782Zm-7.452,0a1.242,1.242,0,1,1,1.242,1.242A1.242,1.242,0,0,1,87.768,46.782Zm-2.484,0a1.242,1.242,0,1,1,1.242,1.242A1.242,1.242,0,0,1,85.284,46.782Zm-2.484,0a1.242,1.242,0,1,1,1.242,1.242A1.242,1.242,0,0,1,82.8,46.782Zm-2.484,0a1.242,1.242,0,1,1,1.242,1.242A1.242,1.242,0,0,1,80.316,46.782Zm-4.968,0a1.242,1.242,0,1,1,1.242,1.242A1.242,1.242,0,0,1,75.348,46.782Zm-2.484,0a1.242,1.242,0,1,1,1.242,1.242A1.242,1.242,0,0,1,72.864,46.782Zm-4.968,0a1.242,1.242,0,1,1,1.242,1.242A1.242,1.242,0,0,1,67.9,46.782Zm-2.484,0a1.242,1.242,0,1,1,1.242,1.242A1.242,1.242,0,0,1,65.412,46.782Zm-2.484,0a1.242,1.242,0,1,1,1.242,1.242A1.242,1.242,0,0,1,62.928,46.782Zm-9.936,0a1.242,1.242,0,1,1,1.242,1.242A1.242,1.242,0,0,1,52.992,46.782Zm-7.452,0a1.242,1.242,0,1,1,1.242,1.242A1.242,1.242,0,0,1,45.54,46.782Zm-2.484,0A1.242,1.242,0,1,1,44.3,48.024,1.242,1.242,0,0,1,43.056,46.782Zm-4.968,0a1.242,1.242,0,1,1,1.242,1.242A1.242,1.242,0,0,1,38.088,46.782Zm-2.484,0a1.242,1.242,0,1,1,1.242,1.242A1.242,1.242,0,0,1,35.6,46.782Zm-2.484,0a1.242,1.242,0,1,1,1.242,1.242A1.242,1.242,0,0,1,33.12,46.782Zm-4.968,0a1.242,1.242,0,1,1,1.242,1.242A1.242,1.242,0,0,1,28.152,46.782Zm-2.484,0a1.242,1.242,0,1,1,1.242,1.242A1.242,1.242,0,0,1,25.668,46.782Zm-4.968,0a1.242,1.242,0,1,1,1.242,1.242A1.242,1.242,0,0,1,20.7,46.782Zm-9.936,0a1.242,1.242,0,1,1,1.242,1.242A1.242,1.242,0,0,1,10.764,46.782ZM95.22,44.3a1.242,1.242,0,1,1,1.242,1.242A1.242,1.242,0,0,1,95.22,44.3Zm-4.968,0a1.242,1.242,0,1,1,1.242,1.242A1.242,1.242,0,0,1,90.252,44.3Zm-2.484,0A1.242,1.242,0,1,1,89.01,45.54,1.242,1.242,0,0,1,87.768,44.3Zm-4.968,0a1.242,1.242,0,1,1,1.242,1.242A1.242,1.242,0,0,1,82.8,44.3Zm-4.968,0a1.242,1.242,0,1,1,1.242,1.242A1.242,1.242,0,0,1,77.832,44.3Zm-9.936,0a1.242,1.242,0,1,1,1.242,1.242A1.242,1.242,0,0,1,67.9,44.3Zm-9.936,0A1.242,1.242,0,1,1,59.2,45.54,1.242,1.242,0,0,1,57.96,44.3Zm-9.936,0a1.242,1.242,0,1,1,1.242,1.242A1.242,1.242,0,0,1,48.024,44.3Zm-2.484,0a1.242,1.242,0,1,1,1.242,1.242A1.242,1.242,0,0,1,45.54,44.3Zm-4.968,0a1.242,1.242,0,1,1,1.242,1.242A1.242,1.242,0,0,1,40.572,44.3Zm-7.452,0a1.242,1.242,0,1,1,1.242,1.242A1.242,1.242,0,0,1,33.12,44.3Zm-2.484,0a1.242,1.242,0,1,1,1.242,1.242A1.242,1.242,0,0,1,30.636,44.3Zm-14.9,0a1.242,1.242,0,1,1,1.242,1.242A1.242,1.242,0,0,1,15.732,44.3Zm-2.484,0A1.242,1.242,0,1,1,14.49,45.54,1.242,1.242,0,0,1,13.248,44.3Zm-2.484,0a1.242,1.242,0,1,1,1.242,1.242A1.242,1.242,0,0,1,10.764,44.3ZM5.8,44.3A1.242,1.242,0,1,1,7.038,45.54,1.242,1.242,0,0,1,5.8,44.3ZM95.22,41.814a1.242,1.242,0,1,1,1.242,1.242A1.242,1.242,0,0,1,95.22,41.814Zm-7.452,0a1.242,1.242,0,1,1,1.242,1.242A1.242,1.242,0,0,1,87.768,41.814Zm-4.968,0a1.242,1.242,0,1,1,1.242,1.242A1.242,1.242,0,0,1,82.8,41.814Zm-7.452,0a1.242,1.242,0,1,1,1.242,1.242A1.242,1.242,0,0,1,75.348,41.814Zm-7.452,0a1.242,1.242,0,1,1,1.242,1.242A1.242,1.242,0,0,1,67.9,41.814Zm-2.484,0a1.242,1.242,0,1,1,1.242,1.242A1.242,1.242,0,0,1,65.412,41.814Zm-2.484,0a1.242,1.242,0,1,1,1.242,1.242A1.242,1.242,0,0,1,62.928,41.814Zm-4.968,0A1.242,1.242,0,1,1,59.2,43.056,1.242,1.242,0,0,1,57.96,41.814Zm-2.484,0a1.242,1.242,0,1,1,1.242,1.242A1.242,1.242,0,0,1,55.476,41.814Zm-4.968,0a1.242,1.242,0,1,1,1.242,1.242A1.242,1.242,0,0,1,50.508,41.814Zm-2.484,0a1.242,1.242,0,1,1,1.242,1.242A1.242,1.242,0,0,1,48.024,41.814Zm-7.452,0a1.242,1.242,0,1,1,1.242,1.242A1.242,1.242,0,0,1,40.572,41.814Zm-2.484,0a1.242,1.242,0,1,1,1.242,1.242A1.242,1.242,0,0,1,38.088,41.814Zm-2.484,0a1.242,1.242,0,1,1,1.242,1.242A1.242,1.242,0,0,1,35.6,41.814Zm-2.484,0a1.242,1.242,0,1,1,1.242,1.242A1.242,1.242,0,0,1,33.12,41.814Zm-4.968,0a1.242,1.242,0,1,1,1.242,1.242A1.242,1.242,0,0,1,28.152,41.814Zm-2.484,0a1.242,1.242,0,1,1,1.242,1.242A1.242,1.242,0,0,1,25.668,41.814Zm-2.484,0a1.242,1.242,0,1,1,1.242,1.242A1.242,1.242,0,0,1,23.184,41.814Zm-2.484,0a1.242,1.242,0,1,1,1.242,1.242A1.242,1.242,0,0,1,20.7,41.814Zm-2.484,0a1.242,1.242,0,1,1,1.242,1.242A1.242,1.242,0,0,1,18.216,41.814Zm-2.484,0a1.242,1.242,0,1,1,1.242,1.242A1.242,1.242,0,0,1,15.732,41.814Zm77-2.484a1.242,1.242,0,1,1,1.242,1.242A1.242,1.242,0,0,1,92.736,39.33Zm-2.484,0a1.242,1.242,0,1,1,1.242,1.242A1.242,1.242,0,0,1,90.252,39.33Zm-9.936,0a1.242,1.242,0,1,1,1.242,1.242A1.242,1.242,0,0,1,80.316,39.33Zm-2.484,0a1.242,1.242,0,1,1,1.242,1.242A1.242,1.242,0,0,1,77.832,39.33Zm-9.936,0a1.242,1.242,0,1,1,1.242,1.242A1.242,1.242,0,0,1,67.9,39.33Zm-24.84,0A1.242,1.242,0,1,1,44.3,40.572,1.242,1.242,0,0,1,43.056,39.33Zm-4.968,0a1.242,1.242,0,1,1,1.242,1.242A1.242,1.242,0,0,1,38.088,39.33Zm-7.452,0a1.242,1.242,0,1,1,1.242,1.242A1.242,1.242,0,0,1,30.636,39.33Zm-14.9,0a1.242,1.242,0,1,1,1.242,1.242A1.242,1.242,0,0,1,15.732,39.33Zm-2.484,0a1.242,1.242,0,1,1,1.242,1.242A1.242,1.242,0,0,1,13.248,39.33Zm-7.452,0a1.242,1.242,0,1,1,1.242,1.242A1.242,1.242,0,0,1,5.8,39.33Zm86.94-2.484a1.242,1.242,0,1,1,1.242,1.242A1.242,1.242,0,0,1,92.736,36.846Zm-4.968,0a1.242,1.242,0,1,1,1.242,1.242A1.242,1.242,0,0,1,87.768,36.846Zm-4.968,0a1.242,1.242,0,1,1,1.242,1.242A1.242,1.242,0,0,1,82.8,36.846Zm-2.484,0a1.242,1.242,0,1,1,1.242,1.242A1.242,1.242,0,0,1,80.316,36.846Zm-2.484,0a1.242,1.242,0,1,1,1.242,1.242A1.242,1.242,0,0,1,77.832,36.846Zm-4.968,0a1.242,1.242,0,1,1,1.242,1.242A1.242,1.242,0,0,1,72.864,36.846Zm-12.42,0a1.242,1.242,0,1,1,1.242,1.242A1.242,1.242,0,0,1,60.444,36.846Zm-4.968,0a1.242,1.242,0,1,1,1.242,1.242A1.242,1.242,0,0,1,55.476,36.846Zm-2.484,0a1.242,1.242,0,1,1,1.242,1.242A1.242,1.242,0,0,1,52.992,36.846Zm-2.484,0a1.242,1.242,0,1,1,1.242,1.242A1.242,1.242,0,0,1,50.508,36.846Zm-12.42,0a1.242,1.242,0,1,1,1.242,1.242A1.242,1.242,0,0,1,38.088,36.846Zm-2.484,0a1.242,1.242,0,1,1,1.242,1.242A1.242,1.242,0,0,1,35.6,36.846Zm-9.936,0a1.242,1.242,0,1,1,1.242,1.242A1.242,1.242,0,0,1,25.668,36.846Zm-4.968,0a1.242,1.242,0,1,1,1.242,1.242A1.242,1.242,0,0,1,20.7,36.846Zm-9.936,0a1.242,1.242,0,1,1,1.242,1.242A1.242,1.242,0,0,1,10.764,36.846Zm-2.484,0a1.242,1.242,0,1,1,1.242,1.242A1.242,1.242,0,0,1,8.28,36.846Zm84.456-2.484A1.242,1.242,0,1,1,93.978,35.6,1.242,1.242,0,0,1,92.736,34.362Zm-2.484,0A1.242,1.242,0,1,1,91.494,35.6,1.242,1.242,0,0,1,90.252,34.362Zm-2.484,0A1.242,1.242,0,1,1,89.01,35.6,1.242,1.242,0,0,1,87.768,34.362Zm-2.484,0A1.242,1.242,0,1,1,86.526,35.6,1.242,1.242,0,0,1,85.284,34.362Zm-4.968,0A1.242,1.242,0,1,1,81.558,35.6,1.242,1.242,0,0,1,80.316,34.362Zm-7.452,0A1.242,1.242,0,1,1,74.106,35.6,1.242,1.242,0,0,1,72.864,34.362Zm-2.484,0A1.242,1.242,0,1,1,71.622,35.6,1.242,1.242,0,0,1,70.38,34.362Zm-2.484,0A1.242,1.242,0,1,1,69.138,35.6,1.242,1.242,0,0,1,67.9,34.362Zm-2.484,0A1.242,1.242,0,1,1,66.654,35.6,1.242,1.242,0,0,1,65.412,34.362Zm-2.484,0A1.242,1.242,0,1,1,64.17,35.6,1.242,1.242,0,0,1,62.928,34.362Zm-2.484,0A1.242,1.242,0,1,1,61.686,35.6,1.242,1.242,0,0,1,60.444,34.362Zm-2.484,0A1.242,1.242,0,1,1,59.2,35.6,1.242,1.242,0,0,1,57.96,34.362Zm-4.968,0A1.242,1.242,0,1,1,54.234,35.6,1.242,1.242,0,0,1,52.992,34.362Zm-2.484,0A1.242,1.242,0,1,1,51.75,35.6,1.242,1.242,0,0,1,50.508,34.362Zm-2.484,0A1.242,1.242,0,1,1,49.266,35.6,1.242,1.242,0,0,1,48.024,34.362Zm-2.484,0A1.242,1.242,0,1,1,46.782,35.6,1.242,1.242,0,0,1,45.54,34.362Zm-7.452,0A1.242,1.242,0,1,1,39.33,35.6,1.242,1.242,0,0,1,38.088,34.362Zm-4.968,0A1.242,1.242,0,1,1,34.362,35.6,1.242,1.242,0,0,1,33.12,34.362Zm-4.968,0A1.242,1.242,0,1,1,29.394,35.6,1.242,1.242,0,0,1,28.152,34.362Zm-4.968,0A1.242,1.242,0,1,1,24.426,35.6,1.242,1.242,0,0,1,23.184,34.362Zm-17.388,0A1.242,1.242,0,1,1,7.038,35.6,1.242,1.242,0,0,1,5.8,34.362ZM95.22,31.878a1.242,1.242,0,1,1,1.242,1.242A1.242,1.242,0,0,1,95.22,31.878Zm-2.484,0a1.242,1.242,0,1,1,1.242,1.242A1.242,1.242,0,0,1,92.736,31.878Zm-4.968,0A1.242,1.242,0,1,1,89.01,33.12,1.242,1.242,0,0,1,87.768,31.878Zm-7.452,0a1.242,1.242,0,1,1,1.242,1.242A1.242,1.242,0,0,1,80.316,31.878Zm-2.484,0a1.242,1.242,0,1,1,1.242,1.242A1.242,1.242,0,0,1,77.832,31.878Zm-2.484,0A1.242,1.242,0,1,1,76.59,33.12,1.242,1.242,0,0,1,75.348,31.878Zm-4.968,0a1.242,1.242,0,1,1,1.242,1.242A1.242,1.242,0,0,1,70.38,31.878Zm-2.484,0a1.242,1.242,0,1,1,1.242,1.242A1.242,1.242,0,0,1,67.9,31.878Zm-7.452,0a1.242,1.242,0,1,1,1.242,1.242A1.242,1.242,0,0,1,60.444,31.878Zm-2.484,0A1.242,1.242,0,1,1,59.2,33.12,1.242,1.242,0,0,1,57.96,31.878Zm-9.936,0a1.242,1.242,0,1,1,1.242,1.242A1.242,1.242,0,0,1,48.024,31.878Zm-7.452,0a1.242,1.242,0,1,1,1.242,1.242A1.242,1.242,0,0,1,40.572,31.878Zm-2.484,0A1.242,1.242,0,1,1,39.33,33.12,1.242,1.242,0,0,1,38.088,31.878Zm-4.968,0a1.242,1.242,0,1,1,1.242,1.242A1.242,1.242,0,0,1,33.12,31.878Zm-4.968,0a1.242,1.242,0,1,1,1.242,1.242A1.242,1.242,0,0,1,28.152,31.878Zm-7.452,0a1.242,1.242,0,1,1,1.242,1.242A1.242,1.242,0,0,1,20.7,31.878Zm-4.968,0a1.242,1.242,0,1,1,1.242,1.242A1.242,1.242,0,0,1,15.732,31.878Zm-7.452,0A1.242,1.242,0,1,1,9.522,33.12,1.242,1.242,0,0,1,8.28,31.878Zm86.94-2.484a1.242,1.242,0,1,1,1.242,1.242A1.242,1.242,0,0,1,95.22,29.394Zm-4.968,0a1.242,1.242,0,1,1,1.242,1.242A1.242,1.242,0,0,1,90.252,29.394Zm-2.484,0a1.242,1.242,0,1,1,1.242,1.242A1.242,1.242,0,0,1,87.768,29.394Zm-2.484,0a1.242,1.242,0,1,1,1.242,1.242A1.242,1.242,0,0,1,85.284,29.394Zm-9.936,0a1.242,1.242,0,1,1,1.242,1.242A1.242,1.242,0,0,1,75.348,29.394Zm-2.484,0a1.242,1.242,0,1,1,1.242,1.242A1.242,1.242,0,0,1,72.864,29.394Zm-2.484,0a1.242,1.242,0,1,1,1.242,1.242A1.242,1.242,0,0,1,70.38,29.394Zm-2.484,0a1.242,1.242,0,1,1,1.242,1.242A1.242,1.242,0,0,1,67.9,29.394Zm-4.968,0a1.242,1.242,0,1,1,1.242,1.242A1.242,1.242,0,0,1,62.928,29.394Zm-2.484,0a1.242,1.242,0,1,1,1.242,1.242A1.242,1.242,0,0,1,60.444,29.394Zm-9.936,0a1.242,1.242,0,1,1,1.242,1.242A1.242,1.242,0,0,1,50.508,29.394Zm-2.484,0a1.242,1.242,0,1,1,1.242,1.242A1.242,1.242,0,0,1,48.024,29.394Zm-2.484,0a1.242,1.242,0,1,1,1.242,1.242A1.242,1.242,0,0,1,45.54,29.394Zm-9.936,0a1.242,1.242,0,1,1,1.242,1.242A1.242,1.242,0,0,1,35.6,29.394Zm-2.484,0a1.242,1.242,0,1,1,1.242,1.242A1.242,1.242,0,0,1,33.12,29.394Zm-2.484,0a1.242,1.242,0,1,1,1.242,1.242A1.242,1.242,0,0,1,30.636,29.394Zm-4.968,0a1.242,1.242,0,1,1,1.242,1.242A1.242,1.242,0,0,1,25.668,29.394Zm-12.42,0a1.242,1.242,0,1,1,1.242,1.242A1.242,1.242,0,0,1,13.248,29.394Zm-2.484,0a1.242,1.242,0,1,1,1.242,1.242A1.242,1.242,0,0,1,10.764,29.394Zm-2.484,0a1.242,1.242,0,1,1,1.242,1.242A1.242,1.242,0,0,1,8.28,29.394Zm-2.484,0a1.242,1.242,0,1,1,1.242,1.242A1.242,1.242,0,0,1,5.8,29.394Zm86.94-2.484a1.242,1.242,0,1,1,1.242,1.242A1.242,1.242,0,0,1,92.736,26.91Zm-7.452,0a1.242,1.242,0,1,1,1.242,1.242A1.242,1.242,0,0,1,85.284,26.91Zm-7.452,0a1.242,1.242,0,1,1,1.242,1.242A1.242,1.242,0,0,1,77.832,26.91Zm-2.484,0a1.242,1.242,0,1,1,1.242,1.242A1.242,1.242,0,0,1,75.348,26.91Zm-2.484,0a1.242,1.242,0,1,1,1.242,1.242A1.242,1.242,0,0,1,72.864,26.91Zm-2.484,0a1.242,1.242,0,1,1,1.242,1.242A1.242,1.242,0,0,1,70.38,26.91Zm-14.9,0a1.242,1.242,0,1,1,1.242,1.242A1.242,1.242,0,0,1,55.476,26.91Zm-4.968,0a1.242,1.242,0,1,1,1.242,1.242A1.242,1.242,0,0,1,50.508,26.91Zm-7.452,0A1.242,1.242,0,1,1,44.3,28.152,1.242,1.242,0,0,1,43.056,26.91Zm-4.968,0a1.242,1.242,0,1,1,1.242,1.242A1.242,1.242,0,0,1,38.088,26.91Zm-4.968,0a1.242,1.242,0,1,1,1.242,1.242A1.242,1.242,0,0,1,33.12,26.91Zm-4.968,0a1.242,1.242,0,1,1,1.242,1.242A1.242,1.242,0,0,1,28.152,26.91Zm-2.484,0a1.242,1.242,0,1,1,1.242,1.242A1.242,1.242,0,0,1,25.668,26.91Zm-4.968,0a1.242,1.242,0,1,1,1.242,1.242A1.242,1.242,0,0,1,20.7,26.91Zm-2.484,0a1.242,1.242,0,1,1,1.242,1.242A1.242,1.242,0,0,1,18.216,26.91Zm-2.484,0a1.242,1.242,0,1,1,1.242,1.242A1.242,1.242,0,0,1,15.732,26.91Zm-4.968,0a1.242,1.242,0,1,1,1.242,1.242A1.242,1.242,0,0,1,10.764,26.91Zm64.584-2.484a1.242,1.242,0,1,1,1.242,1.242A1.242,1.242,0,0,1,75.348,24.426Zm-2.484,0a1.242,1.242,0,1,1,1.242,1.242A1.242,1.242,0,0,1,72.864,24.426Zm-2.484,0a1.242,1.242,0,1,1,1.242,1.242A1.242,1.242,0,0,1,70.38,24.426Zm-2.484,0a1.242,1.242,0,1,1,1.242,1.242A1.242,1.242,0,0,1,67.9,24.426Zm-2.484,0a1.242,1.242,0,1,1,1.242,1.242A1.242,1.242,0,0,1,65.412,24.426Zm-7.452,0A1.242,1.242,0,1,1,59.2,25.668,1.242,1.242,0,0,1,57.96,24.426Zm-2.484,0a1.242,1.242,0,1,1,1.242,1.242A1.242,1.242,0,0,1,55.476,24.426Zm-12.42,0A1.242,1.242,0,1,1,44.3,25.668,1.242,1.242,0,0,1,43.056,24.426Zm-2.484,0a1.242,1.242,0,1,1,1.242,1.242A1.242,1.242,0,0,1,40.572,24.426Zm-2.484,0a1.242,1.242,0,1,1,1.242,1.242A1.242,1.242,0,0,1,38.088,24.426Zm-2.484,0a1.242,1.242,0,1,1,1.242,1.242A1.242,1.242,0,0,1,35.6,24.426Zm39.744-2.484a1.242,1.242,0,1,1,1.242,1.242A1.242,1.242,0,0,1,75.348,21.942Zm-4.968,0a1.242,1.242,0,1,1,1.242,1.242A1.242,1.242,0,0,1,70.38,21.942Zm-4.968,0a1.242,1.242,0,1,1,1.242,1.242A1.242,1.242,0,0,1,65.412,21.942Zm-4.968,0a1.242,1.242,0,1,1,1.242,1.242A1.242,1.242,0,0,1,60.444,21.942Zm-4.968,0a1.242,1.242,0,1,1,1.242,1.242A1.242,1.242,0,0,1,55.476,21.942Zm-4.968,0a1.242,1.242,0,1,1,1.242,1.242A1.242,1.242,0,0,1,50.508,21.942Zm-4.968,0a1.242,1.242,0,1,1,1.242,1.242A1.242,1.242,0,0,1,45.54,21.942Zm-4.968,0a1.242,1.242,0,1,1,1.242,1.242A1.242,1.242,0,0,1,40.572,21.942Zm-4.968,0a1.242,1.242,0,1,1,1.242,1.242A1.242,1.242,0,0,1,35.6,21.942Zm-4.968,0a1.242,1.242,0,1,1,1.242,1.242A1.242,1.242,0,0,1,30.636,21.942Zm-4.968,0a1.242,1.242,0,1,1,1.242,1.242A1.242,1.242,0,0,1,25.668,21.942Zm47.2-2.484A1.242,1.242,0,1,1,74.106,20.7,1.242,1.242,0,0,1,72.864,19.458Zm-2.484,0A1.242,1.242,0,1,1,71.622,20.7,1.242,1.242,0,0,1,70.38,19.458Zm-2.484,0A1.242,1.242,0,1,1,69.138,20.7,1.242,1.242,0,0,1,67.9,19.458Zm-2.484,0A1.242,1.242,0,1,1,66.654,20.7,1.242,1.242,0,0,1,65.412,19.458Zm-9.936,0A1.242,1.242,0,1,1,56.718,20.7,1.242,1.242,0,0,1,55.476,19.458Zm-7.452,0A1.242,1.242,0,1,1,49.266,20.7,1.242,1.242,0,0,1,48.024,19.458Zm-2.484,0A1.242,1.242,0,1,1,46.782,20.7,1.242,1.242,0,0,1,45.54,19.458Zm-4.968,0A1.242,1.242,0,1,1,41.814,20.7,1.242,1.242,0,0,1,40.572,19.458Zm-4.968,0A1.242,1.242,0,1,1,36.846,20.7,1.242,1.242,0,0,1,35.6,19.458Zm-2.484,0A1.242,1.242,0,1,1,34.362,20.7,1.242,1.242,0,0,1,33.12,19.458Zm-2.484,0A1.242,1.242,0,1,1,31.878,20.7,1.242,1.242,0,0,1,30.636,19.458Zm42.228-2.484a1.242,1.242,0,1,1,1.242,1.242A1.242,1.242,0,0,1,72.864,16.974Zm-7.452,0a1.242,1.242,0,1,1,1.242,1.242A1.242,1.242,0,0,1,65.412,16.974Zm-2.484,0a1.242,1.242,0,1,1,1.242,1.242A1.242,1.242,0,0,1,62.928,16.974Zm-2.484,0a1.242,1.242,0,1,1,1.242,1.242A1.242,1.242,0,0,1,60.444,16.974Zm-7.452,0a1.242,1.242,0,1,1,1.242,1.242A1.242,1.242,0,0,1,52.992,16.974Zm-4.968,0a1.242,1.242,0,1,1,1.242,1.242A1.242,1.242,0,0,1,48.024,16.974Zm-2.484,0a1.242,1.242,0,1,1,1.242,1.242A1.242,1.242,0,0,1,45.54,16.974Zm-2.484,0A1.242,1.242,0,1,1,44.3,18.216,1.242,1.242,0,0,1,43.056,16.974Zm-2.484,0a1.242,1.242,0,1,1,1.242,1.242A1.242,1.242,0,0,1,40.572,16.974Zm-2.484,0a1.242,1.242,0,1,1,1.242,1.242A1.242,1.242,0,0,1,38.088,16.974Zm-7.452,0a1.242,1.242,0,1,1,1.242,1.242A1.242,1.242,0,0,1,30.636,16.974Zm-2.484,0a1.242,1.242,0,1,1,1.242,1.242A1.242,1.242,0,0,1,28.152,16.974Zm-2.484,0a1.242,1.242,0,1,1,1.242,1.242A1.242,1.242,0,0,1,25.668,16.974Zm47.2-2.484a1.242,1.242,0,1,1,1.242,1.242A1.242,1.242,0,0,1,72.864,14.49Zm-4.968,0a1.242,1.242,0,1,1,1.242,1.242A1.242,1.242,0,0,1,67.9,14.49Zm-2.484,0a1.242,1.242,0,1,1,1.242,1.242A1.242,1.242,0,0,1,65.412,14.49Zm-7.452,0A1.242,1.242,0,1,1,59.2,15.732,1.242,1.242,0,0,1,57.96,14.49Zm-2.484,0a1.242,1.242,0,1,1,1.242,1.242A1.242,1.242,0,0,1,55.476,14.49Zm-2.484,0a1.242,1.242,0,1,1,1.242,1.242A1.242,1.242,0,0,1,52.992,14.49Zm-14.9,0a1.242,1.242,0,1,1,1.242,1.242A1.242,1.242,0,0,1,38.088,14.49Zm-2.484,0a1.242,1.242,0,1,1,1.242,1.242A1.242,1.242,0,0,1,35.6,14.49Zm-2.484,0a1.242,1.242,0,1,1,1.242,1.242A1.242,1.242,0,0,1,33.12,14.49Zm-2.484,0a1.242,1.242,0,1,1,1.242,1.242A1.242,1.242,0,0,1,30.636,14.49Zm44.712-2.484a1.242,1.242,0,1,1,1.242,1.242A1.242,1.242,0,0,1,75.348,12.006Zm-4.968,0a1.242,1.242,0,1,1,1.242,1.242A1.242,1.242,0,0,1,70.38,12.006Zm-2.484,0a1.242,1.242,0,1,1,1.242,1.242A1.242,1.242,0,0,1,67.9,12.006Zm-4.968,0a1.242,1.242,0,1,1,1.242,1.242A1.242,1.242,0,0,1,62.928,12.006Zm-7.452,0a1.242,1.242,0,1,1,1.242,1.242A1.242,1.242,0,0,1,55.476,12.006Zm-2.484,0a1.242,1.242,0,1,1,1.242,1.242A1.242,1.242,0,0,1,52.992,12.006Zm-2.484,0a1.242,1.242,0,1,1,1.242,1.242A1.242,1.242,0,0,1,50.508,12.006Zm-2.484,0a1.242,1.242,0,1,1,1.242,1.242A1.242,1.242,0,0,1,48.024,12.006Zm-4.968,0A1.242,1.242,0,1,1,44.3,13.248,1.242,1.242,0,0,1,43.056,12.006Zm-4.968,0a1.242,1.242,0,1,1,1.242,1.242A1.242,1.242,0,0,1,38.088,12.006Zm-7.452,0a1.242,1.242,0,1,1,1.242,1.242A1.242,1.242,0,0,1,30.636,12.006ZM75.348,9.522a1.242,1.242,0,1,1,1.242,1.242A1.242,1.242,0,0,1,75.348,9.522Zm-7.452,0a1.242,1.242,0,1,1,1.242,1.242A1.242,1.242,0,0,1,67.9,9.522Zm-2.484,0a1.242,1.242,0,1,1,1.242,1.242A1.242,1.242,0,0,1,65.412,9.522Zm-2.484,0a1.242,1.242,0,1,1,1.242,1.242A1.242,1.242,0,0,1,62.928,9.522Zm-4.968,0A1.242,1.242,0,1,1,59.2,10.764,1.242,1.242,0,0,1,57.96,9.522Zm-4.968,0a1.242,1.242,0,1,1,1.242,1.242A1.242,1.242,0,0,1,52.992,9.522Zm-17.388,0a1.242,1.242,0,1,1,1.242,1.242A1.242,1.242,0,0,1,35.6,9.522Zm-2.484,0a1.242,1.242,0,1,1,1.242,1.242A1.242,1.242,0,0,1,33.12,9.522Zm-2.484,0a1.242,1.242,0,1,1,1.242,1.242A1.242,1.242,0,0,1,30.636,9.522Zm-4.968,0a1.242,1.242,0,1,1,1.242,1.242A1.242,1.242,0,0,1,25.668,9.522Zm49.68-2.484A1.242,1.242,0,1,1,76.59,8.28,1.242,1.242,0,0,1,75.348,7.038Zm-7.452,0A1.242,1.242,0,1,1,69.138,8.28,1.242,1.242,0,0,1,67.9,7.038Zm-4.968,0A1.242,1.242,0,1,1,64.17,8.28,1.242,1.242,0,0,1,62.928,7.038Zm-2.484,0A1.242,1.242,0,1,1,61.686,8.28,1.242,1.242,0,0,1,60.444,7.038Zm-2.484,0A1.242,1.242,0,1,1,59.2,8.28,1.242,1.242,0,0,1,57.96,7.038Zm-4.968,0A1.242,1.242,0,1,1,54.234,8.28,1.242,1.242,0,0,1,52.992,7.038Zm-2.484,0A1.242,1.242,0,1,1,51.75,8.28,1.242,1.242,0,0,1,50.508,7.038Zm-4.968,0A1.242,1.242,0,1,1,46.782,8.28,1.242,1.242,0,0,1,45.54,7.038Zm-7.452,0A1.242,1.242,0,1,1,39.33,8.28,1.242,1.242,0,0,1,38.088,7.038Zm-2.484,0A1.242,1.242,0,1,1,36.846,8.28,1.242,1.242,0,0,1,35.6,7.038Z" fill="none"/>
    </clipPath>
    <clipPath id="clip-path-2">
      <path id="Trazado_1829" data-name="Trazado 1829" d="M14.49,5.8a8.694,8.694,0,1,0,.021,0Zm0,2.484a6.21,6.21,0,1,1-.021,0Z" transform="translate(-5.796 -5.796)"/>
    </clipPath>
    <clipPath id="clip-path-3">
      <circle id="Elipse_11530" data-name="Elipse 11530" cx="3.726" cy="3.726" r="3.726"/>
    </clipPath>
    <clipPath id="clip-path-4">
      <path id="Trazado_1830" data-name="Trazado 1830" d="M89.01,5.8a8.694,8.694,0,1,0,.021,0Zm0,2.484a6.21,6.21,0,1,1-.021,0Z" transform="translate(23.184 -80.316) rotate(90)"/>
    </clipPath>
    <clipPath id="clip-path-5">
      <circle id="Elipse_11531" data-name="Elipse 11531" cx="3.726" cy="3.726" r="3.726" transform="translate(7.452) rotate(90)"/>
    </clipPath>
    <clipPath id="clip-path-6">
      <path id="Trazado_1831" data-name="Trazado 1831" d="M14.49,80.316a8.694,8.694,0,1,0,.021,0Zm0,2.484a6.21,6.21,0,1,1-.021,0Z" transform="translate(-80.316 23.184) rotate(-90)"/>
    </clipPath>
    <clipPath id="clip-path-7">
      <circle id="Elipse_11532" data-name="Elipse 11532" cx="3.726" cy="3.726" r="3.726" transform="translate(0 7.452) rotate(-90)"/>
    </clipPath>
  </defs>
  <g id="QR_2" transform="translate(-651.662 -788.507)">
    <rect id="Rectángulo_1243" data-name="Rectángulo 1243" width="103.5" height="103.5" transform="translate(651.662 788.507)" fill="#fff"/>
    <g id="Grupo_2451" data-name="Grupo 2451" transform="translate(651.662 788.507)" clip-path="url(#clip-path)">
      <rect id="Rectángulo_1244" data-name="Rectángulo 1244" width="103.5" height="103.5"/>
    </g>
    <g id="Grupo_2452" data-name="Grupo 2452" transform="translate(657.458 794.303)" clip-path="url(#clip-path-2)">
      <rect id="Rectángulo_1245" data-name="Rectángulo 1245" width="17.388" height="17.388"/>
    </g>
    <g id="Grupo_2453" data-name="Grupo 2453" transform="translate(662.426 799.271)" clip-path="url(#clip-path-3)">
      <rect id="Rectángulo_1246" data-name="Rectángulo 1246" width="7.452" height="7.452"/>
    </g>
    <g id="Grupo_2454" data-name="Grupo 2454" transform="translate(731.978 794.303)" clip-path="url(#clip-path-4)">
      <rect id="Rectángulo_1247" data-name="Rectángulo 1247" width="17.388" height="17.388"/>
    </g>
    <g id="Grupo_2455" data-name="Grupo 2455" transform="translate(736.946 799.271)" clip-path="url(#clip-path-5)">
      <rect id="Rectángulo_1248" data-name="Rectángulo 1248" width="7.452" height="7.452"/>
    </g>
    <g id="Grupo_2456" data-name="Grupo 2456" transform="translate(657.458 868.823)" clip-path="url(#clip-path-6)">
      <rect id="Rectángulo_1249" data-name="Rectángulo 1249" width="17.388" height="17.388"/>
    </g>
    <g id="Grupo_2457" data-name="Grupo 2457" transform="translate(662.426 873.791)" clip-path="url(#clip-path-7)">
      <rect id="Rectángulo_1250" data-name="Rectángulo 1250" width="7.452" height="7.452"/>
    </g>
  </g>
</svg>
