<?xml version="1.0" encoding="UTF-8"?>
<svg id="Capa_2" data-name="Capa 2" xmlns="http://www.w3.org/2000/svg" xmlns:xlink="http://www.w3.org/1999/xlink" viewBox="0 0 787 453.88">
  <defs>
    <style>
      .cls-1, .cls-2 {
        fill: none;
      }

      .cls-3, .cls-4, .cls-5, .cls-6, .cls-7, .cls-8, .cls-9, .cls-10, .cls-11, .cls-12, .cls-13 {
        fill: #fff;
      }

      .cls-3, .cls-4, .cls-6, .cls-7, .cls-8, .cls-9, .cls-11, .cls-12, .cls-13 {
        isolation: isolate;
      }

      .cls-3, .cls-6, .cls-7 {
        font-family: ArialMT, Arial;
      }

      .cls-3, .cls-12 {
        font-size: 12px;
      }

      .cls-4 {
        font-size: 11px;
      }

      .cls-4, .cls-8, .cls-11, .cls-12, .cls-13 {
        font-weight: 700;
      }

      .cls-4, .cls-11, .cls-12, .cls-13 {
        font-family: Arial-BoldMT, Arial;
      }

      .cls-5, .cls-14 {
        fill-rule: evenodd;
      }

      .cls-6 {
        font-size: 31.99px;
      }

      .cls-7 {
        font-size: 9px;
      }

      .cls-2 {
        stroke: #fff;
        stroke-linejoin: round;
        stroke-width: 1px;
      }

      .cls-8 {
        font-family: Arial-BoldItalicMT, Arial;
      }

      .cls-8, .cls-9 {
        font-size: 13px;
        font-style: italic;
      }

      .cls-15 {
        clip-path: url(#clippath-17);
      }

      .cls-16 {
        clip-path: url(#clippath-11);
      }

      .cls-17 {
        clip-path: url(#clippath-16);
      }

      .cls-18 {
        clip-path: url(#clippath-10);
      }

      .cls-19 {
        clip-path: url(#clippath-15);
      }

      .cls-20 {
        clip-path: url(#clippath-13);
      }

      .cls-21 {
        clip-path: url(#clippath-14);
      }

      .cls-22 {
        clip-path: url(#clippath-12);
      }

      .cls-9 {
        font-family: Arial-ItalicMT, Arial;
      }

      .cls-23 {
        clip-path: url(#clippath-3);
      }

      .cls-24 {
        clip-path: url(#clippath-4);
      }

      .cls-25 {
        clip-path: url(#clippath-2);
      }

      .cls-26 {
        clip-path: url(#clippath-7);
      }

      .cls-27 {
        clip-path: url(#clippath-6);
      }

      .cls-28 {
        clip-path: url(#clippath-9);
      }

      .cls-29 {
        clip-path: url(#clippath-8);
      }

      .cls-30 {
        clip-path: url(#clippath-5);
      }

      .cls-11 {
        font-size: 15px;
      }

      .cls-31 {
        letter-spacing: -.07em;
      }

      .cls-13 {
        font-size: 21.99px;
      }

      .cls-14 {
        fill: #0176de;
      }
    </style>
    <clipPath id="clippath-2">
      <rect class="cls-1" x="85.66" y="211.94" width="82.95" height="82.93"/>
    </clipPath>
    <clipPath id="clippath-3">
      <path class="cls-1" d="M152.35,290.55c0-.73.59-1.33,1.33-1.33.73,0,1.33.59,1.33,1.33,0,.73-.59,1.33-1.33,1.33s-1.33-.59-1.33-1.33ZM149.7,290.55c0-.73.59-1.33,1.33-1.33.73,0,1.33.59,1.33,1.33s-.59,1.33-1.33,1.33c-.73,0-1.33-.59-1.33-1.32h0s0,0,0,0ZM144.39,290.55c0-.73.59-1.33,1.33-1.33.73,0,1.33.59,1.33,1.33s-.59,1.33-1.33,1.33c-.73,0-1.33-.59-1.33-1.32h0s0,0,0,0ZM141.74,290.55c0-.73.59-1.33,1.33-1.33.73,0,1.33.59,1.33,1.33s-.59,1.33-1.33,1.33c-.73,0-1.33-.59-1.33-1.32h0s0,0,0,0ZM139.09,290.55c0-.73.59-1.33,1.33-1.33.73,0,1.33.59,1.33,1.33s-.59,1.33-1.33,1.33c-.73,0-1.33-.59-1.33-1.32,0,0,0,0,0,0h0ZM133.78,290.55c0-.73.59-1.33,1.33-1.33.73,0,1.33.59,1.33,1.33s-.59,1.33-1.33,1.33c-.73,0-1.33-.59-1.33-1.32h0s0,0,0,0ZM131.13,290.55c0-.73.59-1.33,1.33-1.33.73,0,1.33.59,1.33,1.33s-.59,1.33-1.33,1.33c-.73,0-1.33-.59-1.34-1.32h0s0,0,0,0ZM128.48,290.55c0-.73.59-1.33,1.33-1.33.73,0,1.33.59,1.33,1.33s-.59,1.33-1.33,1.33c-.73,0-1.33-.58-1.34-1.32,0,0,0,0,0-.01h.01ZM123.17,290.55c0-.73.59-1.33,1.33-1.33.73,0,1.33.59,1.33,1.33s-.59,1.33-1.33,1.33c-.73,0-1.33-.58-1.34-1.32,0,0,0,0,0-.01h.01ZM120.52,290.55c0-.73.59-1.33,1.33-1.33.73,0,1.33.59,1.33,1.33s-.59,1.33-1.33,1.33c-.73,0-1.33-.58-1.34-1.31,0,0,0,0,0-.01h.01ZM112.56,290.55c0-.73.59-1.33,1.33-1.33.73,0,1.33.59,1.33,1.33s-.59,1.33-1.33,1.33c-.73,0-1.33-.58-1.34-1.31,0,0,0,0,0-.01h.01ZM109.9,290.55c0-.73.59-1.33,1.33-1.33.73,0,1.33.59,1.33,1.33s-.59,1.33-1.33,1.33c-.73,0-1.33-.58-1.34-1.31,0,0,0-.01,0-.02h.02ZM160.33,287.9c0-.73.59-1.33,1.32-1.33.73,0,1.33.59,1.33,1.32,0,.73-.59,1.33-1.32,1.33,0,0-.01,0-.02,0-.73,0-1.33-.59-1.33-1.32h.02ZM157.67,287.9c0-.73.59-1.33,1.32-1.33.73,0,1.33.59,1.33,1.32,0,.73-.59,1.33-1.32,1.33,0,0-.01,0-.02,0-.73,0-1.32-.59-1.32-1.32h.02ZM144.41,287.9c0-.73.59-1.33,1.32-1.33.73,0,1.33.59,1.33,1.32s-.59,1.33-1.32,1.33c0,0-.01,0-.02,0-.73,0-1.33-.59-1.33-1.32h.02ZM141.75,287.9c0-.73.59-1.33,1.32-1.33.73,0,1.33.59,1.33,1.32s-.59,1.33-1.32,1.33c0,0-.02,0-.02,0-.73,0-1.33-.59-1.33-1.32h.02ZM133.79,287.9c0-.73.59-1.33,1.32-1.33.73,0,1.33.59,1.33,1.32s-.59,1.33-1.32,1.33c0,0-.02,0-.02,0-.73,0-1.33-.59-1.33-1.32h.02ZM128.49,287.9c0-.73.59-1.33,1.32-1.33.73,0,1.33.59,1.33,1.32,0,.73-.59,1.33-1.32,1.33,0,0-.02,0-.03,0-.73,0-1.32-.59-1.32-1.32h.02ZM125.83,287.9c0-.73.59-1.33,1.32-1.33.73,0,1.33.59,1.33,1.32s-.59,1.33-1.32,1.33c0,0-.02,0-.03,0-.73,0-1.33-.59-1.33-1.32h.02ZM123.18,287.9c0-.73.59-1.33,1.32-1.33.73,0,1.33.59,1.33,1.32s-.59,1.33-1.32,1.33c0,0-.02,0-.03,0-.73,0-1.33-.59-1.33-1.32h0s.02,0,.02,0ZM120.53,287.9c0-.73.59-1.33,1.32-1.33s1.33.59,1.33,1.32c0,.73-.59,1.33-1.32,1.33-.01,0-.02,0-.03,0-.73,0-1.33-.59-1.33-1.32h.03ZM117.88,287.9c0-.73.59-1.33,1.32-1.33.73,0,1.33.59,1.33,1.32,0,.73-.59,1.33-1.32,1.33-.01,0-.02,0-.03,0-.73,0-1.33-.59-1.33-1.32h.03ZM162.99,285.25c0-.73.59-1.33,1.33-1.33s1.33.59,1.33,1.33c0,.73-.59,1.33-1.33,1.33-.73.02-1.34-.56-1.36-1.29,0-.01,0-.02,0-.04h.03ZM152.38,285.25c0-.73.59-1.33,1.33-1.33s1.33.59,1.33,1.33-.59,1.33-1.33,1.33c-.73.02-1.34-.56-1.36-1.3,0-.01,0-.02,0-.03h.03ZM141.76,285.25c0-.73.59-1.33,1.33-1.33s1.33.59,1.33,1.33-.59,1.33-1.33,1.33c-.73.02-1.34-.56-1.36-1.3,0-.01,0-.02,0-.03h.03ZM131.15,285.25c0-.73.59-1.33,1.33-1.33s1.33.59,1.33,1.33-.59,1.33-1.33,1.33c-.73.02-1.34-.56-1.36-1.3,0-.01,0-.02,0-.03h.03ZM120.53,285.25c0-.73.59-1.33,1.33-1.33s1.33.59,1.33,1.33-.59,1.33-1.33,1.33c-.73.02-1.34-.56-1.36-1.3,0-.01,0-.02,0-.03h.03ZM115.23,285.25c0-.73.59-1.33,1.33-1.33s1.33.59,1.33,1.33-.59,1.33-1.33,1.33c-.73.02-1.34-.56-1.36-1.3,0-.01,0-.02,0-.03h.03ZM112.57,285.25c0-.73.59-1.33,1.32-1.33.73,0,1.33.59,1.33,1.32,0,.73-.59,1.33-1.32,1.33-.01,0-.02,0-.04,0-.73,0-1.33-.59-1.33-1.33h.03ZM160.34,282.6c0-.73.59-1.33,1.33-1.33s1.33.59,1.33,1.33-.59,1.33-1.33,1.33c-.73.02-1.34-.56-1.36-1.29,0-.01,0-.03,0-.04h.03ZM157.69,282.6c0-.73.59-1.33,1.33-1.33s1.33.59,1.33,1.33-.59,1.33-1.33,1.33c-.73.02-1.34-.56-1.36-1.29,0-.01,0-.03,0-.04h.03ZM155.04,282.6c0-.73.59-1.33,1.33-1.33s1.33.59,1.33,1.33-.59,1.33-1.33,1.33c-.73.02-1.34-.56-1.36-1.29,0-.01,0-.03,0-.04h.04ZM152.39,282.6c0-.73.59-1.33,1.33-1.33s1.33.59,1.33,1.33-.59,1.33-1.33,1.33c-.73.02-1.34-.56-1.36-1.29,0-.02,0-.03,0-.05h.04ZM149.74,282.6c0-.73.59-1.33,1.33-1.33s1.33.59,1.33,1.33-.59,1.33-1.33,1.33h0c-.73.02-1.34-.55-1.37-1.29,0-.02,0-.03,0-.05h.04ZM144.43,282.6c0-.73.59-1.33,1.33-1.33s1.33.59,1.33,1.33-.59,1.33-1.33,1.33c-.73.02-1.34-.55-1.37-1.29,0-.02,0-.03,0-.05h.04ZM139.12,282.6c0-.73.59-1.33,1.32-1.33.73,0,1.33.59,1.33,1.32s-.59,1.33-1.32,1.33c-.01,0-.03,0-.04,0-.73,0-1.33-.59-1.33-1.33h0s.04,0,.04,0ZM133.81,282.6c0-.73.59-1.33,1.33-1.33s1.33.59,1.33,1.33-.59,1.33-1.33,1.33c-.73.02-1.34-.55-1.37-1.29,0-.02,0-.03,0-.05h.04ZM131.16,282.6c0-.73.59-1.33,1.33-1.33s1.33.59,1.33,1.33-.59,1.33-1.33,1.33c-.73.02-1.35-.55-1.37-1.28,0-.02,0-.03,0-.05h.04ZM128.51,282.6c0-.73.59-1.33,1.32-1.33.73,0,1.33.59,1.33,1.32s-.59,1.33-1.32,1.33c-.02,0-.03,0-.05,0-.73,0-1.33-.6-1.32-1.33h.05ZM123.2,282.6c0-.73.59-1.33,1.32-1.33.73,0,1.33.59,1.33,1.32,0,.73-.59,1.33-1.32,1.33-.02,0-.03,0-.05,0-.73,0-1.33-.59-1.33-1.32h0s.05,0,.05,0ZM117.9,282.6c0-.73.59-1.33,1.33-1.33s1.33.59,1.33,1.33-.59,1.33-1.33,1.33c-.73.02-1.35-.55-1.37-1.28,0-.02,0-.04,0-.05h.05ZM112.59,282.6c0-.73.59-1.33,1.32-1.33.73,0,1.33.59,1.33,1.32,0,.73-.59,1.33-1.32,1.33-.02,0-.03,0-.05,0-.73,0-1.33-.59-1.33-1.33h0s.05,0,.05,0ZM162.96,279.94c0-.73.59-1.33,1.33-1.33s1.33.59,1.33,1.33-.59,1.33-1.33,1.33-1.33-.59-1.33-1.33ZM160.31,279.94c0-.73.59-1.33,1.33-1.33s1.33.59,1.33,1.33-.59,1.33-1.33,1.33-1.33-.59-1.33-1.33ZM157.66,279.94c0-.73.59-1.33,1.33-1.33s1.33.59,1.33,1.33-.59,1.33-1.33,1.33-1.33-.59-1.33-1.33ZM152.35,279.94c0-.73.59-1.33,1.33-1.33s1.33.59,1.33,1.33-.59,1.33-1.33,1.33c-.73,0-1.33-.59-1.33-1.32h0s0,0,0,0ZM149.7,279.94c0-.73.59-1.33,1.33-1.33s1.33.59,1.33,1.33-.59,1.33-1.33,1.33c-.73,0-1.33-.59-1.33-1.32h0s0,0,0,0ZM147.05,279.94c0-.73.59-1.33,1.33-1.33s1.33.59,1.33,1.33-.59,1.33-1.33,1.33c-.73,0-1.33-.59-1.33-1.32h0s0,0,0,0ZM144.4,279.94c0-.73.59-1.33,1.33-1.33s1.33.59,1.33,1.33-.59,1.33-1.33,1.33c-.73,0-1.33-.59-1.34-1.32,0,0,0,0,0,0h0ZM141.75,279.94c0-.73.59-1.33,1.33-1.33s1.33.59,1.33,1.33-.59,1.33-1.33,1.33c-.73,0-1.33-.58-1.34-1.32,0,0,0,0,0-.01h.01ZM136.44,279.94c0-.73.59-1.33,1.33-1.33s1.33.59,1.33,1.33-.59,1.33-1.33,1.33h0c-.73,0-1.33-.58-1.34-1.32,0,0,0,0,0-.01h.01ZM133.79,279.94c0-.73.59-1.33,1.33-1.33s1.33.59,1.33,1.33-.59,1.33-1.33,1.33c-.73,0-1.33-.58-1.34-1.31,0,0,0,0,0-.01h.01ZM128.48,279.94c0-.73.59-1.33,1.33-1.33s1.33.59,1.33,1.33-.59,1.33-1.33,1.33c-.73,0-1.33-.58-1.34-1.31,0,0,0,0,0-.01h.01ZM123.17,279.94c0-.73.59-1.33,1.33-1.33s1.33.59,1.33,1.33-.59,1.33-1.33,1.33h0c-.73,0-1.33-.58-1.34-1.31,0,0,0,0,0-.01h.01ZM117.86,279.94c0-.73.59-1.33,1.33-1.33s1.33.59,1.33,1.33-.59,1.33-1.33,1.33c-.73,0-1.33-.58-1.34-1.31,0,0,0,0,0-.01h.01ZM112.56,279.94c0-.73.59-1.33,1.33-1.33s1.33.59,1.33,1.33-.59,1.33-1.33,1.33c-.73,0-1.33-.58-1.34-1.31,0,0,0,0,0-.01h.01ZM109.9,279.94c0-.73.59-1.33,1.33-1.33s1.33.59,1.33,1.33-.59,1.33-1.33,1.33c-.73,0-1.33-.58-1.34-1.31,0,0,0-.01,0-.02h.02ZM157.67,277.29c0-.73.59-1.33,1.33-1.33s1.33.59,1.33,1.33-.59,1.33-1.33,1.33c-.73,0-1.33-.58-1.34-1.31,0,0,0-.01,0-.02h.01ZM155.02,277.29c0-.73.59-1.33,1.33-1.33s1.33.59,1.33,1.33-.59,1.33-1.33,1.33c-.73,0-1.33-.58-1.34-1.31,0,0,0-.01,0-.02h.02ZM152.37,277.29c0-.73.59-1.33,1.33-1.33s1.33.59,1.33,1.33-.59,1.33-1.33,1.33c-.73.01-1.34-.57-1.35-1.31,0,0,0-.02,0-.02h.02ZM141.75,277.29c0-.73.59-1.33,1.33-1.33s1.33.59,1.33,1.33-.59,1.33-1.33,1.33c-.73.01-1.34-.57-1.35-1.31,0,0,0-.02,0-.02h.02ZM139.1,277.29c0-.73.59-1.33,1.33-1.33s1.33.59,1.33,1.33-.59,1.33-1.33,1.33c-.73.01-1.34-.57-1.35-1.3,0,0,0-.02,0-.03h.02ZM133.8,277.29c0-.73.59-1.33,1.33-1.33s1.33.59,1.33,1.33-.59,1.33-1.33,1.33c-.73.01-1.34-.57-1.35-1.3,0,0,0-.02,0-.03h.02ZM125.83,277.29c0-.73.59-1.33,1.33-1.33s1.33.59,1.33,1.33-.59,1.33-1.33,1.33c-.73.01-1.34-.57-1.35-1.3,0,0,0-.02,0-.03h.02ZM120.53,277.29c0-.73.59-1.33,1.33-1.33s1.33.59,1.33,1.33-.59,1.33-1.33,1.33c-.73.01-1.34-.57-1.35-1.3,0,0,0-.02,0-.03h.02ZM117.88,277.29c0-.73.59-1.33,1.33-1.33s1.33.59,1.33,1.33-.59,1.33-1.33,1.33c-.73.01-1.34-.57-1.35-1.3,0,0,0-.02,0-.03h.02ZM112.57,277.29c0-.73.59-1.33,1.33-1.33s1.33.59,1.33,1.33-.59,1.33-1.33,1.33c-.73.01-1.34-.57-1.35-1.3,0,0,0-.02,0-.03h.02ZM109.92,277.29c0-.73.59-1.33,1.33-1.33s1.33.59,1.33,1.33-.59,1.33-1.33,1.33c-.73.01-1.34-.57-1.35-1.3,0,0,0-.02,0-.03h.03ZM162.99,274.64c0-.73.59-1.33,1.33-1.33s1.33.59,1.33,1.33-.59,1.33-1.33,1.33c-.73.02-1.34-.56-1.36-1.3,0-.01,0-.02,0-.03h.03ZM160.34,274.64c0-.73.59-1.33,1.33-1.33s1.33.59,1.33,1.33-.59,1.33-1.33,1.33c-.73.02-1.34-.56-1.36-1.3,0-.01,0-.02,0-.03h.03ZM157.69,274.64c0-.73.59-1.33,1.33-1.33s1.33.59,1.33,1.33-.59,1.33-1.33,1.33c-.73.02-1.34-.56-1.36-1.3,0-.01,0-.02,0-.03h.03ZM152.38,274.64c0-.73.59-1.33,1.33-1.33s1.33.59,1.33,1.33-.59,1.33-1.33,1.33c-.73.02-1.34-.56-1.36-1.29,0-.01,0-.02,0-.04h.03ZM147.07,274.64c0-.73.59-1.33,1.33-1.33s1.33.59,1.33,1.33-.59,1.33-1.33,1.33c-.73.02-1.34-.56-1.36-1.29,0-.01,0-.02,0-.04h.03ZM141.77,274.64c0-.73.59-1.33,1.33-1.33s1.33.59,1.33,1.33-.59,1.33-1.33,1.33c-.73.02-1.34-.56-1.36-1.29,0-.01,0-.02,0-.04h.03ZM139.11,274.64c0-.73.59-1.33,1.33-1.33s1.33.59,1.33,1.33-.59,1.33-1.33,1.33c-.73.02-1.34-.56-1.36-1.29,0-.01,0-.03,0-.04h.03ZM136.46,274.64c0-.73.59-1.33,1.33-1.33s1.33.59,1.33,1.33-.59,1.33-1.33,1.33c-.73.02-1.34-.56-1.36-1.29,0-.01,0-.03,0-.04h.04ZM133.81,274.64c0-.73.59-1.33,1.33-1.33s1.33.59,1.33,1.33-.59,1.33-1.33,1.33c-.73.02-1.34-.56-1.36-1.29,0-.01,0-.03,0-.04h.04ZM125.85,274.64c0-.73.59-1.33,1.33-1.33s1.33.59,1.33,1.33-.59,1.33-1.33,1.33c-.73.02-1.34-.56-1.36-1.29,0-.01,0-.03,0-.04h.04ZM123.2,274.64c0-.73.59-1.33,1.33-1.33s1.33.59,1.33,1.33-.59,1.33-1.33,1.33c-.73.02-1.34-.55-1.37-1.29,0-.02,0-.03,0-.05h.04ZM117.89,274.64c0-.73.59-1.33,1.33-1.33s1.33.59,1.33,1.33-.59,1.33-1.33,1.33c-.73.02-1.34-.55-1.37-1.29,0-.02,0-.03,0-.05h.04ZM115.24,274.64c0-.73.59-1.33,1.33-1.33s1.33.59,1.33,1.33-.59,1.33-1.33,1.33c-.73.02-1.35-.55-1.37-1.28,0-.02,0-.03,0-.05h.04ZM112.59,274.64c0-.73.59-1.33,1.33-1.33s1.33.59,1.33,1.33-.59,1.33-1.33,1.33c-.73.02-1.35-.55-1.37-1.28,0-.02,0-.03,0-.05h.05ZM163.01,271.99c0-.73.59-1.33,1.33-1.33s1.33.59,1.33,1.33-.59,1.33-1.33,1.33c-.73.03-1.35-.55-1.37-1.28,0-.02,0-.04,0-.06h.05ZM157.7,271.99c0-.73.59-1.33,1.33-1.33s1.33.59,1.33,1.33-.59,1.33-1.33,1.33c-.73.02-1.35-.55-1.37-1.28,0-.02,0-.03,0-.05h.04ZM155.05,271.99c0-.73.59-1.33,1.33-1.33s1.33.59,1.33,1.33-.59,1.33-1.33,1.33c-.73.03-1.35-.55-1.37-1.28,0-.02,0-.04,0-.06h.05ZM152.4,271.99c0-.73.59-1.33,1.33-1.33s1.33.59,1.33,1.33-.59,1.33-1.33,1.33c-.73.03-1.35-.54-1.38-1.28,0-.02,0-.04,0-.06h.05ZM141.78,271.99c0-.73.59-1.33,1.33-1.33s1.33.59,1.33,1.33-.59,1.33-1.33,1.33c-.73.03-1.35-.54-1.38-1.28,0-.02,0-.04,0-.06h.05ZM133.82,271.99c0-.73.59-1.33,1.33-1.33s1.33.59,1.33,1.33-.59,1.33-1.33,1.33c-.73.03-1.35-.54-1.38-1.28,0-.02,0-.04,0-.06h.05ZM131.17,271.99c0-.73.59-1.33,1.33-1.33s1.33.59,1.33,1.33-.59,1.33-1.33,1.33c-.73.03-1.35-.54-1.38-1.27,0-.02,0-.04,0-.06h.05ZM125.86,271.99c0-.73.59-1.33,1.32-1.33s1.33.59,1.33,1.32c0,.73-.59,1.33-1.32,1.33-.02,0-.04,0-.06,0-.73,0-1.33-.59-1.33-1.33h.05ZM123.21,271.99c0-.73.59-1.33,1.32-1.33s1.33.59,1.33,1.32c0,.73-.59,1.33-1.32,1.33-.02,0-.04,0-.06,0-.73,0-1.33-.59-1.33-1.32h0s.05,0,.05,0ZM120.56,271.99c0-.73.59-1.33,1.33-1.33s1.33.59,1.33,1.33-.59,1.33-1.33,1.33c-.73.03-1.35-.54-1.38-1.27,0-.02,0-.04,0-.06h.06ZM117.91,271.99c0-.73.59-1.33,1.33-1.33s1.33.59,1.33,1.33-.59,1.33-1.33,1.33c-.73.03-1.35-.53-1.38-1.27,0-.02,0-.04,0-.07h.06ZM115.26,271.99c0-.73.59-1.33,1.33-1.33s1.33.59,1.33,1.33c0,.73-.59,1.33-1.33,1.33-.73.03-1.35-.53-1.39-1.26,0-.02,0-.05,0-.07h.06ZM160.37,269.33c0-.73.59-1.33,1.33-1.33s1.33.59,1.33,1.33-.59,1.33-1.33,1.33c-.73.03-1.35-.53-1.39-1.26,0-.02,0-.05,0-.07h.06ZM157.72,269.33c0-.73.59-1.33,1.33-1.33s1.33.59,1.33,1.33-.59,1.33-1.33,1.33c-.73.03-1.35-.53-1.39-1.26,0-.02,0-.05,0-.07h.06ZM155.07,269.33c0-.73.59-1.33,1.33-1.33s1.33.59,1.33,1.33-.59,1.33-1.33,1.33c-.73.04-1.35-.53-1.39-1.26,0-.03,0-.05,0-.08h.07ZM152.42,269.33c0-.73.59-1.33,1.33-1.33s1.33.59,1.33,1.33-.59,1.33-1.33,1.33c-.73.04-1.36-.53-1.39-1.26,0-.03,0-.05,0-.08h.07ZM149.77,269.33c0-.73.59-1.33,1.33-1.33s1.33.59,1.33,1.33-.59,1.33-1.33,1.33c-.73.04-1.36-.52-1.4-1.25,0-.03,0-.05,0-.08h.07ZM147.11,269.33c0-.73.59-1.33,1.33-1.33s1.33.59,1.33,1.33-.59,1.33-1.33,1.33h0c-.73.04-1.36-.52-1.4-1.25,0-.03,0-.06,0-.08h.07ZM144.46,269.33c0-.73.59-1.33,1.33-1.33s1.33.59,1.33,1.33-.59,1.33-1.33,1.33c-.73.04-1.36-.52-1.4-1.25,0-.03,0-.06,0-.09h.07ZM141.81,269.33c0-.73.59-1.33,1.33-1.33s1.33.59,1.33,1.33-.59,1.33-1.33,1.33c-.73.04-1.36-.52-1.4-1.25,0-.03,0-.06,0-.09h.08ZM136.5,269.33c0-.73.59-1.33,1.33-1.33s1.33.59,1.33,1.33-.59,1.33-1.33,1.33c-.73.04-1.36-.52-1.4-1.25,0-.03,0-.06,0-.09h.08ZM133.85,269.33c0-.73.59-1.33,1.33-1.33s1.33.59,1.33,1.33-.59,1.33-1.33,1.33h0c-.73.04-1.36-.51-1.4-1.25,0-.03,0-.06,0-.09h.08ZM128.54,269.33c0-.73.59-1.33,1.33-1.33s1.33.59,1.33,1.33-.59,1.33-1.33,1.33c-.73.04-1.36-.51-1.4-1.25,0-.03,0-.06,0-.09h.08ZM125.89,269.33c0-.73.59-1.33,1.33-1.33s1.33.59,1.33,1.33-.59,1.33-1.33,1.33c-.73.04-1.36-.51-1.41-1.24,0-.03,0-.06,0-.09h.08ZM123.24,269.33c0-.73.59-1.33,1.33-1.33s1.33.59,1.33,1.33-.59,1.33-1.33,1.33c-.73.05-1.36-.51-1.41-1.24,0-.03,0-.06,0-.1h.08ZM117.93,269.33c0-.73.59-1.33,1.33-1.33s1.33.59,1.33,1.33-.59,1.33-1.33,1.33c-.73.05-1.36-.51-1.41-1.24,0-.03,0-.06,0-.1h.08ZM107.32,269.33c0-.73.59-1.33,1.33-1.33s1.33.59,1.33,1.33-.59,1.33-1.33,1.33c-.73.05-1.36-.51-1.41-1.24,0-.03,0-.06,0-.1h.08ZM104.67,269.33c0-.73.59-1.33,1.33-1.33s1.33.59,1.33,1.33-.59,1.33-1.33,1.33c-.73.05-1.36-.51-1.41-1.24,0-.03,0-.07,0-.1h.09ZM99.36,269.33c0-.73.59-1.33,1.33-1.33s1.33.59,1.33,1.33-.59,1.33-1.33,1.33c-.73.05-1.36-.51-1.41-1.24,0-.03,0-.07,0-.1h.09ZM96.71,269.33c0-.73.59-1.33,1.33-1.33s1.33.59,1.33,1.33-.59,1.33-1.33,1.33c-.73.05-1.36-.5-1.41-1.23,0-.03,0-.07,0-.1h.09ZM94.06,269.33c0-.73.59-1.33,1.33-1.33s1.33.59,1.33,1.33-.59,1.33-1.33,1.33c-.73.05-1.36-.5-1.41-1.23,0-.03,0-.07,0-.1h.09ZM91.41,269.33c0-.73.59-1.33,1.33-1.33s1.33.59,1.33,1.33-.59,1.33-1.33,1.33c-.73.05-1.36-.5-1.41-1.23,0-.03,0-.07,0-.1h.09ZM162.96,266.67c0-.73.59-1.33,1.33-1.33s1.33.59,1.33,1.33-.59,1.33-1.33,1.33-1.33-.59-1.33-1.33ZM157.65,266.67c0-.73.59-1.33,1.33-1.33s1.33.59,1.33,1.33-.59,1.33-1.33,1.33c-.73,0-1.32-.6-1.32-1.33h0ZM155,266.67c0-.73.59-1.33,1.33-1.33s1.33.59,1.33,1.33-.59,1.33-1.33,1.33-1.33-.59-1.33-1.33h0ZM149.7,266.67c0-.73.59-1.33,1.33-1.33s1.33.59,1.33,1.33-.59,1.33-1.33,1.33-1.33-.59-1.33-1.33ZM147.04,266.67c0-.73.59-1.33,1.33-1.33s1.33.59,1.33,1.33-.59,1.33-1.33,1.33c-.73,0-1.33-.59-1.33-1.32h0s0,0,0,0ZM139.08,266.67c0-.73.59-1.33,1.33-1.33s1.33.59,1.33,1.33-.59,1.33-1.33,1.33h0c-.73,0-1.33-.59-1.33-1.32h0s0,0,0,0ZM133.77,266.67c0-.73.59-1.33,1.33-1.33s1.33.59,1.33,1.33-.59,1.33-1.33,1.33c-.73,0-1.33-.59-1.33-1.32h0s0,0,0,0ZM123.16,266.67c0-.73.59-1.33,1.33-1.33s1.33.59,1.33,1.33c0,.73-.59,1.33-1.33,1.33-.73,0-1.33-.59-1.33-1.32h0s0,0,0,0ZM120.51,266.67c0-.73.59-1.33,1.33-1.33s1.33.59,1.33,1.33-.59,1.33-1.33,1.33c-.73,0-1.33-.59-1.33-1.32h0s0,0,0,0ZM112.55,266.67c0-.73.59-1.33,1.33-1.33s1.33.59,1.33,1.33-.59,1.33-1.33,1.33c-.73,0-1.33-.59-1.33-1.32h0s0,0,0,0ZM99.28,266.67c0-.73.59-1.33,1.33-1.33s1.33.59,1.33,1.33-.59,1.33-1.33,1.33c-.73,0-1.33-.59-1.33-1.32,0,0,0,0,0,0h0ZM96.63,266.67c0-.73.59-1.33,1.33-1.33s1.33.59,1.33,1.33-.59,1.33-1.33,1.33c-.73,0-1.33-.59-1.34-1.32h0s0,0,0,0ZM93.98,266.67c0-.73.59-1.33,1.33-1.33s1.33.59,1.33,1.33c0,.73-.59,1.33-1.33,1.33-.73,0-1.33-.59-1.34-1.32,0,0,0,0,0,0h0ZM157.67,264.02c0-.73.59-1.33,1.33-1.33s1.33.59,1.33,1.33-.59,1.33-1.33,1.33c-.73,0-1.33-.59-1.34-1.32,0,0,0,0,0-.01h0ZM155.02,264.02c0-.73.59-1.33,1.33-1.33s1.33.59,1.33,1.33-.59,1.33-1.33,1.33c-.73,0-1.33-.58-1.34-1.31,0,0,0-.01,0-.02h.01ZM149.71,264.02c0-.73.59-1.33,1.33-1.33s1.33.59,1.33,1.33-.59,1.33-1.33,1.33h0c-.73,0-1.33-.58-1.34-1.31,0,0,0-.01,0-.02h.01ZM144.4,264.02c0-.73.59-1.33,1.33-1.33s1.33.59,1.33,1.33-.59,1.33-1.33,1.33c-.73,0-1.33-.58-1.34-1.31,0,0,0-.01,0-.02h.01ZM136.44,264.02c0-.73.59-1.33,1.33-1.33s1.33.59,1.33,1.33-.59,1.33-1.33,1.33c-.73,0-1.33-.58-1.34-1.31,0,0,0-.01,0-.02h.01ZM131.13,264.02c0-.73.59-1.33,1.33-1.33s1.33.59,1.33,1.33-.59,1.33-1.33,1.33c-.73,0-1.33-.58-1.34-1.31,0,0,0-.01,0-.02h.01ZM125.82,264.02c0-.73.59-1.33,1.32-1.33s1.33.59,1.33,1.32c0,.73-.59,1.33-1.32,1.33,0,0-.01,0-.02,0-.73,0-1.33-.59-1.33-1.33h.01ZM123.17,264.02c0-.73.59-1.33,1.32-1.33.73,0,1.33.59,1.33,1.32,0,.73-.59,1.33-1.32,1.33,0,0-.01,0-.02,0-.73,0-1.33-.59-1.33-1.32h0s.02,0,.02,0ZM115.21,264.02c0-.73.59-1.33,1.33-1.33s1.33.59,1.33,1.33-.59,1.33-1.33,1.33c-.73,0-1.33-.58-1.34-1.31,0,0,0-.01,0-.02h.02ZM112.56,264.02c0-.73.59-1.33,1.33-1.33s1.33.59,1.33,1.33-.59,1.33-1.33,1.33c-.73,0-1.33-.58-1.34-1.31,0,0,0-.01,0-.02h.02ZM107.25,264.02c0-.73.59-1.33,1.33-1.33s1.33.59,1.33,1.33-.59,1.33-1.33,1.33c-.73,0-1.33-.58-1.34-1.31,0,0,0-.01,0-.02h.02ZM104.6,264.02c0-.73.59-1.33,1.33-1.33s1.33.59,1.33,1.33-.59,1.33-1.33,1.33c-.73.01-1.34-.57-1.35-1.31,0,0,0-.02,0-.02h.02ZM99.29,264.02c0-.73.59-1.33,1.33-1.33s1.33.59,1.33,1.33-.59,1.33-1.33,1.33c-.73.01-1.34-.57-1.35-1.31,0,0,0-.02,0-.02h.02ZM88.68,264.02c0-.73.59-1.33,1.33-1.33s1.33.59,1.33,1.33-.59,1.33-1.33,1.33c-.73.01-1.34-.57-1.35-1.31,0,0,0-.02,0-.02h.02ZM162.96,261.36c0-.73.59-1.33,1.33-1.33s1.33.59,1.33,1.33-.59,1.33-1.33,1.33-1.33-.59-1.33-1.33ZM157.65,261.36c0-.73.59-1.33,1.33-1.33s1.33.59,1.33,1.33-.59,1.33-1.33,1.33c-.73,0-1.32-.6-1.32-1.33h0ZM149.69,261.36c0-.73.59-1.33,1.33-1.33s1.33.59,1.33,1.33-.59,1.33-1.33,1.33c-.73,0-1.32-.59-1.32-1.33h0ZM147.04,261.36c0-.73.59-1.33,1.33-1.33s1.33.59,1.33,1.33-.59,1.33-1.33,1.33-1.33-.59-1.33-1.33ZM144.39,261.36c0-.73.59-1.33,1.33-1.33s1.33.59,1.33,1.33-.59,1.33-1.33,1.33c-.73,0-1.33-.59-1.33-1.32h0s0,0,0,0ZM141.74,261.36c0-.73.59-1.33,1.33-1.33s1.33.59,1.33,1.33-.59,1.33-1.33,1.33c-.73,0-1.33-.59-1.33-1.32h0s0,0,0,0ZM120.51,261.36c0-.73.59-1.33,1.33-1.33s1.33.59,1.33,1.33-.59,1.33-1.33,1.33c-.73,0-1.33-.59-1.33-1.32h0s0,0,0,0ZM115.2,261.36c0-.73.59-1.33,1.33-1.33s1.33.59,1.33,1.33-.59,1.33-1.33,1.33c-.73,0-1.33-.59-1.33-1.32h0s0,0,0,0ZM107.24,261.36c0-.73.59-1.33,1.33-1.33s1.33.59,1.33,1.33-.59,1.33-1.33,1.33c-.73,0-1.33-.59-1.33-1.32,0,0,0,0,0,0h0ZM101.93,261.36c0-.73.59-1.33,1.33-1.33s1.33.59,1.33,1.33-.59,1.33-1.33,1.33c-.73,0-1.33-.59-1.33-1.32h0s0,0,0,0ZM99.28,261.36c0-.73.59-1.33,1.33-1.33s1.33.59,1.33,1.33-.59,1.33-1.33,1.33c-.73,0-1.33-.59-1.33-1.32,0,0,0,0,0,0h0ZM96.63,261.36c0-.73.59-1.33,1.33-1.33s1.33.59,1.33,1.33-.59,1.33-1.33,1.33c-.73,0-1.33-.58-1.34-1.32,0,0,0,0,0-.01h.01ZM157.67,258.71c0-.73.59-1.33,1.33-1.33s1.33.59,1.33,1.33-.59,1.33-1.33,1.33c-.73,0-1.33-.59-1.33-1.32,0,0,0,0,0,0h0ZM152.36,258.71c0-.73.59-1.33,1.33-1.33s1.33.59,1.33,1.33-.59,1.33-1.33,1.33c-.73,0-1.33-.59-1.34-1.32,0,0,0,0,0-.01h0ZM147.05,258.71c0-.73.59-1.33,1.33-1.33s1.33.59,1.33,1.33-.59,1.33-1.33,1.33c-.73,0-1.33-.59-1.34-1.32,0,0,0,0,0-.01h0ZM144.4,258.71c0-.73.59-1.33,1.33-1.33s1.33.59,1.33,1.33-.59,1.33-1.33,1.33c-.73,0-1.33-.58-1.34-1.32,0,0,0,0,0-.01h.01ZM139.09,258.71c0-.73.59-1.33,1.32-1.33.73,0,1.33.59,1.33,1.32,0,.73-.59,1.33-1.32,1.33,0,0,0,0-.01,0-.73,0-1.33-.59-1.33-1.33h.01ZM133.78,258.71c0-.73.59-1.33,1.33-1.33s1.33.59,1.33,1.33-.59,1.33-1.33,1.33c-.73,0-1.33-.58-1.34-1.32,0,0,0,0,0-.01h.01ZM125.82,258.71c0-.73.59-1.33,1.32-1.33.73,0,1.33.59,1.33,1.32,0,.73-.59,1.33-1.32,1.33,0,0,0,0-.01,0-.73,0-1.33-.59-1.33-1.33h.01ZM120.52,258.71c0-.73.59-1.33,1.33-1.33s1.33.59,1.33,1.33-.59,1.33-1.33,1.33c-.73,0-1.33-.58-1.34-1.32,0,0,0,0,0-.01h.01ZM104.59,258.71c0-.73.59-1.33,1.33-1.33s1.33.59,1.33,1.33-.59,1.33-1.33,1.33c-.73,0-1.33-.58-1.34-1.32,0,0,0,0,0-.01h.01ZM99.29,258.71c0-.73.59-1.33,1.32-1.33.73,0,1.33.59,1.33,1.32,0,.73-.59,1.33-1.32,1.33,0,0,0,0-.01,0-.73,0-1.33-.59-1.33-1.33h.01ZM162.96,256.05c0-.73.59-1.33,1.33-1.33s1.33.59,1.33,1.33-.59,1.33-1.33,1.33-1.33-.59-1.33-1.33ZM160.31,256.05c0-.73.59-1.33,1.33-1.33s1.33.59,1.33,1.33-.59,1.33-1.33,1.33-1.33-.59-1.33-1.33ZM157.66,256.05c0-.73.59-1.33,1.33-1.33s1.33.59,1.33,1.33-.59,1.33-1.33,1.33-1.33-.59-1.33-1.33ZM155.01,256.05c0-.73.59-1.33,1.33-1.33s1.33.59,1.33,1.33-.59,1.33-1.33,1.33c-.73,0-1.33-.59-1.33-1.32,0,0,0,0,0,0h0ZM149.7,256.05c0-.73.59-1.33,1.33-1.33s1.33.59,1.33,1.33-.59,1.33-1.33,1.33c-.73,0-1.33-.59-1.33-1.32h0s0,0,0,0ZM147.05,256.05c0-.73.59-1.33,1.33-1.33s1.33.59,1.33,1.33-.59,1.33-1.33,1.33c-.73,0-1.33-.59-1.33-1.32h0s0,0,0,0ZM133.78,256.05c0-.73.59-1.33,1.33-1.33s1.33.59,1.33,1.33-.59,1.33-1.33,1.33c-.73,0-1.33-.59-1.33-1.32h0s0,0,0,0ZM128.47,256.05c0-.73.6-1.33,1.33-1.32.73,0,1.33.6,1.32,1.33,0,.73-.6,1.33-1.33,1.32,0,0,0,0,0,0-.73,0-1.33-.6-1.32-1.33h0ZM115.2,256.05c0-.73.59-1.33,1.33-1.33s1.33.59,1.33,1.33-.59,1.33-1.33,1.33c-.73,0-1.33-.59-1.33-1.32h0s0,0,0,0ZM107.24,256.05c0-.73.59-1.33,1.33-1.33s1.33.59,1.33,1.33-.59,1.33-1.33,1.33c-.73,0-1.33-.59-1.33-1.32,0,0,0,0,0,0h0ZM99.28,256.05c0-.73.59-1.33,1.33-1.33s1.33.59,1.33,1.33-.59,1.33-1.33,1.33c-.73,0-1.33-.59-1.33-1.32,0,0,0,0,0,0h0ZM155.01,253.4c0-.73.59-1.33,1.33-1.33s1.33.59,1.33,1.33-.59,1.33-1.33,1.33c-.73,0-1.33-.59-1.33-1.32,0,0,0,0,0,0h0ZM147.05,253.4c0-.73.59-1.33,1.33-1.33s1.33.59,1.33,1.33-.59,1.33-1.33,1.33c-.73,0-1.33-.59-1.33-1.32h0s0,0,0,0ZM141.74,253.4c0-.73.59-1.33,1.33-1.33s1.33.59,1.33,1.33-.59,1.33-1.33,1.33c-.73,0-1.33-.59-1.33-1.32h0s0,0,0,0ZM131.13,253.4c0-.73.59-1.33,1.33-1.33s1.33.59,1.33,1.33-.59,1.33-1.33,1.33c-.73,0-1.33-.59-1.33-1.32h0s0,0,0,0ZM125.82,253.4c0-.73.59-1.33,1.33-1.33s1.33.59,1.33,1.33-.59,1.33-1.33,1.33c0,0,0,0,0,0-.73,0-1.33-.59-1.33-1.33h0ZM123.17,253.4c0-.73.59-1.33,1.33-1.33s1.33.59,1.33,1.33c0,.73-.59,1.33-1.33,1.33,0,0,0,0,0,0-.73,0-1.33-.59-1.33-1.32h0s0,0,0,0ZM115.21,253.4c0-.73.59-1.33,1.33-1.33s1.33.59,1.33,1.33-.59,1.33-1.33,1.33c-.73,0-1.33-.59-1.34-1.32h0s0,0,0,0ZM109.9,253.4c0-.73.59-1.33,1.33-1.33s1.33.59,1.33,1.33-.59,1.33-1.33,1.33c-.73,0-1.33-.59-1.34-1.32,0,0,0,0,0,0h0ZM104.59,253.4c0-.73.59-1.33,1.33-1.33s1.33.59,1.33,1.33-.59,1.33-1.33,1.33c-.73,0-1.33-.59-1.34-1.32,0,0,0,0,0,0h0ZM101.94,253.4c0-.73.59-1.33,1.33-1.33s1.33.59,1.33,1.33-.59,1.33-1.33,1.33c-.73,0-1.33-.58-1.34-1.32,0,0,0,0,0-.01h.01ZM99.29,253.4c0-.73.59-1.33,1.33-1.33s1.33.59,1.33,1.33c0,.73-.59,1.33-1.33,1.33-.73,0-1.33-.58-1.34-1.31,0,0,0,0,0-.01h.01ZM93.98,253.4c0-.73.59-1.33,1.33-1.33s1.33.59,1.33,1.33-.59,1.33-1.33,1.33c-.73,0-1.33-.58-1.34-1.31,0,0,0,0,0-.01h.01ZM91.33,253.4c0-.73.59-1.33,1.33-1.33s1.33.59,1.33,1.33-.59,1.33-1.33,1.33c-.73,0-1.33-.58-1.34-1.31,0,0,0,0,0-.01h.01ZM162.96,250.75c0-.73.59-1.33,1.33-1.33s1.33.59,1.33,1.33-.59,1.33-1.33,1.33-1.33-.59-1.33-1.33ZM160.31,250.75c0-.73.59-1.33,1.33-1.33s1.33.59,1.33,1.33-.59,1.33-1.33,1.33-1.33-.59-1.33-1.33ZM152.35,250.75c0-.73.59-1.33,1.33-1.33s1.33.59,1.33,1.33-.59,1.33-1.33,1.33h0c-.73,0-1.33-.59-1.33-1.33ZM147.04,250.75c0-.73.59-1.33,1.33-1.33s1.33.59,1.33,1.33-.59,1.33-1.33,1.33-1.33-.59-1.33-1.33ZM131.12,250.75c0-.73.59-1.33,1.33-1.33s1.33.59,1.33,1.33-.59,1.33-1.33,1.33-1.33-.59-1.33-1.33ZM128.47,250.75c0-.73.59-1.33,1.32-1.33.73,0,1.33.59,1.33,1.32,0,.73-.59,1.33-1.32,1.33h0c-.73,0-1.32-.59-1.32-1.32h0ZM123.16,250.75c0-.73.59-1.33,1.32-1.33.73,0,1.33.59,1.33,1.32,0,.73-.59,1.33-1.32,1.33h0c-.73,0-1.33-.59-1.33-1.32h0ZM120.51,250.75c0-.73.59-1.33,1.33-1.33s1.33.59,1.33,1.33-.59,1.33-1.33,1.33c-.73,0-1.33-.59-1.33-1.32h0s0,0,0,0ZM115.2,250.75c0-.73.59-1.33,1.33-1.33s1.33.59,1.33,1.33-.59,1.33-1.33,1.33c-.73,0-1.33-.59-1.33-1.32h0s0,0,0,0ZM107.24,250.75c0-.73.59-1.33,1.33-1.33s1.33.59,1.33,1.33-.59,1.33-1.33,1.33c-.73,0-1.33-.59-1.33-1.32,0,0,0,0,0,0h0ZM99.28,250.75c0-.73.59-1.33,1.33-1.33s1.33.59,1.33,1.33-.59,1.33-1.33,1.33c-.73,0-1.33-.59-1.33-1.32,0,0,0,0,0,0h0ZM96.63,250.75c0-.73.59-1.33,1.33-1.33s1.33.59,1.33,1.33-.59,1.33-1.33,1.33c-.73,0-1.33-.59-1.34-1.32h0s0,0,0,0ZM93.98,250.75c0-.73.59-1.33,1.33-1.33s1.33.59,1.33,1.33c0,.73-.59,1.33-1.33,1.33-.73,0-1.33-.59-1.34-1.32,0,0,0,0,0,0h0ZM91.32,250.75c0-.73.59-1.33,1.33-1.33s1.33.59,1.33,1.33-.59,1.33-1.33,1.33c-.73,0-1.33-.59-1.34-1.32,0,0,0,0,0,0h0ZM162.96,248.09c0-.73.59-1.33,1.33-1.33s1.33.59,1.33,1.33-.59,1.33-1.33,1.33-1.33-.59-1.33-1.33ZM160.31,248.09c0-.73.59-1.33,1.33-1.33s1.33.59,1.33,1.33-.59,1.33-1.33,1.33-1.33-.59-1.33-1.33ZM157.66,248.09c0-.73.59-1.33,1.33-1.33s1.33.59,1.33,1.33-.59,1.33-1.33,1.33-1.33-.59-1.33-1.33ZM155.01,248.09c0-.73.59-1.33,1.33-1.33s1.33.59,1.33,1.33-.59,1.33-1.33,1.33c-.73,0-1.33-.59-1.33-1.32,0,0,0,0,0,0h0ZM152.36,248.09c0-.73.59-1.33,1.33-1.33s1.33.59,1.33,1.33-.59,1.33-1.33,1.33c-.73,0-1.33-.59-1.33-1.32,0,0,0,0,0,0h0ZM147.05,248.09c0-.73.59-1.33,1.33-1.33s1.33.59,1.33,1.33-.59,1.33-1.33,1.33c-.73,0-1.33-.59-1.33-1.32h0s0,0,0,0ZM139.09,248.09c0-.73.59-1.33,1.33-1.33s1.33.59,1.33,1.33-.59,1.33-1.33,1.33h0c-.73,0-1.33-.59-1.33-1.32,0,0,0,0,0,0h0ZM133.78,248.09c0-.73.59-1.33,1.33-1.33s1.33.59,1.33,1.33-.59,1.33-1.33,1.33c-.73,0-1.33-.59-1.33-1.32h0s0,0,0,0ZM112.55,248.09c0-.73.59-1.33,1.33-1.33s1.33.59,1.33,1.33-.59,1.33-1.33,1.33c-.73,0-1.33-.59-1.33-1.32,0,0,0,0,0,0h0ZM109.9,248.09c0-.73.59-1.33,1.33-1.33s1.33.59,1.33,1.33-.59,1.33-1.33,1.33c-.73,0-1.33-.59-1.34-1.32,0,0,0,0,0,0h0ZM104.59,248.09c0-.73.59-1.33,1.33-1.33s1.33.59,1.33,1.33-.59,1.33-1.33,1.33c-.73,0-1.33-.59-1.34-1.32,0,0,0,0,0,0h0ZM101.94,248.09c0-.73.59-1.33,1.33-1.33s1.33.59,1.33,1.33-.59,1.33-1.33,1.33c-.73,0-1.33-.58-1.34-1.32,0,0,0,0,0-.01h.01ZM93.98,248.09c0-.73.59-1.33,1.33-1.33s1.33.59,1.33,1.33-.59,1.33-1.33,1.33c-.73,0-1.33-.58-1.34-1.32,0,0,0,0,0-.01h.01ZM91.33,248.09c0-.73.59-1.33,1.33-1.33s1.33.59,1.33,1.33-.59,1.33-1.33,1.33c-.73,0-1.33-.58-1.34-1.32,0,0,0,0,0-.01h.01ZM155.02,245.44c0-.73.59-1.33,1.33-1.33s1.33.59,1.33,1.33-.59,1.33-1.33,1.33c-.73,0-1.33-.58-1.34-1.31,0,0,0-.01,0-.02h.02ZM152.37,245.44c0-.73.59-1.33,1.33-1.33s1.33.59,1.33,1.33-.59,1.33-1.33,1.33c-.73,0-1.33-.58-1.34-1.31,0,0,0-.01,0-.02h.02ZM149.72,245.44c0-.73.59-1.33,1.33-1.33s1.33.59,1.33,1.33-.59,1.33-1.33,1.33c-.73.01-1.34-.57-1.35-1.31,0,0,0-.02,0-.02h.02ZM144.41,245.44c0-.73.59-1.33,1.33-1.33s1.33.59,1.33,1.33-.59,1.33-1.33,1.33c-.73.01-1.34-.57-1.35-1.31,0,0,0-.02,0-.02h.02ZM139.1,245.44c0-.73.59-1.33,1.32-1.33.73,0,1.33.59,1.33,1.32,0,.73-.59,1.33-1.32,1.33,0,0-.01,0-.02,0-.73,0-1.33-.59-1.33-1.33h.02ZM136.45,245.44c0-.73.59-1.33,1.33-1.33s1.33.59,1.33,1.33-.59,1.33-1.33,1.33c-.73.01-1.34-.57-1.35-1.3,0,0,0-.02,0-.03h.02ZM133.8,245.44c0-.73.59-1.33,1.33-1.33s1.33.59,1.33,1.33-.59,1.33-1.33,1.33c-.73.01-1.34-.57-1.35-1.3,0,0,0-.02,0-.03h.02ZM128.49,245.44c0-.73.59-1.33,1.32-1.33.73,0,1.33.59,1.33,1.32,0,.73-.59,1.33-1.32,1.33,0,0-.02,0-.03,0-.73,0-1.32-.59-1.32-1.33h.02ZM125.84,245.44c0-.73.59-1.33,1.32-1.33.73,0,1.33.59,1.33,1.32,0,.73-.59,1.33-1.32,1.33,0,0-.02,0-.03,0-.73,0-1.33-.59-1.33-1.33h.03ZM123.19,245.44c0-.73.59-1.33,1.32-1.33.73,0,1.33.59,1.33,1.32,0,.73-.59,1.33-1.32,1.33,0,0-.02,0-.03,0-.73,0-1.33-.59-1.33-1.32h0s.03,0,.03,0ZM112.57,245.44c0-.73.59-1.33,1.32-1.33.73,0,1.33.59,1.33,1.32,0,.73-.59,1.33-1.32,1.33-.01,0-.02,0-.03,0-.73,0-1.33-.59-1.33-1.33h.03ZM109.92,245.44c0-.73.59-1.33,1.33-1.33s1.33.59,1.33,1.33-.59,1.33-1.33,1.33c-.73.02-1.34-.56-1.36-1.29,0-.01,0-.02,0-.03h.03ZM99.31,245.44c0-.73.59-1.33,1.32-1.33s1.33.59,1.33,1.32c0,.73-.59,1.33-1.33,1.33-.01,0-.02,0-.03,0-.73,0-1.33-.59-1.33-1.33h.03ZM94,245.44c0-.73.59-1.33,1.33-1.33s1.33.59,1.33,1.33-.59,1.33-1.33,1.33c-.73.02-1.34-.56-1.36-1.29,0-.01,0-.02,0-.03h.03ZM91.35,245.44c0-.73.59-1.33,1.33-1.33s1.33.59,1.33,1.33-.59,1.33-1.33,1.33c-.73.02-1.34-.56-1.36-1.29,0-.01,0-.02,0-.03h.03ZM88.7,245.44c0-.73.59-1.33,1.33-1.33.73,0,1.33.59,1.33,1.33,0,.73-.59,1.33-1.33,1.33-.01,0-.03,0-.04,0-.73,0-1.33-.59-1.33-1.33h.04ZM162.96,242.79c0-.73.59-1.33,1.33-1.33s1.33.59,1.33,1.33-.59,1.33-1.33,1.33-1.33-.59-1.33-1.33ZM160.31,242.79c0-.73.59-1.33,1.33-1.33s1.33.59,1.33,1.33-.59,1.33-1.33,1.33-1.33-.59-1.33-1.33ZM155,242.79c0-.73.59-1.33,1.33-1.33s1.33.59,1.33,1.33-.59,1.33-1.33,1.33-1.33-.59-1.33-1.33h0ZM152.35,242.79c0-.73.59-1.33,1.33-1.33s1.33.59,1.33,1.33-.59,1.33-1.33,1.33c-.73,0-1.33-.59-1.33-1.32h0s0,0,0,0ZM149.7,242.79c0-.73.59-1.33,1.33-1.33s1.33.59,1.33,1.33-.59,1.33-1.33,1.33c-.73,0-1.33-.59-1.33-1.32h0s0,0,0,0ZM147.05,242.79c0-.73.59-1.33,1.33-1.33s1.33.59,1.33,1.33-.59,1.33-1.33,1.33c-.73,0-1.33-.59-1.33-1.32h0s0,0,0,0ZM144.4,242.79c0-.73.59-1.33,1.33-1.33s1.33.59,1.33,1.33-.59,1.33-1.33,1.33c-.73,0-1.33-.59-1.34-1.32,0,0,0,0,0,0h0ZM133.78,242.79c0-.73.59-1.33,1.33-1.33s1.33.59,1.33,1.33-.59,1.33-1.33,1.33c-.73,0-1.33-.59-1.34-1.32,0,0,0,0,0,0h0ZM131.13,242.79c0-.73.59-1.33,1.33-1.33s1.33.59,1.33,1.33-.59,1.33-1.33,1.33c-.73,0-1.33-.58-1.34-1.32,0,0,0,0,0-.01h.01ZM112.55,242.79c0-.73.59-1.33,1.33-1.33s1.33.59,1.33,1.33c0,.73-.59,1.33-1.33,1.33-.73,0-1.33-.58-1.34-1.32,0,0,0,0,0-.01h.01ZM107.25,242.79c0-.73.59-1.33,1.33-1.33s1.33.59,1.33,1.33-.59,1.33-1.33,1.33c-.73,0-1.33-.58-1.34-1.32,0,0,0,0,0-.01h.01ZM104.6,242.79c0-.73.59-1.33,1.33-1.33s1.33.59,1.33,1.33-.59,1.33-1.33,1.33c-.73,0-1.33-.58-1.34-1.31,0,0,0,0,0-.01h.01ZM99.29,242.79c0-.73.59-1.33,1.33-1.33s1.33.59,1.33,1.33-.59,1.33-1.33,1.33c-.73,0-1.33-.58-1.34-1.31,0,0,0,0,0-.01h.01ZM96.64,242.79c0-.73.59-1.33,1.33-1.33s1.33.59,1.33,1.33-.59,1.33-1.33,1.33c-.73,0-1.33-.58-1.34-1.31,0,0,0-.01,0-.02h.02ZM93.98,242.79c0-.73.59-1.33,1.33-1.33s1.33.59,1.33,1.33-.59,1.33-1.33,1.33c-.73,0-1.33-.58-1.34-1.31,0,0,0-.01,0-.02h.02ZM162.96,240.13c0-.73.59-1.33,1.33-1.33s1.33.59,1.33,1.33-.59,1.33-1.33,1.33c-.73,0-1.33-.59-1.33-1.33ZM155,240.13c0-.73.59-1.33,1.33-1.33s1.33.59,1.33,1.33-.59,1.33-1.33,1.33c-.73,0-1.32-.59-1.32-1.33h0ZM149.69,240.13c0-.73.59-1.33,1.33-1.33s1.33.59,1.33,1.33-.59,1.33-1.33,1.33c-.73,0-1.32-.59-1.32-1.33h0ZM141.73,240.13c0-.73.59-1.33,1.33-1.33s1.33.59,1.33,1.33-.59,1.33-1.33,1.33c-.73,0-1.32-.59-1.32-1.33h0ZM139.08,240.13c0-.73.59-1.33,1.33-1.33s1.33.59,1.33,1.33-.59,1.33-1.33,1.33c-.73,0-1.33-.59-1.33-1.33h0ZM136.43,240.13c0-.73.59-1.33,1.33-1.33s1.33.59,1.33,1.33-.59,1.33-1.33,1.33c-.73,0-1.33-.59-1.33-1.32h0s0,0,0,0ZM131.12,240.13c0-.73.59-1.33,1.33-1.33s1.33.59,1.33,1.33-.59,1.33-1.33,1.33c-.73,0-1.33-.59-1.33-1.32h0s0,0,0,0ZM123.16,240.13c0-.73.59-1.33,1.33-1.33s1.33.59,1.33,1.33-.59,1.33-1.33,1.33c-.73,0-1.33-.59-1.33-1.32h0s0,0,0,0ZM120.51,240.13c0-.73.59-1.33,1.33-1.33s1.33.59,1.33,1.33-.59,1.33-1.33,1.33c-.73,0-1.33-.59-1.33-1.32h0s0,0,0,0ZM109.89,240.13c0-.73.59-1.33,1.33-1.33s1.33.59,1.33,1.33-.59,1.33-1.33,1.33c-.73,0-1.33-.59-1.33-1.32h0s0,0,0,0ZM101.93,240.13c0-.73.59-1.33,1.33-1.33s1.33.59,1.33,1.33c0,.73-.59,1.33-1.33,1.33-.73,0-1.33-.59-1.33-1.32h0s0,0,0,0ZM96.62,240.13c0-.73.59-1.33,1.33-1.33s1.33.59,1.33,1.33-.59,1.33-1.33,1.33c-.73,0-1.33-.59-1.33-1.32h0s0,0,0,0ZM91.31,240.13c0-.73.59-1.33,1.33-1.33s1.33.59,1.33,1.33-.59,1.33-1.33,1.33-1.33-.59-1.33-1.33ZM88.66,240.13c0-.73.59-1.33,1.33-1.33s1.33.59,1.33,1.33-.59,1.33-1.33,1.33c-.73,0-1.33-.59-1.33-1.32h0s0,0,0,0ZM160.31,237.48c0-.73.59-1.33,1.33-1.33s1.33.59,1.33,1.33-.59,1.33-1.33,1.33c-.73,0-1.33-.59-1.33-1.32,0,0,0,0,0,0h0ZM157.66,237.48c0-.73.59-1.33,1.33-1.33s1.33.59,1.33,1.33-.59,1.33-1.33,1.33c-.73,0-1.33-.59-1.33-1.32h0s0,0,0,0ZM155.01,237.48c0-.73.59-1.33,1.33-1.33s1.33.59,1.33,1.33-.59,1.33-1.33,1.33c-.73,0-1.33-.59-1.34-1.32,0,0,0,0,0-.01h0ZM152.36,237.48c0-.73.59-1.33,1.33-1.33s1.33.59,1.33,1.33-.59,1.33-1.33,1.33c-.73,0-1.33-.58-1.34-1.32,0,0,0,0,0-.01h.01ZM149.71,237.48c0-.73.59-1.33,1.33-1.33s1.33.59,1.33,1.33-.59,1.33-1.33,1.33c-.73,0-1.33-.58-1.34-1.31,0,0,0-.01,0-.02h.01ZM147.06,237.48c0-.73.59-1.33,1.33-1.33s1.33.59,1.33,1.33-.59,1.33-1.33,1.33c-.73,0-1.33-.58-1.34-1.31,0,0,0-.01,0-.02h.02ZM144.41,237.48c0-.73.59-1.33,1.33-1.33s1.33.59,1.33,1.33-.59,1.33-1.33,1.33c-.73,0-1.33-.58-1.34-1.31,0,0,0-.01,0-.02h.02ZM139.1,237.48c0-.73.59-1.33,1.33-1.33s1.33.59,1.33,1.33-.59,1.33-1.33,1.33c-.73,0-1.33-.58-1.34-1.31,0,0,0-.01,0-.02h.02ZM133.79,237.48c0-.73.59-1.33,1.33-1.33s1.33.59,1.33,1.33-.59,1.33-1.33,1.33c-.73,0-1.33-.58-1.34-1.31,0,0,0-.01,0-.02h.02ZM125.83,237.48c0-.73.59-1.33,1.32-1.33.73,0,1.33.59,1.33,1.32,0,.73-.59,1.33-1.32,1.33,0,0-.01,0-.02,0-.73,0-1.33-.59-1.33-1.33h.02ZM123.18,237.48c0-.73.59-1.33,1.32-1.33.73,0,1.33.59,1.33,1.32,0,.73-.59,1.33-1.32,1.33,0,0-.01,0-.02,0-.73,0-1.33-.59-1.33-1.32h0s.02,0,.02,0ZM117.87,237.48c0-.73.59-1.33,1.33-1.33s1.33.59,1.33,1.33-.59,1.33-1.33,1.33c-.73.01-1.34-.57-1.35-1.31,0,0,0-.02,0-.02h.02ZM115.22,237.48c0-.73.59-1.33,1.33-1.33s1.33.59,1.33,1.33-.59,1.33-1.33,1.33c-.73.01-1.34-.57-1.35-1.3,0,0,0-.02,0-.03h.02ZM112.57,237.48c0-.73.59-1.33,1.33-1.33s1.33.59,1.33,1.33-.59,1.33-1.33,1.33c-.73.01-1.34-.57-1.35-1.3,0,0,0-.02,0-.03h.02ZM104.61,237.48c0-.73.59-1.33,1.33-1.33s1.33.59,1.33,1.33-.59,1.33-1.33,1.33c-.73.01-1.34-.57-1.35-1.3,0,0,0-.02,0-.03h.02ZM101.95,237.48c0-.73.59-1.33,1.33-1.33s1.33.59,1.33,1.33-.59,1.33-1.33,1.33c-.73.01-1.34-.57-1.35-1.3,0,0,0-.02,0-.03h.03ZM99.3,237.48c0-.73.59-1.33,1.33-1.33s1.33.59,1.33,1.33-.59,1.33-1.33,1.33c-.73.02-1.34-.56-1.36-1.3,0-.01,0-.02,0-.03h.03ZM88.69,237.48c0-.73.59-1.33,1.33-1.33s1.33.59,1.33,1.33-.59,1.33-1.33,1.33c-.73.02-1.34-.56-1.36-1.3,0-.01,0-.02,0-.03h.03ZM141.76,234.83c0-.73.59-1.33,1.33-1.33.73,0,1.33.59,1.33,1.33s-.59,1.33-1.33,1.33c-.73.02-1.34-.56-1.36-1.3,0-.01,0-.02,0-.03h.03ZM133.8,234.83c0-.73.59-1.33,1.33-1.33.73,0,1.33.59,1.33,1.33s-.59,1.33-1.33,1.33c-.73.02-1.34-.56-1.36-1.3,0-.01,0-.02,0-.03h.03ZM128.49,234.83c0-.73.59-1.33,1.32-1.33.73,0,1.33.59,1.33,1.32,0,.73-.59,1.33-1.32,1.33-.01,0-.02,0-.04,0-.73,0-1.32-.59-1.32-1.33h.03ZM123.19,234.83c0-.73.59-1.33,1.32-1.33s1.33.59,1.33,1.32c0,.73-.59,1.33-1.32,1.33-.01,0-.02,0-.03,0-.73,0-1.33-.59-1.33-1.32h0s.03,0,.03,0ZM120.54,234.83c0-.73.59-1.33,1.33-1.33.73,0,1.33.59,1.33,1.33s-.59,1.33-1.33,1.33c-.73.02-1.34-.56-1.36-1.29,0-.01,0-.02,0-.04h.03ZM115.23,234.83c0-.73.59-1.33,1.33-1.33.73,0,1.33.59,1.33,1.33s-.59,1.33-1.33,1.33c-.73.02-1.34-.56-1.36-1.29,0-.01,0-.02,0-.04h.03ZM109.92,234.83c0-.73.59-1.33,1.33-1.33.73,0,1.33.59,1.33,1.33s-.59,1.33-1.33,1.33c-.73.02-1.34-.56-1.36-1.29,0-.01,0-.02,0-.04h.03ZM141.77,232.18c0-.73.59-1.33,1.33-1.33s1.33.59,1.33,1.33-.59,1.33-1.33,1.33c-.73.02-1.34-.56-1.36-1.29,0-.01,0-.03,0-.04h.03ZM136.46,232.18c0-.73.59-1.33,1.33-1.33s1.33.59,1.33,1.33-.59,1.33-1.33,1.33c-.73.02-1.34-.56-1.36-1.29,0-.01,0-.03,0-.04h.03ZM131.15,232.18c0-.73.59-1.33,1.33-1.33s1.33.59,1.33,1.33-.59,1.33-1.33,1.33c-.73.02-1.34-.56-1.36-1.29,0-.01,0-.03,0-.04h.03ZM125.84,232.18c0-.73.59-1.33,1.32-1.33.73,0,1.33.59,1.33,1.32,0,.73-.59,1.33-1.32,1.33-.01,0-.03,0-.04,0-.73,0-1.33-.59-1.33-1.33h.03ZM120.54,232.18c0-.73.59-1.33,1.33-1.33s1.33.59,1.33,1.33-.59,1.33-1.33,1.33c-.73.02-1.34-.56-1.36-1.29,0-.01,0-.03,0-.04h.03ZM115.23,232.18c0-.73.59-1.33,1.33-1.33s1.33.59,1.33,1.33-.59,1.33-1.33,1.33c-.73.02-1.34-.56-1.36-1.29,0-.01,0-.03,0-.04h.03ZM109.92,232.18c0-.73.59-1.33,1.33-1.33s1.33.59,1.33,1.33-.59,1.33-1.33,1.33c-.73.02-1.34-.56-1.36-1.29,0-.01,0-.03,0-.04h.03ZM141.77,229.53c0-.73.59-1.33,1.33-1.33s1.33.59,1.33,1.33-.59,1.33-1.33,1.33c-.73.02-1.34-.56-1.36-1.29,0-.01,0-.03,0-.04h.03ZM139.11,229.53c0-.73.59-1.33,1.33-1.33s1.33.59,1.33,1.33-.59,1.33-1.33,1.33c-.73.02-1.34-.56-1.36-1.29,0-.01,0-.03,0-.04h.03ZM133.81,229.53c0-.73.59-1.33,1.33-1.33s1.33.59,1.33,1.33-.59,1.33-1.33,1.33c-.73.02-1.34-.56-1.36-1.29,0-.01,0-.03,0-.04h.03ZM125.85,229.53c0-.73.59-1.33,1.32-1.34.73,0,1.33.59,1.34,1.32,0,.73-.59,1.33-1.32,1.34-.01,0-.03,0-.04,0-.73,0-1.33-.59-1.33-1.33h.03ZM123.19,229.53c0-.73.59-1.33,1.32-1.34s1.33.59,1.34,1.32c0,.73-.59,1.33-1.32,1.34-.01,0-.03,0-.04,0-.73,0-1.33-.59-1.33-1.32h0s.04,0,.04,0ZM112.58,229.53c0-.73.59-1.33,1.33-1.33s1.33.59,1.33,1.33-.59,1.33-1.33,1.33c-.73.02-1.34-.56-1.36-1.29,0-.02,0-.03,0-.05h.04ZM109.93,229.53c0-.73.59-1.33,1.33-1.33s1.33.59,1.33,1.33-.59,1.33-1.33,1.33c-.73.02-1.34-.56-1.36-1.29,0-.02,0-.03,0-.05h.04ZM141.77,226.88c0-.73.59-1.33,1.33-1.33s1.33.59,1.33,1.33-.59,1.33-1.33,1.33c-.73.02-1.34-.56-1.36-1.29,0-.02,0-.03,0-.05h.04ZM139.12,226.88c0-.73.59-1.33,1.33-1.33s1.33.59,1.33,1.33-.59,1.33-1.33,1.33c-.73.02-1.34-.55-1.37-1.29,0-.02,0-.04,0-.05h.04ZM131.16,226.88c0-.73.59-1.33,1.33-1.33s1.33.59,1.33,1.33-.59,1.33-1.33,1.33c-.73.02-1.34-.55-1.37-1.29,0-.02,0-.04,0-.05h.04ZM128.51,226.88c0-.73.58-1.33,1.32-1.34s1.33.58,1.34,1.32c0,.73-.58,1.33-1.32,1.34-.02,0-.04,0-.06,0-.73,0-1.32-.59-1.32-1.33h.04ZM123.2,226.88c0-.73.58-1.33,1.32-1.34s1.33.58,1.34,1.32c0,.73-.58,1.33-1.32,1.34-.02,0-.03,0-.05,0-.73,0-1.33-.59-1.33-1.32h0s.04,0,.04,0ZM115.24,226.88c0-.73.59-1.33,1.33-1.33s1.33.59,1.33,1.33-.59,1.33-1.33,1.33c-.73.02-1.35-.55-1.37-1.28,0-.02,0-.04,0-.05h.04ZM112.59,226.88c0-.73.59-1.33,1.33-1.33s1.33.59,1.33,1.33-.59,1.33-1.33,1.33c-.73.02-1.35-.55-1.37-1.28,0-.02,0-.04,0-.06h.05ZM109.94,226.88c0-.73.59-1.33,1.33-1.33s1.33.59,1.33,1.33-.59,1.33-1.33,1.33c-.73.03-1.35-.55-1.37-1.28,0-.02,0-.04,0-.06h.05ZM139.13,224.22c0-.73.59-1.33,1.33-1.33s1.33.59,1.33,1.33-.59,1.33-1.33,1.33c-.73.03-1.35-.55-1.37-1.28,0-.02,0-.04,0-.06h.05ZM131.17,224.22c0-.73.59-1.33,1.33-1.33s1.33.59,1.33,1.33-.59,1.33-1.33,1.33c-.73.03-1.35-.55-1.37-1.28,0-.02,0-.04,0-.06h.05ZM125.86,224.22c0-.73.58-1.33,1.31-1.34.73,0,1.33.58,1.34,1.31,0,.73-.58,1.33-1.31,1.34-.02,0-.04,0-.06,0-.73,0-1.33-.59-1.33-1.33h.05ZM123.21,224.22c0-.73.58-1.33,1.31-1.34.73,0,1.33.58,1.34,1.31,0,.73-.58,1.33-1.31,1.34-.02,0-.04,0-.06,0-.73,0-1.33-.59-1.33-1.32h0s.05.01.05.01ZM120.56,224.22c0-.73.59-1.33,1.33-1.33s1.33.59,1.33,1.33-.59,1.33-1.33,1.33c-.73.03-1.35-.54-1.38-1.27,0-.02,0-.04,0-.07h.05ZM117.9,224.22c0-.73.59-1.33,1.33-1.33s1.33.59,1.33,1.33-.59,1.33-1.33,1.33c-.73.03-1.35-.54-1.38-1.27,0-.02,0-.05,0-.07h.05ZM112.6,224.22c0-.73.59-1.33,1.33-1.33s1.33.59,1.33,1.33-.59,1.33-1.33,1.33c-.73.03-1.35-.54-1.38-1.27,0-.02,0-.05,0-.07h.05ZM109.95,224.22c0-.73.59-1.33,1.33-1.33s1.33.59,1.33,1.33-.59,1.33-1.33,1.33c-.73.03-1.35-.54-1.38-1.27,0-.02,0-.05,0-.07h.06ZM139.14,221.57c0-.73.58-1.33,1.31-1.34.73,0,1.33.58,1.34,1.31,0,.73-.58,1.33-1.31,1.34-.02,0-.05,0-.07,0-.73,0-1.33-.59-1.33-1.32l.06.02ZM131.18,221.57c0-.73.58-1.33,1.31-1.34.73,0,1.33.58,1.34,1.31,0,.73-.58,1.33-1.31,1.34-.02,0-.05,0-.07,0-.73,0-1.33-.59-1.33-1.32l.06.02ZM128.52,221.57c0-.73.58-1.33,1.31-1.34s1.33.58,1.34,1.31c0,.73-.58,1.33-1.31,1.34-.03,0-.05,0-.08,0-.73,0-1.32-.59-1.32-1.32l.06.02ZM123.22,221.57c0-.73.58-1.33,1.31-1.34.73,0,1.33.58,1.34,1.31,0,.73-.58,1.33-1.31,1.34-.02,0-.05,0-.07,0-.73,0-1.33-.59-1.33-1.32l.06.02ZM115.26,221.57c0-.73.58-1.33,1.31-1.34s1.33.58,1.34,1.31c0,.73-.58,1.33-1.31,1.34-.03,0-.05,0-.08,0-.73,0-1.33-.59-1.33-1.32l.06.02ZM109.95,221.57c0-.73.58-1.33,1.31-1.34.73,0,1.33.58,1.34,1.31,0,.73-.58,1.33-1.31,1.34-.03,0-.05,0-.08,0-.73,0-1.33-.59-1.33-1.32l.06.02ZM133.83,218.92c0-.73.58-1.33,1.31-1.34.73,0,1.33.58,1.34,1.31,0,.73-.58,1.33-1.31,1.34-.03,0-.05,0-.08,0-.73,0-1.33-.59-1.33-1.33l.06.02ZM131.18,218.92c0-.73.58-1.33,1.31-1.34s1.33.58,1.34,1.31c0,.73-.58,1.33-1.31,1.34-.03,0-.05,0-.08,0-.73,0-1.33-.59-1.33-1.33l.06.02ZM125.87,218.92c0-.73.58-1.33,1.31-1.34s1.33.58,1.34,1.31c0,.73-.58,1.33-1.31,1.34-.03,0-.05,0-.08,0-.73,0-1.33-.59-1.33-1.33l.06.02ZM123.22,218.92c0-.73.58-1.33,1.31-1.34.73,0,1.33.58,1.34,1.31,0,.73-.58,1.33-1.31,1.34-.03,0-.05,0-.08,0-.73,0-1.33-.59-1.33-1.32h0s.06.02.06.02ZM117.91,218.92c0-.73.58-1.33,1.31-1.34.73,0,1.33.58,1.34,1.31,0,.73-.58,1.33-1.31,1.34-.03,0-.05,0-.08,0-.73,0-1.33-.59-1.33-1.33l.06.02ZM112.61,218.92c0-.73.58-1.33,1.31-1.34.73,0,1.33.58,1.34,1.31,0,.73-.58,1.33-1.31,1.34-.03,0-.05,0-.08,0-.73,0-1.33-.59-1.33-1.33l.06.02ZM109.95,218.92c0-.73.58-1.33,1.31-1.34.73,0,1.33.58,1.34,1.31s-.58,1.33-1.31,1.34c-.03,0-.05,0-.08,0-.73,0-1.33-.59-1.33-1.33l.07.02ZM141.8,216.27c0-.73.58-1.33,1.31-1.34.73,0,1.33.58,1.34,1.31,0,.73-.58,1.33-1.31,1.34-.03,0-.05,0-.08,0-.73,0-1.33-.59-1.33-1.33h0s.07.02.07.02ZM139.15,216.27c0-.73.58-1.33,1.31-1.34s1.33.58,1.34,1.31c0,.73-.58,1.33-1.31,1.34-.03,0-.06,0-.08,0-.73,0-1.33-.59-1.33-1.33h0s.07.02.07.02ZM136.5,216.27c0-.73.58-1.33,1.31-1.34s1.33.58,1.34,1.31c0,.73-.58,1.33-1.31,1.34-.03,0-.06,0-.09,0-.73,0-1.33-.59-1.33-1.33h0s.07.02.07.02ZM133.84,216.27c0-.73.58-1.33,1.31-1.34.73,0,1.33.58,1.34,1.31s-.58,1.33-1.31,1.34c-.03,0-.06,0-.09,0-.73,0-1.33-.59-1.33-1.33h0s.07.02.07.02ZM131.19,216.27c0-.73.58-1.33,1.31-1.34s1.33.58,1.34,1.31-.58,1.33-1.31,1.34c-.03,0-.06,0-.09,0-.73,0-1.33-.59-1.33-1.33h0s.07.02.07.02ZM125.89,216.27c0-.73.58-1.33,1.31-1.34s1.33.58,1.34,1.31-.58,1.33-1.31,1.34c-.03,0-.06,0-.09,0-.73,0-1.33-.59-1.33-1.33h0s.07.02.07.02ZM123.23,216.27c0-.73.58-1.33,1.31-1.34s1.33.58,1.34,1.31-.58,1.33-1.31,1.34c-.03,0-.06,0-.09,0-.73,0-1.33-.59-1.33-1.32h0s.08.02.08.02ZM120.58,216.27c0-.73.58-1.33,1.31-1.34.73,0,1.33.58,1.34,1.31,0,.73-.58,1.33-1.31,1.34-.03,0-.06,0-.09,0-.73,0-1.33-.59-1.33-1.33h0s.08.02.08.02ZM115.28,216.27c0-.73.58-1.33,1.31-1.34.73,0,1.33.58,1.34,1.31s-.58,1.33-1.31,1.34c-.03,0-.06,0-.09,0-.73,0-1.33-.59-1.33-1.33,0,0,0,0,0,0l.08.02ZM112.62,216.27c0-.73.58-1.33,1.31-1.34.73,0,1.33.58,1.34,1.31,0,.73-.58,1.33-1.31,1.34-.03,0-.06,0-.1,0-.73,0-1.33-.59-1.33-1.33h0s.08.02.08.02Z"/>
    </clipPath>
    <clipPath id="clippath-4">
      <path class="cls-1" d="M97.95,214.92c-5.13,0-9.29,4.17-9.28,9.3,0,5.13,4.17,9.29,9.3,9.28,5.13,0,9.29-4.17,9.28-9.3,0-5.12-4.16-9.28-9.28-9.28h-.02ZM97.95,217.57c3.66,0,6.63,2.98,6.63,6.64,0,3.66-2.98,6.63-6.64,6.63s-6.63-2.98-6.63-6.64c0-3.66,2.97-6.62,6.63-6.63h.02Z"/>
    </clipPath>
    <clipPath id="clippath-5">
      <circle class="cls-1" cx="97.95" cy="224.21" r="3.98" transform="translate(-129.85 134.93) rotate(-45)"/>
    </clipPath>
    <clipPath id="clippath-6">
      <path class="cls-1" d="M165.62,224.21c0-5.13-4.17-9.28-9.3-9.28-5.13,0-9.28,4.17-9.28,9.3,0,5.13,4.17,9.28,9.3,9.28,5.12,0,9.28-4.16,9.28-9.28v-.02ZM162.97,224.21c0,3.66-2.98,6.63-6.64,6.63s-6.63-2.98-6.63-6.64c0-3.66,2.98-6.63,6.64-6.63,3.66,0,6.62,2.97,6.63,6.63v.02Z"/>
    </clipPath>
    <clipPath id="clippath-7">
      <circle class="cls-1" cx="156.33" cy="224.21" r="3.98" transform="translate(-112.75 176.21) rotate(-45)"/>
    </clipPath>
    <clipPath id="clippath-8">
      <path class="cls-1" d="M88.66,282.59c0,5.13,4.17,9.28,9.3,9.28,5.13,0,9.28-4.17,9.28-9.3,0-5.13-4.17-9.28-9.3-9.28-5.12,0-9.28,4.16-9.28,9.28v.02ZM91.31,282.59c0-3.67,2.98-6.63,6.65-6.63s6.63,2.98,6.63,6.65-2.98,6.63-6.65,6.63c-3.66,0-6.63-2.97-6.63-6.63v-.02Z"/>
    </clipPath>
    <clipPath id="clippath-9">
      <circle class="cls-1" cx="97.95" cy="282.59" r="3.98" transform="translate(-171.14 152.03) rotate(-45)"/>
    </clipPath>
    <clipPath id="clippath-10">
      <rect class="cls-1" x="280.02" y="211.97" width="82.95" height="82.93"/>
    </clipPath>
    <clipPath id="clippath-11">
      <path class="cls-1" d="M346.71,290.59c0-.73.59-1.33,1.33-1.33.73,0,1.33.59,1.33,1.33,0,.73-.59,1.33-1.33,1.33s-1.33-.59-1.33-1.33ZM344.06,290.59c0-.73.59-1.33,1.33-1.33.73,0,1.33.59,1.33,1.33s-.59,1.33-1.33,1.33c-.73,0-1.33-.59-1.33-1.32h0s0,0,0,0ZM338.75,290.59c0-.73.59-1.33,1.33-1.33.73,0,1.33.59,1.33,1.33s-.59,1.33-1.33,1.33c-.73,0-1.33-.59-1.33-1.32h0s0,0,0,0ZM336.1,290.59c0-.73.59-1.33,1.33-1.33.73,0,1.33.59,1.33,1.33s-.59,1.33-1.33,1.33c-.73,0-1.33-.59-1.33-1.32h0s0,0,0,0ZM333.45,290.59c0-.73.59-1.33,1.33-1.33.73,0,1.33.59,1.33,1.33s-.59,1.33-1.33,1.33c-.73,0-1.33-.59-1.33-1.32,0,0,0,0,0,0h0ZM328.14,290.59c0-.73.59-1.33,1.33-1.33.73,0,1.33.59,1.33,1.33s-.59,1.33-1.33,1.33c-.73,0-1.33-.59-1.33-1.32h0s0,0,0,0ZM325.49,290.59c0-.73.59-1.33,1.33-1.33.73,0,1.33.59,1.33,1.33s-.59,1.33-1.33,1.33c-.73,0-1.33-.59-1.34-1.32h0s0,0,0,0ZM322.84,290.59c0-.73.59-1.33,1.33-1.33.73,0,1.33.59,1.33,1.33s-.59,1.33-1.33,1.33c-.73,0-1.33-.58-1.34-1.32,0,0,0,0,0-.01h.01ZM317.53,290.59c0-.73.59-1.33,1.33-1.33.73,0,1.33.59,1.33,1.33s-.59,1.33-1.33,1.33c-.73,0-1.33-.58-1.34-1.32,0,0,0,0,0-.01h.01ZM314.88,290.59c0-.73.59-1.33,1.33-1.33.73,0,1.33.59,1.33,1.33s-.59,1.33-1.33,1.33c-.73,0-1.33-.58-1.34-1.31,0,0,0,0,0-.01h.01ZM306.92,290.59c0-.73.59-1.33,1.33-1.33.73,0,1.33.59,1.33,1.33s-.59,1.33-1.33,1.33c-.73,0-1.33-.58-1.34-1.31,0,0,0,0,0-.01h.01ZM304.27,290.59c0-.73.59-1.33,1.33-1.33.73,0,1.33.59,1.33,1.33s-.59,1.33-1.33,1.33c-.73,0-1.33-.58-1.34-1.31,0,0,0-.01,0-.02h.02ZM354.69,287.94c0-.73.59-1.33,1.32-1.33.73,0,1.33.59,1.33,1.32,0,.73-.59,1.33-1.32,1.33,0,0-.01,0-.02,0-.73,0-1.33-.59-1.33-1.32h.02ZM352.04,287.94c0-.73.59-1.33,1.32-1.33.73,0,1.33.59,1.33,1.32,0,.73-.59,1.33-1.32,1.33,0,0-.01,0-.02,0-.73,0-1.32-.59-1.32-1.32h.02ZM338.77,287.94c0-.73.59-1.33,1.32-1.33.73,0,1.33.59,1.33,1.32s-.59,1.33-1.32,1.33c0,0-.01,0-.02,0-.73,0-1.33-.59-1.33-1.32h.02ZM336.12,287.94c0-.73.59-1.33,1.32-1.33.73,0,1.33.59,1.33,1.32s-.59,1.33-1.32,1.33c0,0-.02,0-.02,0-.73,0-1.33-.59-1.33-1.32h.02ZM328.15,287.94c0-.73.59-1.33,1.32-1.33.73,0,1.33.59,1.33,1.32s-.59,1.33-1.32,1.33c0,0-.02,0-.02,0-.73,0-1.33-.59-1.33-1.32h.02ZM322.85,287.94c0-.73.59-1.33,1.32-1.33.73,0,1.33.59,1.33,1.32,0,.73-.59,1.33-1.32,1.33,0,0-.02,0-.03,0-.73,0-1.32-.59-1.32-1.32h.02ZM320.2,287.94c0-.73.59-1.33,1.32-1.33.73,0,1.33.59,1.33,1.32s-.59,1.33-1.32,1.33c0,0-.02,0-.03,0-.73,0-1.33-.59-1.33-1.32h.02ZM317.54,287.94c0-.73.59-1.33,1.32-1.33.73,0,1.33.59,1.33,1.32s-.59,1.33-1.32,1.33c0,0-.02,0-.03,0-.73,0-1.33-.59-1.33-1.32h0s.02,0,.02,0ZM314.89,287.94c0-.73.59-1.33,1.32-1.33s1.33.59,1.33,1.32c0,.73-.59,1.33-1.32,1.33-.01,0-.02,0-.03,0-.73,0-1.33-.59-1.33-1.32h.03ZM312.24,287.94c0-.73.59-1.33,1.32-1.33.73,0,1.33.59,1.33,1.32,0,.73-.59,1.33-1.32,1.33-.01,0-.02,0-.03,0-.73,0-1.33-.59-1.33-1.32h.03ZM357.35,285.29c0-.73.59-1.33,1.33-1.33s1.33.59,1.33,1.33c0,.73-.59,1.33-1.33,1.33-.73.02-1.34-.56-1.36-1.29,0-.01,0-.02,0-.04h.03ZM346.74,285.29c0-.73.59-1.33,1.33-1.33s1.33.59,1.33,1.33-.59,1.33-1.33,1.33c-.73.02-1.34-.56-1.36-1.3,0-.01,0-.02,0-.03h.03ZM336.13,285.29c0-.73.59-1.33,1.33-1.33s1.33.59,1.33,1.33-.59,1.33-1.33,1.33c-.73.02-1.34-.56-1.36-1.3,0-.01,0-.02,0-.03h.03ZM325.51,285.29c0-.73.59-1.33,1.33-1.33s1.33.59,1.33,1.33-.59,1.33-1.33,1.33c-.73.02-1.34-.56-1.36-1.3,0-.01,0-.02,0-.03h.03ZM314.9,285.29c0-.73.59-1.33,1.33-1.33s1.33.59,1.33,1.33-.59,1.33-1.33,1.33c-.73.02-1.34-.56-1.36-1.3,0-.01,0-.02,0-.03h.03ZM309.59,285.29c0-.73.59-1.33,1.33-1.33s1.33.59,1.33,1.33-.59,1.33-1.33,1.33c-.73.02-1.34-.56-1.36-1.3,0-.01,0-.02,0-.03h.03ZM306.94,285.29c0-.73.59-1.33,1.32-1.33.73,0,1.33.59,1.33,1.32,0,.73-.59,1.33-1.32,1.33-.01,0-.02,0-.04,0-.73,0-1.33-.59-1.33-1.33h.03ZM354.7,282.64c0-.73.59-1.33,1.33-1.33s1.33.59,1.33,1.33-.59,1.33-1.33,1.33c-.73.02-1.34-.56-1.36-1.29,0-.01,0-.03,0-.04h.03ZM352.05,282.64c0-.73.59-1.33,1.33-1.33s1.33.59,1.33,1.33-.59,1.33-1.33,1.33c-.73.02-1.34-.56-1.36-1.29,0-.01,0-.03,0-.04h.03ZM349.4,282.64c0-.73.59-1.33,1.33-1.33s1.33.59,1.33,1.33-.59,1.33-1.33,1.33c-.73.02-1.34-.56-1.36-1.29,0-.01,0-.03,0-.04h.04ZM346.75,282.64c0-.73.59-1.33,1.33-1.33s1.33.59,1.33,1.33-.59,1.33-1.33,1.33c-.73.02-1.34-.56-1.36-1.29,0-.02,0-.03,0-.05h.04ZM344.1,282.64c0-.73.59-1.33,1.33-1.33s1.33.59,1.33,1.33-.59,1.33-1.33,1.33h0c-.73.02-1.34-.55-1.37-1.29,0-.02,0-.03,0-.05h.04ZM338.79,282.64c0-.73.59-1.33,1.33-1.33s1.33.59,1.33,1.33-.59,1.33-1.33,1.33c-.73.02-1.34-.55-1.37-1.29,0-.02,0-.03,0-.05h.04ZM333.48,282.64c0-.73.59-1.33,1.32-1.33.73,0,1.33.59,1.33,1.32s-.59,1.33-1.32,1.33c-.01,0-.03,0-.04,0-.73,0-1.33-.59-1.33-1.33h0s.04,0,.04,0ZM328.18,282.64c0-.73.59-1.33,1.33-1.33s1.33.59,1.33,1.33-.59,1.33-1.33,1.33c-.73.02-1.34-.55-1.37-1.29,0-.02,0-.03,0-.05h.04ZM325.52,282.64c0-.73.59-1.33,1.33-1.33s1.33.59,1.33,1.33-.59,1.33-1.33,1.33c-.73.02-1.35-.55-1.37-1.28,0-.02,0-.03,0-.05h.04ZM322.87,282.64c0-.73.59-1.33,1.32-1.33.73,0,1.33.59,1.33,1.32s-.59,1.33-1.32,1.33c-.02,0-.03,0-.05,0-.73,0-1.33-.6-1.32-1.33h.05ZM317.56,282.64c0-.73.59-1.33,1.32-1.33.73,0,1.33.59,1.33,1.32,0,.73-.59,1.33-1.32,1.33-.02,0-.03,0-.05,0-.73,0-1.33-.59-1.33-1.32h0s.05,0,.05,0ZM312.26,282.64c0-.73.59-1.33,1.33-1.33s1.33.59,1.33,1.33-.59,1.33-1.33,1.33c-.73.02-1.35-.55-1.37-1.28,0-.02,0-.04,0-.05h.05ZM306.95,282.64c0-.73.59-1.33,1.32-1.33.73,0,1.33.59,1.33,1.32,0,.73-.59,1.33-1.32,1.33-.02,0-.03,0-.05,0-.73,0-1.33-.59-1.33-1.33h0s.05,0,.05,0ZM357.32,279.98c0-.73.59-1.33,1.33-1.33s1.33.59,1.33,1.33-.59,1.33-1.33,1.33-1.33-.59-1.33-1.33ZM354.67,279.98c0-.73.59-1.33,1.33-1.33s1.33.59,1.33,1.33-.59,1.33-1.33,1.33-1.33-.59-1.33-1.33ZM352.02,279.98c0-.73.59-1.33,1.33-1.33s1.33.59,1.33,1.33-.59,1.33-1.33,1.33-1.33-.59-1.33-1.33ZM346.71,279.98c0-.73.59-1.33,1.33-1.33s1.33.59,1.33,1.33-.59,1.33-1.33,1.33c-.73,0-1.33-.59-1.33-1.32h0s0,0,0,0ZM344.06,279.98c0-.73.59-1.33,1.33-1.33s1.33.59,1.33,1.33-.59,1.33-1.33,1.33c-.73,0-1.33-.59-1.33-1.32h0s0,0,0,0ZM341.41,279.98c0-.73.59-1.33,1.33-1.33s1.33.59,1.33,1.33-.59,1.33-1.33,1.33c-.73,0-1.33-.59-1.33-1.32h0s0,0,0,0ZM338.76,279.98c0-.73.59-1.33,1.33-1.33s1.33.59,1.33,1.33-.59,1.33-1.33,1.33c-.73,0-1.33-.59-1.34-1.32,0,0,0,0,0,0h0ZM336.11,279.98c0-.73.59-1.33,1.33-1.33s1.33.59,1.33,1.33-.59,1.33-1.33,1.33c-.73,0-1.33-.58-1.34-1.32,0,0,0,0,0-.01h.01ZM330.8,279.98c0-.73.59-1.33,1.33-1.33s1.33.59,1.33,1.33-.59,1.33-1.33,1.33h0c-.73,0-1.33-.58-1.34-1.32,0,0,0,0,0-.01h.01ZM328.15,279.98c0-.73.59-1.33,1.33-1.33s1.33.59,1.33,1.33-.59,1.33-1.33,1.33c-.73,0-1.33-.58-1.34-1.31,0,0,0,0,0-.01h.01ZM322.84,279.98c0-.73.59-1.33,1.33-1.33s1.33.59,1.33,1.33-.59,1.33-1.33,1.33c-.73,0-1.33-.58-1.34-1.31,0,0,0,0,0-.01h.01ZM317.53,279.98c0-.73.59-1.33,1.33-1.33s1.33.59,1.33,1.33-.59,1.33-1.33,1.33h0c-.73,0-1.33-.58-1.34-1.31,0,0,0,0,0-.01h.01ZM312.23,279.98c0-.73.59-1.33,1.33-1.33s1.33.59,1.33,1.33-.59,1.33-1.33,1.33c-.73,0-1.33-.58-1.34-1.31,0,0,0,0,0-.01h.01ZM306.92,279.98c0-.73.59-1.33,1.33-1.33s1.33.59,1.33,1.33-.59,1.33-1.33,1.33c-.73,0-1.33-.58-1.34-1.31,0,0,0,0,0-.01h.01ZM304.27,279.98c0-.73.59-1.33,1.33-1.33s1.33.59,1.33,1.33-.59,1.33-1.33,1.33c-.73,0-1.33-.58-1.34-1.31,0,0,0-.01,0-.02h.02ZM352.03,277.32c0-.73.59-1.33,1.33-1.33s1.33.59,1.33,1.33-.59,1.33-1.33,1.33c-.73,0-1.33-.58-1.34-1.31,0,0,0-.01,0-.02h.01ZM349.38,277.32c0-.73.59-1.33,1.33-1.33s1.33.59,1.33,1.33-.59,1.33-1.33,1.33c-.73,0-1.33-.58-1.34-1.31,0,0,0-.01,0-.02h.02ZM346.73,277.32c0-.73.59-1.33,1.33-1.33s1.33.59,1.33,1.33-.59,1.33-1.33,1.33c-.73.01-1.34-.57-1.35-1.31,0,0,0-.02,0-.02h.02ZM336.12,277.32c0-.73.59-1.33,1.33-1.33s1.33.59,1.33,1.33-.59,1.33-1.33,1.33c-.73.01-1.34-.57-1.35-1.31,0,0,0-.02,0-.02h.02ZM333.46,277.32c0-.73.59-1.33,1.33-1.33s1.33.59,1.33,1.33-.59,1.33-1.33,1.33c-.73.01-1.34-.57-1.35-1.3,0,0,0-.02,0-.03h.02ZM328.16,277.32c0-.73.59-1.33,1.33-1.33s1.33.59,1.33,1.33-.59,1.33-1.33,1.33c-.73.01-1.34-.57-1.35-1.3,0,0,0-.02,0-.03h.02ZM320.2,277.32c0-.73.59-1.33,1.33-1.33s1.33.59,1.33,1.33-.59,1.33-1.33,1.33c-.73.01-1.34-.57-1.35-1.3,0,0,0-.02,0-.03h.02ZM314.89,277.32c0-.73.59-1.33,1.33-1.33s1.33.59,1.33,1.33-.59,1.33-1.33,1.33c-.73.01-1.34-.57-1.35-1.3,0,0,0-.02,0-.03h.02ZM312.24,277.32c0-.73.59-1.33,1.33-1.33s1.33.59,1.33,1.33-.59,1.33-1.33,1.33c-.73.01-1.34-.57-1.35-1.3,0,0,0-.02,0-.03h.02ZM306.93,277.32c0-.73.59-1.33,1.33-1.33s1.33.59,1.33,1.33-.59,1.33-1.33,1.33c-.73.01-1.34-.57-1.35-1.3,0,0,0-.02,0-.03h.02ZM304.28,277.32c0-.73.59-1.33,1.33-1.33s1.33.59,1.33,1.33-.59,1.33-1.33,1.33c-.73.01-1.34-.57-1.35-1.3,0,0,0-.02,0-.03h.03ZM357.35,274.67c0-.73.59-1.33,1.33-1.33s1.33.59,1.33,1.33-.59,1.33-1.33,1.33c-.73.02-1.34-.56-1.36-1.3,0-.01,0-.02,0-.03h.03ZM354.7,274.67c0-.73.59-1.33,1.33-1.33s1.33.59,1.33,1.33-.59,1.33-1.33,1.33c-.73.02-1.34-.56-1.36-1.3,0-.01,0-.02,0-.03h.03ZM352.05,274.67c0-.73.59-1.33,1.33-1.33s1.33.59,1.33,1.33-.59,1.33-1.33,1.33c-.73.02-1.34-.56-1.36-1.3,0-.01,0-.02,0-.03h.03ZM346.74,274.67c0-.73.59-1.33,1.33-1.33s1.33.59,1.33,1.33-.59,1.33-1.33,1.33c-.73.02-1.34-.56-1.36-1.29,0-.01,0-.02,0-.04h.03ZM341.43,274.67c0-.73.59-1.33,1.33-1.33s1.33.59,1.33,1.33-.59,1.33-1.33,1.33c-.73.02-1.34-.56-1.36-1.29,0-.01,0-.02,0-.04h.03ZM336.13,274.67c0-.73.59-1.33,1.33-1.33s1.33.59,1.33,1.33-.59,1.33-1.33,1.33c-.73.02-1.34-.56-1.36-1.29,0-.01,0-.02,0-.04h.03ZM333.48,274.67c0-.73.59-1.33,1.33-1.33s1.33.59,1.33,1.33-.59,1.33-1.33,1.33c-.73.02-1.34-.56-1.36-1.29,0-.01,0-.03,0-.04h.03ZM330.82,274.67c0-.73.59-1.33,1.33-1.33s1.33.59,1.33,1.33-.59,1.33-1.33,1.33c-.73.02-1.34-.56-1.36-1.29,0-.01,0-.03,0-.04h.04ZM328.17,274.67c0-.73.59-1.33,1.33-1.33s1.33.59,1.33,1.33-.59,1.33-1.33,1.33c-.73.02-1.34-.56-1.36-1.29,0-.01,0-.03,0-.04h.04ZM320.21,274.67c0-.73.59-1.33,1.33-1.33s1.33.59,1.33,1.33-.59,1.33-1.33,1.33c-.73.02-1.34-.56-1.36-1.29,0-.01,0-.03,0-.04h.04ZM317.56,274.67c0-.73.59-1.33,1.33-1.33s1.33.59,1.33,1.33-.59,1.33-1.33,1.33c-.73.02-1.34-.55-1.37-1.29,0-.02,0-.03,0-.05h.04ZM312.25,274.67c0-.73.59-1.33,1.33-1.33s1.33.59,1.33,1.33-.59,1.33-1.33,1.33c-.73.02-1.34-.55-1.37-1.29,0-.02,0-.03,0-.05h.04ZM309.6,274.67c0-.73.59-1.33,1.33-1.33s1.33.59,1.33,1.33-.59,1.33-1.33,1.33c-.73.02-1.35-.55-1.37-1.28,0-.02,0-.03,0-.05h.04ZM306.95,274.67c0-.73.59-1.33,1.33-1.33s1.33.59,1.33,1.33-.59,1.33-1.33,1.33c-.73.02-1.35-.55-1.37-1.28,0-.02,0-.03,0-.05h.05ZM357.37,272.02c0-.73.59-1.33,1.33-1.33s1.33.59,1.33,1.33-.59,1.33-1.33,1.33c-.73.03-1.35-.55-1.37-1.28,0-.02,0-.04,0-.06h.05ZM352.06,272.02c0-.73.59-1.33,1.33-1.33s1.33.59,1.33,1.33-.59,1.33-1.33,1.33c-.73.02-1.35-.55-1.37-1.28,0-.02,0-.03,0-.05h.04ZM349.41,272.02c0-.73.59-1.33,1.33-1.33s1.33.59,1.33,1.33-.59,1.33-1.33,1.33c-.73.03-1.35-.55-1.37-1.28,0-.02,0-.04,0-.06h.05ZM346.76,272.02c0-.73.59-1.33,1.33-1.33s1.33.59,1.33,1.33-.59,1.33-1.33,1.33c-.73.03-1.35-.54-1.38-1.28,0-.02,0-.04,0-.06h.05ZM336.15,272.02c0-.73.59-1.33,1.33-1.33s1.33.59,1.33,1.33-.59,1.33-1.33,1.33c-.73.03-1.35-.54-1.38-1.28,0-.02,0-.04,0-.06h.05ZM328.18,272.02c0-.73.59-1.33,1.33-1.33s1.33.59,1.33,1.33-.59,1.33-1.33,1.33c-.73.03-1.35-.54-1.38-1.28,0-.02,0-.04,0-.06h.05ZM325.53,272.02c0-.73.59-1.33,1.33-1.33s1.33.59,1.33,1.33-.59,1.33-1.33,1.33c-.73.03-1.35-.54-1.38-1.27,0-.02,0-.04,0-.06h.05ZM320.23,272.02c0-.73.59-1.33,1.32-1.33s1.33.59,1.33,1.32c0,.73-.59,1.33-1.32,1.33-.02,0-.04,0-.06,0-.73,0-1.33-.59-1.33-1.33h.05ZM317.57,272.02c0-.73.59-1.33,1.32-1.33s1.33.59,1.33,1.32c0,.73-.59,1.33-1.32,1.33-.02,0-.04,0-.06,0-.73,0-1.33-.59-1.33-1.32h0s.05,0,.05,0ZM314.92,272.02c0-.73.59-1.33,1.33-1.33s1.33.59,1.33,1.33-.59,1.33-1.33,1.33c-.73.03-1.35-.54-1.38-1.27,0-.02,0-.04,0-.06h.06ZM312.27,272.02c0-.73.59-1.33,1.33-1.33s1.33.59,1.33,1.33-.59,1.33-1.33,1.33c-.73.03-1.35-.53-1.38-1.27,0-.02,0-.04,0-.07h.06ZM309.62,272.02c0-.73.59-1.33,1.33-1.33s1.33.59,1.33,1.33c0,.73-.59,1.33-1.33,1.33-.73.03-1.35-.53-1.39-1.26,0-.02,0-.05,0-.07h.06ZM354.73,269.37c0-.73.59-1.33,1.33-1.33s1.33.59,1.33,1.33-.59,1.33-1.33,1.33c-.73.03-1.35-.53-1.39-1.26,0-.02,0-.05,0-.07h.06ZM352.08,269.37c0-.73.59-1.33,1.33-1.33s1.33.59,1.33,1.33-.59,1.33-1.33,1.33c-.73.03-1.35-.53-1.39-1.26,0-.02,0-.05,0-.07h.06ZM349.43,269.37c0-.73.59-1.33,1.33-1.33s1.33.59,1.33,1.33-.59,1.33-1.33,1.33c-.73.04-1.35-.53-1.39-1.26,0-.03,0-.05,0-.08h.07ZM346.78,269.37c0-.73.59-1.33,1.33-1.33s1.33.59,1.33,1.33-.59,1.33-1.33,1.33c-.73.04-1.36-.53-1.39-1.26,0-.03,0-.05,0-.08h.07ZM344.13,269.37c0-.73.59-1.33,1.33-1.33s1.33.59,1.33,1.33-.59,1.33-1.33,1.33c-.73.04-1.36-.52-1.4-1.25,0-.03,0-.05,0-.08h.07ZM341.48,269.37c0-.73.59-1.33,1.33-1.33s1.33.59,1.33,1.33-.59,1.33-1.33,1.33h0c-.73.04-1.36-.52-1.4-1.25,0-.03,0-.06,0-.08h.07ZM338.82,269.37c0-.73.59-1.33,1.33-1.33s1.33.59,1.33,1.33-.59,1.33-1.33,1.33c-.73.04-1.36-.52-1.4-1.25,0-.03,0-.06,0-.09h.07ZM336.17,269.37c0-.73.59-1.33,1.33-1.33s1.33.59,1.33,1.33-.59,1.33-1.33,1.33c-.73.04-1.36-.52-1.4-1.25,0-.03,0-.06,0-.09h.08ZM330.86,269.37c0-.73.59-1.33,1.33-1.33s1.33.59,1.33,1.33-.59,1.33-1.33,1.33c-.73.04-1.36-.52-1.4-1.25,0-.03,0-.06,0-.09h.08ZM328.21,269.37c0-.73.59-1.33,1.33-1.33s1.33.59,1.33,1.33-.59,1.33-1.33,1.33h0c-.73.04-1.36-.51-1.4-1.25,0-.03,0-.06,0-.09h.08ZM322.91,269.37c0-.73.59-1.33,1.33-1.33s1.33.59,1.33,1.33-.59,1.33-1.33,1.33c-.73.04-1.36-.51-1.4-1.25,0-.03,0-.06,0-.09h.08ZM320.25,269.37c0-.73.59-1.33,1.33-1.33s1.33.59,1.33,1.33-.59,1.33-1.33,1.33c-.73.04-1.36-.51-1.41-1.24,0-.03,0-.06,0-.09h.08ZM317.6,269.37c0-.73.59-1.33,1.33-1.33s1.33.59,1.33,1.33-.59,1.33-1.33,1.33c-.73.05-1.36-.51-1.41-1.24,0-.03,0-.06,0-.1h.08ZM312.3,269.37c0-.73.59-1.33,1.33-1.33s1.33.59,1.33,1.33-.59,1.33-1.33,1.33c-.73.05-1.36-.51-1.41-1.24,0-.03,0-.06,0-.1h.08ZM301.68,269.37c0-.73.59-1.33,1.33-1.33s1.33.59,1.33,1.33-.59,1.33-1.33,1.33c-.73.05-1.36-.51-1.41-1.24,0-.03,0-.06,0-.1h.08ZM299.03,269.37c0-.73.59-1.33,1.33-1.33s1.33.59,1.33,1.33-.59,1.33-1.33,1.33c-.73.05-1.36-.51-1.41-1.24,0-.03,0-.07,0-.1h.09ZM293.72,269.37c0-.73.59-1.33,1.33-1.33s1.33.59,1.33,1.33-.59,1.33-1.33,1.33c-.73.05-1.36-.51-1.41-1.24,0-.03,0-.07,0-.1h.09ZM291.07,269.37c0-.73.59-1.33,1.33-1.33s1.33.59,1.33,1.33-.59,1.33-1.33,1.33c-.73.05-1.36-.5-1.41-1.23,0-.03,0-.07,0-.1h.09ZM288.42,269.37c0-.73.59-1.33,1.33-1.33s1.33.59,1.33,1.33-.59,1.33-1.33,1.33c-.73.05-1.36-.5-1.41-1.23,0-.03,0-.07,0-.1h.09ZM285.77,269.37c0-.73.59-1.33,1.33-1.33s1.33.59,1.33,1.33-.59,1.33-1.33,1.33c-.73.05-1.36-.5-1.41-1.23,0-.03,0-.07,0-.1h.09ZM357.32,266.71c0-.73.59-1.33,1.33-1.33s1.33.59,1.33,1.33-.59,1.33-1.33,1.33-1.33-.59-1.33-1.33ZM352.02,266.71c0-.73.59-1.33,1.33-1.33s1.33.59,1.33,1.33-.59,1.33-1.33,1.33c-.73,0-1.32-.6-1.32-1.33h0ZM349.36,266.71c0-.73.59-1.33,1.33-1.33s1.33.59,1.33,1.33-.59,1.33-1.33,1.33-1.33-.59-1.33-1.33h0ZM344.06,266.71c0-.73.59-1.33,1.33-1.33s1.33.59,1.33,1.33-.59,1.33-1.33,1.33-1.33-.59-1.33-1.33ZM341.41,266.71c0-.73.59-1.33,1.33-1.33s1.33.59,1.33,1.33-.59,1.33-1.33,1.33c-.73,0-1.33-.59-1.33-1.32h0s0,0,0,0ZM333.44,266.71c0-.73.59-1.33,1.33-1.33s1.33.59,1.33,1.33-.59,1.33-1.33,1.33h0c-.73,0-1.33-.59-1.33-1.32h0s0,0,0,0ZM328.14,266.71c0-.73.59-1.33,1.33-1.33s1.33.59,1.33,1.33-.59,1.33-1.33,1.33c-.73,0-1.33-.59-1.33-1.32h0s0,0,0,0ZM317.52,266.71c0-.73.59-1.33,1.33-1.33s1.33.59,1.33,1.33c0,.73-.59,1.33-1.33,1.33-.73,0-1.33-.59-1.33-1.32h0s0,0,0,0ZM314.87,266.71c0-.73.59-1.33,1.33-1.33s1.33.59,1.33,1.33-.59,1.33-1.33,1.33c-.73,0-1.33-.59-1.33-1.32h0s0,0,0,0ZM306.91,266.71c0-.73.59-1.33,1.33-1.33s1.33.59,1.33,1.33-.59,1.33-1.33,1.33c-.73,0-1.33-.59-1.33-1.32h0s0,0,0,0ZM293.64,266.71c0-.73.59-1.33,1.33-1.33s1.33.59,1.33,1.33-.59,1.33-1.33,1.33c-.73,0-1.33-.59-1.33-1.32,0,0,0,0,0,0h0ZM290.99,266.71c0-.73.59-1.33,1.33-1.33s1.33.59,1.33,1.33-.59,1.33-1.33,1.33c-.73,0-1.33-.59-1.34-1.32h0s0,0,0,0ZM288.34,266.71c0-.73.59-1.33,1.33-1.33s1.33.59,1.33,1.33c0,.73-.59,1.33-1.33,1.33-.73,0-1.33-.59-1.34-1.32,0,0,0,0,0,0h0ZM352.03,264.06c0-.73.59-1.33,1.33-1.33s1.33.59,1.33,1.33-.59,1.33-1.33,1.33c-.73,0-1.33-.59-1.34-1.32,0,0,0,0,0-.01h0ZM349.38,264.06c0-.73.59-1.33,1.33-1.33s1.33.59,1.33,1.33-.59,1.33-1.33,1.33c-.73,0-1.33-.58-1.34-1.31,0,0,0-.01,0-.02h.01ZM344.07,264.06c0-.73.59-1.33,1.33-1.33s1.33.59,1.33,1.33-.59,1.33-1.33,1.33h0c-.73,0-1.33-.58-1.34-1.31,0,0,0-.01,0-.02h.01ZM338.76,264.06c0-.73.59-1.33,1.33-1.33s1.33.59,1.33,1.33-.59,1.33-1.33,1.33c-.73,0-1.33-.58-1.34-1.31,0,0,0-.01,0-.02h.01ZM330.8,264.06c0-.73.59-1.33,1.33-1.33s1.33.59,1.33,1.33-.59,1.33-1.33,1.33c-.73,0-1.33-.58-1.34-1.31,0,0,0-.01,0-.02h.01ZM325.49,264.06c0-.73.59-1.33,1.33-1.33s1.33.59,1.33,1.33-.59,1.33-1.33,1.33c-.73,0-1.33-.58-1.34-1.31,0,0,0-.01,0-.02h.01ZM320.19,264.06c0-.73.59-1.33,1.32-1.33s1.33.59,1.33,1.32c0,.73-.59,1.33-1.32,1.33,0,0-.01,0-.02,0-.73,0-1.33-.59-1.33-1.33h.01ZM317.54,264.06c0-.73.59-1.33,1.32-1.33.73,0,1.33.59,1.33,1.32,0,.73-.59,1.33-1.32,1.33,0,0-.01,0-.02,0-.73,0-1.33-.59-1.33-1.32h0s.02,0,.02,0ZM309.57,264.06c0-.73.59-1.33,1.33-1.33s1.33.59,1.33,1.33-.59,1.33-1.33,1.33c-.73,0-1.33-.58-1.34-1.31,0,0,0-.01,0-.02h.02ZM306.92,264.06c0-.73.59-1.33,1.33-1.33s1.33.59,1.33,1.33-.59,1.33-1.33,1.33c-.73,0-1.33-.58-1.34-1.31,0,0,0-.01,0-.02h.02ZM301.61,264.06c0-.73.59-1.33,1.33-1.33s1.33.59,1.33,1.33-.59,1.33-1.33,1.33c-.73,0-1.33-.58-1.34-1.31,0,0,0-.01,0-.02h.02ZM298.96,264.06c0-.73.59-1.33,1.33-1.33s1.33.59,1.33,1.33-.59,1.33-1.33,1.33c-.73.01-1.34-.57-1.35-1.31,0,0,0-.02,0-.02h.02ZM293.66,264.06c0-.73.59-1.33,1.33-1.33s1.33.59,1.33,1.33-.59,1.33-1.33,1.33c-.73.01-1.34-.57-1.35-1.31,0,0,0-.02,0-.02h.02ZM283.04,264.06c0-.73.59-1.33,1.33-1.33s1.33.59,1.33,1.33-.59,1.33-1.33,1.33c-.73.01-1.34-.57-1.35-1.31,0,0,0-.02,0-.02h.02ZM357.32,261.4c0-.73.59-1.33,1.33-1.33s1.33.59,1.33,1.33-.59,1.33-1.33,1.33-1.33-.59-1.33-1.33ZM352.02,261.4c0-.73.59-1.33,1.33-1.33s1.33.59,1.33,1.33-.59,1.33-1.33,1.33c-.73,0-1.32-.6-1.32-1.33h0ZM344.05,261.4c0-.73.59-1.33,1.33-1.33s1.33.59,1.33,1.33-.59,1.33-1.33,1.33c-.73,0-1.32-.59-1.32-1.33h0ZM341.4,261.4c0-.73.59-1.33,1.33-1.33s1.33.59,1.33,1.33-.59,1.33-1.33,1.33-1.33-.59-1.33-1.33ZM338.75,261.4c0-.73.59-1.33,1.33-1.33s1.33.59,1.33,1.33-.59,1.33-1.33,1.33c-.73,0-1.33-.59-1.33-1.32h0s0,0,0,0ZM336.1,261.4c0-.73.59-1.33,1.33-1.33s1.33.59,1.33,1.33-.59,1.33-1.33,1.33c-.73,0-1.33-.59-1.33-1.32h0s0,0,0,0ZM314.87,261.4c0-.73.59-1.33,1.33-1.33s1.33.59,1.33,1.33-.59,1.33-1.33,1.33c-.73,0-1.33-.59-1.33-1.32h0s0,0,0,0ZM309.56,261.4c0-.73.59-1.33,1.33-1.33s1.33.59,1.33,1.33-.59,1.33-1.33,1.33c-.73,0-1.33-.59-1.33-1.32h0s0,0,0,0ZM301.6,261.4c0-.73.59-1.33,1.33-1.33s1.33.59,1.33,1.33-.59,1.33-1.33,1.33c-.73,0-1.33-.59-1.33-1.32,0,0,0,0,0,0h0ZM296.29,261.4c0-.73.59-1.33,1.33-1.33s1.33.59,1.33,1.33-.59,1.33-1.33,1.33c-.73,0-1.33-.59-1.33-1.32h0s0,0,0,0ZM293.64,261.4c0-.73.59-1.33,1.33-1.33s1.33.59,1.33,1.33-.59,1.33-1.33,1.33c-.73,0-1.33-.59-1.33-1.32,0,0,0,0,0,0h0ZM290.99,261.4c0-.73.59-1.33,1.33-1.33s1.33.59,1.33,1.33-.59,1.33-1.33,1.33c-.73,0-1.33-.58-1.34-1.32,0,0,0,0,0-.01h.01ZM352.03,258.75c0-.73.59-1.33,1.33-1.33s1.33.59,1.33,1.33-.59,1.33-1.33,1.33c-.73,0-1.33-.59-1.33-1.32,0,0,0,0,0,0h0ZM346.72,258.75c0-.73.59-1.33,1.33-1.33s1.33.59,1.33,1.33-.59,1.33-1.33,1.33c-.73,0-1.33-.59-1.34-1.32,0,0,0,0,0-.01h0ZM341.41,258.75c0-.73.59-1.33,1.33-1.33s1.33.59,1.33,1.33-.59,1.33-1.33,1.33c-.73,0-1.33-.59-1.34-1.32,0,0,0,0,0-.01h0ZM338.76,258.75c0-.73.59-1.33,1.33-1.33s1.33.59,1.33,1.33-.59,1.33-1.33,1.33c-.73,0-1.33-.58-1.34-1.32,0,0,0,0,0-.01h.01ZM333.45,258.75c0-.73.59-1.33,1.32-1.33.73,0,1.33.59,1.33,1.32,0,.73-.59,1.33-1.32,1.33,0,0,0,0-.01,0-.73,0-1.33-.59-1.33-1.33h.01ZM328.15,258.75c0-.73.59-1.33,1.33-1.33s1.33.59,1.33,1.33-.59,1.33-1.33,1.33c-.73,0-1.33-.58-1.34-1.32,0,0,0,0,0-.01h.01ZM320.18,258.75c0-.73.59-1.33,1.32-1.33.73,0,1.33.59,1.33,1.32,0,.73-.59,1.33-1.32,1.33,0,0,0,0-.01,0-.73,0-1.33-.59-1.33-1.33h.01ZM314.88,258.75c0-.73.59-1.33,1.33-1.33s1.33.59,1.33,1.33-.59,1.33-1.33,1.33c-.73,0-1.33-.58-1.34-1.32,0,0,0,0,0-.01h.01ZM298.95,258.75c0-.73.59-1.33,1.33-1.33s1.33.59,1.33,1.33-.59,1.33-1.33,1.33c-.73,0-1.33-.58-1.34-1.32,0,0,0,0,0-.01h.01ZM293.65,258.75c0-.73.59-1.33,1.32-1.33.73,0,1.33.59,1.33,1.32,0,.73-.59,1.33-1.32,1.33,0,0,0,0-.01,0-.73,0-1.33-.59-1.33-1.33h.01ZM357.32,256.09c0-.73.59-1.33,1.33-1.33s1.33.59,1.33,1.33-.59,1.33-1.33,1.33-1.33-.59-1.33-1.33ZM354.67,256.09c0-.73.59-1.33,1.33-1.33s1.33.59,1.33,1.33-.59,1.33-1.33,1.33-1.33-.59-1.33-1.33ZM352.02,256.09c0-.73.59-1.33,1.33-1.33s1.33.59,1.33,1.33-.59,1.33-1.33,1.33-1.33-.59-1.33-1.33ZM349.37,256.09c0-.73.59-1.33,1.33-1.33s1.33.59,1.33,1.33-.59,1.33-1.33,1.33c-.73,0-1.33-.59-1.33-1.32,0,0,0,0,0,0h0ZM344.06,256.09c0-.73.59-1.33,1.33-1.33s1.33.59,1.33,1.33-.59,1.33-1.33,1.33c-.73,0-1.33-.59-1.33-1.32h0s0,0,0,0ZM341.41,256.09c0-.73.59-1.33,1.33-1.33s1.33.59,1.33,1.33-.59,1.33-1.33,1.33c-.73,0-1.33-.59-1.33-1.32h0s0,0,0,0ZM328.14,256.09c0-.73.59-1.33,1.33-1.33s1.33.59,1.33,1.33-.59,1.33-1.33,1.33c-.73,0-1.33-.59-1.33-1.32h0s0,0,0,0ZM322.83,256.09c0-.73.6-1.33,1.33-1.32.73,0,1.33.6,1.32,1.33,0,.73-.6,1.33-1.33,1.32,0,0,0,0,0,0-.73,0-1.33-.6-1.32-1.33h0ZM309.56,256.09c0-.73.59-1.33,1.33-1.33s1.33.59,1.33,1.33-.59,1.33-1.33,1.33c-.73,0-1.33-.59-1.33-1.32h0s0,0,0,0ZM301.6,256.09c0-.73.59-1.33,1.33-1.33s1.33.59,1.33,1.33-.59,1.33-1.33,1.33c-.73,0-1.33-.59-1.33-1.32,0,0,0,0,0,0h0ZM293.64,256.09c0-.73.59-1.33,1.33-1.33s1.33.59,1.33,1.33-.59,1.33-1.33,1.33c-.73,0-1.33-.59-1.33-1.32,0,0,0,0,0,0h0ZM349.37,253.44c0-.73.59-1.33,1.33-1.33s1.33.59,1.33,1.33-.59,1.33-1.33,1.33c-.73,0-1.33-.59-1.33-1.32,0,0,0,0,0,0h0ZM341.41,253.44c0-.73.59-1.33,1.33-1.33s1.33.59,1.33,1.33-.59,1.33-1.33,1.33c-.73,0-1.33-.59-1.33-1.32h0s0,0,0,0ZM336.1,253.44c0-.73.59-1.33,1.33-1.33s1.33.59,1.33,1.33-.59,1.33-1.33,1.33c-.73,0-1.33-.59-1.33-1.32h0s0,0,0,0ZM325.49,253.44c0-.73.59-1.33,1.33-1.33s1.33.59,1.33,1.33-.59,1.33-1.33,1.33c-.73,0-1.33-.59-1.33-1.32h0s0,0,0,0ZM320.18,253.44c0-.73.59-1.33,1.33-1.33s1.33.59,1.33,1.33-.59,1.33-1.33,1.33c0,0,0,0,0,0-.73,0-1.33-.59-1.33-1.33h0ZM317.53,253.44c0-.73.59-1.33,1.33-1.33s1.33.59,1.33,1.33c0,.73-.59,1.33-1.33,1.33,0,0,0,0,0,0-.73,0-1.33-.59-1.33-1.32h0s0,0,0,0ZM309.57,253.44c0-.73.59-1.33,1.33-1.33s1.33.59,1.33,1.33-.59,1.33-1.33,1.33c-.73,0-1.33-.59-1.34-1.32h0s0,0,0,0ZM304.26,253.44c0-.73.59-1.33,1.33-1.33s1.33.59,1.33,1.33-.59,1.33-1.33,1.33c-.73,0-1.33-.59-1.34-1.32,0,0,0,0,0,0h0ZM298.95,253.44c0-.73.59-1.33,1.33-1.33s1.33.59,1.33,1.33-.59,1.33-1.33,1.33c-.73,0-1.33-.59-1.34-1.32,0,0,0,0,0,0h0ZM296.3,253.44c0-.73.59-1.33,1.33-1.33s1.33.59,1.33,1.33-.59,1.33-1.33,1.33c-.73,0-1.33-.58-1.34-1.32,0,0,0,0,0-.01h.01ZM293.65,253.44c0-.73.59-1.33,1.33-1.33s1.33.59,1.33,1.33c0,.73-.59,1.33-1.33,1.33-.73,0-1.33-.58-1.34-1.31,0,0,0,0,0-.01h.01ZM288.34,253.44c0-.73.59-1.33,1.33-1.33s1.33.59,1.33,1.33-.59,1.33-1.33,1.33c-.73,0-1.33-.58-1.34-1.31,0,0,0,0,0-.01h.01ZM285.69,253.44c0-.73.59-1.33,1.33-1.33s1.33.59,1.33,1.33-.59,1.33-1.33,1.33c-.73,0-1.33-.58-1.34-1.31,0,0,0,0,0-.01h.01ZM357.32,250.79c0-.73.59-1.33,1.33-1.33s1.33.59,1.33,1.33-.59,1.33-1.33,1.33-1.33-.59-1.33-1.33ZM354.67,250.79c0-.73.59-1.33,1.33-1.33s1.33.59,1.33,1.33-.59,1.33-1.33,1.33-1.33-.59-1.33-1.33ZM346.71,250.79c0-.73.59-1.33,1.33-1.33s1.33.59,1.33,1.33-.59,1.33-1.33,1.33h0c-.73,0-1.33-.59-1.33-1.33ZM341.4,250.79c0-.73.59-1.33,1.33-1.33s1.33.59,1.33,1.33-.59,1.33-1.33,1.33-1.33-.59-1.33-1.33ZM325.48,250.79c0-.73.59-1.33,1.33-1.33s1.33.59,1.33,1.33-.59,1.33-1.33,1.33-1.33-.59-1.33-1.33ZM322.83,250.79c0-.73.59-1.33,1.32-1.33.73,0,1.33.59,1.33,1.32,0,.73-.59,1.33-1.32,1.33h0c-.73,0-1.32-.59-1.32-1.32h0ZM317.52,250.79c0-.73.59-1.33,1.32-1.33.73,0,1.33.59,1.33,1.32,0,.73-.59,1.33-1.32,1.33h0c-.73,0-1.33-.59-1.33-1.32h0ZM314.87,250.79c0-.73.59-1.33,1.33-1.33s1.33.59,1.33,1.33-.59,1.33-1.33,1.33c-.73,0-1.33-.59-1.33-1.32h0s0,0,0,0ZM309.56,250.79c0-.73.59-1.33,1.33-1.33s1.33.59,1.33,1.33-.59,1.33-1.33,1.33c-.73,0-1.33-.59-1.33-1.32h0s0,0,0,0ZM301.6,250.79c0-.73.59-1.33,1.33-1.33s1.33.59,1.33,1.33-.59,1.33-1.33,1.33c-.73,0-1.33-.59-1.33-1.32,0,0,0,0,0,0h0ZM293.64,250.79c0-.73.59-1.33,1.33-1.33s1.33.59,1.33,1.33-.59,1.33-1.33,1.33c-.73,0-1.33-.59-1.33-1.32,0,0,0,0,0,0h0ZM290.99,250.79c0-.73.59-1.33,1.33-1.33s1.33.59,1.33,1.33-.59,1.33-1.33,1.33c-.73,0-1.33-.59-1.34-1.32h0s0,0,0,0ZM288.34,250.79c0-.73.59-1.33,1.33-1.33s1.33.59,1.33,1.33c0,.73-.59,1.33-1.33,1.33-.73,0-1.33-.59-1.34-1.32,0,0,0,0,0,0h0ZM285.69,250.79c0-.73.59-1.33,1.33-1.33s1.33.59,1.33,1.33-.59,1.33-1.33,1.33c-.73,0-1.33-.59-1.34-1.32,0,0,0,0,0,0h0ZM357.32,248.13c0-.73.59-1.33,1.33-1.33s1.33.59,1.33,1.33-.59,1.33-1.33,1.33-1.33-.59-1.33-1.33ZM354.67,248.13c0-.73.59-1.33,1.33-1.33s1.33.59,1.33,1.33-.59,1.33-1.33,1.33-1.33-.59-1.33-1.33ZM352.02,248.13c0-.73.59-1.33,1.33-1.33s1.33.59,1.33,1.33-.59,1.33-1.33,1.33-1.33-.59-1.33-1.33ZM349.37,248.13c0-.73.59-1.33,1.33-1.33s1.33.59,1.33,1.33-.59,1.33-1.33,1.33c-.73,0-1.33-.59-1.33-1.32,0,0,0,0,0,0h0ZM346.72,248.13c0-.73.59-1.33,1.33-1.33s1.33.59,1.33,1.33-.59,1.33-1.33,1.33c-.73,0-1.33-.59-1.33-1.32,0,0,0,0,0,0h0ZM341.41,248.13c0-.73.59-1.33,1.33-1.33s1.33.59,1.33,1.33-.59,1.33-1.33,1.33c-.73,0-1.33-.59-1.33-1.32h0s0,0,0,0ZM333.45,248.13c0-.73.59-1.33,1.33-1.33s1.33.59,1.33,1.33-.59,1.33-1.33,1.33h0c-.73,0-1.33-.59-1.33-1.32,0,0,0,0,0,0h0ZM328.14,248.13c0-.73.59-1.33,1.33-1.33s1.33.59,1.33,1.33-.59,1.33-1.33,1.33c-.73,0-1.33-.59-1.33-1.32h0s0,0,0,0ZM306.91,248.13c0-.73.59-1.33,1.33-1.33s1.33.59,1.33,1.33-.59,1.33-1.33,1.33c-.73,0-1.33-.59-1.33-1.32,0,0,0,0,0,0h0ZM304.26,248.13c0-.73.59-1.33,1.33-1.33s1.33.59,1.33,1.33-.59,1.33-1.33,1.33c-.73,0-1.33-.59-1.34-1.32,0,0,0,0,0,0h0ZM298.95,248.13c0-.73.59-1.33,1.33-1.33s1.33.59,1.33,1.33-.59,1.33-1.33,1.33c-.73,0-1.33-.59-1.34-1.32,0,0,0,0,0,0h0ZM296.3,248.13c0-.73.59-1.33,1.33-1.33s1.33.59,1.33,1.33-.59,1.33-1.33,1.33c-.73,0-1.33-.58-1.34-1.32,0,0,0,0,0-.01h.01ZM288.34,248.13c0-.73.59-1.33,1.33-1.33s1.33.59,1.33,1.33-.59,1.33-1.33,1.33c-.73,0-1.33-.58-1.34-1.32,0,0,0,0,0-.01h.01ZM285.69,248.13c0-.73.59-1.33,1.33-1.33s1.33.59,1.33,1.33-.59,1.33-1.33,1.33c-.73,0-1.33-.58-1.34-1.32,0,0,0,0,0-.01h.01ZM349.38,245.48c0-.73.59-1.33,1.33-1.33s1.33.59,1.33,1.33-.59,1.33-1.33,1.33c-.73,0-1.33-.58-1.34-1.31,0,0,0-.01,0-.02h.02ZM346.73,245.48c0-.73.59-1.33,1.33-1.33s1.33.59,1.33,1.33-.59,1.33-1.33,1.33c-.73,0-1.33-.58-1.34-1.31,0,0,0-.01,0-.02h.02ZM344.08,245.48c0-.73.59-1.33,1.33-1.33s1.33.59,1.33,1.33-.59,1.33-1.33,1.33c-.73.01-1.34-.57-1.35-1.31,0,0,0-.02,0-.02h.02ZM338.77,245.48c0-.73.59-1.33,1.33-1.33s1.33.59,1.33,1.33-.59,1.33-1.33,1.33c-.73.01-1.34-.57-1.35-1.31,0,0,0-.02,0-.02h.02ZM333.46,245.48c0-.73.59-1.33,1.32-1.33.73,0,1.33.59,1.33,1.32,0,.73-.59,1.33-1.32,1.33,0,0-.01,0-.02,0-.73,0-1.33-.59-1.33-1.33h.02ZM330.81,245.48c0-.73.59-1.33,1.33-1.33s1.33.59,1.33,1.33-.59,1.33-1.33,1.33c-.73.01-1.34-.57-1.35-1.3,0,0,0-.02,0-.03h.02ZM328.16,245.48c0-.73.59-1.33,1.33-1.33s1.33.59,1.33,1.33-.59,1.33-1.33,1.33c-.73.01-1.34-.57-1.35-1.3,0,0,0-.02,0-.03h.02ZM322.85,245.48c0-.73.59-1.33,1.32-1.33.73,0,1.33.59,1.33,1.32,0,.73-.59,1.33-1.32,1.33,0,0-.02,0-.03,0-.73,0-1.32-.59-1.32-1.33h.02ZM320.2,245.48c0-.73.59-1.33,1.32-1.33.73,0,1.33.59,1.33,1.32,0,.73-.59,1.33-1.32,1.33,0,0-.02,0-.03,0-.73,0-1.33-.59-1.33-1.33h.03ZM317.55,245.48c0-.73.59-1.33,1.32-1.33.73,0,1.33.59,1.33,1.32,0,.73-.59,1.33-1.32,1.33,0,0-.02,0-.03,0-.73,0-1.33-.59-1.33-1.32h0s.03,0,.03,0ZM306.93,245.48c0-.73.59-1.33,1.32-1.33.73,0,1.33.59,1.33,1.32,0,.73-.59,1.33-1.32,1.33-.01,0-.02,0-.03,0-.73,0-1.33-.59-1.33-1.33h.03ZM304.28,245.48c0-.73.59-1.33,1.33-1.33s1.33.59,1.33,1.33-.59,1.33-1.33,1.33c-.73.02-1.34-.56-1.36-1.29,0-.01,0-.02,0-.03h.03ZM293.67,245.48c0-.73.59-1.33,1.32-1.33s1.33.59,1.33,1.32c0,.73-.59,1.33-1.33,1.33-.01,0-.02,0-.03,0-.73,0-1.33-.59-1.33-1.33h.03ZM288.36,245.48c0-.73.59-1.33,1.33-1.33s1.33.59,1.33,1.33-.59,1.33-1.33,1.33c-.73.02-1.34-.56-1.36-1.29,0-.01,0-.02,0-.03h.03ZM285.71,245.48c0-.73.59-1.33,1.33-1.33s1.33.59,1.33,1.33-.59,1.33-1.33,1.33c-.73.02-1.34-.56-1.36-1.29,0-.01,0-.02,0-.03h.03ZM283.06,245.48c0-.73.59-1.33,1.33-1.33.73,0,1.33.59,1.33,1.33,0,.73-.59,1.33-1.33,1.33-.01,0-.03,0-.04,0-.73,0-1.33-.59-1.33-1.33h.04ZM357.32,242.82c0-.73.59-1.33,1.33-1.33s1.33.59,1.33,1.33-.59,1.33-1.33,1.33-1.33-.59-1.33-1.33ZM354.67,242.82c0-.73.59-1.33,1.33-1.33s1.33.59,1.33,1.33-.59,1.33-1.33,1.33-1.33-.59-1.33-1.33ZM349.36,242.82c0-.73.59-1.33,1.33-1.33s1.33.59,1.33,1.33-.59,1.33-1.33,1.33-1.33-.59-1.33-1.33h0ZM346.71,242.82c0-.73.59-1.33,1.33-1.33s1.33.59,1.33,1.33-.59,1.33-1.33,1.33c-.73,0-1.33-.59-1.33-1.32h0s0,0,0,0ZM344.06,242.82c0-.73.59-1.33,1.33-1.33s1.33.59,1.33,1.33-.59,1.33-1.33,1.33c-.73,0-1.33-.59-1.33-1.32h0s0,0,0,0ZM341.41,242.82c0-.73.59-1.33,1.33-1.33s1.33.59,1.33,1.33-.59,1.33-1.33,1.33c-.73,0-1.33-.59-1.33-1.32h0s0,0,0,0ZM338.76,242.82c0-.73.59-1.33,1.33-1.33s1.33.59,1.33,1.33-.59,1.33-1.33,1.33c-.73,0-1.33-.59-1.34-1.32,0,0,0,0,0,0h0ZM328.14,242.82c0-.73.59-1.33,1.33-1.33s1.33.59,1.33,1.33-.59,1.33-1.33,1.33c-.73,0-1.33-.59-1.34-1.32,0,0,0,0,0,0h0ZM325.49,242.82c0-.73.59-1.33,1.33-1.33s1.33.59,1.33,1.33-.59,1.33-1.33,1.33c-.73,0-1.33-.58-1.34-1.32,0,0,0,0,0-.01h.01ZM306.92,242.82c0-.73.59-1.33,1.33-1.33s1.33.59,1.33,1.33c0,.73-.59,1.33-1.33,1.33-.73,0-1.33-.58-1.34-1.32,0,0,0,0,0-.01h.01ZM301.61,242.82c0-.73.59-1.33,1.33-1.33s1.33.59,1.33,1.33-.59,1.33-1.33,1.33c-.73,0-1.33-.58-1.34-1.32,0,0,0,0,0-.01h.01ZM298.96,242.82c0-.73.59-1.33,1.33-1.33s1.33.59,1.33,1.33-.59,1.33-1.33,1.33c-.73,0-1.33-.58-1.34-1.31,0,0,0,0,0-.01h.01ZM293.65,242.82c0-.73.59-1.33,1.33-1.33s1.33.59,1.33,1.33-.59,1.33-1.33,1.33c-.73,0-1.33-.58-1.34-1.31,0,0,0,0,0-.01h.01ZM291,242.82c0-.73.59-1.33,1.33-1.33s1.33.59,1.33,1.33-.59,1.33-1.33,1.33c-.73,0-1.33-.58-1.34-1.31,0,0,0-.01,0-.02h.02ZM288.35,242.82c0-.73.59-1.33,1.33-1.33s1.33.59,1.33,1.33-.59,1.33-1.33,1.33c-.73,0-1.33-.58-1.34-1.31,0,0,0-.01,0-.02h.02ZM357.32,240.17c0-.73.59-1.33,1.33-1.33s1.33.59,1.33,1.33-.59,1.33-1.33,1.33c-.73,0-1.33-.59-1.33-1.33ZM349.36,240.17c0-.73.59-1.33,1.33-1.33s1.33.59,1.33,1.33-.59,1.33-1.33,1.33c-.73,0-1.32-.59-1.32-1.33h0ZM344.05,240.17c0-.73.59-1.33,1.33-1.33s1.33.59,1.33,1.33-.59,1.33-1.33,1.33c-.73,0-1.32-.59-1.32-1.33h0ZM336.09,240.17c0-.73.59-1.33,1.33-1.33s1.33.59,1.33,1.33-.59,1.33-1.33,1.33c-.73,0-1.32-.59-1.32-1.33h0ZM333.44,240.17c0-.73.59-1.33,1.33-1.33s1.33.59,1.33,1.33-.59,1.33-1.33,1.33c-.73,0-1.33-.59-1.33-1.33h0ZM330.79,240.17c0-.73.59-1.33,1.33-1.33s1.33.59,1.33,1.33-.59,1.33-1.33,1.33c-.73,0-1.33-.59-1.33-1.32h0s0,0,0,0ZM325.48,240.17c0-.73.59-1.33,1.33-1.33s1.33.59,1.33,1.33-.59,1.33-1.33,1.33c-.73,0-1.33-.59-1.33-1.32h0s0,0,0,0ZM317.52,240.17c0-.73.59-1.33,1.33-1.33s1.33.59,1.33,1.33-.59,1.33-1.33,1.33c-.73,0-1.33-.59-1.33-1.32h0s0,0,0,0ZM314.87,240.17c0-.73.59-1.33,1.33-1.33s1.33.59,1.33,1.33-.59,1.33-1.33,1.33c-.73,0-1.33-.59-1.33-1.32h0s0,0,0,0ZM304.26,240.17c0-.73.59-1.33,1.33-1.33s1.33.59,1.33,1.33-.59,1.33-1.33,1.33c-.73,0-1.33-.59-1.33-1.32h0s0,0,0,0ZM296.29,240.17c0-.73.59-1.33,1.33-1.33s1.33.59,1.33,1.33c0,.73-.59,1.33-1.33,1.33-.73,0-1.33-.59-1.33-1.32h0s0,0,0,0ZM290.99,240.17c0-.73.59-1.33,1.33-1.33s1.33.59,1.33,1.33-.59,1.33-1.33,1.33c-.73,0-1.33-.59-1.33-1.32h0s0,0,0,0ZM285.68,240.17c0-.73.59-1.33,1.33-1.33s1.33.59,1.33,1.33-.59,1.33-1.33,1.33-1.33-.59-1.33-1.33ZM283.03,240.17c0-.73.59-1.33,1.33-1.33s1.33.59,1.33,1.33-.59,1.33-1.33,1.33c-.73,0-1.33-.59-1.33-1.32h0s0,0,0,0ZM354.68,237.52c0-.73.59-1.33,1.33-1.33s1.33.59,1.33,1.33-.59,1.33-1.33,1.33c-.73,0-1.33-.59-1.33-1.32,0,0,0,0,0,0h0ZM352.02,237.52c0-.73.59-1.33,1.33-1.33s1.33.59,1.33,1.33-.59,1.33-1.33,1.33c-.73,0-1.33-.59-1.33-1.32h0s0,0,0,0ZM349.37,237.52c0-.73.59-1.33,1.33-1.33s1.33.59,1.33,1.33-.59,1.33-1.33,1.33c-.73,0-1.33-.59-1.34-1.32,0,0,0,0,0-.01h0ZM346.72,237.52c0-.73.59-1.33,1.33-1.33s1.33.59,1.33,1.33-.59,1.33-1.33,1.33c-.73,0-1.33-.58-1.34-1.32,0,0,0,0,0-.01h.01ZM344.07,237.52c0-.73.59-1.33,1.33-1.33s1.33.59,1.33,1.33-.59,1.33-1.33,1.33c-.73,0-1.33-.58-1.34-1.31,0,0,0-.01,0-.02h.01ZM341.42,237.52c0-.73.59-1.33,1.33-1.33s1.33.59,1.33,1.33-.59,1.33-1.33,1.33c-.73,0-1.33-.58-1.34-1.31,0,0,0-.01,0-.02h.02ZM338.77,237.52c0-.73.59-1.33,1.33-1.33s1.33.59,1.33,1.33-.59,1.33-1.33,1.33c-.73,0-1.33-.58-1.34-1.31,0,0,0-.01,0-.02h.02ZM333.46,237.52c0-.73.59-1.33,1.33-1.33s1.33.59,1.33,1.33-.59,1.33-1.33,1.33c-.73,0-1.33-.58-1.34-1.31,0,0,0-.01,0-.02h.02ZM328.15,237.52c0-.73.59-1.33,1.33-1.33s1.33.59,1.33,1.33-.59,1.33-1.33,1.33c-.73,0-1.33-.58-1.34-1.31,0,0,0-.01,0-.02h.02ZM320.19,237.52c0-.73.59-1.33,1.32-1.33.73,0,1.33.59,1.33,1.32,0,.73-.59,1.33-1.32,1.33,0,0-.01,0-.02,0-.73,0-1.33-.59-1.33-1.33h.02ZM317.54,237.52c0-.73.59-1.33,1.32-1.33.73,0,1.33.59,1.33,1.32,0,.73-.59,1.33-1.32,1.33,0,0-.01,0-.02,0-.73,0-1.33-.59-1.33-1.32h0s.02,0,.02,0ZM312.23,237.52c0-.73.59-1.33,1.33-1.33s1.33.59,1.33,1.33-.59,1.33-1.33,1.33c-.73.01-1.34-.57-1.35-1.31,0,0,0-.02,0-.02h.02ZM309.58,237.52c0-.73.59-1.33,1.33-1.33s1.33.59,1.33,1.33-.59,1.33-1.33,1.33c-.73.01-1.34-.57-1.35-1.3,0,0,0-.02,0-.03h.02ZM306.93,237.52c0-.73.59-1.33,1.33-1.33s1.33.59,1.33,1.33-.59,1.33-1.33,1.33c-.73.01-1.34-.57-1.35-1.3,0,0,0-.02,0-.03h.02ZM298.97,237.52c0-.73.59-1.33,1.33-1.33s1.33.59,1.33,1.33-.59,1.33-1.33,1.33c-.73.01-1.34-.57-1.35-1.3,0,0,0-.02,0-.03h.02ZM296.32,237.52c0-.73.59-1.33,1.33-1.33s1.33.59,1.33,1.33-.59,1.33-1.33,1.33c-.73.01-1.34-.57-1.35-1.3,0,0,0-.02,0-.03h.03ZM293.67,237.52c0-.73.59-1.33,1.33-1.33s1.33.59,1.33,1.33-.59,1.33-1.33,1.33c-.73.02-1.34-.56-1.36-1.3,0-.01,0-.02,0-.03h.03ZM283.05,237.52c0-.73.59-1.33,1.33-1.33s1.33.59,1.33,1.33-.59,1.33-1.33,1.33c-.73.02-1.34-.56-1.36-1.3,0-.01,0-.02,0-.03h.03ZM336.12,234.87c0-.73.59-1.33,1.33-1.33.73,0,1.33.59,1.33,1.33s-.59,1.33-1.33,1.33c-.73.02-1.34-.56-1.36-1.3,0-.01,0-.02,0-.03h.03ZM328.16,234.87c0-.73.59-1.33,1.33-1.33.73,0,1.33.59,1.33,1.33s-.59,1.33-1.33,1.33c-.73.02-1.34-.56-1.36-1.3,0-.01,0-.02,0-.03h.03ZM322.86,234.87c0-.73.59-1.33,1.32-1.33.73,0,1.33.59,1.33,1.32,0,.73-.59,1.33-1.32,1.33-.01,0-.02,0-.04,0-.73,0-1.32-.59-1.32-1.33h.03ZM317.55,234.87c0-.73.59-1.33,1.32-1.33s1.33.59,1.33,1.32c0,.73-.59,1.33-1.32,1.33-.01,0-.02,0-.03,0-.73,0-1.33-.59-1.33-1.32h0s.03,0,.03,0ZM314.9,234.87c0-.73.59-1.33,1.33-1.33.73,0,1.33.59,1.33,1.33s-.59,1.33-1.33,1.33c-.73.02-1.34-.56-1.36-1.29,0-.01,0-.02,0-.04h.03ZM309.59,234.87c0-.73.59-1.33,1.33-1.33.73,0,1.33.59,1.33,1.33s-.59,1.33-1.33,1.33c-.73.02-1.34-.56-1.36-1.29,0-.01,0-.02,0-.04h.03ZM304.28,234.87c0-.73.59-1.33,1.33-1.33.73,0,1.33.59,1.33,1.33s-.59,1.33-1.33,1.33c-.73.02-1.34-.56-1.36-1.29,0-.01,0-.02,0-.04h.03ZM336.13,232.21c0-.73.59-1.33,1.33-1.33s1.33.59,1.33,1.33-.59,1.33-1.33,1.33c-.73.02-1.34-.56-1.36-1.29,0-.01,0-.03,0-.04h.03ZM330.82,232.21c0-.73.59-1.33,1.33-1.33s1.33.59,1.33,1.33-.59,1.33-1.33,1.33c-.73.02-1.34-.56-1.36-1.29,0-.01,0-.03,0-.04h.03ZM325.51,232.21c0-.73.59-1.33,1.33-1.33s1.33.59,1.33,1.33-.59,1.33-1.33,1.33c-.73.02-1.34-.56-1.36-1.29,0-.01,0-.03,0-.04h.03ZM320.2,232.21c0-.73.59-1.33,1.32-1.33.73,0,1.33.59,1.33,1.32,0,.73-.59,1.33-1.32,1.33-.01,0-.03,0-.04,0-.73,0-1.33-.59-1.33-1.33h.03ZM314.9,232.21c0-.73.59-1.33,1.33-1.33s1.33.59,1.33,1.33-.59,1.33-1.33,1.33c-.73.02-1.34-.56-1.36-1.29,0-.01,0-.03,0-.04h.03ZM309.59,232.21c0-.73.59-1.33,1.33-1.33s1.33.59,1.33,1.33-.59,1.33-1.33,1.33c-.73.02-1.34-.56-1.36-1.29,0-.01,0-.03,0-.04h.03ZM304.28,232.21c0-.73.59-1.33,1.33-1.33s1.33.59,1.33,1.33-.59,1.33-1.33,1.33c-.73.02-1.34-.56-1.36-1.29,0-.01,0-.03,0-.04h.03ZM336.13,229.56c0-.73.59-1.33,1.33-1.33s1.33.59,1.33,1.33-.59,1.33-1.33,1.33c-.73.02-1.34-.56-1.36-1.29,0-.01,0-.03,0-.04h.03ZM333.48,229.56c0-.73.59-1.33,1.33-1.33s1.33.59,1.33,1.33-.59,1.33-1.33,1.33c-.73.02-1.34-.56-1.36-1.29,0-.01,0-.03,0-.04h.03ZM328.17,229.56c0-.73.59-1.33,1.33-1.33s1.33.59,1.33,1.33-.59,1.33-1.33,1.33c-.73.02-1.34-.56-1.36-1.29,0-.01,0-.03,0-.04h.03ZM320.21,229.56c0-.73.59-1.33,1.32-1.34.73,0,1.33.59,1.34,1.32,0,.73-.59,1.33-1.32,1.34-.01,0-.03,0-.04,0-.73,0-1.33-.59-1.33-1.33h.03ZM317.56,229.56c0-.73.59-1.33,1.32-1.34s1.33.59,1.34,1.32c0,.73-.59,1.33-1.32,1.34-.01,0-.03,0-.04,0-.73,0-1.33-.59-1.33-1.32h0s.04,0,.04,0ZM306.94,229.56c0-.73.59-1.33,1.33-1.33s1.33.59,1.33,1.33-.59,1.33-1.33,1.33c-.73.02-1.34-.56-1.36-1.29,0-.02,0-.03,0-.05h.04ZM304.29,229.56c0-.73.59-1.33,1.33-1.33s1.33.59,1.33,1.33-.59,1.33-1.33,1.33c-.73.02-1.34-.56-1.36-1.29,0-.02,0-.03,0-.05h.04ZM336.13,226.91c0-.73.59-1.33,1.33-1.33s1.33.59,1.33,1.33-.59,1.33-1.33,1.33c-.73.02-1.34-.56-1.36-1.29,0-.02,0-.03,0-.05h.04ZM333.48,226.91c0-.73.59-1.33,1.33-1.33s1.33.59,1.33,1.33-.59,1.33-1.33,1.33c-.73.02-1.34-.55-1.37-1.29,0-.02,0-.04,0-.05h.04ZM325.52,226.91c0-.73.59-1.33,1.33-1.33s1.33.59,1.33,1.33-.59,1.33-1.33,1.33c-.73.02-1.34-.55-1.37-1.29,0-.02,0-.04,0-.05h.04ZM322.87,226.91c0-.73.58-1.33,1.32-1.34s1.33.58,1.34,1.32c0,.73-.58,1.33-1.32,1.34-.02,0-.04,0-.06,0-.73,0-1.32-.59-1.32-1.33h.04ZM317.56,226.91c0-.73.58-1.33,1.32-1.34s1.33.58,1.34,1.32c0,.73-.58,1.33-1.32,1.34-.02,0-.03,0-.05,0-.73,0-1.33-.59-1.33-1.32h0s.04,0,.04,0ZM309.6,226.91c0-.73.59-1.33,1.33-1.33s1.33.59,1.33,1.33-.59,1.33-1.33,1.33c-.73.02-1.35-.55-1.37-1.28,0-.02,0-.04,0-.05h.04ZM306.95,226.91c0-.73.59-1.33,1.33-1.33s1.33.59,1.33,1.33-.59,1.33-1.33,1.33c-.73.02-1.35-.55-1.37-1.28,0-.02,0-.04,0-.06h.05ZM304.3,226.91c0-.73.59-1.33,1.33-1.33s1.33.59,1.33,1.33-.59,1.33-1.33,1.33c-.73.03-1.35-.55-1.37-1.28,0-.02,0-.04,0-.06h.05ZM333.49,224.26c0-.73.59-1.33,1.33-1.33s1.33.59,1.33,1.33-.59,1.33-1.33,1.33c-.73.03-1.35-.55-1.37-1.28,0-.02,0-.04,0-.06h.05ZM325.53,224.26c0-.73.59-1.33,1.33-1.33s1.33.59,1.33,1.33-.59,1.33-1.33,1.33c-.73.03-1.35-.55-1.37-1.28,0-.02,0-.04,0-.06h.05ZM320.22,224.26c0-.73.58-1.33,1.31-1.34.73,0,1.33.58,1.34,1.31,0,.73-.58,1.33-1.31,1.34-.02,0-.04,0-.06,0-.73,0-1.33-.59-1.33-1.33h.05ZM317.57,224.26c0-.73.58-1.33,1.31-1.34.73,0,1.33.58,1.34,1.31,0,.73-.58,1.33-1.31,1.34-.02,0-.04,0-.06,0-.73,0-1.33-.59-1.33-1.32h0s.05.01.05.01ZM314.92,224.26c0-.73.59-1.33,1.33-1.33s1.33.59,1.33,1.33-.59,1.33-1.33,1.33c-.73.03-1.35-.54-1.38-1.27,0-.02,0-.04,0-.07h.05ZM312.27,224.26c0-.73.59-1.33,1.33-1.33s1.33.59,1.33,1.33-.59,1.33-1.33,1.33c-.73.03-1.35-.54-1.38-1.27,0-.02,0-.05,0-.07h.05ZM306.96,224.26c0-.73.59-1.33,1.33-1.33s1.33.59,1.33,1.33-.59,1.33-1.33,1.33c-.73.03-1.35-.54-1.38-1.27,0-.02,0-.05,0-.07h.05ZM304.31,224.26c0-.73.59-1.33,1.33-1.33s1.33.59,1.33,1.33-.59,1.33-1.33,1.33c-.73.03-1.35-.54-1.38-1.27,0-.02,0-.05,0-.07h.06ZM333.5,221.61c0-.73.58-1.33,1.31-1.34.73,0,1.33.58,1.34,1.31,0,.73-.58,1.33-1.31,1.34-.02,0-.05,0-.07,0-.73,0-1.33-.59-1.33-1.32l.06.02ZM325.54,221.61c0-.73.58-1.33,1.31-1.34.73,0,1.33.58,1.34,1.31,0,.73-.58,1.33-1.31,1.34-.02,0-.05,0-.07,0-.73,0-1.33-.59-1.33-1.32l.06.02ZM322.89,221.61c0-.73.58-1.33,1.31-1.34s1.33.58,1.34,1.31c0,.73-.58,1.33-1.31,1.34-.03,0-.05,0-.08,0-.73,0-1.32-.59-1.32-1.32l.06.02ZM317.58,221.61c0-.73.58-1.33,1.31-1.34.73,0,1.33.58,1.34,1.31,0,.73-.58,1.33-1.31,1.34-.02,0-.05,0-.07,0-.73,0-1.33-.59-1.33-1.32l.06.02ZM309.62,221.61c0-.73.58-1.33,1.31-1.34s1.33.58,1.34,1.31c0,.73-.58,1.33-1.31,1.34-.03,0-.05,0-.08,0-.73,0-1.33-.59-1.33-1.32l.06.02ZM304.31,221.61c0-.73.58-1.33,1.31-1.34.73,0,1.33.58,1.34,1.31,0,.73-.58,1.33-1.31,1.34-.03,0-.05,0-.08,0-.73,0-1.33-.59-1.33-1.32l.06.02ZM328.19,218.96c0-.73.58-1.33,1.31-1.34.73,0,1.33.58,1.34,1.31,0,.73-.58,1.33-1.31,1.34-.03,0-.05,0-.08,0-.73,0-1.33-.59-1.33-1.33l.06.02ZM325.54,218.96c0-.73.58-1.33,1.31-1.34s1.33.58,1.34,1.31c0,.73-.58,1.33-1.31,1.34-.03,0-.05,0-.08,0-.73,0-1.33-.59-1.33-1.33l.06.02ZM320.23,218.96c0-.73.58-1.33,1.31-1.34s1.33.58,1.34,1.31c0,.73-.58,1.33-1.31,1.34-.03,0-.05,0-.08,0-.73,0-1.33-.59-1.33-1.33l.06.02ZM317.58,218.96c0-.73.58-1.33,1.31-1.34.73,0,1.33.58,1.34,1.31,0,.73-.58,1.33-1.31,1.34-.03,0-.05,0-.08,0-.73,0-1.33-.59-1.33-1.32h0s.06.02.06.02ZM312.28,218.96c0-.73.58-1.33,1.31-1.34.73,0,1.33.58,1.34,1.31,0,.73-.58,1.33-1.31,1.34-.03,0-.05,0-.08,0-.73,0-1.33-.59-1.33-1.33l.06.02ZM306.97,218.96c0-.73.58-1.33,1.31-1.34.73,0,1.33.58,1.34,1.31,0,.73-.58,1.33-1.31,1.34-.03,0-.05,0-.08,0-.73,0-1.33-.59-1.33-1.33l.06.02ZM304.32,218.96c0-.73.58-1.33,1.31-1.34.73,0,1.33.58,1.34,1.31s-.58,1.33-1.31,1.34c-.03,0-.05,0-.08,0-.73,0-1.33-.59-1.33-1.33l.07.02ZM336.16,216.31c0-.73.58-1.33,1.31-1.34.73,0,1.33.58,1.34,1.31,0,.73-.58,1.33-1.31,1.34-.03,0-.05,0-.08,0-.73,0-1.33-.59-1.33-1.33h0s.07.02.07.02ZM333.51,216.31c0-.73.58-1.33,1.31-1.34s1.33.58,1.34,1.31c0,.73-.58,1.33-1.31,1.34-.03,0-.06,0-.08,0-.73,0-1.33-.59-1.33-1.33h0s.07.02.07.02ZM330.86,216.31c0-.73.58-1.33,1.31-1.34s1.33.58,1.34,1.31c0,.73-.58,1.33-1.31,1.34-.03,0-.06,0-.09,0-.73,0-1.33-.59-1.33-1.33h0s.07.02.07.02ZM328.21,216.31c0-.73.58-1.33,1.31-1.34.73,0,1.33.58,1.34,1.31s-.58,1.33-1.31,1.34c-.03,0-.06,0-.09,0-.73,0-1.33-.59-1.33-1.33h0s.07.02.07.02ZM325.56,216.31c0-.73.58-1.33,1.31-1.34s1.33.58,1.34,1.31-.58,1.33-1.31,1.34c-.03,0-.06,0-.09,0-.73,0-1.33-.59-1.33-1.33h0s.07.02.07.02ZM320.25,216.31c0-.73.58-1.33,1.31-1.34s1.33.58,1.34,1.31-.58,1.33-1.31,1.34c-.03,0-.06,0-.09,0-.73,0-1.33-.59-1.33-1.33h0s.07.02.07.02ZM317.6,216.31c0-.73.58-1.33,1.31-1.34s1.33.58,1.34,1.31-.58,1.33-1.31,1.34c-.03,0-.06,0-.09,0-.73,0-1.33-.59-1.33-1.32h0s.08.02.08.02ZM314.94,216.31c0-.73.58-1.33,1.31-1.34.73,0,1.33.58,1.34,1.31,0,.73-.58,1.33-1.31,1.34-.03,0-.06,0-.09,0-.73,0-1.33-.59-1.33-1.33h0s.08.02.08.02ZM309.64,216.31c0-.73.58-1.33,1.31-1.34.73,0,1.33.58,1.34,1.31s-.58,1.33-1.31,1.34c-.03,0-.06,0-.09,0-.73,0-1.33-.59-1.33-1.33,0,0,0,0,0,0l.08.02ZM306.99,216.31c0-.73.58-1.33,1.31-1.34.73,0,1.33.58,1.34,1.31,0,.73-.58,1.33-1.31,1.34-.03,0-.06,0-.1,0-.73,0-1.33-.59-1.33-1.33h0s.08.02.08.02Z"/>
    </clipPath>
    <clipPath id="clippath-12">
      <path class="cls-1" d="M292.31,214.96c-5.13,0-9.29,4.17-9.28,9.3,0,5.13,4.17,9.29,9.3,9.28,5.13,0,9.29-4.17,9.28-9.3,0-5.12-4.16-9.28-9.28-9.28h-.02ZM292.31,217.61c3.66,0,6.63,2.98,6.63,6.64,0,3.66-2.98,6.63-6.64,6.63s-6.63-2.98-6.63-6.64c0-3.66,2.97-6.62,6.63-6.63h.02Z"/>
    </clipPath>
    <clipPath id="clippath-13">
      <circle class="cls-1" cx="292.31" cy="224.25" r="3.98" transform="translate(-72.95 272.37) rotate(-45)"/>
    </clipPath>
    <clipPath id="clippath-14">
      <path class="cls-1" d="M359.98,224.25c0-5.13-4.17-9.28-9.3-9.28-5.13,0-9.28,4.17-9.28,9.3,0,5.13,4.17,9.28,9.3,9.28,5.12,0,9.28-4.16,9.28-9.28v-.02ZM357.33,224.25c0,3.66-2.98,6.63-6.64,6.63s-6.63-2.98-6.63-6.64c0-3.66,2.98-6.63,6.64-6.63,3.66,0,6.62,2.97,6.63,6.63v.02Z"/>
    </clipPath>
    <clipPath id="clippath-15">
      <circle class="cls-1" cx="350.69" cy="224.25" r="3.98" transform="translate(-55.85 313.66) rotate(-45)"/>
    </clipPath>
    <clipPath id="clippath-16">
      <path class="cls-1" d="M283.02,282.63c0,5.13,4.17,9.28,9.3,9.28,5.13,0,9.28-4.17,9.28-9.3,0-5.13-4.17-9.28-9.3-9.28-5.12,0-9.28,4.16-9.28,9.28v.02ZM285.67,282.63c0-3.67,2.98-6.63,6.65-6.63s6.63,2.98,6.63,6.65-2.98,6.63-6.65,6.63c-3.66,0-6.63-2.97-6.63-6.63v-.02Z"/>
    </clipPath>
    <clipPath id="clippath-17">
      <circle class="cls-1" cx="292.31" cy="282.63" r="3.98" transform="translate(-114.23 289.47) rotate(-45)"/>
    </clipPath>
  </defs>
  <g id="Capa_1-2" data-name="Capa 1">
    <path class="cls-14" d="M0,0h787v453.88H0V0Z"/>
    <text class="cls-9" transform="translate(478.71 161.05)"><tspan x="0" y="0">Para realizar Justificativos de</tspan></text>
    <text class="cls-9" transform="translate(486.63 177.05)"><tspan x="0" y="0">inasistencia a evaluaciones</tspan></text>
    <text class="cls-9" transform="translate(499.55 193.05)"><tspan x="0" y="0">o prcticas, escanea el</tspan></text>
    <text class="cls-9" transform="translate(492.54 209.05)"><tspan x="0" y="0">cdigo QR en tu celular e</tspan></text>
    <text class="cls-9" transform="translate(485.38 225.05)"><tspan x="0" y="0">ingresa al sitio web DELFY</tspan></text>
    <text class="cls-8" transform="translate(481.54 257.05)"><tspan x="0" y="0">Inicia sesin para acceder</tspan></text>
    <text class="cls-8" transform="translate(485.13 273.05)"><tspan x="0" y="0">a la plataforma y recuerda</tspan></text>
    <text class="cls-8" transform="translate(486.54 289.05)"><tspan x="0" y="0">que el plazo mximo para</tspan></text>
    <text class="cls-8" transform="translate(492.21 305.05)"><tspan x="0" y="0">realizar este proceso es</tspan></text>
    <text class="cls-8" transform="translate(483.71 321.05)"><tspan x="0" y="0">hasta 7 das despus de la</tspan></text>
    <text class="cls-8" transform="translate(527.14 337.05)"><tspan x="0" y="0">inasistencia</tspan></text>
    <text class="cls-9" transform="translate(602.99 337.05)"><tspan x="0" y="0"></tspan></text>
    <text class="cls-12" transform="translate(55.25 417.05)"><tspan x="0" y="0">Sitio</tspan></text>
    <text class="cls-12" transform="translate(84.59 417.05)"><tspan x="0" y="0">Delfy</tspan></text>
    <text class="cls-3" transform="translate(117.27 417.05)"><tspan x="0" y="0">de la Facultad de Educacin UC / En caso de no poder acceder a esta plataforma enva correo a</tspan></text>
    <text class="cls-12" transform="translate(642.07 417.05)"><tspan x="0" y="0">soporte@delf</tspan><tspan class="cls-31" x="77.02" y="0">y</tspan><tspan x="82.8" y="0">.cl</tspan></text>
    <text class="cls-13" transform="translate(40.02 54.05)"><tspan x="0" y="0">Informacin Carreras Pedagogas UC</tspan></text>
    <path class="cls-5" d="M119,316.74l8.41-7.82,8.59,8-17-.17Z"/>
    <text class="cls-11" transform="translate(74.43 160.05)"><tspan x="0" y="0">Justificativo de</tspan></text>
    <text class="cls-11" transform="translate(79.68 177.05)"><tspan x="0" y="0">inasistencia a</tspan></text>
    <text class="cls-11" transform="translate(81.6 195.05)"><tspan x="0" y="0">evaluaciones</tspan></text>
    <path class="cls-2" d="M48.5,140.75c0-6.79,5.5-12.29,12.29-12.29h134.42c6.79,0,12.29,5.5,12.29,12.29v202.37c0,6.79-5.5,12.29-12.29,12.29H60.79c-6.79,0-12.29-5.5-12.29-12.29v-202.37Z"/>
    <text class="cls-4" transform="translate(91.95 332.05)"><tspan x="0" y="0">ESCANAME!</tspan></text>
    <rect class="cls-10" x="83" y="211.94" width="90" height="82.98"/>
    <text class="cls-7" transform="translate(111.27 376.05)"><tspan x="0" y="0">Ir a sitio</tspan></text>
    <path class="cls-5" d="M313,316.74l8.41-7.82,8.59,8-17-.17Z"/>
    <text class="cls-11" transform="translate(268.29 160.05)"><tspan x="0" y="0">Justificativo de</tspan></text>
    <text class="cls-11" transform="translate(273.54 177.05)"><tspan x="0" y="0">inasistencia a</tspan></text>
    <text class="cls-11" transform="translate(289.38 195.05)"><tspan x="0" y="0">prcticas</tspan></text>
    <path class="cls-2" d="M242.5,140.75c0-6.79,5.5-12.29,12.29-12.29h134.42c6.79,0,12.29,5.5,12.29,12.29v202.37c0,6.79-5.5,12.29-12.29,12.29h-134.42c-6.79,0-12.29-5.5-12.29-12.29v-202.37Z"/>
    <text class="cls-4" transform="translate(285.81 332.05)"><tspan x="0" y="0">ESCANAME!</tspan></text>
    <rect class="cls-10" x="279" y="211.94" width="87" height="82.98"/>
    <text class="cls-6" transform="translate(305.04 246.05)"><tspan x="0" y="0">68</tspan></text>
    <text class="cls-7" transform="translate(305.13 376.05)"><tspan x="0" y="0">Ir a sitio</tspan></text>
    <g class="cls-25">
      <g id="Enmascarar_grupo_5" data-name="Enmascarar grupo 5">
        <g id="Justificativos_de_inasistencias_.Ambito_Salud." data-name="Justificativos de inasistencias .Ambito Salud.">
          <rect id="Rectngulo_1155" data-name="Rectngulo 1155" class="cls-10" x="85.67" y="211.94" width="82.93" height="82.93"/>
          <g class="cls-23">
            <g id="Grupo_2374" data-name="Grupo 2374">
              <rect id="Rectngulo_1156" data-name="Rectngulo 1156" x="85.67" y="211.94" width="82.93" height="82.93"/>
            </g>
          </g>
          <g class="cls-24">
            <g id="Grupo_2375" data-name="Grupo 2375">
              <rect id="Rectngulo_1157" data-name="Rectngulo 1157" x="88.66" y="214.92" width="18.58" height="18.58"/>
            </g>
          </g>
          <g class="cls-30">
            <g id="Grupo_2376" data-name="Grupo 2376">
              <rect id="Rectngulo_1158" data-name="Rectngulo 1158" x="93.97" y="220.23" width="7.96" height="7.96"/>
            </g>
          </g>
          <g class="cls-27">
            <g id="Grupo_2377" data-name="Grupo 2377">
              <rect id="Rectngulo_1159" data-name="Rectngulo 1159" x="147.04" y="214.92" width="18.58" height="18.58"/>
            </g>
          </g>
          <g class="cls-26">
            <g id="Grupo_2378" data-name="Grupo 2378">
              <rect id="Rectngulo_1160" data-name="Rectngulo 1160" x="152.35" y="220.23" width="7.96" height="7.96"/>
            </g>
          </g>
          <g class="cls-29">
            <g id="Grupo_2379" data-name="Grupo 2379">
              <rect id="Rectngulo_1161" data-name="Rectngulo 1161" x="88.66" y="273.31" width="18.58" height="18.58"/>
            </g>
          </g>
          <g class="cls-28">
            <g id="Grupo_2380" data-name="Grupo 2380">
              <rect id="Rectngulo_1162" data-name="Rectngulo 1162" x="93.97" y="278.61" width="7.96" height="7.96"/>
            </g>
          </g>
        </g>
      </g>
    </g>
    <g class="cls-18">
      <g id="Enmascarar_grupo_5-2" data-name="Enmascarar grupo 5">
        <g id="Justificativos_de_inasistencias_.Ambito_Salud.-2" data-name="Justificativos de inasistencias .Ambito Salud.">
          <rect id="Rectngulo_1155-2" data-name="Rectngulo 1155" class="cls-10" x="280.04" y="211.97" width="82.93" height="82.93"/>
          <g class="cls-16">
            <g id="Grupo_2374-2" data-name="Grupo 2374">
              <rect id="Rectngulo_1156-2" data-name="Rectngulo 1156" x="280.04" y="211.97" width="82.93" height="82.93"/>
            </g>
          </g>
          <g class="cls-22">
            <g id="Grupo_2375-2" data-name="Grupo 2375">
              <rect id="Rectngulo_1157-2" data-name="Rectngulo 1157" x="283.02" y="214.96" width="18.58" height="18.58"/>
            </g>
          </g>
          <g class="cls-20">
            <g id="Grupo_2376-2" data-name="Grupo 2376">
              <rect id="Rectngulo_1158-2" data-name="Rectngulo 1158" x="288.33" y="220.27" width="7.96" height="7.96"/>
            </g>
          </g>
          <g class="cls-21">
            <g id="Grupo_2377-2" data-name="Grupo 2377">
              <rect id="Rectngulo_1159-2" data-name="Rectngulo 1159" x="341.4" y="214.96" width="18.58" height="18.58"/>
            </g>
          </g>
          <g class="cls-19">
            <g id="Grupo_2378-2" data-name="Grupo 2378">
              <rect id="Rectngulo_1160-2" data-name="Rectngulo 1160" x="346.71" y="220.27" width="7.96" height="7.96"/>
            </g>
          </g>
          <g class="cls-17">
            <g id="Grupo_2379-2" data-name="Grupo 2379">
              <rect id="Rectngulo_1161-2" data-name="Rectngulo 1161" x="283.02" y="273.34" width="18.58" height="18.58"/>
            </g>
          </g>
          <g class="cls-15">
            <g id="Grupo_2380-2" data-name="Grupo 2380">
              <rect id="Rectngulo_1162-2" data-name="Rectngulo 1162" x="288.33" y="278.65" width="7.96" height="7.96"/>
            </g>
          </g>
        </g>
      </g>
    </g>
  </g>
</svg>