<svg xmlns="http://www.w3.org/2000/svg" xmlns:xlink="http://www.w3.org/1999/xlink" width="80.991" height="109.991" viewBox="0 0 80.991 109.991">
  <defs>
    <clipPath id="clip-path">
      <path id="Trazado_1926" data-name="Trazado 1926" d="M250.235,357.243a.735.735,0,1,1,.735.735A.736.736,0,0,1,250.235,357.243Zm-5.837,0a.735.735,0,1,1,.735.735A.736.736,0,0,1,244.4,357.243Zm-1.455,0a.735.735,0,1,1,.735.735A.736.736,0,0,1,242.943,357.243Zm-1.455,0a.735.735,0,1,1,.735.735A.736.736,0,0,1,241.488,357.243Zm-1.455,0a.735.735,0,1,1,.735.735A.736.736,0,0,1,240.033,357.243Zm-1.455,0a.735.735,0,1,1,.735.735.736.736,0,0,1-.735-.735Zm-5.837,0a.735.735,0,1,1,.735.735.736.736,0,0,1-.735-.735Zm-7.292,0a.735.735,0,1,1,.735.735.724.724,0,0,1-.72-.735h0Zm-1.455,0a.735.735,0,1,1,.735.735.736.736,0,0,1-.735-.735Zm-1.455,0a.735.735,0,1,1,.735.735.736.736,0,0,1-.735-.735Zm-2.926,0a.735.735,0,1,1,.735.735.736.736,0,0,1-.735-.735Zm-2.911,0a.735.735,0,1,1,.735.735.736.736,0,0,1-.735-.735Zm-1.455,0a.735.735,0,1,1,.735.735.736.736,0,0,1-.735-.735Zm-7.292,0a.735.735,0,1,1,.735.735.736.736,0,0,1-.735-.735Zm-1.455,0a.735.735,0,1,1,.735.735.736.736,0,0,1-.735-.735Zm-1.455,0a.735.735,0,1,1,.735.735.736.736,0,0,1-.735-.735Zm-2.926,0a.735.735,0,1,1,.735.735.736.736,0,0,1-.735-.735Zm-2.911,0a.735.735,0,1,1,.735.735.736.736,0,0,1-.735-.735Zm-1.455,0a.735.735,0,1,1,.735.735.736.736,0,0,1-.735-.735Zm52.484-1.455a.735.735,0,1,1,.735.735A.736.736,0,0,1,250.235,355.788Zm-5.837,0a.735.735,0,1,1,.735.735h0A.736.736,0,0,1,244.4,355.788Zm-2.911,0a.735.735,0,1,1,.735.735A.736.736,0,0,1,241.488,355.788Zm-4.366,0a.735.735,0,1,1,.735.735.736.736,0,0,1-.735-.735Zm-1.47,0a.728.728,0,1,1,0,.015h0Zm-1.455,0a.735.735,0,1,1,.735.735h0a.736.736,0,0,1-.735-.735Zm-1.455,0a.735.735,0,1,1,.735.735.736.736,0,0,1-.735-.735Zm-5.837,0a.735.735,0,1,1,.735.735.736.736,0,0,1-.735-.735Zm-1.455,0a.735.735,0,1,1,.735.735.724.724,0,0,1-.72-.735h0Zm-1.455,0a.735.735,0,1,1,.735.735.736.736,0,0,1-.735-.735Zm-2.911,0a.735.735,0,1,1,.735.735.736.736,0,0,1-.735-.735Zm-4.381,0a.735.735,0,1,1,.735.735.736.736,0,0,1-.735-.735Zm-7.292,0a.735.735,0,1,1,.735.735.736.736,0,0,1-.735-.735Zm-1.455,0a.735.735,0,1,1,.735.735.736.736,0,0,1-.735-.735Zm-1.455,0a.735.735,0,1,1,.735.735.736.736,0,0,1-.735-.735Zm-2.911,0a.735.735,0,1,1,.735.735.736.736,0,0,1-.735-.735Zm-1.47,0a.735.735,0,1,1,.735.735.736.736,0,0,1-.735-.735Zm-1.455,0a.735.735,0,1,1,.735.735.736.736,0,0,1-.735-.735Zm-2.911,0a.735.735,0,1,1,.735.735.736.736,0,0,1-.735-.735Zm-1.455,0a.735.735,0,1,1,.735.735.736.736,0,0,1-.735-.735Zm-2.926,0a.735.735,0,1,1,.735.735.736.736,0,0,1-.735-.735Zm-1.455,0a.735.735,0,1,1,.735.735.736.736,0,0,1-.735-.735Zm58.32-1.455a.735.735,0,1,1,.735.735A.736.736,0,0,1,250.235,354.332Zm-1.455,0a.735.735,0,1,1,.735.735A.736.736,0,0,1,248.78,354.332Zm-2.911,0a.735.735,0,1,1,.735.735h0A.736.736,0,0,1,245.869,354.332Zm-5.837,0a.735.735,0,1,1,.735.735A.736.736,0,0,1,240.033,354.332Zm-1.455,0a.735.735,0,1,1,.735.735.736.736,0,0,1-.735-.735Zm-5.837,0a.735.735,0,1,1,.735.735.736.736,0,0,1-.735-.735Zm-1.455,0a.735.735,0,1,1,.735.735.736.736,0,0,1-.735-.735Zm-1.455,0a.735.735,0,1,1,.735.735.736.736,0,0,1-.735-.735Zm-1.47,0a.735.735,0,1,1,.735.735.736.736,0,0,1-.735-.735Zm-1.455,0a.735.735,0,1,1,.735.735.736.736,0,0,1-.735-.735Zm-2.911,0a.735.735,0,1,1,.735.735.736.736,0,0,1-.735-.735Zm-1.455,0a.735.735,0,1,1,.735.735.736.736,0,0,1-.735-.735Zm-1.455,0a.735.735,0,1,1,.735.735.736.736,0,0,1-.735-.735Zm-2.926,0a.735.735,0,1,1,.735.735.736.736,0,0,1-.735-.735Zm-2.911,0a.735.735,0,1,1,.735.735.736.736,0,0,1-.735-.735Zm-1.455,0a.735.735,0,1,1,.735.735.736.736,0,0,1-.735-.735Zm-1.455,0a.735.735,0,1,1,.735.735h0a.736.736,0,0,1-.735-.735Zm-11.673,0a.735.735,0,1,1,.735.735h0a.736.736,0,0,1-.735-.735Zm-2.911,0a.735.735,0,1,1,.735.735.736.736,0,0,1-.735-.735Zm-1.455,0a.735.735,0,1,1,.735.735.736.736,0,0,1-.735-.735Zm-2.926,0a.735.735,0,1,1,.735.735.736.736,0,0,1-.735-.735Zm-1.455,0a.735.735,0,1,1,.735.735.736.736,0,0,1-.735-.735Zm58.32-1.455a.735.735,0,1,1,.735.735.736.736,0,0,1-.735-.735Zm-1.455,0a.735.735,0,1,1,.735.735.736.736,0,0,1-.735-.735Zm-1.455,0a.735.735,0,1,1,.735.735.736.736,0,0,1-.735-.735Zm-1.455,0a.735.735,0,1,1,.735.735.736.736,0,0,1-.735-.735Zm-1.47,0a.735.735,0,1,1,.735.735h0a.736.736,0,0,1-.735-.735Zm-1.455,0a.735.735,0,1,1,.735.735.736.736,0,0,1-.735-.735Zm-1.455,0a.735.735,0,1,1,.735.735.736.736,0,0,1-.735-.735Zm-1.455,0a.735.735,0,1,1,.735.735.736.736,0,0,1-.735-.735Zm-1.455,0a.735.735,0,1,1,.735.735.736.736,0,0,1-.735-.735Zm-1.455,0a.735.735,0,1,1,.735.735.736.736,0,0,1-.735-.735Zm-1.47,0a.728.728,0,1,1,0,.015h0Zm-2.911,0a.735.735,0,1,1,.735.735.736.736,0,0,1-.735-.735Zm-1.455,0a.735.735,0,1,1,.735.735.736.736,0,0,1-.735-.735Zm-1.455,0a.735.735,0,1,1,.735.735.736.736,0,0,1-.735-.735Zm-4.381,0a.735.735,0,1,1,.735.735.724.724,0,0,1-.72-.735h0Zm-8.747,0a.735.735,0,1,1,.735.735.736.736,0,0,1-.735-.735Zm-1.455,0a.735.735,0,1,1,.735.735.736.736,0,0,1-.735-.735Zm-1.455,0a.735.735,0,1,1,.735.735.736.736,0,0,1-.735-.735Zm-4.381,0a.735.735,0,1,1,.735.735.736.736,0,0,1-.735-.735Zm-1.455,0a.735.735,0,1,1,.735.735.736.736,0,0,1-.735-.735Zm-1.455,0a.735.735,0,1,1,.735.735.736.736,0,0,1-.735-.735Zm-5.837,0a.735.735,0,1,1,.735.735.736.736,0,0,1-.735-.735Zm-1.455,0a.735.735,0,1,1,.735.735.736.736,0,0,1-.735-.735Zm-1.455,0a.735.735,0,1,1,.735.735.736.736,0,0,1-.735-.735Zm-1.455,0a.735.735,0,1,1,.735.735.736.736,0,0,1-.735-.735Zm51.028-1.455a.735.735,0,1,1,.735.735.736.736,0,0,1-.735-.735Zm-1.455,0a.735.735,0,1,1,.735.735.736.736,0,0,1-.735-.735Zm-1.47,0a.735.735,0,1,1,.735.735.736.736,0,0,1-.735-.735Zm-1.455,0a.735.735,0,1,1,.735.735h0a.736.736,0,0,1-.735-.735Zm-1.455,0a.735.735,0,1,1,.735.735.736.736,0,0,1-.735-.735Zm-1.455,0a.735.735,0,1,1,.735.735.736.736,0,0,1-.735-.735Zm-1.455,0a.735.735,0,1,1,.735.735.736.736,0,0,1-.735-.735Zm-4.381,0a.735.735,0,1,1,.735.735.736.736,0,0,1-.735-.735Zm-1.455,0a.735.735,0,1,1,.735.735h0a.736.736,0,0,1-.735-.735Zm-5.837,0a.735.735,0,1,1,.735.735.736.736,0,0,1-.735-.735Zm-1.455,0a.735.735,0,1,1,.735.735.724.724,0,0,1-.72-.735h0Zm-1.455,0a.735.735,0,1,1,.735.735.736.736,0,0,1-.735-.735Zm-5.837,0a.735.735,0,1,1,.735.735.736.736,0,0,1-.735-.735Zm-1.455,0a.735.735,0,1,1,.735.735.736.736,0,0,1-.735-.735Zm-1.455,0a.735.735,0,1,1,.735.735.736.736,0,0,1-.735-.735Zm-1.455,0a.735.735,0,1,1,.735.735.736.736,0,0,1-.735-.735Zm-1.455,0a.735.735,0,1,1,.735.735.736.736,0,0,1-.735-.735Zm-7.292,0a.735.735,0,1,1,.735.735.736.736,0,0,1-.735-.735Zm-1.455,0a.735.735,0,1,1,.735.735.736.736,0,0,1-.735-.735Zm-1.47,0a.735.735,0,1,1,.735.735.736.736,0,0,1-.735-.735Zm-1.455,0a.735.735,0,1,1,.735.735.736.736,0,0,1-.735-.735Zm-4.366,0a.735.735,0,1,1,.735.735.736.736,0,0,1-.735-.735Zm-1.455,0a.735.735,0,1,1,.735.735.736.736,0,0,1-.735-.735Zm55.394-1.455a.735.735,0,1,1,.735.735.724.724,0,0,1-.72-.735h0Zm-2.926,0a.735.735,0,1,1,.735.735h0a.724.724,0,0,1-.72-.735h0Zm-2.911,0a.735.735,0,1,1,.735.735.724.724,0,0,1-.72-.735h0Zm-5.837,0a.735.735,0,1,1,.735.735.724.724,0,0,1-.72-.735h0Zm-2.911,0a.735.735,0,1,1,.735.735.736.736,0,0,1-.735-.735Zm-1.455,0a.735.735,0,1,1,.735.735.724.724,0,0,1-.72-.735h0Zm-1.455,0a.735.735,0,1,1,.735.735.724.724,0,0,1-.72-.735h0Zm-2.926,0a.735.735,0,1,1,.735.735.724.724,0,0,1-.72-.735h0Zm-1.455,0a.735.735,0,1,1,.735.735.724.724,0,0,1-.72-.735h0Zm-1.455,0a.735.735,0,1,1,.735.735.724.724,0,0,1-.72-.735h0Zm-4.366,0a.735.735,0,1,1,.735.735.724.724,0,0,1-.72-.735h0Zm-2.926,0a.735.735,0,1,1,.735.735.724.724,0,0,1-.72-.735h0Zm-1.455,0a.735.735,0,1,1,.735.735.724.724,0,0,1-.72-.735h0Zm-5.837,0a.735.735,0,1,1,.735.735.724.724,0,0,1-.72-.735h0Zm-4.366,0a.735.735,0,1,1,.735.735.724.724,0,0,1-.72-.735h0Zm-4.381,0a.735.735,0,1,1,.735.735.724.724,0,0,1-.72-.735h0Zm-5.822,0a.735.735,0,1,1,.735.735.724.724,0,0,1-.72-.735h0Zm-1.47,0a.735.735,0,1,1,.735.735.724.724,0,0,1-.72-.735h0Zm-1.455,0a.735.735,0,1,1,.735.735.724.724,0,0,1-.72-.735h0Zm-1.455,0a.735.735,0,1,1,.735.735.724.724,0,0,1-.72-.735h0Zm56.865-1.47a.735.735,0,1,1,.735.735.724.724,0,0,1-.72-.735h0Zm-2.926,0a.735.735,0,1,1,.735.735.724.724,0,0,1-.72-.735h0Zm-2.911,0a.735.735,0,1,1,.735.735.724.724,0,0,1-.72-.735h0Zm-2.911,0a.735.735,0,1,1,.735.735.724.724,0,0,1-.72-.735h0Zm-2.926,0a.735.735,0,1,1,.735.735.724.724,0,0,1-.72-.735h0Zm-4.366,0a.735.735,0,1,1,.735.735.724.724,0,0,1-.72-.735h0Zm-1.455,0a.735.735,0,1,1,.735.735.724.724,0,0,1-.72-.735h0Zm-1.455,0a.735.735,0,1,1,.735.735.724.724,0,0,1-.72-.735h0Zm-5.837,0a.735.735,0,1,1,.735.735.724.724,0,0,1-.72-.735h0Zm-1.455,0a.735.735,0,1,1,.735.735.724.724,0,0,1-.72-.735h0Zm-5.837,0a.735.735,0,1,1,.735.735.724.724,0,0,1-.72-.735h0Zm-2.911,0a.735.735,0,1,1,.735.735.724.724,0,0,1-.72-.735h0Zm-2.926,0a.735.735,0,1,1,.735.735h0a.724.724,0,0,1-.72-.735h0Zm-1.455,0a.735.735,0,1,1,.735.735.724.724,0,0,1-.72-.735h0Zm-4.366,0a.735.735,0,1,1,.735.735.724.724,0,0,1-.72-.735h0Zm-4.381,0a.735.735,0,1,1,.735.735.724.724,0,0,1-.72-.735h0Zm-1.455,0a.735.735,0,1,1,.735.735.724.724,0,0,1-.72-.735h0Zm-2.911,0a.735.735,0,1,1,.735.735.724.724,0,0,1-.72-.735h0Zm-1.47,0a.735.735,0,1,1,.735.735.724.724,0,0,1-.72-.735h0Zm-1.455,0a.735.735,0,1,1,.735.735.724.724,0,0,1-.72-.735h0Zm-1.455,0a.735.735,0,1,1,.735.735.724.724,0,0,1-.72-.735h0Zm56.865-1.455a.735.735,0,1,1,.735.735.724.724,0,0,1-.72-.735h0Zm-1.455,0a.735.735,0,1,1,.735.735.724.724,0,0,1-.72-.735h0Zm-1.47,0a.735.735,0,1,1,.735.735.724.724,0,0,1-.72-.735h0Zm-1.455,0a.735.735,0,1,1,.735.735.724.724,0,0,1-.72-.735h0Zm-1.455,0a.735.735,0,1,1,.735.735h0a.724.724,0,0,1-.72-.735h0Zm-5.837,0a.735.735,0,1,1,.735.735.724.724,0,0,1-.72-.735h0Zm-10.2,0a.735.735,0,1,1,.735.735.724.724,0,0,1-.72-.735h0Zm-5.822,0a.735.735,0,1,1,.735.735.724.724,0,0,1-.72-.735h0Zm-2.926,0a.735.735,0,1,1,.735.735.724.724,0,0,1-.72-.735h0Zm-1.455,0a.735.735,0,1,1,.735.735.724.724,0,0,1-.72-.735h0Zm-5.837,0a.735.735,0,1,1,.735.735.724.724,0,0,1-.72-.735h0Zm-1.455,0a.735.735,0,1,1,.735.735h0a.724.724,0,0,1-.72-.735h0Zm-2.911,0a.735.735,0,1,1,.735.735.724.724,0,0,1-.72-.735h0Zm-2.926,0a.735.735,0,1,1,.735.735.724.724,0,0,1-.72-.735h0Zm-2.911,0a.735.735,0,1,1,.735.735.724.724,0,0,1-.72-.735h0Zm-4.366,0a.735.735,0,1,1,.735.735.724.724,0,0,1-.72-.735h0Zm-2.926,0a.735.735,0,1,1,.735.735.724.724,0,0,1-.72-.735h0Zm-1.455,0a.735.735,0,1,1,.735.735.724.724,0,0,1-.72-.735h0Zm55.394-1.455a.735.735,0,1,1,.735.735h0a.724.724,0,0,1-.72-.735h0Zm-2.911,0a.735.735,0,1,1,.735.735.724.724,0,0,1-.72-.735h0Zm-1.455,0a.735.735,0,1,1,.735.735.724.724,0,0,1-.72-.735h0Zm-1.455,0a.735.735,0,1,1,.735.735.724.724,0,0,1-.72-.735h0Zm-1.455,0a.735.735,0,1,1,.735.735.724.724,0,0,1-.72-.735h0Zm-1.47,0a.735.735,0,1,1,.735.735.724.724,0,0,1-.72-.735h0Zm-1.455,0a.735.735,0,1,1,.735.735h0a.724.724,0,0,1-.72-.735h0Zm-5.837,0a.735.735,0,1,1,.735.735.724.724,0,0,1-.72-.735h0Zm-1.455,0a.735.735,0,1,1,.735.735.724.724,0,0,1-.72-.735h0Zm-1.455,0a.735.735,0,1,1,.735.735.724.724,0,0,1-.72-.735h0Zm-4.366,0a.735.735,0,1,1,.735.735.724.724,0,0,1-.72-.735h0Zm-5.837,0a.735.735,0,1,1,.735.735.724.724,0,0,1-.72-.735h0Zm-1.455,0a.735.735,0,1,1,.735.735.724.724,0,0,1-.72-.735h0Zm-1.455,0a.735.735,0,1,1,.735.735.724.724,0,0,1-.72-.735h0Zm-1.47,0a.735.735,0,1,1,.735.735h0a.724.724,0,0,1-.72-.735h0Zm-1.455,0a.735.735,0,1,1,.735.735.724.724,0,0,1-.72-.735h0Zm-1.455,0a.735.735,0,1,1,.735.735.724.724,0,0,1-.72-.735h0Zm-7.292,0a.735.735,0,1,1,.735.735.724.724,0,0,1-.72-.735h0Zm-2.911,0a.735.735,0,1,1,.735.735.724.724,0,0,1-.72-.735h0Zm-4.381,0a.735.735,0,1,1,.735.735.724.724,0,0,1-.72-.735h0Zm-1.455,0a.735.735,0,1,1,.735.735.724.724,0,0,1-.72-.735h0Zm-1.455,0a.735.735,0,1,1,.735.735.724.724,0,0,1-.72-.735h0Zm-4.366,0a.735.735,0,1,1,.735.735.724.724,0,0,1-.72-.735h0Zm-1.47,0a.735.735,0,1,1,.735.735.724.724,0,0,1-.72-.735h0Zm-5.822,0a.735.735,0,1,1,.735.735.724.724,0,0,1-.72-.735h0Zm-1.47,0a.735.735,0,1,1,.735.735.724.724,0,0,1-.72-.735h0Zm-1.455,0a.735.735,0,1,1,.735.735h0a.724.724,0,0,1-.72-.735h0Zm69.993-1.455a.735.735,0,1,1,.735.735.724.724,0,0,1-.72-.735h0Zm-1.47,0a.735.735,0,1,1,.735.735.724.724,0,0,1-.72-.735h0Zm-8.747,0a.735.735,0,1,1,.735.735.724.724,0,0,1-.72-.735h0Zm-5.822,0a.735.735,0,1,1,.735.735.724.724,0,0,1-.72-.735h0Zm-1.455,0a.735.735,0,1,1,.735.735.724.724,0,0,1-.72-.735h0Zm-1.47,0a.735.735,0,1,1,.735.735.724.724,0,0,1-.72-.735h0Zm-1.455,0a.735.735,0,1,1,.735.735.724.724,0,0,1-.72-.735h0Zm-1.455,0a.735.735,0,1,1,.735.735.724.724,0,0,1-.72-.735h0Zm-2.911,0a.735.735,0,1,1,.735.735.724.724,0,0,1-.72-.735h0Zm-2.926,0a.735.735,0,1,1,.735.735.724.724,0,0,1-.72-.735h0Zm-5.822,0a.735.735,0,1,1,.735.735.724.724,0,0,1-.72-.735h0Zm-2.926,0a.735.735,0,1,1,.735.735.724.724,0,0,1-.72-.735h0Zm-1.455,0a.735.735,0,1,1,.735.735.724.724,0,0,1-.72-.735h0Zm-5.837,0a.735.735,0,1,1,.735.735.724.724,0,0,1-.72-.735h0Zm-4.366,0a.735.735,0,1,1,.735.735.724.724,0,0,1-.72-.735h0Zm-4.381,0a.735.735,0,1,1,.735.735.724.724,0,0,1-.72-.735h0Zm-1.455,0a.735.735,0,1,1,.735.735.724.724,0,0,1-.72-.735h0Zm-2.911,0a.735.735,0,1,1,.735.735.724.724,0,0,1-.72-.735h0Zm-1.455,0a.735.735,0,1,1,.735.735.724.724,0,0,1-.72-.735h0Zm-1.455,0a.735.735,0,1,1,.735.735.714.714,0,0,1-.72-.735h0Zm-5.837,0a.735.735,0,1,1,.735.735.724.724,0,0,1-.72-.735h0Zm-1.455,0a.735.735,0,1,1,.735.735.724.724,0,0,1-.72-.735h0Zm-1.455,0a.735.735,0,1,1,.735.735.724.724,0,0,1-.72-.735h0Zm68.523-1.455a.735.735,0,1,1,.735.735.724.724,0,0,1-.72-.735h0Zm-1.47,0a.735.735,0,1,1,.735.735.724.724,0,0,1-.72-.735h0Zm-4.366,0a.735.735,0,1,1,.735.735.724.724,0,0,1-.72-.735h0Zm-5.837,0a.735.735,0,1,1,.735.735.724.724,0,0,1-.72-.735h0Zm-2.911,0a.735.735,0,1,1,.735.735.724.724,0,0,1-.72-.735h0Zm-1.455,0a.735.735,0,1,1,.735.735.724.724,0,0,1-.72-.735h0Zm-2.926,0a.735.735,0,1,1,.735.735.724.724,0,0,1-.72-.735h0Zm-7.277,0a.735.735,0,1,1,.735.735.724.724,0,0,1-.72-.735h0Zm-2.926,0a.735.735,0,1,1,.735.735.724.724,0,0,1-.72-.735h0Zm-2.911,0a.735.735,0,1,1,.735.735.724.724,0,0,1-.72-.735h0Zm-1.455,0a.735.735,0,1,1,.735.735.724.724,0,0,1-.72-.735h0Zm-7.292,0a.735.735,0,1,1,.735.735.724.724,0,0,1-.72-.735h0Zm-4.381,0a.735.735,0,1,1,.735.735.724.724,0,0,1-.72-.735h0Zm-2.911,0a.735.735,0,1,1,.735.735.724.724,0,0,1-.72-.735h0Zm-1.455,0a.735.735,0,1,1,.735.735.724.724,0,0,1-.72-.735h0Zm-1.455,0a.735.735,0,1,1,.735.735.724.724,0,0,1-.72-.735h0Zm-2.926,0a.735.735,0,1,1,.735.735.724.724,0,0,1-.72-.735h0Zm-4.366,0a.735.735,0,1,1,.735.735.724.724,0,0,1-.72-.735h0Zm-1.455,0a.735.735,0,1,1,.735.735.736.736,0,0,1-.735-.735Zm-1.47,0a.735.735,0,1,1,.735.735.724.724,0,0,1-.72-.735h0Zm-1.455,0a.735.735,0,1,1,.735.735.724.724,0,0,1-.72-.735h0Zm-5.822,0a.735.735,0,1,1,.735.735.724.724,0,0,1-.72-.735h0Zm64.142-1.47a.735.735,0,1,1,.735.735.724.724,0,0,1-.72-.735h0Zm-2.911,0a.735.735,0,1,1,.735.735.724.724,0,0,1-.72-.735h0Zm-1.455,0a.735.735,0,1,1,.735.735.724.724,0,0,1-.72-.735h0Zm-1.455,0a.735.735,0,1,1,.735.735.724.724,0,0,1-.72-.735h0Zm-1.47,0a.735.735,0,1,1,.735.735.724.724,0,0,1-.72-.735h0Zm-2.911,0a.735.735,0,1,1,.735.735.714.714,0,0,1-.72-.735h0Zm-1.455,0a.735.735,0,1,1,.735.735.724.724,0,0,1-.72-.735h0Zm-1.455,0a.735.735,0,1,1,.735.735.724.724,0,0,1-.72-.735h0Zm-1.455,0a.735.735,0,1,1,.735.735.724.724,0,0,1-.72-.735h0Zm-4.381,0a.735.735,0,1,1,.735.735.724.724,0,0,1-.72-.735h0Zm-1.455,0a.735.735,0,1,1,.735.735.724.724,0,0,1-.72-.735h0Zm-5.837,0a.735.735,0,1,1,.735.735.724.724,0,0,1-.72-.735h0Zm-1.455,0a.735.735,0,1,1,.735.735.724.724,0,0,1-.72-.735h0Zm-2.911,0a.735.735,0,1,1,.735.735.724.724,0,0,1-.72-.735h0Zm-7.292,0a.735.735,0,1,1,.735.735.724.724,0,0,1-.72-.735h0Zm-5.837,0a.735.735,0,1,1,.735.735.724.724,0,0,1-.72-.735h0Zm-1.455,0a.735.735,0,1,1,.735.735.724.724,0,0,1-.72-.735h0Zm-1.455,0a.735.735,0,1,1,.735.735.724.724,0,0,1-.72-.735h0Zm-2.926,0a.735.735,0,1,1,.735.735.724.724,0,0,1-.72-.735h0Zm-2.911,0a.735.735,0,1,1,.735.735.724.724,0,0,1-.72-.735h0Zm-5.837,0a.735.735,0,1,1,.735.735.724.724,0,0,1-.72-.735h0Zm-1.455,0a.735.735,0,1,1,.735.735.724.724,0,0,1-.72-.735h0Zm-1.455,0a.728.728,0,1,1,.735.72h0a.743.743,0,0,1-.735-.72Zm-1.455,0a.735.735,0,1,1,.735.735.724.724,0,0,1-.72-.735h0Zm-2.911,0a.735.735,0,1,1,.735.735.724.724,0,0,1-.72-.735h0Zm69.978-1.455a.735.735,0,1,1,.735.735.724.724,0,0,1-.72-.735h0Zm-1.455,0a.735.735,0,1,1,.735.735.724.724,0,0,1-.72-.735h0Zm-2.926,0a.735.735,0,1,1,.735.735.724.724,0,0,1-.72-.735h0Zm-5.822,0a.735.735,0,1,1,.735.735.724.724,0,0,1-.72-.735h0Zm-4.381,0a.735.735,0,1,1,.735.735.736.736,0,0,1-.735-.735Zm-1.455,0a.735.735,0,1,1,.735.735.724.724,0,0,1-.72-.735h0Zm-1.455,0a.735.735,0,1,1,.735.735.724.724,0,0,1-.72-.735h0Zm-1.455,0a.735.735,0,1,1,.735.735.724.724,0,0,1-.72-.735h0Zm-1.47,0a.735.735,0,1,1,.735.735.724.724,0,0,1-.72-.735h0Zm-2.911,0a.735.735,0,1,1,.735.735.724.724,0,0,1-.72-.735h0Zm-4.366,0a.735.735,0,1,1,.735.735.724.724,0,0,1-.72-.735h0Zm-5.837,0a.735.735,0,1,1,.735.735.724.724,0,0,1-.72-.735h0Zm-1.455,0a.735.735,0,1,1,.735.735.724.724,0,0,1-.72-.735h0Zm-1.455,0a.735.735,0,1,1,.735.735.724.724,0,0,1-.72-.735h0Zm-2.926,0a.735.735,0,1,1,.735.735.724.724,0,0,1-.72-.735h0Zm-2.911,0a.735.735,0,1,1,.735.735.724.724,0,0,1-.72-.735h0Zm-2.926,0a.735.735,0,1,1,.735.735.724.724,0,0,1-.72-.735h0Zm-7.277,0a.735.735,0,1,1,.735.735.724.724,0,0,1-.72-.735h0Zm-1.47,0a.735.735,0,1,1,.735.735.724.724,0,0,1-.72-.735h0Zm-2.911,0a.735.735,0,1,1,.735.735.724.724,0,0,1-.72-.735h0Zm-4.366,0a.735.735,0,1,1,.735.735.724.724,0,0,1-.72-.735h0Zm-4.381,0a.735.735,0,1,1,.735.735.724.724,0,0,1-.72-.735h0Zm-1.455,0a.735.735,0,1,1,.735.735.724.724,0,0,1-.72-.735h0Zm-1.455,0a.735.735,0,1,1,.735.735.724.724,0,0,1-.72-.735h0Zm68.523-1.455a.735.735,0,1,1,.735.735.724.724,0,0,1-.72-.735h0Zm-4.381,0a.735.735,0,1,1,.735.735.724.724,0,0,1-.72-.735h0Zm-1.455,0a.735.735,0,1,1,.735.735.724.724,0,0,1-.72-.735h0Zm-1.455,0a.735.735,0,1,1,.735.735.724.724,0,0,1-.72-.735h0Zm-1.455,0a.735.735,0,1,1,.735.735.724.724,0,0,1-.72-.735h0Zm-1.455,0a.735.735,0,1,1,.735.735.724.724,0,0,1-.72-.735h0Zm-1.47,0a.735.735,0,1,1,.735.735.714.714,0,0,1-.72-.735h0Zm-1.455,0a.735.735,0,1,1,.735.735.714.714,0,0,1-.72-.735h0Zm-1.455,0a.735.735,0,1,1,.735.735.736.736,0,0,1-.735-.735Zm-1.455,0a.735.735,0,1,1,.735.735.714.714,0,0,1-.72-.735h0Zm-1.455,0a.735.735,0,1,1,.735.735.714.714,0,0,1-.72-.735h0Zm-1.455,0a.735.735,0,1,1,.735.735.714.714,0,0,1-.72-.735h0Zm-4.381,0a.735.735,0,1,1,.735.735.714.714,0,0,1-.72-.735h0Zm-1.455,0a.735.735,0,1,1,.735.735.724.724,0,0,1-.72-.735h0Zm-1.455,0a.735.735,0,1,1,.735.735.714.714,0,0,1-.72-.735h0Zm-1.455,0a.735.735,0,1,1,.735.735.714.714,0,0,1-.72-.735h0Zm-2.926,0a.735.735,0,1,1,.735.735.714.714,0,0,1-.72-.735h0Zm-4.366,0a.735.735,0,1,1,.735.735.714.714,0,0,1-.72-.735h0Zm-4.381,0a.735.735,0,1,1,.735.735.714.714,0,0,1-.72-.735h0Zm-1.455,0a.735.735,0,1,1,.735.735.714.714,0,0,1-.72-.735h0Zm-2.911,0a.735.735,0,1,1,.735.735.714.714,0,0,1-.72-.735h0Zm-1.455,0a.735.735,0,1,1,.735.735.714.714,0,0,1-.72-.735h0Zm-4.381,0a.735.735,0,1,1,.735.735.714.714,0,0,1-.72-.735h0Zm-1.455,0a.735.735,0,1,1,.735.735.714.714,0,0,1-.72-.735h0Zm-4.381,0a.735.735,0,1,1,.735.735.714.714,0,0,1-.72-.735h0Zm-1.455,0a.735.735,0,1,1,.735.735.714.714,0,0,1-.72-.735h0Zm-5.837,0a.735.735,0,1,1,.735.735.714.714,0,0,1-.72-.735h0Zm-2.911,0a.735.735,0,1,1,.735.735.714.714,0,0,1-.72-.735h0Zm-1.455,0a.735.735,0,1,1,.735.735.714.714,0,0,1-.72-.735h0Zm-2.911,0a.735.735,0,1,1,.735.735.724.724,0,0,1-.72-.735h0Zm69.978-1.455a.735.735,0,1,1,.735.735A.736.736,0,0,1,250.235,336.838Zm-2.911,0a.735.735,0,1,1,.735.735A.736.736,0,0,1,247.324,336.838Zm-2.926,0a.735.735,0,1,1,.735.735A.736.736,0,0,1,244.4,336.838Zm-1.455,0a.735.735,0,1,1,.735.735A.736.736,0,0,1,242.943,336.838Zm-2.911,0a.735.735,0,1,1,.735.735A.736.736,0,0,1,240.033,336.838Zm-7.292,0a.735.735,0,1,1,.735.735.736.736,0,0,1-.735-.735Zm-1.455,0a.735.735,0,1,1,.735.735.736.736,0,0,1-.735-.735Zm-1.455,0a.735.735,0,1,1,.735.735A.736.736,0,0,1,229.83,336.838Zm-2.926,0a.735.735,0,1,1,.735.735A.736.736,0,0,1,226.9,336.838Zm-2.911,0a.735.735,0,1,1,.735.735A.736.736,0,0,1,223.993,336.838Zm-1.455,0a.735.735,0,1,1,.735.735A.736.736,0,0,1,222.538,336.838Zm-10.2,0a.735.735,0,1,1,.735.735A.736.736,0,0,1,212.335,336.838Zm-2.926,0a.735.735,0,1,1,.735.735.736.736,0,0,1-.735-.735Zm-5.822,0a.735.735,0,1,1,.735.735A.736.736,0,0,1,203.588,336.838Zm-1.47,0a.735.735,0,1,1,.735.735A.736.736,0,0,1,202.118,336.838Zm-1.455,0a.735.735,0,1,1,.735.735A.736.736,0,0,1,200.662,336.838Zm-4.366,0a.735.735,0,1,1,.735.735A.736.736,0,0,1,196.3,336.838Zm-1.47,0a.735.735,0,1,1,.735.735A.736.736,0,0,1,194.826,336.838Zm-2.911,0a.735.735,0,1,1,.735.735A.736.736,0,0,1,191.915,336.838Zm-2.911,0a.735.735,0,1,1,.735.735A.736.736,0,0,1,189,336.838Zm-4.381,0a.735.735,0,1,1,.735.735A.736.736,0,0,1,184.623,336.838Zm-1.455,0a.735.735,0,1,1,.735.735A.736.736,0,0,1,183.168,336.838Zm-1.455,0a.735.735,0,1,1,.735.735A.736.736,0,0,1,181.712,336.838Zm67.067-1.455a.735.735,0,1,1,.735.735.736.736,0,0,1-.735-.735Zm-5.837,0a.735.735,0,1,1,.735.735.736.736,0,0,1-.735-.735Zm-4.366,0a.735.735,0,1,1,.735.735.736.736,0,0,1-.735-.735Zm-1.455,0a.735.735,0,1,1,.735.735.736.736,0,0,1-.735-.735Zm-1.47,0a.728.728,0,1,1,0,.015h0Zm-5.822,0a.735.735,0,1,1,.735.735h0a.736.736,0,0,1-.735-.735Zm-1.47,0a.735.735,0,1,1,.735.735.736.736,0,0,1-.735-.735Zm-1.455,0a.735.735,0,1,1,.735.735.736.736,0,0,1-.735-.735Zm-1.455,0a.735.735,0,1,1,.735.735.724.724,0,0,1-.72-.735h0Zm-2.911,0a.735.735,0,1,1,.735.735.736.736,0,0,1-.735-.735Zm-8.747,0a.735.735,0,1,1,.735.735.736.736,0,0,1-.735-.735Zm-5.837,0a.735.735,0,1,1,.735.735.736.736,0,0,1-.735-.735Zm-1.455,0a.735.735,0,1,1,.735.735.736.736,0,0,1-.735-.735Zm-1.455,0a.735.735,0,1,1,.735.735.736.736,0,0,1-.735-.735Zm-5.837,0a.735.735,0,1,1,.735.735.736.736,0,0,1-.735-.735Zm-2.911,0a.735.735,0,1,1,.735.735.736.736,0,0,1-.735-.735Zm-4.381,0a.735.735,0,1,1,.735.735.736.736,0,0,1-.735-.735Zm-4.366,0a.735.735,0,1,1,.735.735.736.736,0,0,1-.735-.735Zm-1.455,0a.735.735,0,1,1,.735.735.736.736,0,0,1-.735-.735Zm62.686-1.47a.735.735,0,1,1,.735.735.736.736,0,0,1-.735-.735Zm-1.455,0a.735.735,0,1,1,.735.735.736.736,0,0,1-.735-.735Zm-5.837,0a.735.735,0,1,1,.735.735.736.736,0,0,1-.735-.735Zm-2.911,0a.728.728,0,1,1,0,.015h0Zm-1.455,0a.728.728,0,1,1,0,.015h0Zm-5.837,0a.728.728,0,1,1,0,.015h0Zm-2.911,0a.728.728,0,1,1,0,.015h0Zm-1.47,0a.728.728,0,1,1,0,.015h0Zm-1.455,0a.735.735,0,1,1,.735.735.724.724,0,0,1-.72-.735h0Zm-1.455,0a.728.728,0,1,1,0,.015h0Zm-1.455,0a.728.728,0,1,1,0,.015h0Zm-1.455,0a.728.728,0,1,1,0,.015h0Zm-1.455,0a.728.728,0,1,1,0,.015h0Zm-5.837,0a.728.728,0,1,1,0,.015h0Zm-1.455,0a.728.728,0,1,1,0,.015h0Zm-8.747,0a.728.728,0,1,1,0,.015h0Zm-1.47,0a.728.728,0,1,1,0,.015h0Zm-2.911,0a.728.728,0,1,1,0,.015h0Zm-4.366,0a.728.728,0,1,1,0,.015h0Zm-4.381,0a.735.735,0,1,1,.735.735.724.724,0,0,1-.735-.72h0Zm-1.455,0a.728.728,0,1,1,0,.015h0Zm-1.455,0a.728.728,0,1,1,0,.015h0Zm-4.381,0a.728.728,0,1,1,0,.015h0Zm-2.911,0a.735.735,0,1,1,.735.735.736.736,0,0,1-.735-.735Zm69.978-1.455a.728.728,0,1,1,0,.015h0Zm-1.455,0a.728.728,0,1,1,0,.015h0Zm-1.455,0a.728.728,0,1,1,0,.015h0Zm-1.455,0a.728.728,0,1,1,0,.015h0Zm-4.381,0a.728.728,0,1,1,0,.015h0Zm-2.911,0a.728.728,0,1,1,0,.015h0Zm-1.455,0a.728.728,0,1,1,0,.015h0Zm-1.47,0a.735.735,0,1,1,.735.735.724.724,0,0,1-.735-.72h0Zm-4.366,0a.728.728,0,1,1,0,.015h0Zm-1.455,0a.728.728,0,1,1,0,.015h0Zm-5.837,0a.728.728,0,1,1,0,.015h0Zm-2.911,0a.728.728,0,1,1,0,.015h0Zm-2.926,0a.728.728,0,1,1,0,.015h0Zm-2.911,0a.728.728,0,1,1,0,.015h0Zm-1.455,0a.728.728,0,1,1,0,.015h0Zm-1.455,0a.728.728,0,1,1,0,.015h0Zm-5.837,0a.728.728,0,1,1,0,.015h0Zm-1.455,0a.728.728,0,1,1,0,.015h0Zm-1.455,0a.728.728,0,1,1,0,.015h0Zm-1.455,0a.728.728,0,1,1,0,.015h0Zm-2.926,0a.728.728,0,1,1,0,.015h0Zm-1.455,0a.728.728,0,1,1,0,.015h0Zm-1.455,0a.728.728,0,1,1,0,.015h0Zm-2.911,0a.728.728,0,1,1,0,.015h0Zm-1.47,0a.728.728,0,1,1,0,.015h0Zm-1.455,0a.735.735,0,1,1,.735.735.724.724,0,0,1-.735-.72h0Zm-4.366,0a.728.728,0,1,1,0,.015h0Zm-1.47,0a.728.728,0,1,1,0,.015h0Zm-1.455,0a.728.728,0,1,1,0,.015h0Zm-1.455,0a.728.728,0,1,1,0,.015h0Zm-1.455,0a.735.735,0,1,1,.735.735.736.736,0,0,1-.735-.735ZM248.78,331a.728.728,0,1,1,0,.015h0Zm-1.455,0a.728.728,0,1,1,0,.015h0Zm-1.455,0a.728.728,0,1,1,0,.015h0Zm-1.455,0a.728.728,0,1,1,0,.015h0Zm-1.47,0a.728.728,0,1,1,0,.015h0Zm-1.455,0a.728.728,0,1,1,0,.015h0Zm-4.366,0a.735.735,0,1,1,.735.735.724.724,0,0,1-.735-.72h0Zm-1.455,0a.735.735,0,1,1,.735.735.724.724,0,0,1-.735-.72h0Zm-2.926,0a.735.735,0,1,1,.735.735.724.724,0,0,1-.735-.72h0Zm-2.911,0a.728.728,0,1,1,.72.735.736.736,0,0,1-.735-.735h0Zm-1.455,0a.735.735,0,1,1,.735.735.724.724,0,0,1-.735-.72h0Zm-8.747,0a.735.735,0,1,1,.735.735.724.724,0,0,1-.735-.72h0Zm-1.47,0a.735.735,0,1,1,.735.735.724.724,0,0,1-.735-.72h0Zm-4.366,0a.735.735,0,1,1,.735.735.724.724,0,0,1-.735-.72h0Zm-1.455,0a.735.735,0,1,1,.735.735.724.724,0,0,1-.735-.72h0Zm-1.455,0a.735.735,0,1,1,.735.735.724.724,0,0,1-.735-.72h0Zm-1.47,0a.735.735,0,1,1,.735.735.724.724,0,0,1-.735-.72h0Zm-1.455,0a.735.735,0,1,1,.735.735.724.724,0,0,1-.735-.72h0Zm-1.455,0a.735.735,0,1,1,.735.735.724.724,0,0,1-.735-.72h0Zm-1.455,0a.735.735,0,1,1,.735.735.724.724,0,0,1-.735-.72h0Zm-1.455,0a.735.735,0,1,1,.735.735.724.724,0,0,1-.735-.72h0Zm-2.926,0a.735.735,0,1,1,.735.735.724.724,0,0,1-.735-.72h0Zm-2.911,0a.735.735,0,1,1,.735.735.724.724,0,0,1-.735-.72h0Zm-2.911,0a.735.735,0,1,1,.735.735.724.724,0,0,1-.735-.72h0Zm-1.455,0a.735.735,0,1,1,.735.735.724.724,0,0,1-.735-.72h0Zm-1.47,0a.735.735,0,1,1,.735.735.724.724,0,0,1-.735-.72h0ZM189,331a.735.735,0,1,1,.735.735.724.724,0,0,1-.735-.72h0Zm-1.455,0a.735.735,0,1,1,.735.735.724.724,0,0,1-.735-.72h0Zm-2.911,0a.728.728,0,1,1,.72.735h0a.736.736,0,0,1-.735-.735h0Zm-1.47,0a.735.735,0,1,1,.735.735.724.724,0,0,1-.735-.72h0Zm-1.455,0a.735.735,0,1,1,.735.735.724.724,0,0,1-.735-.72h0Zm-1.455,0a.728.728,0,1,1,0,.015h0Zm69.978-1.455a.735.735,0,1,1,.735.735.724.724,0,0,1-.735-.72h0Zm-2.911,0a.735.735,0,1,1,.735.735.724.724,0,0,1-.735-.72h0Zm-1.455,0a.735.735,0,1,1,.735.735.724.724,0,0,1-.735-.72h0Zm-4.381,0a.735.735,0,1,1,.735.735.724.724,0,0,1-.735-.72h0Zm-7.292,0a.735.735,0,1,1,.735.735.724.724,0,0,1-.735-.72h0Zm-4.366,0a.735.735,0,1,1,.735.735.724.724,0,0,1-.735-.72h0Zm-1.455,0a.735.735,0,1,1,.735.735.724.724,0,0,1-.735-.72h0Zm-1.455,0a.735.735,0,1,1,.735.735.724.724,0,0,1-.735-.72h0Zm-4.381,0a.735.735,0,1,1,.735.735.724.724,0,0,1-.735-.72h0Zm-7.292,0a.735.735,0,1,1,.735.735.724.724,0,0,1-.735-.72h0Zm-1.455,0a.735.735,0,1,1,.735.735.724.724,0,0,1-.735-.72h0Zm-1.455,0a.735.735,0,1,1,.735.735.724.724,0,0,1-.735-.72h0Zm-2.911,0a.735.735,0,1,1,.735.735.724.724,0,0,1-.735-.72h0Zm-1.47,0a.735.735,0,1,1,.735.735.724.724,0,0,1-.735-.72h0Zm-2.911,0a.735.735,0,1,1,.735.735.724.724,0,0,1-.735-.72h0Zm-1.455,0a.735.735,0,1,1,.735.735.724.724,0,0,1-.735-.72h0Zm-1.455,0a.735.735,0,1,1,.735.735.724.724,0,0,1-.735-.72h0Zm-1.455,0a.735.735,0,1,1,.735.735.724.724,0,0,1-.735-.72h0Zm-1.47,0a.735.735,0,1,1,.735.735.724.724,0,0,1-.735-.72h0Zm-1.455,0a.735.735,0,1,1,.735.735.724.724,0,0,1-.735-.72h0Zm-4.366,0a.735.735,0,1,1,.735.735.724.724,0,0,1-.735-.72h0Zm-2.926,0a.735.735,0,1,1,.735.735.724.724,0,0,1-.735-.72h0Zm-5.822,0a.735.735,0,1,1,.735.735.724.724,0,0,1-.735-.72h0Zm-2.926,0a.735.735,0,1,1,.735.735.724.724,0,0,1-.735-.72h0Zm-1.455,0a.728.728,0,1,1,0,.015h0Zm67.067-1.455a.735.735,0,1,1,.735.735.724.724,0,0,1-.735-.72h0Zm-1.455,0a.735.735,0,1,1,.735.735.724.724,0,0,1-.735-.72h0Zm-1.455,0a.735.735,0,1,1,.735.735.724.724,0,0,1-.735-.72h0Zm-1.455,0a.735.735,0,1,1,.735.735.724.724,0,0,1-.735-.72h0Zm-2.926,0a.735.735,0,1,1,.735.735.724.724,0,0,1-.735-.72h0Zm-2.911,0a.735.735,0,1,1,.735.735.724.724,0,0,1-.735-.72h0Zm-1.455,0a.735.735,0,1,1,.735.735.724.724,0,0,1-.735-.72h0Zm-5.837,0a.735.735,0,1,1,.735.735h0a.736.736,0,0,1-.735-.735Zm-1.455,0a.735.735,0,1,1,.735.735.724.724,0,0,1-.735-.72h0Zm-8.747,0a.735.735,0,1,1,.735.735.724.724,0,0,1-.735-.72h0Zm-1.455,0a.735.735,0,1,1,.735.735.724.724,0,0,1-.735-.72h0Zm-4.381,0a.735.735,0,1,1,.735.735.724.724,0,0,1-.735-.72h0Zm-1.455,0a.735.735,0,1,1,.735.735.724.724,0,0,1-.735-.72h0Zm-4.381,0a.735.735,0,1,1,.735.735.724.724,0,0,1-.735-.72h0Zm-1.455,0a.735.735,0,1,1,.735.735.724.724,0,0,1-.735-.72h0Zm-11.658,0a.735.735,0,1,1,.735.735.724.724,0,0,1-.735-.72h0Zm-5.837,0a.735.735,0,1,1,.735.735.724.724,0,0,1-.735-.72h0Zm-1.455,0a.735.735,0,1,1,.735.735.724.724,0,0,1-.735-.72h0Zm-1.455,0a.735.735,0,1,1,.735.735.724.724,0,0,1-.735-.72h0Zm-1.455,0a.735.735,0,1,1,.735.735.724.724,0,0,1-.735-.72h0Zm-2.926,0a.735.735,0,1,1,.735.735.724.724,0,0,1-.735-.72h0Zm-1.455,0a.735.735,0,1,1,.735.735.724.724,0,0,1-.735-.72h0Zm69.978-1.455a.735.735,0,1,1,.735.735.724.724,0,0,1-.735-.72h0Zm-2.911,0a.735.735,0,1,1,.735.735.724.724,0,0,1-.735-.72h0Zm-1.455,0a.735.735,0,1,1,.735.735.724.724,0,0,1-.735-.72h0Zm-1.455,0a.735.735,0,1,1,.735.735.724.724,0,0,1-.735-.72h0Zm-1.455,0a.735.735,0,1,1,.735.735.724.724,0,0,1-.735-.72h0Zm-2.926,0a.735.735,0,1,1,.735.735.724.724,0,0,1-.735-.72h0Zm-2.911,0a.735.735,0,1,1,.735.735.724.724,0,0,1-.735-.72h0Zm-1.455,0a.735.735,0,1,1,.735.735.724.724,0,0,1-.735-.72h0Zm-1.455,0a.735.735,0,1,1,.735.735.724.724,0,0,1-.735-.72h0Zm-1.47,0a.735.735,0,1,1,.735.735.724.724,0,0,1-.735-.72h0Zm-1.455,0a.735.735,0,1,1,.735.735.724.724,0,0,1-.735-.72h0Zm-1.455,0a.735.735,0,1,1,.735.735.724.724,0,0,1-.735-.72h0Zm-1.455,0a.735.735,0,1,1,.735.735.724.724,0,0,1-.735-.72h0Zm-1.455,0a.735.735,0,1,1,.735.735.724.724,0,0,1-.735-.72h0Zm-2.926,0a.735.735,0,1,1,.735.735.724.724,0,0,1-.735-.72h0Zm-7.277,0a.735.735,0,1,1,.735.735.724.724,0,0,1-.735-.72h0Zm-1.47,0a.735.735,0,1,1,.735.735.724.724,0,0,1-.735-.72h0Zm-1.455,0a.735.735,0,1,1,.735.735.724.724,0,0,1-.735-.72h0Zm-2.911,0a.735.735,0,1,1,.735.735.724.724,0,0,1-.735-.72h0Zm-2.926,0a.735.735,0,1,1,.735.735.724.724,0,0,1-.735-.72h0Zm-1.455,0a.735.735,0,1,1,.735.735.724.724,0,0,1-.735-.72h0Zm-2.911,0a.735.735,0,1,1,.735.735.724.724,0,0,1-.735-.72h0Zm-1.455,0a.735.735,0,1,1,.735.735.724.724,0,0,1-.735-.72h0Zm-7.292,0a.735.735,0,1,1,.735.735.724.724,0,0,1-.735-.72h0Zm-1.455,0a.735.735,0,1,1,.735.735.724.724,0,0,1-.735-.72h0Zm-1.455,0a.735.735,0,1,1,.735.735.724.724,0,0,1-.735-.72h0Zm-1.47,0a.735.735,0,1,1,.735.735.724.724,0,0,1-.735-.72h0Zm-4.366,0a.735.735,0,1,1,.735.735.724.724,0,0,1-.735-.72h0Zm64.157-1.47a.735.735,0,1,1,.735.735.724.724,0,0,1-.735-.72h0Zm-4.381,0a.735.735,0,1,1,.735.735.724.724,0,0,1-.735-.72h0Zm-1.455,0a.735.735,0,1,1,.735.735.724.724,0,0,1-.735-.72h0Zm-1.455,0a.735.735,0,1,1,.735.735.724.724,0,0,1-.735-.72h0Zm-1.455,0a.735.735,0,1,1,.735.735.724.724,0,0,1-.735-.72h0Zm-1.47,0a.735.735,0,1,1,.735.735.724.724,0,0,1-.735-.72h0Zm-1.455,0a.735.735,0,1,1,.735.735.724.724,0,0,1-.735-.72h0Zm-1.455,0a.735.735,0,1,1,.735.735.724.724,0,0,1-.735-.72h0Zm-2.911,0a.735.735,0,1,1,.735.735.724.724,0,0,1-.735-.72h0Zm-2.926,0a.735.735,0,1,1,.735.735.724.724,0,0,1-.735-.72h0Zm-1.455,0a.735.735,0,1,1,.735.735.724.724,0,0,1-.735-.72h0Zm-4.366,0a.735.735,0,1,1,.735.735.724.724,0,0,1-.735-.72h0Zm-1.47,0a.735.735,0,1,1,.735.735.724.724,0,0,1-.735-.72h0Zm-4.366,0a.735.735,0,1,1,.735.735.724.724,0,0,1-.735-.72h0Zm-1.455,0a.735.735,0,1,1,.735.735.724.724,0,0,1-.735-.72h0Zm-1.455,0a.735.735,0,1,1,.735.735.724.724,0,0,1-.735-.72h0Zm-1.47,0a.735.735,0,1,1,.735.735.724.724,0,0,1-.735-.72h0Zm-1.455,0a.735.735,0,1,1,.735.735.724.724,0,0,1-.735-.72h0Zm-1.455,0a.735.735,0,1,1,.735.735.724.724,0,0,1-.735-.72h0Zm-1.455,0a.735.735,0,1,1,.735.735.724.724,0,0,1-.735-.72h0Zm-2.911,0a.735.735,0,1,1,.735.735.724.724,0,0,1-.735-.72h0Zm-5.837,0a.735.735,0,1,1,.735.735.724.724,0,0,1-.735-.72h0Zm-1.455,0a.735.735,0,1,1,.735.735.724.724,0,0,1-.735-.72h0Zm-1.455,0a.735.735,0,1,1,.735.735.724.724,0,0,1-.735-.72h0Zm-1.47,0a.735.735,0,1,1,.735.735.724.724,0,0,1-.735-.72h0Zm-1.455,0a.735.735,0,1,1,.735.735.724.724,0,0,1-.735-.72h0Zm-2.911,0a.735.735,0,1,1,.735.735.724.724,0,0,1-.735-.72h0Zm-1.455,0a.735.735,0,1,1,.735.735.724.724,0,0,1-.735-.72h0Zm-1.455,0a.735.735,0,1,1,.735.735.724.724,0,0,1-.735-.72h0Zm-1.47,0a.735.735,0,1,1,.735.735.724.724,0,0,1-.735-.72h0Zm-1.455,0a.735.735,0,1,1,.735.735.724.724,0,0,1-.735-.72h0Zm-1.455,0a.735.735,0,1,1,.735.735.724.724,0,0,1-.735-.72h0Zm-1.455,0a.735.735,0,1,1,.735.735.724.724,0,0,1-.735-.72h0Zm-4.381,0a.735.735,0,1,1,.735.735.724.724,0,0,1-.735-.72h0Zm67.067-1.455a.735.735,0,1,1,.735.735.724.724,0,0,1-.735-.72h0Zm-2.911,0a.735.735,0,1,1,.735.735.724.724,0,0,1-.735-.72h0Zm-5.837,0a.735.735,0,1,1,.735.735.724.724,0,0,1-.735-.72h0Zm-4.366,0a.735.735,0,1,1,.735.735.724.724,0,0,1-.735-.72h0Zm-1.455,0a.735.735,0,1,1,.735.735.724.724,0,0,1-.735-.72h0Zm-4.381,0a.735.735,0,1,1,.735.735.724.724,0,0,1-.735-.72h0Zm-1.455,0a.735.735,0,1,1,.735.735.724.724,0,0,1-.735-.72h0Zm-1.455,0a.735.735,0,1,1,.735.735.724.724,0,0,1-.735-.72h0Zm-2.926,0a.735.735,0,1,1,.735.735.724.724,0,0,1-.735-.72h0Zm-1.455,0a.735.735,0,1,1,.735.735.724.724,0,0,1-.735-.72h0Zm-2.911,0a.735.735,0,1,1,.735.735.724.724,0,0,1-.735-.72h0Zm-5.837,0a.735.735,0,1,1,.735.735.724.724,0,0,1-.735-.72h0Zm-1.455,0a.735.735,0,1,1,.735.735.724.724,0,0,1-.735-.72h0Zm-1.455,0a.735.735,0,1,1,.735.735.724.724,0,0,1-.735-.72h0Zm-4.381,0a.735.735,0,1,1,.735.735.724.724,0,0,1-.735-.72h0Zm-2.911,0a.735.735,0,1,1,.735.735.724.724,0,0,1-.735-.72h0Zm-1.455,0a.735.735,0,1,1,.735.735.724.724,0,0,1-.735-.72h0Zm-1.455,0a.735.735,0,1,1,.735.735.724.724,0,0,1-.735-.72h0Zm-1.47,0a.735.735,0,1,1,.735.735.724.724,0,0,1-.735-.72h0Zm-1.455,0a.735.735,0,1,1,.735.735.724.724,0,0,1-.735-.72h0Zm-1.455,0a.735.735,0,1,1,.735.735.724.724,0,0,1-.735-.72h0Zm-1.455,0a.735.735,0,1,1,.735.735.724.724,0,0,1-.735-.72h0Zm-1.455,0a.735.735,0,1,1,.735.735.724.724,0,0,1-.735-.72h0Zm-5.837,0a.735.735,0,1,1,.735.735.724.724,0,0,1-.735-.72h0Zm-1.455,0a.735.735,0,1,1,.735.735.724.724,0,0,1-.735-.72h0Zm-4.381,0a.735.735,0,1,1,.735.735.724.724,0,0,1-.735-.72h0Zm68.523-1.455a.735.735,0,1,1,.735.735.724.724,0,0,1-.735-.72h0Zm-1.455,0a.735.735,0,1,1,.735.735.724.724,0,0,1-.735-.72h0Zm-2.911,0a.735.735,0,1,1,.735.735.724.724,0,0,1-.735-.72h0Zm-2.911,0a.735.735,0,1,1,.735.735.724.724,0,0,1-.735-.72h0Zm-2.926,0a.735.735,0,1,1,.735.735.724.724,0,0,1-.735-.72h0Zm-4.366,0a.735.735,0,1,1,.735.735.724.724,0,0,1-.735-.72h0Zm-2.926,0a.735.735,0,1,1,.735.735.724.724,0,0,1-.735-.72h0Zm-4.366,0a.735.735,0,1,1,.735.735.724.724,0,0,1-.735-.72h0Zm-1.455,0a.735.735,0,1,1,.735.735.724.724,0,0,1-.735-.72h0Zm-7.292,0a.735.735,0,1,1,.735.735.724.724,0,0,1-.735-.72h0Zm-2.911,0a.735.735,0,1,1,.735.735.724.724,0,0,1-.735-.72h0Zm-2.926,0a.735.735,0,1,1,.735.735.724.724,0,0,1-.735-.72h0Zm-1.455,0a.735.735,0,1,1,.735.735.724.724,0,0,1-.735-.72h0Zm-2.911,0a.735.735,0,1,1,.735.735.724.724,0,0,1-.735-.72h0Zm-1.455,0a.735.735,0,1,1,.735.735.724.724,0,0,1-.735-.72h0Zm-1.47,0a.735.735,0,1,1,.735.735.724.724,0,0,1-.735-.72h0Zm-1.455,0a.735.735,0,1,1,.735.735.724.724,0,0,1-.735-.72h0Zm-4.366,0a.735.735,0,1,1,.735.735.724.724,0,0,1-.735-.72h0Zm-1.47,0a.735.735,0,1,1,.735.735.724.724,0,0,1-.735-.72h0Zm-1.455,0a.735.735,0,1,1,.735.735.724.724,0,0,1-.735-.72h0Zm-1.455,0a.735.735,0,1,1,.735.735.724.724,0,0,1-.735-.72h0Zm-1.455,0a.735.735,0,1,1,.735.735.724.724,0,0,1-.735-.72h0Zm-1.455,0a.735.735,0,1,1,.735.735.724.724,0,0,1-.735-.72h0Zm-2.926,0a.735.735,0,1,1,.735.735.724.724,0,0,1-.735-.72h0Zm-2.911,0a.735.735,0,1,1,.735.735.724.724,0,0,1-.735-.72h0Zm-5.837,0a.735.735,0,1,1,.735.735.724.724,0,0,1-.735-.72h0ZM250.25,320.8a.735.735,0,1,1,.735.735.724.724,0,0,1-.735-.72h0Zm-1.455,0a.735.735,0,1,1,.735.735.724.724,0,0,1-.735-.72h0Zm-1.47,0a.735.735,0,1,1,.735.735.724.724,0,0,1-.735-.72h0Zm-1.455,0a.735.735,0,1,1,.735.735.724.724,0,0,1-.735-.72h0Zm-1.455,0a.735.735,0,1,1,.735.735.724.724,0,0,1-.735-.72h0Zm-5.837,0a.735.735,0,1,1,.735.735.724.724,0,0,1-.735-.72h0Zm-5.822,0a.735.735,0,1,1,.735.735.724.724,0,0,1-.735-.72h0Zm-2.926,0a.735.735,0,1,1,.735.735h0a.736.736,0,0,1-.735-.735Zm-1.455,0a.735.735,0,1,1,.735.735.724.724,0,0,1-.735-.72h0Zm-1.455,0a.735.735,0,1,1,.735.735.724.724,0,0,1-.735-.72h0Zm-1.455,0a.735.735,0,1,1,.735.735.724.724,0,0,1-.735-.72h0Zm-1.455,0a.735.735,0,1,1,.735.735.724.724,0,0,1-.735-.72h0Zm-5.837,0a.735.735,0,1,1,.735.735.724.724,0,0,1-.735-.72h0Zm-5.837,0a.735.735,0,1,1,.735.735.724.724,0,0,1-.735-.72h0Zm-2.911,0a.735.735,0,1,1,.735.735.724.724,0,0,1-.735-.72h0Zm-8.747,0a.735.735,0,1,1,.735.735.724.724,0,0,1-.735-.72h0Zm-1.455,0a.735.735,0,1,1,.735.735.724.724,0,0,1-.735-.72h0Zm-1.455,0a.735.735,0,1,1,.735.735.724.724,0,0,1-.735-.72h0Zm-1.47,0a.735.735,0,1,1,.735.735.724.724,0,0,1-.735-.72h0Zm-1.455,0a.735.735,0,1,1,.735.735.724.724,0,0,1-.735-.72h0Zm-2.911,0a.735.735,0,1,1,.735.735.724.724,0,0,1-.735-.72h0Zm-5.837,0a.735.735,0,1,1,.735.735.724.724,0,0,1-.735-.72h0Zm-1.455,0a.735.735,0,1,1,.735.735.724.724,0,0,1-.735-.72h0Zm-1.455,0a.735.735,0,1,1,.735.735.724.724,0,0,1-.735-.72h0Zm-1.455,0a.735.735,0,1,1,.735.735.724.724,0,0,1-.735-.72h0Zm-1.455,0a.735.735,0,1,1,.735.735.724.724,0,0,1-.735-.72h0Zm64.127-1.47a.735.735,0,1,1,.735.735A.736.736,0,0,1,244.4,319.328Zm-1.455,0a.735.735,0,1,1,.735.735A.736.736,0,0,1,242.943,319.328Zm-1.455,0a.735.735,0,1,1,.735.735A.736.736,0,0,1,241.488,319.328Zm-1.455,0a.735.735,0,1,1,.735.735A.736.736,0,0,1,240.033,319.328Zm-1.455,0a.735.735,0,1,1,.735.735.736.736,0,0,1-.735-.735Zm-1.455,0a.735.735,0,1,1,.735.735.736.736,0,0,1-.735-.735Zm-4.381,0a.735.735,0,1,1,.735.735.736.736,0,0,1-.735-.735Zm-10.2,0a.735.735,0,1,1,.735.735.736.736,0,0,1-.735-.735Zm-2.926,0a.735.735,0,1,1,.735.735.736.736,0,0,1-.735-.735Zm-1.455,0a.735.735,0,1,1,.735.735.736.736,0,0,1-.735-.735Zm-1.455,0a.735.735,0,1,1,.735.735.736.736,0,0,1-.735-.735Zm-1.455,0a.735.735,0,1,1,.735.735.736.736,0,0,1-.735-.735Zm-1.455,0a.735.735,0,1,1,.735.735.736.736,0,0,1-.735-.735Zm-1.455,0a.735.735,0,1,1,.735.735.736.736,0,0,1-.735-.735Zm-2.926,0a.735.735,0,1,1,.735.735.736.736,0,0,1-.735-.735Zm-1.455,0a.735.735,0,1,1,.735.735.736.736,0,0,1-.735-.735Zm-5.837,0a.735.735,0,1,1,.735.735.736.736,0,0,1-.735-.735Zm-1.455,0a.735.735,0,1,1,.735.735.736.736,0,0,1-.735-.735Zm-1.455,0a.735.735,0,1,1,.735.735.736.736,0,0,1-.735-.735Zm-1.455,0a.735.735,0,1,1,.735.735.736.736,0,0,1-.735-.735Zm-1.455,0a.735.735,0,1,1,.735.735.736.736,0,0,1-.735-.735Zm-1.455,0a.735.735,0,1,1,.735.735.736.736,0,0,1-.735-.735Zm-1.47,0a.735.735,0,1,1,.735.735.736.736,0,0,1-.735-.735Zm-1.455,0a.735.735,0,1,1,.735.735.736.736,0,0,1-.735-.735Zm-1.455,0a.735.735,0,1,1,.735.735.724.724,0,0,1-.735-.72h0Zm-1.455,0a.735.735,0,1,1,.735.735.736.736,0,0,1-.735-.735Zm-1.455,0a.735.735,0,1,1,.735.735.736.736,0,0,1-.735-.735Zm-1.455,0a.735.735,0,1,1,.735.735.736.736,0,0,1-.735-.735Zm-4.381,0a.735.735,0,1,1,.735.735.736.736,0,0,1-.735-.735Zm67.067-1.455a.728.728,0,1,1,0,.015h0Zm-1.455,0a.728.728,0,1,1,0,.015h0Zm-4.381,0a.728.728,0,1,1,0,.015h0Zm-1.455,0a.728.728,0,1,1,0,.015h0Zm-1.455,0a.728.728,0,1,1,0,.015h0Zm-1.455,0a.728.728,0,1,1,0,.015h0Zm-1.455,0a.728.728,0,1,1,0,.015h0Zm-2.926,0a.728.728,0,1,1,0,.015h0Zm-1.455,0a.728.728,0,1,1,0,.015h0Zm-4.366,0a.728.728,0,1,1,0,.015h0Zm-1.47,0a.728.728,0,1,1,0,.015h0Zm-2.911,0a.728.728,0,1,1,0,.015h0Zm-1.455,0a.728.728,0,1,1,0,.015h0Zm-2.911,0a.728.728,0,1,1,0,.015h0Zm-1.47,0a.728.728,0,1,1,0,.015h0Zm-5.822,0a.728.728,0,1,1,0,.015h0Zm-1.455,0a.728.728,0,1,1,0,.015h0Zm-1.47,0a.728.728,0,1,1,0,.015h0Zm-1.455,0a.728.728,0,1,1,0,.015h0Zm-1.455,0a.728.728,0,1,1,0,.015h0Zm-2.911,0a.728.728,0,1,1,0,.015h0Zm-1.47,0a.728.728,0,1,1,0,.015h0Zm-2.911,0a.728.728,0,1,1,0,.015h0Zm-2.911,0a.728.728,0,1,1,0,.015h0Zm-4.381,0a.728.728,0,1,1,0,.015h0Zm-5.822,0a.728.728,0,1,1,0,.015h0Zm-1.47,0a.728.728,0,1,1,0,.015h0Zm-1.455,0a.728.728,0,1,1,0,.015h0Zm-1.455,0a.728.728,0,1,1,0,.015h0Zm-1.455,0a.728.728,0,1,1,0,.015h0Zm67.067-1.455a.728.728,0,1,1,0,.015h0Zm-1.455,0a.728.728,0,1,1,0,.015h0Zm-2.926,0a.728.728,0,1,1,0,.015h0Zm-4.366,0a.728.728,0,1,1,0,.015h0Zm-1.455,0a.728.728,0,1,1,0,.015h0Zm-1.47,0a.735.735,0,1,1,.735.735.724.724,0,0,1-.735-.72h0Zm-4.366,0a.728.728,0,1,1,0,.015h0Zm-1.455,0a.728.728,0,1,1,0,.015h0Zm-1.455,0a.728.728,0,1,1,0,.015h0Zm-4.381,0a.728.728,0,1,1,0,.015h0Zm-4.366,0a.728.728,0,1,1,0,.015h0Zm-10.218,0a.728.728,0,1,1,0,.015h0Zm-4.366,0a.728.728,0,1,1,0,.015h0Zm-4.381,0a.728.728,0,1,1,0,.015h0Zm-4.366,0a.728.728,0,1,1,0,.015h0Zm-7.292,0a.728.728,0,1,1,0,.015h0Zm-2.911,0a.728.728,0,1,1,0,.015h0Zm-4.381,0a.728.728,0,1,1,0,.015h0Zm-1.455,0a.728.728,0,1,1,0,.015h0Zm69.978-1.455a.728.728,0,1,1,0,.015h0Zm-2.911,0a.728.728,0,1,1,0,.015h0Zm-1.455,0a.728.728,0,1,1,0,.015h0Zm-1.455,0a.728.728,0,1,1,0,.015h0Zm-10.218,0a.735.735,0,1,1,.735.735.724.724,0,0,1-.735-.72h0Zm-4.366,0a.735.735,0,1,1,.735.735.724.724,0,0,1-.735-.72h0Zm-2.911,0a.735.735,0,1,1,.735.735.724.724,0,0,1-.735-.72h0Zm-4.381,0a.735.735,0,1,1,.735.735.724.724,0,0,1-.735-.72h0Zm-2.911,0a.735.735,0,1,1,.735.735.724.724,0,0,1-.735-.72h0Zm-1.47,0a.735.735,0,1,1,.735.735.724.724,0,0,1-.735-.72h0Zm-4.366,0a.735.735,0,1,1,.735.735.724.724,0,0,1-.735-.72h0Zm-2.911,0a.735.735,0,1,1,.735.735.724.724,0,0,1-.735-.72h0Zm-1.47,0a.735.735,0,1,1,.735.735.724.724,0,0,1-.735-.72h0Zm-2.911,0a.735.735,0,1,1,.735.735.724.724,0,0,1-.735-.72h0Zm-1.455,0a.735.735,0,1,1,.735.735.724.724,0,0,1-.735-.72h0Zm-1.455,0a.735.735,0,1,1,.735.735.724.724,0,0,1-.735-.72h0Zm-5.837,0a.735.735,0,1,1,.735.735.724.724,0,0,1-.735-.72h0Zm-4.366,0a.735.735,0,1,1,.735.735.724.724,0,0,1-.735-.72h0Zm-2.926,0a.735.735,0,1,1,.735.735.724.724,0,0,1-.735-.72h0Zm-2.911,0a.735.735,0,1,1,.735.735.724.724,0,0,1-.735-.72h0Zm-4.381,0a.735.735,0,1,1,.735.735.724.724,0,0,1-.735-.72h0Zm-1.455,0a.735.735,0,1,1,.735.735.724.724,0,0,1-.735-.72h0Zm-1.455,0a.728.728,0,1,1,0,.015h0Zm68.523-1.455a.735.735,0,1,1,.735.735.724.724,0,0,1-.735-.72h0Zm-5.837,0a.735.735,0,1,1,.735.735.724.724,0,0,1-.735-.72h0Zm-5.822,0a.735.735,0,1,1,.735.735.724.724,0,0,1-.735-.72h0Zm-1.455,0a.735.735,0,1,1,.735.735.724.724,0,0,1-.735-.72h0Zm-2.926,0a.735.735,0,1,1,.735.735.724.724,0,0,1-.735-.72h0Zm-1.455,0a.735.735,0,1,1,.735.735.724.724,0,0,1-.735-.72h0Zm-1.455,0a.728.728,0,1,1,.72.735h0a.736.736,0,0,1-.735-.735h0Zm-2.911,0a.735.735,0,1,1,.735.735.724.724,0,0,1-.735-.72h0Zm-1.47,0a.728.728,0,1,1,0,.015h0Zm-1.455,0a.735.735,0,1,1,.735.735.724.724,0,0,1-.735-.72h0Zm-2.911,0a.735.735,0,1,1,.735.735.724.724,0,0,1-.735-.72h0Zm-10.2,0a.735.735,0,1,1,.735.735.724.724,0,0,1-.735-.72h0Zm-1.455,0a.735.735,0,1,1,.735.735.724.724,0,0,1-.735-.72h0Zm-1.47,0a.735.735,0,1,1,.735.735.724.724,0,0,1-.735-.72h0Zm-1.455,0a.735.735,0,1,1,.735.735.724.724,0,0,1-.735-.72h0Zm-8.747,0a.735.735,0,1,1,.735.735.724.724,0,0,1-.735-.72h0Zm-1.455,0a.735.735,0,1,1,.735.735.724.724,0,0,1-.735-.72h0Zm-2.911,0a.735.735,0,1,1,.735.735.724.724,0,0,1-.735-.72h0Zm-2.926,0a.735.735,0,1,1,.735.735.724.724,0,0,1-.735-.72h0Zm-1.455,0a.735.735,0,1,1,.735.735.724.724,0,0,1-.735-.72h0Zm-4.366,0a.728.728,0,1,1,.72.735h0a.736.736,0,0,1-.735-.735h0Zm-1.47,0a.735.735,0,1,1,.735.735.724.724,0,0,1-.735-.72h0Zm-2.911,0a.728.728,0,1,1,0,.015h0Zm65.612-1.455a.735.735,0,1,1,.735.735.724.724,0,0,1-.735-.72h0Zm-1.455,0a.735.735,0,1,1,.735.735.724.724,0,0,1-.735-.72h0Zm-4.381,0a.735.735,0,1,1,.735.735.724.724,0,0,1-.735-.72h0Zm-4.366,0a.735.735,0,1,1,.735.735.724.724,0,0,1-.735-.72h0Zm-4.381,0a.735.735,0,1,1,.735.735.724.724,0,0,1-.735-.72h0Zm-1.455,0a.735.735,0,1,1,.735.735.724.724,0,0,1-.735-.72h0Zm-4.381,0a.728.728,0,1,1,0,.015h0Zm-7.277,0a.735.735,0,1,1,.735.735.724.724,0,0,1-.735-.72h0Zm-1.47,0a.735.735,0,1,1,.735.735.724.724,0,0,1-.735-.72h0Zm-1.455,0a.735.735,0,1,1,.735.735.724.724,0,0,1-.735-.72h0Zm-5.822,0a.735.735,0,1,1,.735.735.724.724,0,0,1-.735-.72h0Zm-1.47,0a.735.735,0,1,1,.735.735.724.724,0,0,1-.735-.72h0Zm-2.911,0a.735.735,0,1,1,.735.735.724.724,0,0,1-.735-.72h0Zm-1.455,0a.735.735,0,1,1,.735.735.724.724,0,0,1-.735-.72h0Zm-1.455,0a.735.735,0,1,1,.735.735.724.724,0,0,1-.735-.72h0Zm-1.455,0a.735.735,0,1,1,.735.735.724.724,0,0,1-.735-.72h0Zm-1.47,0a.735.735,0,1,1,.735.735.724.724,0,0,1-.735-.72h0Zm-5.822,0a.735.735,0,1,1,.735.735.724.724,0,0,1-.735-.72h0Zm-1.455,0a.735.735,0,1,1,.735.735.724.724,0,0,1-.735-.72h0Zm-1.47,0a.735.735,0,1,1,.735.735.724.724,0,0,1-.735-.72h0Zm-5.822,0a.735.735,0,1,1,.735.735.724.724,0,0,1-.735-.72h0Zm-2.926,0a.735.735,0,1,1,.735.735.724.724,0,0,1-.735-.72h0Zm-1.455,0a.735.735,0,1,1,.735.735.724.724,0,0,1-.735-.72h0Zm67.067-1.47a.735.735,0,1,1,.735.735.724.724,0,0,1-.735-.72h0Zm-1.455,0a.735.735,0,1,1,.735.735.724.724,0,0,1-.735-.72h0Zm-2.911,0a.735.735,0,1,1,.735.735.724.724,0,0,1-.735-.72h0Zm-2.926,0a.735.735,0,1,1,.735.735.724.724,0,0,1-.735-.72h0Zm-1.455,0a.735.735,0,1,1,.735.735.724.724,0,0,1-.735-.72h0Zm-1.455,0a.735.735,0,1,1,.735.735.724.724,0,0,1-.735-.72h0Zm-2.911,0a.735.735,0,1,1,.735.735.724.724,0,0,1-.735-.72h0Zm-4.381,0a.735.735,0,1,1,.735.735.724.724,0,0,1-.735-.72h0Zm-2.911,0a.735.735,0,1,1,.735.735.724.724,0,0,1-.735-.72h0Zm-4.381,0a.735.735,0,1,1,.735.735.724.724,0,0,1-.735-.72h0Zm-2.911,0a.735.735,0,1,1,.735.735.724.724,0,0,1-.735-.72h0Zm-1.455,0a.735.735,0,1,1,.735.735.724.724,0,0,1-.735-.72h0Zm-1.455,0a.735.735,0,1,1,.735.735.724.724,0,0,1-.735-.72h0Zm-4.381,0a.735.735,0,1,1,.735.735.724.724,0,0,1-.735-.72h0Zm-7.292,0a.735.735,0,1,1,.735.735.724.724,0,0,1-.735-.72h0Zm-2.911,0a.735.735,0,1,1,.735.735.724.724,0,0,1-.735-.72h0Zm-1.455,0a.735.735,0,1,1,.735.735.724.724,0,0,1-.735-.72h0Zm-1.47,0a.735.735,0,1,1,.735.735.724.724,0,0,1-.735-.72h0Zm-1.455,0a.735.735,0,1,1,.735.735.724.724,0,0,1-.735-.72h0Zm-2.911,0a.735.735,0,1,1,.735.735.724.724,0,0,1-.735-.72h0Zm-5.837,0a.735.735,0,1,1,.735.735.724.724,0,0,1-.735-.72h0Zm-1.455,0a.735.735,0,1,1,.735.735.724.724,0,0,1-.735-.72h0Zm-1.455,0a.735.735,0,1,1,.735.735.724.724,0,0,1-.735-.72h0Zm-2.911,0a.735.735,0,1,1,.735.735.724.724,0,0,1-.735-.72h0Zm-2.926,0a.735.735,0,1,1,.735.735.724.724,0,0,1-.735-.72h0Zm68.523-1.44a.735.735,0,1,1,.735.735A.736.736,0,0,1,248.78,309.141Zm-1.455,0a.735.735,0,1,1,.735.735A.736.736,0,0,1,247.324,309.141Zm-1.455,0a.735.735,0,1,1,.735.735A.736.736,0,0,1,245.869,309.141Zm-1.47,0a.735.735,0,1,1,.735.735A.736.736,0,0,1,244.4,309.141Zm-1.455,0a.735.735,0,1,1,.735.735A.736.736,0,0,1,242.943,309.141Zm-4.366,0a.735.735,0,1,1,.735.735.736.736,0,0,1-.735-.735Zm-1.455,0a.735.735,0,1,1,.735.735.736.736,0,0,1-.735-.735Zm-2.926,0a.735.735,0,1,1,.735.735.736.736,0,0,1-.735-.735Zm-4.366,0a.735.735,0,1,1,.735.735.736.736,0,0,1-.735-.735Zm-1.47,0a.735.735,0,1,1,.735.735.736.736,0,0,1-.735-.735Zm-1.455,0a.735.735,0,1,1,.735.735.736.736,0,0,1-.735-.735Zm-1.455,0a.735.735,0,1,1,.735.735.724.724,0,0,1-.72-.735h0Zm-1.455,0a.735.735,0,1,1,.735.735.736.736,0,0,1-.735-.735Zm-2.911,0a.735.735,0,1,1,.735.735.736.736,0,0,1-.735-.735Zm-1.47,0a.735.735,0,1,1,.735.735.736.736,0,0,1-.735-.735Zm-8.747,0a.735.735,0,1,1,.735.735.736.736,0,0,1-.735-.735Zm-1.455,0a.735.735,0,1,1,.735.735.736.736,0,0,1-.735-.735Zm-1.455,0a.735.735,0,1,1,.735.735.736.736,0,0,1-.735-.735Zm-4.366,0a.735.735,0,1,1,.735.735.736.736,0,0,1-.735-.735Zm-1.47,0a.735.735,0,1,1,.735.735.736.736,0,0,1-.735-.735Zm-1.455,0a.735.735,0,1,1,.735.735.736.736,0,0,1-.735-.735Zm-1.455,0a.735.735,0,1,1,.735.735.736.736,0,0,1-.735-.735Zm-2.911,0a.735.735,0,1,1,.735.735.736.736,0,0,1-.735-.735Zm-2.926,0a.735.735,0,1,1,.735.735.736.736,0,0,1-.735-.735Zm-1.455,0a.735.735,0,1,1,.735.735.736.736,0,0,1-.735-.735Zm-4.366,0a.735.735,0,1,1,.735.735.736.736,0,0,1-.735-.735Zm-5.837,0a.735.735,0,1,1,.735.735.736.736,0,0,1-.735-.735Zm67.067-1.47a.735.735,0,1,1,.735.735.736.736,0,0,1-.735-.735Zm-1.455,0a.735.735,0,1,1,.735.735.736.736,0,0,1-.735-.735Zm-4.381,0a.735.735,0,1,1,.735.735.736.736,0,0,1-.735-.735Zm-1.455,0a.735.735,0,1,1,.735.735.736.736,0,0,1-.735-.735Zm-2.911,0a.728.728,0,1,1,0,.015h0Zm-7.292,0a.728.728,0,1,1,0,.015h0Zm-2.911,0a.728.728,0,1,1,0,.015h0Zm-1.47,0a.728.728,0,1,1,0,.015h0Zm-1.455,0a.735.735,0,1,1,.735.735.714.714,0,0,1-.72-.735h0Zm-2.911,0a.728.728,0,1,1,0,.015h0Zm-2.911,0a.728.728,0,1,1,0,.015h0Zm-7.292,0a.728.728,0,1,1,0,.015h0Zm-1.455,0a.728.728,0,1,1,0,.015h0Zm-5.837,0a.728.728,0,1,1,0,.015h0Zm-4.381,0a.728.728,0,1,1,0,.015h0Zm-7.292,0a.728.728,0,1,1,0,.015h0Zm-2.911,0a.735.735,0,1,1,.735.735.724.724,0,0,1-.735-.72h0Zm-1.455,0a.728.728,0,1,1,0,.015h0Zm-1.455,0a.728.728,0,1,1,0,.015h0Zm-1.455,0a.728.728,0,1,1,0,.015h0Zm-2.926,0a.728.728,0,1,1,0,.015h0Zm67.067-1.455a.728.728,0,1,1,0,.015h0Zm-2.911,0a.728.728,0,1,1,0,.015h0Zm-7.292,0a.728.728,0,1,1,0,.015h0Zm-8.747,0a.728.728,0,1,1,0,.015h0Zm-2.911,0a.728.728,0,1,1,0,.015h0Zm-4.381,0a.728.728,0,1,1,0,.015h0Zm-7.292,0a.728.728,0,1,1,0,.015h0Zm-1.455,0a.728.728,0,1,1,0,.015h0Zm-1.455,0a.728.728,0,1,1,0,.015h0Zm-5.837,0a.728.728,0,1,1,0,.015h0Zm-1.455,0a.728.728,0,1,1,0,.015h0Zm-1.455,0a.728.728,0,1,1,0,.015h0Zm-1.455,0a.728.728,0,1,1,0,.015h0Zm-4.381,0a.728.728,0,1,1,0,.015h0Zm-2.911,0a.728.728,0,1,1,0,.015h0Zm-2.911,0a.728.728,0,1,1,0,.015h0Zm-2.926,0a.735.735,0,1,1,.735.735.724.724,0,0,1-.735-.72h0Zm-4.366,0a.728.728,0,1,1,0,.015h0Zm-5.837,0a.735.735,0,1,1,.735.735.736.736,0,0,1-.735-.735Zm68.523-1.455a.728.728,0,1,1,0,.015h0Zm-4.366,0a.728.728,0,1,1,0,.015h0Zm-4.381,0a.728.728,0,1,1,0,.015h0Zm-5.837,0a.735.735,0,1,1,.735.735.724.724,0,0,1-.735-.72h0Zm-2.911,0a.735.735,0,1,1,.735.735.724.724,0,0,1-.735-.72h0Zm-1.455,0a.735.735,0,1,1,.735.735.724.724,0,0,1-.735-.72h0Zm-1.455,0a.735.735,0,1,1,.735.735.724.724,0,0,1-.735-.72h0Zm-1.455,0a.735.735,0,1,1,.735.735.724.724,0,0,1-.735-.72h0Zm-1.47,0a.735.735,0,1,1,.735.735.736.736,0,0,1-.735-.735Zm-5.822,0a.735.735,0,1,1,.735.735.724.724,0,0,1-.735-.72h0Zm-2.926,0a.735.735,0,1,1,.735.735.724.724,0,0,1-.735-.72h0Zm-1.455,0a.735.735,0,1,1,.735.735.724.724,0,0,1-.735-.72h0Zm-2.911,0a.735.735,0,1,1,.735.735.724.724,0,0,1-.735-.72h0Zm-1.455,0a.735.735,0,1,1,.735.735.724.724,0,0,1-.735-.72h0Zm-2.926,0a.735.735,0,1,1,.735.735.724.724,0,0,1-.735-.72h0Zm-2.911,0a.735.735,0,1,1,.735.735.724.724,0,0,1-.735-.72h0Zm-1.455,0a.735.735,0,1,1,.735.735.724.724,0,0,1-.735-.72h0Zm-2.926,0a.735.735,0,1,1,.735.735.724.724,0,0,1-.735-.72h0Zm-2.911,0a.735.735,0,1,1,.735.735.724.724,0,0,1-.735-.72h0Zm-1.455,0a.735.735,0,1,1,.735.735.724.724,0,0,1-.735-.72h0Zm-1.455,0a.735.735,0,1,1,.735.735.724.724,0,0,1-.735-.72h0Zm-4.381,0a.735.735,0,1,1,.735.735.724.724,0,0,1-.735-.72h0Zm-1.455,0a.735.735,0,1,1,.735.735.724.724,0,0,1-.735-.72h0Zm-1.455,0a.735.735,0,1,1,.735.735.724.724,0,0,1-.735-.72h0Zm-2.911,0a.735.735,0,1,1,.735.735.724.724,0,0,1-.735-.72h0Zm-1.47,0a.735.735,0,1,1,.735.735.724.724,0,0,1-.735-.72h0Zm-1.455,0a.735.735,0,1,1,.735.735.724.724,0,0,1-.735-.72h0Zm-1.455,0a.728.728,0,1,1,0,.015h0Zm69.978-1.455a.735.735,0,1,1,.735.735.724.724,0,0,1-.735-.72h0Zm-1.455,0a.735.735,0,1,1,.735.735.724.724,0,0,1-.735-.72h0Zm-4.366,0a.735.735,0,1,1,.735.735.724.724,0,0,1-.735-.72h0Zm-1.47,0a.735.735,0,1,1,.735.735.724.724,0,0,1-.735-.72h0Zm-4.366,0a.735.735,0,1,1,.735.735.724.724,0,0,1-.735-.72h0Zm-4.381,0a.735.735,0,1,1,.735.735.724.724,0,0,1-.735-.72h0Zm-1.455,0a.735.735,0,1,1,.735.735.724.724,0,0,1-.735-.72h0Zm-2.911,0a.735.735,0,1,1,.735.735.724.724,0,0,1-.735-.72h0Zm-2.911,0a.735.735,0,1,1,.735.735.724.724,0,0,1-.735-.72h0Zm-1.47,0a.735.735,0,1,1,.735.735.736.736,0,0,1-.735-.735Zm-2.911,0a.735.735,0,1,1,.735.735.724.724,0,0,1-.735-.72h0Zm-2.911,0a.735.735,0,1,1,.735.735.724.724,0,0,1-.735-.72h0Zm-5.837,0a.735.735,0,1,1,.735.735.724.724,0,0,1-.735-.72h0Zm-4.366,0a.735.735,0,1,1,.735.735.724.724,0,0,1-.735-.72h0Zm-5.837,0a.735.735,0,1,1,.735.735.724.724,0,0,1-.735-.72h0Zm-4.381,0a.735.735,0,1,1,.735.735.724.724,0,0,1-.735-.72h0Zm-2.911,0a.735.735,0,1,1,.735.735.724.724,0,0,1-.735-.72h0Zm-1.455,0a.735.735,0,1,1,.735.735.724.724,0,0,1-.735-.72h0Zm-1.455,0a.735.735,0,1,1,.735.735.724.724,0,0,1-.735-.72h0Zm-1.47,0a.735.735,0,1,1,.735.735.724.724,0,0,1-.735-.72h0Zm-10.2,0a.735.735,0,1,1,.735.735.724.724,0,0,1-.735-.72h0Zm68.523-1.455a.735.735,0,1,1,.735.735.724.724,0,0,1-.735-.72h0Zm-7.277,0a.735.735,0,1,1,.735.735.724.724,0,0,1-.735-.72h0Zm-8.747,0a.735.735,0,1,1,.735.735.724.724,0,0,1-.735-.72h0Zm-4.381,0a.735.735,0,1,1,.735.735.724.724,0,0,1-.735-.72h0Zm-2.911,0a.735.735,0,1,1,.735.735.724.724,0,0,1-.735-.72h0Zm-1.47,0a.728.728,0,1,1,0,.015h0Zm-1.455,0a.735.735,0,1,1,.735.735.724.724,0,0,1-.735-.72h0Zm-1.455,0a.735.735,0,1,1,.735.735.724.724,0,0,1-.735-.72h0Zm-2.911,0a.735.735,0,1,1,.735.735.724.724,0,0,1-.735-.72h0Zm-1.455,0a.735.735,0,1,1,.735.735.724.724,0,0,1-.735-.72h0Zm-1.47,0a.735.735,0,1,1,.735.735.724.724,0,0,1-.735-.72h0Zm-5.822,0a.735.735,0,1,1,.735.735.724.724,0,0,1-.735-.72h0Zm-1.455,0a.735.735,0,1,1,.735.735.724.724,0,0,1-.735-.72h0Zm-2.926,0a.735.735,0,1,1,.735.735.724.724,0,0,1-.735-.72h0Zm-1.455,0a.735.735,0,1,1,.735.735.724.724,0,0,1-.735-.72h0Zm-1.455,0a.735.735,0,1,1,.735.735.724.724,0,0,1-.735-.72h0Zm-2.911,0a.735.735,0,1,1,.735.735.724.724,0,0,1-.735-.72h0Zm-4.381,0a.735.735,0,1,1,.735.735.724.724,0,0,1-.735-.72h0Zm-7.292,0a.735.735,0,1,1,.735.735.724.724,0,0,1-.735-.72h0Zm-5.822,0a.735.735,0,1,1,.735.735.724.724,0,0,1-.735-.72h0Zm-2.926,0a.735.735,0,1,1,.735.735.724.724,0,0,1-.735-.72h0Zm68.523-1.455a.735.735,0,1,1,.735.735.724.724,0,0,1-.735-.72h0Zm-1.455,0a.735.735,0,1,1,.735.735.724.724,0,0,1-.735-.72h0Zm-1.455,0a.735.735,0,1,1,.735.735.724.724,0,0,1-.735-.72h0Zm-1.455,0a.735.735,0,1,1,.735.735.724.724,0,0,1-.735-.72h0Zm-4.381,0a.735.735,0,1,1,.735.735.724.724,0,0,1-.735-.72h0Zm-1.455,0a.735.735,0,1,1,.735.735.724.724,0,0,1-.735-.72h0Zm-1.455,0a.735.735,0,1,1,.735.735.724.724,0,0,1-.735-.72h0Zm-1.455,0a.735.735,0,1,1,.735.735.724.724,0,0,1-.735-.72h0Zm-1.455,0a.735.735,0,1,1,.735.735.724.724,0,0,1-.735-.72h0Zm-1.47,0a.735.735,0,1,1,.735.735.724.724,0,0,1-.735-.72h0Zm-1.455,0a.735.735,0,1,1,.735.735.724.724,0,0,1-.735-.72h0Zm-1.455,0a.735.735,0,1,1,.735.735.724.724,0,0,1-.735-.72h0Zm-5.837,0a.735.735,0,1,1,.735.735.724.724,0,0,1-.735-.72h0Zm-2.911,0a.735.735,0,1,1,.735.735.724.724,0,0,1-.735-.72h0Zm-1.455,0a.735.735,0,1,1,.735.735.724.724,0,0,1-.735-.72h0Zm-1.455,0a.735.735,0,1,1,.735.735.724.724,0,0,1-.735-.72h0Zm-1.455,0a.735.735,0,1,1,.735.735.724.724,0,0,1-.735-.72h0Zm-1.47,0a.735.735,0,1,1,.735.735.724.724,0,0,1-.735-.72h0Zm-2.911,0a.735.735,0,1,1,.735.735.724.724,0,0,1-.735-.72h0Zm-2.911,0a.735.735,0,1,1,.735.735.724.724,0,0,1-.735-.72h0Zm-2.926,0a.735.735,0,1,1,.735.735.724.724,0,0,1-.735-.72h0Zm-1.455,0a.735.735,0,1,1,.735.735.724.724,0,0,1-.735-.72h0Zm-5.837,0a.735.735,0,1,1,.735.735.724.724,0,0,1-.735-.72h0Zm-1.455,0a.735.735,0,1,1,.735.735.724.724,0,0,1-.735-.72h0Zm-4.366,0a.735.735,0,1,1,.735.735.724.724,0,0,1-.735-.72h0Zm-1.455,0a.735.735,0,1,1,.735.735.724.724,0,0,1-.735-.72h0Zm-5.837,0a.735.735,0,1,1,.735.735.724.724,0,0,1-.735-.72h0Zm-1.455,0a.735.735,0,1,1,.735.735.724.724,0,0,1-.735-.72h0Zm-1.455,0a.735.735,0,1,1,.735.735.724.724,0,0,1-.735-.72h0Zm-1.47,0a.735.735,0,1,1,.735.735.724.724,0,0,1-.735-.72h0Zm67.067-1.47a.735.735,0,1,1,.735.735.724.724,0,0,1-.735-.72h0Zm-1.455,0a.735.735,0,1,1,.735.735.724.724,0,0,1-.735-.72h0Zm-1.455,0a.735.735,0,1,1,.735.735.724.724,0,0,1-.735-.72h0Zm-2.911,0a.735.735,0,1,1,.735.735.724.724,0,0,1-.735-.72h0Zm-2.926,0a.735.735,0,1,1,.735.735.724.724,0,0,1-.735-.72h0Zm-1.455,0a.735.735,0,1,1,.735.735.724.724,0,0,1-.735-.72h0Zm-1.455,0a.735.735,0,1,1,.735.735.724.724,0,0,1-.735-.72h0Zm-1.455,0a.735.735,0,1,1,.735.735.724.724,0,0,1-.735-.72h0Zm-2.926,0a.735.735,0,1,1,.735.735.724.724,0,0,1-.735-.72h0Zm-5.822,0a.735.735,0,1,1,.735.735.724.724,0,0,1-.735-.72h0Zm-4.381,0a.735.735,0,1,1,.735.735.724.724,0,0,1-.735-.72h0Zm-4.366,0a.735.735,0,1,1,.735.735.724.724,0,0,1-.735-.72h0Zm-1.455,0a.735.735,0,1,1,.735.735.724.724,0,0,1-.735-.72h0Zm-1.47,0a.735.735,0,1,1,.735.735.724.724,0,0,1-.735-.72h0Zm-1.455,0a.735.735,0,1,1,.735.735.724.724,0,0,1-.735-.72h0Zm-1.455,0a.735.735,0,1,1,.735.735.724.724,0,0,1-.735-.72h0Zm-2.911,0a.735.735,0,1,1,.735.735.724.724,0,0,1-.735-.72h0Zm-1.455,0a.735.735,0,1,1,.735.735.724.724,0,0,1-.735-.72h0Zm-1.47,0a.735.735,0,1,1,.735.735.724.724,0,0,1-.735-.72h0Zm-4.366,0a.735.735,0,1,1,.735.735.724.724,0,0,1-.735-.72h0Zm-2.911,0a.735.735,0,1,1,.735.735.724.724,0,0,1-.735-.72h0Zm-1.47,0a.735.735,0,1,1,.735.735.724.724,0,0,1-.735-.72h0Zm-2.911,0a.735.735,0,1,1,.735.735.724.724,0,0,1-.735-.72h0Zm-1.455,0a.735.735,0,1,1,.735.735.724.724,0,0,1-.735-.72h0Zm-4.381,0a.735.735,0,1,1,.735.735.724.724,0,0,1-.735-.72h0Zm-5.822,0a.735.735,0,1,1,.735.735.724.724,0,0,1-.735-.72h0Zm-1.47,0a.735.735,0,1,1,.735.735.724.724,0,0,1-.735-.72h0Zm56.865-1.455a.735.735,0,1,1,.735.735.724.724,0,0,1-.735-.72h0Zm-1.455,0a.735.735,0,1,1,.735.735.724.724,0,0,1-.735-.72h0Zm-2.911,0a.735.735,0,1,1,.735.735.724.724,0,0,1-.735-.72h0Zm-8.747,0a.735.735,0,1,1,.735.735.724.724,0,0,1-.735-.72h0Zm-4.381,0a.735.735,0,1,1,.735.735.724.724,0,0,1-.735-.72h0Zm-2.911,0a.735.735,0,1,1,.735.735.724.724,0,0,1-.735-.72h0Zm-5.837,0a.735.735,0,1,1,.735.735.724.724,0,0,1-.735-.72h0Zm-1.455,0a.735.735,0,1,1,.735.735.724.724,0,0,1-.735-.72h0Zm-2.911,0a.735.735,0,1,1,.735.735.724.724,0,0,1-.735-.72h0Zm-8.747,0a.735.735,0,1,1,.735.735.724.724,0,0,1-.735-.72h0Zm-1.47,0a.735.735,0,1,1,.735.735.724.724,0,0,1-.735-.72h0Zm-1.455,0a.735.735,0,1,1,.735.735.724.724,0,0,1-.735-.72h0Zm-2.911,0a.735.735,0,1,1,.735.735.724.724,0,0,1-.735-.72h0Zm45.192-1.455a.735.735,0,1,1,.735.735.724.724,0,0,1-.735-.72h0Zm-2.911,0a.735.735,0,1,1,.735.735.724.724,0,0,1-.735-.72v-.015h0Zm-2.911,0a.735.735,0,1,1,.735.735.724.724,0,0,1-.735-.72h0Zm-2.926,0a.728.728,0,1,1,.735.72h-.015a.733.733,0,0,1-.735-.72h0Zm-2.911,0a.735.735,0,1,1,.735.735.724.724,0,0,1-.735-.72h0Zm-2.911,0a.735.735,0,1,1,.735.735.724.724,0,0,1-.735-.72h0Zm-2.926,0a.735.735,0,1,1,.735.735.724.724,0,0,1-.735-.72h0Zm-2.911,0a.735.735,0,1,1,.735.735.724.724,0,0,1-.735-.72h0Zm-2.911,0a.735.735,0,1,1,.735.735.724.724,0,0,1-.735-.72h0Zm-2.926,0a.735.735,0,1,1,.735.735.724.724,0,0,1-.735-.72h0Zm-2.911,0a.735.735,0,1,1,.735.735.724.724,0,0,1-.735-.72h0Zm-2.911,0a.735.735,0,1,1,.735.735.724.724,0,0,1-.735-.72h0Zm-2.926,0a.735.735,0,1,1,.735.735.724.724,0,0,1-.735-.72h0Zm-2.911,0a.735.735,0,1,1,.735.735.724.724,0,0,1-.735-.72h0Zm-2.926,0a.735.735,0,1,1,.735.735.724.724,0,0,1-.735-.72h0Zm-2.911,0a.735.735,0,1,1,.735.735.724.724,0,0,1-.735-.72h0Zm-2.911,0a.735.735,0,1,1,.735.735.724.724,0,0,1-.735-.72h0Zm43.721-1.455a.735.735,0,1,1,.735.735A.736.736,0,0,1,235.651,294.557Zm-2.911,0a.735.735,0,1,1,.735.735.724.724,0,0,1-.72-.735h0Zm-2.926,0a.735.735,0,1,1,.735.735.724.724,0,0,1-.72-.735h0Zm-1.455,0a.735.735,0,1,1,.735.735.724.724,0,0,1-.72-.735h0Zm-2.911,0a.735.735,0,1,1,.735.735.724.724,0,0,1-.72-.735h0Zm-1.455,0a.735.735,0,1,1,.735.735.724.724,0,0,1-.72-.735h0Zm-2.926,0a.735.735,0,1,1,.735.735.724.724,0,0,1-.72-.735h0Zm-1.455,0a.735.735,0,1,1,.735.735.724.724,0,0,1-.72-.735h0Zm-1.455,0a.735.735,0,1,1,.735.735.724.724,0,0,1-.72-.735h0Zm-5.837,0a.735.735,0,1,1,.735.735.724.724,0,0,1-.72-.735h0Zm-1.455,0a.735.735,0,1,1,.735.735.724.724,0,0,1-.72-.735h0Zm-1.455,0a.735.735,0,1,1,.735.735.724.724,0,0,1-.72-.735h0Zm-1.455,0a.735.735,0,1,1,.735.735.724.724,0,0,1-.72-.735h0Zm-5.837,0a.735.735,0,1,1,.735.735.724.724,0,0,1-.72-.735h0Zm-2.911,0a.735.735,0,1,1,.735.735.724.724,0,0,1-.72-.735h0Zm-4.381,0a.735.735,0,1,1,.735.735.724.724,0,0,1-.72-.735h0Zm-1.455,0a.735.735,0,1,1,.735.735.724.724,0,0,1-.72-.735h0Zm-1.455,0a.735.735,0,1,1,.735.735.724.724,0,0,1-.72-.735h0Zm42.281-1.47a.735.735,0,1,1,.735.735.724.724,0,0,1-.72-.735h0Zm-2.911,0a.735.735,0,1,1,.735.735.724.724,0,0,1-.72-.735h0Zm-1.47,0a.735.735,0,1,1,.735.735.724.724,0,0,1-.72-.735h0Zm-1.455,0a.735.735,0,1,1,.735.735.724.724,0,0,1-.72-.735h0Zm-1.455,0a.735.735,0,1,1,.735.735.724.724,0,0,1-.72-.735h0Zm-5.837,0a.735.735,0,1,1,.735.735.724.724,0,0,1-.72-.735h0Zm-1.455,0a.735.735,0,1,1,.735.735.724.724,0,0,1-.72-.735h0Zm-1.455,0a.735.735,0,1,1,.735.735.724.724,0,0,1-.72-.735h0Zm-1.455,0a.735.735,0,1,1,.735.735.724.724,0,0,1-.72-.735h0Zm-1.455,0a.735.735,0,1,1,.735.735.724.724,0,0,1-.72-.735h0Zm-1.455,0a.735.735,0,1,1,.735.735.724.724,0,0,1-.72-.735h0Zm-1.47,0a.735.735,0,1,1,.735.735.724.724,0,0,1-.72-.735h0Zm-2.911,0a.735.735,0,1,1,.735.735.724.724,0,0,1-.72-.735h0Zm-1.455,0a.735.735,0,1,1,.735.735.724.724,0,0,1-.72-.735h0Zm-1.455,0a.735.735,0,1,1,.735.735.724.724,0,0,1-.72-.735h0Zm-1.455,0a.735.735,0,1,1,.735.735.724.724,0,0,1-.72-.735h0Zm-2.926,0a.735.735,0,1,1,.735.735.724.724,0,0,1-.72-.735h0Zm-4.366,0a.735.735,0,1,1,.735.735.724.724,0,0,1-.72-.735h0Zm-1.455,0a.735.735,0,1,1,.735.735.724.724,0,0,1-.72-.735h0Zm-1.47,0a.735.735,0,1,1,.735.735.724.724,0,0,1-.72-.735h0Zm42.281-1.455a.735.735,0,1,1,.735.735A.736.736,0,0,1,237.107,291.631Zm-2.911,0a.735.735,0,1,1,.735.735A.736.736,0,0,1,234.2,291.631Zm-4.366,0a.735.735,0,0,1,1.47,0,.746.746,0,0,1-.735.735.736.736,0,0,1-.735-.735Zm-2.926,0a.735.735,0,1,1,.735.735A.736.736,0,0,1,226.9,291.631Zm-5.822,0a.735.735,0,1,1,.735.735A.736.736,0,0,1,221.083,291.631Zm-1.47,0a.735.735,0,1,1,.735.735A.736.736,0,0,1,219.612,291.631Zm-4.366,0a.735.735,0,1,1,.735.735A.736.736,0,0,1,215.246,291.631Zm-5.837,0a.735.735,0,1,1,.735.735.736.736,0,0,1-.735-.735Zm-2.911,0a.735.735,0,1,1,.735.735A.736.736,0,0,1,206.5,291.631Zm-5.837,0a.735.735,0,1,1,.735.735A.736.736,0,0,1,200.662,291.631Zm-4.366,0a.735.735,0,1,1,.735.735A.736.736,0,0,1,196.3,291.631Zm-2.926,0a.735.735,0,1,1,.735.735A.736.736,0,0,1,193.37,291.631Zm-1.455,0a.735.735,0,1,1,.735.735A.736.736,0,0,1,191.915,291.631Zm46.662-1.455a.735.735,0,1,1,.735.735A.736.736,0,0,1,238.577,290.176Zm-1.47,0a.735.735,0,1,1,.735.735A.736.736,0,0,1,237.107,290.176Zm-4.366,0a.735.735,0,1,1,.735.735A.736.736,0,0,1,232.741,290.176Zm-1.455,0a.735.735,0,1,1,.735.735A.736.736,0,0,1,231.285,290.176Zm-1.455,0a.735.735,0,1,1,.735.735.736.736,0,0,1-.735-.735Zm-4.381,0a.735.735,0,1,1,.735.735.724.724,0,0,1-.72-.735h0Zm-2.911,0a.735.735,0,1,1,.735.735A.736.736,0,0,1,222.538,290.176Zm-4.381,0a.735.735,0,1,1,.735.735A.736.736,0,0,1,218.157,290.176Zm-1.455,0a.735.735,0,1,1,.735.735A.736.736,0,0,1,216.7,290.176Zm-1.455,0a.735.735,0,1,1,.735.735A.736.736,0,0,1,215.246,290.176Zm-1.455,0a.735.735,0,1,1,.735.735A.736.736,0,0,1,213.791,290.176Zm-1.455,0a.735.735,0,1,1,.735.735A.736.736,0,0,1,212.335,290.176Zm-1.47,0a.735.735,0,1,1,.735.735A.736.736,0,0,1,210.865,290.176Zm-1.455,0a.735.735,0,1,1,.735.735.736.736,0,0,1-.735-.735Zm-1.455,0a.735.735,0,1,1,.735.735A.736.736,0,0,1,207.954,290.176Zm-1.455,0a.735.735,0,1,1,.735.735A.736.736,0,0,1,206.5,290.176Zm-4.381,0a.735.735,0,1,1,.735.735A.736.736,0,0,1,202.118,290.176Zm-4.366,0a.735.735,0,1,1,.735.735A.736.736,0,0,1,197.752,290.176Zm-4.381,0a.735.735,0,1,1,.735.735A.736.736,0,0,1,193.37,290.176Zm-1.455,0a.735.735,0,1,1,.735.735A.736.736,0,0,1,191.915,290.176Zm46.662-1.455a.735.735,0,1,1,.735.735A.736.736,0,0,1,238.577,288.72Zm-1.47,0a.735.735,0,1,1,.735.735A.736.736,0,0,1,237.107,288.72Zm-1.455,0a.728.728,0,1,1,0,.015h0Zm-5.822,0a.735.735,0,1,1,.735.735.736.736,0,0,1-.735-.735Zm-4.381,0a.735.735,0,1,1,.735.735.724.724,0,0,1-.72-.735h0Zm-1.455,0a.735.735,0,1,1,.735.735A.736.736,0,0,1,223.993,288.72Zm-1.455,0a.735.735,0,1,1,.735.735A.736.736,0,0,1,222.538,288.72Zm-1.455,0a.735.735,0,1,1,.735.735A.736.736,0,0,1,221.083,288.72Zm-1.47,0a.735.735,0,1,1,.735.735A.736.736,0,0,1,219.612,288.72Zm-2.911,0a.735.735,0,1,1,.735.735A.736.736,0,0,1,216.7,288.72Zm-1.455,0a.735.735,0,1,1,.735.735A.736.736,0,0,1,215.246,288.72Zm-1.455,0a.735.735,0,1,1,.735.735A.736.736,0,0,1,213.791,288.72Zm-1.455,0a.735.735,0,1,1,.735.735A.736.736,0,0,1,212.335,288.72Zm-1.47,0a.735.735,0,1,1,.735.735A.736.736,0,0,1,210.865,288.72Zm-4.366,0a.735.735,0,1,1,.735.735A.736.736,0,0,1,206.5,288.72Zm-1.455,0a.735.735,0,1,1,.735.735A.736.736,0,0,1,205.043,288.72Zm-1.455,0a.735.735,0,1,1,.735.735A.736.736,0,0,1,203.588,288.72Zm-2.926,0a.735.735,0,1,1,.735.735A.736.736,0,0,1,200.662,288.72Zm-1.455,0a.735.735,0,1,1,.735.735A.736.736,0,0,1,199.207,288.72Zm-2.911,0a.735.735,0,1,1,.735.735A.736.736,0,0,1,196.3,288.72Zm-1.47,0a.735.735,0,1,1,.735.735A.736.736,0,0,1,194.826,288.72Zm-1.455,0a.735.735,0,1,1,.735.735A.736.736,0,0,1,193.37,288.72Zm-1.455,0a.735.735,0,1,1,.735.735A.736.736,0,0,1,191.915,288.72Zm46.662-1.455a.735.735,0,1,1,.735.735A.736.736,0,0,1,238.577,287.265Zm-10.218,0a.735.735,0,1,1,.735.735A.736.736,0,0,1,228.36,287.265Zm-7.277,0a.735.735,0,1,1,.735.735A.736.736,0,0,1,221.083,287.265Zm-2.926,0a.735.735,0,1,1,.735.735A.736.736,0,0,1,218.157,287.265Zm-1.455,0a.735.735,0,1,1,.735.735A.736.736,0,0,1,216.7,287.265Zm-7.292,0a.735.735,0,1,1,.735.735.736.736,0,0,1-.735-.735Zm-5.822,0a.735.735,0,1,1,.735.735A.736.736,0,0,1,203.588,287.265Zm-1.47,0a.735.735,0,1,1,.735.735A.736.736,0,0,1,202.118,287.265Zm-2.911,0a.735.735,0,1,1,.735.735A.736.736,0,0,1,199.207,287.265Zm-5.837,0a.735.735,0,1,1,.735.735A.736.736,0,0,1,193.37,287.265Z" fill="none"/>
    </clipPath>
    <clipPath id="clip-path-2">
      <path id="Trazado_1927" data-name="Trazado 1927" d="M185.358,286.53a5.094,5.094,0,1,0,.015,0Zm0,1.47a3.638,3.638,0,1,1-.015,0Z" fill="none"/>
    </clipPath>
    <clipPath id="clip-path-3">
      <circle id="Elipse_12006" data-name="Elipse 12006" cx="2.191" cy="2.191" r="2.191" transform="translate(183.168 289.44)" fill="none"/>
    </clipPath>
    <clipPath id="clip-path-4">
      <path id="Trazado_1928" data-name="Trazado 1928" d="M251.691,291.631a5.094,5.094,0,1,0,0,.015h0Zm-1.455,0a3.638,3.638,0,1,1,0-.015h0Z" fill="none"/>
    </clipPath>
    <clipPath id="clip-path-5">
      <circle id="Elipse_12007" data-name="Elipse 12007" cx="2.191" cy="2.191" r="2.191" transform="translate(244.399 289.44)" fill="none"/>
    </clipPath>
    <clipPath id="clip-path-6">
      <path id="Trazado_1929" data-name="Trazado 1929" d="M180.257,352.877a5.094,5.094,0,1,0,0-.015h0Zm1.455,0a3.653,3.653,0,1,1,0,.015h0Z" fill="none"/>
    </clipPath>
    <clipPath id="clip-path-7">
      <circle id="Elipse_12008" data-name="Elipse 12008" cx="2.191" cy="2.191" r="2.191" transform="translate(183.168 350.686)" fill="none"/>
    </clipPath>
  </defs>
  <g id="_1_QR_Solicitud_Reunion_Jefatura_Carrera" data-name="1_QR_Solicitud Reunion Jefatura Carrera" transform="translate(-175.561 -281.833)">
    <rect id="Rectngulo_1171" data-name="Rectngulo 1171" width="80.991" height="109.991" transform="translate(175.561 281.833)" fill="#fff"/>
    <g id="Grupo_2596" data-name="Grupo 2596" clip-path="url(#clip-path)">
      <g id="Grupo_2388" data-name="Grupo 2388">
        <rect id="Rectngulo_1172" data-name="Rectngulo 1172" width="80.991" height="80.991" transform="translate(175.561 281.833)"/>
      </g>
    </g>
    <g id="Grupo_2597" data-name="Grupo 2597" clip-path="url(#clip-path-2)">
      <g id="Grupo_2389" data-name="Grupo 2389">
        <rect id="Rectngulo_1173" data-name="Rectngulo 1173" width="10.203" height="10.203" transform="translate(180.257 286.53)"/>
      </g>
    </g>
    <g id="Grupo_2598" data-name="Grupo 2598" clip-path="url(#clip-path-3)">
      <g id="Grupo_2390" data-name="Grupo 2390">
        <rect id="Rectngulo_1174" data-name="Rectngulo 1174" width="4.381" height="4.381" transform="translate(183.168 289.455)"/>
      </g>
    </g>
    <g id="Grupo_2599" data-name="Grupo 2599" clip-path="url(#clip-path-4)">
      <g id="Grupo_2391" data-name="Grupo 2391">
        <rect id="Rectngulo_1175" data-name="Rectngulo 1175" width="10.203" height="10.203" transform="translate(241.488 286.53)"/>
      </g>
    </g>
    <g id="Grupo_2600" data-name="Grupo 2600" clip-path="url(#clip-path-5)">
      <g id="Grupo_2392" data-name="Grupo 2392">
        <rect id="Rectngulo_1176" data-name="Rectngulo 1176" width="4.381" height="4.381" transform="translate(244.399 289.455)"/>
      </g>
    </g>
    <g id="Grupo_2601" data-name="Grupo 2601" clip-path="url(#clip-path-6)">
      <g id="Grupo_2393" data-name="Grupo 2393">
        <rect id="Rectngulo_1177" data-name="Rectngulo 1177" width="10.203" height="10.203" transform="translate(180.257 347.761)"/>
      </g>
    </g>
    <g id="Grupo_2602" data-name="Grupo 2602" clip-path="url(#clip-path-7)">
      <g id="Grupo_2394" data-name="Grupo 2394">
        <rect id="Rectngulo_1178" data-name="Rectngulo 1178" width="4.381" height="4.381" transform="translate(183.168 350.686)"/>
      </g>
    </g>
  </g>
</svg>
