<svg xmlns="http://www.w3.org/2000/svg" xmlns:xlink="http://www.w3.org/1999/xlink" width="82.506" height="110.507" viewBox="0 0 82.506 110.507">
  <defs>
    <clipPath id="clip-path">
      <path id="Trazado_1944" data-name="Trazado 1944" d="M1045.323,357.888a.735.735,0,1,1,.735.735A.736.736,0,0,1,1045.323,357.888Zm-1.485,0a.735.735,0,1,1,.735.735A.736.736,0,0,1,1043.837,357.888Zm-1.485,0a.735.735,0,1,1,.735.735A.736.736,0,0,1,1042.352,357.888Zm-1.485,0a.735.735,0,1,1,.735.735A.736.736,0,0,1,1040.866,357.888Zm-1.47,0a.735.735,0,1,1,.735.735A.736.736,0,0,1,1039.4,357.888Zm-2.971,0a.735.735,0,1,1,.735.735A.736.736,0,0,1,1036.425,357.888Zm-4.456,0a.735.735,0,1,1,.735.735h0A.736.736,0,0,1,1031.969,357.888Zm-1.485,0a.735.735,0,1,1,.735.735.749.749,0,0,1-.75-.735h0Zm-2.971,0a.735.735,0,1,1,.735.735A.736.736,0,0,1,1027.513,357.888Zm-2.971,0a.735.735,0,1,1,.735.735.749.749,0,0,1-.75-.735h0Zm-2.971,0a.735.735,0,1,1,.735.735A.736.736,0,0,1,1021.571,357.888Zm-1.485,0a.735.735,0,1,1,.735.735.736.736,0,0,1-.735-.735Zm-1.485,0a.735.735,0,1,1,.735.735A.736.736,0,0,1,1018.6,357.888Zm-7.427,0a.735.735,0,1,1,.735.735A.736.736,0,0,1,1011.174,357.888Zm-2.971,0a.735.735,0,1,1,.735.735.736.736,0,0,1-.735-.735Zm-1.485,0a.735.735,0,1,1,.735.735A.736.736,0,0,1,1006.717,357.888Zm-2.971,0a.735.735,0,1,1,.735.735A.736.736,0,0,1,1003.747,357.888Zm-1.485,0a.735.735,0,1,1,.735.735A.736.736,0,0,1,1002.261,357.888Zm-1.485,0a.735.735,0,1,1,.735.735A.736.736,0,0,1,1000.776,357.888Zm-5.942,0a.735.735,0,1,1,.735.735A.736.736,0,0,1,994.834,357.888Zm-2.971,0a.735.735,0,1,1,.735.735A.736.736,0,0,1,991.864,357.888Zm-1.485,0a.735.735,0,1,1,.735.735A.736.736,0,0,1,990.378,357.888Zm-1.485,0a.735.735,0,1,1,.735.735A.736.736,0,0,1,988.893,357.888Zm-2.971,0a.735.735,0,1,1,.735.735.736.736,0,0,1-.735-.735Zm59.4-1.485a.735.735,0,1,1,.735.735A.736.736,0,0,1,1045.323,356.4Zm-2.971,0a.735.735,0,1,1,.735.735A.736.736,0,0,1,1042.352,356.4Zm-1.485,0a.735.735,0,1,1,.735.735A.736.736,0,0,1,1040.866,356.4Zm-2.956,0a.735.735,0,1,1,.735.735A.736.736,0,0,1,1037.911,356.4Zm-1.485,0a.735.735,0,1,1,.735.735A.736.736,0,0,1,1036.425,356.4Zm-4.456,0a.735.735,0,1,1,.735.735.736.736,0,0,1-.735-.735Zm-1.485,0a.735.735,0,1,1,.735.735h0a.749.749,0,0,1-.75-.735h0Zm-4.456,0a.735.735,0,1,1,.735.735A.736.736,0,0,1,1026.027,356.4Zm-1.485,0a.735.735,0,1,1,.735.735A.736.736,0,0,1,1024.542,356.4Zm-1.485,0a.735.735,0,1,1,.735.735A.736.736,0,0,1,1023.057,356.4Zm-1.485,0a.735.735,0,1,1,.735.735A.736.736,0,0,1,1021.571,356.4Zm-2.971,0a.735.735,0,1,1,.735.735A.736.736,0,0,1,1018.6,356.4Zm-2.971,0a.735.735,0,1,1,.735.735A.736.736,0,0,1,1015.63,356.4Zm-2.971,0a.735.735,0,1,1,.735.735A.736.736,0,0,1,1012.659,356.4Zm-4.456,0a.735.735,0,1,1,.735.735.736.736,0,0,1-.735-.735Zm-1.485,0a.735.735,0,1,1,.735.735.736.736,0,0,1-.735-.735Zm-4.456,0a.735.735,0,1,1,.735.735A.736.736,0,0,1,1002.261,356.4Zm-1.485,0a.735.735,0,1,1,.735.735A.736.736,0,0,1,1000.776,356.4Zm-2.971,0a.735.735,0,1,1,.735.735A.736.736,0,0,1,997.805,356.4Zm-2.971,0a.735.735,0,1,1,.735.735A.736.736,0,0,1,994.834,356.4Zm-2.971,0a.735.735,0,1,1,.735.735A.736.736,0,0,1,991.864,356.4Zm-2.971,0a.735.735,0,1,1,.735.735A.736.736,0,0,1,988.893,356.4Zm-1.485,0a.735.735,0,1,1,.735.735A.736.736,0,0,1,987.407,356.4Zm57.915-1.485a.735.735,0,1,1,.735.735A.736.736,0,0,1,1045.323,354.918Zm-5.927,0a.735.735,0,1,1,.735.735A.736.736,0,0,1,1039.4,354.918Zm-7.427,0a.735.735,0,1,1,.735.735.736.736,0,0,1-.735-.735Zm-1.485,0a.735.735,0,1,1,.735.735.749.749,0,0,1-.75-.735h0Zm-1.485,0a.735.735,0,1,1,.735.735h0A.736.736,0,0,1,1029,354.918Zm-1.485,0a.735.735,0,1,1,.735.735A.736.736,0,0,1,1027.513,354.918Zm-2.971,0a.735.735,0,1,1,.735.735A.736.736,0,0,1,1024.542,354.918Zm-2.971,0a.735.735,0,1,1,.735.735A.736.736,0,0,1,1021.571,354.918Zm-5.942,0a.735.735,0,1,1,.735.735A.736.736,0,0,1,1015.63,354.918Zm-2.971,0a.735.735,0,1,1,.735.735A.736.736,0,0,1,1012.659,354.918Zm-2.971,0a.735.735,0,1,1,.735.735A.736.736,0,0,1,1009.688,354.918Zm-2.971,0a.735.735,0,1,1,.735.735.736.736,0,0,1-.735-.735Zm-2.971,0a.735.735,0,1,1,.735.735A.736.736,0,0,1,1003.747,354.918Zm-4.456,0a.735.735,0,1,1,.735.735A.736.736,0,0,1,999.291,354.918Zm-7.427,0a.735.735,0,1,1,.735.735A.736.736,0,0,1,991.864,354.918Zm53.459-1.485a.735.735,0,1,1,.735.735A.736.736,0,0,1,1045.323,353.432Zm-4.456,0a.735.735,0,1,1,.735.735A.736.736,0,0,1,1040.866,353.432Zm-4.441,0a.735.735,0,1,1,.735.735A.736.736,0,0,1,1036.425,353.432Zm-2.971,0a.735.735,0,1,1,.735.735A.736.736,0,0,1,1033.454,353.432Zm-2.971,0a.735.735,0,1,1,.735.735.749.749,0,0,1-.75-.735h0Zm-2.971,0a.735.735,0,1,1,.735.735h0A.736.736,0,0,1,1027.513,353.432Zm-4.456,0a.735.735,0,1,1,.735.735A.736.736,0,0,1,1023.057,353.432Zm-1.485,0a.735.735,0,1,1,.735.735A.736.736,0,0,1,1021.571,353.432Zm-5.942,0a.735.735,0,1,1,.735.735A.736.736,0,0,1,1015.63,353.432Zm-2.971,0a.735.735,0,1,1,.735.735A.736.736,0,0,1,1012.659,353.432Zm-2.971,0a.735.735,0,1,1,.735.735A.736.736,0,0,1,1009.688,353.432Zm-4.456,0a.735.735,0,1,1,.735.735.736.736,0,0,1-.735-.735Zm-4.456,0a.735.735,0,1,1,.735.735A.736.736,0,0,1,1000.776,353.432Zm-1.485,0a.735.735,0,1,1,.735.735A.736.736,0,0,1,999.291,353.432Zm-2.971,0a.735.735,0,1,1,.735.735A.736.736,0,0,1,996.32,353.432Zm-2.971,0a.735.735,0,1,1,.735.735A.736.736,0,0,1,993.349,353.432Zm-1.485,0a.735.735,0,1,1,.735.735A.736.736,0,0,1,991.864,353.432Zm-4.456,0a.735.735,0,1,1,.735.735A.736.736,0,0,1,987.407,353.432Zm57.915-1.485a.735.735,0,1,1,.735.735A.736.736,0,0,1,1045.323,351.947Zm-1.485,0a.735.735,0,1,1,.735.735A.736.736,0,0,1,1043.837,351.947Zm-2.971,0a.735.735,0,1,1,.735.735A.736.736,0,0,1,1040.866,351.947Zm-1.47,0a.735.735,0,1,1,.735.735A.736.736,0,0,1,1039.4,351.947Zm-1.485,0a.735.735,0,1,1,.735.735A.736.736,0,0,1,1037.911,351.947Zm-1.485,0a.735.735,0,1,1,.735.735A.736.736,0,0,1,1036.425,351.947Zm-1.485,0a.735.735,0,1,1,.735.735A.736.736,0,0,1,1034.94,351.947Zm-1.485,0a.735.735,0,1,1,.735.735A.736.736,0,0,1,1033.454,351.947Zm-5.941,0a.735.735,0,1,1,.735.735.736.736,0,0,1-.735-.735Zm-1.485,0a.735.735,0,1,1,.735.735h0A.736.736,0,0,1,1026.027,351.947Zm-4.456,0a.735.735,0,1,1,.735.735A.736.736,0,0,1,1021.571,351.947Zm-8.912,0a.735.735,0,1,1,.735.735A.736.736,0,0,1,1012.659,351.947Zm-1.485,0a.735.735,0,1,1,.735.735A.736.736,0,0,1,1011.174,351.947Zm-1.485,0a.735.735,0,1,1,.735.735A.736.736,0,0,1,1009.688,351.947Zm-1.485,0a.735.735,0,1,1,.735.735.736.736,0,0,1-.735-.735Zm-1.485,0a.735.735,0,1,1,.735.735.736.736,0,0,1-.735-.735Zm-4.456,0a.735.735,0,1,1,.735.735.736.736,0,0,1-.735-.735Zm-5.942,0a.735.735,0,1,1,.735.735A.736.736,0,0,1,996.32,351.947Zm-2.971,0a.735.735,0,1,1,.735.735A.736.736,0,0,1,993.349,351.947Zm-2.971,0a.735.735,0,1,1,.735.735A.736.736,0,0,1,990.378,351.947Zm-1.485,0a.735.735,0,1,1,.735.735A.736.736,0,0,1,988.893,351.947Zm-2.971,0a.735.735,0,1,1,.735.735.736.736,0,0,1-.735-.735Zm59.4-1.485a.735.735,0,1,1,.735.735A.736.736,0,0,1,1045.323,350.461Zm-1.485,0a.735.735,0,1,1,.735.735A.736.736,0,0,1,1043.837,350.461Zm-1.485,0a.735.735,0,1,1,.735.735A.736.736,0,0,1,1042.352,350.461Zm-1.485,0a.735.735,0,1,1,.735.735A.736.736,0,0,1,1040.866,350.461Zm-1.47,0a.735.735,0,1,1,.735.735A.736.736,0,0,1,1039.4,350.461Zm-5.942,0a.735.735,0,1,1,.735.735A.736.736,0,0,1,1033.454,350.461Zm-1.485,0a.735.735,0,1,1,.735.735.736.736,0,0,1-.735-.735Zm-2.971,0a.735.735,0,1,1,.735.735.736.736,0,0,1-.735-.735Zm-4.456,0a.735.735,0,1,1,.735.735.749.749,0,0,1-.75-.735h0Zm-1.485,0a.735.735,0,1,1,.735.735A.736.736,0,0,1,1023.057,350.461Zm-4.456,0a.735.735,0,1,1,.735.735A.736.736,0,0,1,1018.6,350.461Zm-2.971,0a.735.735,0,1,1,.735.735A.736.736,0,0,1,1015.63,350.461Zm-1.485,0a.735.735,0,1,1,.735.735A.736.736,0,0,1,1014.144,350.461Zm-1.485,0a.735.735,0,1,1,.735.735A.736.736,0,0,1,1012.659,350.461Zm-5.942,0a.735.735,0,1,1,.735.735.736.736,0,0,1-.735-.735Zm-2.971,0a.735.735,0,1,1,.735.735.736.736,0,0,1-.735-.735Zm-1.485,0a.735.735,0,1,1,.735.735.736.736,0,0,1-.735-.735Zm-1.485,0a.735.735,0,1,1,.735.735.736.736,0,0,1-.735-.735Zm-2.971,0a.735.735,0,1,1,.735.735A.736.736,0,0,1,997.805,350.461Zm-5.942,0a.735.735,0,1,1,.735.735A.736.736,0,0,1,991.864,350.461Zm-4.456,0a.735.735,0,1,1,.735.735A.736.736,0,0,1,987.407,350.461Zm-1.485,0a.735.735,0,1,1,.735.735.736.736,0,0,1-.735-.735Zm57.915-1.485a.735.735,0,1,1,.735.735A.736.736,0,0,1,1043.837,348.976Zm-4.441,0a.735.735,0,1,1,.735.735A.736.736,0,0,1,1039.4,348.976Zm-2.971,0a.735.735,0,1,1,.735.735A.736.736,0,0,1,1036.425,348.976Zm-2.971,0a.735.735,0,1,1,.735.735A.736.736,0,0,1,1033.454,348.976Zm-2.971,0a.735.735,0,1,1,.735.735.749.749,0,0,1-.75-.735h0Zm-1.485,0a.735.735,0,1,1,.735.735.736.736,0,0,1-.735-.735Zm-1.485,0a.735.735,0,1,1,.735.735.736.736,0,0,1-.735-.735Zm-2.971,0a.735.735,0,1,1,.735.735.736.736,0,0,1-.735-.735Zm-1.485,0a.735.735,0,1,1,.735.735h0A.736.736,0,0,1,1023.057,348.976Zm-4.456,0a.735.735,0,1,1,.735.735A.736.736,0,0,1,1018.6,348.976Zm-1.485,0a.735.735,0,1,1,.735.735A.736.736,0,0,1,1017.115,348.976Zm-1.485,0a.735.735,0,1,1,.735.735A.736.736,0,0,1,1015.63,348.976Zm-2.971,0a.735.735,0,1,1,.735.735A.736.736,0,0,1,1012.659,348.976Zm-2.971,0a.735.735,0,1,1,.735.735A.736.736,0,0,1,1009.688,348.976Zm-2.971,0a.735.735,0,1,1,.735.735.736.736,0,0,1-.735-.735Zm-1.485,0a.735.735,0,1,1,.735.735.736.736,0,0,1-.735-.735Zm-1.485,0a.735.735,0,1,1,.735.735.736.736,0,0,1-.735-.735Zm-1.485,0a.735.735,0,1,1,.735.735.736.736,0,0,1-.735-.735Zm-1.485,0a.735.735,0,1,1,.735.735.736.736,0,0,1-.735-.735Zm-7.427,0a.735.735,0,1,1,.735.735A.736.736,0,0,1,993.349,348.976Zm-5.942,0a.735.735,0,1,1,.735.735A.736.736,0,0,1,987.407,348.976Zm53.459-1.485a.735.735,0,1,1,.735.735A.736.736,0,0,1,1040.866,347.491Zm-1.47,0a.735.735,0,1,1,.735.735A.736.736,0,0,1,1039.4,347.491Zm-5.942,0a.735.735,0,1,1,.735.735A.736.736,0,0,1,1033.454,347.491Zm-2.971,0a.735.735,0,1,1,.735.735.749.749,0,0,1-.75-.735h0Zm-1.485,0a.735.735,0,1,1,.735.735A.736.736,0,0,1,1029,347.491Zm-4.456,0a.735.735,0,1,1,.735.735A.736.736,0,0,1,1024.542,347.491Zm-1.485,0a.735.735,0,1,1,.735.735A.736.736,0,0,1,1023.057,347.491Zm-1.485,0a.735.735,0,1,1,.735.735A.736.736,0,0,1,1021.571,347.491Zm-2.971,0a.735.735,0,1,1,.735.735A.736.736,0,0,1,1018.6,347.491Zm-1.485,0a.735.735,0,1,1,.735.735A.736.736,0,0,1,1017.115,347.491Zm-1.485,0a.735.735,0,1,1,.735.735A.736.736,0,0,1,1015.63,347.491Zm-1.485,0a.735.735,0,1,1,.735.735A.736.736,0,0,1,1014.144,347.491Zm-1.485,0a.735.735,0,1,1,.735.735A.736.736,0,0,1,1012.659,347.491Zm-5.942,0a.735.735,0,1,1,.735.735A.736.736,0,0,1,1006.717,347.491Zm-1.485,0a.735.735,0,1,1,.735.735A.736.736,0,0,1,1005.232,347.491Zm-5.941,0a.735.735,0,1,1,.735.735A.736.736,0,0,1,999.291,347.491Zm-2.971,0a.735.735,0,1,1,.735.735A.736.736,0,0,1,996.32,347.491Zm-2.971,0a.735.735,0,1,1,.735.735A.736.736,0,0,1,993.349,347.491Zm-1.485,0a.735.735,0,1,1,.735.735A.736.736,0,0,1,991.864,347.491Zm-1.485,0a.735.735,0,1,1,.735.735A.736.736,0,0,1,990.378,347.491Zm-2.971,0a.735.735,0,1,1,.735.735A.736.736,0,0,1,987.407,347.491Zm51.989-1.485a.735.735,0,1,1,.735.735.736.736,0,0,1-.735-.735Zm-1.485,0a.735.735,0,1,1,.735.735.736.736,0,0,1-.735-.735Zm-1.485,0a.735.735,0,1,1,.735.735.736.736,0,0,1-.735-.735Zm-1.485,0a.735.735,0,1,1,.735.735.736.736,0,0,1-.735-.735Zm-1.485,0a.735.735,0,1,1,.735.735.736.736,0,0,1-.735-.735Zm-2.971,0a.735.735,0,1,1,.735.735h0a.759.759,0,0,1-.75-.735h0Zm-1.485,0a.735.735,0,1,1,.735.735.736.736,0,0,1-.735-.735Zm-1.485,0a.735.735,0,1,1,.735.735.736.736,0,0,1-.735-.735Zm-1.485,0a.735.735,0,1,1,.735.735.736.736,0,0,1-.735-.735Zm-4.456,0a.735.735,0,1,1,.735.735.736.736,0,0,1-.735-.735Zm-1.485,0a.735.735,0,1,1,.735.735.736.736,0,0,1-.735-.735Zm-2.971,0a.735.735,0,1,1,.735.735.736.736,0,0,1-.735-.735Zm-2.971,0a.735.735,0,1,1,.735.735.736.736,0,0,1-.735-.735Zm-1.485,0a.735.735,0,1,1,.735.735.736.736,0,0,1-.735-.735Zm-1.485,0a.735.735,0,1,1,.735.735.736.736,0,0,1-.735-.735Zm-1.485,0a.735.735,0,1,1,.735.735.736.736,0,0,1-.735-.735Zm-1.485,0a.735.735,0,1,1,.735.735.736.736,0,0,1-.735-.735Zm-1.485,0a.735.735,0,1,1,.735.735.736.736,0,0,1-.735-.735Zm-2.971,0a.735.735,0,1,1,.735.735.736.736,0,0,1-.735-.735Zm-1.485,0a.735.735,0,1,1,.735.735.736.736,0,0,1-.735-.735Zm-1.485,0a.735.735,0,1,1,.735.735.736.736,0,0,1-.735-.735Zm-1.485,0a.735.735,0,1,1,.735.735.736.736,0,0,1-.735-.735Zm-2.971,0a.735.735,0,1,1,.735.735.736.736,0,0,1-.735-.735Zm-1.485,0a.735.735,0,1,1,.735.735.736.736,0,0,1-.735-.735Zm-2.971,0a.735.735,0,1,1,.735.735.736.736,0,0,1-.735-.735Zm-1.485,0a.735.735,0,1,1,.735.735.736.736,0,0,1-.735-.735Zm-4.456,0a.735.735,0,1,1,.735.735.736.736,0,0,1-.735-.735Zm-2.956,0a.735.735,0,1,1,.735.735h0a.736.736,0,0,1-.735-.735Zm-5.942,0a.735.735,0,1,1,.735.735.736.736,0,0,1-.735-.735Zm-1.485,0a.735.735,0,1,1,.735.735.736.736,0,0,1-.735-.735Zm-1.485,0a.735.735,0,1,1,.735.735.736.736,0,0,1-.735-.735Zm71.269-1.485a.735.735,0,1,1,.735.735.736.736,0,0,1-.735-.735Zm-2.971,0a.735.735,0,1,1,.735.735.736.736,0,0,1-.735-.735Zm-2.956,0a.735.735,0,1,1,.735.735.736.736,0,0,1-.735-.735Zm-1.485,0a.735.735,0,1,1,.735.735.736.736,0,0,1-.735-.735Zm-4.456,0a.735.735,0,1,1,.735.735.736.736,0,0,1-.735-.735Zm-4.456,0a.735.735,0,1,1,.735.735.736.736,0,0,1-.735-.735Zm-1.485,0a.735.735,0,1,1,.735.735.736.736,0,0,1-.735-.735Zm-2.971,0a.735.735,0,1,1,.735.735.736.736,0,0,1-.735-.735Zm-1.485,0a.735.735,0,1,1,.735.735.736.736,0,0,1-.735-.735Zm-1.485,0a.735.735,0,1,1,.735.735.736.736,0,0,1-.735-.735Zm-5.942,0a.735.735,0,1,1,.735.735.736.736,0,0,1-.735-.735Zm-7.427,0a.735.735,0,1,1,.735.735.736.736,0,0,1-.735-.735Zm-4.456,0a.735.735,0,1,1,.735.735.736.736,0,0,1-.735-.735Zm-2.971,0a.735.735,0,1,1,.735.735.736.736,0,0,1-.735-.735Zm-2.971,0a.735.735,0,1,1,.735.735.736.736,0,0,1-.735-.735Zm-1.485,0a.735.735,0,1,1,.735.735.736.736,0,0,1-.735-.735Zm-1.485,0a.735.735,0,1,1,.735.735.736.736,0,0,1-.735-.735Zm-1.485,0a.735.735,0,1,1,.735.735.736.736,0,0,1-.735-.735Zm-1.485,0a.735.735,0,1,1,.735.735.736.736,0,0,1-.735-.735Zm-1.485,0a.735.735,0,1,1,.735.735.736.736,0,0,1-.735-.735Zm-4.456,0a.735.735,0,1,1,.735.735.736.736,0,0,1-.735-.735Zm-1.485,0a.735.735,0,1,1,.735.735.749.749,0,0,1-.75-.735h0Zm-5.927,0a.735.735,0,1,1,.735.735.736.736,0,0,1-.735-.735Zm-1.485,0a.735.735,0,1,1,.735.735.736.736,0,0,1-.735-.735Zm-1.485,0a.735.735,0,1,1,.735.735.736.736,0,0,1-.735-.735Zm69.783-1.485a.735.735,0,1,1,.735.735.736.736,0,0,1-.735-.735Zm-1.485,0a.735.735,0,1,1,.735.735.736.736,0,0,1-.735-.735Zm-1.485,0a.735.735,0,1,1,.735.735.736.736,0,0,1-.735-.735Zm-2.956,0a.735.735,0,1,1,.735.735.736.736,0,0,1-.735-.735Zm-1.485,0a.735.735,0,1,1,.735.735.736.736,0,0,1-.735-.735Zm-2.971,0a.735.735,0,1,1,.735.735.736.736,0,0,1-.735-.735Zm-1.485,0a.735.735,0,1,1,.735.735.736.736,0,0,1-.735-.735Zm-1.485,0a.735.735,0,1,1,.735.735.736.736,0,0,1-.735-.735Zm-1.485,0a.735.735,0,1,1,.735.735.759.759,0,0,1-.75-.735h0Zm-5.942,0a.743.743,0,1,1,.75.75.749.749,0,0,1-.75-.735h0Zm-5.941,0a.735.735,0,1,1,.735.735.736.736,0,0,1-.735-.735Zm-4.456,0a.735.735,0,1,1,.735.735.736.736,0,0,1-.735-.735Zm-1.485,0a.735.735,0,1,1,.735.735.736.736,0,0,1-.735-.735Zm-2.971,0a.735.735,0,1,1,.735.735.736.736,0,0,1-.735-.735Zm-2.971,0a.735.735,0,1,1,.735.735.736.736,0,0,1-.735-.735Zm-2.971,0a.735.735,0,1,1,.735.735.736.736,0,0,1-.735-.735Zm-1.485,0a.735.735,0,1,1,.735.735.736.736,0,0,1-.735-.735Zm-7.427,0a.735.735,0,1,1,.735.735.736.736,0,0,1-.735-.735Zm-5.941,0a.735.735,0,1,1,.735.735.736.736,0,0,1-.735-.735Zm-5.927,0a.735.735,0,1,1,.735.735.736.736,0,0,1-.735-.735Zm-1.485,0a.735.735,0,1,1,.735.735.736.736,0,0,1-.735-.735Zm-5.942,0a.735.735,0,1,1,.735.735.736.736,0,0,1-.735-.735Zm69.783-1.485a.735.735,0,1,1,.735.735.736.736,0,0,1-.735-.735Zm-1.485,0a.735.735,0,1,1,.735.735.736.736,0,0,1-.735-.735Zm-1.485,0a.735.735,0,1,1,.735.735.736.736,0,0,1-.735-.735Zm-1.485,0a.735.735,0,1,1,.735.735.736.736,0,0,1-.735-.735Zm-1.47,0a.735.735,0,1,1,.735.735.736.736,0,0,1-.735-.735Zm-1.485,0a.735.735,0,1,1,.735.735.736.736,0,0,1-.735-.735Zm-2.971,0a.735.735,0,1,1,.735.735.736.736,0,0,1-.735-.735Zm-2.971,0a.735.735,0,1,1,.735.735.736.736,0,0,1-.735-.735Zm-4.456,0a.735.735,0,1,1,.735.735.736.736,0,0,1-.735-.735Zm-1.485,0a.735.735,0,1,1,.735.735.736.736,0,0,1-.735-.735Zm-1.485,0a.743.743,0,1,1,.75.75.759.759,0,0,1-.75-.735h0Zm-1.485,0a.735.735,0,1,1,.735.735.736.736,0,0,1-.735-.735Zm-1.485,0a.735.735,0,1,1,.735.735.736.736,0,0,1-.735-.735Zm-1.485,0a.735.735,0,1,1,.735.735.736.736,0,0,1-.735-.735Zm-2.971,0a.735.735,0,1,1,.735.735.736.736,0,0,1-.735-.735Zm-1.485,0a.735.735,0,1,1,.735.735.736.736,0,0,1-.735-.735Zm-4.456,0a.735.735,0,1,1,.735.735.736.736,0,0,1-.735-.735Zm-1.485,0a.735.735,0,1,1,.735.735.736.736,0,0,1-.735-.735Zm-5.942,0a.735.735,0,1,1,.735.735.736.736,0,0,1-.735-.735Zm-1.485,0a.735.735,0,1,1,.735.735.736.736,0,0,1-.735-.735Zm-1.485,0a.735.735,0,1,1,.735.735.736.736,0,0,1-.735-.735Zm-2.971,0a.735.735,0,1,1,.735.735.736.736,0,0,1-.735-.735Zm-4.456,0a.735.735,0,1,1,.735.735.736.736,0,0,1-.735-.735Zm-2.971,0a.735.735,0,1,1,.735.735.736.736,0,0,1-.735-.735Zm-2.971,0a.735.735,0,1,1,.735.735.736.736,0,0,1-.735-.735Zm-2.971,0a.735.735,0,1,1,.735.735.749.749,0,0,1-.75-.735h0Zm-4.441,0a.735.735,0,1,1,.735.735.736.736,0,0,1-.735-.735Zm-1.485,0a.743.743,0,1,1,0,.015h0Zm-2.971,0a.735.735,0,1,1,.735.735.736.736,0,0,1-.735-.735Zm-1.485,0a.735.735,0,1,1,.735.735.736.736,0,0,1-.735-.735Zm71.269-1.485a.735.735,0,1,1,.735.735.736.736,0,0,1-.735-.735Zm-5.927,0a.735.735,0,1,1,.735.735.736.736,0,0,1-.735-.735Zm-2.971,0a.735.735,0,1,1,.735.735.736.736,0,0,1-.735-.735Zm-2.971,0a.735.735,0,1,1,.735.735.736.736,0,0,1-.735-.735Zm-4.456,0a.735.735,0,1,1,.735.735.736.736,0,0,1-.735-.735Zm-1.485,0a.735.735,0,1,1,.735.735.736.736,0,0,1-.735-.735Zm-2.971,0a.735.735,0,1,1,.735.735.736.736,0,0,1-.735-.735Zm-1.485,0a.735.735,0,1,1,.735.735.736.736,0,0,1-.735-.735Zm-1.485,0a.735.735,0,1,1,.735.735.736.736,0,0,1-.735-.735Zm-1.485,0a.735.735,0,1,1,.735.735.736.736,0,0,1-.735-.735Zm-1.485,0a.735.735,0,1,1,.735.735.736.736,0,0,1-.735-.735Zm-2.971,0a.735.735,0,1,1,.735.735.736.736,0,0,1-.735-.735Zm-2.971,0a.735.735,0,1,1,.735.735.736.736,0,0,1-.735-.735Zm-2.971,0a.735.735,0,1,1,.735.735.736.736,0,0,1-.735-.735Zm-5.942,0a.735.735,0,1,1,.735.735.736.736,0,0,1-.735-.735Zm-5.941,0a.735.735,0,1,1,.735.735.736.736,0,0,1-.735-.735Zm-2.971,0a.735.735,0,1,1,.735.735.736.736,0,0,1-.735-.735Zm-1.485,0a.735.735,0,1,1,.735.735.736.736,0,0,1-.735-.735Zm-1.485,0a.735.735,0,1,1,.735.735.736.736,0,0,1-.735-.735Zm-7.427,0a.735.735,0,1,1,.735.735.749.749,0,0,1-.75-.735h0Zm-1.47,0a.735.735,0,1,1,.735.735.736.736,0,0,1-.735-.735Zm-1.485,0a.735.735,0,1,1,.735.735.736.736,0,0,1-.735-.735Zm-1.485,0a.735.735,0,1,1,.735.735.736.736,0,0,1-.735-.735Zm-1.485,0a.735.735,0,1,1,.735.735.736.736,0,0,1-.735-.735Zm66.812-1.485a.735.735,0,1,1,.735.735.736.736,0,0,1-.735-.735Zm-1.485,0a.735.735,0,1,1,.735.735.736.736,0,0,1-.735-.735Zm-1.485,0a.735.735,0,1,1,.735.735.736.736,0,0,1-.735-.735Zm-1.485,0a.735.735,0,1,1,.735.735.736.736,0,0,1-.735-.735Zm-1.47,0a.735.735,0,1,1,.735.735.736.736,0,0,1-.735-.735Zm-4.456,0a.735.735,0,1,1,.735.735.736.736,0,0,1-.735-.735Zm-4.456,0a.735.735,0,1,1,.735.735.759.759,0,0,1-.75-.735h0Zm-1.485,0a.735.735,0,1,1,.735.735.736.736,0,0,1-.735-.735Zm-1.485,0a.735.735,0,1,1,.735.735.736.736,0,0,1-.735-.735Zm-4.456,0a.735.735,0,1,1,.735.735.736.736,0,0,1-.735-.735Zm-2.971,0a.735.735,0,1,1,.735.735.736.736,0,0,1-.735-.735Zm-4.456,0a.735.735,0,1,1,.735.735.736.736,0,0,1-.735-.735Zm-4.456,0a.735.735,0,1,1,.735.735.736.736,0,0,1-.735-.735Zm-4.456,0a.735.735,0,1,1,.735.735.736.736,0,0,1-.735-.735Zm-5.942,0a.735.735,0,1,1,.735.735.736.736,0,0,1-.735-.735Zm-1.485,0a.735.735,0,1,1,.735.735.736.736,0,0,1-.735-.735Zm-1.485,0a.735.735,0,1,1,.735.735.736.736,0,0,1-.735-.735Zm-2.971,0a.735.735,0,1,1,.735.735.736.736,0,0,1-.735-.735Zm-1.485,0a.735.735,0,1,1,.735.735.736.736,0,0,1-.735-.735Zm-1.485,0a.735.735,0,1,1,.735.735.736.736,0,0,1-.735-.735Zm-1.485,0a.735.735,0,1,1,.735.735.736.736,0,0,1-.735-.735Zm-1.485,0a.735.735,0,1,1,.735.735.736.736,0,0,1-.735-.735Zm-2.971,0a.735.735,0,1,1,.735.735.736.736,0,0,1-.735-.735Zm-4.441,0a.735.735,0,1,1,.735.735.736.736,0,0,1-.735-.735Zm-1.485,0a.735.735,0,1,1,.735.735.736.736,0,0,1-.735-.735Zm-1.485,0a.735.735,0,1,1,.735.735.736.736,0,0,1-.735-.735Zm-2.971,0a.735.735,0,1,1,.735.735.736.736,0,0,1-.735-.735Zm69.783-1.47a.735.735,0,1,1,.735.735A.736.736,0,0,1,1045.323,337.108Zm-2.971,0a.735.735,0,1,1,.735.735A.736.736,0,0,1,1042.352,337.108Zm-4.441,0a.735.735,0,1,1,.735.735A.736.736,0,0,1,1037.911,337.108Zm-2.971,0a.735.735,0,1,1,.735.735A.736.736,0,0,1,1034.94,337.108Zm-1.485,0a.735.735,0,1,1,.735.735A.736.736,0,0,1,1033.454,337.108Zm-1.485,0a.735.735,0,1,1,.735.735A.736.736,0,0,1,1031.969,337.108Zm-1.485,0a.735.735,0,1,1,.735.735A.736.736,0,0,1,1030.484,337.108Zm-5.942,0a.735.735,0,1,1,.735.735A.736.736,0,0,1,1024.542,337.108Zm-2.971,0a.735.735,0,1,1,.735.735A.736.736,0,0,1,1021.571,337.108Zm-1.485,0a.735.735,0,1,1,.735.735A.736.736,0,0,1,1020.086,337.108Zm-1.485,0a.735.735,0,1,1,.735.735.749.749,0,0,1-.75-.735h0Zm-5.942,0a.735.735,0,1,1,.735.735.749.749,0,0,1-.75-.735h0Zm-5.942,0a.735.735,0,1,1,.735.735.749.749,0,0,1-.75-.735h0Zm-2.971,0a.735.735,0,1,1,.735.735.749.749,0,0,1-.75-.735h0Zm-8.912,0a.735.735,0,1,1,.735.735A.736.736,0,0,1,994.834,337.108Zm-2.971,0a.735.735,0,1,1,.735.735A.736.736,0,0,1,991.864,337.108Zm-2.971,0a.735.735,0,1,1,.735.735A.736.736,0,0,1,988.893,337.108Zm-2.971,0a.735.735,0,1,1,.735.735A.736.736,0,0,1,985.922,337.108Zm-2.956,0a.735.735,0,1,1,.735.735A.736.736,0,0,1,982.966,337.108Zm-1.485,0a.735.735,0,1,1,.735.735A.736.736,0,0,1,981.481,337.108Zm-4.456,0a.735.735,0,1,1,.735.735A.736.736,0,0,1,977.025,337.108Zm-1.485,0a.735.735,0,1,1,.735.735A.736.736,0,0,1,975.539,337.108Zm68.3-1.485a.735.735,0,1,1,.735.735.736.736,0,0,1-.735-.735Zm-5.927,0a.735.735,0,1,1,.735.735.736.736,0,0,1-.735-.735Zm-1.485,0a.735.735,0,1,1,.735.735.736.736,0,0,1-.735-.735Zm-2.971,0a.735.735,0,1,1,.735.735.736.736,0,0,1-.735-.735Zm-5.941,0a.735.735,0,1,1,.735.735.736.736,0,0,1-.735-.735Zm-2.971,0a.743.743,0,1,1,.75.735.749.749,0,0,1-.75-.735Zm-5.941,0a.735.735,0,1,1,.735.735.736.736,0,0,1-.735-.735Zm-2.971,0a.735.735,0,1,1,.735.735.736.736,0,0,1-.735-.735Zm-1.485,0a.735.735,0,1,1,.735.735.736.736,0,0,1-.735-.735Zm-1.485,0a.735.735,0,1,1,.735.735.736.736,0,0,1-.735-.735Zm-5.942,0a.735.735,0,1,1,.735.735.736.736,0,0,1-.735-.735Zm-7.427,0a.735.735,0,1,1,.735.735.736.736,0,0,1-.735-.735Zm-2.971,0a.735.735,0,1,1,.735.735.736.736,0,0,1-.735-.735Zm-5.942,0a.735.735,0,1,1,.735.735.736.736,0,0,1-.735-.735Zm-1.485,0a.735.735,0,1,1,.735.735.736.736,0,0,1-.735-.735Zm-4.456,0a.735.735,0,1,1,.735.735.749.749,0,0,1-.75-.735h0Zm59.4-1.485a.735.735,0,1,1,.735.735.736.736,0,0,1-.735-.735Zm-5.927,0a.735.735,0,1,1,.735.735.736.736,0,0,1-.735-.735Zm-1.485,0a.735.735,0,1,1,.735.735.736.736,0,0,1-.735-.735Zm-1.485,0a.735.735,0,1,1,.735.735.736.736,0,0,1-.735-.735Zm-2.971,0a.735.735,0,1,1,.735.735.736.736,0,0,1-.735-.735Zm-5.942,0a.735.735,0,1,1,.735.735.736.736,0,0,1-.735-.735Zm-8.912,0a.735.735,0,1,1,.735.735.736.736,0,0,1-.735-.735Zm-2.971,0a.735.735,0,1,1,.735.735.736.736,0,0,1-.735-.735Zm-1.485,0a.735.735,0,1,1,.735.735.736.736,0,0,1-.735-.735Zm-1.485,0a.735.735,0,1,1,.735.735.736.736,0,0,1-.735-.735Zm-2.971,0a.735.735,0,1,1,.735.735.736.736,0,0,1-.735-.735Zm-2.971,0a.735.735,0,1,1,.735.735.736.736,0,0,1-.735-.735Zm-2.971,0a.735.735,0,1,1,.735.735.736.736,0,0,1-.735-.735Zm-2.971,0a.735.735,0,1,1,.735.735.736.736,0,0,1-.735-.735Zm-2.971,0a.735.735,0,1,1,.735.735.736.736,0,0,1-.735-.735Zm-5.942,0a.735.735,0,1,1,.735.735.736.736,0,0,1-.735-.735Zm-1.485,0a.735.735,0,1,1,.735.735.736.736,0,0,1-.735-.735Zm-1.485,0a.735.735,0,1,1,.735.735.736.736,0,0,1-.735-.735Zm-1.485,0a.735.735,0,1,1,.735.735.736.736,0,0,1-.735-.735Zm-2.956,0a.735.735,0,1,1,.735.735.736.736,0,0,1-.735-.735Zm-5.942,0a.735.735,0,1,1,.735.735.736.736,0,0,1-.735-.735Zm-2.971,0a.743.743,0,1,0,0-.015h0Zm66.812-1.485a.735.735,0,1,1,.735.735.736.736,0,0,1-.735-.735Zm-1.47,0a.735.735,0,1,1,.735.735.736.736,0,0,1-.735-.735Zm-1.485,0a.735.735,0,1,1,.735.735.736.736,0,0,1-.735-.735Zm-1.485,0a.735.735,0,1,1,.735.735.736.736,0,0,1-.735-.735Zm-2.971,0a.735.735,0,1,1,.735.735.736.736,0,0,1-.735-.735Zm-1.485,0a.735.735,0,1,1,.735.735.736.736,0,0,1-.735-.735Zm-1.485,0a.735.735,0,1,1,.735.735.749.749,0,0,1-.75-.735h0Zm-1.485,0a.735.735,0,1,1,.735.735.736.736,0,0,1-.735-.735Zm-1.485,0a.735.735,0,1,1,.735.735.736.736,0,0,1-.735-.735Zm-4.456,0a.735.735,0,1,1,.735.735.736.736,0,0,1-.735-.735Zm-2.971,0a.743.743,0,1,0,0-.015h0Zm-2.971,0a.735.735,0,1,1,.735.735.736.736,0,0,1-.735-.735Zm-1.485,0a.735.735,0,1,1,.735.735.736.736,0,0,1-.735-.735Zm-1.485,0a.735.735,0,1,1,.735.735.736.736,0,0,1-.735-.735Zm-1.485,0a.735.735,0,1,1,.735.735.736.736,0,0,1-.735-.735Zm-2.971,0a.735.735,0,1,1,.735.735.736.736,0,0,1-.735-.735Zm-5.942,0a.735.735,0,1,1,.735.735.736.736,0,0,1-.735-.735Zm-2.971,0a.735.735,0,1,1,.735.735.736.736,0,0,1-.735-.735Zm-2.971,0a.735.735,0,1,1,.735.735.736.736,0,0,1-.735-.735Zm-2.971,0a.735.735,0,1,1,.735.735.736.736,0,0,1-.735-.735Zm-2.971,0a.735.735,0,1,1,.735.735.736.736,0,0,1-.735-.735Zm-2.971,0a.735.735,0,1,1,.735.735.736.736,0,0,1-.735-.735Zm-2.971,0a.735.735,0,1,1,.735.735.736.736,0,0,1-.735-.735Zm-4.441,0a.735.735,0,1,1,.735.735.736.736,0,0,1-.735-.735Zm-2.971,0a.735.735,0,1,1,.735.735.736.736,0,0,1-.735-.735Zm-1.485,0a.735.735,0,1,1,.735.735.736.736,0,0,1-.735-.735Zm-2.971,0a.743.743,0,1,0,0-.015h0Zm66.812-1.485a.735.735,0,1,1,.735.735.736.736,0,0,1-.735-.735Zm-4.441,0a.735.735,0,1,1,.735.735.736.736,0,0,1-.735-.735Zm-7.427,0a.735.735,0,1,1,.735.735.736.736,0,0,1-.735-.735Zm-5.942,0a.735.735,0,1,1,.735.735.736.736,0,0,1-.735-.735Zm-1.485,0a.735.735,0,1,1,.735.735.736.736,0,0,1-.735-.735Zm-4.456,0a.735.735,0,1,1,.735.735.736.736,0,0,1-.735-.735Zm-1.485,0a.735.735,0,1,1,.735.735.736.736,0,0,1-.735-.735Zm-4.456,0a.735.735,0,1,1,.735.735.736.736,0,0,1-.735-.735Zm-1.485,0a.735.735,0,1,1,.735.735.736.736,0,0,1-.735-.735Zm-4.456,0a.735.735,0,1,1,.735.735.736.736,0,0,1-.735-.735Zm-2.971,0a.735.735,0,1,1,.735.735.736.736,0,0,1-.735-.735Zm-1.485,0a.735.735,0,1,1,.735.735.736.736,0,0,1-.735-.735Zm-1.485,0a.735.735,0,1,1,.735.735.736.736,0,0,1-.735-.735Zm-1.485,0a.735.735,0,1,1,.735.735.736.736,0,0,1-.735-.735Zm-1.485,0a.735.735,0,1,1,.735.735.736.736,0,0,1-.735-.735Zm-2.971,0a.735.735,0,1,1,.735.735.736.736,0,0,1-.735-.735Zm-1.485,0a.735.735,0,1,1,.735.735.736.736,0,0,1-.735-.735Zm-4.456,0a.735.735,0,1,1,.735.735.736.736,0,0,1-.735-.735Zm-1.485,0a.735.735,0,1,1,.735.735.736.736,0,0,1-.735-.735Zm-1.485,0a.735.735,0,1,1,.735.735.749.749,0,0,1-.75-.735h0Zm-1.47,0a.735.735,0,1,1,.735.735.736.736,0,0,1-.735-.735Zm-2.971,0a.735.735,0,1,1,.735.735.736.736,0,0,1-.735-.735Zm-1.485,0a.74.74,0,0,1,.75-.735.73.73,0,0,1,.735.75.743.743,0,1,1-1.485-.015Zm-1.485,0a.735.735,0,1,1,.735.735.736.736,0,0,1-.735-.735Zm-2.971,0a.743.743,0,1,0,0-.015h0Zm71.269-1.485a.735.735,0,1,1,.735.735.736.736,0,0,1-.735-.735Zm-1.485,0a.735.735,0,1,1,.735.735.736.736,0,0,1-.735-.735Zm-1.485,0a.735.735,0,1,1,.735.735.736.736,0,0,1-.735-.735Zm-1.485,0a.735.735,0,1,1,.735.735.736.736,0,0,1-.735-.735Zm-1.47,0a.735.735,0,1,1,.735.735.736.736,0,0,1-.735-.735Zm-1.485,0a.735.735,0,1,1,.735.735.736.736,0,0,1-.735-.735Zm-2.971,0a.735.735,0,1,1,.735.735.736.736,0,0,1-.735-.735Zm-2.971,0a.735.735,0,1,1,.735.735.736.736,0,0,1-.735-.735Zm-1.485,0a.735.735,0,1,1,.735.735.749.749,0,0,1-.75-.735h0Zm-1.485,0a.735.735,0,1,1,.735.735.736.736,0,0,1-.735-.735Zm-1.485,0a.735.735,0,1,1,.735.735.736.736,0,0,1-.735-.735Zm-1.485,0a.735.735,0,1,1,.735.735.736.736,0,0,1-.735-.735Zm-2.971,0a.735.735,0,1,1,.735.735.736.736,0,0,1-.735-.735Zm-2.971,0a.743.743,0,1,0,0-.015h0Zm-2.971,0a.735.735,0,1,1,.735.735.736.736,0,0,1-.735-.735Zm-1.485,0a.735.735,0,1,1,.735.735.736.736,0,0,1-.735-.735Zm-1.485,0a.735.735,0,1,1,.735.735.736.736,0,0,1-.735-.735Zm-5.941,0a.735.735,0,1,1,.735.735.736.736,0,0,1-.735-.735Zm-2.971,0a.735.735,0,1,1,.735.735.736.736,0,0,1-.735-.735Zm-4.456,0a.735.735,0,1,1,.735.735.736.736,0,0,1-.735-.735Zm-2.971,0a.735.735,0,1,1,.735.735.736.736,0,0,1-.735-.735Zm-4.456,0a.735.735,0,1,1,.735.735.736.736,0,0,1-.735-.735Zm-1.485,0a.735.735,0,1,1,.735.735.736.736,0,0,1-.735-.735Zm-4.456,0a.735.735,0,1,1,.735.735.736.736,0,0,1-.735-.735Zm-1.485,0a.735.735,0,1,1,.735.735.736.736,0,0,1-.735-.735Zm-7.412,0a.735.735,0,1,1,.735.735.736.736,0,0,1-.735-.735Zm-4.456,0a.743.743,0,1,0,0-.015h0Zm69.783-1.485a.735.735,0,1,1,.735.735.736.736,0,0,1-.735-.735Zm-5.927,0a.735.735,0,1,1,.735.735.736.736,0,0,1-.735-.735Zm-1.485,0a.735.735,0,1,1,.735.735.736.736,0,0,1-.735-.735Zm-4.456,0a.735.735,0,1,1,.735.735.736.736,0,0,1-.735-.735Zm-2.971,0a.735.735,0,1,1,.735.735.736.736,0,0,1-.735-.735Zm-2.971,0a.735.735,0,1,1,.735.735.736.736,0,0,1-.735-.735Zm-7.427,0a.735.735,0,1,1,.735.735.736.736,0,0,1-.735-.735Zm-1.485,0a.735.735,0,1,1,.735.735.736.736,0,0,1-.735-.735Zm-4.456,0a.735.735,0,1,1,.735.735.736.736,0,0,1-.735-.735Zm-1.485,0a.735.735,0,1,1,.735.735.736.736,0,0,1-.735-.735Zm-1.485,0a.735.735,0,1,1,.735.735.736.736,0,0,1-.735-.735Zm-2.971,0a.735.735,0,1,1,.735.735.736.736,0,0,1-.735-.735Zm-2.971,0a.735.735,0,1,1,.735.735.736.736,0,0,1-.735-.735Zm-4.456,0a.735.735,0,1,1,.735.735.736.736,0,0,1-.735-.735Zm-2.971,0a.735.735,0,1,1,.735.735.736.736,0,0,1-.735-.735Zm-1.485,0a.735.735,0,1,1,.735.735.736.736,0,0,1-.735-.735Zm-1.485,0a.735.735,0,1,1,.735.735.736.736,0,0,1-.735-.735Zm-1.485,0a.735.735,0,1,1,.735.735.736.736,0,0,1-.735-.735Zm-1.485,0a.735.735,0,1,1,.735.735.736.736,0,0,1-.735-.735Zm-1.485,0a.735.735,0,1,1,.735.735.736.736,0,0,1-.735-.735Zm-2.971,0a.735.735,0,1,1,.735.735.736.736,0,0,1-.735-.735Zm-1.485,0a.735.735,0,1,1,.735.735.749.749,0,0,1-.75-.735h0Zm-1.47,0a.735.735,0,1,1,.735.735.736.736,0,0,1-.735-.735Zm-2.971,0a.735.735,0,1,1,.735.735A.736.736,0,0,1,980,328.2Zm-1.485,0a.735.735,0,1,1,.735.735.736.736,0,0,1-.735-.735Zm-4.456,0a.743.743,0,1,0,0-.015h0Zm69.783-1.485a.735.735,0,1,1,.735.735.736.736,0,0,1-.735-.735Zm-7.412,0a.735.735,0,1,1,.735.735.736.736,0,0,1-.735-.735Zm-4.456,0a.735.735,0,1,1,.735.735.736.736,0,0,1-.735-.735Zm-1.485,0a.735.735,0,1,1,.735.735.749.749,0,0,1-.75-.735h0Zm-2.971,0a.735.735,0,1,1,.735.735.736.736,0,0,1-.735-.735Zm-1.485,0a.735.735,0,1,1,.735.735.736.736,0,0,1-.735-.735Zm-1.485,0a.735.735,0,1,1,.735.735.736.736,0,0,1-.735-.735Zm-2.971,0a.735.735,0,1,1,.735.735.736.736,0,0,1-.735-.735Zm-5.942,0a.735.735,0,1,1,.735.735.736.736,0,0,1-.735-.735Zm-1.485,0a.735.735,0,1,1,.735.735.736.736,0,0,1-.735-.735Zm-2.971,0a.735.735,0,1,1,.735.735.736.736,0,0,1-.735-.735Zm-2.971,0a.735.735,0,1,1,.735.735.736.736,0,0,1-.735-.735Zm-1.485,0a.735.735,0,1,1,.735.735.736.736,0,0,1-.735-.735Zm-1.485,0a.735.735,0,1,1,.735.735.736.736,0,0,1-.735-.735Zm-7.427,0a.735.735,0,1,1,.735.735.736.736,0,0,1-.735-.735Zm-4.456,0a.735.735,0,1,1,.735.735.736.736,0,0,1-.735-.735Zm-1.485,0a.735.735,0,1,1,.735.735.736.736,0,0,1-.735-.735Zm-5.942,0a.735.735,0,1,1,.735.735.736.736,0,0,1-.735-.735Zm-1.485,0a.735.735,0,1,1,.735.735.749.749,0,0,1-.75-.735h0Zm-5.927,0a.735.735,0,1,1,.735.735.736.736,0,0,1-.735-.735Zm-1.485,0a.735.735,0,1,1,.735.735.736.736,0,0,1-.735-.735Zm-1.485,0a.735.735,0,1,1,.735.735.736.736,0,0,1-.735-.735Zm65.327-1.485a.735.735,0,1,1,.735.735.736.736,0,0,1-.735-.735Zm-1.47,0a.735.735,0,1,1,.735.735.736.736,0,0,1-.735-.735Zm-1.485,0a.735.735,0,1,1,.735.735.736.736,0,0,1-.735-.735Zm-1.485,0a.735.735,0,1,1,.735.735.736.736,0,0,1-.735-.735Zm-1.485,0a.735.735,0,1,1,.735.735.736.736,0,0,1-.735-.735Zm-1.485,0a.735.735,0,1,1,.735.735.736.736,0,0,1-.735-.735Zm-2.971,0a.735.735,0,1,1,.735.735.749.749,0,0,1-.75-.735h0Zm-1.485,0a.735.735,0,1,1,.735.735.736.736,0,0,1-.735-.735Zm-1.485,0a.735.735,0,1,1,.735.735.736.736,0,0,1-.735-.735Zm-4.456,0a.735.735,0,1,1,.735.735.736.736,0,0,1-.735-.735Zm-4.456,0a.735.735,0,1,1,.735.735.736.736,0,0,1-.735-.735Zm-2.971,0a.735.735,0,1,1,.735.735.736.736,0,0,1-.735-.735Zm-2.971,0a.735.735,0,1,1,.735.735.736.736,0,0,1-.735-.735Zm-1.485,0a.735.735,0,1,1,.735.735.736.736,0,0,1-.735-.735Zm-1.485,0a.735.735,0,1,1,.735.735.736.736,0,0,1-.735-.735Zm-1.485,0a.735.735,0,1,1,.735.735.736.736,0,0,1-.735-.735Zm-1.485,0a.735.735,0,1,1,.735.735.736.736,0,0,1-.735-.735Zm-4.456,0a.735.735,0,1,1,.735.735.736.736,0,0,1-.735-.735Zm-1.485,0a.735.735,0,1,1,.735.735.736.736,0,0,1-.735-.735Zm-2.971,0a.735.735,0,1,1,.735.735.736.736,0,0,1-.735-.735Zm-1.485,0a.735.735,0,1,1,.735.735.736.736,0,0,1-.735-.735Zm-1.485,0a.735.735,0,1,1,.735.735.736.736,0,0,1-.735-.735Zm-2.971,0a.735.735,0,1,1,.735.735.736.736,0,0,1-.735-.735Zm-2.971,0a.735.735,0,1,1,.735.735.736.736,0,0,1-.735-.735Zm-2.971,0a.735.735,0,1,1,.735.735.736.736,0,0,1-.735-.735Zm-1.485,0a.735.735,0,1,1,.735.735.749.749,0,0,1-.75-.735h0Zm-1.47,0a.735.735,0,1,1,.735.735.736.736,0,0,1-.735-.735Zm-1.485,0a.735.735,0,1,1,.735.735.736.736,0,0,1-.735-.735Zm-1.485,0a.735.735,0,1,1,.735.735.736.736,0,0,1-.735-.735Zm-4.456,0a.735.735,0,1,1,.735.735.736.736,0,0,1-.735-.735Zm-1.485,0a.743.743,0,1,0,0-.015h0Zm68.3-1.485a.735.735,0,1,1,.735.735.736.736,0,0,1-.735-.735Zm-1.485,0a.735.735,0,1,1,.735.735.736.736,0,0,1-.735-.735Zm-1.47,0a.735.735,0,1,1,.735.735.736.736,0,0,1-.735-.735Zm-5.942,0a.735.735,0,1,1,.735.735.736.736,0,0,1-.735-.735Zm-1.485,0a.735.735,0,1,1,.735.735.736.736,0,0,1-.735-.735Zm-1.485,0a.735.735,0,1,1,.735.735.749.749,0,0,1-.75-.735h0Zm-2.971,0a.735.735,0,1,1,.735.735.736.736,0,0,1-.735-.735Zm-1.485,0a.735.735,0,1,1,.735.735.736.736,0,0,1-.735-.735Zm-1.485,0a.735.735,0,1,1,.735.735.736.736,0,0,1-.735-.735Zm-1.485,0a.735.735,0,1,1,.735.735.736.736,0,0,1-.735-.735Zm-4.456,0a.735.735,0,1,1,.735.735.736.736,0,0,1-.735-.735Zm-1.485,0a.735.735,0,1,1,.735.735.736.736,0,0,1-.735-.735Zm-4.456,0a.735.735,0,1,1,.735.735.736.736,0,0,1-.735-.735Zm-5.942,0a.735.735,0,1,1,.735.735.736.736,0,0,1-.735-.735Zm-2.971,0a.735.735,0,1,1,.735.735.736.736,0,0,1-.735-.735Zm-2.971,0a.735.735,0,1,1,.735.735.736.736,0,0,1-.735-.735Zm-1.485,0a.735.735,0,1,1,.735.735.736.736,0,0,1-.735-.735Zm-2.971,0a.735.735,0,1,1,.735.735.736.736,0,0,1-.735-.735Zm-1.485,0a.735.735,0,1,1,.735.735.736.736,0,0,1-.735-.735Zm-7.427,0a.735.735,0,1,1,.735.735.736.736,0,0,1-.735-.735Zm-1.485,0a.735.735,0,1,1,.735.735.736.736,0,0,1-.735-.735Zm-5.927,0a.735.735,0,1,1,.735.735.736.736,0,0,1-.735-.735Zm-1.485,0a.735.735,0,1,1,.735.735.736.736,0,0,1-.735-.735Zm-2.971,0a.735.735,0,1,1,.735.735.736.736,0,0,1-.735-.735Zm68.3-1.485a.735.735,0,1,1,.735.735.736.736,0,0,1-.735-.735Zm-1.485,0a.735.735,0,1,1,.735.735.736.736,0,0,1-.735-.735Zm-2.956,0a.735.735,0,1,1,.735.735.736.736,0,0,1-.735-.735Zm-2.971,0a.735.735,0,1,1,.735.735.736.736,0,0,1-.735-.735Zm-2.971,0a.735.735,0,1,1,.735.735.736.736,0,0,1-.735-.735Zm-1.485,0a.735.735,0,1,1,.735.735.736.736,0,0,1-.735-.735Zm-2.971,0a.735.735,0,1,1,.735.735.736.736,0,0,1-.735-.735Zm-2.971,0a.735.735,0,1,1,.735.735.736.736,0,0,1-.735-.735Zm-1.485,0a.735.735,0,1,1,.735.735.736.736,0,0,1-.735-.735Zm-1.485,0a.735.735,0,1,1,.735.735.736.736,0,0,1-.735-.735Zm-5.941,0a.735.735,0,1,1,.735.735.736.736,0,0,1-.735-.735Zm-1.485,0a.735.735,0,1,1,.735.735.736.736,0,0,1-.735-.735Zm-2.971,0a.735.735,0,1,1,.735.735.736.736,0,0,1-.735-.735Zm-2.971,0a.735.735,0,1,1,.735.735.736.736,0,0,1-.735-.735Zm-2.971,0a.735.735,0,1,1,.735.735.736.736,0,0,1-.735-.735Zm-1.485,0a.735.735,0,1,1,.735.735.736.736,0,0,1-.735-.735Zm-1.485,0a.735.735,0,1,1,.735.735.736.736,0,0,1-.735-.735Zm-4.456,0a.735.735,0,1,1,.735.735.736.736,0,0,1-.735-.735Zm-5.942,0a.735.735,0,1,1,.735.735.736.736,0,0,1-.735-.735Zm-1.485,0a.735.735,0,1,1,.735.735.736.736,0,0,1-.735-.735Zm-5.942,0a.735.735,0,1,1,.735.735.736.736,0,0,1-.735-.735Zm-2.956,0a.735.735,0,1,1,.735.735.736.736,0,0,1-.735-.735Zm-2.971,0a.735.735,0,1,1,.735.735.736.736,0,0,1-.735-.735Zm-2.971,0a.735.735,0,1,1,.735.735.736.736,0,0,1-.735-.735Zm68.3-1.485a.735.735,0,1,1,.735.735.736.736,0,0,1-.735-.735Zm-2.971,0a.735.735,0,1,1,.735.735.736.736,0,0,1-.735-.735Zm-1.485,0a.735.735,0,1,1,.735.735.736.736,0,0,1-.735-.735Zm-1.47,0a.735.735,0,1,1,.735.735.736.736,0,0,1-.735-.735Zm-5.942,0a.735.735,0,1,1,.735.735.736.736,0,0,1-.735-.735Zm-1.485,0a.735.735,0,1,1,.735.735.736.736,0,0,1-.735-.735Zm-1.485,0a.735.735,0,1,1,.735.735.749.749,0,0,1-.75-.735h0Zm-4.456,0a.735.735,0,1,1,.735.735.736.736,0,0,1-.735-.735Zm-2.971,0a.735.735,0,1,1,.735.735.736.736,0,0,1-.735-.735Zm-5.941,0a.735.735,0,1,1,.735.735.736.736,0,0,1-.735-.735Zm-4.456,0a.735.735,0,1,1,.735.735.736.736,0,0,1-.735-.735Zm-5.942,0a.735.735,0,1,1,.735.735.736.736,0,0,1-.735-.735Zm-1.485,0a.735.735,0,1,1,.735.735.736.736,0,0,1-.735-.735Zm-1.485,0a.735.735,0,1,1,.735.735.736.736,0,0,1-.735-.735Zm-2.971,0a.735.735,0,1,1,.735.735.736.736,0,0,1-.735-.735Zm-2.971,0a.735.735,0,1,1,.735.735.736.736,0,0,1-.735-.735Zm-2.971,0a.735.735,0,1,1,.735.735.736.736,0,0,1-.735-.735Zm-4.456,0a.735.735,0,1,1,.735.735.736.736,0,0,1-.735-.735Zm-2.971,0a.735.735,0,1,1,.735.735.736.736,0,0,1-.735-.735Zm-1.485,0a.735.735,0,1,1,.735.735.736.736,0,0,1-.735-.735Zm-5.927,0a.735.735,0,1,1,.735.735.736.736,0,0,1-.735-.735Zm-2.971,0a.735.735,0,1,1,.735.735.736.736,0,0,1-.735-.735Zm-1.485,0a.735.735,0,1,1,.735.735.736.736,0,0,1-.735-.735Zm-1.485,0a.743.743,0,1,0,0-.015h0Zm65.342-1.485a.735.735,0,1,1,.735.735A.736.736,0,0,1,1039.4,319.283Zm-1.485,0a.735.735,0,1,1,.735.735A.736.736,0,0,1,1037.911,319.283Zm-1.485,0a.735.735,0,1,1,.735.735A.736.736,0,0,1,1036.425,319.283Zm-1.485,0a.735.735,0,1,1,.735.735A.736.736,0,0,1,1034.94,319.283Zm-1.485,0a.735.735,0,1,1,.735.735A.736.736,0,0,1,1033.454,319.283Zm-1.485,0a.735.735,0,1,1,.735.735A.736.736,0,0,1,1031.969,319.283Zm-4.456,0a.735.735,0,1,1,.735.735A.736.736,0,0,1,1027.513,319.283Zm-1.485,0a.735.735,0,1,1,.735.735A.736.736,0,0,1,1026.027,319.283Zm-2.971,0a.735.735,0,1,1,.735.735A.736.736,0,0,1,1023.057,319.283Zm-4.456,0a.735.735,0,1,1,.735.735A.736.736,0,0,1,1018.6,319.283Zm-1.485,0a.735.735,0,1,1,.735.735A.736.736,0,0,1,1017.115,319.283Zm-4.456,0a.735.735,0,1,1,.735.735A.736.736,0,0,1,1012.659,319.283Zm-1.485,0a.735.735,0,1,1,.735.735A.736.736,0,0,1,1011.174,319.283Zm-1.485,0a.735.735,0,1,1,.735.735A.736.736,0,0,1,1009.688,319.283Zm-1.485,0a.735.735,0,1,1,.735.735.736.736,0,0,1-.735-.735Zm-1.485,0a.735.735,0,1,1,.735.735A.736.736,0,0,1,1006.717,319.283Zm-5.942,0a.735.735,0,1,1,.735.735A.736.736,0,0,1,1000.776,319.283Zm-2.971,0a.735.735,0,1,1,.735.735A.736.736,0,0,1,997.805,319.283Zm-2.971,0a.735.735,0,1,1,.735.735A.736.736,0,0,1,994.834,319.283Zm-1.485,0a.735.735,0,1,1,.735.735A.736.736,0,0,1,993.349,319.283Zm-2.971,0a.735.735,0,1,1,.735.735A.736.736,0,0,1,990.378,319.283Zm-1.485,0a.735.735,0,1,1,.735.735A.736.736,0,0,1,988.893,319.283Zm-1.485,0a.735.735,0,1,1,.735.735A.736.736,0,0,1,987.407,319.283Zm-1.485,0a.735.735,0,1,1,.735.735.736.736,0,0,1-.735-.735Zm-1.485,0a.735.735,0,1,1,.735.735.749.749,0,0,1-.75-.735h0Zm-1.47,0a.735.735,0,1,1,.735.735A.736.736,0,0,1,982.966,319.283Zm-1.485,0a.735.735,0,1,1,.735.735A.736.736,0,0,1,981.481,319.283Zm-1.485,0a.735.735,0,1,1,.735.735A.736.736,0,0,1,980,319.283Zm-4.456,0a.735.735,0,1,1,.735.735A.736.736,0,0,1,975.539,319.283Zm60.886-1.485a.735.735,0,1,1,.735.735.736.736,0,0,1-.735-.735Zm-2.971,0a.735.735,0,1,1,.735.735.736.736,0,0,1-.735-.735Zm-7.427,0a.735.735,0,1,1,.735.735.736.736,0,0,1-.735-.735Zm-5.942,0a.735.735,0,1,1,.735.735.736.736,0,0,1-.735-.735Zm-1.485,0a.735.735,0,1,1,.735.735.736.736,0,0,1-.735-.735Zm-1.485,0a.735.735,0,1,1,.735.735.736.736,0,0,1-.735-.735Zm-10.4,0a.735.735,0,1,1,.735.735.736.736,0,0,1-.735-.735Zm-4.456,0a.735.735,0,1,1,.735.735.736.736,0,0,1-.735-.735Zm-4.456,0a.735.735,0,1,1,.735.735.736.736,0,0,1-.735-.735Zm-8.912,0a.735.735,0,1,1,.735.735.736.736,0,0,1-.735-.735Zm-2.971,0a.735.735,0,1,1,.735.735.736.736,0,0,1-.735-.735Zm-1.485,0a.735.735,0,1,1,.735.735.749.749,0,0,1-.75-.735h0Zm-7.412,0a.735.735,0,1,1,.735.735.736.736,0,0,1-.735-.735Zm66.813-1.485a.735.735,0,1,1,.735.735.736.736,0,0,1-.735-.735Zm-4.441,0a.735.735,0,1,1,.735.735.736.736,0,0,1-.735-.735Zm-4.456,0a.735.735,0,1,1,.735.735.736.736,0,0,1-.735-.735Zm-2.971,0a.735.735,0,1,1,.735.735.736.736,0,0,1-.735-.735Zm-5.942,0a.735.735,0,1,1,.735.735.736.736,0,0,1-.735-.735Zm-1.485,0a.735.735,0,1,1,.735.735.736.736,0,0,1-.735-.735Zm-1.485,0a.735.735,0,1,1,.735.735.736.736,0,0,1-.735-.735Zm-4.456,0a.735.735,0,1,1,.735.735.736.736,0,0,1-.735-.735Zm-1.485,0a.735.735,0,1,1,.735.735.736.736,0,0,1-.735-.735Zm-1.485,0a.735.735,0,1,1,.735.735.736.736,0,0,1-.735-.735Zm-5.941,0a.735.735,0,1,1,.735.735.736.736,0,0,1-.735-.735Zm-1.485,0a.735.735,0,1,1,.735.735.736.736,0,0,1-.735-.735Zm-2.971,0a.735.735,0,1,1,.735.735.736.736,0,0,1-.735-.735Zm-1.485,0a.735.735,0,1,1,.735.735.736.736,0,0,1-.735-.735Zm-1.485,0a.735.735,0,1,1,.735.735.736.736,0,0,1-.735-.735Zm-1.485,0a.735.735,0,1,1,.735.735.736.736,0,0,1-.735-.735Zm-2.971,0a.735.735,0,1,1,.735.735.736.736,0,0,1-.735-.735Zm-1.485,0a.735.735,0,1,1,.735.735.736.736,0,0,1-.735-.735Zm-2.971,0a.735.735,0,1,1,.735.735.736.736,0,0,1-.735-.735Zm-1.485,0a.735.735,0,1,1,.735.735.736.736,0,0,1-.735-.735Zm-2.971,0a.735.735,0,1,1,.735.735.736.736,0,0,1-.735-.735Zm-2.971,0a.735.735,0,1,1,.735.735.736.736,0,0,1-.735-.735Zm-1.485,0a.735.735,0,1,1,.735.735.749.749,0,0,1-.75-.735h0Zm-1.47,0a.735.735,0,1,1,.735.735.736.736,0,0,1-.735-.735Zm-2.971,0a.735.735,0,1,1,.735.735.736.736,0,0,1-.735-.735Zm-4.456,0a.735.735,0,1,1,.735.735.736.736,0,0,1-.735-.735Zm-1.485,0a.735.735,0,1,1,.735.735.736.736,0,0,1-.735-.735Zm71.269-1.485a.735.735,0,1,1,.735.735.736.736,0,0,1-.735-.735Zm-2.971,0a.735.735,0,1,1,.735.735.736.736,0,0,1-.735-.735Zm-1.485,0a.735.735,0,1,1,.735.735.736.736,0,0,1-.735-.735Zm-1.47,0a.735.735,0,1,1,.735.735.736.736,0,0,1-.735-.735Zm-4.456,0a.735.735,0,1,1,.735.735.736.736,0,0,1-.735-.735Zm-2.971,0a.735.735,0,1,1,.735.735.736.736,0,0,1-.735-.735Zm-1.485,0a.735.735,0,1,1,.735.735.749.749,0,0,1-.75-.735h0Zm-1.485,0a.735.735,0,1,1,.735.735.736.736,0,0,1-.735-.735Zm-4.456,0a.735.735,0,1,1,.735.735.736.736,0,0,1-.735-.735Zm-2.971,0a.735.735,0,1,1,.735.735.736.736,0,0,1-.735-.735Zm-4.456,0a.735.735,0,1,1,.735.735.736.736,0,0,1-.735-.735Zm-1.485,0a.735.735,0,1,1,.735.735.736.736,0,0,1-.735-.735Zm-2.971,0a.735.735,0,1,1,.735.735.736.736,0,0,1-.735-.735Zm-1.485,0a.735.735,0,1,1,.735.735.736.736,0,0,1-.735-.735Zm-5.942,0a.735.735,0,1,1,.735.735.736.736,0,0,1-.735-.735Zm-5.941,0a.735.735,0,1,1,.735.735.736.736,0,0,1-.735-.735Zm-5.942,0a.735.735,0,1,1,.735.735.736.736,0,0,1-.735-.735Zm-2.971,0a.735.735,0,1,1,.735.735.736.736,0,0,1-.735-.735Zm-2.971,0a.735.735,0,1,1,.735.735.736.736,0,0,1-.735-.735Zm-7.412,0a.735.735,0,1,1,.735.735.736.736,0,0,1-.735-.735Zm-1.485,0a.735.735,0,1,1,.735.735.736.736,0,0,1-.735-.735Zm66.812-1.485a.735.735,0,1,1,.735.735.736.736,0,0,1-.735-.735Zm-2.971,0a.735.735,0,1,1,.735.735.736.736,0,0,1-.735-.735Zm-4.441,0a.735.735,0,1,1,.735.735.736.736,0,0,1-.735-.735Zm-1.485,0a.735.735,0,1,1,.735.735.736.736,0,0,1-.735-.735Zm-2.971,0a.735.735,0,1,1,.735.735.736.736,0,0,1-.735-.735Zm-5.941,0a.735.735,0,1,1,.735.735.736.736,0,0,1-.735-.735Zm-1.485,0a.735.735,0,1,1,.735.735.736.736,0,0,1-.735-.735Zm-1.485,0a.74.74,0,0,1,.75-.735.743.743,0,0,1,0,1.485.749.749,0,0,1-.75-.735h0Zm-2.971,0a.735.735,0,1,1,.735.735.736.736,0,0,1-.735-.735Zm-1.485,0a.735.735,0,1,1,.735.735.736.736,0,0,1-.735-.735Zm-4.456,0a.735.735,0,1,1,.735.735.736.736,0,0,1-.735-.735Zm-7.427,0a.735.735,0,1,1,.735.735.736.736,0,0,1-.735-.735Zm-1.485,0a.735.735,0,1,1,.735.735.736.736,0,0,1-.735-.735Zm-1.485,0a.735.735,0,1,1,.735.735.736.736,0,0,1-.735-.735Zm-1.485,0a.735.735,0,1,1,.735.735.736.736,0,0,1-.735-.735Zm-1.485,0a.735.735,0,1,1,.735.735.736.736,0,0,1-.735-.735Zm-1.485,0a.735.735,0,1,1,.735.735.736.736,0,0,1-.735-.735Zm-1.485,0a.735.735,0,1,1,.735.735.736.736,0,0,1-.735-.735Zm-5.942,0a.735.735,0,1,1,.735.735.736.736,0,0,1-.735-.735Zm-2.971,0a.735.735,0,1,1,.735.735.736.736,0,0,1-.735-.735Zm-1.485,0a.735.735,0,1,1,.735.735.736.736,0,0,1-.735-.735Zm-5.927,0a.735.735,0,1,1,.735.735.736.736,0,0,1-.735-.735Zm-2.971,0a.735.735,0,1,1,.735.735.736.736,0,0,1-.735-.735Zm-1.485,0a.74.74,0,0,1,.75-.735.73.73,0,0,1,.735.75.743.743,0,0,1-1.485,0h0Zm-2.971,0a.735.735,0,1,1,.735.735.736.736,0,0,1-.735-.735Zm-1.485,0a.735.735,0,1,1,.735.735.736.736,0,0,1-.735-.735Zm71.269-1.485a.735.735,0,1,1,.735.735.736.736,0,0,1-.735-.735Zm-5.927,0a.735.735,0,1,1,.735.735.736.736,0,0,1-.735-.735Zm-2.971,0a.735.735,0,1,1,.735.735.736.736,0,0,1-.735-.735Zm-1.485,0a.735.735,0,1,1,.735.735.736.736,0,0,1-.735-.735Zm-1.485,0a.735.735,0,1,1,.735.735.736.736,0,0,1-.735-.735Zm-4.456,0a.735.735,0,1,1,.735.735.736.736,0,0,1-.735-.735Zm-7.427,0a.735.735,0,1,1,.735.735.736.736,0,0,1-.735-.735Zm-1.485,0a.735.735,0,1,1,.735.735.736.736,0,0,1-.735-.735Zm-1.485,0a.735.735,0,1,1,.735.735.736.736,0,0,1-.735-.735Zm-1.485,0a.735.735,0,1,1,.735.735.736.736,0,0,1-.735-.735Zm-4.456,0a.735.735,0,1,1,.735.735.736.736,0,0,1-.735-.735Zm-1.485,0a.735.735,0,1,1,.735.735.736.736,0,0,1-.735-.735Zm-1.485,0a.735.735,0,1,1,.735.735.736.736,0,0,1-.735-.735Zm-1.485,0a.735.735,0,1,1,.735.735.736.736,0,0,1-.735-.735Zm-2.971,0a.735.735,0,1,1,.735.735.736.736,0,0,1-.735-.735Zm-1.485,0a.735.735,0,1,1,.735.735.736.736,0,0,1-.735-.735Zm-2.971,0a.735.735,0,1,1,.735.735.736.736,0,0,1-.735-.735Zm-2.971,0a.735.735,0,1,1,.735.735.736.736,0,0,1-.735-.735Zm-4.456,0a.735.735,0,1,1,.735.735.736.736,0,0,1-.735-.735Zm-4.456,0a.735.735,0,1,1,.735.735.736.736,0,0,1-.735-.735Zm-1.485,0a.735.735,0,1,1,.735.735.736.736,0,0,1-.735-.735Zm-5.926,0a.735.735,0,1,1,.735.735.736.736,0,0,1-.735-.735Zm-1.485,0a.735.735,0,1,1,.735.735.736.736,0,0,1-.735-.735Zm-1.485,0a.735.735,0,1,1,.735.735.736.736,0,0,1-.735-.735Zm-1.485,0a.735.735,0,1,1,.735.735.736.736,0,0,1-.735-.735Zm65.327-1.485a.735.735,0,1,1,.735.735.736.736,0,0,1-.735-.735Zm-2.956,0a.735.735,0,1,1,.735.735.736.736,0,0,1-.735-.735Zm-1.485,0a.735.735,0,1,1,.735.735.736.736,0,0,1-.735-.735Zm-1.485,0a.735.735,0,1,1,.735.735.736.736,0,0,1-.735-.735Zm-5.942,0a.735.735,0,1,1,.735.735.749.749,0,0,1-.75-.735h0Zm-1.485,0a.735.735,0,1,1,.735.735.736.736,0,0,1-.735-.735Zm-2.971,0a.735.735,0,1,1,.735.735.736.736,0,0,1-.735-.735Zm-1.485,0a.735.735,0,1,1,.735.735.736.736,0,0,1-.735-.735Zm-1.485,0a.735.735,0,1,1,.735.735.736.736,0,0,1-.735-.735Zm-5.941,0a.735.735,0,1,1,.735.735.736.736,0,0,1-.735-.735Zm-2.971,0a.735.735,0,1,1,.735.735.736.736,0,0,1-.735-.735Zm-2.971,0a.735.735,0,1,1,.735.735.736.736,0,0,1-.735-.735Zm-7.427,0a.735.735,0,1,1,.735.735.736.736,0,0,1-.735-.735Zm-2.971,0a.735.735,0,1,1,.735.735.736.736,0,0,1-.735-.735Zm-1.485,0a.735.735,0,1,1,.735.735.736.736,0,0,1-.735-.735Zm-4.456,0a.735.735,0,1,1,.735.735.736.736,0,0,1-.735-.735Zm-4.456,0a.735.735,0,1,1,.735.735.736.736,0,0,1-.735-.735Zm-2.971,0a.735.735,0,1,1,.735.735.736.736,0,0,1-.735-.735Zm-1.485,0a.735.735,0,1,1,.735.735.736.736,0,0,1-.735-.735Zm-2.956,0a.735.735,0,1,1,.735.735.736.736,0,0,1-.735-.735Zm-8.912,0a.735.735,0,1,1,.735.735.736.736,0,0,1-.735-.735Zm71.269-1.485a.735.735,0,1,1,.735.735A.736.736,0,0,1,1045.323,308.886Zm-1.485,0a.735.735,0,1,1,.735.735A.736.736,0,0,1,1043.837,308.886Zm-1.485,0a.735.735,0,1,1,.735.735A.736.736,0,0,1,1042.352,308.886Zm-5.927,0a.735.735,0,1,1,.735.735A.736.736,0,0,1,1036.425,308.886Zm-1.485,0a.735.735,0,1,1,.735.735A.736.736,0,0,1,1034.94,308.886Zm-2.971,0a.735.735,0,1,1,.735.735A.736.736,0,0,1,1031.969,308.886Zm-1.485,0a.735.735,0,1,1,.735.735.749.749,0,0,1-.75-.735h0Zm-1.485,0a.735.735,0,1,1,.735.735A.736.736,0,0,1,1029,308.886Zm-2.971,0a.735.735,0,1,1,.735.735A.736.736,0,0,1,1026.027,308.886Zm-2.971,0a.735.735,0,1,1,.735.735A.736.736,0,0,1,1023.057,308.886Zm-1.485,0a.735.735,0,1,1,.735.735A.736.736,0,0,1,1021.571,308.886Zm-2.971,0a.735.735,0,1,1,.735.735A.736.736,0,0,1,1018.6,308.886Zm-1.485,0a.735.735,0,1,1,.735.735A.736.736,0,0,1,1017.115,308.886Zm-1.485,0a.735.735,0,1,1,.735.735A.736.736,0,0,1,1015.63,308.886Zm-5.941,0a.735.735,0,1,1,.735.735A.736.736,0,0,1,1009.688,308.886Zm-1.485,0a.735.735,0,1,1,.735.735.736.736,0,0,1-.735-.735Zm-1.485,0a.735.735,0,1,1,.735.735A.736.736,0,0,1,1006.717,308.886Zm-2.971,0a.735.735,0,1,1,.735.735A.736.736,0,0,1,1003.747,308.886Zm-1.485,0a.735.735,0,1,1,.735.735A.736.736,0,0,1,1002.261,308.886Zm-1.485,0a.735.735,0,1,1,.735.735A.736.736,0,0,1,1000.776,308.886Zm-2.971,0a.735.735,0,1,1,.735.735A.736.736,0,0,1,997.805,308.886Zm-4.456,0a.735.735,0,1,1,.735.735A.736.736,0,0,1,993.349,308.886Zm-2.971,0a.735.735,0,1,1,.735.735A.736.736,0,0,1,990.378,308.886Zm-1.485,0a.735.735,0,1,1,.735.735A.736.736,0,0,1,988.893,308.886Zm-1.485,0a.735.735,0,1,1,.735.735A.736.736,0,0,1,987.407,308.886Zm-1.485,0a.735.735,0,1,1,.735.735.736.736,0,0,1-.735-.735Zm-1.485,0a.735.735,0,1,1,.735.735.749.749,0,0,1-.75-.735h0Zm-5.927,0a.735.735,0,1,1,.735.735A.736.736,0,0,1,978.51,308.886Zm-1.485,0a.735.735,0,1,1,.735.735A.736.736,0,0,1,977.025,308.886Zm-1.485,0a.735.735,0,1,1,.735.735A.736.736,0,0,1,975.539,308.886Zm-1.485,0a.735.735,0,1,1,.735.735A.736.736,0,0,1,974.054,308.886Zm71.284-1.485a.735.735,0,1,1,.735.735.749.749,0,0,1-.75-.735h0Zm-1.485,0a.735.735,0,1,1,.735.735.749.749,0,0,1-.75-.735h0Zm-10.4,0a.735.735,0,1,1,.735.735.749.749,0,0,1-.75-.735h0Zm-2.971,0a.735.735,0,1,1,.735.735.749.749,0,0,1-.75-.735h0Zm-2.971,0a.735.735,0,1,1,.735.735.749.749,0,0,1-.75-.735h0Zm-1.485,0a.735.735,0,1,1,.735.735.749.749,0,0,1-.75-.735h0Zm-1.485,0a.735.735,0,1,1,.735.735.749.749,0,0,1-.75-.735h0Zm-4.456,0a.743.743,0,1,0,0-.015h0Zm-5.942,0a.735.735,0,1,1,.735.735.749.749,0,0,1-.75-.735h0Zm-4.456,0a.735.735,0,1,1,.735.735.749.749,0,0,1-.75-.735h0Zm-2.971,0a.735.735,0,1,1,.735.735.749.749,0,0,1-.75-.735h0Zm-4.456,0a.735.735,0,1,1,.735.735.749.749,0,0,1-.75-.735h0Zm-1.485,0a.735.735,0,1,1,.735.735.749.749,0,0,1-.75-.735h0Zm-1.485,0a.735.735,0,1,1,.735.735.749.749,0,0,1-.75-.735h0Zm-1.485,0a.735.735,0,1,1,.735.735.749.749,0,0,1-.75-.735h0Zm-1.485,0a.735.735,0,1,1,.735.735.749.749,0,0,1-.75-.735h0Zm-1.485,0a.735.735,0,1,1,.735.735.749.749,0,0,1-.75-.735h0Zm-1.485,0a.735.735,0,1,1,.735.735.749.749,0,0,1-.75-.735h0Zm-10.383,0a.735.735,0,1,1,.735.735.749.749,0,0,1-.75-.735h0Zm-1.485,0a.735.735,0,1,1,.735.735.749.749,0,0,1-.75-.735h0Zm-4.456,0a.735.735,0,1,1,.735.735.749.749,0,0,1-.75-.735h0Zm-1.485,0a.735.735,0,1,1,.735.735.749.749,0,0,1-.75-.735h0Zm69.8-1.485a.735.735,0,1,1,.735.735.749.749,0,0,1-.75-.735h0Zm-1.485,0a.735.735,0,1,1,.735.735.749.749,0,0,1-.75-.735h0Zm-5.942,0a.735.735,0,1,1,.735.735.749.749,0,0,1-.75-.735h0Zm-2.971,0a.735.735,0,1,1,.735.735.749.749,0,0,1-.75-.735h0Zm-1.485,0a.735.735,0,1,1,.735.735.749.749,0,0,1-.75-.735h0Zm-2.971,0a.735.735,0,1,1,.735.735.749.749,0,0,1-.75-.735h0Zm-14.854,0a.735.735,0,1,1,.735.735.749.749,0,0,1-.75-.735h0Zm-2.971,0a.735.735,0,1,1,.735.735.749.749,0,0,1-.75-.735h0Zm-1.485,0a.735.735,0,1,1,.735.735.749.749,0,0,1-.75-.735h0Zm-7.427,0a.735.735,0,1,1,.735.735.749.749,0,0,1-.75-.735h0Zm-2.971,0a.735.735,0,1,1,.735.735.749.749,0,0,1-.75-.735h0Zm-1.485,0a.735.735,0,1,1,.735.735.749.749,0,0,1-.75-.735h0Zm-2.971,0a.735.735,0,1,1,.735.735.749.749,0,0,1-.75-.735h0Zm-4.456,0a.735.735,0,1,1,.735.735.749.749,0,0,1-.75-.735h0Zm-1.47,0a.735.735,0,1,1,.735.735.749.749,0,0,1-.75-.735h0Zm-1.485,0a.735.735,0,1,1,.735.735.749.749,0,0,1-.75-.735h0Zm-1.485,0a.735.735,0,1,1,.735.735.749.749,0,0,1-.75-.735h0Zm-1.485,0a.735.735,0,1,1,.735.735.749.749,0,0,1-.75-.735h0Zm-1.485,0a.735.735,0,1,1,.735.735.749.749,0,0,1-.75-.735h0Zm-2.971,0a.735.735,0,1,1,.735.735.749.749,0,0,1-.75-.735h0Zm-5.942,0a.735.735,0,1,1,.735.735.749.749,0,0,1-.75-.735h0Zm-1.485,0a.735.735,0,1,1,.735.735.736.736,0,0,1-.735-.735Zm69.8-1.485a.735.735,0,1,1,.735.735.749.749,0,0,1-.75-.735h0Zm-1.485,0a.735.735,0,1,1,.735.735.749.749,0,0,1-.75-.735h0Zm-1.485,0a.735.735,0,1,1,.735.735.749.749,0,0,1-.75-.735h0Zm-4.456,0a.735.735,0,1,1,.735.735.749.749,0,0,1-.75-.735h0Zm-2.971,0a.735.735,0,1,1,.735.735.749.749,0,0,1-.75-.735h0Zm-2.971,0a.735.735,0,1,1,.735.735.749.749,0,0,1-.75-.735h0Zm-2.971,0a.735.735,0,1,1,.735.735.749.749,0,0,1-.75-.735h0Zm-2.971,0a.735.735,0,1,1,.735.735.749.749,0,0,1-.75-.735h0Zm-1.485,0a.735.735,0,1,1,.735.735.749.749,0,0,1-.75-.735h0Zm-2.971,0a.743.743,0,1,0,0-.015h0Zm-1.485,0a.735.735,0,1,1,.735.735.749.749,0,0,1-.75-.735h0Zm-1.485,0a.735.735,0,1,1,.735.735.749.749,0,0,1-.75-.735h0Zm-1.485,0a.735.735,0,1,1,.735.735.749.749,0,0,1-.75-.735h0Zm-1.485,0a.735.735,0,1,1,.735.735.749.749,0,0,1-.75-.735h0Zm-4.456,0a.735.735,0,1,1,.735.735.749.749,0,0,1-.75-.735h0Zm-2.971,0a.735.735,0,1,1,.735.735.749.749,0,0,1-.75-.735h0Zm-1.485,0a.735.735,0,1,1,.735.735.749.749,0,0,1-.75-.735h0Zm-2.971,0a.735.735,0,1,1,.735.735.749.749,0,0,1-.75-.735h0Zm-5.942,0a.735.735,0,1,1,.735.735.749.749,0,0,1-.75-.735h0Zm-2.971,0a.735.735,0,1,1,.735.735.749.749,0,0,1-.75-.735h0Zm-1.485,0a.735.735,0,1,1,.735.735.749.749,0,0,1-.75-.735h0Zm-1.47,0a.735.735,0,1,1,.735.735.749.749,0,0,1-.75-.735h0Zm-2.971,0a.735.735,0,1,1,.735.735.749.749,0,0,1-.75-.735h0Zm-1.485,0a.735.735,0,1,1,.735.735.749.749,0,0,1-.75-.735h0Zm-1.485,0a.735.735,0,1,1,.735.735.749.749,0,0,1-.75-.735h0Zm-1.485,0a.735.735,0,1,1,.735.735.749.749,0,0,1-.75-.735h0Zm-1.485,0a.735.735,0,1,1,.735.735.749.749,0,0,1-.75-.735h0Zm-1.485,0a.735.735,0,1,1,.735.735.749.749,0,0,1-.75-.735h0Zm-4.456,0a.735.735,0,1,1,.735.735.749.749,0,0,1-.75-.735h0Zm66.827-1.485a.735.735,0,1,1,.735.735.749.749,0,0,1-.75-.735h0Zm-1.485,0a.735.735,0,1,1,.735.735.749.749,0,0,1-.75-.735h0Zm-1.485,0a.735.735,0,1,1,.735.735.749.749,0,0,1-.75-.735h0Zm-1.485,0a.735.735,0,1,1,.735.735.749.749,0,0,1-.75-.735h0Zm-1.485,0a.735.735,0,1,1,.735.735.749.749,0,0,1-.75-.735h0Zm-1.485,0a.735.735,0,1,1,.735.735.749.749,0,0,1-.75-.735h0Zm-13.369,0a.735.735,0,1,1,.735.735.749.749,0,0,1-.75-.735h0Zm-4.456,0a.735.735,0,1,1,.735.735.749.749,0,0,1-.75-.735h0Zm-1.485,0a.735.735,0,1,1,.735.735.749.749,0,0,1-.75-.735h0Zm-2.971,0a.735.735,0,1,1,.735.735.749.749,0,0,1-.75-.735h0Zm-1.485,0a.735.735,0,1,1,.735.735.749.749,0,0,1-.75-.735h0Zm-2.971,0a.735.735,0,1,1,.735.735.749.749,0,0,1-.75-.735h0Zm-5.942,0a.735.735,0,1,1,.735.735.749.749,0,0,1-.75-.735h0Zm-1.485,0a.735.735,0,1,1,.735.735.749.749,0,0,1-.75-.735h0Zm-1.485,0a.735.735,0,1,1,.735.735.749.749,0,0,1-.75-.735h0Zm-5.942,0a.735.735,0,1,1,.735.735.749.749,0,0,1-.75-.735h0Zm-4.441,0a.735.735,0,1,1,.735.735.749.749,0,0,1-.75-.735h0Zm-2.971,0a.735.735,0,1,1,.735.735.749.749,0,0,1-.75-.735h0Zm-8.912,0a.735.735,0,1,1,.735.735.749.749,0,0,1-.75-.735h0Zm-1.485,0a.735.735,0,1,1,.735.735.749.749,0,0,1-.75-.735h0Zm-1.485,0a.735.735,0,1,1,.735.735.736.736,0,0,1-.735-.735Zm71.284-1.485a.735.735,0,1,1,.735.735.749.749,0,0,1-.75-.735h0Zm-1.485,0a.735.735,0,1,1,.735.735.749.749,0,0,1-.75-.735h0Zm-1.485,0a.735.735,0,1,1,.735.735.749.749,0,0,1-.75-.735h0Zm-2.971,0a.735.735,0,1,1,.735.735.749.749,0,0,1-.75-.735h0Zm-1.485,0a.735.735,0,1,1,.735.735.749.749,0,0,1-.75-.735h0Zm-2.971,0a.735.735,0,1,1,.735.735.749.749,0,0,1-.75-.735h0Zm-11.883,0a.735.735,0,1,1,.735.735.749.749,0,0,1-.75-.735h0Zm-2.971,0a.743.743,0,1,0,0-.015h0Zm-1.485,0a.735.735,0,1,1,.735.735.749.749,0,0,1-.75-.735h0Zm-1.485,0a.735.735,0,1,1,.735.735.749.749,0,0,1-.75-.735h0Zm-1.485,0a.735.735,0,1,1,.735.735.749.749,0,0,1-.75-.735h0Zm-1.485,0a.735.735,0,1,1,.735.735.749.749,0,0,1-.75-.735h0Zm-1.485,0a.735.735,0,1,1,.735.735.749.749,0,0,1-.75-.735h0Zm-1.485,0a.735.735,0,1,1,.735.735.749.749,0,0,1-.75-.735h0Zm-1.485,0a.735.735,0,1,1,.735.735.749.749,0,0,1-.75-.735h0Zm-1.485,0a.735.735,0,1,1,.735.735.749.749,0,0,1-.75-.735h0Zm-1.485,0a.735.735,0,1,1,.735.735.749.749,0,0,1-.75-.735h0Zm-2.971,0a.735.735,0,1,1,.735.735.749.749,0,0,1-.75-.735h0Zm-1.485,0a.735.735,0,1,1,.735.735.749.749,0,0,1-.75-.735h0Zm-2.971,0a.735.735,0,1,1,.735.735.749.749,0,0,1-.75-.735h0Zm-1.485,0a.735.735,0,1,1,.735.735.749.749,0,0,1-.75-.735h0Zm-8.9,0a.735.735,0,1,1,.735.735.749.749,0,0,1-.75-.735h0Zm-1.485,0a.735.735,0,1,1,.735.735.749.749,0,0,1-.75-.735h0Zm-2.971,0a.735.735,0,1,1,.735.735.749.749,0,0,1-.75-.735h0Zm-1.485,0a.735.735,0,1,1,.735.735.749.749,0,0,1-.75-.735h0Zm-8.912,0a.735.735,0,1,1,.735.735.736.736,0,0,1-.735-.735Zm69.8-1.485a.735.735,0,1,1,.735.735.749.749,0,0,1-.75-.735h0Zm-4.456,0a.735.735,0,1,1,.735.735.749.749,0,0,1-.75-.735h0Zm-1.485,0a.735.735,0,1,1,.735.735.749.749,0,0,1-.75-.735h0Zm-1.485,0a.735.735,0,1,1,.735.735.749.749,0,0,1-.75-.735h0Zm-2.971,0a.735.735,0,1,1,.735.735.749.749,0,0,1-.75-.735h0Zm-2.971,0a.735.735,0,1,1,.735.735.749.749,0,0,1-.75-.735h0Zm-2.971,0a.735.735,0,1,1,.735.735.749.749,0,0,1-.75-.735h0Zm-1.485,0a.735.735,0,1,1,.735.735.749.749,0,0,1-.75-.735h0Zm-2.971,0a.735.735,0,1,1,.735.735.749.749,0,0,1-.75-.735h0Zm-2.971,0a.743.743,0,1,0,0-.015h0Zm-1.485,0a.735.735,0,1,1,.735.735.749.749,0,0,1-.75-.735h0Zm-2.971,0a.735.735,0,1,1,.735.735.749.749,0,0,1-.75-.735h0Zm-4.456,0a.735.735,0,1,1,.735.735.749.749,0,0,1-.75-.735h0Zm-1.485,0a.735.735,0,1,1,.735.735.749.749,0,0,1-.75-.735h0Zm-1.485,0a.735.735,0,1,1,.735.735.749.749,0,0,1-.75-.735h0Zm-1.485,0a.735.735,0,1,1,.735.735.749.749,0,0,1-.75-.735h0Zm-1.485,0a.735.735,0,1,1,.735.735.749.749,0,0,1-.75-.735h0Zm-2.971,0a.735.735,0,1,1,.735.735.749.749,0,0,1-.75-.735h0Zm-5.942,0a.735.735,0,1,1,.735.735.749.749,0,0,1-.75-.735h0Zm-1.485,0a.735.735,0,1,1,.735.735.749.749,0,0,1-.75-.735h0Zm-2.971,0a.735.735,0,1,1,.735.735.749.749,0,0,1-.75-.735h0Zm-1.47,0a.735.735,0,1,1,.735.735.749.749,0,0,1-.75-.735h0Zm-1.485,0a.735.735,0,1,1,.735.735.749.749,0,0,1-.75-.735h0Zm-7.427,0a.735.735,0,1,1,.735.735.749.749,0,0,1-.75-.735h0Zm-1.485,0a.735.735,0,1,1,.735.735.749.749,0,0,1-.75-.735h0Zm-5.941,0a.735.735,0,1,1,.735.735.736.736,0,0,1-.735-.735Zm69.8-1.485a.735.735,0,1,1,.735.735.749.749,0,0,1-.75-.735h0Zm-1.485,0a.735.735,0,1,1,.735.735.749.749,0,0,1-.75-.735h0Zm-1.485,0a.735.735,0,1,1,.735.735.749.749,0,0,1-.75-.735h0Zm-1.485,0a.735.735,0,1,1,.735.735.749.749,0,0,1-.75-.735h0Zm-1.485,0a.735.735,0,1,1,.735.735.749.749,0,0,1-.75-.735h0Zm-1.485,0a.735.735,0,1,1,.735.735.749.749,0,0,1-.75-.735h0Zm-1.485,0a.735.735,0,1,1,.735.735.749.749,0,0,1-.75-.735h0Zm-2.971,0a.735.735,0,1,1,.735.735.749.749,0,0,1-.75-.735h0Zm-1.485,0a.735.735,0,1,1,.735.735.749.749,0,0,1-.75-.735h0Zm-1.485,0a.735.735,0,1,1,.735.735.749.749,0,0,1-.75-.735h0Zm-1.485,0a.735.735,0,1,1,.735.735.749.749,0,0,1-.75-.735h0Zm-1.485,0a.735.735,0,1,1,.735.735.749.749,0,0,1-.75-.735h0Zm-2.971,0a.735.735,0,1,1,.735.735.749.749,0,0,1-.75-.735h0Zm-2.971,0a.743.743,0,1,0,0-.015h0Zm-1.485,0a.735.735,0,1,1,.735.735.749.749,0,0,1-.75-.735h0Zm-1.485,0a.735.735,0,1,1,.735.735.749.749,0,0,1-.75-.735h0Zm-4.456,0a.735.735,0,1,1,.735.735.749.749,0,0,1-.75-.735h0Zm-1.485,0a.735.735,0,1,1,.735.735.749.749,0,0,1-.75-.735h0Zm-1.485,0a.735.735,0,1,1,.735.735.749.749,0,0,1-.75-.735h0Zm-1.485,0a.735.735,0,1,1,.735.735.749.749,0,0,1-.75-.735h0Zm-1.485,0a.735.735,0,1,1,.735.735.749.749,0,0,1-.75-.735h0Zm-1.485,0a.735.735,0,1,1,.735.735.749.749,0,0,1-.75-.735h0Zm-2.971,0a.735.735,0,1,1,.735.735.749.749,0,0,1-.75-.735h0Zm-1.485,0a.735.735,0,1,1,.735.735.749.749,0,0,1-.75-.735h0Zm-2.971,0a.735.735,0,1,1,.735.735.749.749,0,0,1-.75-.735h0Zm-4.456,0a.735.735,0,1,1,.735.735.749.749,0,0,1-.75-.735h0Zm-1.485,0a.735.735,0,1,1,.735.735.749.749,0,0,1-.75-.735h0Zm-1.47,0a.735.735,0,1,1,.735.735.749.749,0,0,1-.75-.735h0Zm-1.485,0a.735.735,0,1,1,.735.735.749.749,0,0,1-.75-.735h0Zm-5.942,0a.735.735,0,1,1,.735.735.749.749,0,0,1-.75-.735h0Zm-1.485,0a.735.735,0,1,1,.735.735.749.749,0,0,1-.75-.735h0Zm-1.485,0a.735.735,0,1,1,.735.735.749.749,0,0,1-.75-.735h0Zm-5.941,0a.735.735,0,1,1,.735.735.736.736,0,0,1-.735-.735ZM1031.969,297a.735.735,0,1,1,.735.735A.736.736,0,0,1,1031.969,297Zm-1.485,0a.735.735,0,1,1,.735.735.749.749,0,0,1-.75-.735h0Zm-5.942,0a.735.735,0,1,1,.735.735A.736.736,0,0,1,1024.542,297Zm-1.485,0a.735.735,0,1,1,.735.735A.736.736,0,0,1,1023.057,297Zm-2.971,0a.735.735,0,1,1,.735.735.736.736,0,0,1-.735-.735Zm-2.971,0a.735.735,0,1,1,.735.735A.736.736,0,0,1,1017.115,297Zm-4.456,0a.735.735,0,1,1,.735.735A.736.736,0,0,1,1012.659,297Zm-5.942,0a.735.735,0,1,1,.735.735A.736.736,0,0,1,1006.717,297Zm-4.456,0a.735.735,0,1,1,.735.735A.736.736,0,0,1,1002.261,297Zm-4.456,0a.735.735,0,1,1,.735.735A.736.736,0,0,1,997.805,297Zm-2.971,0a.735.735,0,1,1,.735.735A.736.736,0,0,1,994.834,297Zm-4.456,0a.735.735,0,1,1,.735.735A.736.736,0,0,1,990.378,297Zm-1.485,0a.735.735,0,1,1,.735.735A.736.736,0,0,1,988.893,297Zm-2.971,0a.735.735,0,1,1,.735.735.736.736,0,0,1-.735-.735Zm47.532-1.485a.735.735,0,1,1,.735.735A.736.736,0,0,1,1033.454,295.517Zm-2.971,0a.735.735,0,1,1,.735.735.749.749,0,0,1-.75-.735h0Zm-2.971,0a.735.735,0,1,1,.735.735A.736.736,0,0,1,1027.513,295.517Zm-2.971,0a.743.743,0,1,1,.75.735h0A.759.759,0,0,1,1024.542,295.517Zm-2.971,0a.735.735,0,1,1,.735.735A.736.736,0,0,1,1021.571,295.517Zm-2.971,0a.735.735,0,1,1,.735.735A.736.736,0,0,1,1018.6,295.517Zm-2.971,0a.735.735,0,1,1,.735.735A.736.736,0,0,1,1015.63,295.517Zm-2.971,0a.735.735,0,1,1,.735.735A.736.736,0,0,1,1012.659,295.517Zm-2.971,0a.735.735,0,1,1,.735.735A.736.736,0,0,1,1009.688,295.517Zm-2.971,0a.735.735,0,1,1,.735.735A.736.736,0,0,1,1006.717,295.517Zm-2.971,0a.735.735,0,1,1,.735.735A.736.736,0,0,1,1003.747,295.517Zm-2.971,0a.735.735,0,1,1,.735.735A.736.736,0,0,1,1000.776,295.517Zm-2.971,0a.735.735,0,1,1,.735.735A.736.736,0,0,1,997.805,295.517Zm-2.971,0a.735.735,0,1,1,.735.735A.736.736,0,0,1,994.834,295.517Zm-2.971,0a.735.735,0,1,1,.735.735A.736.736,0,0,1,991.864,295.517Zm-2.971,0a.735.735,0,1,1,.735.735A.736.736,0,0,1,988.893,295.517Zm-2.971,0a.735.735,0,1,1,.735.735.736.736,0,0,1-.735-.735Zm44.562-1.485a.735.735,0,1,1,.735.735A.736.736,0,0,1,1030.484,294.032Zm-1.485,0a.735.735,0,1,1,.735.735.736.736,0,0,1-.735-.735Zm-5.942,0a.735.735,0,1,1,.735.735.736.736,0,0,1-.735-.735Zm-4.456,0a.735.735,0,1,1,.735.735.736.736,0,0,1-.735-.735Zm-5.942,0a.735.735,0,1,1,.735.735.736.736,0,0,1-.735-.735Zm-5.942,0a.735.735,0,1,1,.735.735.736.736,0,0,1-.735-.735Zm-2.971,0a.735.735,0,1,1,.735.735.736.736,0,0,1-.735-.735Zm-1.485,0a.735.735,0,1,1,.735.735.736.736,0,0,1-.735-.735Zm-2.971,0a.735.735,0,1,1,.735.735.736.736,0,0,1-.735-.735Zm-1.485,0a.735.735,0,1,1,.735.735.736.736,0,0,1-.735-.735Zm-2.971,0a.735.735,0,1,1,.735.735.736.736,0,0,1-.735-.735Zm-1.485,0a.735.735,0,1,1,.735.735.736.736,0,0,1-.735-.735Zm-2.971,0a.735.735,0,1,1,.735.735.736.736,0,0,1-.735-.735Zm-4.456,0a.735.735,0,1,1,.735.735.736.736,0,0,1-.735-.735Zm41.591-1.485a.735.735,0,1,1,.735.735.736.736,0,0,1-.735-.735Zm-2.971,0a.735.735,0,1,1,.735.735.736.736,0,0,1-.735-.735Zm-1.485,0a.735.735,0,1,1,.735.735.736.736,0,0,1-.735-.735Zm-1.485,0a.735.735,0,1,1,.735.735.736.736,0,0,1-.735-.735Zm-4.456,0a.735.735,0,1,1,.735.735.736.736,0,0,1-.735-.735Zm-4.456,0a.735.735,0,1,1,.735.735.736.736,0,0,1-.735-.735Zm-1.485,0a.735.735,0,1,1,.735.735.736.736,0,0,1-.735-.735Zm-1.485,0a.735.735,0,1,1,.735.735.736.736,0,0,1-.735-.735Zm-1.485,0a.735.735,0,1,1,.735.735.736.736,0,0,1-.735-.735Zm-1.485,0a.735.735,0,1,1,.735.735.736.736,0,0,1-.735-.735Zm-1.485,0a.735.735,0,1,1,.735.735.736.736,0,0,1-.735-.735Zm-1.485,0a.735.735,0,1,1,.735.735.736.736,0,0,1-.735-.735Zm-1.485,0a.735.735,0,1,1,.735.735.736.736,0,0,1-.735-.735Zm-1.485,0a.735.735,0,1,1,.735.735.736.736,0,0,1-.735-.735Zm-4.456,0a.735.735,0,1,1,.735.735.736.736,0,0,1-.735-.735Zm-2.971,0a.735.735,0,1,1,.735.735.736.736,0,0,1-.735-.735Zm-2.971,0a.735.735,0,1,1,.735.735.736.736,0,0,1-.735-.735Zm-4.456,0a.735.735,0,1,1,.735.735.736.736,0,0,1-.735-.735Zm46.047-1.485a.735.735,0,1,1,.735.735A.736.736,0,0,1,1031.969,291.061Zm-2.971,0a.735.735,0,1,1,.735.735A.736.736,0,0,1,1029,291.061Zm-5.942,0a.735.735,0,1,1,.735.735A.736.736,0,0,1,1023.057,291.061Zm-1.485,0a.735.735,0,1,1,.735.735A.736.736,0,0,1,1021.571,291.061Zm-1.485,0a.735.735,0,1,1,.735.735A.736.736,0,0,1,1020.086,291.061Zm-1.485,0a.735.735,0,1,1,.735.735.749.749,0,0,1-.75-.735h0Zm-1.485,0a.735.735,0,1,1,.735.735.749.749,0,0,1-.75-.735h0Zm-1.485,0a.735.735,0,1,1,.735.735.749.749,0,0,1-.75-.735h0Zm-5.941,0a.735.735,0,1,1,.735.735.749.749,0,0,1-.75-.735h0Zm-1.485,0a.735.735,0,1,1,.735.735.749.749,0,0,1-.75-.735h0Zm-1.485,0a.735.735,0,1,1,.735.735.749.749,0,0,1-.75-.735h0Zm-1.485,0a.735.735,0,1,1,.735.735.749.749,0,0,1-.75-.735h0Zm-1.485,0a.735.735,0,1,1,.735.735.749.749,0,0,1-.75-.735h0Zm-1.485,0a.735.735,0,1,1,.735.735A.736.736,0,0,1,1002.261,291.061Zm-5.942,0a.735.735,0,1,1,.735.735A.736.736,0,0,1,996.32,291.061Zm-2.971,0a.735.735,0,1,1,.735.735A.736.736,0,0,1,993.349,291.061Zm-2.971,0a.735.735,0,1,1,.735.735A.736.736,0,0,1,990.378,291.061Zm-1.485,0a.735.735,0,1,1,.735.735A.736.736,0,0,1,988.893,291.061Zm-1.485,0a.735.735,0,1,1,.735.735A.736.736,0,0,1,987.407,291.061Zm-1.485,0a.735.735,0,1,1,.735.735A.736.736,0,0,1,985.922,291.061Zm47.532-1.485a.735.735,0,1,1,.735.735A.736.736,0,0,1,1033.454,289.576Zm-1.485,0a.735.735,0,1,1,.735.735A.736.736,0,0,1,1031.969,289.576Zm-2.971,0a.735.735,0,1,1,.735.735A.736.736,0,0,1,1029,289.576Zm-1.485,0a.735.735,0,1,1,.735.735A.736.736,0,0,1,1027.513,289.576Zm-2.971,0a.735.735,0,1,1,.735.735.749.749,0,0,1-.75-.735h0Zm-1.485,0a.735.735,0,1,1,.735.735A.736.736,0,0,1,1023.057,289.576Zm-10.4,0a.735.735,0,1,1,.735.735A.736.736,0,0,1,1012.659,289.576Zm-1.485,0a.735.735,0,1,1,.735.735A.736.736,0,0,1,1011.174,289.576Zm-2.971,0a.735.735,0,1,1,.735.735A.736.736,0,0,1,1008.2,289.576Zm-1.485,0a.735.735,0,1,1,.735.735A.736.736,0,0,1,1006.717,289.576Zm-1.485,0a.735.735,0,1,1,.735.735A.736.736,0,0,1,1005.232,289.576Zm-1.485,0a.735.735,0,1,1,.735.735A.736.736,0,0,1,1003.747,289.576Zm-4.456,0a.735.735,0,1,1,.735.735A.736.736,0,0,1,999.291,289.576Zm-5.942,0a.735.735,0,1,1,.735.735A.736.736,0,0,1,993.349,289.576Zm-1.485,0a.735.735,0,1,1,.735.735A.736.736,0,0,1,991.864,289.576Zm-2.971,0a.735.735,0,1,1,.735.735A.736.736,0,0,1,988.893,289.576Zm-1.485,0a.735.735,0,1,1,.735.735A.736.736,0,0,1,987.407,289.576Zm-1.485,0a.735.735,0,1,1,.735.735.736.736,0,0,1-.735-.735Zm47.532-1.485a.735.735,0,1,1,.735.735A.736.736,0,0,1,1033.454,288.09Zm-1.485,0a.735.735,0,1,1,.735.735A.736.736,0,0,1,1031.969,288.09Zm-1.485,0a.735.735,0,1,1,.735.735.749.749,0,0,1-.75-.735h0Zm-1.485,0a.735.735,0,1,1,.735.735A.736.736,0,0,1,1029,288.09Zm-1.485,0a.735.735,0,1,1,.735.735A.736.736,0,0,1,1027.513,288.09Zm-2.971,0a.735.735,0,1,1,.735.735.749.749,0,0,1-.75-.735h0Zm-2.971,0a.735.735,0,1,1,.735.735A.736.736,0,0,1,1021.571,288.09Zm-1.485,0a.735.735,0,1,1,.735.735.736.736,0,0,1-.735-.735Zm-1.485,0a.735.735,0,1,1,.735.735A.736.736,0,0,1,1018.6,288.09Zm-4.456,0a.735.735,0,1,1,.735.735A.736.736,0,0,1,1014.144,288.09Zm-2.971,0a.735.735,0,1,1,.735.735A.736.736,0,0,1,1011.174,288.09Zm-1.485,0a.735.735,0,1,1,.735.735A.736.736,0,0,1,1009.688,288.09Zm-4.456,0a.735.735,0,1,1,.735.735A.736.736,0,0,1,1005.232,288.09Zm-10.4,0a.735.735,0,1,1,.735.735A.736.736,0,0,1,994.834,288.09Zm-2.971,0a.735.735,0,1,1,.735.735A.736.736,0,0,1,991.864,288.09Zm-4.456,0a.735.735,0,1,1,.735.735A.736.736,0,0,1,987.407,288.09Zm-1.485,0a.735.735,0,1,1,.735.735.736.736,0,0,1-.735-.735Zm47.532-1.485a.735.735,0,1,1,.735.735A.736.736,0,0,1,1033.454,286.6Zm-4.456,0a.735.735,0,1,1,.735.735A.736.736,0,0,1,1029,286.6Zm-2.971,0a.735.735,0,1,1,.735.735A.736.736,0,0,1,1026.027,286.6Zm-1.485,0a.735.735,0,1,1,.735.735.749.749,0,0,1-.75-.735h0Zm-2.971,0a.735.735,0,1,1,.735.735A.736.736,0,0,1,1021.571,286.6Zm-1.485,0a.735.735,0,1,1,.735.735.736.736,0,0,1-.735-.735Zm-2.971,0a.735.735,0,1,1,.735.735A.736.736,0,0,1,1017.115,286.6Zm-1.485,0a.735.735,0,1,1,.735.735A.736.736,0,0,1,1015.63,286.6Zm-1.485,0a.735.735,0,1,1,.735.735A.736.736,0,0,1,1014.144,286.6Zm-2.971,0a.735.735,0,1,1,.735.735A.736.736,0,0,1,1011.174,286.6Zm-4.456,0a.735.735,0,1,1,.735.735A.736.736,0,0,1,1006.717,286.6Zm-2.971,0a.735.735,0,1,1,.735.735A.736.736,0,0,1,1003.747,286.6Zm-4.456,0a.735.735,0,1,1,.735.735A.736.736,0,0,1,999.291,286.6Zm-2.971,0a.735.735,0,1,1,.735.735A.736.736,0,0,1,996.32,286.6Zm-5.942,0a.735.735,0,1,1,.735.735A.736.736,0,0,1,990.378,286.6Zm-2.971,0a.735.735,0,1,1,.735.735A.736.736,0,0,1,987.407,286.6Z" fill="none"/>
    </clipPath>
    <clipPath id="clip-path-2">
      <path id="Trazado_1945" data-name="Trazado 1945" d="M979.245,285.87a5.2,5.2,0,1,0,.015,0h-.015Zm0,1.485a3.713,3.713,0,1,1-.015,0Z" fill="none"/>
    </clipPath>
    <clipPath id="clip-path-3">
      <circle id="Elipse_12009" data-name="Elipse 12009" cx="2.221" cy="2.221" r="2.221" transform="translate(977.025 288.84)" fill="none"/>
    </clipPath>
    <clipPath id="clip-path-4">
      <path id="Trazado_1946" data-name="Trazado 1946" d="M1046.808,291.061a5.2,5.2,0,1,0,0,.015h0Zm-1.485,0a3.713,3.713,0,1,1,0-.015h0Z" fill="none"/>
    </clipPath>
    <clipPath id="clip-path-5">
      <circle id="Elipse_12010" data-name="Elipse 12010" cx="2.221" cy="2.221" r="2.221" transform="translate(1039.396 288.84)" fill="none"/>
    </clipPath>
    <clipPath id="clip-path-6">
      <path id="Trazado_1947" data-name="Trazado 1947" d="M974.054,353.432a5.2,5.2,0,1,0,0-.015h0Zm1.485,0a3.713,3.713,0,1,1,0,.015h0Z" fill="none"/>
    </clipPath>
    <clipPath id="clip-path-7">
      <circle id="Elipse_12011" data-name="Elipse 12011" cx="2.221" cy="2.221" r="2.221" transform="translate(977.025 351.212)" fill="none"/>
    </clipPath>
  </defs>
  <g id="_4_QR_Convalidaciones_Internas_-_Externas_" data-name="4_QR_Convalidaciones Internas - Externas " transform="translate(-969.268 -281.083)">
    <rect id="Rectngulo_1187" data-name="Rectngulo 1187" width="82.507" height="110.507" transform="translate(969.268 281.083)" fill="#fff"/>
    <g id="Grupo_2620" data-name="Grupo 2620" clip-path="url(#clip-path)">
      <g id="Grupo_2402" data-name="Grupo 2402">
        <rect id="Rectngulo_1188" data-name="Rectngulo 1188" width="82.507" height="82.507" transform="translate(969.268 281.083)"/>
      </g>
    </g>
    <g id="Grupo_2621" data-name="Grupo 2621" clip-path="url(#clip-path-2)">
      <g id="Grupo_2403" data-name="Grupo 2403">
        <rect id="Rectngulo_1189" data-name="Rectngulo 1189" width="10.398" height="10.398" transform="translate(974.054 285.87)"/>
      </g>
    </g>
    <g id="Grupo_2622" data-name="Grupo 2622" clip-path="url(#clip-path-3)">
      <g id="Grupo_2404" data-name="Grupo 2404">
        <rect id="Rectngulo_1190" data-name="Rectngulo 1190" width="4.456" height="4.456" transform="translate(977.025 288.84)"/>
      </g>
    </g>
    <g id="Grupo_2623" data-name="Grupo 2623" clip-path="url(#clip-path-4)">
      <g id="Grupo_2405" data-name="Grupo 2405">
        <rect id="Rectngulo_1191" data-name="Rectngulo 1191" width="10.398" height="10.398" transform="translate(1036.425 285.87)"/>
      </g>
    </g>
    <g id="Grupo_2624" data-name="Grupo 2624" clip-path="url(#clip-path-5)">
      <g id="Grupo_2406" data-name="Grupo 2406">
        <rect id="Rectngulo_1192" data-name="Rectngulo 1192" width="4.456" height="4.456" transform="translate(1039.396 288.84)"/>
      </g>
    </g>
    <g id="Grupo_2625" data-name="Grupo 2625" clip-path="url(#clip-path-6)">
      <g id="Grupo_2407" data-name="Grupo 2407">
        <rect id="Rectngulo_1193" data-name="Rectngulo 1193" width="10.398" height="10.398" transform="translate(974.054 348.241)"/>
      </g>
    </g>
    <g id="Grupo_2626" data-name="Grupo 2626" clip-path="url(#clip-path-7)">
      <g id="Grupo_2408" data-name="Grupo 2408">
        <rect id="Rectngulo_1194" data-name="Rectngulo 1194" width="4.456" height="4.456" transform="translate(977.025 351.212)"/>
      </g>
    </g>
  </g>
</svg>
