<svg xmlns="http://www.w3.org/2000/svg" xmlns:xlink="http://www.w3.org/1999/xlink" width="81.006" height="110.006" viewBox="0 0 81.006 110.006">
  <defs>
    <clipPath id="clip-path">
      <path id="Trazado_1948" data-name="Trazado 1948" d="M250.235,583.727a.735.735,0,1,1,.735.735A.736.736,0,0,1,250.235,583.727Zm-1.455,0a.735.735,0,1,1,.735.735A.736.736,0,0,1,248.78,583.727Zm-1.455,0a.735.735,0,1,1,.735.735A.736.736,0,0,1,247.324,583.727Zm-1.455,0a.735.735,0,1,1,.735.735A.736.736,0,0,1,245.869,583.727Zm-1.455,0a.735.735,0,1,1,.735.735A.736.736,0,0,1,244.414,583.727Zm-2.926,0a.735.735,0,1,1,.735.735h0A.736.736,0,0,1,241.488,583.727Zm-4.366,0a.735.735,0,1,1,.735.735A.736.736,0,0,1,237.122,583.727Zm-1.47,0a.728.728,0,1,1,0,.015h0Zm-2.911,0a.735.735,0,1,1,.735.735A.736.736,0,0,1,232.741,583.727Zm-2.911,0a.735.735,0,1,1,.735.735.736.736,0,0,1-.735-.735Zm-2.926,0a.735.735,0,1,1,.735.735A.736.736,0,0,1,226.9,583.727Zm-2.911,0a.735.735,0,1,1,.735.735A.736.736,0,0,1,223.993,583.727Zm-2.911,0a.735.735,0,1,1,.735.735A.736.736,0,0,1,221.083,583.727Zm-2.926,0a.735.735,0,1,1,.735.735A.736.736,0,0,1,218.157,583.727Zm-5.822,0a.735.735,0,1,1,.735.735A.736.736,0,0,1,212.335,583.727Zm-2.926,0a.735.735,0,1,1,.735.735.736.736,0,0,1-.735-.735Zm-1.455,0a.735.735,0,1,1,.735.735h0A.736.736,0,0,1,207.954,583.727Zm-1.455,0a.735.735,0,1,1,.735.735A.736.736,0,0,1,206.5,583.727Zm-5.837,0a.735.735,0,1,1,.735.735A.736.736,0,0,1,200.662,583.727Zm-2.911,0a.735.735,0,1,1,.735.735A.736.736,0,0,1,197.752,583.727Zm-1.455,0a.735.735,0,1,1,.735.735.736.736,0,0,1-.735-.735Zm-1.455,0a.735.735,0,1,1,.735.735A.736.736,0,0,1,194.841,583.727Zm-2.926,0a.735.735,0,1,1,.735.735A.736.736,0,0,1,191.915,583.727Zm58.32-1.47a.735.735,0,1,1,.735.735A.736.736,0,0,1,250.235,582.257Zm-2.911,0a.735.735,0,1,1,.735.735A.736.736,0,0,1,247.324,582.257Zm-1.455,0a.735.735,0,1,1,.735.735A.736.736,0,0,1,245.869,582.257Zm-2.926,0a.735.735,0,1,1,.735.735A.736.736,0,0,1,242.943,582.257Zm-1.455,0a.735.735,0,1,1,.735.735.736.736,0,0,1-.735-.735Zm-4.366,0a.735.735,0,1,1,.735.735A.736.736,0,0,1,237.122,582.257Zm-1.47,0a.728.728,0,1,1,0,.015h0Zm-4.366,0a.735.735,0,1,1,.735.735.736.736,0,0,1-.735-.735Zm-1.455,0a.735.735,0,1,1,.735.735h0A.736.736,0,0,1,229.83,582.257Zm-1.455,0a.735.735,0,1,1,.735.735A.736.736,0,0,1,228.375,582.257Zm-2.926,0a.735.735,0,1,1,.735.735.724.724,0,0,1-.72-.735h0Zm-1.455,0a.735.735,0,1,1,.735.735A.736.736,0,0,1,223.993,582.257Zm-5.837,0a.735.735,0,1,1,.735.735.736.736,0,0,1-.735-.735Zm-1.455,0a.735.735,0,1,1,.735.735A.736.736,0,0,1,216.7,582.257Zm-1.455,0a.735.735,0,1,1,.735.735A.736.736,0,0,1,215.246,582.257Zm-2.911,0a.735.735,0,1,1,.735.735A.736.736,0,0,1,212.335,582.257Zm-4.381,0a.735.735,0,1,1,.735.735.736.736,0,0,1-.735-.735Zm-1.455,0a.735.735,0,1,1,.735.735h0A.736.736,0,0,1,206.5,582.257Zm-2.911,0a.735.735,0,1,1,.735.735A.736.736,0,0,1,203.588,582.257Zm-2.926,0a.735.735,0,1,1,.735.735A.736.736,0,0,1,200.662,582.257Zm-2.911,0a.735.735,0,1,1,.735.735A.736.736,0,0,1,197.752,582.257Zm-2.911,0a.735.735,0,1,1,.735.735.736.736,0,0,1-.735-.735Zm-1.47,0a.735.735,0,1,1,.735.735A.736.736,0,0,1,193.37,582.257Zm56.865-1.455a.735.735,0,1,1,.735.735A.736.736,0,0,1,250.235,580.8Zm-5.822,0a.735.735,0,1,1,.735.735A.736.736,0,0,1,244.414,580.8Zm-5.837,0a.735.735,0,1,1,.735.735A.736.736,0,0,1,238.577,580.8Zm-2.926,0a.728.728,0,1,1,0,.015h0Zm-1.455,0a.735.735,0,1,1,.735.735A.736.736,0,0,1,234.2,580.8Zm-1.455,0a.735.735,0,1,1,.735.735A.736.736,0,0,1,232.741,580.8Zm-2.911,0a.735.735,0,1,1,.735.735.736.736,0,0,1-.735-.735Zm-1.455,0a.735.735,0,1,1,.735.735h0A.736.736,0,0,1,228.375,580.8Zm-1.47,0a.735.735,0,1,1,.735.735A.736.736,0,0,1,226.9,580.8Zm-5.822,0a.735.735,0,1,1,.735.735A.736.736,0,0,1,221.083,580.8Zm-2.926,0a.735.735,0,1,1,.735.735.736.736,0,0,1-.735-.735Zm-2.911,0a.735.735,0,1,1,.735.735A.736.736,0,0,1,215.246,580.8Zm-2.911,0a.735.735,0,1,1,.735.735A.736.736,0,0,1,212.335,580.8Zm-2.926,0a.735.735,0,1,1,.735.735.736.736,0,0,1-.735-.735Zm-4.366,0a.735.735,0,1,1,.735.735h0A.736.736,0,0,1,205.043,580.8Zm-1.455,0a.735.735,0,1,1,.735.735A.736.736,0,0,1,203.588,580.8Zm-2.926,0a.735.735,0,1,1,.735.735A.736.736,0,0,1,200.662,580.8Zm-2.911,0a.735.735,0,1,1,.735.735A.736.736,0,0,1,197.752,580.8Zm-4.381,0a.735.735,0,1,1,.735.735.736.736,0,0,1-.735-.735Zm56.865-1.455a.735.735,0,1,1,.735.735h0A.736.736,0,0,1,250.235,579.346Zm-4.366,0a.735.735,0,1,1,.735.735A.736.736,0,0,1,245.869,579.346Zm-4.381,0a.735.735,0,1,1,.735.735.736.736,0,0,1-.735-.735Zm-8.747,0a.735.735,0,1,1,.735.735A.736.736,0,0,1,232.741,579.346Zm-5.837,0a.735.735,0,1,1,.735.735h0A.736.736,0,0,1,226.9,579.346Zm-5.822,0a.735.735,0,1,1,.735.735A.736.736,0,0,1,221.083,579.346Zm-2.926,0a.735.735,0,1,1,.735.735.736.736,0,0,1-.735-.735Zm-2.911,0a.735.735,0,1,1,.735.735.736.736,0,0,1-.735-.735Zm-4.366,0a.735.735,0,1,1,.735.735A.736.736,0,0,1,210.88,579.346Zm-4.381,0a.735.735,0,1,1,.735.735.736.736,0,0,1-.735-.735Zm-1.455,0a.735.735,0,1,1,.735.735.736.736,0,0,1-.735-.735Zm-1.455,0a.735.735,0,1,1,.735.735h0A.736.736,0,0,1,203.588,579.346Zm-4.381,0a.735.735,0,1,1,.735.735A.736.736,0,0,1,199.207,579.346Zm-1.455,0a.735.735,0,1,1,.735.735A.736.736,0,0,1,197.752,579.346Zm-4.381,0a.735.735,0,1,1,.735.735.736.736,0,0,1-.735-.735Zm56.865-1.455a.735.735,0,1,1,.735.735.736.736,0,0,1-.735-.735Zm-1.455,0a.735.735,0,1,1,.735.735h0A.736.736,0,0,1,248.78,577.891Zm-2.911,0a.735.735,0,1,1,.735.735A.736.736,0,0,1,245.869,577.891Zm-1.455,0a.735.735,0,1,1,.735.735A.736.736,0,0,1,244.414,577.891Zm-1.47,0a.735.735,0,1,1,.735.735A.736.736,0,0,1,242.943,577.891Zm-1.455,0a.735.735,0,1,1,.735.735.736.736,0,0,1-.735-.735Zm-1.455,0a.735.735,0,1,1,.735.735.736.736,0,0,1-.735-.735Zm-1.455,0a.735.735,0,1,1,.735.735.736.736,0,0,1-.735-.735Zm-5.837,0a.735.735,0,1,1,.735.735A.736.736,0,0,1,232.741,577.891Zm-1.455,0a.735.735,0,1,1,.735.735.736.736,0,0,1-.735-.735Zm-1.455,0a.735.735,0,1,1,.735.735.736.736,0,0,1-.735-.735Zm-2.926,0a.735.735,0,1,1,.735.735.736.736,0,0,1-.735-.735Zm-2.911,0a.735.735,0,1,1,.735.735A.736.736,0,0,1,223.993,577.891Zm-2.911,0a.735.735,0,1,1,.735.735A.736.736,0,0,1,221.083,577.891Zm-2.926,0a.735.735,0,1,1,.735.735.736.736,0,0,1-.735-.735Zm-1.455,0a.735.735,0,1,1,.735.735.736.736,0,0,1-.735-.735Zm-1.455,0a.735.735,0,1,1,.735.735.736.736,0,0,1-.735-.735Zm-1.455,0a.735.735,0,1,1,.735.735.736.736,0,0,1-.735-.735Zm-1.455,0a.735.735,0,1,1,.735.735A.736.736,0,0,1,212.335,577.891Zm-4.381,0a.735.735,0,1,1,.735.735.736.736,0,0,1-.735-.735Zm-5.837,0a.735.735,0,1,1,.735.735h0A.736.736,0,0,1,202.118,577.891Zm-2.911,0a.735.735,0,1,1,.735.735A.736.736,0,0,1,199.207,577.891Zm-2.911,0a.735.735,0,1,1,.735.735.736.736,0,0,1-.735-.735Zm-1.455,0a.735.735,0,1,1,.735.735.736.736,0,0,1-.735-.735Zm-2.926,0a.735.735,0,1,1,.735.735.736.736,0,0,1-.735-.735Zm58.32-1.455a.735.735,0,1,1,.735.735.736.736,0,0,1-.735-.735Zm-1.455,0a.735.735,0,1,1,.735.735.736.736,0,0,1-.735-.735Zm-1.455,0a.735.735,0,1,1,.735.735h0A.736.736,0,0,1,247.324,576.435Zm-1.455,0a.735.735,0,1,1,.735.735A.736.736,0,0,1,245.869,576.435Zm-1.455,0a.735.735,0,1,1,.735.735A.736.736,0,0,1,244.414,576.435Zm-5.837,0a.735.735,0,1,1,.735.735.736.736,0,0,1-.735-.735Zm-1.455,0a.735.735,0,1,1,.735.735.736.736,0,0,1-.735-.735Zm-2.926,0a.735.735,0,1,1,.735.735A.736.736,0,0,1,234.2,576.435Zm-2.911,0a.735.735,0,1,1,.735.735.736.736,0,0,1-.735-.735Zm-7.292,0a.735.735,0,1,1,.735.735h0A.736.736,0,0,1,223.993,576.435Zm-4.366,0a.735.735,0,1,1,.735.735.736.736,0,0,1-.735-.735Zm-1.47,0a.735.735,0,1,1,.735.735.736.736,0,0,1-.735-.735Zm-5.822,0a.735.735,0,1,1,.735.735.736.736,0,0,1-.735-.735Zm-2.926,0a.735.735,0,1,1,.735.735.736.736,0,0,1-.735-.735Zm-1.455,0a.735.735,0,1,1,.735.735.736.736,0,0,1-.735-.735Zm-1.455,0a.735.735,0,1,1,.735.735.736.736,0,0,1-.735-.735Zm-2.911,0a.735.735,0,1,1,.735.735.736.736,0,0,1-.735-.735Zm-5.837,0a.735.735,0,1,1,.735.735A.736.736,0,0,1,197.752,576.435Zm-4.381,0a.735.735,0,1,1,.735.735.736.736,0,0,1-.735-.735Zm-1.455,0a.735.735,0,1,1,.735.735.736.736,0,0,1-.735-.735Zm56.865-1.455a.735.735,0,1,1,.735.735.736.736,0,0,1-.735-.735Zm-1.455,0a.735.735,0,1,1,.735.735.736.736,0,0,1-.735-.735Zm-2.911,0a.735.735,0,1,1,.735.735A.736.736,0,0,1,244.414,574.98Zm-2.926,0a.735.735,0,1,1,.735.735.736.736,0,0,1-.735-.735Zm-2.911,0a.735.735,0,1,1,.735.735.736.736,0,0,1-.735-.735Zm-2.926,0a.728.728,0,1,1,0,.015h0Zm-1.455,0a.735.735,0,1,1,.735.735.736.736,0,0,1-.735-.735Zm-1.455,0a.735.735,0,1,1,.735.735A.736.736,0,0,1,232.741,574.98Zm-2.911,0a.735.735,0,1,1,.735.735.736.736,0,0,1-.735-.735Zm-1.455,0a.735.735,0,1,1,.735.735.736.736,0,0,1-.735-.735Zm-4.381,0a.735.735,0,1,1,.735.735.736.736,0,0,1-.735-.735Zm-1.455,0a.735.735,0,1,1,.735.735h0A.736.736,0,0,1,222.538,574.98Zm-1.455,0a.735.735,0,1,1,.735.735A.736.736,0,0,1,221.083,574.98Zm-2.926,0a.735.735,0,1,1,.735.735.736.736,0,0,1-.735-.735Zm-2.911,0a.735.735,0,1,1,.735.735.736.736,0,0,1-.735-.735Zm-2.911,0a.735.735,0,1,1,.735.735.736.736,0,0,1-.735-.735Zm-1.455,0a.735.735,0,1,1,.735.735.736.736,0,0,1-.735-.735Zm-1.47,0a.735.735,0,1,1,.735.735.736.736,0,0,1-.735-.735Zm-1.455,0a.735.735,0,1,1,.735.735.736.736,0,0,1-.735-.735Zm-1.455,0a.735.735,0,1,1,.735.735.736.736,0,0,1-.735-.735Zm-1.455,0a.735.735,0,1,1,.735.735.736.736,0,0,1-.735-.735Zm-5.837,0a.735.735,0,1,1,.735.735h0A.736.736,0,0,1,199.207,574.98Zm-1.455,0a.735.735,0,1,1,.735.735A.736.736,0,0,1,197.752,574.98Zm-4.381,0a.735.735,0,1,1,.735.735.736.736,0,0,1-.735-.735Zm53.954-1.47a.735.735,0,1,1,.735.735A.736.736,0,0,1,247.324,573.509Zm-2.911,0a.735.735,0,1,1,.735.735A.736.736,0,0,1,244.414,573.509Zm-5.837,0a.735.735,0,1,1,.735.735A.736.736,0,0,1,238.577,573.509Zm-2.926,0a.728.728,0,1,1,0,.015h0Zm-1.455,0a.735.735,0,1,1,.735.735A.736.736,0,0,1,234.2,573.509Zm-4.366,0a.735.735,0,1,1,.735.735A.736.736,0,0,1,229.83,573.509Zm-1.455,0a.735.735,0,1,1,.735.735A.736.736,0,0,1,228.375,573.509Zm-1.47,0a.735.735,0,1,1,.735.735A.736.736,0,0,1,226.9,573.509Zm-2.911,0a.735.735,0,1,1,.735.735A.736.736,0,0,1,223.993,573.509Zm-1.455,0a.735.735,0,1,1,.735.735A.736.736,0,0,1,222.538,573.509Zm-1.455,0a.735.735,0,1,1,.735.735A.736.736,0,0,1,221.083,573.509Zm-1.455,0a.735.735,0,1,1,.735.735.736.736,0,0,1-.735-.735Zm-1.47,0a.735.735,0,1,1,.735.735A.736.736,0,0,1,218.157,573.509Zm-5.822,0a.735.735,0,1,1,.735.735A.736.736,0,0,1,212.335,573.509Zm-1.455,0a.735.735,0,1,1,.735.735A.736.736,0,0,1,210.88,573.509Zm-7.292,0a.735.735,0,1,1,.735.735A.736.736,0,0,1,203.588,573.509Zm-1.47,0a.735.735,0,1,1,.735.735A.736.736,0,0,1,202.118,573.509Zm-1.455,0a.735.735,0,1,1,.735.735A.736.736,0,0,1,200.662,573.509Zm-1.455,0a.735.735,0,1,1,.735.735A.736.736,0,0,1,199.207,573.509Zm-1.455,0a.735.735,0,1,1,.735.735A.736.736,0,0,1,197.752,573.509Zm-1.455,0a.735.735,0,1,1,.735.735.736.736,0,0,1-.735-.735Zm-2.926,0a.735.735,0,1,1,.735.735A.736.736,0,0,1,193.37,573.509Zm56.865-1.455a.728.728,0,1,1,0,.015h0Zm-1.455,0a.728.728,0,1,1,0,.015h0Zm-1.455,0a.728.728,0,1,1,0,.015h0Zm-2.911,0a.728.728,0,1,1,0,.015h0Zm-1.47,0a.728.728,0,1,1,0,.015h0Zm-1.455,0a.728.728,0,1,1,0,.015h0Zm-1.455,0a.735.735,0,1,1,.735.735h0a.743.743,0,0,1-.735-.72h0Zm-1.455,0a.728.728,0,1,1,0,.015h0Zm-2.926,0a.735.735,0,1,1,.735.735.724.724,0,0,1-.735-.72h0Zm-1.455,0a.728.728,0,1,1,0,.015h0Zm-1.455,0a.728.728,0,1,1,0,.015h0Zm-1.455,0a.728.728,0,1,1,0,.015h0Zm-4.381,0a.728.728,0,1,1,0,.015h0Zm-1.455,0a.735.735,0,1,1,.735.735.72.72,0,0,1-.72-.72h0Zm-2.911,0a.728.728,0,1,1,0,.015h0Zm-2.911,0a.728.728,0,1,1,0,.015h0Zm-1.47,0a.728.728,0,1,1,0,.015h0Zm-1.455,0a.728.728,0,1,1,0,.015h0Zm-1.455,0a.728.728,0,1,1,0,.015h0Zm-1.455,0a.728.728,0,1,1,0,.015h0Zm-1.455,0a.728.728,0,1,1,0,.015h0Zm-2.926,0a.728.728,0,1,1,0,.015h0Zm-7.292,0a.728.728,0,1,1,0,.015h0Zm-1.455,0a.728.728,0,1,1,0,.015h0Zm-2.911,0a.728.728,0,1,1,0,.015h0Zm-1.455,0a.728.728,0,1,1,0,.015h0Zm-4.381,0a.728.728,0,1,1,0,.015h0Zm-2.911,0a.728.728,0,1,1,0,.015h0Zm-5.837,0a.735.735,0,1,1,.735.735h0a.743.743,0,0,1-.735-.72h0Zm-1.455,0a.728.728,0,1,1,0,.015h0Zm-1.455,0a.735.735,0,1,1,.735.735.72.72,0,0,1-.72-.72h0ZM248.78,570.6a.728.728,0,1,1,0,.015h0Zm-2.911,0a.728.728,0,1,1,0,.015h0Zm-1.455,0a.728.728,0,1,1,0,.015h0Zm-1.47,0a.728.728,0,1,1,0,.015h0Zm-4.366,0a.728.728,0,1,1,0,.015h0Zm-4.381,0a.728.728,0,1,1,0,.015h0Zm-1.455,0a.728.728,0,1,1,0,.015h0Zm-2.911,0a.728.728,0,1,1,0,.015h0Zm-1.455,0a.728.728,0,1,1,0,.015h0Zm-1.47,0a.728.728,0,1,1,0,.015h0Zm-5.822,0a.728.728,0,1,1,0,.015h0Zm-7.292,0a.728.728,0,1,1,0,.015h0Zm-5.837,0a.728.728,0,1,1,0,.015h0Zm-2.911,0a.728.728,0,1,1,0,.015h0Zm-2.926,0a.728.728,0,1,1,0,.015h0Zm-1.455,0a.728.728,0,1,1,0,.015h0Zm-1.455,0a.728.728,0,1,1,0,.015h0Zm-1.455,0a.728.728,0,1,1,0,.015h0Zm-1.455,0a.728.728,0,1,1,0,.015h0Zm-4.381,0a.728.728,0,1,1,0,.015h0Zm-1.455,0a.735.735,0,1,1,.735.735.724.724,0,0,1-.735-.72h0Zm-5.837,0a.728.728,0,1,1,0,.015h0Zm-1.455,0a.728.728,0,1,1,0,.015h0Zm-1.455,0a.728.728,0,1,1,0,.015h0Zm68.523-1.455a.728.728,0,1,1,0,.015h0Zm-1.455,0a.728.728,0,1,1,0,.015h0Zm-1.455,0a.728.728,0,1,1,0,.015h0Zm-2.911,0a.728.728,0,1,1,0,.015h0Zm-1.47,0a.728.728,0,1,1,0,.015h0Zm-7.292,0a.735.735,0,1,1,.735.735.724.724,0,0,1-.735-.72h0Zm-5.822,0a.728.728,0,1,1,.72.735.736.736,0,0,1-.735-.735h0Zm-5.837,0a.728.728,0,1,1,0,.015h0Zm-4.366,0a.728.728,0,1,1,0,.015h0Zm-1.47,0a.728.728,0,1,1,0,.015h0Zm-2.911,0a.728.728,0,1,1,0,.015h0Zm-2.911,0a.728.728,0,1,1,0,.015h0Zm-2.926,0a.728.728,0,1,1,0,.015h0Zm-1.455,0a.728.728,0,1,1,0,.015h0Zm-2.911,0a.728.728,0,1,1,0,.015h0Zm-1.455,0a.728.728,0,1,1,0,.015h0Zm-1.47,0a.728.728,0,1,1,0,.015h0Zm-1.455,0a.728.728,0,1,1,0,.015h0Zm-2.911,0a.728.728,0,1,1,0,.015h0Zm-2.911,0a.728.728,0,1,1,0,.015h0Zm-5.837,0a.728.728,0,1,1,0,.015h0Zm-1.455,0a.728.728,0,1,1,0,.015h0Zm-5.837,0a.728.728,0,1,1,0,.015h0Zm68.523-1.47a.728.728,0,1,1,0,.015h0Zm-1.455,0a.728.728,0,1,1,0,.015h0Zm-1.455,0a.728.728,0,1,1,0,.015h0Zm-1.455,0a.728.728,0,1,1,0,.015h0Zm-1.455,0a.728.728,0,1,1,0,.015h0Zm-1.47,0a.728.728,0,1,1,0,.015h0Zm-1.455,0a.728.728,0,1,1,0,.015h0Zm-2.911,0a.728.728,0,1,1,0,.015h0Zm-2.926,0a.735.735,0,1,1,.735.735.724.724,0,0,1-.735-.72h0Zm-1.455,0a.728.728,0,1,1,0,.015h0Zm-1.455,0a.728.728,0,1,1,0,.015h0Zm-1.455,0a.728.728,0,1,1,0,.015h0Zm-1.455,0a.728.728,0,1,1,.72.735.733.733,0,0,1-.735-.72h0Zm-1.455,0a.728.728,0,1,1,0,.015h0Zm-1.47,0a.728.728,0,1,1,0,.015h0Zm-1.455,0a.735.735,0,1,1,.735.735.72.72,0,0,1-.72-.72h0Zm-2.911,0a.728.728,0,1,1,0,.015h0Zm-1.455,0a.728.728,0,1,1,0,.015h0Zm-4.381,0a.728.728,0,1,1,0,.015h0Zm-1.455,0a.728.728,0,1,1,0,.015h0Zm-5.837,0a.728.728,0,1,1,0,.015h0Zm-1.455,0a.728.728,0,1,1,0,.015h0Zm-2.911,0a.728.728,0,1,1,0,.015h0Zm-2.926,0a.728.728,0,1,1,0,.015h0Zm-2.911,0a.728.728,0,1,1,0,.015h0Zm-5.837,0a.728.728,0,1,1,0,.015h0Zm-2.911,0a.735.735,0,1,1,.735.735.724.724,0,0,1-.735-.72h0Zm-4.366,0a.728.728,0,1,1,0,.015h0Zm-1.47,0a.728.728,0,1,1,.72.735.743.743,0,0,1-.735-.72h0Zm-2.911,0a.728.728,0,1,1,0,.015h0Zm-1.455,0a.735.735,0,1,1,.735.735.72.72,0,0,1-.72-.72h0Zm69.978-1.455a.728.728,0,1,1,0,.015h0Zm-5.822,0a.728.728,0,1,1,0,.015h0Zm-2.926,0a.728.728,0,1,1,0,.015h0Zm-2.911,0a.728.728,0,1,1,0,.015h0Zm-2.926,0a.735.735,0,1,1,.735.735.724.724,0,0,1-.735-.72h0Zm-1.455,0a.728.728,0,1,1,0,.015h0Zm-1.455,0a.728.728,0,1,1,0,.015h0Zm-7.292,0a.735.735,0,1,1,.735.735.72.72,0,0,1-.72-.72h0Zm-1.455,0a.728.728,0,1,1,0,.015h0Zm-2.911,0a.728.728,0,1,1,0,.015h0Zm-2.926,0a.728.728,0,1,1,0,.015h0Zm-2.911,0a.728.728,0,1,1,0,.015h0Zm-5.837,0a.728.728,0,1,1,0,.015h0Zm-5.822,0a.728.728,0,1,1,0,.015h0Zm-4.381,0a.728.728,0,1,1,0,.015h0Zm-1.455,0a.728.728,0,1,1,0,.015h0Zm-2.911,0a.728.728,0,1,1,0,.015h0Zm-1.47,0a.728.728,0,1,1,0,.015h0Zm-1.455,0a.728.728,0,1,1,0,.015h0Zm-1.455,0a.735.735,0,1,1,.735.735.724.724,0,0,1-.735-.72h0Zm-1.455,0a.728.728,0,1,1,0,.015h0Zm-1.455,0a.728.728,0,1,1,0,.015h0Zm-1.455,0a.728.728,0,1,1,0,.015h0Zm-1.47,0a.728.728,0,1,1,0,.015h0Zm65.612-1.455a.728.728,0,1,1,0,.015h0Zm-1.455,0a.728.728,0,1,1,0,.015h0Zm-1.455,0a.728.728,0,1,1,0,.015h0Zm-1.455,0a.728.728,0,1,1,0,.015h0Zm-1.455,0a.728.728,0,1,1,0,.015h0Zm-4.381,0a.728.728,0,1,1,0,.015h0Zm-4.381,0a.735.735,0,1,1,.735.735.724.724,0,0,1-.735-.72h0Zm-2.911,0a.728.728,0,1,1,0,.015h0Zm-2.911,0a.728.728,0,1,1,0,.015h0Zm-2.926,0a.728.728,0,1,1,0,.015h0Zm-5.822,0a.728.728,0,1,1,0,.015h0Zm-4.381,0a.728.728,0,1,1,0,.015h0Zm-4.366,0a.728.728,0,1,1,0,.015h0Zm-5.837,0a.728.728,0,1,1,0,.015h0Zm-1.455,0a.728.728,0,1,1,0,.015h0Zm-1.455,0a.728.728,0,1,1,0,.015h0Zm-4.381,0a.728.728,0,1,1,0,.015h0Zm-1.455,0a.728.728,0,1,1,0,.015h0Zm-1.455,0a.728.728,0,1,1,0,.015h0Zm-2.926,0a.728.728,0,1,1,0,.015h0Zm-2.911,0a.735.735,0,1,1,.735.735.724.724,0,0,1-.735-.72h0Zm-2.911,0a.728.728,0,1,1,0,.015h0Zm-1.455,0a.728.728,0,1,1,0,.015h0Zm-1.47,0a.728.728,0,1,1,0,.015h0Zm-2.911,0a.728.728,0,1,1,0,.015h0Zm68.523-1.455a.735.735,0,1,1,.735.735A.736.736,0,0,1,250.235,563.307Zm-2.911,0a.735.735,0,1,1,.735.735A.736.736,0,0,1,247.324,563.307Zm-4.381,0a.735.735,0,1,1,.735.735A.736.736,0,0,1,242.943,563.307Zm-7.292,0a.735.735,0,1,1,.735.735A.736.736,0,0,1,235.651,563.307Zm-2.911,0a.735.735,0,1,1,.735.735.724.724,0,0,1-.72-.735h0Zm-1.455,0a.735.735,0,1,1,.735.735.724.724,0,0,1-.72-.735h0Zm-1.455,0a.735.735,0,1,1,.735.735A.736.736,0,0,1,229.83,563.307Zm-2.926,0a.735.735,0,1,1,.735.735A.736.736,0,0,1,226.9,563.307Zm-1.44,0a.735.735,0,1,1,.735.735A.736.736,0,0,1,225.464,563.307Zm-1.47,0a.735.735,0,1,1,.735.735.724.724,0,0,1-.735-.72h0Zm-5.822,0a.735.735,0,1,1,.735.735.724.724,0,0,1-.735-.72h0Zm-5.837,0a.735.735,0,1,1,.735.735.724.724,0,0,1-.735-.72h0Zm-2.911,0a.735.735,0,1,1,.735.735.724.724,0,0,1-.735-.72h0Zm-4.381,0a.735.735,0,1,1,.735.735.724.724,0,0,1-.735-.72h0Zm-1.455,0a.735.735,0,1,1,.735.735.724.724,0,0,1-.735-.72h0Zm-1.455,0a.735.735,0,1,1,.735.735.724.724,0,0,1-.735-.72h0Zm-1.47,0a.735.735,0,1,1,.735.735A.736.736,0,0,1,200.662,563.307Zm-2.911,0a.735.735,0,1,1,.735.735A.736.736,0,0,1,197.752,563.307Zm-2.911,0a.735.735,0,1,1,.735.735A.736.736,0,0,1,194.841,563.307Zm-4.381,0a.735.735,0,1,1,.735.735A.736.736,0,0,1,190.46,563.307Zm-1.455,0a.735.735,0,1,1,.735.735.724.724,0,0,1-.72-.735h0Zm-1.47,0a.735.735,0,1,1,.735.735.724.724,0,0,1-.72-.735h0Zm-4.366,0a.735.735,0,1,1,.735.735A.736.736,0,0,1,183.168,563.307Zm-1.455,0a.735.735,0,1,1,.735.735A.736.736,0,0,1,181.712,563.307Zm67.067-1.455a.735.735,0,1,1,.735.735.736.736,0,0,1-.735-.735Zm-5.837,0a.735.735,0,1,1,.735.735.736.736,0,0,1-.735-.735Zm-2.911,0a.735.735,0,1,1,.735.735.736.736,0,0,1-.735-.735Zm-2.911,0a.735.735,0,1,1,.735.735.736.736,0,0,1-.735-.735Zm-1.47,0a.728.728,0,1,1,0,.015h0Zm-1.455,0a.735.735,0,1,1,.735.735.736.736,0,0,1-.735-.735Zm-7.292,0a.735.735,0,1,1,.735.735.736.736,0,0,1-.735-.735Zm-2.911,0a.735.735,0,1,1,.735.735.736.736,0,0,1-.735-.735Zm-2.911,0a.735.735,0,1,1,.735.735.736.736,0,0,1-.735-.735Zm-1.455,0a.735.735,0,1,1,.735.735.736.736,0,0,1-.735-.735Zm-1.47,0a.735.735,0,1,1,.735.735.736.736,0,0,1-.735-.735Zm-5.822,0a.735.735,0,1,1,.735.735.736.736,0,0,1-.735-.735Zm-5.837,0a.735.735,0,1,1,.735.735.736.736,0,0,1-.735-.735Zm-2.911,0a.735.735,0,1,1,.735.735.736.736,0,0,1-.735-.735Zm-2.926,0a.735.735,0,1,1,.735.735.736.736,0,0,1-.735-.735Zm-2.911,0a.735.735,0,1,1,.735.735.736.736,0,0,1-.735-.735Zm-1.455,0a.735.735,0,1,1,.735.735.736.736,0,0,1-.735-.735Zm-1.455,0a.735.735,0,1,1,.735.735.736.736,0,0,1-.735-.735Zm-4.381,0a.735.735,0,1,1,.735.735.724.724,0,0,1-.735-.72h0Zm58.32-1.455a.735.735,0,1,1,.735.735.736.736,0,0,1-.735-.735Zm-5.837,0a.735.735,0,1,1,.735.735.736.736,0,0,1-.735-.735Zm-2.911,0a.735.735,0,1,1,.735.735.736.736,0,0,1-.735-.735Zm-2.911,0a.735.735,0,1,1,.735.735.736.736,0,0,1-.735-.735Zm-1.47,0a.728.728,0,1,1,0,.015h0Zm-4.366,0a.735.735,0,1,1,.735.735.736.736,0,0,1-.735-.735Zm-1.455,0a.735.735,0,1,1,.735.735.736.736,0,0,1-.735-.735Zm-1.455,0a.735.735,0,1,1,.735.735.736.736,0,0,1-.735-.735Zm-1.47,0a.735.735,0,1,1,.735.735.736.736,0,0,1-.735-.735Zm-4.366,0a.735.735,0,1,1,.735.735.736.736,0,0,1-.735-.735Zm-2.911,0a.735.735,0,1,1,.735.735.736.736,0,0,1-.735-.735Zm-1.47,0a.735.735,0,1,1,.735.735.736.736,0,0,1-.735-.735Zm-1.455,0a.735.735,0,1,1,.735.735.736.736,0,0,1-.735-.735Zm-2.911,0a.735.735,0,1,1,.735.735.736.736,0,0,1-.735-.735Zm-2.911,0a.735.735,0,1,1,.735.735.736.736,0,0,1-.735-.735Zm-2.926,0a.735.735,0,1,1,.735.735.736.736,0,0,1-.735-.735Zm-2.911,0a.735.735,0,1,1,.735.735.736.736,0,0,1-.735-.735Zm-2.926,0a.735.735,0,1,1,.735.735.736.736,0,0,1-.735-.735Zm-5.822,0a.735.735,0,1,1,.735.735.736.736,0,0,1-.735-.735Zm-7.292,0a.735.735,0,1,1,.735.735A.736.736,0,0,1,189,560.4Zm-5.837,0a.735.735,0,1,1,.735.735.736.736,0,0,1-.735-.735Zm-2.911,0a.735.735,0,1,1,.735.735.724.724,0,0,1-.72-.735h0Zm65.612-1.455a.735.735,0,1,1,.735.735.736.736,0,0,1-.735-.735Zm-1.455,0a.735.735,0,1,1,.735.735.736.736,0,0,1-.735-.735Zm-1.47,0a.735.735,0,1,1,.735.735.736.736,0,0,1-.735-.735Zm-2.911,0a.735.735,0,1,1,.735.735.736.736,0,0,1-.735-.735Zm-1.455,0a.735.735,0,1,1,.735.735.736.736,0,0,1-.735-.735Zm-2.926,0a.728.728,0,1,1,0,.015h0Zm-1.455,0a.735.735,0,1,1,.735.735.736.736,0,0,1-.735-.735Zm-1.455,0a.735.735,0,1,1,.735.735.736.736,0,0,1-.735-.735Zm-2.911,0a.735.735,0,1,1,.735.735.736.736,0,0,1-.735-.735Zm-2.926,0a.735.735,0,1,1,.735.735.736.736,0,0,1-.735-.735Zm-4.366,0a.735.735,0,1,1,.735.735.736.736,0,0,1-.735-.735Zm-1.455,0a.735.735,0,1,1,.735.735.736.736,0,0,1-.735-.735Zm-1.455,0a.735.735,0,1,1,.735.735.736.736,0,0,1-.735-.735Zm-1.47,0a.735.735,0,1,1,.735.735.736.736,0,0,1-.735-.735Zm-2.911,0a.735.735,0,1,1,.735.735.736.736,0,0,1-.735-.735Zm-5.837,0a.735.735,0,1,1,.735.735.736.736,0,0,1-.735-.735Zm-4.366,0a.735.735,0,1,1,.735.735.736.736,0,0,1-.735-.735Zm-1.455,0a.735.735,0,1,1,.735.735.736.736,0,0,1-.735-.735Zm-1.47,0a.735.735,0,1,1,.735.735.736.736,0,0,1-.735-.735Zm-1.455,0a.735.735,0,1,1,.735.735.736.736,0,0,1-.735-.735Zm-2.911,0a.735.735,0,1,1,.735.735.736.736,0,0,1-.735-.735Zm-4.381,0a.735.735,0,1,1,.735.735.736.736,0,0,1-.735-.735Zm-2.911,0a.735.735,0,1,1,.735.735.724.724,0,0,1-.735-.72h0Zm-2.911,0a.735.735,0,1,1,.735.735.736.736,0,0,1-.735-.735Zm-2.926,0a.735.735,0,1,1,.735.735.736.736,0,0,1-.735-.735Zm-1.455,0a.735.735,0,1,1,.735.735.736.736,0,0,1-.735-.735Zm-2.911,0a.735.735,0,1,1,.735.735.724.724,0,0,1-.72-.735h0Zm65.612-1.455a.735.735,0,1,1,.735.735.736.736,0,0,1-.735-.735Zm-4.381,0a.735.735,0,1,1,.735.735.736.736,0,0,1-.735-.735Zm-1.455,0a.735.735,0,1,1,.735.735.736.736,0,0,1-.735-.735Zm-1.455,0a.735.735,0,1,1,.735.735.736.736,0,0,1-.735-.735Zm-1.455,0a.735.735,0,1,1,.735.735.736.736,0,0,1-.735-.735Zm-2.926,0a.735.735,0,1,1,.735.735.736.736,0,0,1-.735-.735Zm-1.455,0a.735.735,0,1,1,.735.735.736.736,0,0,1-.735-.735Zm-4.366,0a.735.735,0,1,1,.735.735.736.736,0,0,1-.735-.735Zm-1.47,0a.735.735,0,1,1,.735.735.736.736,0,0,1-.735-.735Zm-4.366,0a.735.735,0,1,1,.735.735.736.736,0,0,1-.735-.735Zm-1.455,0a.735.735,0,1,1,.735.735.736.736,0,0,1-.735-.735Zm-4.381,0a.735.735,0,1,1,.735.735.736.736,0,0,1-.735-.735Zm-1.455,0a.735.735,0,1,1,.735.735.736.736,0,0,1-.735-.735Zm-4.366,0a.735.735,0,1,1,.735.735.736.736,0,0,1-.735-.735Zm-2.926,0a.735.735,0,1,1,.735.735.736.736,0,0,1-.735-.735Zm-1.455,0a.735.735,0,1,1,.735.735.736.736,0,0,1-.735-.735Zm-7.292,0a.735.735,0,1,1,.735.735.736.736,0,0,1-.735-.735Zm-1.455,0a.735.735,0,1,1,.735.735.736.736,0,0,1-.735-.735Zm-1.455,0a.735.735,0,1,1,.735.735.736.736,0,0,1-.735-.735Zm-2.926,0a.735.735,0,1,1,.735.735.736.736,0,0,1-.735-.735Zm-2.911,0a.735.735,0,1,1,.735.735.724.724,0,0,1-.735-.72h0Zm-1.455,0a.735.735,0,1,1,.735.735.736.736,0,0,1-.735-.735Zm-2.911,0a.735.735,0,1,1,.735.735.736.736,0,0,1-.735-.735Zm-1.47,0a.728.728,0,1,1,.72.735.736.736,0,0,1-.735-.735h0Zm-1.455,0a.735.735,0,1,1,.735.735.736.736,0,0,1-.735-.735Zm-2.911,0a.735.735,0,1,1,.735.735.724.724,0,0,1-.72-.735h0Zm69.978-1.47a.735.735,0,1,1,.735.735.736.736,0,0,1-.735-.735Zm-1.455,0a.735.735,0,1,1,.735.735.736.736,0,0,1-.735-.735Zm-1.455,0a.735.735,0,1,1,.735.735.736.736,0,0,1-.735-.735Zm-1.455,0a.735.735,0,1,1,.735.735.736.736,0,0,1-.735-.735Zm-1.455,0a.735.735,0,1,1,.735.735.736.736,0,0,1-.735-.735Zm-1.47,0a.735.735,0,1,1,.735.735.736.736,0,0,1-.735-.735Zm-1.455,0a.735.735,0,1,1,.735.735.736.736,0,0,1-.735-.735Zm-2.911,0a.735.735,0,1,1,.735.735.736.736,0,0,1-.735-.735Zm-4.381,0a.735.735,0,1,1,.735.735.736.736,0,0,1-.735-.735Zm-1.455,0a.735.735,0,1,1,.735.735.736.736,0,0,1-.735-.735Zm-1.455,0a.735.735,0,1,1,.735.735.736.736,0,0,1-.735-.735Zm-1.455,0a.735.735,0,1,1,.735.735.736.736,0,0,1-.735-.735Zm-1.455,0a.735.735,0,1,1,.735.735.736.736,0,0,1-.735-.735Zm-1.47,0a.735.735,0,1,1,.735.735.736.736,0,0,1-.735-.735Zm-4.366,0a.735.735,0,1,1,.735.735.736.736,0,0,1-.735-.735Zm-1.455,0a.735.735,0,1,1,.735.735.736.736,0,0,1-.735-.735Zm-1.455,0a.735.735,0,1,1,.735.735.736.736,0,0,1-.735-.735Zm-5.837,0a.735.735,0,1,1,.735.735.736.736,0,0,1-.735-.735Zm-2.911,0a.735.735,0,1,1,.735.735.736.736,0,0,1-.735-.735Zm-5.837,0a.735.735,0,1,1,.735.735.736.736,0,0,1-.735-.735Zm-2.926,0a.735.735,0,1,1,.735.735.736.736,0,0,1-.735-.735Zm-4.366,0a.735.735,0,1,1,.735.735.736.736,0,0,1-.735-.735Zm-1.455,0a.735.735,0,1,1,.735.735.736.736,0,0,1-.735-.735Zm-2.926,0a.735.735,0,1,1,.735.735.736.736,0,0,1-.735-.735Zm-8.747,0a.735.735,0,1,1,.735.735.736.736,0,0,1-.735-.735Zm-4.366,0a.735.735,0,1,1,.735.735.724.724,0,0,1-.72-.735h0Zm68.523-1.455a.735.735,0,1,1,.735.735.736.736,0,0,1-.735-.735Zm-5.837,0a.735.735,0,1,1,.735.735.736.736,0,0,1-.735-.735Zm-5.822,0a.735.735,0,1,1,.735.735.736.736,0,0,1-.735-.735Zm-2.926,0a.735.735,0,1,1,.735.735.736.736,0,0,1-.735-.735Zm-2.911,0a.735.735,0,1,1,.735.735.736.736,0,0,1-.735-.735Zm-1.455,0a.735.735,0,1,1,.735.735.736.736,0,0,1-.735-.735Zm-1.455,0a.735.735,0,1,1,.735.735.736.736,0,0,1-.735-.735Zm-1.47,0a.735.735,0,1,1,.735.735.736.736,0,0,1-.735-.735Zm-7.277,0a.735.735,0,1,1,.735.735.736.736,0,0,1-.735-.735Zm-7.292,0a.735.735,0,1,1,.735.735.736.736,0,0,1-.735-.735Zm-4.381,0a.735.735,0,1,1,.735.735.736.736,0,0,1-.735-.735Zm-2.911,0a.735.735,0,1,1,.735.735.736.736,0,0,1-.735-.735Zm-2.926,0a.735.735,0,1,1,.735.735.736.736,0,0,1-.735-.735Zm-1.455,0a.735.735,0,1,1,.735.735.736.736,0,0,1-.735-.735Zm-1.455,0a.735.735,0,1,1,.735.735.736.736,0,0,1-.735-.735Zm-1.455,0a.735.735,0,1,1,.735.735.736.736,0,0,1-.735-.735Zm-1.455,0a.735.735,0,1,1,.735.735.736.736,0,0,1-.735-.735Zm-1.455,0a.735.735,0,1,1,.735.735.736.736,0,0,1-.735-.735Zm-1.47,0a.735.735,0,1,1,.735.735.736.736,0,0,1-.735-.735Zm-4.366,0a.735.735,0,1,1,.735.735.736.736,0,0,1-.735-.735Zm-2.911,0a.735.735,0,1,1,.735.735.736.736,0,0,1-.735-.735ZM248.78,553.1a.735.735,0,1,1,.735.735.736.736,0,0,1-.735-.735Zm-7.292,0a.735.735,0,1,1,.735.735.736.736,0,0,1-.735-.735Zm-1.455,0a.735.735,0,1,1,.735.735.736.736,0,0,1-.735-.735Zm-2.911,0a.735.735,0,1,1,.735.735.736.736,0,0,1-.735-.735Zm-1.47,0a.728.728,0,1,1,0,.015h0Zm-7.277,0a.735.735,0,1,1,.735.735.736.736,0,0,1-.735-.735Zm-2.926,0a.735.735,0,1,1,.735.735.724.724,0,0,1-.72-.735h0Zm-7.292,0a.735.735,0,1,1,.735.735.736.736,0,0,1-.735-.735Zm-2.911,0a.735.735,0,1,1,.735.735.736.736,0,0,1-.735-.735Zm-2.911,0a.735.735,0,1,1,.735.735.736.736,0,0,1-.735-.735Zm-8.747,0a.735.735,0,1,1,.735.735.736.736,0,0,1-.735-.735Zm-4.381,0a.735.735,0,1,1,.735.735.736.736,0,0,1-.735-.735Zm-1.455,0a.735.735,0,1,1,.735.735.736.736,0,0,1-.735-.735Zm-5.837,0a.735.735,0,1,1,.735.735.736.736,0,0,1-.735-.735Zm-5.822,0a.735.735,0,1,1,.735.735.736.736,0,0,1-.735-.735Zm-4.381,0a.735.735,0,1,1,.735.735.736.736,0,0,1-.735-.735Zm64.157-1.455a.735.735,0,1,1,.735.735.736.736,0,0,1-.735-.735Zm-1.455,0a.735.735,0,1,1,.735.735.736.736,0,0,1-.735-.735Zm-1.47,0a.735.735,0,1,1,.735.735.736.736,0,0,1-.735-.735Zm-1.455,0a.735.735,0,1,1,.735.735.736.736,0,0,1-.735-.735Zm-1.455,0a.735.735,0,1,1,.735.735.736.736,0,0,1-.735-.735Zm-1.455,0a.735.735,0,1,1,.735.735.736.736,0,0,1-.735-.735Zm-1.455,0a.735.735,0,1,1,.735.735.736.736,0,0,1-.735-.735Zm-4.381,0a.735.735,0,1,1,.735.735.736.736,0,0,1-.735-.735Zm-1.455,0a.735.735,0,1,1,.735.735.736.736,0,0,1-.735-.735Zm-1.455,0a.735.735,0,1,1,.735.735.736.736,0,0,1-.735-.735Zm-2.926,0a.735.735,0,1,1,.735.735.736.736,0,0,1-.735-.735Zm-5.822,0a.735.735,0,1,1,.735.735.736.736,0,0,1-.735-.735Zm-2.926,0a.735.735,0,1,1,.735.735.736.736,0,0,1-.735-.735Zm-1.455,0a.735.735,0,1,1,.735.735.736.736,0,0,1-.735-.735Zm-1.455,0a.735.735,0,1,1,.735.735.736.736,0,0,1-.735-.735Zm-1.455,0a.735.735,0,1,1,.735.735.736.736,0,0,1-.735-.735Zm-1.455,0a.735.735,0,1,1,.735.735.736.736,0,0,1-.735-.735Zm-1.455,0a.735.735,0,1,1,.735.735.736.736,0,0,1-.735-.735Zm-4.381,0a.735.735,0,1,1,.735.735.736.736,0,0,1-.735-.735Zm-2.911,0a.735.735,0,1,1,.735.735.736.736,0,0,1-.735-.735Zm-1.47,0a.735.735,0,1,1,.735.735.736.736,0,0,1-.735-.735Zm-1.455,0a.735.735,0,1,1,.735.735.736.736,0,0,1-.735-.735Zm-2.911,0a.735.735,0,1,1,.735.735.736.736,0,0,1-.735-.735Zm-2.911,0a.735.735,0,1,1,.735.735.736.736,0,0,1-.735-.735Zm-2.926,0a.735.735,0,1,1,.735.735.736.736,0,0,1-.735-.735Zm-1.455,0a.735.735,0,1,1,.735.735.724.724,0,0,1-.735-.72h0Zm-1.455,0a.735.735,0,1,1,.735.735.736.736,0,0,1-.735-.735Zm-1.455,0a.735.735,0,1,1,.735.735.736.736,0,0,1-.735-.735Zm-1.455,0a.735.735,0,1,1,.735.735.736.736,0,0,1-.735-.735Zm-1.47,0a.735.735,0,1,1,.735.735.736.736,0,0,1-.735-.735Zm-1.455,0a.735.735,0,1,1,.735.735.736.736,0,0,1-.735-.735Zm-2.911,0a.735.735,0,1,1,.735.735.724.724,0,0,1-.72-.735h0Zm67.067-1.455a.735.735,0,1,1,.735.735.736.736,0,0,1-.735-.735Zm-1.455,0a.735.735,0,1,1,.735.735.736.736,0,0,1-.735-.735Zm-1.455,0a.735.735,0,1,1,.735.735.736.736,0,0,1-.735-.735Zm-5.837,0a.735.735,0,1,1,.735.735.736.736,0,0,1-.735-.735Zm-10.2,0a.735.735,0,1,1,.735.735.736.736,0,0,1-.735-.735Zm-1.47,0a.735.735,0,1,1,.735.735.736.736,0,0,1-.735-.735Zm-1.455,0a.735.735,0,1,1,.735.735.724.724,0,0,1-.72-.735h0Zm-4.366,0a.735.735,0,1,1,.735.735.736.736,0,0,1-.735-.735Zm-2.926,0a.735.735,0,1,1,.735.735.736.736,0,0,1-.735-.735Zm-5.822,0a.735.735,0,1,1,.735.735.736.736,0,0,1-.735-.735Zm-1.455,0a.735.735,0,1,1,.735.735.736.736,0,0,1-.735-.735Zm-1.47,0a.735.735,0,1,1,.735.735.736.736,0,0,1-.735-.735Zm-1.455,0a.735.735,0,1,1,.735.735.736.736,0,0,1-.735-.735Zm-1.455,0a.735.735,0,1,1,.735.735.736.736,0,0,1-.735-.735Zm-1.455,0a.735.735,0,1,1,.735.735.736.736,0,0,1-.735-.735Zm-2.926,0a.735.735,0,1,1,.735.735.736.736,0,0,1-.735-.735Zm-1.455,0a.735.735,0,1,1,.735.735.736.736,0,0,1-.735-.735Zm-5.822,0a.735.735,0,1,1,.735.735.736.736,0,0,1-.735-.735Zm-1.47,0a.735.735,0,1,1,.735.735.736.736,0,0,1-.735-.735Zm-1.455,0a.735.735,0,1,1,.735.735.736.736,0,0,1-.735-.735Zm-5.822,0a.735.735,0,1,1,.735.735.736.736,0,0,1-.735-.735Zm-2.926,0a.735.735,0,1,1,.735.735.736.736,0,0,1-.735-.735Zm-1.455,0a.735.735,0,1,1,.735.735.736.736,0,0,1-.735-.735Zm-1.455,0a.735.735,0,1,1,.735.735.724.724,0,0,1-.72-.735h0Zm68.523-1.455a.735.735,0,1,1,.735.735.736.736,0,0,1-.735-.735Zm-1.455,0a.735.735,0,1,1,.735.735.736.736,0,0,1-.735-.735Zm-2.911,0a.735.735,0,1,1,.735.735.736.736,0,0,1-.735-.735Zm-2.926,0a.735.735,0,1,1,.735.735.736.736,0,0,1-.735-.735Zm-2.911,0a.735.735,0,1,1,.735.735.736.736,0,0,1-.735-.735Zm-1.455,0a.735.735,0,1,1,.735.735.736.736,0,0,1-.735-.735Zm-2.926,0a.735.735,0,1,1,.735.735.736.736,0,0,1-.735-.735Zm-2.911,0a.735.735,0,1,1,.735.735.736.736,0,0,1-.735-.735Zm-1.455,0a.735.735,0,1,1,.735.735.736.736,0,0,1-.735-.735Zm-2.926,0a.735.735,0,1,1,.735.735.736.736,0,0,1-.735-.735Zm-1.455,0a.735.735,0,1,1,.735.735.724.724,0,0,1-.72-.735h0Zm-7.292,0a.735.735,0,1,1,.735.735.736.736,0,0,1-.735-.735Zm-2.911,0a.735.735,0,1,1,.735.735.736.736,0,0,1-.735-.735Zm-2.911,0a.735.735,0,1,1,.735.735.736.736,0,0,1-.735-.735Zm-1.455,0a.735.735,0,1,1,.735.735.736.736,0,0,1-.735-.735Zm-2.926,0a.735.735,0,1,1,.735.735.736.736,0,0,1-.735-.735Zm-2.911,0a.735.735,0,1,1,.735.735.736.736,0,0,1-.735-.735Zm-5.837,0a.735.735,0,1,1,.735.735.736.736,0,0,1-.735-.735Zm-1.455,0a.735.735,0,1,1,.735.735.736.736,0,0,1-.735-.735Zm-5.837,0a.735.735,0,1,1,.735.735.736.736,0,0,1-.735-.735Zm-2.911,0a.735.735,0,1,1,.735.735.736.736,0,0,1-.735-.735Zm-2.911,0a.735.735,0,1,1,.735.735.736.736,0,0,1-.735-.735Zm-1.47,0a.735.735,0,1,1,.735.735.736.736,0,0,1-.735-.735Zm-1.455,0a.735.735,0,1,1,.735.735.736.736,0,0,1-.735-.735Zm-1.455,0a.735.735,0,1,1,.735.735.736.736,0,0,1-.735-.735Zm68.523-1.47a.735.735,0,1,1,.735.735.736.736,0,0,1-.735-.735Zm-2.911,0a.735.735,0,1,1,.735.735.736.736,0,0,1-.735-.735Zm-1.455,0a.735.735,0,1,1,.735.735.736.736,0,0,1-.735-.735Zm-1.455,0a.735.735,0,1,1,.735.735.736.736,0,0,1-.735-.735Zm-5.837,0a.735.735,0,1,1,.735.735.736.736,0,0,1-.735-.735Zm-1.455,0a.735.735,0,1,1,.735.735.736.736,0,0,1-.735-.735Zm-1.47,0a.728.728,0,1,1,0,.015h0Zm-1.455,0a.735.735,0,1,1,.735.735.736.736,0,0,1-.735-.735Zm-2.911,0a.735.735,0,1,1,.735.735.736.736,0,0,1-.735-.735Zm-1.455,0a.735.735,0,1,1,.735.735.736.736,0,0,1-.735-.735Zm-2.926,0a.735.735,0,1,1,.735.735.736.736,0,0,1-.735-.735Zm-2.911,0a.735.735,0,1,1,.735.735.736.736,0,0,1-.735-.735Zm-2.911,0a.735.735,0,1,1,.735.735.736.736,0,0,1-.735-.735Zm-2.926,0a.735.735,0,1,1,.735.735.736.736,0,0,1-.735-.735Zm-5.822,0a.735.735,0,1,1,.735.735.736.736,0,0,1-.735-.735Zm-1.455,0a.735.735,0,1,1,.735.735.736.736,0,0,1-.735-.735Zm-1.47,0a.735.735,0,1,1,.735.735.736.736,0,0,1-.735-.735Zm-1.455,0a.735.735,0,1,1,.735.735.736.736,0,0,1-.735-.735Zm-1.455,0a.735.735,0,1,1,.735.735.736.736,0,0,1-.735-.735Zm-2.911,0a.735.735,0,1,1,.735.735.736.736,0,0,1-.735-.735Zm-2.926,0a.735.735,0,1,1,.735.735.736.736,0,0,1-.735-.735Zm-4.366,0a.735.735,0,1,1,.735.735.736.736,0,0,1-.735-.735Zm-4.381,0a.735.735,0,1,1,.735.735.736.736,0,0,1-.735-.735Zm-5.822,0a.735.735,0,1,1,.735.735.736.736,0,0,1-.735-.735Zm-1.47,0a.735.735,0,1,1,.735.735.736.736,0,0,1-.735-.735Zm59.791-1.455a.735.735,0,1,1,.735.735A.736.736,0,0,1,244.414,545.812Zm-1.47,0a.735.735,0,1,1,.735.735A.736.736,0,0,1,242.943,545.812Zm-1.455,0a.735.735,0,1,1,.735.735A.736.736,0,0,1,241.488,545.812Zm-1.455,0a.735.735,0,1,1,.735.735A.736.736,0,0,1,240.033,545.812Zm-1.455,0a.735.735,0,1,1,.735.735A.736.736,0,0,1,238.577,545.812Zm-2.926,0a.728.728,0,1,1,0,.015h0Zm-1.455,0a.735.735,0,1,1,.735.735A.736.736,0,0,1,234.2,545.812Zm-1.455,0a.735.735,0,1,1,.735.735A.736.736,0,0,1,232.741,545.812Zm-4.366,0a.735.735,0,1,1,.735.735A.736.736,0,0,1,228.375,545.812Zm-2.926,0a.735.735,0,1,1,.735.735.724.724,0,0,1-.72-.735h0Zm-1.455,0a.735.735,0,1,1,.735.735A.736.736,0,0,1,223.993,545.812Zm-1.455,0a.735.735,0,1,1,.735.735A.736.736,0,0,1,222.538,545.812Zm-4.381,0a.735.735,0,1,1,.735.735A.736.736,0,0,1,218.157,545.812Zm-1.455,0a.735.735,0,1,1,.735.735A.736.736,0,0,1,216.7,545.812Zm-1.455,0a.735.735,0,1,1,.735.735A.736.736,0,0,1,215.246,545.812Zm-1.455,0a.735.735,0,1,1,.735.735A.736.736,0,0,1,213.791,545.812Zm-1.455,0a.735.735,0,1,1,.735.735A.736.736,0,0,1,212.335,545.812Zm-5.837,0a.735.735,0,1,1,.735.735A.736.736,0,0,1,206.5,545.812Zm-2.911,0a.735.735,0,1,1,.735.735A.736.736,0,0,1,203.588,545.812Zm-2.926,0a.735.735,0,1,1,.735.735A.736.736,0,0,1,200.662,545.812Zm-1.455,0a.735.735,0,1,1,.735.735A.736.736,0,0,1,199.207,545.812Zm-1.455,0a.735.735,0,1,1,.735.735A.736.736,0,0,1,197.752,545.812Zm-1.455,0a.735.735,0,1,1,.735.735.736.736,0,0,1-.735-.735Zm-2.926,0a.735.735,0,1,1,.735.735A.736.736,0,0,1,193.37,545.812Zm-1.455,0a.735.735,0,1,1,.735.735A.736.736,0,0,1,191.915,545.812Zm-1.455,0a.735.735,0,1,1,.735.735.724.724,0,0,1-.735-.72h0Zm-1.455,0a.735.735,0,1,1,.735.735A.736.736,0,0,1,189,545.812Zm-1.455,0a.735.735,0,1,1,.735.735A.736.736,0,0,1,187.549,545.812Zm-1.455,0a.735.735,0,1,1,.735.735.736.736,0,0,1-.735-.735Zm-1.47,0a.735.735,0,1,1,.735.735A.736.736,0,0,1,184.623,545.812Zm-2.911,0a.735.735,0,1,1,.735.735A.736.736,0,0,1,181.712,545.812Zm-1.455,0a.735.735,0,1,1,.735.735A.736.736,0,0,1,180.257,545.812Zm61.231-1.455a.728.728,0,1,1,0,.015h0Zm-2.911,0a.728.728,0,1,1,0,.015h0Zm-2.911,0a.735.735,0,1,1,.735.735.724.724,0,0,1-.735-.72h0Zm-5.837,0a.728.728,0,1,1,0,.015h0Zm-1.455,0a.728.728,0,1,1,0,.015h0Zm-1.455,0a.728.728,0,1,1,0,.015h0Zm-2.926,0a.728.728,0,1,1,0,.015h0Zm-2.911,0a.728.728,0,1,1,0,.015h0Zm-1.455,0a.728.728,0,1,1,0,.015h0Zm-1.455,0a.728.728,0,1,1,0,.015h0Zm-1.47,0a.728.728,0,1,1,0,.015h0Zm-1.455,0a.728.728,0,1,1,0,.015h0Zm-1.455,0a.728.728,0,1,1,0,.015h0Zm-1.455,0a.728.728,0,1,1,0,.015h0Zm-1.455,0a.728.728,0,1,1,0,.015h0Zm-2.926,0a.728.728,0,1,1,0,.015h0Zm-4.366,0a.728.728,0,1,1,0,.015h0Zm-5.837,0a.728.728,0,1,1,0,.015h0Zm-4.366,0a.728.728,0,1,1,0,.015h0Zm-1.47,0a.728.728,0,1,1,0,.015h0Zm-5.822,0a.728.728,0,1,1,0,.015h0Zm-4.381,0a.728.728,0,1,1,0,.015h0Zm65.612-1.455a.728.728,0,1,1,0,.015h0Zm-1.455,0a.728.728,0,1,1,0,.015h0Zm-10.2,0a.735.735,0,1,1,.735.735.724.724,0,0,1-.735-.72h0Zm-1.47,0a.728.728,0,1,1,0,.015h0Zm-1.455,0a.728.728,0,1,1,0,.015h0Zm-2.911,0a.728.728,0,1,1,0,.015h0Zm-1.455,0a.728.728,0,1,1,0,.015h0Zm-4.381,0a.728.728,0,1,1,0,.015h0Zm-1.455,0a.728.728,0,1,1,0,.015h0Zm-1.455,0a.728.728,0,1,1,0,.015h0Zm-5.837,0a.728.728,0,1,1,0,.015h0Zm-2.911,0a.728.728,0,1,1,0,.015h0Zm-2.926,0a.728.728,0,1,1,0,.015h0Zm-1.455,0a.728.728,0,1,1,0,.015h0Zm-2.911,0a.728.728,0,1,1,0,.015h0Zm-1.455,0a.728.728,0,1,1,0,.015h0Zm-2.926,0a.728.728,0,1,1,0,.015h0Zm-2.911,0a.728.728,0,1,1,0,.015h0Zm-2.911,0a.728.728,0,1,1,0,.015h0Zm-1.455,0a.728.728,0,1,1,0,.015h0Zm-2.926,0a.735.735,0,1,1,.735.735.724.724,0,0,1-.735-.72h0Zm-1.455,0a.728.728,0,1,1,0,.015h0Zm-2.911,0a.728.728,0,1,1,0,.015h0Zm-4.381,0a.728.728,0,1,1,0,.015h0Zm-1.455,0a.728.728,0,1,1,0,.015h0Zm69.978-1.47a.728.728,0,1,1,0,.015h0Zm-2.911,0a.728.728,0,1,1,0,.015h0Zm-11.658,0a.735.735,0,1,1,.735.735.724.724,0,0,1-.735-.72h0Zm-4.381,0a.728.728,0,1,1,0,.015h0Zm-1.455,0a.728.728,0,1,1,0,.015h0Zm-1.455,0a.728.728,0,1,1,0,.015h0Zm-5.837,0a.728.728,0,1,1,0,.015h0Zm-1.455,0a.728.728,0,1,1,0,.015h0Zm-2.911,0a.728.728,0,1,1,0,.015h0Zm-1.47,0a.728.728,0,1,1,0,.015h0Zm-2.911,0a.728.728,0,1,1,0,.015h0Zm-1.455,0a.728.728,0,1,1,0,.015h0Zm-1.455,0a.728.728,0,1,1,0,.015h0Zm-1.47,0a.728.728,0,1,1,0,.015h0Zm-1.455,0a.728.728,0,1,1,0,.015h0Zm-1.455,0a.728.728,0,1,1,0,.015h0Zm-1.455,0a.728.728,0,1,1,0,.015h0Zm-1.455,0a.728.728,0,1,1,0,.015h0Zm-4.381,0a.728.728,0,1,1,0,.015h0Zm-2.911,0a.728.728,0,1,1,0,.015h0Zm-1.455,0a.728.728,0,1,1,0,.015h0Zm-1.455,0a.728.728,0,1,1,0,.015h0Zm-1.47,0a.728.728,0,1,1,0,.015h0Zm-5.822,0a.728.728,0,1,1,0,.015h0Zm-1.455,0a.728.728,0,1,1,0,.015h0Zm65.6-1.455a.728.728,0,1,1,0,.015h0Zm-2.911,0a.728.728,0,1,1,0,.015h0Zm-4.366,0a.728.728,0,1,1,0,.015h0Zm-1.47,0a.728.728,0,1,1,0,.015h0Zm-1.455,0a.728.728,0,1,1,0,.015h0Zm-2.911,0a.728.728,0,1,1,0,.015h0Zm-2.926,0a.728.728,0,1,1,0,.015h0Zm-4.366,0a.728.728,0,1,1,.72.735.736.736,0,0,1-.735-.735h0Zm-1.455,0a.728.728,0,1,1,0,.015h0Zm-2.926,0a.735.735,0,1,1,.735.735.72.72,0,0,1-.72-.72h0Zm-1.455,0a.728.728,0,1,1,0,.015h0Zm-1.455,0a.728.728,0,1,1,0,.015h0Zm-4.366,0a.728.728,0,1,1,0,.015h0Zm-4.381,0a.728.728,0,1,1,0,.015h0Zm-1.455,0a.728.728,0,1,1,0,.015h0Zm-1.455,0a.728.728,0,1,1,0,.015h0Zm-1.47,0a.728.728,0,1,1,0,.015h0Zm-1.455,0a.728.728,0,1,1,0,.015h0Zm-1.455,0a.728.728,0,1,1,0,.015h0Zm-1.455,0a.728.728,0,1,1,0,.015h0Zm-1.455,0a.728.728,0,1,1,0,.015h0Zm-2.926,0a.728.728,0,1,1,0,.015h0Zm-2.911,0a.728.728,0,1,1,0,.015h0Zm-1.455,0a.728.728,0,1,1,0,.015h0Zm-1.455,0a.728.728,0,1,1,0,.015h0Zm-4.381,0a.735.735,0,1,1,.735.735.724.724,0,0,1-.735-.72h0Zm-1.455,0a.728.728,0,1,1,0,.015h0Zm-1.455,0a.728.728,0,1,1,0,.015h0Zm-1.455,0a.728.728,0,1,1,0,.015h0Zm-1.455,0a.728.728,0,1,1,.72.735.736.736,0,0,1-.735-.735h0Zm-4.381,0a.728.728,0,1,1,0,.015h0Zm69.978-1.455a.728.728,0,1,1,0,.015h0Zm-5.822,0a.728.728,0,1,1,0,.015h0Zm-2.926,0a.728.728,0,1,1,0,.015h0Zm-8.747,0a.728.728,0,1,1,0,.015h0Zm-4.366,0a.728.728,0,1,1,0,.015h0Zm-1.455,0a.728.728,0,1,1,0,.015h0Zm-1.47,0a.735.735,0,1,1,.735.735.72.72,0,0,1-.72-.72h0Zm-4.366,0a.728.728,0,1,1,0,.015h0Zm-1.455,0a.728.728,0,1,1,0,.015h0Zm-1.455,0a.728.728,0,1,1,0,.015h0Zm-1.47,0a.728.728,0,1,1,0,.015h0Zm-1.455,0a.728.728,0,1,1,0,.015h0Zm-1.455,0a.728.728,0,1,1,0,.015h0Zm-2.911,0a.728.728,0,1,1,0,.015h0Zm-1.47,0a.728.728,0,1,1,0,.015h0Zm-2.911,0a.728.728,0,1,1,0,.015h0Zm-1.455,0a.728.728,0,1,1,0,.015h0Zm-1.455,0a.728.728,0,1,1,0,.015h0Zm-2.926,0a.728.728,0,1,1,0,.015h0Zm-4.366,0a.728.728,0,1,1,0,.015h0Zm-4.381,0a.728.728,0,1,1,0,.015h0Zm-8.747,0a.728.728,0,1,1,0,.015h0Zm-1.455,0a.728.728,0,1,1,0,.015h0Zm67.067-1.455a.728.728,0,1,1,0,.015h0Zm-1.455,0a.728.728,0,1,1,0,.015h0Zm-2.911,0a.728.728,0,1,1,0,.015h0Zm-5.837,0a.728.728,0,1,1,0,.015h0Zm-2.911,0a.735.735,0,1,1,.735.735.724.724,0,0,1-.735-.72h0Zm-2.926,0a.728.728,0,1,1,0,.015h0Zm-2.911,0a.728.728,0,1,1,0,.015h0Zm-2.911,0a.728.728,0,1,1,0,.015h0Zm-4.381,0a.728.728,0,1,1,0,.015h0Zm-2.911,0a.728.728,0,1,1,0,.015h0Zm-2.926,0a.728.728,0,1,1,0,.015h0Zm-7.292,0a.728.728,0,1,1,0,.015h0Zm-5.822,0a.728.728,0,1,1,0,.015h0Zm-1.455,0a.728.728,0,1,1,0,.015h0Zm-1.47,0a.728.728,0,1,1,0,.015h0Zm-2.911,0a.728.728,0,1,1,0,.015h0Zm-1.455,0a.728.728,0,1,1,0,.015h0Zm-1.455,0a.728.728,0,1,1,0,.015h0Zm-2.926,0a.728.728,0,1,1,0,.015h0Zm-2.911,0a.728.728,0,1,1,0,.015h0Zm-8.747,0a.728.728,0,1,1,0,.015h0Zm69.978-1.455a.735.735,0,1,1,.735.735A.736.736,0,0,1,250.235,535.61Zm-1.455,0a.735.735,0,1,1,.735.735A.736.736,0,0,1,248.78,535.61Zm-1.455,0a.735.735,0,1,1,.735.735A.736.736,0,0,1,247.324,535.61Zm-1.455,0a.735.735,0,1,1,.735.735A.736.736,0,0,1,245.869,535.61Zm-2.926,0a.735.735,0,1,1,.735.735A.736.736,0,0,1,242.943,535.61Zm-2.911,0a.735.735,0,1,1,.735.735A.736.736,0,0,1,240.033,535.61Zm-1.455,0a.735.735,0,1,1,.735.735A.736.736,0,0,1,238.577,535.61Zm-5.837,0a.735.735,0,1,1,.735.735A.736.736,0,0,1,232.741,535.61Zm-1.455,0a.735.735,0,1,1,.735.735A.736.736,0,0,1,231.285,535.61Zm-7.292,0a.735.735,0,1,1,.735.735A.736.736,0,0,1,223.993,535.61Zm-1.455,0a.735.735,0,1,1,.735.735A.736.736,0,0,1,222.538,535.61Zm-1.455,0a.735.735,0,1,1,.735.735A.736.736,0,0,1,221.083,535.61Zm-5.837,0a.735.735,0,1,1,.735.735A.736.736,0,0,1,215.246,535.61Zm-2.911,0a.735.735,0,1,1,.735.735A.736.736,0,0,1,212.335,535.61Zm-4.381,0a.735.735,0,1,1,.735.735A.736.736,0,0,1,207.954,535.61Zm-2.911,0a.735.735,0,1,1,.735.735A.736.736,0,0,1,205.043,535.61Zm-2.926,0a.735.735,0,1,1,.735.735A.736.736,0,0,1,202.118,535.61Zm-1.455,0a.735.735,0,1,1,.735.735A.736.736,0,0,1,200.662,535.61Zm-2.911,0a.735.735,0,1,1,.735.735A.736.736,0,0,1,197.752,535.61Zm-1.455,0a.735.735,0,1,1,.735.735.736.736,0,0,1-.735-.735Zm-2.926,0a.735.735,0,1,1,.735.735A.736.736,0,0,1,193.37,535.61Zm-1.455,0a.735.735,0,1,1,.735.735A.736.736,0,0,1,191.915,535.61Zm-1.455,0a.735.735,0,1,1,.735.735.724.724,0,0,1-.735-.72h0Zm-5.837,0a.735.735,0,1,1,.735.735A.736.736,0,0,1,184.623,535.61Zm-1.455,0a.735.735,0,1,1,.735.735A.736.736,0,0,1,183.168,535.61Zm-1.455,0a.735.735,0,1,1,.735.735A.736.736,0,0,1,181.712,535.61Zm-1.455,0a.735.735,0,1,1,.735.735A.736.736,0,0,1,180.257,535.61Zm69.978-1.455a.728.728,0,1,1,0,.015h0Zm-1.455,0a.728.728,0,1,1,0,.015h0Zm-8.747,0a.728.728,0,1,1,0,.015h0Zm-1.455,0a.728.728,0,1,1,0,.015h0Zm-4.381,0a.728.728,0,1,1,0,.015h0Zm-5.822,0a.728.728,0,1,1,0,.015h0Zm-1.455,0a.728.728,0,1,1,0,.015h0Zm-2.926,0a.728.728,0,1,1,0,.015h0Zm-2.911,0a.728.728,0,1,1,0,.015h0Zm-2.911,0a.728.728,0,1,1,0,.015h0Zm-2.926,0a.728.728,0,1,1,0,.015h0Zm-2.911,0a.728.728,0,1,1,0,.015h0Zm-4.381,0a.728.728,0,1,1,0,.015h0Zm-1.455,0a.728.728,0,1,1,0,.015h0Zm-2.911,0a.728.728,0,1,1,0,.015h0Zm-1.455,0a.728.728,0,1,1,0,.015h0Zm-2.926,0a.728.728,0,1,1,0,.015h0Zm-5.822,0a.728.728,0,1,1,0,.015h0Zm-2.926,0a.735.735,0,1,1,.735.735.724.724,0,0,1-.735-.72h0Zm-1.455,0a.728.728,0,1,1,0,.015h0Zm-1.455,0a.728.728,0,1,1,0,.015h0Zm-1.455,0a.728.728,0,1,1,0,.015h0Zm-2.926,0a.728.728,0,1,1,0,.015h0Zm67.067-1.455a.728.728,0,1,1,0,.015h0Zm-1.455,0a.728.728,0,1,1,0,.015h0Zm-5.822,0a.728.728,0,1,1,0,.015h0Zm-7.292,0a.735.735,0,1,1,.735.735.724.724,0,0,1-.735-.72h0Zm-1.47,0a.728.728,0,1,1,0,.015h0Zm-1.455,0a.728.728,0,1,1,0,.015h0Zm-2.911,0a.728.728,0,1,1,.735.72h0a.736.736,0,0,1-.735-.735h0Zm-2.911,0a.728.728,0,1,1,0,.015h0Zm-1.47,0a.735.735,0,1,1,.735.735.714.714,0,0,1-.72-.735h0Zm-4.366,0a.728.728,0,1,1,0,.015h0Zm-4.381,0a.728.728,0,1,1,0,.015h0Zm-7.292,0a.728.728,0,1,1,0,.015h0Zm-2.911,0a.728.728,0,1,1,0,.015h0Zm-7.292,0a.728.728,0,1,1,0,.015h0Zm-1.455,0a.728.728,0,1,1,0,.015h0Zm-2.911,0a.728.728,0,1,1,0,.015h0Zm-1.455,0a.728.728,0,1,1,0,.015h0Zm-1.47,0a.728.728,0,1,1,0,.015h0Zm-1.455,0a.735.735,0,1,1,.735.735.724.724,0,0,1-.735-.72h0Zm-2.911,0a.728.728,0,1,1,0,.015h0Zm-2.911,0a.728.728,0,1,1,0,.015h0Zm-1.47,0a.728.728,0,1,1,0,.015h0Zm-1.455,0a.728.728,0,1,1,0,.015h0Zm-1.455,0a.735.735,0,1,1,.735.735.736.736,0,0,1-.735-.735Zm68.523-1.455a.728.728,0,1,1,0,.015h0Zm-5.822,0a.728.728,0,1,1,0,.015h0Zm-1.47,0a.728.728,0,1,1,0,.015h0Zm-5.822,0a.735.735,0,1,1,.735.735.724.724,0,0,1-.735-.72h0Zm-1.47,0a.728.728,0,1,1,0,.015h0Zm-1.455,0a.728.728,0,1,1,0,.015h0Zm-1.455,0a.728.728,0,1,1,0,.015h0Zm-1.455,0a.728.728,0,1,1,0,.015h0Zm-2.911,0a.728.728,0,1,1,0,.015h0Zm-1.47,0a.735.735,0,1,1,.735.735.714.714,0,0,1-.72-.735h0Zm-1.455,0a.728.728,0,1,1,0,.015h0Zm-1.455,0a.728.728,0,1,1,0,.015h0Zm-1.455,0a.728.728,0,1,1,0,.015h0Zm-1.455,0a.728.728,0,1,1,0,.015h0Zm-4.381,0a.728.728,0,1,1,0,.015h0Zm-2.911,0a.728.728,0,1,1,0,.015h0Zm-2.926,0a.728.728,0,1,1,0,.015h0Zm-1.455,0a.728.728,0,1,1,0,.015h0Zm-5.822,0a.728.728,0,1,1,0,.015h0Zm-4.381,0a.728.728,0,1,1,0,.015h0Zm-4.366,0a.728.728,0,1,1,0,.015h0Zm-1.47,0a.728.728,0,1,1,0,.015h0Zm-1.455,0a.735.735,0,1,1,.735.735.724.724,0,0,1-.735-.72h0Zm-1.455,0a.728.728,0,1,1,0,.015h0Zm-1.455,0a.728.728,0,1,1,0,.015h0Zm-1.455,0a.728.728,0,1,1,0,.015h0Zm-4.381,0a.728.728,0,1,1,0,.015h0Zm64.157-1.47a.728.728,0,1,1,0,.015h0Zm-2.911,0a.728.728,0,1,1,0,.015h0Zm-1.47,0a.728.728,0,1,1,0,.015h0Zm-2.911,0a.728.728,0,1,1,0,.015h0Zm-1.455,0a.728.728,0,1,1,0,.015h0Zm-2.926,0a.728.728,0,1,1,0,.015h0Zm-5.822,0a.728.728,0,1,1,0,.015h0Zm-5.837,0a.728.728,0,1,1,0,.015h0Zm-1.455,0a.728.728,0,1,1,0,.015h0Zm-2.911,0a.728.728,0,1,1,0,.015h0Zm-1.47,0a.728.728,0,1,1,0,.015h0Zm-2.911,0a.728.728,0,1,1,0,.015h0Zm-4.381,0a.728.728,0,1,1,0,.015h0Zm-1.455,0a.728.728,0,1,1,0,.015h0Zm-4.366,0a.728.728,0,1,1,0,.015h0Zm-1.455,0a.728.728,0,1,1,0,.015h0Zm-1.47,0a.728.728,0,1,1,0,.015h0Zm-1.455,0a.728.728,0,1,1,0,.015h0Zm-4.366,0a.728.728,0,1,1,0,.015h0Zm-1.455,0a.728.728,0,1,1,0,.015h0Zm-10.218,0a.728.728,0,1,1,0,.015h0Zm-1.455,0a.728.728,0,1,1,0,.015h0Zm-1.455,0a.735.735,0,1,1,.735.735.736.736,0,0,1-.735-.735Zm69.978-1.455a.728.728,0,1,1,0,.015h0Zm-1.455,0a.728.728,0,1,1,0,.015h0Zm-1.455,0a.728.728,0,1,1,0,.015h0Zm-2.911,0a.728.728,0,1,1,0,.015h0Zm-1.455,0a.728.728,0,1,1,0,.015h0Zm-5.837,0a.728.728,0,1,1,0,.015h0Zm-1.455,0a.735.735,0,1,1,.735.735.724.724,0,0,1-.735-.72h0Zm-5.837,0a.728.728,0,1,1,0,.015h0Zm-1.455,0a.728.728,0,1,1,0,.015h0Zm-1.455,0a.728.728,0,1,1,0,.015h0Zm-1.47,0a.735.735,0,1,1,.735.735.714.714,0,0,1-.72-.735h0Zm-2.911,0a.728.728,0,1,1,0,.015h0Zm-2.911,0a.728.728,0,1,1,0,.015h0Zm-2.926,0a.728.728,0,1,1,0,.015h0Zm-1.455,0a.728.728,0,1,1,0,.015h0Zm-1.455,0a.728.728,0,1,1,0,.015h0Zm-1.455,0a.728.728,0,1,1,0,.015h0Zm-2.926,0a.728.728,0,1,1,0,.015h0Zm-1.455,0a.728.728,0,1,1,0,.015h0Zm-2.911,0a.728.728,0,1,1,0,.015h0Zm-5.837,0a.728.728,0,1,1,0,.015h0Zm-1.455,0a.728.728,0,1,1,0,.015h0Zm-1.455,0a.728.728,0,1,1,0,.015h0Zm-2.911,0a.728.728,0,1,1,0,.015h0Zm-1.47,0a.728.728,0,1,1,0,.015h0Zm-2.911,0a.728.728,0,1,1,0,.015h0Zm-1.455,0a.728.728,0,1,1,0,.015h0Zm-2.911,0a.728.728,0,1,1,0,.015h0Zm-2.926,0a.728.728,0,1,1,0,.015h0Zm-1.455,0a.735.735,0,1,1,.735.735.736.736,0,0,1-.735-.735Zm68.523-1.455a.728.728,0,1,1,0,.015h0Zm-4.366,0a.728.728,0,1,1,0,.015h0Zm-1.455,0a.728.728,0,1,1,0,.015h0Zm-1.47,0a.728.728,0,1,1,0,.015h0Zm-1.455,0a.728.728,0,1,1,0,.015h0Zm-1.455,0a.728.728,0,1,1,0,.015h0Zm-4.381,0a.728.728,0,1,1,0,.015h0Zm-1.455,0a.728.728,0,1,1,0,.015h0Zm-1.455,0a.728.728,0,1,1,0,.015h0Zm-1.455,0a.728.728,0,1,1,0,.015h0Zm-1.455,0a.728.728,0,1,1,0,.015h0Zm-2.926,0a.735.735,0,1,1,.735.735.714.714,0,0,1-.72-.735h0Zm-4.366,0a.728.728,0,1,1,0,.015h0Zm-1.455,0a.728.728,0,1,1,0,.015h0Zm-1.455,0a.728.728,0,1,1,0,.015h0Zm-1.47,0a.728.728,0,1,1,0,.015h0Zm-1.455,0a.728.728,0,1,1,0,.015h0Zm-1.455,0a.728.728,0,1,1,0,.015h0Zm-1.455,0a.728.728,0,1,1,0,.015h0Zm-1.455,0a.728.728,0,1,1,0,.015h0Zm-2.926,0a.728.728,0,1,1,0,.015h0Zm-2.911,0a.728.728,0,1,1,0,.015h0Zm-5.837,0a.728.728,0,1,1,0,.015h0Zm-1.455,0a.728.728,0,1,1,0,.015h0Zm-1.455,0a.728.728,0,1,1,0,.015h0Zm-1.455,0a.728.728,0,1,1,0,.015h0Zm-2.926,0a.728.728,0,1,1,0,.015h0Zm-5.822,0a.728.728,0,1,1,0,.015h0Zm-2.926,0a.728.728,0,1,1,0,.015h0Zm-1.455,0a.728.728,0,1,1,0,.015h0Zm-1.455,0a.735.735,0,1,1,.735.735.736.736,0,0,1-.735-.735Zm68.523-1.455a.728.728,0,1,1,0,.015h0Zm-1.455,0a.728.728,0,1,1,0,.015h0Zm-1.455,0a.728.728,0,1,1,0,.015h0Zm-1.455,0a.728.728,0,1,1,0,.015h0Zm-1.47,0a.728.728,0,1,1,0,.015h0Zm-1.455,0a.728.728,0,1,1,0,.015h0Zm-1.455,0a.728.728,0,1,1,0,.015h0Zm-4.366,0a.735.735,0,1,1,.735.735.724.724,0,0,1-.735-.72h0Zm-1.47,0a.728.728,0,1,1,0,.015h0Zm-5.822,0a.728.728,0,1,1,0,.015h0Zm-2.926,0a.735.735,0,1,1,.735.735.714.714,0,0,1-.72-.735h0Zm-2.911,0a.728.728,0,1,1,0,.015h0Zm-1.455,0a.728.728,0,1,1,0,.015h0Zm-1.455,0a.728.728,0,1,1,0,.015h0Zm-1.455,0a.728.728,0,1,1,0,.015h0Zm-1.47,0a.728.728,0,1,1,0,.015h0Zm-1.455,0a.728.728,0,1,1,0,.015h0Zm-1.455,0a.728.728,0,1,1,0,.015h0Zm-1.455,0a.728.728,0,1,1,0,.015h0Zm-5.837,0a.728.728,0,1,1,0,.015h0Zm-2.911,0a.728.728,0,1,1,0,.015h0Zm-4.381,0a.728.728,0,1,1,0,.015h0Zm-1.455,0a.728.728,0,1,1,0,.015h0Zm-1.455,0a.728.728,0,1,1,0,.015h0Zm-2.911,0a.728.728,0,1,1,0,.015h0Zm-4.381,0a.728.728,0,1,1,0,.015h0Zm-1.455,0a.728.728,0,1,1,0,.015h0Zm-1.455,0a.728.728,0,1,1,0,.015h0Zm-5.837,0a.735.735,0,1,1,.735.735.736.736,0,0,1-.735-.735Zm56.865-1.47a.735.735,0,1,1,.735.735A.736.736,0,0,1,237.122,523.937Zm-1.47,0a.728.728,0,1,1,0,.015h0Zm-2.911,0a.735.735,0,1,1,.735.735A.736.736,0,0,1,232.741,523.937Zm-2.911,0a.735.735,0,1,1,.735.735A.736.736,0,0,1,229.83,523.937Zm-1.455,0a.735.735,0,1,1,.735.735A.736.736,0,0,1,228.375,523.937Zm-2.926,0a.735.735,0,1,1,.735.735.724.724,0,0,1-.72-.735h0Zm-1.455,0a.735.735,0,1,1,.735.735A.736.736,0,0,1,223.993,523.937Zm-2.911,0a.735.735,0,1,1,.735.735A.736.736,0,0,1,221.083,523.937Zm-2.926,0a.735.735,0,1,1,.735.735A.736.736,0,0,1,218.157,523.937Zm-5.822,0a.735.735,0,1,1,.735.735A.736.736,0,0,1,212.335,523.937Zm-1.455,0a.735.735,0,1,1,.735.735A.736.736,0,0,1,210.88,523.937Zm-1.47,0a.735.735,0,1,1,.735.735.736.736,0,0,1-.735-.735Zm-5.822,0a.735.735,0,1,1,.735.735A.736.736,0,0,1,203.588,523.937Zm-2.926,0a.735.735,0,1,1,.735.735A.736.736,0,0,1,200.662,523.937Zm-4.366,0a.735.735,0,1,1,.735.735A.736.736,0,0,1,196.3,523.937Zm-1.455,0a.735.735,0,1,1,.735.735A.736.736,0,0,1,194.841,523.937Zm-2.926,0a.735.735,0,1,1,.735.735A.736.736,0,0,1,191.915,523.937Zm46.662-1.455a.735.735,0,1,1,.735.735A.736.736,0,0,1,238.577,522.481Zm-2.926,0a.728.728,0,1,1,0,.015h0Zm-2.911,0a.735.735,0,1,1,.735.735A.736.736,0,0,1,232.741,522.481Zm-2.911,0a.728.728,0,1,1,.735.72h0A.733.733,0,0,1,229.83,522.481Zm-2.926,0a.735.735,0,1,1,.735.735A.736.736,0,0,1,226.9,522.481Zm-2.911,0a.735.735,0,1,1,.735.735A.736.736,0,0,1,223.993,522.481Zm-2.911,0a.735.735,0,1,1,.735.735A.736.736,0,0,1,221.083,522.481Zm-2.926,0a.735.735,0,1,1,.735.735A.736.736,0,0,1,218.157,522.481Zm-2.911,0a.735.735,0,1,1,.735.735A.736.736,0,0,1,215.246,522.481Zm-2.911,0a.735.735,0,1,1,.735.735A.736.736,0,0,1,212.335,522.481Zm-2.926,0a.735.735,0,1,1,.735.735.736.736,0,0,1-.735-.735Zm-2.911,0a.735.735,0,1,1,.735.735A.736.736,0,0,1,206.5,522.481Zm-2.911,0a.735.735,0,1,1,.735.735A.736.736,0,0,1,203.588,522.481Zm-2.926,0a.735.735,0,1,1,.735.735A.736.736,0,0,1,200.662,522.481Zm-2.911,0a.735.735,0,1,1,.735.735A.736.736,0,0,1,197.752,522.481Zm-2.911,0a.735.735,0,1,1,.735.735A.736.736,0,0,1,194.841,522.481Zm-2.926,0a.735.735,0,1,1,.735.735A.736.736,0,0,1,191.915,522.481Zm43.736-1.455a.735.735,0,1,1,.735.735A.736.736,0,0,1,235.651,521.026Zm-2.911,0a.735.735,0,1,1,.735.735.724.724,0,0,1-.72-.735h0Zm-4.381,0a.735.735,0,1,1,.735.735.724.724,0,0,1-.72-.735h0Zm-4.366,0a.735.735,0,1,1,.735.735.724.724,0,0,1-.72-.735h0Zm-5.837,0a.735.735,0,1,1,.735.735.724.724,0,0,1-.72-.735h0Zm-5.822,0a.735.735,0,1,1,.735.735.724.724,0,0,1-.72-.735h0Zm-1.47,0a.735.735,0,1,1,.735.735.724.724,0,0,1-.72-.735h0Zm-2.911,0a.735.735,0,1,1,.735.735.724.724,0,0,1-.72-.735h0Zm-1.455,0a.735.735,0,1,1,.735.735.724.724,0,0,1-.72-.735h0Zm-7.292,0a.735.735,0,1,1,.735.735.724.724,0,0,1-.72-.735h0Zm-4.381,0a.735.735,0,1,1,.735.735.724.724,0,0,1-.72-.735h0Zm-1.455,0a.735.735,0,1,1,.735.735.724.724,0,0,1-.72-.735h0Zm-1.455,0a.735.735,0,1,1,.735.735.724.724,0,0,1-.72-.735h0ZM234.2,519.57a.735.735,0,1,1,.735.735.724.724,0,0,1-.72-.735h0Zm-4.366,0a.735.735,0,1,1,.735.735.724.724,0,0,1-.72-.735h0Zm-1.47,0a.735.735,0,1,1,.735.735.724.724,0,0,1-.72-.735h0Zm-1.455,0a.735.735,0,1,1,.735.735.724.724,0,0,1-.72-.735h0Zm-4.366,0a.735.735,0,1,1,.735.735.724.724,0,0,1-.72-.735h0Zm-4.381,0a.735.735,0,1,1,.735.735.724.724,0,0,1-.72-.735h0Zm-1.455,0a.735.735,0,1,1,.735.735.724.724,0,0,1-.72-.735h0Zm-1.455,0a.735.735,0,1,1,.735.735.724.724,0,0,1-.72-.735h0Zm-1.455,0a.735.735,0,1,1,.735.735.724.724,0,0,1-.72-.735h0Zm-1.455,0a.735.735,0,1,1,.735.735.724.724,0,0,1-.72-.735h0Zm-13.128,0a.735.735,0,1,1,.735.735.724.724,0,0,1-.72-.735h0Zm-2.911,0a.735.735,0,1,1,.735.735.724.724,0,0,1-.72-.735h0Zm-1.47,0a.735.735,0,1,1,.735.735.724.724,0,0,1-.72-.735h0Zm-1.455,0a.735.735,0,1,1,.735.735.724.724,0,0,1-.72-.735h0Zm-1.455,0a.735.735,0,1,1,.735.735.724.724,0,0,1-.72-.735h0Zm45.207-1.455a.735.735,0,1,1,.735.735A.736.736,0,0,1,237.122,518.115Zm-2.926,0a.735.735,0,1,1,.735.735A.736.736,0,0,1,234.2,518.115Zm-2.911,0a.735.735,0,1,1,.735.735A.736.736,0,0,1,231.285,518.115Zm-1.455,0a.735.735,0,0,1,1.47,0,.746.746,0,0,1-.735.735.736.736,0,0,1-.735-.735Zm-4.366,0a.735.735,0,1,1,.735.735A.736.736,0,0,1,225.464,518.115Zm-11.673,0a.735.735,0,1,1,.735.735.724.724,0,0,1-.735-.72h0Zm-1.455,0a.735.735,0,1,1,.735.735.724.724,0,0,1-.735-.72h0Zm-1.455,0a.735.735,0,1,1,.735.735.724.724,0,0,1-.735-.72h0Zm-1.455,0a.735.735,0,1,1,.735.735.724.724,0,0,1-.735-.72h0Zm-1.47,0a.735.735,0,1,1,.735.735A.736.736,0,0,1,207.954,518.115Zm-7.292,0a.735.735,0,1,1,.735.735A.736.736,0,0,1,200.662,518.115Zm-4.366,0a.735.735,0,1,1,.735.735A.736.736,0,0,1,196.3,518.115Zm-2.926,0a.735.735,0,1,1,.735.735A.736.736,0,0,1,193.37,518.115Zm-1.455,0a.735.735,0,1,1,.735.735A.736.736,0,0,1,191.915,518.115Zm46.662-1.455a.735.735,0,1,1,.735.735A.736.736,0,0,1,238.577,516.66Zm-1.455,0a.735.735,0,1,1,.735.735A.736.736,0,0,1,237.122,516.66Zm-4.381,0a.735.735,0,1,1,.735.735A.736.736,0,0,1,232.741,516.66Zm-4.366,0a.735.735,0,1,1,.735.735A.736.736,0,0,1,228.375,516.66Zm-1.47,0a.735.735,0,1,1,.735.735A.736.736,0,0,1,226.9,516.66Zm-1.455,0a.735.735,0,1,1,.735.735.724.724,0,0,1-.72-.735h0Zm-5.822,0a.735.735,0,1,1,.735.735A.736.736,0,0,1,219.627,516.66Zm-4.381,0a.735.735,0,1,1,.735.735A.736.736,0,0,1,215.246,516.66Zm-1.455,0a.735.735,0,1,1,.735.735A.736.736,0,0,1,213.791,516.66Zm-1.455,0a.735.735,0,1,1,.735.735A.736.736,0,0,1,212.335,516.66Zm-1.455,0a.735.735,0,1,1,.735.735A.736.736,0,0,1,210.88,516.66Zm-1.47,0a.735.735,0,1,1,.735.735.736.736,0,0,1-.735-.735Zm-4.366,0a.735.735,0,1,1,.735.735A.736.736,0,0,1,205.043,516.66Zm-4.381,0a.735.735,0,1,1,.735.735A.736.736,0,0,1,200.662,516.66Zm-2.911,0a.735.735,0,1,1,.735.735A.736.736,0,0,1,197.752,516.66Zm-1.455,0a.735.735,0,1,1,.735.735A.736.736,0,0,1,196.3,516.66Zm-4.381,0a.735.735,0,1,1,.735.735A.736.736,0,0,1,191.915,516.66Zm46.662-1.47a.735.735,0,1,1,.735.735A.736.736,0,0,1,238.577,515.189Zm-1.455,0a.735.735,0,1,1,.735.735A.736.736,0,0,1,237.122,515.189Zm-1.47,0a.728.728,0,1,1,0,.015h0Zm-1.455,0a.735.735,0,1,1,.735.735A.736.736,0,0,1,234.2,515.189Zm-2.911,0a.735.735,0,1,1,.735.735A.736.736,0,0,1,231.285,515.189Zm-2.911,0a.735.735,0,1,1,.735.735A.736.736,0,0,1,228.375,515.189Zm-2.926,0a.735.735,0,1,1,.735.735.724.724,0,0,1-.72-.735h0Zm-1.455,0a.735.735,0,1,1,.735.735A.736.736,0,0,1,223.993,515.189Zm-4.366,0a.735.735,0,1,1,.735.735A.736.736,0,0,1,219.627,515.189Zm-1.47,0a.735.735,0,1,1,.735.735A.736.736,0,0,1,218.157,515.189Zm-1.455,0a.735.735,0,1,1,.735.735A.736.736,0,0,1,216.7,515.189Zm-1.455,0a.735.735,0,1,1,.735.735A.736.736,0,0,1,215.246,515.189Zm-4.366,0a.735.735,0,1,1,.735.735A.736.736,0,0,1,210.88,515.189Zm-7.292,0a.735.735,0,1,1,.735.735A.736.736,0,0,1,203.588,515.189Zm-1.47,0a.735.735,0,1,1,.735.735A.736.736,0,0,1,202.118,515.189Zm-2.911,0a.735.735,0,1,1,.735.735A.736.736,0,0,1,199.207,515.189Zm-2.911,0a.735.735,0,1,1,.735.735A.736.736,0,0,1,196.3,515.189Zm-1.455,0a.735.735,0,1,1,.735.735A.736.736,0,0,1,194.841,515.189Zm-2.926,0a.735.735,0,1,1,.735.735A.736.736,0,0,1,191.915,515.189Zm46.662-1.455a.735.735,0,1,1,.735.735A.736.736,0,0,1,238.577,513.734Zm-5.837,0a.735.735,0,1,1,.735.735A.736.736,0,0,1,232.741,513.734Zm-2.911,0a.735.735,0,1,1,.735.735.736.736,0,0,1-.735-.735Zm-8.747,0a.735.735,0,1,1,.735.735A.736.736,0,0,1,221.083,513.734Zm-1.455,0a.735.735,0,1,1,.735.735A.736.736,0,0,1,219.627,513.734Zm-2.926,0a.735.735,0,1,1,.735.735A.736.736,0,0,1,216.7,513.734Zm-4.366,0a.735.735,0,1,1,.735.735A.736.736,0,0,1,212.335,513.734Zm-2.926,0a.735.735,0,1,1,.735.735.736.736,0,0,1-.735-.735Zm-4.366,0a.735.735,0,1,1,.735.735A.736.736,0,0,1,205.043,513.734Zm-1.455,0a.735.735,0,1,1,.735.735A.736.736,0,0,1,203.588,513.734Zm-1.47,0a.735.735,0,1,1,.735.735A.736.736,0,0,1,202.118,513.734Zm-4.366,0a.735.735,0,1,1,.735.735A.736.736,0,0,1,197.752,513.734Zm-1.455,0a.735.735,0,1,1,.735.735A.736.736,0,0,1,196.3,513.734Zm-1.455,0a.735.735,0,1,1,.735.735A.736.736,0,0,1,194.841,513.734Z" fill="none"/>
    </clipPath>
    <clipPath id="clip-path-2">
      <path id="Trazado_1949" data-name="Trazado 1949" d="M185.358,513.014a5.094,5.094,0,1,0,.015,0Zm0,1.455a3.638,3.638,0,1,1-.015,0Z" fill="none"/>
    </clipPath>
    <clipPath id="clip-path-3">
      <circle id="Elipse_12012" data-name="Elipse 12012" cx="2.191" cy="2.191" r="2.191" transform="translate(183.168 515.924)" fill="none"/>
    </clipPath>
    <clipPath id="clip-path-4">
      <path id="Trazado_1950" data-name="Trazado 1950" d="M251.691,518.115a5.094,5.094,0,1,0,0,.015h0Zm-1.455,0a3.638,3.638,0,1,1,0-.015h0Z" fill="none"/>
    </clipPath>
    <clipPath id="clip-path-5">
      <circle id="Elipse_12013" data-name="Elipse 12013" cx="2.191" cy="2.191" r="2.191" transform="translate(244.399 515.924)" fill="none"/>
    </clipPath>
    <clipPath id="clip-path-6">
      <path id="Trazado_1951" data-name="Trazado 1951" d="M180.257,579.346a5.094,5.094,0,1,0,0-.015h0Zm1.455,0a3.654,3.654,0,1,1,0,.015h0Z" fill="none"/>
    </clipPath>
    <clipPath id="clip-path-7">
      <circle id="Elipse_12014" data-name="Elipse 12014" cx="2.191" cy="2.191" r="2.191" transform="translate(183.168 577.156)" fill="none"/>
    </clipPath>
  </defs>
  <g id="_5_QR_Informacion_Inscripcion_Cursos" data-name="5_QR_Informacion Inscripcion Cursos" transform="translate(-175.561 -508.318)">
    <rect id="Rectngulo_1195" data-name="Rectngulo 1195" width="81.006" height="110.006" transform="translate(175.561 508.318)" fill="#fff"/>
    <g id="Grupo_2628" data-name="Grupo 2628" clip-path="url(#clip-path)">
      <g id="Grupo_2409" data-name="Grupo 2409">
        <rect id="Rectngulo_1196" data-name="Rectngulo 1196" width="81.006" height="81.006" transform="translate(175.561 508.318)"/>
      </g>
    </g>
    <g id="Grupo_2629" data-name="Grupo 2629" clip-path="url(#clip-path-2)">
      <g id="Grupo_2410" data-name="Grupo 2410">
        <rect id="Rectngulo_1197" data-name="Rectngulo 1197" width="10.203" height="10.203" transform="translate(180.257 513.014)"/>
      </g>
    </g>
    <g id="Grupo_2630" data-name="Grupo 2630" clip-path="url(#clip-path-3)">
      <g id="Grupo_2411" data-name="Grupo 2411">
        <rect id="Rectngulo_1198" data-name="Rectngulo 1198" width="4.381" height="4.381" transform="translate(183.168 515.924)"/>
      </g>
    </g>
    <g id="Grupo_2631" data-name="Grupo 2631" clip-path="url(#clip-path-4)">
      <g id="Grupo_2412" data-name="Grupo 2412">
        <rect id="Rectngulo_1199" data-name="Rectngulo 1199" width="10.203" height="10.203" transform="translate(241.488 513.014)"/>
      </g>
    </g>
    <g id="Grupo_2632" data-name="Grupo 2632" clip-path="url(#clip-path-5)">
      <g id="Grupo_2413" data-name="Grupo 2413">
        <rect id="Rectngulo_1200" data-name="Rectngulo 1200" width="4.381" height="4.381" transform="translate(244.414 515.924)"/>
      </g>
    </g>
    <g id="Grupo_2633" data-name="Grupo 2633" clip-path="url(#clip-path-6)">
      <g id="Grupo_2414" data-name="Grupo 2414">
        <rect id="Rectngulo_1201" data-name="Rectngulo 1201" width="10.203" height="10.203" transform="translate(180.257 574.245)"/>
      </g>
    </g>
    <g id="Grupo_2634" data-name="Grupo 2634" clip-path="url(#clip-path-7)">
      <g id="Grupo_2415" data-name="Grupo 2415">
        <rect id="Rectngulo_1202" data-name="Rectngulo 1202" width="4.381" height="4.381" transform="translate(183.168 577.156)"/>
      </g>
    </g>
  </g>
</svg>
