<svg xmlns="http://www.w3.org/2000/svg" xmlns:xlink="http://www.w3.org/1999/xlink" width="81.276" height="110.276" viewBox="0 0 81.276 110.276">
  <defs>
    <clipPath id="clip-path">
      <path id="Trazado_1952" data-name="Trazado 1952" d="M777.038,584.492a.9.9,0,1,1,.9.9A.9.9,0,0,1,777.038,584.492Zm-3.571,0a.9.9,0,1,1,.9.9.89.89,0,0,1-.885-.9h0Zm-5.356,0a.9.9,0,1,1,.9.9h0a.89.89,0,0,1-.885-.9h0Zm-1.8,0a.9.9,0,1,1,.9.9.89.89,0,0,1-.885-.9h0Zm-3.571,0a.9.9,0,1,1,.9.9.89.89,0,0,1-.885-.9h0Zm-1.785,0a.9.9,0,1,1,.9.9.89.89,0,0,1-.885-.9h0Zm-5.371,0a.9.9,0,1,1,.9.9h0a.89.89,0,0,1-.885-.9h0Zm-5.356,0a.9.9,0,1,1,.9.9.89.89,0,0,1-.885-.9h0Zm-3.586,0a.9.9,0,1,1,.9.9.89.89,0,0,1-.885-.9h0Zm-1.785,0a.9.9,0,1,1,.9.9.89.89,0,0,1-.885-.9h0Zm-3.571,0a.9.9,0,1,1,.9.9.89.89,0,0,1-.885-.9h0Zm-1.786,0a.9.9,0,1,1,.9.9.89.89,0,0,1-.885-.9h0Zm-1.8,0a.9.9,0,1,1,.9.9.89.89,0,0,1-.885-.9h0Zm-1.785,0a.9.9,0,1,1,.9.9.89.89,0,0,1-.885-.9h0Zm-1.785,0a.9.9,0,1,1,.9.9.89.89,0,0,1-.885-.9h0Zm-8.942,0a.9.9,0,1,1,.9.9.89.89,0,0,1-.885-.9h0Zm-1.785,0a.9.9,0,1,1,.9.9.89.89,0,0,1-.885-.9h0Zm57.225-1.785a.9.9,0,1,1,.9.9.89.89,0,0,1-.885-.9h0Zm-1.785,0a.9.9,0,1,1,.9.9.89.89,0,0,1-.885-.9h0Zm-8.942,0a.9.9,0,1,1,.9.9.89.89,0,0,1-.885-.9h0Zm-1.785,0a.9.9,0,1,1,.9.9.89.89,0,0,1-.885-.9h0Zm-1.8,0a.9.9,0,1,1,.9.9.89.89,0,0,1-.885-.9h0Zm-1.785,0a.9.9,0,1,1,.9.9.89.89,0,0,1-.885-.9h0Zm-1.785,0a.9.9,0,1,1,.9.9.89.89,0,0,1-.885-.9h0Zm-1.785,0a.9.9,0,1,1,.9.9.89.89,0,0,1-.885-.9h0Zm-1.785,0a.9.9,0,1,1,.9.9.89.89,0,0,1-.885-.9h0Zm-1.8,0a.9.9,0,1,1,.9.9h0a.89.89,0,0,1-.885-.9h0Zm-1.785,0a.9.9,0,1,1,.9.9.89.89,0,0,1-.885-.9h0Zm-1.785,0a.9.9,0,1,1,.9.9.89.89,0,0,1-.885-.9h0Zm-1.785,0a.9.9,0,1,1,.9.9.89.89,0,0,1-.885-.9h0Zm-3.571,0a.9.9,0,1,1,.9.9.89.89,0,0,1-.885-.9h0Zm-1.8,0a.9.9,0,1,1,.9.9.89.89,0,0,1-.885-.9h0Zm-5.356,0a.9.9,0,1,1,.9.9.89.89,0,0,1-.885-.9h0Zm-1.786,0a.9.9,0,1,1,.9.9.89.89,0,0,1-.885-.9h0Zm-1.8,0a.9.9,0,1,1,.9.9.89.89,0,0,1-.885-.9h0Zm-3.571,0a.9.9,0,1,1,.9.9.89.89,0,0,1-.885-.9h0Zm-7.157,0a.9.9,0,1,1,.9.9.89.89,0,0,1-.885-.9h0Zm-1.785,0a.9.9,0,1,1,.9.9.89.89,0,0,1-.885-.9h0Zm51.854-1.785a.9.9,0,1,1,.9.9A.9.9,0,0,1,777.038,580.921Zm-1.785,0a.9.9,0,1,1,.9.9.89.89,0,0,1-.885-.9h0Zm-3.571,0a.9.9,0,1,1,.9.9.89.89,0,0,1-.885-.9h0Zm-1.785,0a.9.9,0,1,1,.9.9.89.89,0,0,1-.885-.9h0Zm-1.785,0a.9.9,0,1,1,.9.9.89.89,0,0,1-.885-.9h0Zm-1.8,0a.9.9,0,1,1,.9.9.89.89,0,0,1-.885-.9h0Zm-3.571,0a.9.9,0,1,1,.9.9.89.89,0,0,1-.885-.9h0Zm-1.785,0a.9.9,0,1,1,.9.9.89.89,0,0,1-.885-.9h0Zm-10.728,0a.9.9,0,1,1,.9.9.89.89,0,0,1-.885-.9h0Zm-1.785,0a.9.9,0,1,1,.9.9.89.89,0,0,1-.885-.9h0Zm-3.586,0a.9.9,0,1,1,.9.9.89.89,0,0,1-.885-.9h0Zm-5.356,0a.9.9,0,1,1,.9.9.89.89,0,0,1-.885-.9h0Zm-10.728,0a.9.9,0,1,1,.9.9.89.89,0,0,1-.885-.9h0Zm-1.8,0a.9.9,0,1,1,.9.9.89.89,0,0,1-.885-.9h0Zm-1.785,0a.9.9,0,1,1,.9.9.89.89,0,0,1-.885-.9h0Zm-1.785,0a.9.9,0,1,1,.9.9.89.89,0,0,1-.885-.9h0Zm51.854-1.785a.9.9,0,1,1,.9.9.89.89,0,0,1-.885-.9h0Zm-10.728,0a.9.9,0,1,1,.9.9.89.89,0,0,1-.885-.9h0Zm-10.728,0a.9.9,0,1,1,.9.9.89.89,0,0,1-.885-.9h0Zm-7.157,0a.9.9,0,1,1,.9.9.89.89,0,0,1-.885-.9h0Zm-3.571,0a.9.9,0,1,1,.9.9.89.89,0,0,1-.885-.9h0Zm-3.571,0a.9.9,0,1,1,.9.9.89.89,0,0,1-.885-.9h0Zm-1.8,0a.9.9,0,1,1,.9.9.89.89,0,0,1-.885-.9h0Zm-3.571,0a.9.9,0,1,1,.9.9.89.89,0,0,1-.885-.9h0Zm-3.571,0a.9.9,0,1,1,.9.9.89.89,0,0,1-.885-.9h0Zm-3.586,0a.9.9,0,1,1,.9.9.89.89,0,0,1-.885-.9h0Zm-1.785,0a.9.9,0,1,1,.9.9.89.89,0,0,1-.885-.9h0Zm-1.785,0a.9.9,0,1,1,.9.9.89.89,0,0,1-.885-.9h0Zm57.225-1.8a.9.9,0,1,1,.9.9.89.89,0,0,1-.885-.9h0Zm-3.586,0a.9.9,0,1,1,.9.9A.9.9,0,0,1,777.038,577.336Zm-1.785,0a.9.9,0,1,1,.9.9.89.89,0,0,1-.885-.9h0Zm-1.786,0a.9.9,0,1,1,.9.9.89.89,0,0,1-.885-.9h0Zm-1.785,0a.9.9,0,1,1,.9.9.89.89,0,0,1-.885-.9h0Zm-1.785,0a.9.9,0,1,1,.9.9.89.89,0,0,1-.885-.9h0Zm-1.785,0a.9.9,0,1,1,.9.9.89.89,0,0,1-.885-.9h0Zm-1.8,0a.9.9,0,1,1,.9.9.89.89,0,0,1-.885-.9h0Zm-3.571,0a.9.9,0,1,1,.9.9.89.89,0,0,1-.885-.9h0Zm-7.157,0a.9.9,0,1,1,.9.9.89.89,0,0,1-.885-.9h0Zm-7.142,0a.9.9,0,1,1,.9.9.89.89,0,0,1-.885-.9h0Zm-7.157,0a.9.9,0,1,1,.9.9.89.89,0,0,1-.885-.9h0Zm-5.371,0a.9.9,0,1,1,.9.9.89.89,0,0,1-.885-.9h0Zm-1.785,0a.9.9,0,1,1,.9.9.89.89,0,0,1-.885-.9h0Zm46.5-1.785a.9.9,0,1,1,.9.9.89.89,0,0,1-.885-.9h0Zm-1.785,0a.9.9,0,1,1,.9.9.89.89,0,0,1-.885-.9h0Zm-5.371,0a.9.9,0,1,1,.9.9.89.89,0,0,1-.885-.9h0Zm-7.157,0a.9.9,0,1,1,.9.9.89.89,0,0,1-.885-.9h0Zm-3.571,0a.9.9,0,1,1,.9.9.89.89,0,0,1-.885-.9h0Zm-1.785,0a.9.9,0,1,1,.9.9.89.89,0,0,1-.885-.9h0Zm-3.586,0a.9.9,0,1,1,.9.9.89.89,0,0,1-.885-.9h0Zm-7.142,0a.9.9,0,1,1,.9.9.89.89,0,0,1-.885-.9h0Zm-5.371,0a.9.9,0,1,1,.9.9.89.89,0,0,1-.885-.9h0Zm-1.785,0a.9.9,0,1,1,.9.9.89.89,0,0,1-.885-.9h0Zm-3.571,0a.9.9,0,1,1,.9.9.89.89,0,0,1-.885-.9h0Zm-1.8,0a.9.9,0,1,1,.9.9.89.89,0,0,1-.885-.9h0Zm-10.728,0a.9.9,0,1,1,.9.9.89.89,0,0,1-.885-.9h0Zm-3.571,0a.9.9,0,1,1,.9.9.89.89,0,0,1-.885-.9h0Zm57.225-1.785a.9.9,0,1,1,.9.9.89.89,0,0,1-.885-.9h0Zm-5.371,0a.9.9,0,1,1,.9.9.89.89,0,0,1-.885-.9h0Zm-1.786,0a.9.9,0,1,1,.9.9.89.89,0,0,1-.885-.9h0Zm-3.571,0a.9.9,0,1,1,.9.9.89.89,0,0,1-.885-.9h0Zm-3.586,0a.9.9,0,1,1,.9.9.89.89,0,0,1-.885-.9h0Zm-5.356,0a.9.9,0,1,1,.9.9.89.89,0,0,1-.885-.9h0Zm-3.586,0a.9.9,0,1,1,.9.9.89.89,0,0,1-.885-.9h0Zm-1.785,0a.9.9,0,1,1,.9.9.89.89,0,0,1-.885-.9h0Zm-3.571,0a.9.9,0,1,1,.9.9.89.89,0,0,1-.885-.9h0Zm-3.571,0a.9.9,0,1,1,.9.9.89.89,0,0,1-.885-.9h0Zm-1.8,0a.9.9,0,1,1,.9.9.89.89,0,0,1-.885-.9h0Zm-1.785,0a.9.9,0,1,1,.9.9.89.89,0,0,1-.885-.9h0Zm-1.785,0a.9.9,0,1,1,.9.9h0a.89.89,0,0,1-.885-.9h0Zm-3.571,0a.9.9,0,1,1,.9.9.89.89,0,0,1-.885-.9h0Zm-3.586,0a.9.9,0,1,1,.9.9.89.89,0,0,1-.885-.9h0Zm-1.785,0a.9.9,0,1,1,.9.9.89.89,0,0,1-.885-.9h0Zm-3.571,0a.9.9,0,1,1,.9.9.89.89,0,0,1-.885-.9h0Zm-5.371,0a.9.9,0,1,1,.9.9.89.89,0,0,1-.885-.9h0Zm-1.785,0a.9.9,0,1,1,.9.9.89.89,0,0,1-.885-.9h0Zm57.225-1.785a.9.9,0,1,1,.9.9.89.89,0,0,1-.885-.9h0Zm-1.785,0a.9.9,0,1,1,.9.9.89.89,0,0,1-.885-.9h0Zm-3.586,0a.9.9,0,1,1,.9.9.89.89,0,0,1-.885-.9h0Zm-1.786,0a.9.9,0,1,1,.9.9.89.89,0,0,1-.885-.9h0Zm-7.157,0a.9.9,0,1,1,.9.9.89.89,0,0,1-.885-.9h0Zm-1.785,0a.9.9,0,1,1,.9.9.89.89,0,0,1-.885-.9h0Zm-3.571,0a.9.9,0,1,1,.9.9.89.89,0,0,1-.885-.9h0Zm-7.157,0a.9.9,0,1,1,.9.9.89.89,0,0,1-.885-.9h0Zm-1.785,0a.9.9,0,1,1,.9.9.89.89,0,0,1-.885-.9h0Zm-5.371,0a.9.9,0,1,1,.9.9.89.89,0,0,1-.885-.9h0Zm-1.785,0a.9.9,0,1,1,.9.9.89.89,0,0,1-.885-.9h0Zm-14.3,0a.9.9,0,1,1,.9.9.89.89,0,0,1-.885-.9h0Zm-3.586,0a.9.9,0,1,1,.9.9.89.89,0,0,1-.885-.9h0Zm-1.785,0a.9.9,0,1,1,.9.9.89.89,0,0,1-.885-.9h0Zm-1.785,0a.9.9,0,1,1,.9.9.89.89,0,0,1-.885-.9h0Zm57.225-1.8a.9.9,0,1,1,.9.9A.9.9,0,0,1,780.624,570.179Zm-1.785,0a.9.9,0,1,1,.9.9A.9.9,0,0,1,778.838,570.179Zm-1.785,0a.9.9,0,1,1,.9.9.89.89,0,0,1-.9-.885h0Zm-1.785,0a.9.9,0,1,1,.9.9A.9.9,0,0,1,775.267,570.179Zm-1.8,0a.9.9,0,1,1,.9.9A.9.9,0,0,1,773.467,570.179Zm-1.785,0a.9.9,0,1,1,.9.9A.9.9,0,0,1,771.681,570.179Zm-1.785,0a.9.9,0,1,1,.9.9A.9.9,0,0,1,769.9,570.179Zm-1.785,0a.9.9,0,1,1,.9.9.9.9,0,0,1-.9-.9Zm-1.785,0a.9.9,0,1,1,.9.9A.9.9,0,0,1,766.325,570.179Zm-1.8,0a.9.9,0,1,1,.9.9A.9.9,0,0,1,764.524,570.179Zm-3.571,0a.9.9,0,1,1,.9.9A.9.9,0,0,1,760.953,570.179Zm-1.785,0a.9.9,0,1,1,.9.9A.9.9,0,0,1,759.168,570.179Zm-1.785,0a.9.9,0,1,1,.9.9A.9.9,0,0,1,757.382,570.179Zm-1.8,0a.9.9,0,1,1,.9.9.89.89,0,0,1-.885-.9h0Zm-3.571,0a.9.9,0,1,1,.9.9.89.89,0,0,1-.885-.9h0Zm-5.371,0a.9.9,0,1,1,.9.9.89.89,0,0,1-.885-.9h0Zm-1.785,0a.9.9,0,1,1,.9.9.89.89,0,0,1-.885-.9h0Zm-1.785,0a.9.9,0,1,1,.9.9.89.89,0,0,1-.885-.9h0Zm-1.785,0a.9.9,0,1,1,.9.9.89.89,0,0,1-.885-.9h0Zm-1.786,0a.9.9,0,1,1,.9.9.89.89,0,0,1-.885-.9h0Zm-1.785,0a.9.9,0,1,1,.9.9.89.89,0,0,1-.885-.9h0Zm-1.8,0a.9.9,0,1,1,.9.9.89.89,0,0,1-.885-.9h0Zm-3.571,0a.9.9,0,1,1,.9.9.89.89,0,0,1-.885-.9h0Zm-1.786,0a.9.9,0,1,1,.9.9.89.89,0,0,1-.885-.9h0Zm-5.371,0a.9.9,0,1,1,.9.9.89.89,0,0,1-.885-.9h0Zm-1.785,0a.9.9,0,1,1,.9.9.89.89,0,0,1-.885-.9h0Zm-3.571,0a.9.9,0,1,1,.9.9.89.89,0,0,1-.885-.9h0Zm-3.586,0a.9.9,0,1,1,.9.9.89.89,0,0,1-.885-.9h0Zm-3.571,0a.9.9,0,1,1,.9.9.89.89,0,0,1-.885-.9h0Zm-1.785,0a.9.9,0,1,1,.9.9.89.89,0,0,1-.885-.9h0Zm67.953-1.785a.9.9,0,1,1,.9.9.887.887,0,0,1-.885-.885h0Zm-1.785,0a.893.893,0,1,1,0,.015h0Zm-1.8,0a.9.9,0,1,1,.9.9.887.887,0,0,1-.885-.885h0Zm-7.142,0a.9.9,0,1,1,.9.9.887.887,0,0,1-.885-.885h0Zm-1.785,0a.9.9,0,1,1,.9.9.887.887,0,0,1-.885-.885h0Zm-1.8,0a.9.9,0,1,1,.9.9.887.887,0,0,1-.885-.885h0Zm-3.571,0a.9.9,0,1,1,.9.9.887.887,0,0,1-.885-.885h0Zm-7.157,0a.9.9,0,1,1,.9.9.887.887,0,0,1-.885-.885h0Zm-1.785,0a.9.9,0,1,1,.9.9.887.887,0,0,1-.885-.885h0Zm-3.571,0a.9.9,0,1,1,.9.9.887.887,0,0,1-.885-.885h0Zm-3.586,0a.9.9,0,1,1,.9.9.887.887,0,0,1-.885-.885h0Zm-1.785,0a.9.9,0,1,1,.9.9.887.887,0,0,1-.885-.885h0Zm-8.942,0a.9.9,0,1,1,.9.9.887.887,0,0,1-.885-.885h0Zm-3.571,0a.9.9,0,1,1,.9.9.887.887,0,0,1-.885-.885h0Zm-3.586,0a.9.9,0,1,1,.9.9.887.887,0,0,1-.885-.885h0Zm-5.356,0a.9.9,0,1,1,.9.9.887.887,0,0,1-.885-.885h0Zm-3.571,0a.9.9,0,1,1,.9.9.887.887,0,0,1-.885-.885h0Zm-8.942,0a.9.9,0,1,1,.9.9.887.887,0,0,1-.885-.885h0Zm69.738-1.785a.893.893,0,1,1,0,.015h0Zm-3.571,0a.893.893,0,1,1,0,.015h0Zm-1.8,0a.893.893,0,1,1,0,.015h0Zm-1.785,0a.893.893,0,1,1,0,.015h0Zm-1.785,0a.893.893,0,1,1,0,.015h0Zm-1.785,0a.889.889,0,1,1,0,.015h0Zm-3.586,0a.893.893,0,1,1,0,.015h0Zm-1.785,0a.893.893,0,1,1,0,.015h0Zm-5.356,0a.893.893,0,1,1,0,.015h0Zm-7.157,0a.893.893,0,1,1,0,.015h0Zm-16.1,0a.893.893,0,1,1,0,.015h0Zm-1.785,0a.893.893,0,1,1,0,.015h0Zm-12.513,0a.893.893,0,1,1,0,.015h0Zm60.8-1.785a.893.893,0,1,1,0,.015h0Zm-1.785,0a.893.893,0,1,1,0,.015h0Zm-3.571,0a.893.893,0,1,1,0,.015h0Zm-7.157,0a.889.889,0,1,1,0,.015h0Zm-3.586,0a.893.893,0,1,1,0,.015h0Zm-5.356,0a.893.893,0,1,1,0,.015h0Zm-1.785,0a.9.9,0,1,1,.9.9h0a.9.9,0,0,1-.9-.885h0Zm-1.785,0a.893.893,0,1,1,0,.015h0Zm-1.8,0a.893.893,0,1,1,0,.015h0Zm-1.785,0a.893.893,0,1,1,0,.015h0Zm-5.356,0a.893.893,0,1,1,0,.015h0Zm-1.8,0a.893.893,0,1,1,0,.015h0Zm-3.571,0a.893.893,0,1,1,0,.015h0Zm-1.786,0a.893.893,0,1,1,0,.015h0Zm-1.785,0a.893.893,0,1,1,0,.015h0Zm-1.785,0a.893.893,0,1,1,0,.015h0Zm-1.8,0a.893.893,0,1,1,0,.015h0Zm-1.785,0a.893.893,0,1,1,0,.015h0Zm-1.786,0a.893.893,0,1,1,0,.015h0Zm-3.571,0a.893.893,0,1,1,0,.015h0Zm-5.371,0a.893.893,0,1,1,0,.015h0Zm-3.571,0a.9.9,0,1,1,.9.9.887.887,0,0,1-.885-.885h0Zm-3.586,0a.893.893,0,1,1,0,.015h0Zm-1.785,0a.893.893,0,1,1,0,.015h0Zm-1.785,0a.893.893,0,1,1,0,.015h0Zm64.382-1.785a.893.893,0,1,1,0,.015h0Zm-1.8,0a.893.893,0,1,1,0,.015h0Zm-5.356,0a.889.889,0,1,1,0,.015h0Zm-1.785,0a.893.893,0,1,1,0,.015h0Zm-3.586,0a.893.893,0,1,1,0,.015h0Zm-1.785,0a.893.893,0,1,1,0,.015h0Zm-10.728,0a.893.893,0,1,1,0,.015h0Zm-3.571,0a.893.893,0,1,1,0,.015h0Zm-1.8,0a.893.893,0,1,1,0,.015h0Zm-1.785,0a.893.893,0,1,1,0,.015h0Zm-10.728,0a.893.893,0,1,1,0,.015h0Zm-5.356,0a.893.893,0,1,1,0,.015h0Zm-1.8,0a.893.893,0,1,1,0,.015h0Zm-3.571,0a.893.893,0,1,1,0,.015h0Zm-1.786,0a.893.893,0,1,1,0,.015h0Zm-1.785,0a.9.9,0,1,1,.9.9.887.887,0,0,1-.885-.885h0Zm-1.785,0a.893.893,0,1,1,0,.015h0Zm50.068-1.785a.9.9,0,1,1,.9.9.89.89,0,0,1-.9-.885h0Zm-3.571,0a.9.9,0,1,1,.9.9.89.89,0,0,1-.9-.885h0Zm-1.8,0a.9.9,0,1,1,.9.9h0a.89.89,0,0,1-.9-.885h0Zm-1.785,0a.9.9,0,1,1,.9.9.89.89,0,0,1-.9-.885h0Zm-1.785,0a.9.9,0,1,1,.9.9.89.89,0,0,1-.9-.885h0Zm-5.371,0a.9.9,0,1,1,.9.9.89.89,0,0,1-.9-.885h0Zm-8.927,0a.9.9,0,1,1,.9.9.89.89,0,0,1-.9-.885h0Zm-7.157,0a.9.9,0,1,1,.9.9.89.89,0,0,1-.9-.885h0Zm-3.586,0a.9.9,0,1,1,.9.9.89.89,0,0,1-.9-.885h0Zm-14.3,0a.893.893,0,1,1,0,.015h0Zm-1.785,0a.9.9,0,1,1,.9.9.89.89,0,0,1-.9-.885h0Zm-5.371,0a.9.9,0,1,1,.9.9.89.89,0,0,1-.9-.885h0Zm-1.785,0a.9.9,0,1,1,.9.9.89.89,0,0,1-.9-.885h0Zm69.738-1.8a.9.9,0,1,1,.9.9.89.89,0,0,1-.9-.885h0Zm-1.785,0a.9.9,0,1,1,.9.9.89.89,0,0,1-.9-.885h0Zm-5.356,0a.9.9,0,1,1,.9.9.89.89,0,0,1-.9-.885h0Zm-3.586,0a.9.9,0,1,1,.9.9.89.89,0,0,1-.9-.885h0Zm-1.785,0a.9.9,0,1,1,.9.9h0a.887.887,0,0,1-.885-.885h0Zm-1.785,0a.9.9,0,1,1,.9.9.89.89,0,0,1-.9-.885h0Zm-1.785,0a.9.9,0,1,1,.9.9.89.89,0,0,1-.9-.885h0Zm-1.8,0a.9.9,0,1,1,.9.9.89.89,0,0,1-.9-.885h0Zm-3.571,0a.9.9,0,1,1,.9.9.89.89,0,0,1-.9-.885h0Zm-1.785,0a.9.9,0,1,1,.9.9.89.89,0,0,1-.9-.885h0Zm-5.371,0a.9.9,0,1,1,.9.9.89.89,0,0,1-.9-.885h0Zm-1.785,0a.9.9,0,1,1,.9.9.89.89,0,0,1-.9-.885h0Zm-1.785,0a.9.9,0,1,1,.9.9h0a.91.91,0,0,1-.9-.885h0Zm-3.571,0a.9.9,0,1,1,.9.9.89.89,0,0,1-.9-.885h0Zm-1.8,0a.9.9,0,1,1,.9.9.89.89,0,0,1-.9-.885h0Zm-5.356,0a.9.9,0,1,1,.9.9.89.89,0,0,1-.9-.885h0Zm-1.785,0a.9.9,0,1,1,.9.9.89.89,0,0,1-.9-.885h0Zm-3.586,0a.9.9,0,1,1,.9.9.89.89,0,0,1-.9-.885h0Zm-1.785,0a.9.9,0,1,1,.9.9.89.89,0,0,1-.9-.885h0Zm-3.571,0a.9.9,0,1,1,.9.9.89.89,0,0,1-.9-.885h0Zm-1.785,0a.9.9,0,1,1,.9.9.89.89,0,0,1-.9-.885h0Zm-3.586,0a.9.9,0,1,1,.9.9.89.89,0,0,1-.9-.885h0Zm-3.571,0a.9.9,0,1,1,.9.9.89.89,0,0,1-.9-.885h0Zm-1.785,0a.9.9,0,1,1,.9.9.89.89,0,0,1-.9-.885h0Zm-3.586,0a.9.9,0,1,1,.9.9h0a.9.9,0,0,1-.9-.885h0Zm-1.785,0a.9.9,0,1,1,.9.9h0a.9.9,0,0,1-.9-.885h0Zm69.738-1.785a.9.9,0,1,1,.9.9.89.89,0,0,1-.9-.885h0Zm-1.785,0a.9.9,0,1,1,.9.9.89.89,0,0,1-.9-.885h0Zm-1.785,0a.9.9,0,1,1,.9.9.89.89,0,0,1-.9-.885h0Zm-8.942,0a.9.9,0,1,1,.9.9.89.89,0,0,1-.9-.885h0Zm-3.571,0a.9.9,0,1,1,.9.9.89.89,0,0,1-.9-.885h0Zm-1.785,0a.9.9,0,1,1,.9.9.89.89,0,0,1-.9-.885h0Zm-3.586,0a.9.9,0,1,1,.9.9.89.89,0,0,1-.9-.885h0Zm-1.785,0a.9.9,0,1,1,.9.9.89.89,0,0,1-.9-.885h0Zm-1.785,0a.9.9,0,1,1,.9.9.89.89,0,0,1-.9-.885h0Zm-1.785,0a.9.9,0,1,1,.9.9.89.89,0,0,1-.9-.885h0Zm-1.785,0a.9.9,0,1,1,.9.9.89.89,0,0,1-.9-.885h0Zm-3.586,0a.9.9,0,1,1,.9.9.89.89,0,0,1-.9-.885h0Zm-7.157,0a.9.9,0,1,1,.9.9.89.89,0,0,1-.9-.885h0Zm-3.571,0a.9.9,0,1,1,.9.9.89.89,0,0,1-.9-.885h0Zm-5.356,0a.9.9,0,1,1,.9.9.89.89,0,0,1-.9-.885h0Zm-1.8,0a.9.9,0,1,1,.9.9.89.89,0,0,1-.9-.885h0Zm-1.785,0a.9.9,0,1,1,.9.9.89.89,0,0,1-.9-.885h0Zm-3.571,0a.9.9,0,1,1,.9.9.89.89,0,0,1-.9-.885h0Zm-5.371,0a.9.9,0,1,1,.9.9.89.89,0,0,1-.9-.885h0Zm-1.785,0a.9.9,0,1,1,.9.9.89.89,0,0,1-.9-.885h0Zm-1.785,0a.9.9,0,1,1,.9.9.89.89,0,0,1-.9-.885h0Zm-1.785,0a.9.9,0,1,1,.9.9.89.89,0,0,1-.9-.885h0Zm-1.8,0a.9.9,0,1,1,.9.9.89.89,0,0,1-.9-.885h0Zm-1.785,0a.9.9,0,1,1,.9.9.89.89,0,0,1-.9-.885h0Zm66.167-1.785a.9.9,0,1,1,.9.9.89.89,0,0,1-.9-.885h0Zm-1.785,0a.9.9,0,1,1,.9.9.89.89,0,0,1-.9-.885h0Zm-1.786,0a.9.9,0,1,1,.9.9.89.89,0,0,1-.9-.885h0Zm-1.785,0a.9.9,0,1,1,.9.9.89.89,0,0,1-.9-.885h0Zm-1.8,0a.9.9,0,1,1,.9.9.89.89,0,0,1-.9-.885h0Zm-14.3,0a.9.9,0,1,1,.9.9.89.89,0,0,1-.9-.885h0Zm-1.785,0a.9.9,0,1,1,.9.9h0a.89.89,0,0,1-.9-.885h0Zm-1.785,0a.9.9,0,1,1,.9.9.89.89,0,0,1-.9-.885h0Zm-1.8,0a.9.9,0,1,1,.9.9.89.89,0,0,1-.9-.885h0Zm-1.785,0a.9.9,0,1,1,.9.9.89.89,0,0,1-.9-.885h0Zm-1.785,0a.9.9,0,1,1,.9.9.89.89,0,0,1-.9-.885h0Zm-1.785,0a.9.9,0,1,1,.9.9.89.89,0,0,1-.9-.885h0Zm-3.586,0a.9.9,0,1,1,.9.9.89.89,0,0,1-.9-.885h0Zm-1.785,0a.9.9,0,1,1,.9.9.89.89,0,0,1-.9-.885h0Zm-1.785,0a.9.9,0,1,1,.9.9.89.89,0,0,1-.9-.885h0Zm-1.785,0a.9.9,0,1,1,.9.9.89.89,0,0,1-.9-.885h0Zm-1.785,0a.9.9,0,1,1,.9.9.89.89,0,0,1-.9-.885h0Zm-1.785,0a.9.9,0,1,1,.9.9.89.89,0,0,1-.9-.885h0Zm-3.586,0a.9.9,0,1,1,.9.9.89.89,0,0,1-.9-.885h0Zm-7.157,0a.9.9,0,1,1,.9.9.89.89,0,0,1-.9-.885h0Zm-3.571,0a.9.9,0,1,1,.9.9.89.89,0,0,1-.9-.885h0Zm-1.785,0a.9.9,0,1,1,.9.9.89.89,0,0,1-.9-.885h0Zm-3.586,0a.9.9,0,1,1,.9.9.89.89,0,0,1-.9-.885h0Zm-1.785,0a.9.9,0,1,1,.9.9.89.89,0,0,1-.9-.885h0Zm71.539-1.785a.9.9,0,1,1,.9.9.89.89,0,0,1-.9-.885h0Zm-1.8,0a.9.9,0,1,1,.9.9.89.89,0,0,1-.9-.885h0Zm-1.785,0a.9.9,0,1,1,.9.9.89.89,0,0,1-.9-.885h0Zm-10.728,0a.9.9,0,1,1,.9.9.89.89,0,0,1-.9-.885h0Zm-1.785,0a.9.9,0,1,1,.9.9.89.89,0,0,1-.9-.885h0Zm-8.942,0a.9.9,0,1,1,.9.9.89.89,0,0,1-.9-.885h0Zm-3.571,0a.9.9,0,1,1,.9.9.89.89,0,0,1-.9-.885h0Zm-1.785,0a.9.9,0,1,1,.9.9.89.89,0,0,1-.9-.885h0Zm-5.371,0a.9.9,0,1,1,.9.9.89.89,0,0,1-.9-.885h0Zm-1.785,0a.9.9,0,1,1,.9.9.89.89,0,0,1-.9-.885h0Zm-3.586,0a.9.9,0,1,1,.9.9.89.89,0,0,1-.9-.885h0Zm-1.785,0a.9.9,0,1,1,.9.9.89.89,0,0,1-.9-.885h0Zm-5.356,0a.9.9,0,1,1,.9.9.89.89,0,0,1-.9-.885h0Zm-3.586,0a.9.9,0,1,1,.9.9.89.89,0,0,1-.9-.885h0Zm-3.571,0a.9.9,0,1,1,.9.9.89.89,0,0,1-.9-.885h0Zm-1.785,0a.9.9,0,1,1,.9.9.89.89,0,0,1-.9-.885h0Zm-7.157,0a.9.9,0,1,1,.9.9.89.89,0,0,1-.9-.885h0Zm62.581-1.785a.9.9,0,1,1,.9.9.89.89,0,0,1-.9-.885h0Zm-3.571,0a.9.9,0,1,1,.9.9.89.89,0,0,1-.9-.885h0Zm-5.356,0a.9.9,0,1,1,.9.9.89.89,0,0,1-.9-.885h0Zm-3.586,0a.9.9,0,1,1,.9.9.89.89,0,0,1-.9-.885h0Zm-3.571,0a.9.9,0,1,1,.9.9.89.89,0,0,1-.9-.885h0Zm-1.785,0a.9.9,0,1,1,.9.9.89.89,0,0,1-.9-.885h0Zm-1.8,0a.9.9,0,1,1,.9.9.89.89,0,0,1-.9-.885h0Zm-3.571,0a.9.9,0,1,1,.9.9.89.89,0,0,1-.9-.885h0Zm-3.571,0a.9.9,0,1,1,.9.9.89.89,0,0,1-.9-.885h0Zm-3.586,0a.9.9,0,1,1,.9.9.89.89,0,0,1-.9-.885h0Zm-1.785,0a.9.9,0,1,1,.9.9.89.89,0,0,1-.9-.885h0Zm-5.356,0a.9.9,0,1,1,.9.9h0a.89.89,0,0,1-.9-.885h0Zm-1.8,0a.9.9,0,1,1,.9.9.89.89,0,0,1-.9-.885h0Zm-3.571,0a.9.9,0,1,1,.9.9.89.89,0,0,1-.9-.885h0Zm-1.785,0a.9.9,0,1,1,.9.9.89.89,0,0,1-.9-.885h0Zm-3.571,0a.9.9,0,1,1,.9.9.89.89,0,0,1-.9-.885h0Zm-3.586,0a.9.9,0,1,1,.9.9.89.89,0,0,1-.9-.885h0Zm-1.785,0a.9.9,0,1,1,.9.9.89.89,0,0,1-.9-.885h0Zm-3.571,0a.9.9,0,1,1,.9.9.89.89,0,0,1-.9-.885h0Zm-1.8,0a.9.9,0,1,1,.9.9.89.89,0,0,1-.9-.885h0Zm-8.942,0a.9.9,0,1,1,.9.9.89.89,0,0,1-.9-.885h0Zm69.753-1.8a.9.9,0,1,1,.9.9.89.89,0,0,1-.9-.885h0Zm-1.786,0a.9.9,0,1,1,.9.9.89.89,0,0,1-.9-.885h0Zm-8.942,0a.9.9,0,1,1,.9.9.89.89,0,0,1-.9-.885h0Zm-1.8,0a.9.9,0,1,1,.9.9.89.89,0,0,1-.9-.885h0Zm-3.571,0a.9.9,0,1,1,.9.9.89.89,0,0,1-.9-.885h0Zm-1.785,0a.9.9,0,1,1,.9.9.89.89,0,0,1-.9-.885h0Zm-1.785,0a.9.9,0,1,1,.9.9.89.89,0,0,1-.9-.885h0Zm-10.728,0a.9.9,0,1,1,.9.9.89.89,0,0,1-.9-.885h0Zm-1.8,0a.9.9,0,1,1,.9.9.89.89,0,0,1-.9-.885h0Zm-5.356,0a.9.9,0,1,1,.9.9.89.89,0,0,1-.9-.885h0Zm-3.571,0a.9.9,0,1,1,.9.9.89.89,0,0,1-.9-.885h0Zm-7.157,0a.9.9,0,1,1,.9.9.89.89,0,0,1-.9-.885h0Zm-3.586,0a.9.9,0,1,1,.9.9.89.89,0,0,1-.9-.885h0Zm-1.785,0a.9.9,0,1,1,.9.9.89.89,0,0,1-.9-.885h0Zm-3.571,0a.9.9,0,1,1,.9.9.89.89,0,0,1-.9-.885h0Zm-1.785,0a.9.9,0,1,1,.9.9.89.89,0,0,1-.9-.885h0Zm-3.586,0a.9.9,0,1,1,.9.9.89.89,0,0,1-.9-.885h0Zm-3.571,0a.9.9,0,1,1,.9.9.89.89,0,0,1-.9-.885h0Zm-3.571,0a.9.9,0,1,1,.9.9.89.89,0,0,1-.9-.885h0Zm69.738-1.785a.9.9,0,1,1,.9.9.89.89,0,0,1-.9-.885h0Zm-1.786,0a.9.9,0,1,1,.9.9.89.89,0,0,1-.9-.885h0Zm-1.785,0a.9.9,0,1,1,.9.9.913.913,0,0,1-.915-.885h.015Zm-1.8,0a.9.9,0,1,1,.9.9.89.89,0,0,1-.9-.885h0Zm-5.356,0a.9.9,0,1,1,.9.9.89.89,0,0,1-.9-.885h0Zm-3.586,0a.9.9,0,1,1,.9.9.89.89,0,0,1-.9-.885h0Zm-5.356,0a.9.9,0,1,1,.9.9.89.89,0,0,1-.9-.885h0Zm-1.786,0a.9.9,0,1,1,.9.9.89.89,0,0,1-.9-.885h0Zm-3.586,0a.9.9,0,1,1,.9.9.89.89,0,0,1-.9-.885h0Zm-7.142,0a.9.9,0,1,1,.9.9.89.89,0,0,1-.9-.885h0Zm-1.8,0a.9.9,0,1,1,.9.9.89.89,0,0,1-.9-.885h0Zm-3.571,0a.9.9,0,1,1,.9.9.89.89,0,0,1-.9-.885h0Zm-3.571,0a.9.9,0,1,1,.9.9.89.89,0,0,1-.9-.885h0Zm-3.586,0a.9.9,0,1,1,.9.9.89.89,0,0,1-.9-.885h0Zm-1.785,0a.9.9,0,1,1,.9.9.89.89,0,0,1-.9-.885h0Zm-1.785,0a.9.9,0,1,1,.9.9.89.89,0,0,1-.9-.885h0Zm-1.785,0a.9.9,0,1,1,.9.9.89.89,0,0,1-.9-.885h0Zm-5.371,0a.9.9,0,1,1,.9.9.89.89,0,0,1-.9-.885h0Zm-5.356,0a.9.9,0,1,1,.9.9.89.89,0,0,1-.9-.885h0Zm-1.8,0a.9.9,0,1,1,.9.9.89.89,0,0,1-.9-.885h0Zm-5.356,0a.9.9,0,1,1,.9.9.89.89,0,0,1-.9-.885h0Zm-3.571,0a.9.9,0,1,1,.9.9.89.89,0,0,1-.9-.885h0Zm69.738-1.785a.9.9,0,1,1,.9.9.913.913,0,0,1-.915-.885h0Zm-1.785,0a.666.666,0,1,1-.015.03v-.015h.015Zm-1.8,0a.9.9,0,1,1,.9.9.913.913,0,0,1-.915-.885h0Zm-3.571,0a.9.9,0,1,1,.9.9.913.913,0,0,1-.915-.885h0Zm-3.571,0a.9.9,0,1,1,.9.9.913.913,0,0,1-.915-.885h0Zm-1.785,0a.9.9,0,1,1,.9.9.913.913,0,0,1-.915-.885h0Zm-5.371,0a.9.9,0,1,1,.9.9.913.913,0,0,1-.915-.885h0Zm-3.571,0a.9.9,0,1,1,.9.9.913.913,0,0,1-.915-.885h.015Zm-1.8,0a.9.9,0,1,1,.9.9.913.913,0,0,1-.915-.885h0Zm-1.785,0a.9.9,0,1,1,.9.9.913.913,0,0,1-.915-.885h0Zm-1.785,0a.9.9,0,1,1,.9.9h0a.913.913,0,0,1-.915-.885h0Zm-5.356,0a.9.9,0,1,1,.9.9.913.913,0,0,1-.915-.885h0Zm-8.942,0a.9.9,0,1,1,.9.9.913.913,0,0,1-.915-.885h0Zm-5.371,0a.9.9,0,1,1,.9.9.913.913,0,0,1-.915-.885h0Zm-3.571,0a.9.9,0,1,1,.9.9.913.913,0,0,1-.915-.885h0Zm-12.528,0a.9.9,0,1,1,.9.9.913.913,0,0,1-.915-.885h0Zm-3.571,0a.9.9,0,1,1,.9.9.913.913,0,0,1-.915-.885h0Zm67.953-1.785a.9.9,0,1,1,.9.9.913.913,0,0,1-.915-.885h0Zm-1.786,0a.9.9,0,1,1,.9.9.913.913,0,0,1-.915-.885h0Zm-8.942,0a.9.9,0,1,1,.9.9.913.913,0,0,1-.915-.885h0Zm-3.571,0a.9.9,0,1,1,.9.9.913.913,0,0,1-.915-.885h0Zm-1.8,0a.9.9,0,1,1,.9.9.913.913,0,0,1-.915-.885h0Zm-1.785,0a.9.9,0,1,1,.9.9.913.913,0,0,1-.915-.885h0Zm-10.728,0a.9.9,0,1,1,.9.9.913.913,0,0,1-.915-.885h0Zm-7.157,0a.9.9,0,1,1,.9.9.913.913,0,0,1-.915-.885h0Zm-3.571,0a.9.9,0,1,1,.9.9.913.913,0,0,1-.915-.885h0Zm-1.786,0a.9.9,0,1,1,.9.9h0a.913.913,0,0,1-.915-.885h0Zm-10.728,0a.9.9,0,1,1,.9.9.913.913,0,0,1-.915-.885h0Zm-5.371,0a.9.9,0,1,1,.9.9.913.913,0,0,1-.915-.885h0Zm-3.571,0a.9.9,0,1,1,.9.9.913.913,0,0,1-.915-.885h0Zm-3.586,0a.9.9,0,1,1,.9.9.913.913,0,0,1-.915-.885h0Zm-1.785,0a.9.9,0,1,1,.9.9.913.913,0,0,1-.915-.885h0Zm-1.785,0a.9.9,0,1,1,.9.9.913.913,0,0,1-.915-.885h0Zm-1.785,0a.9.9,0,1,1,.9.9.913.913,0,0,1-.915-.885h0Zm67.953-1.785a.9.9,0,1,1,.9.9.913.913,0,0,1-.915-.885h0Zm-1.785,0a.666.666,0,1,1-.015.03v-.015h.015Zm-5.371,0a.9.9,0,1,1,.9.9.913.913,0,0,1-.915-.885h0Zm-5.356,0a.9.9,0,1,1,.9.9.913.913,0,0,1-.915-.885h0Zm-3.586,0a.9.9,0,1,1,.9.9.913.913,0,0,1-.915-.885h0Zm-1.785,0a.9.9,0,1,1,.9.9.913.913,0,0,1-.915-.885h0Zm-1.786,0a.9.9,0,1,1,.9.9.913.913,0,0,1-.915-.885h0Zm-1.785,0a.9.9,0,1,1,.9.9.913.913,0,0,1-.915-.885h.015Zm-1.8,0a.9.9,0,1,1,.9.9.913.913,0,0,1-.915-.885h0Zm-1.785,0a.9.9,0,1,1,.9.9.913.913,0,0,1-.915-.885h0Zm-1.785,0a.9.9,0,1,1,.9.9.913.913,0,0,1-.915-.885h0Zm-1.785,0a.9.9,0,1,1,.9.9.913.913,0,0,1-.915-.885h0Zm-1.786,0a.9.9,0,1,1,.9.9.913.913,0,0,1-.915-.885h0Zm-1.785,0a.9.9,0,1,1,.9.9.913.913,0,0,1-.915-.885h0Zm-1.8,0a.9.9,0,1,1,.9.9.913.913,0,0,1-.915-.885h0Zm-1.785,0a.9.9,0,1,1,.9.9.913.913,0,0,1-.915-.885h0Zm-3.571,0a.9.9,0,1,1,.9.9.913.913,0,0,1-.915-.885h0Zm-7.157,0a.9.9,0,1,1,.9.9.913.913,0,0,1-.915-.885h0Zm-1.785,0a.9.9,0,1,1,.9.9.913.913,0,0,1-.915-.885h0Zm-12.513,0a.9.9,0,1,1,.9.9.89.89,0,0,1-.9-.885h0Zm-1.8,0a.9.9,0,1,1,.9.9.913.913,0,0,1-.915-.885h0Zm-1.785,0a.9.9,0,1,1,.9.9.913.913,0,0,1-.915-.885h0Zm-1.785,0a.9.9,0,1,1,.9.9.913.913,0,0,1-.915-.885h0Zm-1.785,0a.9.9,0,1,1,.9.9.913.913,0,0,1-.915-.885h0Zm-1.785,0a.9.9,0,1,1,.9.9.913.913,0,0,1-.915-.885h0Zm66.152-1.8a.9.9,0,1,1,.9.9.913.913,0,0,1-.915-.885h0Zm-3.571,0a.9.9,0,1,1,.9.9.913.913,0,0,1-.915-.885h0Zm-1.785,0a.9.9,0,1,1,.9.9.913.913,0,0,1-.915-.885h0Zm-14.314,0a.9.9,0,1,1,.9.9.913.913,0,0,1-.915-.885h0Zm-3.571,0a.9.9,0,1,1,.9.9.913.913,0,0,1-.915-.885h0Zm-10.728,0a.9.9,0,1,1,.9.9.913.913,0,0,1-.915-.885h0Zm-1.786,0a.9.9,0,1,1,.9.9.913.913,0,0,1-.915-.885h0Zm-8.942,0a.9.9,0,1,1,.9.9.913.913,0,0,1-.915-.885h0Zm-3.571,0a.9.9,0,1,1,.9.9.913.913,0,0,1-.915-.885h0Zm-3.586,0a.9.9,0,1,1,.9.9.913.913,0,0,1-.915-.885h0Zm-1.785,0a.9.9,0,1,1,.9.9.913.913,0,0,1-.915-.885h0Zm-1.785,0a.9.9,0,1,1,.9.9.913.913,0,0,1-.915-.885h0Zm-1.785,0a.9.9,0,1,1,.9.9.89.89,0,0,1-.9-.885h0Zm-7.157,0a.9.9,0,1,1,.9.9.913.913,0,0,1-.915-.885h0Zm-1.785,0a.9.9,0,1,1,.9.9.913.913,0,0,1-.915-.885h0Zm69.738-1.786a.9.9,0,1,1,.9.9.913.913,0,0,1-.915-.885h.015Zm-5.371,0a.9.9,0,1,1,.9.9.913.913,0,0,1-.915-.885h.015Zm-1.786,0a.9.9,0,1,1,.9.9.913.913,0,0,1-.915-.885h.015Zm-1.785,0a.9.9,0,1,1,.9.9.913.913,0,0,1-.915-.885h.015Zm-3.571,0a.9.9,0,1,1,.9.9.913.913,0,0,1-.915-.885h.015Zm-3.586,0a.9.9,0,1,1,.9.9.913.913,0,0,1-.915-.885h.015Zm-1.785,0a.9.9,0,1,1,.9.9.913.913,0,0,1-.915-.885h.015Zm-5.356,0a.9.9,0,1,1,.9.9.913.913,0,0,1-.915-.885h.015Zm-1.8,0a.9.9,0,1,1,.9.9.913.913,0,0,1-.915-.885h.015Zm-1.785,0a.9.9,0,1,1,.9.9.913.913,0,0,1-.915-.885h.015Zm-1.785,0a.9.9,0,1,1,.9.9.913.913,0,0,1-.915-.885h.015Zm-1.786,0a.9.9,0,1,1,.9.9.913.913,0,0,1-.915-.885h.015Zm-1.785,0a.9.9,0,1,1,.9.9.913.913,0,0,1-.915-.885h.015Zm-5.371,0a.9.9,0,1,1,.9.9.913.913,0,0,1-.915-.885h.015Zm-1.786,0a.9.9,0,1,1,.9.9.913.913,0,0,1-.915-.885h.015Zm-1.785,0a.9.9,0,1,1,.9.9.913.913,0,0,1-.915-.885h.015Zm-1.785,0a.9.9,0,1,1,.9.9.913.913,0,0,1-.915-.885h.015Zm-3.586,0a.9.9,0,1,1,.9.9.913.913,0,0,1-.915-.885h.015Zm-1.785,0a.9.9,0,1,1,.9.9.913.913,0,0,1-.915-.885h.015Zm-1.786,0a.9.9,0,1,1,.9.9.913.913,0,0,1-.915-.885h.015Zm-1.785,0a.9.9,0,1,1,.9.9.913.913,0,0,1-.915-.885H727Zm-12.528,0a.9.9,0,1,1,.9.9.913.913,0,0,1-.915-.885h.015ZM780.638,538a.9.9,0,1,1,.9.9.913.913,0,0,1-.915-.885h.015Zm-3.571,0a.666.666,0,1,1-.015.03v-.015h.015Zm-5.371,0a.9.9,0,1,1,.9.9.913.913,0,0,1-.915-.885h.015Zm-3.571,0a.9.9,0,1,1,.9.9.913.913,0,0,1-.915-.885h.015Zm-3.571,0a.9.9,0,1,1,.9.9.913.913,0,0,1-.915-.885h.015Zm-5.371,0a.9.9,0,1,1,.9.9.913.913,0,0,1-.915-.885h.015Zm-1.785,0a.666.666,0,1,1-.015.03v-.015h.015Zm-1.785,0a.9.9,0,1,1,.9.9.913.913,0,0,1-.915-.885h.015Zm-3.586,0a.9.9,0,1,1,.9.9.913.913,0,0,1-.915-.885h.015Zm-3.571,0a.9.9,0,1,1,.9.9.913.913,0,0,1-.915-.885h.015Zm-1.785,0a.9.9,0,1,1,.9.9.913.913,0,0,1-.915-.885h.015Zm-1.785,0a.9.9,0,1,1,.9.9.913.913,0,0,1-.915-.885h.015Zm-8.942,0a.9.9,0,1,1,.9.9.913.913,0,0,1-.915-.885h.015Zm-1.8,0a.9.9,0,1,1,.9.9.913.913,0,0,1-.915-.885h.015Zm-1.785,0a.9.9,0,1,1,.9.9.913.913,0,0,1-.915-.885h.015Zm-1.785,0a.9.9,0,1,1,.9.9.913.913,0,0,1-.915-.885h.015ZM727,538a.9.9,0,1,1,.9.9.913.913,0,0,1-.915-.885H727Zm-1.8,0a.9.9,0,1,1,.9.9.913.913,0,0,1-.915-.885h.015Zm-5.356,0a.9.9,0,1,1,.9.9.913.913,0,0,1-.915-.885h.015Zm-1.785,0a.9.9,0,1,1,.9.9.913.913,0,0,1-.915-.885h0Zm-5.371,0a.9.9,0,1,1,.9.9.913.913,0,0,1-.915-.885h.015Zm64.352-1.785a.9.9,0,1,1,.9.9A.9.9,0,0,1,777.038,536.21Zm-3.571,0a.9.9,0,1,1,.9.9.89.89,0,0,1-.885-.9h0Zm-3.571,0a.9.9,0,1,1,.9.9.89.89,0,0,1-.885-.9h0Zm-1.785,0a.9.9,0,1,1,.9.9.89.89,0,0,1-.885-.9h0Zm-5.371,0a.9.9,0,1,1,.9.9.89.89,0,0,1-.885-.9h0Zm-12.513,0a.9.9,0,1,1,.9.9.89.89,0,0,1-.885-.9h0Zm-1.785,0a.9.9,0,1,1,.9.9.89.89,0,0,1-.885-.9h0Zm-5.371,0a.9.9,0,1,1,.9.9.89.89,0,0,1-.885-.9h0Zm-3.571,0a.9.9,0,1,1,.9.9.89.89,0,0,1-.885-.9h0Zm-5.371,0a.9.9,0,1,1,.9.9.89.89,0,0,1-.885-.9h0Zm-5.356,0a.9.9,0,1,1,.9.9.89.89,0,0,1-.885-.9h0Zm-1.8,0a.9.9,0,1,1,.9.9.89.89,0,0,1-.885-.9h0Zm-1.785,0a.9.9,0,1,1,.9.9.89.89,0,0,1-.885-.9h0Zm-3.571,0a.9.9,0,1,1,.9.9.89.89,0,0,1-.885-.9h0Zm-3.586,0a.9.9,0,1,1,.9.9.89.89,0,0,1-.885-.9h0Zm-3.571,0a.9.9,0,1,1,.9.9.89.89,0,0,1-.885-.9h0Zm64.382-1.785a.9.9,0,1,1,.9.9.89.89,0,0,1-.885-.9h0Zm-1.8,0a.9.9,0,1,1,.9.9A.9.9,0,0,1,777.038,534.424Zm-1.785,0a.9.9,0,1,1,.9.9.89.89,0,0,1-.885-.9h0Zm-7.142,0a.9.9,0,1,1,.9.9.89.89,0,0,1-.885-.9h0Zm-3.586,0a.9.9,0,1,1,.9.9.89.89,0,0,1-.885-.9h0Zm-1.785,0a.9.9,0,1,1,.9.9.89.89,0,0,1-.885-.9h0Zm-3.571,0a.9.9,0,1,1,.9.9.89.89,0,0,1-.885-.9h0Zm-3.586,0a.9.9,0,1,1,.9.9.89.89,0,0,1-.885-.9h0Zm-7.142,0a.9.9,0,1,1,.9.9.89.89,0,0,1-.885-.9h0Zm-3.586,0a.9.9,0,1,1,.9.9.89.89,0,0,1-.885-.9h0Zm-1.785,0a.9.9,0,1,1,.9.9.89.89,0,0,1-.885-.9h0Zm-3.571,0a.9.9,0,1,1,.9.9.89.89,0,0,1-.885-.9h0Zm-1.8,0a.9.9,0,1,1,.9.9.89.89,0,0,1-.885-.9h0Zm-1.785,0a.9.9,0,1,1,.9.9.89.89,0,0,1-.885-.9h0Zm-1.785,0a.9.9,0,1,1,.9.9.89.89,0,0,1-.885-.9h0Zm-1.785,0a.9.9,0,1,1,.9.9.89.89,0,0,1-.885-.9h0Zm-1.786,0a.9.9,0,1,1,.9.9.89.89,0,0,1-.885-.9h0Zm-7.157,0a.9.9,0,1,1,.9.9.89.89,0,0,1-.885-.9h0Zm-1.785,0a.9.9,0,1,1,.9.9.89.89,0,0,1-.885-.9h0Zm-1.786,0a.9.9,0,1,1,.9.9.89.89,0,0,1-.885-.9h0Zm-3.586,0a.9.9,0,1,1,.9.9.89.89,0,0,1-.885-.9h0Zm-1.785,0a.9.9,0,1,1,.9.9.89.89,0,0,1-.885-.9h0Zm-3.571,0a.9.9,0,1,1,.9.9.89.89,0,0,1-.885-.9h0Zm59.01-1.785a.9.9,0,1,1,.9.9.89.89,0,0,1-.885-.9h0Zm-1.785,0a.9.9,0,1,1,.9.9.89.89,0,0,1-.885-.9h0Zm-7.157,0a.9.9,0,1,1,.9.9.89.89,0,0,1-.885-.9h0Zm-1.785,0a.9.9,0,1,1,.9.9.89.89,0,0,1-.885-.9h0Zm-1.8,0a.9.9,0,1,1,.9.9.89.89,0,0,1-.885-.9h0Zm-3.571,0a.9.9,0,1,1,.9.9.89.89,0,0,1-.885-.9h0Zm-1.785,0a.9.9,0,1,1,.9.9.89.89,0,0,1-.885-.9h0Zm-1.786,0a.9.9,0,1,1,.9.9.89.89,0,0,1-.885-.9h0Zm-3.586,0a.9.9,0,1,1,.9.9.89.89,0,0,1-.885-.9h0Zm-1.785,0a.9.9,0,1,1,.9.9.89.89,0,0,1-.885-.9h0Zm-1.785,0a.9.9,0,1,1,.9.9.89.89,0,0,1-.885-.9h0Zm-3.571,0a.9.9,0,1,1,.9.9.89.89,0,0,1-.885-.9h0Zm-1.8,0a.9.9,0,1,1,.9.9.89.89,0,0,1-.885-.9h0Zm-1.785,0a.9.9,0,1,1,.9.9.89.89,0,0,1-.885-.9h0Zm-1.785,0a.9.9,0,1,1,.9.9.89.89,0,0,1-.885-.9h0Zm-1.785,0a.9.9,0,1,1,.9.9.89.89,0,0,1-.885-.9h0Zm-1.786,0a.9.9,0,1,1,.9.9.89.89,0,0,1-.885-.9h0Zm-5.371,0a.9.9,0,1,1,.9.9.89.89,0,0,1-.885-.9h0Zm-3.571,0a.9.9,0,1,1,.9.9.89.89,0,0,1-.885-.9h0Zm-3.586,0a.9.9,0,1,1,.9.9.89.89,0,0,1-.885-.9h0Zm-7.142,0a.9.9,0,1,1,.9.9.89.89,0,0,1-.885-.9h0Zm69.738-1.785a.9.9,0,1,1,.9.9.89.89,0,0,1-.885-.9h0Zm-5.371,0a.9.9,0,1,1,.9.9.89.89,0,0,1-.885-.9h0Zm-5.356,0a.9.9,0,1,1,.9.9.89.89,0,0,1-.885-.9h0Zm-7.157,0a.9.9,0,1,1,.9.9.89.89,0,0,1-.885-.9h0Zm-1.785,0a.9.9,0,1,1,.9.9.89.89,0,0,1-.885-.9h0Zm-1.785,0a.9.9,0,1,1,.9.9.89.89,0,0,1-.885-.9h0Zm-1.785,0a.9.9,0,1,1,.9.9A.9.9,0,0,1,757.382,530.853Zm-3.586,0a.9.9,0,1,1,.9.9.89.89,0,0,1-.885-.9h0Zm-3.571,0a.9.9,0,1,1,.9.9.89.89,0,0,1-.885-.9h0Zm-3.586,0a.9.9,0,1,1,.9.9.89.89,0,0,1-.885-.9h0Zm-3.571,0a.9.9,0,1,1,.9.9.89.89,0,0,1-.885-.9h0Zm-8.942,0a.9.9,0,1,1,.9.9.89.89,0,0,1-.885-.9h0Zm-3.571,0a.9.9,0,1,1,.9.9.89.89,0,0,1-.885-.9h0Zm-3.586,0a.9.9,0,1,1,.9.9.89.89,0,0,1-.885-.9h0Zm-3.571,0a.9.9,0,1,1,.9.9.89.89,0,0,1-.885-.9h0Zm-1.785,0a.9.9,0,1,1,.9.9.89.89,0,0,1-.885-.9h0Zm-1.786,0a.9.9,0,1,1,.9.9.89.89,0,0,1-.885-.9h0Zm-1.785,0a.9.9,0,1,1,.9.9.89.89,0,0,1-.885-.9h0Zm-1.8,0a.9.9,0,1,1,.9.9.89.89,0,0,1-.885-.9h0Zm-3.571,0a.9.9,0,1,1,.9.9.89.89,0,0,1-.885-.9h0Zm-3.571,0a.9.9,0,1,1,.9.9.89.89,0,0,1-.885-.9h0Zm71.524-1.8a.9.9,0,1,1,.9.9.89.89,0,0,1-.885-.9h0Zm-12.513,0a.9.9,0,1,1,.9.9.89.89,0,0,1-.885-.9h0Zm-1.785,0a.9.9,0,1,1,.9.9.89.89,0,0,1-.885-.9h0Zm-1.8,0a.9.9,0,1,1,.9.9.881.881,0,0,1-.885-.9h0Zm-1.785,0a.9.9,0,1,1,.9.9.881.881,0,0,1-.885-.9h0Zm-5.356,0a.9.9,0,1,1,.9.9.9.9,0,0,1-.9-.9Zm-3.586,0a.9.9,0,1,1,.9.9.89.89,0,0,1-.885-.9h0Zm-1.785,0a.9.9,0,1,1,.9.9.881.881,0,0,1-.885-.9h0Zm-1.786,0a.9.9,0,1,1,.9.9.881.881,0,0,1-.885-.9h0Zm-5.371,0a.9.9,0,1,1,.9.9.89.89,0,0,1-.885-.9h0Zm-1.785,0a.9.9,0,1,1,.9.9.89.89,0,0,1-.885-.9h0Zm-3.571,0a.9.9,0,1,1,.9.9.881.881,0,0,1-.885-.9h0Zm-1.785,0a.9.9,0,1,1,.9.9.89.89,0,0,1-.885-.9h0Zm-1.8,0a.9.9,0,1,1,.9.9.89.89,0,0,1-.885-.9h0Zm-1.785,0a.9.9,0,1,1,.9.9.89.89,0,0,1-.885-.9h0Zm-5.356,0a.9.9,0,1,1,.9.9.89.89,0,0,1-.885-.9h0Zm-7.157,0a.9.9,0,1,1,.9.9.89.89,0,0,1-.885-.9h0Zm-3.571,0a.9.9,0,1,1,.9.9.89.89,0,0,1-.885-.9h0Zm-5.371,0a.9.9,0,1,1,.9.9.89.89,0,0,1-.885-.9h0Zm66.167-1.785a.9.9,0,1,1,.9.9.89.89,0,0,1-.885-.9h0Zm-3.586,0a.9.9,0,1,1,.9.9.89.89,0,0,1-.885-.9h0Zm-3.571,0a.9.9,0,1,1,.9.9.89.89,0,0,1-.885-.9h0Zm-1.785,0a.9.9,0,1,1,.9.9.89.89,0,0,1-.885-.9h0Zm-1.785,0a.9.9,0,1,1,.9.9.89.89,0,0,1-.885-.9h0Zm-1.785,0a.9.9,0,1,1,.9.9.89.89,0,0,1-.885-.9h0Zm-1.8,0a.9.9,0,1,1,.9.9.881.881,0,0,1-.885-.9h0Zm-3.571,0a.9.9,0,1,1,.9.9.89.89,0,0,1-.885-.9h0Zm-5.371,0a.9.9,0,1,1,.9.9.89.89,0,0,1-.885-.9h0Zm-1.785,0a.9.9,0,1,1,.9.9.89.89,0,0,1-.885-.9h0Zm-8.942,0a.9.9,0,1,1,.9.9.89.89,0,0,1-.885-.9h0Zm-3.571,0a.9.9,0,1,1,.9.9.89.89,0,0,1-.885-.9h0Zm-5.371,0a.9.9,0,1,1,.9.9.89.89,0,0,1-.885-.9h0Zm-7.142,0a.9.9,0,1,1,.9.9.89.89,0,0,1-.885-.9h0Zm-3.586,0a.9.9,0,1,1,.9.9.89.89,0,0,1-.885-.9h0Zm-1.785,0a.9.9,0,1,1,.9.9.89.89,0,0,1-.885-.9h0Zm-1.785,0a.9.9,0,1,1,.9.9.89.89,0,0,1-.885-.9h0Zm-1.786,0a.9.9,0,1,1,.9.9.89.89,0,0,1-.885-.9h0Zm-1.785,0a.9.9,0,1,1,.9.9.89.89,0,0,1-.885-.9h0Zm-3.586,0a.9.9,0,1,1,.9.9.881.881,0,0,1-.885-.9h0Zm-1.785,0a.9.9,0,1,1,.9.9.89.89,0,0,1-.885-.9h0Zm-3.571,0a.9.9,0,1,1,.9.9.89.89,0,0,1-.885-.9h0Zm50.068-1.785a.893.893,0,1,1,0,.015h0Zm-8.942,0a.893.893,0,1,1,0,.015h0Zm-3.571,0a.893.893,0,1,1,0,.015h0Zm-7.157,0a.893.893,0,1,1,0,.015h0Zm-1.785,0a.893.893,0,1,1,0,.015h0Zm-1.785,0a.893.893,0,1,1,0,.015h0Zm-3.586,0a.893.893,0,1,1,0,.015h0Zm-3.571,0a.893.893,0,1,1,0,.015h0Zm-3.571,0a.893.893,0,1,1,0,.015h0Zm-1.8,0a.893.893,0,1,1,0,.015h0Zm42.926-1.785a.893.893,0,1,1,0,.015h0Zm-3.586,0a.893.893,0,1,1,0,.015h0Zm-3.571,0a.893.893,0,1,1,0,.015h0Zm-3.571,0a.893.893,0,1,1,0,.015h0Zm-3.586,0a.893.893,0,1,1,0,.015h0Zm-3.571,0a.893.893,0,1,1,0,.015h0Zm-3.571,0a.893.893,0,1,1,0,.015h0Zm-3.586,0a.893.893,0,1,1,0,.015h0Zm-3.571,0a.893.893,0,1,1,0,.015h0Zm-3.586,0a.893.893,0,1,1,0,.015h0Zm-3.571,0a.893.893,0,1,1,0,.015h0Zm-3.571,0a.893.893,0,1,1,0,.015h0Zm-3.586,0a.893.893,0,1,1,0,.015h0Zm42.926-1.785a.893.893,0,1,1,0,.015h0Zm-1.785,0a.893.893,0,1,1,0,.015h0Zm-3.586,0a.893.893,0,1,1,0,.015h0Zm-1.785,0a.893.893,0,1,1,0,.015h0Zm-1.785,0a.9.9,0,1,1,.9.9.89.89,0,0,1-.9-.885h0Zm-1.785,0a.893.893,0,1,1,0,.015h0Zm-5.371,0a.893.893,0,1,1,0,.015h0Zm-1.785,0a.893.893,0,1,1,0,.015h0Zm-10.728,0a.893.893,0,1,1,0,.015h0Zm-1.785,0a.893.893,0,1,1,0,.015h0Zm-1.8,0a.893.893,0,1,1,0,.015h0Zm-1.785,0a.893.893,0,1,1,0,.015h0Zm-3.571,0a.893.893,0,1,1,0,.015h0Zm-3.571,0a.893.893,0,1,1,0,.015h0Zm-1.8,0a.893.893,0,1,1,0,.015h0Zm42.926-1.785a.893.893,0,1,1,0,.015h0Zm-1.785,0a.893.893,0,1,1,0,.015h0Zm-3.586,0a.893.893,0,1,1,0,.015h0Zm-5.356,0a.893.893,0,1,1,0,.015h0Zm-1.8,0a.893.893,0,1,1,0,.015h0Zm-7.142,0a.893.893,0,1,1,0,.015h0Zm-7.157,0a.893.893,0,1,1,0,.015h0Zm-1.785,0a.893.893,0,1,1,0,.015h0Zm-1.785,0a.893.893,0,1,1,0,.015h0Zm-1.8,0a.893.893,0,1,1,0,.015h0Zm-5.356,0a.893.893,0,1,1,0,.015h0Zm-1.785,0a.893.893,0,1,1,0,.015h0Zm39.34-1.8a.9.9,0,1,1,.9.9.89.89,0,0,1-.885-.9h0Zm-1.8,0a.9.9,0,1,1,.9.9.881.881,0,0,1-.885-.9h0Zm-16.084,0a.9.9,0,1,1,.9.9.89.89,0,0,1-.885-.9h0Zm-3.586,0a.9.9,0,1,1,.9.9.89.89,0,0,1-.885-.9h0Zm-3.571,0a.9.9,0,1,1,.9.9.89.89,0,0,1-.885-.9h0Zm-3.571,0a.9.9,0,1,1,.9.9.881.881,0,0,1-.885-.9h0Zm-1.8,0a.9.9,0,1,1,.9.9.89.89,0,0,1-.885-.9h0Zm-12.513,0a.9.9,0,1,1,.9.9.89.89,0,0,1-.885-.9h0Zm42.926-1.786a.9.9,0,1,1,.9.9A.9.9,0,0,1,766.325,516.54Zm-3.586,0a.9.9,0,1,1,.9.9A.9.9,0,0,1,762.739,516.54Zm-3.571,0a.9.9,0,1,1,.9.9A.9.9,0,0,1,759.168,516.54Zm-3.571,0a.9.9,0,1,1,.9.9A.9.9,0,0,1,755.6,516.54Zm-1.8,0a.9.9,0,1,1,.9.9A.9.9,0,0,1,753.8,516.54Zm-3.571,0a.9.9,0,1,1,.9.9A.9.9,0,0,1,750.226,516.54Zm-8.942,0a.9.9,0,1,1,.9.9A.9.9,0,0,1,741.283,516.54Zm-3.571,0a.9.9,0,1,1,.9.9A.9.9,0,0,1,737.712,516.54Zm-3.586,0a.9.9,0,1,1,.9.9A.9.9,0,0,1,734.126,516.54Zm-1.785,0a.9.9,0,1,1,.9.9A.9.9,0,0,1,732.341,516.54Zm28.612-1.785a.9.9,0,1,1,.9.9A.9.9,0,0,1,760.953,514.754Zm-3.571,0a.9.9,0,1,1,.9.9A.9.9,0,0,1,757.382,514.754Zm-7.157,0a.9.9,0,1,1,.9.9.89.89,0,0,1-.885-.9h0Zm-5.371,0a.9.9,0,1,1,.9.9.89.89,0,0,1-.885-.9h0Zm-1.785,0a.9.9,0,1,1,.9.9.89.89,0,0,1-.885-.9h0Zm-3.571,0a.9.9,0,1,1,.9.9.89.89,0,0,1-.885-.9h0Zm-5.371,0a.9.9,0,1,1,.9.9.89.89,0,0,1-.885-.9h0Zm-1.785,0a.9.9,0,1,1,.9.9.89.89,0,0,1-.885-.9h0Zm-3.571,0a.9.9,0,1,1,.9.9.89.89,0,0,1-.885-.9h0Zm-1.8,0a.9.9,0,1,1,.9.9.89.89,0,0,1-.885-.9h0Zm-3.571,0a.9.9,0,1,1,.9.9.89.89,0,0,1-.885-.9h0Zm42.926-1.785a.9.9,0,1,1,.9.9A.9.9,0,0,1,766.325,512.969Zm-3.586,0a.9.9,0,1,1,.9.9A.9.9,0,0,1,762.739,512.969Zm-8.942,0a.9.9,0,1,1,.9.9A.9.9,0,0,1,753.8,512.969Zm-3.571,0a.9.9,0,1,1,.9.9A.9.9,0,0,1,750.226,512.969Zm-3.571,0a.9.9,0,1,1,.9.9A.9.9,0,0,1,746.655,512.969Zm-3.586,0a.9.9,0,1,1,.9.9A.9.9,0,0,1,743.069,512.969Zm-7.142,0a.9.9,0,1,1,.9.9A.9.9,0,0,1,735.927,512.969Zm-1.8,0a.9.9,0,1,1,.9.9A.9.9,0,0,1,734.126,512.969Zm-1.785,0a.9.9,0,1,1,.9.9A.9.9,0,0,1,732.341,512.969Zm-1.786,0a.9.9,0,1,1,.9.9A.9.9,0,0,1,730.555,512.969Zm-3.571,0a.9.9,0,1,1,.9.9A.9.9,0,0,1,726.984,512.969Zm-1.8,0a.9.9,0,1,1,.9.9A.9.9,0,0,1,725.184,512.969Z" fill="none"/>
    </clipPath>
    <clipPath id="clip-path-2">
      <path id="Trazado_1953" data-name="Trazado 1953" d="M715.357,512.068a6.264,6.264,0,1,0,.015,0h-.015Zm0,1.785a4.464,4.464,0,1,1-.015,0Z" fill="none"/>
    </clipPath>
    <clipPath id="clip-path-3">
      <path id="Trazado_1954" data-name="Trazado 1954" d="M715.357,515.654a2.686,2.686,0,1,1-2.686,2.686A2.683,2.683,0,0,1,715.357,515.654Z" fill="none"/>
    </clipPath>
    <clipPath id="clip-path-4">
      <path id="Trazado_1955" data-name="Trazado 1955" d="M782.409,518.325a6.264,6.264,0,1,0,0,.015h0Zm-1.785,0a4.464,4.464,0,1,1,0-.015h0Z" fill="none"/>
    </clipPath>
    <clipPath id="clip-path-5">
      <path id="Trazado_1956" data-name="Trazado 1956" d="M778.838,518.325a2.686,2.686,0,1,1-2.686-2.686A2.683,2.683,0,0,1,778.838,518.325Z" fill="none"/>
    </clipPath>
    <clipPath id="clip-path-6">
      <path id="Trazado_1957" data-name="Trazado 1957" d="M709.1,579.136a6.264,6.264,0,1,0,0-.015h0Zm1.785,0a4.464,4.464,0,1,1,0,.015h0Z" fill="none"/>
    </clipPath>
    <clipPath id="clip-path-7">
      <path id="Trazado_1958" data-name="Trazado 1958" d="M712.671,579.136a2.686,2.686,0,1,1,2.686,2.686A2.683,2.683,0,0,1,712.671,579.136Z" fill="none"/>
    </clipPath>
  </defs>
  <g id="_6_QR_Suspensión_Anulación_y_Renuncia_de_carrera_-_Suspensión_de_Semestre_por_Salud" data-name="6_QR_Suspensión Anulación y Renuncia de carrera - Suspensión de Semestre por Salud" transform="translate(-705.199 -508.167)">
    <rect id="Rectángulo_1219" data-name="Rectángulo 1219" width="81.276" height="110.276" transform="translate(705.199 508.167)" fill="#fff"/>
    <g id="Grupo_2636" data-name="Grupo 2636" clip-path="url(#clip-path)">
      <g id="Grupo_2430" data-name="Grupo 2430">
        <rect id="Rectángulo_1220" data-name="Rectángulo 1220" width="81.276" height="81.276" transform="translate(705.199 508.167)"/>
      </g>
    </g>
    <g id="Grupo_2637" data-name="Grupo 2637" clip-path="url(#clip-path-2)">
      <g id="Grupo_2431" data-name="Grupo 2431">
        <rect id="Rectángulo_1221" data-name="Rectángulo 1221" width="12.513" height="12.513" transform="translate(709.1 512.069)"/>
      </g>
    </g>
    <g id="Grupo_2638" data-name="Grupo 2638" clip-path="url(#clip-path-3)">
      <g id="Grupo_2432" data-name="Grupo 2432">
        <rect id="Rectángulo_1222" data-name="Rectángulo 1222" width="5.371" height="5.371" transform="translate(712.671 515.654)"/>
      </g>
    </g>
    <g id="Grupo_2639" data-name="Grupo 2639" clip-path="url(#clip-path-4)">
      <g id="Grupo_2433" data-name="Grupo 2433">
        <rect id="Rectángulo_1223" data-name="Rectángulo 1223" width="12.513" height="12.513" transform="translate(769.896 512.069)"/>
      </g>
    </g>
    <g id="Grupo_2640" data-name="Grupo 2640" clip-path="url(#clip-path-5)">
      <g id="Grupo_2434" data-name="Grupo 2434">
        <rect id="Rectángulo_1224" data-name="Rectángulo 1224" width="5.371" height="5.371" transform="translate(773.467 515.654)"/>
      </g>
    </g>
    <g id="Grupo_2641" data-name="Grupo 2641" clip-path="url(#clip-path-6)">
      <g id="Grupo_2435" data-name="Grupo 2435">
        <rect id="Rectángulo_1225" data-name="Rectángulo 1225" width="12.513" height="12.513" transform="translate(709.1 572.864)"/>
      </g>
    </g>
    <g id="Grupo_2642" data-name="Grupo 2642" clip-path="url(#clip-path-7)">
      <g id="Grupo_2436" data-name="Grupo 2436">
        <rect id="Rectángulo_1226" data-name="Rectángulo 1226" width="5.371" height="5.371" transform="translate(712.671 576.45)"/>
      </g>
    </g>
  </g>
</svg>
