<svg xmlns="http://www.w3.org/2000/svg" width="47.571" height="47.446" viewBox="0 0 47.571 47.446">
  <path id="Lupa" d="M499.586,186.486l-7.588-7.5a4.436,4.436,0,0,0-3.793-1.229l-2.579-2.6a18.581,18.581,0,0,0,3.793-11.018,18.059,18.059,0,1,0-18.059,18.211c10.016,0,7.891-1.381,10.928-3.672l2.579,2.6a3.437,3.437,0,0,0,1.214,3.672l7.588,7.5a3.859,3.859,0,0,0,3.03,1.229,4.761,4.761,0,0,0,3.035-1.229,4.474,4.474,0,0,0,0-5.964Zm-28.227-7.952A14.538,14.538,0,1,1,485.775,164a14.538,14.538,0,0,1-14.416,14.538" transform="translate(-453.301 -146.238)" fill="#fff"/>
</svg>
