<svg xmlns="http://www.w3.org/2000/svg" width="28.876" height="26.919" viewBox="0 0 28.876 26.919">
  <g id="phoneold" transform="translate(0.001)">
    <path id="Trazado_2018" data-name="Trazado 2018" d="M.112,26.919S0,24.082,0,23.023V21.1a10.32,10.32,0,0,1,1.029-4.332,11.2,11.2,0,0,1,2.735-3.747C4.172,12.663,9.108,7.4,11.4,7.318s4.326-.121,6.214,0,6.923,5.195,7.5,5.707a11.2,11.2,0,0,1,2.735,3.747A10.32,10.32,0,0,1,28.876,21.1v5.815ZM14.437,13.43A5.049,5.049,0,0,0,10.6,15.124,5.766,5.766,0,0,0,9.023,19.2,5.714,5.714,0,0,0,10.6,23.263a5.22,5.22,0,0,0,7.67,0,5.733,5.733,0,0,0,1.579-4.077,5.733,5.733,0,0,0-1.579-4.077A5.07,5.07,0,0,0,14.437,13.43ZM25.266,9.593H24.35l-.8-.03-.775-.09-.564-.165-.423-.27-.127-.4c-.47-3.527-5.7-4.8-7.219-4.8s-6.749,1.269-7.219,4.8a.644.644,0,0,1-.127.4.9.9,0,0,1-.423.27,4.9,4.9,0,0,1-.564.165,5.2,5.2,0,0,1-.775.09q-.508.03-.8.03h-1.9L1.8,9.563l-.761-.09L.507,9.308l-.395-.27L0,8.634V6.025a3.976,3.976,0,0,1,1.96-3.253A13.934,13.934,0,0,1,7.162.689,35.106,35.106,0,0,1,14.437,0a35.106,35.106,0,0,1,7.276.689,13.934,13.934,0,0,1,5.2,2.083,3.976,3.976,0,0,1,1.96,3.253V8.634a.7.7,0,0,1-.113.4.8.8,0,0,1-.395.27,4.529,4.529,0,0,1-.536.165,4.814,4.814,0,0,1-.761.09q-.508.03-.818.03Z" transform="translate(0)"/>
  </g>
</svg>
