<svg xmlns="http://www.w3.org/2000/svg" xmlns:xlink="http://www.w3.org/1999/xlink" width="102.528" height="102.498" viewBox="0 0 102.528 102.498">
  <defs>
    <filter id="Trazado_1777" x="0" y="0" width="102.528" height="102.498" filterUnits="userSpaceOnUse">
      <feOffset dy="3" input="SourceAlpha"/>
      <feGaussianBlur stdDeviation="3" result="blur"/>
      <feFlood flood-opacity="0.376"/>
      <feComposite operator="in" in2="blur"/>
      <feComposite in="SourceGraphic"/>
    </filter>
  </defs>
  <g id="ICON_SALIR" transform="translate(9.5 6.5)">
    <g transform="matrix(1, 0, 0, 1, -9.5, -6.5)" filter="url(#Trazado_1777)">
      <path id="Trazado_1777-2" data-name="Trazado 1777" d="M545,53.107a41.764,41.764,0,1,1,41.779,41.734A41.776,41.776,0,0,1,545,53.107" transform="translate(-535.5 -4.84)" fill="#fff" stroke="#3e6f3a" stroke-width="1" fill-rule="evenodd"/>
    </g>
    <path id="Trazado_1778" data-name="Trazado 1778" d="M547.839,47.582a33.4,33.4,0,1,1,33.411,33.37,33.379,33.379,0,0,1-33.411-33.37" transform="translate(-539.471 -5.819)" fill="#7f7f7f" fill-rule="evenodd"/>
    <path id="Trazado_1779" data-name="Trazado 1779" d="M558.814,20.473l10.194,10.191L579.2,20.473l4.655,4.683L573.663,35.347l10.194,10.191L579.2,50.191,569.008,40,558.814,50.191l-4.685-4.653,10.194-10.191L554.129,25.156Z" transform="translate(-527.229 6.417)" fill="#fff" fill-rule="evenodd"/>
    <path id="Trazado_1780" data-name="Trazado 1780" d="M558.814,20.473l10.194,10.191L579.2,20.473l4.655,4.683L573.663,35.347l10.194,10.191L579.2,50.191,569.008,40,558.814,50.191l-4.685-4.653,10.194-10.191L554.129,25.156Z" transform="translate(-527.229 6.417)" fill="none" stroke="#fff" stroke-miterlimit="8" stroke-width="0.5"/>
  </g>
</svg>
