<svg xmlns="http://www.w3.org/2000/svg" width="134" height="126" viewBox="0 0 134 126">
  <g id="ICON_PRACT" transform="translate(-1716.443 -687)">
    <rect id="UB_S" width="134" height="126" transform="translate(1716.443 687)" fill="#fff" opacity="0"/>
    <path id="Trazado_125" data-name="Trazado 125" d="M2495.672,1040.873a15.656,15.656,0,0,0-15.664-15.66v-12.841a28.5,28.5,0,1,1,0,57v-12.842a15.66,15.66,0,0,0,15.664-15.658" transform="translate(-719.565 -291.373)" fill="#fff" fill-rule="evenodd"/>
    <path id="Trazado_126" data-name="Trazado 126" d="M2514.579,1040.873c0,8.65,7.382,15.658,16.489,15.658v12.842c-16.579,0-30.008-12.758-30.008-28.5s13.444-28.5,30.008-28.5v12.841c-9.107,0-16.489,7.014-16.489,15.66" transform="translate(-724.614 -291.373)" fill="#fff" fill-rule="evenodd"/>
  </g>
</svg>
