<svg xmlns="http://www.w3.org/2000/svg" width="117" height="122" viewBox="0 0 117 122">
  <g id="ICON_CONST_H" transform="translate(-830 -872)">
    <rect id="UB_S" width="117" height="122" transform="translate(830 872)" fill="#fff" opacity="0"/>
    <path id="Trazado_1" data-name="Trazado 1" d="M1229.527,1301.243h-13.443a5.7,5.7,0,0,1,0-11.4h13.443a5.7,5.7,0,0,0,0-11.4h-13.443a5.7,5.7,0,0,1,0-11.4h44.4a5.7,5.7,0,0,1,0,11.4h-13.443a5.7,5.7,0,0,0,0,11.4h13.443a5.7,5.7,0,0,1,0,11.4h-13.443a5.7,5.7,0,0,0,0,11.4h13.449a5.7,5.7,0,0,1,0,11.4h-44.4a5.7,5.7,0,0,1,0-11.4h13.443a5.7,5.7,0,0,0,0-11.4Z" transform="translate(-349.53 -363.043)" fill="#fff" fill-rule="evenodd"/>
  </g>
</svg>
