<svg xmlns="http://www.w3.org/2000/svg" width="117" height="122" viewBox="0 0 117 122">
  <g id="ICON_CALEN" transform="translate(-229 -872)">
    <rect id="UB_S" width="117" height="122" transform="translate(229 872)" fill="#fff" opacity="0"/>
    <path id="Trazado_133" data-name="Trazado 133" d="M362.106,1324.044h57.015v-57H362.106Zm11.558-11.553a27.274,27.274,0,0,0,3.148-7.211,36.128,36.128,0,0,0,0-19.465,27.252,27.252,0,0,0-3.148-7.211,27.285,27.285,0,0,0,7.212,3.148,34.893,34.893,0,0,0,9.725,1.334,35.478,35.478,0,0,0,9.744-1.334,27.284,27.284,0,0,0,7.212-3.148,27.3,27.3,0,0,0-3.148,7.211,36.128,36.128,0,0,0,0,19.465,27.322,27.322,0,0,0,3.148,7.211,27.256,27.256,0,0,0-7.212-3.148,35.473,35.473,0,0,0-9.744-1.335,34.888,34.888,0,0,0-9.725,1.335,27.257,27.257,0,0,0-7.212,3.148" transform="translate(-103.106 -362.044)" fill="#fff" fill-rule="evenodd"/>
  </g>
</svg>
