<?xml version="1.0" encoding="UTF-8"?>
<svg id="Capa_2" xmlns="http://www.w3.org/2000/svg" xmlns:xlink="http://www.w3.org/1999/xlink" version="1.1" viewBox="0 0 787 454.8">
  <!-- Generator: Adobe Illustrator 29.3.1, SVG Export Plug-In . SVG Version: 2.1.0 Build 151)  -->
  <defs>
    <style>
      .st0, .st1, .st2 {
        fill: none;
      }

      .st3, .st4, .st5, .st6, .st7, .st8, .st9, .st10 {
        fill: #fff;
      }

      .st3, .st11 {
        fill-rule: evenodd;
      }

      .st4 {
        font-size: 25px;
      }

      .st4, .st12, .st13, .st14, .st5, .st7, .st8, .st9, .st15, .st10 {
        isolation: isolate;
      }

      .st4, .st12, .st14, .st5, .st9, .st10 {
        font-weight: 700;
      }

      .st4, .st12, .st14, .st9, .st10 {
        font-family: Arial-BoldMT, Arial;
      }

      .st12, .st14, .st11, .st15 {
        fill: #173f8a;
      }

      .st12, .st9 {
        font-size: 17px;
      }

      .st1 {
        stroke: #fff;
        stroke-width: 1.3px;
      }

      .st1, .st2 {
        stroke-linejoin: round;
      }

      .st14 {
        font-size: 24px;
      }

      .st5 {
        font-family: Arial-BoldItalicMT, Arial;
      }

      .st5, .st8 {
        font-style: italic;
      }

      .st5, .st8, .st15 {
        font-size: 13px;
      }

      .st16 {
        clip-path: url(#clippath-1);
      }

      .st17 {
        clip-path: url(#clippath-3);
      }

      .st18 {
        clip-path: url(#clippath-4);
      }

      .st19 {
        clip-path: url(#clippath-2);
      }

      .st7 {
        font-size: 11px;
      }

      .st7, .st15 {
        font-family: ArialMT, Arial;
      }

      .st8 {
        font-family: Arial-ItalicMT, Arial;
      }

      .st2 {
        stroke: #173f8a;
      }

      .st20 {
        clip-path: url(#clippath);
      }

      .st10 {
        font-size: 19px;
      }
    </style>
    <clipPath id="clippath">
      <rect class="st0" x="285" y="199.9" width="111" height="111"/>
    </clipPath>
    <clipPath id="clippath-1">
      <rect class="st0" x="490" width="294" height="454"/>
    </clipPath>
    <clipPath id="clippath-2">
      <rect class="st0" x="493" y="1" width="294" height="452.9"/>
    </clipPath>
    <clipPath id="clippath-3">
      <path class="st0" d="M363.7,206.8c0,.9.7,1.6,1.5,1.6s1.5-.7,1.5-1.6-.7-1.5-1.5-1.5-1.5.7-1.5,1.5ZM360.6,206.8c0,.9.7,1.6,1.5,1.6s1.5-.7,1.5-1.6-.7-1.5-1.5-1.5-1.5.7-1.5,1.5ZM357.5,206.8c0,.9.7,1.6,1.5,1.6s1.5-.7,1.5-1.6-.7-1.5-1.5-1.5-1.5.7-1.5,1.5ZM354.3,206.8c0,.9.7,1.6,1.5,1.6s1.5-.7,1.5-1.6-.7-1.5-1.5-1.5-1.5.7-1.5,1.5ZM351.2,206.8c0,.9.7,1.6,1.5,1.6s1.5-.7,1.5-1.6-.7-1.5-1.5-1.5-1.5.7-1.5,1.5ZM326.4,206.8c0,.9.7,1.6,1.5,1.6s1.5-.7,1.5-1.6-.7-1.5-1.5-1.5-1.5.7-1.5,1.5ZM323.2,206.8c0,.9.7,1.6,1.5,1.6s1.5-.7,1.5-1.6-.7-1.5-1.5-1.5-1.5.7-1.5,1.5ZM320.1,206.8c0,.9.7,1.6,1.5,1.6s1.5-.7,1.5-1.6-.7-1.5-1.5-1.5-1.5.7-1.5,1.5ZM317,206.8c0,.9.7,1.6,1.5,1.6-.9,0-1.5.7-1.5,1.5s.7,1.5,1.5,1.5c-.9,0-1.5.7-1.5,1.6s.7,1.5,1.5,1.5,1.5-.7,1.5-1.5-.7-1.6-1.5-1.6c.9,0,1.5-.7,1.5-1.5s-.7-1.5-1.5-1.5c.9,0,1.5-.7,1.5-1.6s-.7-1.5-1.5-1.5-1.5.7-1.5,1.5ZM299.9,205.2c-6,0-10.9,4.9-10.9,10.9,0,6,4.9,10.9,10.9,10.9,6,0,10.9-4.9,10.9-10.9,0-6-4.9-10.9-10.9-10.9h0ZM299.9,223.9c-4.3,0-7.8-3.5-7.8-7.8,0-4.3,3.5-7.8,7.8-7.8h0c4.3,0,7.8,3.5,7.8,7.8,0,4.3-3.5,7.8-7.8,7.8h0ZM380.8,205.2c-6,0-10.9,4.9-10.9,10.9,0,6,4.9,10.9,10.9,10.9,6,0,10.9-4.9,10.9-10.9h0c0-6-4.9-10.9-10.9-10.9h0ZM380.8,223.9c-4.3,0-7.8-3.5-7.8-7.8,0-4.3,3.5-7.8,7.8-7.8,4.3,0,7.8,3.5,7.8,7.8h0c0,4.3-3.5,7.8-7.8,7.8h0ZM338.8,209.9c0,.9.7,1.5,1.5,1.5-.9,0-1.5.7-1.5,1.6s.7,1.5,1.5,1.5,1.5-.7,1.5-1.5-.7-1.6-1.5-1.6c.9,0,1.5-.7,1.5-1.5s-.7-1.5-1.5-1.5-1.5.7-1.5,1.5ZM335.7,209.9c0,.9.7,1.5,1.5,1.5s1.5-.7,1.5-1.5-.7-1.5-1.5-1.5-1.5.7-1.5,1.5ZM332.6,209.9c0,.9.7,1.5,1.5,1.5s1.5-.7,1.5-1.5-.7-1.5-1.5-1.5-1.5.7-1.5,1.5ZM313.9,209.9c0,.9.7,1.5,1.5,1.5-.9,0-1.5.7-1.5,1.6s.7,1.5,1.5,1.5c-.9,0-1.5.7-1.5,1.5s.7,1.5,1.5,1.5c-.9,0-1.5.7-1.5,1.5s.7,1.6,1.5,1.6c-.9,0-1.5.7-1.5,1.5s.7,1.5,1.5,1.5c-.9,0-1.5.7-1.5,1.6s.7,1.5,1.5,1.5c-.9,0-1.5.7-1.5,1.5s.7,1.5,1.5,1.5,1.5-.7,1.5-1.5-.7-1.5-1.5-1.5c.9,0,1.5-.7,1.5-1.5s-.7-1.6-1.5-1.6c.9,0,1.5-.7,1.5-1.5s-.7-1.5-1.5-1.5c.9,0,1.5-.7,1.5-1.6s-.7-1.5-1.5-1.5c.9,0,1.5-.7,1.5-1.5s-.7-1.5-1.5-1.5c.9,0,1.5-.7,1.5-1.5s-.7-1.6-1.5-1.6c.9,0,1.5-.7,1.5-1.5s-.7-1.5-1.5-1.5-1.5.7-1.5,1.5ZM376.1,216.1c0,2.6,2.1,4.7,4.7,4.7s4.7-2.1,4.7-4.7-2.1-4.7-4.7-4.7-4.7,2.1-4.7,4.7ZM363.7,213c0,.9.7,1.5,1.5,1.5s1.5-.7,1.5-1.5-.7-1.5-1.5-1.5-1.5.7-1.5,1.5ZM360.6,213c0,.9.7,1.5,1.5,1.5-.9,0-1.5.7-1.5,1.6s.7,1.5,1.5,1.5c-.9,0-1.5.7-1.5,1.5s.7,1.6,1.5,1.6c-.9,0-1.5.7-1.5,1.5s.7,1.5,1.5,1.5,1.5-.7,1.5-1.5-.7-1.5-1.5-1.5c.9,0,1.5-.7,1.5-1.6s-.7-1.5-1.5-1.5c.9,0,1.5-.7,1.5-1.5s-.7-1.6-1.5-1.6c.9,0,1.5-.7,1.5-1.5s-.7-1.5-1.5-1.5-1.5.7-1.5,1.5ZM357.5,213c0,.9.7,1.5,1.5,1.5s1.5-.7,1.5-1.5-.7-1.5-1.5-1.5-1.5.7-1.5,1.5ZM354.3,213c0,.9.7,1.5,1.5,1.5s1.5-.7,1.5-1.5-.7-1.5-1.5-1.5-1.5.7-1.5,1.5ZM348.1,213c0,.9.7,1.5,1.5,1.5s1.5-.7,1.5-1.5-.7-1.5-1.5-1.5-1.5.7-1.5,1.5ZM345,213c0,.9.7,1.5,1.5,1.5-.9,0-1.5.7-1.5,1.6s.7,1.5,1.5,1.5,1.5-.7,1.5-1.5-.7-1.6-1.5-1.6c.9,0,1.5-.7,1.5-1.5s-.7-1.5-1.5-1.5-1.5.7-1.5,1.5ZM341.9,213c0,.9.7,1.5,1.5,1.5s1.5-.7,1.5-1.5-.7-1.5-1.5-1.5-1.5.7-1.5,1.5ZM329.5,213c0,.9.7,1.5,1.5,1.5s1.5-.7,1.5-1.5-.7-1.5-1.5-1.5-1.5.7-1.5,1.5ZM326.4,213c0,.9.7,1.5,1.5,1.5s1.5-.7,1.5-1.5-.7-1.5-1.5-1.5-1.5.7-1.5,1.5ZM295.3,216.1c0,2.6,2.1,4.7,4.7,4.7s4.7-2.1,4.7-4.7-2.1-4.7-4.7-4.7-4.7,2.1-4.7,4.7ZM351.2,216.1c0,.9.7,1.5,1.5,1.5-.9,0-1.5.7-1.5,1.5s.7,1.5,1.5,1.5c-.9,0-1.5.7-1.5,1.5s.7,1.6,1.5,1.6c-.9,0-1.5.7-1.5,1.5s.7,1.5,1.5,1.5c-.9,0-1.5.7-1.5,1.6s.7,1.5,1.5,1.5,1.5-.7,1.5-1.5-.7-1.6-1.5-1.6c.9,0,1.5-.7,1.5-1.5s-.7-1.5-1.5-1.5c.9,0,1.5-.7,1.5-1.6s-.7-1.5-1.5-1.5c.9,0,1.5-.7,1.5-1.5s-.7-1.5-1.5-1.5c.9,0,1.5-.7,1.5-1.5s-.7-1.6-1.5-1.6-1.5.7-1.5,1.6ZM332.6,216.1c0,.9.7,1.5,1.5,1.5s1.5-.7,1.5-1.5-.7-1.6-1.5-1.6-1.5.7-1.5,1.6ZM320.1,216.1c0,.9.7,1.5,1.5,1.5-.9,0-1.5.7-1.5,1.5s.7,1.5,1.5,1.5c-.9,0-1.5.7-1.5,1.5s.7,1.6,1.5,1.6c-.9,0-1.5.7-1.5,1.5s.7,1.5,1.5,1.5,1.5-.7,1.5-1.5-.7-1.5-1.5-1.5c.9,0,1.5-.7,1.5-1.6s-.7-1.5-1.5-1.5c.9,0,1.5-.7,1.5-1.5s-.7-1.5-1.5-1.5c.9,0,1.5-.7,1.5-1.5s-.7-1.6-1.5-1.6-1.5.7-1.5,1.6ZM357.5,219.2c0,.9.7,1.5,1.5,1.5s1.5-.7,1.5-1.5-.7-1.6-1.5-1.6-1.5.7-1.5,1.6ZM348.1,219.2c0,.9.7,1.5,1.5,1.5s1.5-.7,1.5-1.5-.7-1.6-1.5-1.6-1.5.7-1.5,1.6ZM341.9,219.2c0,.9.7,1.5,1.5,1.5s1.5-.7,1.5-1.5-.7-1.6-1.5-1.6-1.5.7-1.5,1.6ZM329.5,219.2c0,.9.7,1.5,1.5,1.5s1.5-.7,1.5-1.5-.7-1.6-1.5-1.6-1.5.7-1.5,1.6ZM317,219.2c0,.9.7,1.5,1.5,1.5s1.5-.7,1.5-1.5-.7-1.6-1.5-1.6-1.5.7-1.5,1.6ZM345,222.3c0,.9.7,1.5,1.5,1.5-.9,0-1.5.7-1.5,1.5s.7,1.6,1.5,1.6c-.9,0-1.5.7-1.5,1.5s.7,1.5,1.5,1.5c-.9,0-1.5.7-1.5,1.6s.7,1.5,1.5,1.5c-.9,0-1.5.7-1.5,1.5s.7,1.5,1.5,1.5c-.9,0-1.5.7-1.5,1.5s.7,1.6,1.5,1.6,1.5-.7,1.5-1.6-.7-1.5-1.5-1.5c.9,0,1.5-.7,1.5-1.5s-.7-1.5-1.5-1.5c.9,0,1.5-.7,1.5-1.5s-.7-1.6-1.5-1.6c.9,0,1.5-.7,1.5-1.5s-.7-1.5-1.5-1.5c.9,0,1.5-.7,1.5-1.6s-.7-1.5-1.5-1.5c.9,0,1.5-.7,1.5-1.5s-.7-1.5-1.5-1.5-1.5.7-1.5,1.5ZM338.8,222.3c0,.9.7,1.5,1.5,1.5-.9,0-1.5.7-1.5,1.5s.7,1.6,1.5,1.6c-.9,0-1.5.7-1.5,1.5s.7,1.5,1.5,1.5c-.9,0-1.5.7-1.5,1.6s.7,1.5,1.5,1.5,1.5-.7,1.5-1.5-.7-1.6-1.5-1.6c.9,0,1.5-.7,1.5-1.5s-.7-1.5-1.5-1.5c.9,0,1.5-.7,1.5-1.6s-.7-1.5-1.5-1.5c.9,0,1.5-.7,1.5-1.5s-.7-1.5-1.5-1.5-1.5.7-1.5,1.5ZM332.6,222.3c0,.9.7,1.5,1.5,1.5-.9,0-1.5.7-1.5,1.5s.7,1.6,1.5,1.6,1.5-.7,1.5-1.6-.7-1.5-1.5-1.5c.9,0,1.5-.7,1.5-1.5s-.7-1.5-1.5-1.5-1.5.7-1.5,1.5ZM326.4,222.3c0,.9.7,1.5,1.5,1.5-.9,0-1.5.7-1.5,1.5s.7,1.6,1.5,1.6c-.9,0-1.5.7-1.5,1.5s.7,1.5,1.5,1.5,1.5-.7,1.5-1.5-.7-1.5-1.5-1.5c.9,0,1.5-.7,1.5-1.6s-.7-1.5-1.5-1.5c.9,0,1.5-.7,1.5-1.5s-.7-1.5-1.5-1.5-1.5.7-1.5,1.5ZM363.7,225.4c0,.9.7,1.5,1.5,1.5-.9,0-1.5.7-1.5,1.5s.7,1.6,1.5,1.6c-.9,0-1.5.7-1.5,1.5s.7,1.5,1.5,1.5,1.5-.7,1.5-1.5-.7-1.5-1.5-1.5c.9,0,1.5-.7,1.5-1.6s-.7-1.5-1.5-1.5c.9,0,1.5-.7,1.5-1.5s-.7-1.5-1.5-1.5-1.5.7-1.5,1.5ZM357.5,225.4c0,.9.7,1.5,1.5,1.5-.9,0-1.5.7-1.5,1.5s.7,1.6,1.5,1.6,1.5-.7,1.5-1.6-.7-1.5-1.5-1.5c.9,0,1.5-.7,1.5-1.5s-.7-1.5-1.5-1.5-1.5.7-1.5,1.5ZM354.3,228.5c0,.9.7,1.6,1.5,1.6s1.5-.7,1.5-1.6-.7-1.5-1.5-1.5-1.5.7-1.5,1.5ZM329.5,228.5c0,.9.7,1.6,1.5,1.6s1.5-.7,1.5-1.6-.7-1.5-1.5-1.5-1.5.7-1.5,1.5ZM317,228.5c0,.9.7,1.6,1.5,1.6s1.5-.7,1.5-1.6-.7-1.5-1.5-1.5-1.5.7-1.5,1.5ZM385.4,231.6c0,.9.7,1.6,1.5,1.6s1.5-.7,1.5-1.6-.7-1.5-1.5-1.5-1.5.7-1.5,1.5ZM382.3,231.6c0,.9.7,1.6,1.5,1.6s1.5-.7,1.5-1.6-.7-1.5-1.5-1.5-1.5.7-1.5,1.5ZM379.2,231.6c0,.9.7,1.6,1.5,1.6s1.5-.7,1.5-1.6-.7-1.5-1.5-1.5-1.5.7-1.5,1.5ZM376.1,231.6c0,.9.7,1.6,1.5,1.6s1.5-.7,1.5-1.6-.7-1.5-1.5-1.5-1.5.7-1.5,1.5ZM373,231.6c0,.9.7,1.6,1.5,1.6-.9,0-1.5.7-1.5,1.5s.7,1.5,1.5,1.5c-.9,0-1.5.7-1.5,1.6s.7,1.5,1.5,1.5,1.5-.7,1.5-1.5-.7-1.6-1.5-1.6c.9,0,1.5-.7,1.5-1.5s-.7-1.5-1.5-1.5c.9,0,1.5-.7,1.5-1.6s-.7-1.5-1.5-1.5-1.5.7-1.5,1.5ZM369.9,231.6c0,.9.7,1.6,1.5,1.6-.9,0-1.5.7-1.5,1.5s.7,1.5,1.5,1.5,1.5-.7,1.5-1.5-.7-1.5-1.5-1.5c.9,0,1.5-.7,1.5-1.6s-.7-1.5-1.5-1.5-1.5.7-1.5,1.5ZM366.8,231.6c0,.9.7,1.6,1.5,1.6-.9,0-1.5.7-1.5,1.5s.7,1.5,1.5,1.5c-.9,0-1.5.7-1.5,1.6s.7,1.5,1.5,1.5,1.5-.7,1.5-1.5-.7-1.6-1.5-1.6c.9,0,1.5-.7,1.5-1.5s-.7-1.5-1.5-1.5c.9,0,1.5-.7,1.5-1.6s-.7-1.5-1.5-1.5-1.5.7-1.5,1.5ZM360.6,231.6c0,.9.7,1.6,1.5,1.6s1.5-.7,1.5-1.6-.7-1.5-1.5-1.5-1.5.7-1.5,1.5ZM341.9,231.6c0,.9.7,1.6,1.5,1.6s1.5-.7,1.5-1.6-.7-1.5-1.5-1.5-1.5.7-1.5,1.5ZM323.2,231.6c0,.9.7,1.6,1.5,1.6-.9,0-1.5.7-1.5,1.5s.7,1.5,1.5,1.5,1.5-.7,1.5-1.5-.7-1.5-1.5-1.5c.9,0,1.5-.7,1.5-1.6s-.7-1.5-1.5-1.5-1.5.7-1.5,1.5ZM307.7,231.6c0,.9.7,1.6,1.5,1.6s1.5-.7,1.5-1.6-.7-1.5-1.5-1.5-1.5.7-1.5,1.5ZM304.6,231.6c0,.9.7,1.6,1.5,1.6s1.5-.7,1.5-1.6-.7-1.5-1.5-1.5-1.5.7-1.5,1.5ZM301.5,231.6c0,.9.7,1.6,1.5,1.6-.9,0-1.5.7-1.5,1.5s.7,1.5,1.5,1.5,1.5-.7,1.5-1.5-.7-1.5-1.5-1.5c.9,0,1.5-.7,1.5-1.6s-.7-1.5-1.5-1.5-1.5.7-1.5,1.5ZM289,231.6c0,.9.7,1.6,1.5,1.6-.9,0-1.5.7-1.5,1.5s.7,1.5,1.5,1.5c-.9,0-1.5.7-1.5,1.6s.7,1.5,1.5,1.5c-.9,0-1.5.7-1.5,1.5s.7,1.5,1.5,1.5c-.9,0-1.5.7-1.5,1.5s.7,1.6,1.5,1.6c-.9,0-1.5.7-1.5,1.5s.7,1.5,1.5,1.5,1.5-.7,1.5-1.5-.7-1.5-1.5-1.5c.9,0,1.5-.7,1.5-1.6s-.7-1.5-1.5-1.5c.9,0,1.5-.7,1.5-1.5s-.7-1.5-1.5-1.5c.9,0,1.5-.7,1.5-1.5s-.7-1.6-1.5-1.6c.9,0,1.5-.7,1.5-1.5s-.7-1.5-1.5-1.5c.9,0,1.5-.7,1.5-1.6s-.7-1.5-1.5-1.5-1.5.7-1.5,1.5ZM388.5,234.8c0,.9.7,1.5,1.5,1.5-.9,0-1.5.7-1.5,1.5s.7,1.5,1.5,1.5,1.5-.7,1.5-1.5-.7-1.5-1.5-1.5c.9,0,1.5-.7,1.5-1.5s-.7-1.5-1.5-1.5-1.5.7-1.5,1.5ZM357.5,234.8c0,.9.7,1.5,1.5,1.5s1.5-.7,1.5-1.5-.7-1.5-1.5-1.5-1.5.7-1.5,1.5ZM354.3,234.8c0,.9.7,1.5,1.5,1.5-.9,0-1.5.7-1.5,1.5s.7,1.5,1.5,1.5,1.5-.7,1.5-1.5-.7-1.5-1.5-1.5c.9,0,1.5-.7,1.5-1.5s-.7-1.5-1.5-1.5-1.5.7-1.5,1.5ZM332.6,234.8c0,.9.7,1.5,1.5,1.5-.9,0-1.5.7-1.5,1.5s.7,1.5,1.5,1.5,1.5-.7,1.5-1.5-.7-1.5-1.5-1.5c.9,0,1.5-.7,1.5-1.5s-.7-1.5-1.5-1.5-1.5.7-1.5,1.5ZM329.5,234.8c0,.9.7,1.5,1.5,1.5s1.5-.7,1.5-1.5-.7-1.5-1.5-1.5-1.5.7-1.5,1.5ZM326.4,234.8c0,.9.7,1.5,1.5,1.5-.9,0-1.5.7-1.5,1.5s.7,1.5,1.5,1.5,1.5-.7,1.5-1.5-.7-1.5-1.5-1.5c.9,0,1.5-.7,1.5-1.5s-.7-1.5-1.5-1.5-1.5.7-1.5,1.5ZM317,234.8c0,.9.7,1.5,1.5,1.5s1.5-.7,1.5-1.5-.7-1.5-1.5-1.5-1.5.7-1.5,1.5ZM313.9,234.8c0,.9.7,1.5,1.5,1.5s1.5-.7,1.5-1.5-.7-1.5-1.5-1.5-1.5.7-1.5,1.5ZM310.8,234.8c0,.9.7,1.5,1.5,1.5-.9,0-1.5.7-1.5,1.5s.7,1.5,1.5,1.5c-.9,0-1.5.7-1.5,1.6s.7,1.5,1.5,1.5c-.9,0-1.5.7-1.5,1.5s.7,1.6,1.5,1.6c-.9,0-1.5.7-1.5,1.5s.7,1.5,1.5,1.5,1.5-.7,1.5-1.5-.7-1.5-1.5-1.5c.9,0,1.5-.7,1.5-1.6s-.7-1.5-1.5-1.5c.9,0,1.5-.7,1.5-1.5s-.7-1.6-1.5-1.6c.9,0,1.5-.7,1.5-1.5s-.7-1.5-1.5-1.5c.9,0,1.5-.7,1.5-1.5s-.7-1.5-1.5-1.5-1.5.7-1.5,1.5ZM385.4,237.9c0,.9.7,1.5,1.5,1.5-.9,0-1.5.7-1.5,1.6s.7,1.5,1.5,1.5c-.9,0-1.5.7-1.5,1.5s.7,1.5,1.5,1.5,1.5-.7,1.5-1.5-.7-1.5-1.5-1.5c.9,0,1.5-.7,1.5-1.5s-.7-1.6-1.5-1.6c.9,0,1.5-.7,1.5-1.5s-.7-1.5-1.5-1.5-1.5.7-1.5,1.5ZM382.3,237.9c0,.9.7,1.5,1.5,1.5s1.5-.7,1.5-1.5-.7-1.5-1.5-1.5-1.5.7-1.5,1.5ZM376.1,237.9c0,.9.7,1.5,1.5,1.5s1.5-.7,1.5-1.5-.7-1.5-1.5-1.5-1.5.7-1.5,1.5ZM360.6,237.9c0,.9.7,1.5,1.5,1.5-.9,0-1.5.7-1.5,1.6s.7,1.5,1.5,1.5,1.5-.7,1.5-1.5-.7-1.6-1.5-1.6c.9,0,1.5-.7,1.5-1.5s-.7-1.5-1.5-1.5-1.5.7-1.5,1.5ZM351.2,237.9c0,.9.7,1.5,1.5,1.5-.9,0-1.5.7-1.5,1.6s.7,1.5,1.5,1.5,1.5-.7,1.5-1.5-.7-1.6-1.5-1.6c.9,0,1.5-.7,1.5-1.5s-.7-1.5-1.5-1.5-1.5.7-1.5,1.5ZM348.1,237.9c0,.9.7,1.5,1.5,1.5-.9,0-1.5.7-1.5,1.6s.7,1.5,1.5,1.5c-.9,0-1.5.7-1.5,1.5s.7,1.5,1.5,1.5c-.9,0-1.5.7-1.5,1.5s.7,1.6,1.5,1.6,1.5-.7,1.5-1.6-.7-1.5-1.5-1.5c.9,0,1.5-.7,1.5-1.5s-.7-1.5-1.5-1.5c.9,0,1.5-.7,1.5-1.5s-.7-1.6-1.5-1.6c.9,0,1.5-.7,1.5-1.5s-.7-1.5-1.5-1.5-1.5.7-1.5,1.5ZM338.8,237.9c0,.9.7,1.5,1.5,1.5s1.5-.7,1.5-1.5-.7-1.5-1.5-1.5-1.5.7-1.5,1.5ZM307.7,237.9c0,.9.7,1.5,1.5,1.5s1.5-.7,1.5-1.5-.7-1.5-1.5-1.5-1.5.7-1.5,1.5ZM304.6,237.9c0,.9.7,1.5,1.5,1.5-.9,0-1.5.7-1.5,1.6s.7,1.5,1.5,1.5,1.5-.7,1.5-1.5-.7-1.6-1.5-1.6c.9,0,1.5-.7,1.5-1.5s-.7-1.5-1.5-1.5-1.5.7-1.5,1.5ZM295.3,237.9c0,.9.7,1.5,1.5,1.5-.9,0-1.5.7-1.5,1.6s.7,1.5,1.5,1.5,1.5-.7,1.5-1.5-.7-1.6-1.5-1.6c.9,0,1.5-.7,1.5-1.5s-.7-1.5-1.5-1.5-1.5.7-1.5,1.5ZM292.2,237.9c0,.9.7,1.5,1.5,1.5s1.5-.7,1.5-1.5-.7-1.5-1.5-1.5-1.5.7-1.5,1.5ZM379.2,241c0,.9.7,1.5,1.5,1.5s1.5-.7,1.5-1.5-.7-1.6-1.5-1.6-1.5.7-1.5,1.6ZM369.9,241c0,.9.7,1.5,1.5,1.5s1.5-.7,1.5-1.5-.7-1.6-1.5-1.6-1.5.7-1.5,1.6ZM323.2,241c0,.9.7,1.5,1.5,1.5s1.5-.7,1.5-1.5-.7-1.6-1.5-1.6-1.5.7-1.5,1.6ZM320.1,241c0,.9.7,1.5,1.5,1.5-.9,0-1.5.7-1.5,1.5s.7,1.5,1.5,1.5c-.9,0-1.5.7-1.5,1.5s.7,1.6,1.5,1.6c-.9,0-1.5.7-1.5,1.5s.7,1.5,1.5,1.5,1.5-.7,1.5-1.5-.7-1.5-1.5-1.5c.9,0,1.5-.7,1.5-1.6s-.7-1.5-1.5-1.5c.9,0,1.5-.7,1.5-1.5s-.7-1.5-1.5-1.5c.9,0,1.5-.7,1.5-1.5s-.7-1.6-1.5-1.6-1.5.7-1.5,1.6ZM313.9,241c0,.9.7,1.5,1.5,1.5-.9,0-1.5.7-1.5,1.5s.7,1.5,1.5,1.5,1.5-.7,1.5-1.5-.7-1.5-1.5-1.5c.9,0,1.5-.7,1.5-1.5s-.7-1.6-1.5-1.6-1.5.7-1.5,1.6ZM301.5,241c0,.9.7,1.5,1.5,1.5s1.5-.7,1.5-1.5-.7-1.6-1.5-1.6-1.5.7-1.5,1.6ZM298.4,241c0,.9.7,1.5,1.5,1.5-.9,0-1.5.7-1.5,1.5s.7,1.5,1.5,1.5c-.9,0-1.5.7-1.5,1.5s.7,1.6,1.5,1.6c-.9,0-1.5.7-1.5,1.5s.7,1.5,1.5,1.5c-.9,0-1.5.7-1.5,1.6s.7,1.5,1.5,1.5,1.5-.7,1.5-1.5-.7-1.6-1.5-1.6c.9,0,1.5-.7,1.5-1.5s-.7-1.5-1.5-1.5c.9,0,1.5-.7,1.5-1.6s-.7-1.5-1.5-1.5c.9,0,1.5-.7,1.5-1.5s-.7-1.5-1.5-1.5c.9,0,1.5-.7,1.5-1.5s-.7-1.6-1.5-1.6-1.5.7-1.5,1.6ZM373,244.1c0,.9.7,1.5,1.5,1.5-.9,0-1.5.7-1.5,1.5s.7,1.6,1.5,1.6c-.9,0-1.5.7-1.5,1.5s.7,1.5,1.5,1.5c-.9,0-1.5.7-1.5,1.5s.7,1.5,1.5,1.5c-.9,0-1.5.7-1.5,1.6s.7,1.5,1.5,1.5,1.5-.7,1.5-1.5-.7-1.6-1.5-1.6c.9,0,1.5-.7,1.5-1.5s-.7-1.5-1.5-1.5c.9,0,1.5-.7,1.5-1.6s-.7-1.5-1.5-1.5c.9,0,1.5-.7,1.5-1.5s-.7-1.5-1.5-1.5c.9,0,1.5-.7,1.5-1.5s-.7-1.6-1.5-1.6-1.5.7-1.5,1.6ZM363.7,244.1c0,.9.7,1.5,1.5,1.5-.9,0-1.5.7-1.5,1.5s.7,1.6,1.5,1.6c-.9,0-1.5.7-1.5,1.5s.7,1.5,1.5,1.5c-.9,0-1.5.7-1.5,1.5s.7,1.5,1.5,1.5,1.5-.7,1.5-1.5-.7-1.5-1.5-1.5c.9,0,1.5-.7,1.5-1.5s-.7-1.5-1.5-1.5c.9,0,1.5-.7,1.5-1.6s-.7-1.5-1.5-1.5c.9,0,1.5-.7,1.5-1.5s-.7-1.6-1.5-1.6-1.5.7-1.5,1.6ZM354.3,244.1c0,.9.7,1.5,1.5,1.5s1.5-.7,1.5-1.5-.7-1.6-1.5-1.6-1.5.7-1.5,1.6ZM345,244.1c0,.9.7,1.5,1.5,1.5s1.5-.7,1.5-1.5-.7-1.6-1.5-1.6-1.5.7-1.5,1.6ZM335.7,244.1c0,.9.7,1.5,1.5,1.5s1.5-.7,1.5-1.5-.7-1.6-1.5-1.6-1.5.7-1.5,1.6ZM329.5,244.1c0,.9.7,1.5,1.5,1.5-.9,0-1.5.7-1.5,1.5s.7,1.6,1.5,1.6c-.9,0-1.5.7-1.5,1.5s.7,1.5,1.5,1.5c-.9,0-1.5.7-1.5,1.5s.7,1.5,1.5,1.5c-.9,0-1.5.7-1.5,1.6s.7,1.5,1.5,1.5,1.5-.7,1.5-1.5-.7-1.6-1.5-1.6c.9,0,1.5-.7,1.5-1.5s-.7-1.5-1.5-1.5c.9,0,1.5-.7,1.5-1.6s-.7-1.5-1.5-1.5c.9,0,1.5-.7,1.5-1.5s-.7-1.5-1.5-1.5c.9,0,1.5-.7,1.5-1.5s-.7-1.6-1.5-1.6-1.5.7-1.5,1.6ZM317,244.1c0,.9.7,1.5,1.5,1.5s1.5-.7,1.5-1.5-.7-1.6-1.5-1.6-1.5.7-1.5,1.6ZM307.7,244.1c0,.9.7,1.5,1.5,1.5s1.5-.7,1.5-1.5-.7-1.6-1.5-1.6-1.5.7-1.5,1.6ZM292.2,244.1c0,.9.7,1.5,1.5,1.5-.9,0-1.5.7-1.5,1.5s.7,1.6,1.5,1.6c-.9,0-1.5.7-1.5,1.5s.7,1.5,1.5,1.5,1.5-.7,1.5-1.5-.7-1.5-1.5-1.5c.9,0,1.5-.7,1.5-1.6s-.7-1.5-1.5-1.5c.9,0,1.5-.7,1.5-1.5s-.7-1.6-1.5-1.6-1.5.7-1.5,1.6ZM366.8,247.2c0,.9.7,1.5,1.5,1.5s1.5-.7,1.5-1.5-.7-1.5-1.5-1.5-1.5.7-1.5,1.5ZM360.6,247.2c0,.9.7,1.5,1.5,1.5-.9,0-1.5.7-1.5,1.5s.7,1.6,1.5,1.6,1.5-.7,1.5-1.6-.7-1.5-1.5-1.5c.9,0,1.5-.7,1.5-1.5s-.7-1.5-1.5-1.5-1.5.7-1.5,1.5ZM351.2,247.2c0,.9.7,1.5,1.5,1.5-.9,0-1.5.7-1.5,1.5s.7,1.6,1.5,1.6c-.9,0-1.5.7-1.5,1.5s.7,1.5,1.5,1.5c-.9,0-1.5.7-1.5,1.6s.7,1.5,1.5,1.5,1.5-.7,1.5-1.5-.7-1.6-1.5-1.6c.9,0,1.5-.7,1.5-1.5s-.7-1.5-1.5-1.5c.9,0,1.5-.7,1.5-1.6s-.7-1.5-1.5-1.5c.9,0,1.5-.7,1.5-1.5s-.7-1.5-1.5-1.5-1.5.7-1.5,1.5ZM338.8,247.2c0,.9.7,1.5,1.5,1.5s1.5-.7,1.5-1.5-.7-1.5-1.5-1.5-1.5.7-1.5,1.5ZM332.6,247.2c0,.9.7,1.5,1.5,1.5-.9,0-1.5.7-1.5,1.5s.7,1.6,1.5,1.6,1.5-.7,1.5-1.6-.7-1.5-1.5-1.5c.9,0,1.5-.7,1.5-1.5s-.7-1.5-1.5-1.5-1.5.7-1.5,1.5ZM304.6,247.2c0,.9.7,1.5,1.5,1.5s1.5-.7,1.5-1.5-.7-1.5-1.5-1.5-1.5.7-1.5,1.5ZM301.5,247.2c0,.9.7,1.5,1.5,1.5-.9,0-1.5.7-1.5,1.5s.7,1.6,1.5,1.6,1.5-.7,1.5-1.6-.7-1.5-1.5-1.5c.9,0,1.5-.7,1.5-1.5s-.7-1.5-1.5-1.5-1.5.7-1.5,1.5ZM295.3,247.2c0,.9.7,1.5,1.5,1.5-.9,0-1.5.7-1.5,1.5s.7,1.6,1.5,1.6c-.9,0-1.5.7-1.5,1.5s.7,1.5,1.5,1.5c-.9,0-1.5.7-1.5,1.6s.7,1.5,1.5,1.5,1.5-.7,1.5-1.5-.7-1.6-1.5-1.6c.9,0,1.5-.7,1.5-1.5s-.7-1.5-1.5-1.5c.9,0,1.5-.7,1.5-1.6s-.7-1.5-1.5-1.5c.9,0,1.5-.7,1.5-1.5s-.7-1.5-1.5-1.5-1.5.7-1.5,1.5ZM388.5,250.3c0,.9.7,1.6,1.5,1.6-.9,0-1.5.7-1.5,1.5s.7,1.5,1.5,1.5c-.9,0-1.5.7-1.5,1.5s.7,1.5,1.5,1.5c-.9,0-1.5.7-1.5,1.5s.7,1.5,1.5,1.5c-.9,0-1.5.7-1.5,1.5s.7,1.5,1.5,1.5c-.9,0-1.5.7-1.5,1.5s.7,1.5,1.5,1.5,1.5-.7,1.5-1.5-.7-1.5-1.5-1.5c.9,0,1.5-.7,1.5-1.5s-.7-1.5-1.5-1.5c.9,0,1.5-.7,1.5-1.5s-.7-1.5-1.5-1.5c.9,0,1.5-.7,1.5-1.5s-.7-1.5-1.5-1.5c.9,0,1.5-.7,1.5-1.6s-.7-1.5-1.5-1.5c.9,0,1.5-.7,1.5-1.5s-.7-1.5-1.5-1.5-1.5.7-1.5,1.5ZM385.4,250.3c0,.9.7,1.6,1.5,1.6-.9,0-1.5.7-1.5,1.5s.7,1.5,1.5,1.5,1.5-.7,1.5-1.5-.7-1.5-1.5-1.5c.9,0,1.5-.7,1.5-1.6s-.7-1.5-1.5-1.5-1.5.7-1.5,1.5ZM382.3,250.3c0,.9.7,1.6,1.5,1.6s1.5-.7,1.5-1.6-.7-1.5-1.5-1.5-1.5.7-1.5,1.5ZM376.1,250.3c0,.9.7,1.6,1.5,1.6s1.5-.7,1.5-1.6-.7-1.5-1.5-1.5-1.5.7-1.5,1.5ZM369.9,250.3c0,.9.7,1.6,1.5,1.6s1.5-.7,1.5-1.6-.7-1.5-1.5-1.5-1.5.7-1.5,1.5ZM357.5,250.3c0,.9.7,1.6,1.5,1.6s1.5-.7,1.5-1.6-.7-1.5-1.5-1.5-1.5.7-1.5,1.5ZM354.3,250.3c0,.9.7,1.6,1.5,1.6s1.5-.7,1.5-1.6-.7-1.5-1.5-1.5-1.5.7-1.5,1.5ZM345,250.3c0,.9.7,1.6,1.5,1.6-.9,0-1.5.7-1.5,1.5s.7,1.5,1.5,1.5c-.9,0-1.5.7-1.5,1.5s.7,1.5,1.5,1.5,1.5-.7,1.5-1.5-.7-1.5-1.5-1.5c.9,0,1.5-.7,1.5-1.6s-.7-1.5-1.5-1.5c.9,0,1.5-.7,1.5-1.5s-.7-1.5-1.5-1.5-1.5.7-1.5,1.5ZM341.9,250.3c0,.9.7,1.6,1.5,1.6-.9,0-1.5.7-1.5,1.5s.7,1.5,1.5,1.5,1.5-.7,1.5-1.5-.7-1.5-1.5-1.5c.9,0,1.5-.7,1.5-1.6s-.7-1.5-1.5-1.5-1.5.7-1.5,1.5ZM335.7,250.3c0,.9.7,1.6,1.5,1.6s1.5-.7,1.5-1.6-.7-1.5-1.5-1.5-1.5.7-1.5,1.5ZM323.2,250.3c0,.9.7,1.6,1.5,1.6s1.5-.7,1.5-1.6-.7-1.5-1.5-1.5-1.5.7-1.5,1.5ZM317,250.3c0,.9.7,1.6,1.5,1.6-.9,0-1.5.7-1.5,1.5s.7,1.5,1.5,1.5,1.5-.7,1.5-1.5-.7-1.5-1.5-1.5c.9,0,1.5-.7,1.5-1.6s-.7-1.5-1.5-1.5-1.5.7-1.5,1.5ZM307.7,250.3c0,.9.7,1.6,1.5,1.6s1.5-.7,1.5-1.6-.7-1.5-1.5-1.5-1.5.7-1.5,1.5ZM379.2,253.4c0,.9.7,1.6,1.5,1.6s1.5-.7,1.5-1.6-.7-1.5-1.5-1.5-1.5.7-1.5,1.5ZM348.1,253.4c0,.9.7,1.6,1.5,1.6s1.5-.7,1.5-1.6-.7-1.5-1.5-1.5-1.5.7-1.5,1.5ZM338.8,253.4c0,.9.7,1.6,1.5,1.6s1.5-.7,1.5-1.6-.7-1.5-1.5-1.5-1.5.7-1.5,1.5ZM326.4,253.4c0,.9.7,1.6,1.5,1.6-.9,0-1.5.7-1.5,1.5s.7,1.5,1.5,1.5,1.5-.7,1.5-1.5-.7-1.5-1.5-1.5c.9,0,1.5-.7,1.5-1.6s-.7-1.5-1.5-1.5-1.5.7-1.5,1.5ZM310.8,253.4c0,.9.7,1.6,1.5,1.6s1.5-.7,1.5-1.6-.7-1.5-1.5-1.5-1.5.7-1.5,1.5ZM369.9,256.5c0,.9.7,1.6,1.5,1.6s1.5-.7,1.5-1.6-.7-1.5-1.5-1.5-1.5.7-1.5,1.5ZM360.6,256.5c0,.9.7,1.6,1.5,1.6s1.5-.7,1.5-1.6-.7-1.5-1.5-1.5-1.5.7-1.5,1.5ZM354.3,256.5c0,.9.7,1.6,1.5,1.6s1.5-.7,1.5-1.6-.7-1.5-1.5-1.5-1.5.7-1.5,1.5ZM335.7,256.5c0,.9.7,1.6,1.5,1.6-.9,0-1.5.7-1.5,1.5s.7,1.6,1.5,1.6c-.9,0-1.5.7-1.5,1.5s.7,1.6,1.5,1.6c-.9,0-1.5.7-1.5,1.5s.7,1.6,1.5,1.6c-.9,0-1.5.7-1.5,1.5s.7,1.6,1.5,1.6c-.9,0-1.5.7-1.5,1.5s.7,1.6,1.5,1.6c-.9,0-1.5.7-1.5,1.5s.7,1.6,1.5,1.6,1.5-.7,1.5-1.6-.7-1.5-1.5-1.5c.9,0,1.5-.7,1.5-1.6s-.7-1.5-1.5-1.5c.9,0,1.5-.7,1.5-1.6s-.7-1.5-1.5-1.5c.9,0,1.5-.7,1.5-1.6s-.7-1.5-1.5-1.5c.9,0,1.5-.7,1.5-1.6s-.7-1.5-1.5-1.5c.9,0,1.5-.7,1.5-1.6s-.7-1.5-1.5-1.5c.9,0,1.5-.7,1.5-1.6s-.7-1.5-1.5-1.5-1.5.7-1.5,1.5ZM332.6,256.5c0,.9.7,1.6,1.5,1.6s1.5-.7,1.5-1.6-.7-1.5-1.5-1.5-1.5.7-1.5,1.5ZM323.2,256.5c0,.9.7,1.6,1.5,1.6s1.5-.7,1.5-1.6-.7-1.5-1.5-1.5-1.5.7-1.5,1.5ZM307.7,256.5c0,.9.7,1.6,1.5,1.6s1.5-.7,1.5-1.6-.7-1.5-1.5-1.5-1.5.7-1.5,1.5ZM292.2,256.5c0,.9.7,1.6,1.5,1.6-.9,0-1.5.7-1.5,1.5s.7,1.6,1.5,1.6c-.9,0-1.5.7-1.5,1.5s.7,1.6,1.5,1.6,1.5-.7,1.5-1.6-.7-1.5-1.5-1.5c.9,0,1.5-.7,1.5-1.6s-.7-1.5-1.5-1.5c.9,0,1.5-.7,1.5-1.6s-.7-1.5-1.5-1.5-1.5.7-1.5,1.5ZM289,256.5c0,.9.7,1.6,1.5,1.6s1.5-.7,1.5-1.6-.7-1.5-1.5-1.5-1.5.7-1.5,1.5ZM385.4,259.6c0,.9.7,1.5,1.5,1.5s1.5-.7,1.5-1.5-.7-1.5-1.5-1.5-1.5.7-1.5,1.5ZM382.3,259.6c0,.9.7,1.5,1.5,1.5-.9,0-1.5.7-1.5,1.5s.7,1.5,1.5,1.5,1.5-.7,1.5-1.5-.7-1.5-1.5-1.5c.9,0,1.5-.7,1.5-1.5s-.7-1.5-1.5-1.5-1.5.7-1.5,1.5ZM366.8,259.6c0,.9.7,1.5,1.5,1.5s1.5-.7,1.5-1.5-.7-1.5-1.5-1.5-1.5.7-1.5,1.5ZM363.7,259.6c0,.9.7,1.5,1.5,1.5s1.5-.7,1.5-1.5-.7-1.5-1.5-1.5-1.5.7-1.5,1.5ZM341.9,259.6c0,.9.7,1.5,1.5,1.5-.9,0-1.5.7-1.5,1.5s.7,1.5,1.5,1.5c-.9,0-1.5.7-1.5,1.5s.7,1.5,1.5,1.5c-.9,0-1.5.7-1.5,1.5s.7,1.5,1.5,1.5,1.5-.7,1.5-1.5-.7-1.5-1.5-1.5c.9,0,1.5-.7,1.5-1.5s-.7-1.5-1.5-1.5c.9,0,1.5-.7,1.5-1.5s-.7-1.5-1.5-1.5c.9,0,1.5-.7,1.5-1.5s-.7-1.5-1.5-1.5-1.5.7-1.5,1.5ZM338.8,259.6c0,.9.7,1.5,1.5,1.5-.9,0-1.5.7-1.5,1.5s.7,1.5,1.5,1.5c-.9,0-1.5.7-1.5,1.5s.7,1.5,1.5,1.5,1.5-.7,1.5-1.5-.7-1.5-1.5-1.5c.9,0,1.5-.7,1.5-1.5s-.7-1.5-1.5-1.5c.9,0,1.5-.7,1.5-1.5s-.7-1.5-1.5-1.5-1.5.7-1.5,1.5ZM313.9,259.6c0,.9.7,1.5,1.5,1.5s1.5-.7,1.5-1.5-.7-1.5-1.5-1.5-1.5.7-1.5,1.5ZM304.6,259.6c0,.9.7,1.5,1.5,1.5s1.5-.7,1.5-1.5-.7-1.5-1.5-1.5-1.5.7-1.5,1.5ZM301.5,259.6c0,.9.7,1.5,1.5,1.5s1.5-.7,1.5-1.5-.7-1.5-1.5-1.5-1.5.7-1.5,1.5ZM298.4,259.6c0,.9.7,1.5,1.5,1.5s1.5-.7,1.5-1.5-.7-1.5-1.5-1.5-1.5.7-1.5,1.5ZM369.9,262.7c0,.9.7,1.5,1.5,1.5s1.5-.7,1.5-1.5-.7-1.5-1.5-1.5-1.5.7-1.5,1.5ZM360.6,262.7c0,.9.7,1.5,1.5,1.5-.9,0-1.5.7-1.5,1.5s.7,1.5,1.5,1.5c-.9,0-1.5.7-1.5,1.5s.7,1.5,1.5,1.5c-.9,0-1.5.7-1.5,1.5s.7,1.5,1.5,1.5,1.5-.7,1.5-1.5-.7-1.5-1.5-1.5c.9,0,1.5-.7,1.5-1.5s-.7-1.5-1.5-1.5c.9,0,1.5-.7,1.5-1.5s-.7-1.5-1.5-1.5c.9,0,1.5-.7,1.5-1.5s-.7-1.5-1.5-1.5-1.5.7-1.5,1.5ZM357.5,262.7c0,.9.7,1.5,1.5,1.5s1.5-.7,1.5-1.5-.7-1.5-1.5-1.5-1.5.7-1.5,1.5ZM351.2,262.7c0,.9.7,1.5,1.5,1.5-.9,0-1.5.7-1.5,1.5s.7,1.5,1.5,1.5,1.5-.7,1.5-1.5-.7-1.5-1.5-1.5c.9,0,1.5-.7,1.5-1.5s-.7-1.5-1.5-1.5-1.5.7-1.5,1.5ZM345,262.7c0,.9.7,1.5,1.5,1.5s1.5-.7,1.5-1.5-.7-1.5-1.5-1.5-1.5.7-1.5,1.5ZM329.5,262.7c0,.9.7,1.5,1.5,1.5-.9,0-1.5.7-1.5,1.5s.7,1.5,1.5,1.5c-.9,0-1.5.7-1.5,1.5s.7,1.5,1.5,1.5c-.9,0-1.5.7-1.5,1.5s.7,1.5,1.5,1.5,1.5-.7,1.5-1.5-.7-1.5-1.5-1.5c.9,0,1.5-.7,1.5-1.5s-.7-1.5-1.5-1.5c.9,0,1.5-.7,1.5-1.5s-.7-1.5-1.5-1.5c.9,0,1.5-.7,1.5-1.5s-.7-1.5-1.5-1.5-1.5.7-1.5,1.5ZM326.4,262.7c0,.9.7,1.5,1.5,1.5s1.5-.7,1.5-1.5-.7-1.5-1.5-1.5-1.5.7-1.5,1.5ZM323.2,262.7c0,.9.7,1.5,1.5,1.5s1.5-.7,1.5-1.5-.7-1.5-1.5-1.5-1.5.7-1.5,1.5ZM320.1,262.7c0,.9.7,1.5,1.5,1.5s1.5-.7,1.5-1.5-.7-1.5-1.5-1.5-1.5.7-1.5,1.5ZM310.8,262.7c0,.9.7,1.5,1.5,1.5-.9,0-1.5.7-1.5,1.5s.7,1.5,1.5,1.5,1.5-.7,1.5-1.5-.7-1.5-1.5-1.5c.9,0,1.5-.7,1.5-1.5s-.7-1.5-1.5-1.5-1.5.7-1.5,1.5ZM307.7,262.7c0,.9.7,1.5,1.5,1.5s1.5-.7,1.5-1.5-.7-1.5-1.5-1.5-1.5.7-1.5,1.5ZM289,262.7c0,.9.7,1.5,1.5,1.5-.9,0-1.5.7-1.5,1.5s.7,1.5,1.5,1.5,1.5-.7,1.5-1.5-.7-1.5-1.5-1.5c.9,0,1.5-.7,1.5-1.5s-.7-1.5-1.5-1.5-1.5.7-1.5,1.5ZM379.2,265.9c0,.9.7,1.5,1.5,1.5-.9,0-1.5.7-1.5,1.6s.7,1.5,1.5,1.5c-.9,0-1.5.7-1.5,1.6s.7,1.5,1.5,1.5,1.5-.7,1.5-1.5-.7-1.6-1.5-1.6c.9,0,1.5-.7,1.5-1.5s-.7-1.6-1.5-1.6c.9,0,1.5-.7,1.5-1.5s-.7-1.6-1.5-1.6-1.5.7-1.5,1.6ZM366.8,265.9c0,.9.7,1.5,1.5,1.5-.9,0-1.5.7-1.5,1.6s.7,1.5,1.5,1.5c-.9,0-1.5.7-1.5,1.6s.7,1.5,1.5,1.5,1.5-.7,1.5-1.5-.7-1.6-1.5-1.6c.9,0,1.5-.7,1.5-1.5s-.7-1.6-1.5-1.6c.9,0,1.5-.7,1.5-1.5s-.7-1.6-1.5-1.6-1.5.7-1.5,1.6ZM363.7,265.9c0,.9.7,1.5,1.5,1.5s1.5-.7,1.5-1.5-.7-1.6-1.5-1.6-1.5.7-1.5,1.6ZM354.3,265.9c0,.9.7,1.5,1.5,1.5s1.5-.7,1.5-1.5-.7-1.6-1.5-1.6-1.5.7-1.5,1.6ZM317,265.9c0,.9.7,1.5,1.5,1.5-.9,0-1.5.7-1.5,1.6s.7,1.5,1.5,1.5,1.5-.7,1.5-1.5-.7-1.6-1.5-1.6c.9,0,1.5-.7,1.5-1.5s-.7-1.6-1.5-1.6-1.5.7-1.5,1.6ZM313.9,265.9c0,.9.7,1.5,1.5,1.5-.9,0-1.5.7-1.5,1.6s.7,1.5,1.5,1.5,1.5-.7,1.5-1.5-.7-1.6-1.5-1.6c.9,0,1.5-.7,1.5-1.5s-.7-1.6-1.5-1.6-1.5.7-1.5,1.6ZM301.5,265.9c0,.9.7,1.5,1.5,1.5-.9,0-1.5.7-1.5,1.6s.7,1.5,1.5,1.5c-.9,0-1.5.7-1.5,1.6s.7,1.5,1.5,1.5,1.5-.7,1.5-1.5-.7-1.6-1.5-1.6c.9,0,1.5-.7,1.5-1.5s-.7-1.6-1.5-1.6c.9,0,1.5-.7,1.5-1.5s-.7-1.6-1.5-1.6-1.5.7-1.5,1.6ZM295.3,265.9c0,.9.7,1.5,1.5,1.5s1.5-.7,1.5-1.5-.7-1.6-1.5-1.6-1.5.7-1.5,1.6ZM382.3,269c0,.9.7,1.5,1.5,1.5s1.5-.7,1.5-1.5-.7-1.6-1.5-1.6-1.5.7-1.5,1.6ZM373,269c0,.9.7,1.5,1.5,1.5-.9,0-1.5.7-1.5,1.6s.7,1.5,1.5,1.5c-.9,0-1.5.7-1.5,1.6s.7,1.5,1.5,1.5c-.9,0-1.5.7-1.5,1.6s.7,1.5,1.5,1.5c-.9,0-1.5.7-1.5,1.6s.7,1.5,1.5,1.5,1.5-.7,1.5-1.5-.7-1.6-1.5-1.6c.9,0,1.5-.7,1.5-1.5s-.7-1.6-1.5-1.6c.9,0,1.5-.7,1.5-1.5s-.7-1.6-1.5-1.6c.9,0,1.5-.7,1.5-1.5s-.7-1.6-1.5-1.6c.9,0,1.5-.7,1.5-1.5s-.7-1.6-1.5-1.6-1.5.7-1.5,1.6ZM369.9,269c0,.9.7,1.5,1.5,1.5s1.5-.7,1.5-1.5-.7-1.6-1.5-1.6-1.5.7-1.5,1.6ZM357.5,269c0,.9.7,1.5,1.5,1.5s1.5-.7,1.5-1.5-.7-1.6-1.5-1.6-1.5.7-1.5,1.6ZM348.1,269c0,.9.7,1.5,1.5,1.5-.9,0-1.5.7-1.5,1.6s.7,1.5,1.5,1.5c-.9,0-1.5.7-1.5,1.6s.7,1.5,1.5,1.5c-.9,0-1.5.7-1.5,1.6s.7,1.5,1.5,1.5,1.5-.7,1.5-1.5-.7-1.6-1.5-1.6c.9,0,1.5-.7,1.5-1.5s-.7-1.6-1.5-1.6c.9,0,1.5-.7,1.5-1.5s-.7-1.6-1.5-1.6c.9,0,1.5-.7,1.5-1.5s-.7-1.6-1.5-1.6-1.5.7-1.5,1.6ZM323.2,269c0,.9.7,1.5,1.5,1.5-.9,0-1.5.7-1.5,1.6s.7,1.5,1.5,1.5,1.5-.7,1.5-1.5-.7-1.6-1.5-1.6c.9,0,1.5-.7,1.5-1.5s-.7-1.6-1.5-1.6-1.5.7-1.5,1.6ZM320.1,269c0,.9.7,1.5,1.5,1.5s1.5-.7,1.5-1.5-.7-1.6-1.5-1.6-1.5.7-1.5,1.6ZM307.7,269c0,.9.7,1.5,1.5,1.5s1.5-.7,1.5-1.5-.7-1.6-1.5-1.6-1.5.7-1.5,1.6ZM298.4,269c0,.9.7,1.5,1.5,1.5s1.5-.7,1.5-1.5-.7-1.6-1.5-1.6-1.5.7-1.5,1.6ZM292.2,269c0,.9.7,1.5,1.5,1.5-.9,0-1.5.7-1.5,1.6s.7,1.5,1.5,1.5,1.5-.7,1.5-1.5-.7-1.6-1.5-1.6c.9,0,1.5-.7,1.5-1.5s-.7-1.6-1.5-1.6-1.5.7-1.5,1.6ZM385.4,272.1c0,.9.7,1.5,1.5,1.5-.9,0-1.5.7-1.5,1.5s.7,1.5,1.5,1.5,1.5-.7,1.5-1.5-.7-1.5-1.5-1.5c.9,0,1.5-.7,1.5-1.5s-.7-1.5-1.5-1.5-1.5.7-1.5,1.5ZM345,272.1c0,.9.7,1.5,1.5,1.5s1.5-.7,1.5-1.5-.7-1.5-1.5-1.5-1.5.7-1.5,1.5ZM332.6,272.1c0,.9.7,1.5,1.5,1.5s1.5-.7,1.5-1.5-.7-1.5-1.5-1.5-1.5.7-1.5,1.5ZM310.8,272.1c0,.9.7,1.5,1.5,1.5s1.5-.7,1.5-1.5-.7-1.5-1.5-1.5-1.5.7-1.5,1.5ZM295.3,272.1c0,.9.7,1.5,1.5,1.5-.9,0-1.5.7-1.5,1.5s.7,1.5,1.5,1.5,1.5-.7,1.5-1.5-.7-1.5-1.5-1.5c.9,0,1.5-.7,1.5-1.5s-.7-1.5-1.5-1.5-1.5.7-1.5,1.5ZM388.5,275.2c0,.9.7,1.6,1.5,1.6-.9,0-1.5.7-1.5,1.5s.7,1.6,1.5,1.6c-.9,0-1.5.7-1.5,1.5s.7,1.6,1.5,1.6c-.9,0-1.5.7-1.5,1.5s.7,1.6,1.5,1.6,1.5-.7,1.5-1.6-.7-1.5-1.5-1.5c.9,0,1.5-.7,1.5-1.6s-.7-1.5-1.5-1.5c.9,0,1.5-.7,1.5-1.6s-.7-1.5-1.5-1.5c.9,0,1.5-.7,1.5-1.6s-.7-1.5-1.5-1.5-1.5.7-1.5,1.5ZM376.1,275.2c0,.9.7,1.6,1.5,1.6s1.5-.7,1.5-1.6-.7-1.5-1.5-1.5-1.5.7-1.5,1.5ZM363.7,275.2c0,.9.7,1.6,1.5,1.6s1.5-.7,1.5-1.6-.7-1.5-1.5-1.5-1.5.7-1.5,1.5ZM357.5,275.2c0,.9.7,1.6,1.5,1.6s1.5-.7,1.5-1.6-.7-1.5-1.5-1.5-1.5.7-1.5,1.5ZM351.2,275.2c0,.9.7,1.6,1.5,1.6s1.5-.7,1.5-1.6-.7-1.5-1.5-1.5-1.5.7-1.5,1.5ZM338.8,275.2c0,.9.7,1.6,1.5,1.6s1.5-.7,1.5-1.6-.7-1.5-1.5-1.5-1.5.7-1.5,1.5ZM326.4,275.2c0,.9.7,1.6,1.5,1.6-.9,0-1.5.7-1.5,1.5s.7,1.6,1.5,1.6,1.5-.7,1.5-1.6-.7-1.5-1.5-1.5c.9,0,1.5-.7,1.5-1.6s-.7-1.5-1.5-1.5-1.5.7-1.5,1.5ZM320.1,275.2c0,.9.7,1.6,1.5,1.6s1.5-.7,1.5-1.6-.7-1.5-1.5-1.5-1.5.7-1.5,1.5ZM313.9,275.2c0,.9.7,1.6,1.5,1.6-.9,0-1.5.7-1.5,1.5s.7,1.6,1.5,1.6c-.9,0-1.5.7-1.5,1.5s.7,1.6,1.5,1.6,1.5-.7,1.5-1.6-.7-1.5-1.5-1.5c.9,0,1.5-.7,1.5-1.6s-.7-1.5-1.5-1.5c.9,0,1.5-.7,1.5-1.6s-.7-1.5-1.5-1.5-1.5.7-1.5,1.5ZM307.7,275.2c0,.9.7,1.6,1.5,1.6s1.5-.7,1.5-1.6-.7-1.5-1.5-1.5-1.5.7-1.5,1.5ZM298.4,275.2c0,.9.7,1.6,1.5,1.6s1.5-.7,1.5-1.6-.7-1.5-1.5-1.5-1.5.7-1.5,1.5ZM289,275.2c0,.9.7,1.6,1.5,1.6-.9,0-1.5.7-1.5,1.5s.7,1.6,1.5,1.6,1.5-.7,1.5-1.6-.7-1.5-1.5-1.5c.9,0,1.5-.7,1.5-1.6s-.7-1.5-1.5-1.5-1.5.7-1.5,1.5ZM379.2,278.3c0,.9.7,1.6,1.5,1.6-.9,0-1.5.7-1.5,1.5s.7,1.6,1.5,1.6c-.9,0-1.5.7-1.5,1.5s.7,1.6,1.5,1.6,1.5-.7,1.5-1.6-.7-1.5-1.5-1.5c.9,0,1.5-.7,1.5-1.6s-.7-1.5-1.5-1.5c.9,0,1.5-.7,1.5-1.6s-.7-1.5-1.5-1.5-1.5.7-1.5,1.5ZM369.9,278.3c0,.9.7,1.6,1.5,1.6-.9,0-1.5.7-1.5,1.5s.7,1.6,1.5,1.6,1.5-.7,1.5-1.6-.7-1.5-1.5-1.5c.9,0,1.5-.7,1.5-1.6s-.7-1.5-1.5-1.5-1.5.7-1.5,1.5ZM354.3,278.3c0,.9.7,1.6,1.5,1.6s1.5-.7,1.5-1.6-.7-1.5-1.5-1.5-1.5.7-1.5,1.5ZM341.9,278.3c0,.9.7,1.6,1.5,1.6s1.5-.7,1.5-1.6-.7-1.5-1.5-1.5-1.5.7-1.5,1.5ZM323.2,278.3c0,.9.7,1.6,1.5,1.6s1.5-.7,1.5-1.6-.7-1.5-1.5-1.5-1.5.7-1.5,1.5ZM317,278.3c0,.9.7,1.6,1.5,1.6s1.5-.7,1.5-1.6-.7-1.5-1.5-1.5-1.5.7-1.5,1.5ZM310.8,278.3c0,.9.7,1.6,1.5,1.6s1.5-.7,1.5-1.6-.7-1.5-1.5-1.5-1.5.7-1.5,1.5ZM301.5,278.3c0,.9.7,1.6,1.5,1.6s1.5-.7,1.5-1.6-.7-1.5-1.5-1.5-1.5.7-1.5,1.5ZM382.3,281.4c0,.9.7,1.5,1.5,1.5s1.5-.7,1.5-1.5-.7-1.5-1.5-1.5-1.5.7-1.5,1.5ZM376.1,281.4c0,.9.7,1.5,1.5,1.5-.9,0-1.5.7-1.5,1.5s.7,1.5,1.5,1.5c-.9,0-1.5.7-1.5,1.5s.7,1.5,1.5,1.5c-.9,0-1.5.7-1.5,1.5s.7,1.5,1.5,1.5c-.9,0-1.5.7-1.5,1.5s.7,1.5,1.5,1.5c-.9,0-1.5.7-1.5,1.5s.7,1.5,1.5,1.5,1.5-.7,1.5-1.5-.7-1.5-1.5-1.5c.9,0,1.5-.7,1.5-1.5s-.7-1.5-1.5-1.5c.9,0,1.5-.7,1.5-1.5s-.7-1.5-1.5-1.5c.9,0,1.5-.7,1.5-1.5s-.7-1.5-1.5-1.5c.9,0,1.5-.7,1.5-1.5s-.7-1.5-1.5-1.5c.9,0,1.5-.7,1.5-1.5s-.7-1.5-1.5-1.5-1.5.7-1.5,1.5ZM366.8,281.4c0,.9.7,1.5,1.5,1.5s1.5-.7,1.5-1.5-.7-1.5-1.5-1.5-1.5.7-1.5,1.5ZM363.7,281.4c0,.9.7,1.5,1.5,1.5-.9,0-1.5.7-1.5,1.5s.7,1.5,1.5,1.5c-.9,0-1.5.7-1.5,1.5s.7,1.5,1.5,1.5c-.9,0-1.5.7-1.5,1.5s.7,1.5,1.5,1.5c-.9,0-1.5.7-1.5,1.5s.7,1.5,1.5,1.5,1.5-.7,1.5-1.5-.7-1.5-1.5-1.5c.9,0,1.5-.7,1.5-1.5s-.7-1.5-1.5-1.5c.9,0,1.5-.7,1.5-1.5s-.7-1.5-1.5-1.5c.9,0,1.5-.7,1.5-1.5s-.7-1.5-1.5-1.5c.9,0,1.5-.7,1.5-1.5s-.7-1.5-1.5-1.5-1.5.7-1.5,1.5ZM357.5,281.4c0,.9.7,1.5,1.5,1.5s1.5-.7,1.5-1.5-.7-1.5-1.5-1.5-1.5.7-1.5,1.5ZM338.8,281.4c0,.9.7,1.5,1.5,1.5-.9,0-1.5.7-1.5,1.5s.7,1.5,1.5,1.5,1.5-.7,1.5-1.5-.7-1.5-1.5-1.5c.9,0,1.5-.7,1.5-1.5s-.7-1.5-1.5-1.5-1.5.7-1.5,1.5ZM335.7,281.4c0,.9.7,1.5,1.5,1.5-.9,0-1.5.7-1.5,1.5s.7,1.5,1.5,1.5c-.9,0-1.5.7-1.5,1.5s.7,1.5,1.5,1.5c-.9,0-1.5.7-1.5,1.5s.7,1.5,1.5,1.5,1.5-.7,1.5-1.5-.7-1.5-1.5-1.5c.9,0,1.5-.7,1.5-1.5s-.7-1.5-1.5-1.5c.9,0,1.5-.7,1.5-1.5s-.7-1.5-1.5-1.5c.9,0,1.5-.7,1.5-1.5s-.7-1.5-1.5-1.5-1.5.7-1.5,1.5ZM332.6,281.4c0,.9.7,1.5,1.5,1.5-.9,0-1.5.7-1.5,1.5s.7,1.5,1.5,1.5c-.9,0-1.5.7-1.5,1.5s.7,1.5,1.5,1.5,1.5-.7,1.5-1.5-.7-1.5-1.5-1.5c.9,0,1.5-.7,1.5-1.5s-.7-1.5-1.5-1.5c.9,0,1.5-.7,1.5-1.5s-.7-1.5-1.5-1.5-1.5.7-1.5,1.5ZM307.7,281.4c0,.9.7,1.5,1.5,1.5s1.5-.7,1.5-1.5-.7-1.5-1.5-1.5-1.5.7-1.5,1.5ZM298.4,281.4c0,.9.7,1.5,1.5,1.5s1.5-.7,1.5-1.5-.7-1.5-1.5-1.5-1.5.7-1.5,1.5ZM295.3,281.4c0,.9.7,1.5,1.5,1.5s1.5-.7,1.5-1.5-.7-1.5-1.5-1.5-1.5.7-1.5,1.5ZM385.4,284.5c0,.9.7,1.5,1.5,1.5-.9,0-1.5.7-1.5,1.5s.7,1.5,1.5,1.5,1.5-.7,1.5-1.5-.7-1.5-1.5-1.5c.9,0,1.5-.7,1.5-1.5s-.7-1.5-1.5-1.5-1.5.7-1.5,1.5ZM351.2,284.5c0,.9.7,1.5,1.5,1.5s1.5-.7,1.5-1.5-.7-1.5-1.5-1.5-1.5.7-1.5,1.5ZM348.1,284.5c0,.9.7,1.5,1.5,1.5-.9,0-1.5.7-1.5,1.5s.7,1.5,1.5,1.5c-.9,0-1.5.7-1.5,1.5s.7,1.5,1.5,1.5c-.9,0-1.5.7-1.5,1.5s.7,1.5,1.5,1.5c-.9,0-1.5.7-1.5,1.5s.7,1.5,1.5,1.5c-.9,0-1.5.7-1.5,1.5s.7,1.5,1.5,1.5c-.9,0-1.5.7-1.5,1.5s.7,1.5,1.5,1.5c-.9,0-1.5.7-1.5,1.5s.7,1.5,1.5,1.5,1.5-.7,1.5-1.5-.7-1.5-1.5-1.5c.9,0,1.5-.7,1.5-1.5s-.7-1.5-1.5-1.5c.9,0,1.5-.7,1.5-1.5s-.7-1.5-1.5-1.5c.9,0,1.5-.7,1.5-1.5s-.7-1.5-1.5-1.5c.9,0,1.5-.7,1.5-1.5s-.7-1.5-1.5-1.5c.9,0,1.5-.7,1.5-1.5s-.7-1.5-1.5-1.5c.9,0,1.5-.7,1.5-1.5s-.7-1.5-1.5-1.5c.9,0,1.5-.7,1.5-1.5s-.7-1.5-1.5-1.5-1.5.7-1.5,1.5ZM345,284.5c0,.9.7,1.5,1.5,1.5-.9,0-1.5.7-1.5,1.5s.7,1.5,1.5,1.5c-.9,0-1.5.7-1.5,1.5s.7,1.5,1.5,1.5c-.9,0-1.5.7-1.5,1.5s.7,1.5,1.5,1.5,1.5-.7,1.5-1.5-.7-1.5-1.5-1.5c.9,0,1.5-.7,1.5-1.5s-.7-1.5-1.5-1.5c.9,0,1.5-.7,1.5-1.5s-.7-1.5-1.5-1.5c.9,0,1.5-.7,1.5-1.5s-.7-1.5-1.5-1.5-1.5.7-1.5,1.5ZM341.9,284.5c0,.9.7,1.5,1.5,1.5-.9,0-1.5.7-1.5,1.5s.7,1.5,1.5,1.5c-.9,0-1.5.7-1.5,1.5s.7,1.5,1.5,1.5,1.5-.7,1.5-1.5-.7-1.5-1.5-1.5c.9,0,1.5-.7,1.5-1.5s-.7-1.5-1.5-1.5c.9,0,1.5-.7,1.5-1.5s-.7-1.5-1.5-1.5-1.5.7-1.5,1.5ZM299.9,286c-6,0-10.9,4.9-10.9,10.9h0c0,6,4.9,10.9,10.9,10.9,6,0,10.9-4.9,10.9-10.9,0-6-4.9-10.9-10.9-10.9h0ZM299.9,304.7c-4.3,0-7.8-3.5-7.8-7.8h0c0-4.3,3.5-7.8,7.8-7.8,4.3,0,7.8,3.5,7.8,7.8,0,4.3-3.5,7.8-7.8,7.8h0ZM382.3,287.6c0,.9.7,1.5,1.5,1.5-.9,0-1.5.7-1.5,1.5s.7,1.5,1.5,1.5,1.5-.7,1.5-1.5-.7-1.5-1.5-1.5c.9,0,1.5-.7,1.5-1.5s-.7-1.5-1.5-1.5-1.5.7-1.5,1.5ZM369.9,287.6c0,.9.7,1.5,1.5,1.5s1.5-.7,1.5-1.5-.7-1.5-1.5-1.5-1.5.7-1.5,1.5ZM354.3,287.6c0,.9.7,1.5,1.5,1.5s1.5-.7,1.5-1.5-.7-1.5-1.5-1.5-1.5.7-1.5,1.5ZM329.5,287.6c0,.9.7,1.5,1.5,1.5s1.5-.7,1.5-1.5-.7-1.5-1.5-1.5-1.5.7-1.5,1.5ZM317,287.6c0,.9.7,1.5,1.5,1.5-.9,0-1.5.7-1.5,1.5s.7,1.5,1.5,1.5,1.5-.7,1.5-1.5-.7-1.5-1.5-1.5c.9,0,1.5-.7,1.5-1.5s-.7-1.5-1.5-1.5-1.5.7-1.5,1.5ZM388.5,290.7c0,.9.7,1.5,1.5,1.5s1.5-.7,1.5-1.5-.7-1.6-1.5-1.6-1.5.7-1.5,1.6ZM360.6,290.7c0,.9.7,1.5,1.5,1.5-.9,0-1.5.7-1.5,1.6s.7,1.5,1.5,1.5,1.5-.7,1.5-1.5-.7-1.6-1.5-1.6c.9,0,1.5-.7,1.5-1.5s-.7-1.6-1.5-1.6-1.5.7-1.5,1.6ZM357.5,290.7c0,.9.7,1.5,1.5,1.5-.9,0-1.5.7-1.5,1.6s.7,1.5,1.5,1.5,1.5-.7,1.5-1.5-.7-1.6-1.5-1.6c.9,0,1.5-.7,1.5-1.5s-.7-1.6-1.5-1.6-1.5.7-1.5,1.6ZM338.8,290.7c0,.9.7,1.5,1.5,1.5-.9,0-1.5.7-1.5,1.6s.7,1.5,1.5,1.5,1.5-.7,1.5-1.5-.7-1.6-1.5-1.6c.9,0,1.5-.7,1.5-1.5s-.7-1.6-1.5-1.6-1.5.7-1.5,1.6ZM313.9,290.7c0,.9.7,1.5,1.5,1.5-.9,0-1.5.7-1.5,1.6s.7,1.5,1.5,1.5,1.5-.7,1.5-1.5-.7-1.6-1.5-1.6c.9,0,1.5-.7,1.5-1.5s-.7-1.6-1.5-1.6-1.5.7-1.5,1.6ZM385.4,293.8c0,.9.7,1.5,1.5,1.5-.9,0-1.5.7-1.5,1.6s.7,1.5,1.5,1.5c-.9,0-1.5.7-1.5,1.6s.7,1.5,1.5,1.5,1.5-.7,1.5-1.5-.7-1.6-1.5-1.6c.9,0,1.5-.7,1.5-1.5s-.7-1.6-1.5-1.6c.9,0,1.5-.7,1.5-1.5s-.7-1.6-1.5-1.6-1.5.7-1.5,1.6ZM379.2,293.8c0,.9.7,1.5,1.5,1.5-.9,0-1.5.7-1.5,1.6s.7,1.5,1.5,1.5,1.5-.7,1.5-1.5-.7-1.6-1.5-1.6c.9,0,1.5-.7,1.5-1.5s-.7-1.6-1.5-1.6-1.5.7-1.5,1.6ZM373,293.8c0,.9.7,1.5,1.5,1.5-.9,0-1.5.7-1.5,1.6s.7,1.5,1.5,1.5c-.9,0-1.5.7-1.5,1.6s.7,1.5,1.5,1.5c-.9,0-1.5.7-1.5,1.6s.7,1.5,1.5,1.5,1.5-.7,1.5-1.5-.7-1.6-1.5-1.6c.9,0,1.5-.7,1.5-1.5s-.7-1.6-1.5-1.6c.9,0,1.5-.7,1.5-1.5s-.7-1.6-1.5-1.6c.9,0,1.5-.7,1.5-1.5s-.7-1.6-1.5-1.6-1.5.7-1.5,1.6ZM369.9,293.8c0,.9.7,1.5,1.5,1.5s1.5-.7,1.5-1.5-.7-1.6-1.5-1.6-1.5.7-1.5,1.6ZM366.8,293.8c0,.9.7,1.5,1.5,1.5s1.5-.7,1.5-1.5-.7-1.6-1.5-1.6-1.5.7-1.5,1.6ZM351.2,293.8c0,.9.7,1.5,1.5,1.5-.9,0-1.5.7-1.5,1.6s.7,1.5,1.5,1.5,1.5-.7,1.5-1.5-.7-1.6-1.5-1.6c.9,0,1.5-.7,1.5-1.5s-.7-1.6-1.5-1.6-1.5.7-1.5,1.6ZM332.6,293.8c0,.9.7,1.5,1.5,1.5-.9,0-1.5.7-1.5,1.6s.7,1.5,1.5,1.5,1.5-.7,1.5-1.5-.7-1.6-1.5-1.6c.9,0,1.5-.7,1.5-1.5s-.7-1.6-1.5-1.6-1.5.7-1.5,1.6ZM326.4,293.8c0,.9.7,1.5,1.5,1.5-.9,0-1.5.7-1.5,1.6s.7,1.5,1.5,1.5,1.5-.7,1.5-1.5-.7-1.6-1.5-1.6c.9,0,1.5-.7,1.5-1.5s-.7-1.6-1.5-1.6-1.5.7-1.5,1.6ZM323.2,293.8c0,.9.7,1.5,1.5,1.5-.9,0-1.5.7-1.5,1.6s.7,1.5,1.5,1.5c-.9,0-1.5.7-1.5,1.6s.7,1.5,1.5,1.5,1.5-.7,1.5-1.5-.7-1.6-1.5-1.6c.9,0,1.5-.7,1.5-1.5s-.7-1.6-1.5-1.6c.9,0,1.5-.7,1.5-1.5s-.7-1.6-1.5-1.6-1.5.7-1.5,1.6ZM320.1,293.8c0,.9.7,1.5,1.5,1.5s1.5-.7,1.5-1.5-.7-1.6-1.5-1.6-1.5.7-1.5,1.6ZM295.3,296.9c0,2.6,2.1,4.7,4.7,4.7s4.7-2.1,4.7-4.7-2.1-4.7-4.7-4.7-4.7,2.1-4.7,4.7ZM382.3,296.9c0,.9.7,1.5,1.5,1.5s1.5-.7,1.5-1.5-.7-1.5-1.5-1.5-1.5.7-1.5,1.5ZM354.3,296.9c0,.9.7,1.5,1.5,1.5s1.5-.7,1.5-1.5-.7-1.5-1.5-1.5-1.5.7-1.5,1.5ZM341.9,296.9c0,.9.7,1.5,1.5,1.5-.9,0-1.5.7-1.5,1.5s.7,1.5,1.5,1.5,1.5-.7,1.5-1.5-.7-1.5-1.5-1.5c.9,0,1.5-.7,1.5-1.5s-.7-1.5-1.5-1.5-1.5.7-1.5,1.5ZM335.7,296.9c0,.9.7,1.5,1.5,1.5-.9,0-1.5.7-1.5,1.5s.7,1.5,1.5,1.5,1.5-.7,1.5-1.5-.7-1.5-1.5-1.5c.9,0,1.5-.7,1.5-1.5s-.7-1.5-1.5-1.5-1.5.7-1.5,1.5ZM317,296.9c0,.9.7,1.5,1.5,1.5-.9,0-1.5.7-1.5,1.5s.7,1.5,1.5,1.5,1.5-.7,1.5-1.5-.7-1.5-1.5-1.5c.9,0,1.5-.7,1.5-1.5s-.7-1.5-1.5-1.5-1.5.7-1.5,1.5ZM369.9,300c0,.9.7,1.5,1.5,1.5-.9,0-1.5.7-1.5,1.5s.7,1.5,1.5,1.5,1.5-.7,1.5-1.5-.7-1.5-1.5-1.5c.9,0,1.5-.7,1.5-1.5s-.7-1.5-1.5-1.5-1.5.7-1.5,1.5ZM366.8,300c0,.9.7,1.5,1.5,1.5s1.5-.7,1.5-1.5-.7-1.5-1.5-1.5-1.5.7-1.5,1.5ZM360.6,300c0,.9.7,1.5,1.5,1.5s1.5-.7,1.5-1.5-.7-1.5-1.5-1.5-1.5.7-1.5,1.5ZM357.5,300c0,.9.7,1.5,1.5,1.5-.9,0-1.5.7-1.5,1.5s.7,1.5,1.5,1.5,1.5-.7,1.5-1.5-.7-1.5-1.5-1.5c.9,0,1.5-.7,1.5-1.5s-.7-1.5-1.5-1.5-1.5.7-1.5,1.5ZM345,300c0,.9.7,1.5,1.5,1.5s1.5-.7,1.5-1.5-.7-1.5-1.5-1.5-1.5.7-1.5,1.5ZM329.5,300c0,.9.7,1.5,1.5,1.5-.9,0-1.5.7-1.5,1.5s.7,1.5,1.5,1.5c-.9,0-1.5.7-1.5,1.5s.7,1.5,1.5,1.5,1.5-.7,1.5-1.5-.7-1.5-1.5-1.5c.9,0,1.5-.7,1.5-1.5s-.7-1.5-1.5-1.5c.9,0,1.5-.7,1.5-1.5s-.7-1.5-1.5-1.5-1.5.7-1.5,1.5ZM320.1,300c0,.9.7,1.5,1.5,1.5-.9,0-1.5.7-1.5,1.5s.7,1.5,1.5,1.5,1.5-.7,1.5-1.5-.7-1.5-1.5-1.5c.9,0,1.5-.7,1.5-1.5s-.7-1.5-1.5-1.5-1.5.7-1.5,1.5ZM388.5,303.2c0,.9.7,1.6,1.5,1.6s1.5-.7,1.5-1.6-.7-1.5-1.5-1.5-1.5.7-1.5,1.5ZM376.1,303.2c0,.9.7,1.6,1.5,1.6s1.5-.7,1.5-1.6-.7-1.5-1.5-1.5-1.5.7-1.5,1.5ZM363.7,303.2c0,.9.7,1.6,1.5,1.6-.9,0-1.5.7-1.5,1.5s.7,1.6,1.5,1.6,1.5-.7,1.5-1.6-.7-1.5-1.5-1.5c.9,0,1.5-.7,1.5-1.6s-.7-1.5-1.5-1.5-1.5.7-1.5,1.5ZM332.6,303.2c0,.9.7,1.6,1.5,1.6s1.5-.7,1.5-1.6-.7-1.5-1.5-1.5-1.5.7-1.5,1.5ZM326.4,303.2c0,.9.7,1.6,1.5,1.6-.9,0-1.5.7-1.5,1.5s.7,1.6,1.5,1.6,1.5-.7,1.5-1.6-.7-1.5-1.5-1.5c.9,0,1.5-.7,1.5-1.6s-.7-1.5-1.5-1.5-1.5.7-1.5,1.5ZM379.2,306.3c0,.9.7,1.5,1.5,1.5s1.5-.7,1.5-1.5-.7-1.5-1.5-1.5-1.5.7-1.5,1.5ZM366.8,306.3c0,.9.7,1.5,1.5,1.5s1.5-.7,1.5-1.5-.7-1.5-1.5-1.5-1.5.7-1.5,1.5ZM360.6,306.3c0,.9.7,1.5,1.5,1.5s1.5-.7,1.5-1.5-.7-1.5-1.5-1.5-1.5.7-1.5,1.5ZM354.3,306.3c0,.9.7,1.5,1.5,1.5s1.5-.7,1.5-1.5-.7-1.5-1.5-1.5-1.5.7-1.5,1.5ZM341.9,306.3c0,.9.7,1.5,1.5,1.5s1.5-.7,1.5-1.5-.7-1.5-1.5-1.5-1.5.7-1.5,1.5ZM338.8,306.3c0,.9.7,1.5,1.5,1.5s1.5-.7,1.5-1.5-.7-1.5-1.5-1.5-1.5.7-1.5,1.5ZM323.2,306.3c0,.9.7,1.5,1.5,1.5s1.5-.7,1.5-1.5-.7-1.5-1.5-1.5-1.5.7-1.5,1.5ZM317,306.3c0,.9.7,1.5,1.5,1.5s1.5-.7,1.5-1.5-.7-1.5-1.5-1.5-1.5.7-1.5,1.5ZM313.9,306.3c0,.9.7,1.5,1.5,1.5s1.5-.7,1.5-1.5-.7-1.5-1.5-1.5-1.5.7-1.5,1.5Z"/>
    </clipPath>
    <clipPath id="clippath-4">
      <path class="st0" d="M151.9,205.3c0,.9.7,1.6,1.6,1.6s1.6-.7,1.6-1.6-.7-1.6-1.6-1.6-1.6.7-1.6,1.6ZM145.6,205.3c0,.9.7,1.6,1.6,1.6-.9,0-1.6.7-1.6,1.6s.7,1.6,1.6,1.6,1.6-.7,1.6-1.6-.7-1.6-1.6-1.6c.9,0,1.6-.7,1.6-1.6s-.7-1.6-1.6-1.6-1.6.7-1.6,1.6ZM132.9,205.3c0,.9.7,1.6,1.6,1.6s1.6-.7,1.6-1.6-.7-1.6-1.6-1.6-1.6.7-1.6,1.6ZM129.7,205.3c0,.9.7,1.6,1.6,1.6s1.6-.7,1.6-1.6-.7-1.6-1.6-1.6-1.6.7-1.6,1.6ZM126.5,205.3c0,.9.7,1.6,1.6,1.6s1.6-.7,1.6-1.6-.7-1.6-1.6-1.6-1.6.7-1.6,1.6ZM123.4,205.3c0,.9.7,1.6,1.6,1.6s1.6-.7,1.6-1.6-.7-1.6-1.6-1.6-1.6.7-1.6,1.6ZM120.2,205.3c0,.9.7,1.6,1.6,1.6-.9,0-1.6.7-1.6,1.6s.7,1.6,1.6,1.6c-.9,0-1.6.7-1.6,1.6s.7,1.6,1.6,1.6c-.9,0-1.6.7-1.6,1.6s.7,1.6,1.6,1.6c-.9,0-1.6.7-1.6,1.6s.7,1.6,1.6,1.6c-.9,0-1.6.7-1.6,1.6s.7,1.6,1.6,1.6c-.9,0-1.6.7-1.6,1.6s.7,1.6,1.6,1.6,1.6-.7,1.6-1.6-.7-1.6-1.6-1.6c.9,0,1.6-.7,1.6-1.6s-.7-1.6-1.6-1.6c.9,0,1.6-.7,1.6-1.6s-.7-1.6-1.6-1.6c.9,0,1.6-.7,1.6-1.6s-.7-1.6-1.6-1.6c.9,0,1.6-.7,1.6-1.6s-.7-1.6-1.6-1.6c.9,0,1.6-.7,1.6-1.6s-.7-1.6-1.6-1.6c.9,0,1.6-.7,1.6-1.6s-.7-1.6-1.6-1.6-1.6.7-1.6,1.6ZM113.8,205.3c0,.9.7,1.6,1.6,1.6s1.6-.7,1.6-1.6-.7-1.6-1.6-1.6-1.6.7-1.6,1.6ZM110.7,205.3c0,.9.7,1.6,1.6,1.6-.9,0-1.6.7-1.6,1.6s.7,1.6,1.6,1.6c-.9,0-1.6.7-1.6,1.6s.7,1.6,1.6,1.6,1.6-.7,1.6-1.6-.7-1.6-1.6-1.6c.9,0,1.6-.7,1.6-1.6s-.7-1.6-1.6-1.6c.9,0,1.6-.7,1.6-1.6s-.7-1.6-1.6-1.6-1.6.7-1.6,1.6ZM107.5,205.3c0,.9.7,1.6,1.6,1.6-.9,0-1.6.7-1.6,1.6s.7,1.6,1.6,1.6c-.9,0-1.6.7-1.6,1.6s.7,1.6,1.6,1.6,1.6-.7,1.6-1.6-.7-1.6-1.6-1.6c.9,0,1.6-.7,1.6-1.6s-.7-1.6-1.6-1.6c.9,0,1.6-.7,1.6-1.6s-.7-1.6-1.6-1.6-1.6.7-1.6,1.6ZM86.9,203.7c-6.1,0-11.1,5-11.1,11.1,0,6.1,5,11.1,11.1,11.1,6.1,0,11.1-5,11.1-11.1,0-6.1-5-11.1-11.1-11.1h0ZM86.9,222.7c-4.4,0-7.9-3.6-7.9-7.9,0-4.4,3.6-7.9,7.9-7.9h0c4.4,0,7.9,3.6,7.9,7.9,0,4.4-3.6,7.9-7.9,7.9h0ZM169.4,203.7c-6.1,0-11.1,5-11.1,11.1,0,6.1,5,11.1,11.1,11.1,6.1,0,11.1-5,11.1-11.1h0c0-6.2-5-11.1-11.1-11.1h0ZM169.4,222.7c-4.4,0-7.9-3.6-7.9-7.9,0-4.4,3.6-7.9,7.9-7.9,4.4,0,7.9,3.5,7.9,7.9h0c0,4.4-3.6,7.9-7.9,7.9h0ZM148.8,208.5c0,.9.7,1.6,1.6,1.6-.9,0-1.6.7-1.6,1.6s.7,1.6,1.6,1.6,1.6-.7,1.6-1.6-.7-1.6-1.6-1.6c.9,0,1.6-.7,1.6-1.6s-.7-1.6-1.6-1.6-1.6.7-1.6,1.6ZM139.2,208.5c0,.9.7,1.6,1.6,1.6s1.6-.7,1.6-1.6-.7-1.6-1.6-1.6-1.6.7-1.6,1.6ZM101.2,208.5c0,.9.7,1.6,1.6,1.6s1.6-.7,1.6-1.6-.7-1.6-1.6-1.6-1.6.7-1.6,1.6ZM164.6,214.8c0,2.6,2.1,4.8,4.8,4.8s4.8-2.1,4.8-4.8-2.1-4.8-4.8-4.8-4.8,2.1-4.8,4.8ZM142.4,211.6c0,.9.7,1.6,1.6,1.6s1.6-.7,1.6-1.6-.7-1.6-1.6-1.6-1.6.7-1.6,1.6ZM136.1,211.6c0,.9.7,1.6,1.6,1.6s1.6-.7,1.6-1.6-.7-1.6-1.6-1.6-1.6.7-1.6,1.6ZM126.5,211.6c0,.9.7,1.6,1.6,1.6-.9,0-1.6.7-1.6,1.6s.7,1.6,1.6,1.6,1.6-.7,1.6-1.6-.7-1.6-1.6-1.6c.9,0,1.6-.7,1.6-1.6s-.7-1.6-1.6-1.6-1.6.7-1.6,1.6ZM117,211.6c0,.9.7,1.6,1.6,1.6s1.6-.7,1.6-1.6-.7-1.6-1.6-1.6-1.6.7-1.6,1.6ZM104.3,211.6c0,.9.7,1.6,1.6,1.6s1.6-.7,1.6-1.6-.7-1.6-1.6-1.6-1.6.7-1.6,1.6ZM82.1,214.8c0,2.6,2.1,4.8,4.8,4.8s4.8-2.1,4.8-4.8-2.1-4.8-4.8-4.8-4.8,2.1-4.8,4.8ZM145.6,214.8c0,.9.7,1.6,1.6,1.6-.9,0-1.6.7-1.6,1.6s.7,1.6,1.6,1.6,1.6-.7,1.6-1.6-.7-1.6-1.6-1.6c.9,0,1.6-.7,1.6-1.6s-.7-1.6-1.6-1.6-1.6.7-1.6,1.6ZM132.9,214.8c0,.9.7,1.6,1.6,1.6-.9,0-1.6.7-1.6,1.6s.7,1.6,1.6,1.6,1.6-.7,1.6-1.6-.7-1.6-1.6-1.6c.9,0,1.6-.7,1.6-1.6s-.7-1.6-1.6-1.6-1.6.7-1.6,1.6ZM129.7,214.8c0,.9.7,1.6,1.6,1.6-.9,0-1.6.7-1.6,1.6s.7,1.6,1.6,1.6,1.6-.7,1.6-1.6-.7-1.6-1.6-1.6c.9,0,1.6-.7,1.6-1.6s-.7-1.6-1.6-1.6-1.6.7-1.6,1.6ZM113.8,214.8c0,.9.7,1.6,1.6,1.6s1.6-.7,1.6-1.6-.7-1.6-1.6-1.6-1.6.7-1.6,1.6ZM101.2,214.8c0,.9.7,1.6,1.6,1.6s1.6-.7,1.6-1.6-.7-1.6-1.6-1.6-1.6.7-1.6,1.6ZM148.8,218c0,.9.7,1.6,1.6,1.6-.9,0-1.6.7-1.6,1.6s.7,1.6,1.6,1.6,1.6-.7,1.6-1.6-.7-1.6-1.6-1.6c.9,0,1.6-.7,1.6-1.6s-.7-1.6-1.6-1.6-1.6.7-1.6,1.6ZM136.1,218c0,.9.7,1.6,1.6,1.6s1.6-.7,1.6-1.6-.7-1.6-1.6-1.6-1.6.7-1.6,1.6ZM117,218c0,.9.7,1.6,1.6,1.6-.9,0-1.6.7-1.6,1.6s.7,1.6,1.6,1.6,1.6-.7,1.6-1.6-.7-1.6-1.6-1.6c.9,0,1.6-.7,1.6-1.6s-.7-1.6-1.6-1.6-1.6.7-1.6,1.6ZM110.7,218c0,.9.7,1.6,1.6,1.6s1.6-.7,1.6-1.6-.7-1.6-1.6-1.6-1.6.7-1.6,1.6ZM107.5,218c0,.9.7,1.6,1.6,1.6-.9,0-1.6.7-1.6,1.6s.7,1.6,1.6,1.6c-.9,0-1.6.7-1.6,1.6s.7,1.6,1.6,1.6,1.6-.7,1.6-1.6-.7-1.6-1.6-1.6c.9,0,1.6-.7,1.6-1.6s-.7-1.6-1.6-1.6c.9,0,1.6-.7,1.6-1.6s-.7-1.6-1.6-1.6-1.6.7-1.6,1.6ZM126.5,221.2c0,.9.7,1.6,1.6,1.6-.9,0-1.6.7-1.6,1.6s.7,1.6,1.6,1.6,1.6-.7,1.6-1.6-.7-1.6-1.6-1.6c.9,0,1.6-.7,1.6-1.6s-.7-1.6-1.6-1.6-1.6.7-1.6,1.6ZM113.8,221.2c0,.9.7,1.6,1.6,1.6-.9,0-1.6.7-1.6,1.6s.7,1.6,1.6,1.6c-.9,0-1.6.7-1.6,1.6s.7,1.6,1.6,1.6c-.9,0-1.6.7-1.6,1.6s.7,1.6,1.6,1.6,1.6-.7,1.6-1.6-.7-1.6-1.6-1.6c.9,0,1.6-.7,1.6-1.6s-.7-1.6-1.6-1.6c.9,0,1.6-.7,1.6-1.6s-.7-1.6-1.6-1.6c.9,0,1.6-.7,1.6-1.6s-.7-1.6-1.6-1.6-1.6.7-1.6,1.6ZM104.3,221.2c0,.9.7,1.6,1.6,1.6s1.6-.7,1.6-1.6-.7-1.6-1.6-1.6-1.6.7-1.6,1.6ZM101.2,221.2c0,.9.7,1.6,1.6,1.6-.9,0-1.6.7-1.6,1.6s.7,1.6,1.6,1.6c-.9,0-1.6.7-1.6,1.6s.7,1.6,1.6,1.6c-.9,0-1.6.7-1.6,1.6s.7,1.6,1.6,1.6c-.9,0-1.6.7-1.6,1.6s.7,1.6,1.6,1.6c-.9,0-1.6.7-1.6,1.6s.7,1.6,1.6,1.6,1.6-.7,1.6-1.6-.7-1.6-1.6-1.6c.9,0,1.6-.7,1.6-1.6s-.7-1.6-1.6-1.6c.9,0,1.6-.7,1.6-1.6s-.7-1.6-1.6-1.6c.9,0,1.6-.7,1.6-1.6s-.7-1.6-1.6-1.6c.9,0,1.6-.7,1.6-1.6s-.7-1.6-1.6-1.6c.9,0,1.6-.7,1.6-1.6s-.7-1.6-1.6-1.6-1.6.7-1.6,1.6ZM151.9,224.3c0,.9.7,1.6,1.6,1.6-.9,0-1.6.7-1.6,1.6s.7,1.6,1.6,1.6,1.6-.7,1.6-1.6-.7-1.6-1.6-1.6c.9,0,1.6-.7,1.6-1.6s-.7-1.6-1.6-1.6-1.6.7-1.6,1.6ZM145.6,224.3c0,.9.7,1.6,1.6,1.6s1.6-.7,1.6-1.6-.7-1.6-1.6-1.6-1.6.7-1.6,1.6ZM139.2,224.3c0,.9.7,1.6,1.6,1.6-.9,0-1.6.7-1.6,1.6s.7,1.6,1.6,1.6c-.9,0-1.6.7-1.6,1.6s.7,1.6,1.6,1.6,1.6-.7,1.6-1.6-.7-1.6-1.6-1.6c.9,0,1.6-.7,1.6-1.6s-.7-1.6-1.6-1.6c.9,0,1.6-.7,1.6-1.6s-.7-1.6-1.6-1.6-1.6.7-1.6,1.6ZM132.9,224.3c0,.9.7,1.6,1.6,1.6-.9,0-1.6.7-1.6,1.6s.7,1.6,1.6,1.6,1.6-.7,1.6-1.6-.7-1.6-1.6-1.6c.9,0,1.6-.7,1.6-1.6s-.7-1.6-1.6-1.6-1.6.7-1.6,1.6ZM129.7,227.5c0,.9.7,1.6,1.6,1.6-.9,0-1.6.7-1.6,1.6s.7,1.6,1.6,1.6c-.9,0-1.6.7-1.6,1.6s.7,1.6,1.6,1.6,1.6-.7,1.6-1.6-.7-1.6-1.6-1.6c.9,0,1.6-.7,1.6-1.6s-.7-1.6-1.6-1.6c.9,0,1.6-.7,1.6-1.6s-.7-1.6-1.6-1.6-1.6.7-1.6,1.6ZM123.4,227.5c0,.9.7,1.6,1.6,1.6-.9,0-1.6.7-1.6,1.6s.7,1.6,1.6,1.6c-.9,0-1.6.7-1.6,1.6s.7,1.6,1.6,1.6,1.6-.7,1.6-1.6-.7-1.6-1.6-1.6c.9,0,1.6-.7,1.6-1.6s-.7-1.6-1.6-1.6c.9,0,1.6-.7,1.6-1.6s-.7-1.6-1.6-1.6-1.6.7-1.6,1.6ZM174.1,230.7c0,.9.7,1.6,1.6,1.6-.9,0-1.6.7-1.6,1.6s.7,1.6,1.6,1.6,1.6-.7,1.6-1.6-.7-1.6-1.6-1.6c.9,0,1.6-.7,1.6-1.6s-.7-1.6-1.6-1.6-1.6.7-1.6,1.6ZM167.8,230.7c0,.9.7,1.6,1.6,1.6s1.6-.7,1.6-1.6-.7-1.6-1.6-1.6-1.6.7-1.6,1.6ZM161.4,230.7c0,.9.7,1.6,1.6,1.6s1.6-.7,1.6-1.6-.7-1.6-1.6-1.6-1.6.7-1.6,1.6ZM158.3,230.7c0,.9.7,1.6,1.6,1.6-.9,0-1.6.7-1.6,1.6s.7,1.6,1.6,1.6c-.9,0-1.6.7-1.6,1.6s.7,1.6,1.6,1.6c-.9,0-1.6.7-1.6,1.6s.7,1.6,1.6,1.6c-.9,0-1.6.7-1.6,1.6s.7,1.6,1.6,1.6c-.9,0-1.6.7-1.6,1.6s.7,1.6,1.6,1.6c-.9,0-1.6.7-1.6,1.6s.7,1.6,1.6,1.6,1.6-.7,1.6-1.6-.7-1.6-1.6-1.6c.9,0,1.6-.7,1.6-1.6s-.7-1.6-1.6-1.6c.9,0,1.6-.7,1.6-1.6s-.7-1.6-1.6-1.6c.9,0,1.6-.7,1.6-1.6s-.7-1.6-1.6-1.6c.9,0,1.6-.7,1.6-1.6s-.7-1.6-1.6-1.6c.9,0,1.6-.7,1.6-1.6s-.7-1.6-1.6-1.6c.9,0,1.6-.7,1.6-1.6s-.7-1.6-1.6-1.6-1.6.7-1.6,1.6ZM155.1,230.7c0,.9.7,1.6,1.6,1.6s1.6-.7,1.6-1.6-.7-1.6-1.6-1.6-1.6.7-1.6,1.6ZM148.8,230.7c0,.9.7,1.6,1.6,1.6s1.6-.7,1.6-1.6-.7-1.6-1.6-1.6-1.6.7-1.6,1.6ZM145.6,230.7c0,.9.7,1.6,1.6,1.6s1.6-.7,1.6-1.6-.7-1.6-1.6-1.6-1.6.7-1.6,1.6ZM142.4,230.7c0,.9.7,1.6,1.6,1.6-.9,0-1.6.7-1.6,1.6s.7,1.6,1.6,1.6c-.9,0-1.6.7-1.6,1.6s.7,1.6,1.6,1.6c-.9,0-1.6.7-1.6,1.6s.7,1.6,1.6,1.6c-.9,0-1.6.7-1.6,1.6s.7,1.6,1.6,1.6c-.9,0-1.6.7-1.6,1.6s.7,1.6,1.6,1.6,1.6-.7,1.6-1.6-.7-1.6-1.6-1.6c.9,0,1.6-.7,1.6-1.6s-.7-1.6-1.6-1.6c.9,0,1.6-.7,1.6-1.6s-.7-1.6-1.6-1.6c.9,0,1.6-.7,1.6-1.6s-.7-1.6-1.6-1.6c.9,0,1.6-.7,1.6-1.6s-.7-1.6-1.6-1.6c.9,0,1.6-.7,1.6-1.6s-.7-1.6-1.6-1.6-1.6.7-1.6,1.6ZM136.1,230.7c0,.9.7,1.6,1.6,1.6-.9,0-1.6.7-1.6,1.6s.7,1.6,1.6,1.6,1.6-.7,1.6-1.6-.7-1.6-1.6-1.6c.9,0,1.6-.7,1.6-1.6s-.7-1.6-1.6-1.6-1.6.7-1.6,1.6ZM126.5,230.7c0,.9.7,1.6,1.6,1.6-.9,0-1.6.7-1.6,1.6s.7,1.6,1.6,1.6c-.9,0-1.6.7-1.6,1.6s.7,1.6,1.6,1.6c-.9,0-1.6.7-1.6,1.6s.7,1.6,1.6,1.6c-.9,0-1.6.7-1.6,1.6s.7,1.6,1.6,1.6c-.9,0-1.6.7-1.6,1.6s.7,1.6,1.6,1.6c-.9,0-1.6.7-1.6,1.6s.7,1.6,1.6,1.6,1.6-.7,1.6-1.6-.7-1.6-1.6-1.6c.9,0,1.6-.7,1.6-1.6s-.7-1.6-1.6-1.6c.9,0,1.6-.7,1.6-1.6s-.7-1.6-1.6-1.6c.9,0,1.6-.7,1.6-1.6s-.7-1.6-1.6-1.6c.9,0,1.6-.7,1.6-1.6s-.7-1.6-1.6-1.6c.9,0,1.6-.7,1.6-1.6s-.7-1.6-1.6-1.6c.9,0,1.6-.7,1.6-1.6s-.7-1.6-1.6-1.6-1.6.7-1.6,1.6ZM120.2,230.7c0,.9.7,1.6,1.6,1.6-.9,0-1.6.7-1.6,1.6s.7,1.6,1.6,1.6c-.9,0-1.6.7-1.6,1.6s.7,1.6,1.6,1.6c-.9,0-1.6.7-1.6,1.6s.7,1.6,1.6,1.6,1.6-.7,1.6-1.6-.7-1.6-1.6-1.6c.9,0,1.6-.7,1.6-1.6s-.7-1.6-1.6-1.6c.9,0,1.6-.7,1.6-1.6s-.7-1.6-1.6-1.6c.9,0,1.6-.7,1.6-1.6s-.7-1.6-1.6-1.6-1.6.7-1.6,1.6ZM107.5,230.7c0,.9.7,1.6,1.6,1.6-.9,0-1.6.7-1.6,1.6s.7,1.6,1.6,1.6,1.6-.7,1.6-1.6-.7-1.6-1.6-1.6c.9,0,1.6-.7,1.6-1.6s-.7-1.6-1.6-1.6-1.6.7-1.6,1.6ZM98,230.7c0,.9.7,1.6,1.6,1.6-.9,0-1.6.7-1.6,1.6s.7,1.6,1.6,1.6,1.6-.7,1.6-1.6-.7-1.6-1.6-1.6c.9,0,1.6-.7,1.6-1.6s-.7-1.6-1.6-1.6-1.6.7-1.6,1.6ZM94.8,230.7c0,.9.7,1.6,1.6,1.6s1.6-.7,1.6-1.6-.7-1.6-1.6-1.6-1.6.7-1.6,1.6ZM91.6,230.7c0,.9.7,1.6,1.6,1.6s1.6-.7,1.6-1.6-.7-1.6-1.6-1.6-1.6.7-1.6,1.6ZM85.3,230.7c0,.9.7,1.6,1.6,1.6-.9,0-1.6.7-1.6,1.6s.7,1.6,1.6,1.6,1.6-.7,1.6-1.6-.7-1.6-1.6-1.6c.9,0,1.6-.7,1.6-1.6s-.7-1.6-1.6-1.6-1.6.7-1.6,1.6ZM82.1,230.7c0,.9.7,1.6,1.6,1.6-.9,0-1.6.7-1.6,1.6s.7,1.6,1.6,1.6c-.9,0-1.6.7-1.6,1.6s.7,1.6,1.6,1.6c-.9,0-1.6.7-1.6,1.6s.7,1.6,1.6,1.6,1.6-.7,1.6-1.6-.7-1.6-1.6-1.6c.9,0,1.6-.7,1.6-1.6s-.7-1.6-1.6-1.6c.9,0,1.6-.7,1.6-1.6s-.7-1.6-1.6-1.6c.9,0,1.6-.7,1.6-1.6s-.7-1.6-1.6-1.6-1.6.7-1.6,1.6ZM75.8,230.7c0,.9.7,1.6,1.6,1.6s1.6-.7,1.6-1.6-.7-1.6-1.6-1.6-1.6.7-1.6,1.6ZM171,233.9c0,.9.7,1.6,1.6,1.6s1.6-.7,1.6-1.6-.7-1.6-1.6-1.6-1.6.7-1.6,1.6ZM164.6,233.9c0,.9.7,1.6,1.6,1.6s1.6-.7,1.6-1.6-.7-1.6-1.6-1.6-1.6.7-1.6,1.6ZM117,233.9c0,.9.7,1.6,1.6,1.6-.9,0-1.6.7-1.6,1.6s.7,1.6,1.6,1.6c-.9,0-1.6.7-1.6,1.6s.7,1.6,1.6,1.6,1.6-.7,1.6-1.6-.7-1.6-1.6-1.6c.9,0,1.6-.7,1.6-1.6s-.7-1.6-1.6-1.6c.9,0,1.6-.7,1.6-1.6s-.7-1.6-1.6-1.6-1.6.7-1.6,1.6ZM110.7,233.9c0,.9.7,1.6,1.6,1.6s1.6-.7,1.6-1.6-.7-1.6-1.6-1.6-1.6.7-1.6,1.6ZM104.3,233.9c0,.9.7,1.6,1.6,1.6-.9,0-1.6.7-1.6,1.6s.7,1.6,1.6,1.6c-.9,0-1.6.7-1.6,1.6s.7,1.6,1.6,1.6,1.6-.7,1.6-1.6-.7-1.6-1.6-1.6c.9,0,1.6-.7,1.6-1.6s-.7-1.6-1.6-1.6c.9,0,1.6-.7,1.6-1.6s-.7-1.6-1.6-1.6-1.6.7-1.6,1.6ZM161.4,237c0,.9.7,1.6,1.6,1.6-.9,0-1.6.7-1.6,1.6s.7,1.6,1.6,1.6c-.9,0-1.6.7-1.6,1.6s.7,1.6,1.6,1.6c-.9,0-1.6.7-1.6,1.6s.7,1.6,1.6,1.6,1.6-.7,1.6-1.6-.7-1.6-1.6-1.6c.9,0,1.6-.7,1.6-1.6s-.7-1.6-1.6-1.6c.9,0,1.6-.7,1.6-1.6s-.7-1.6-1.6-1.6c.9,0,1.6-.7,1.6-1.6s-.7-1.6-1.6-1.6-1.6.7-1.6,1.6ZM148.8,237c0,.9.7,1.6,1.6,1.6-.9,0-1.6.7-1.6,1.6s.7,1.6,1.6,1.6c-.9,0-1.6.7-1.6,1.6s.7,1.6,1.6,1.6c-.9,0-1.6.7-1.6,1.6s.7,1.6,1.6,1.6,1.6-.7,1.6-1.6-.7-1.6-1.6-1.6c.9,0,1.6-.7,1.6-1.6s-.7-1.6-1.6-1.6c.9,0,1.6-.7,1.6-1.6s-.7-1.6-1.6-1.6c.9,0,1.6-.7,1.6-1.6s-.7-1.6-1.6-1.6-1.6.7-1.6,1.6ZM145.6,237c0,.9.7,1.6,1.6,1.6-.9,0-1.6.7-1.6,1.6s.7,1.6,1.6,1.6,1.6-.7,1.6-1.6-.7-1.6-1.6-1.6c.9,0,1.6-.7,1.6-1.6s-.7-1.6-1.6-1.6-1.6.7-1.6,1.6ZM139.2,237c0,.9.7,1.6,1.6,1.6-.9,0-1.6.7-1.6,1.6s.7,1.6,1.6,1.6,1.6-.7,1.6-1.6-.7-1.6-1.6-1.6c.9,0,1.6-.7,1.6-1.6s-.7-1.6-1.6-1.6-1.6.7-1.6,1.6ZM132.9,237c0,.9.7,1.6,1.6,1.6s1.6-.7,1.6-1.6-.7-1.6-1.6-1.6-1.6.7-1.6,1.6ZM113.8,237c0,.9.7,1.6,1.6,1.6s1.6-.7,1.6-1.6-.7-1.6-1.6-1.6-1.6.7-1.6,1.6ZM94.8,237c0,.9.7,1.6,1.6,1.6s1.6-.7,1.6-1.6-.7-1.6-1.6-1.6-1.6.7-1.6,1.6ZM78.9,237c0,.9.7,1.6,1.6,1.6s1.6-.7,1.6-1.6-.7-1.6-1.6-1.6-1.6.7-1.6,1.6ZM177.3,240.2c0,.9.7,1.6,1.6,1.6-.9,0-1.6.7-1.6,1.6s.7,1.6,1.6,1.6,1.6-.7,1.6-1.6-.7-1.6-1.6-1.6c.9,0,1.6-.7,1.6-1.6s-.7-1.6-1.6-1.6-1.6.7-1.6,1.6ZM174.1,240.2c0,.9.7,1.6,1.6,1.6s1.6-.7,1.6-1.6-.7-1.6-1.6-1.6-1.6.7-1.6,1.6ZM167.8,240.2c0,.9.7,1.6,1.6,1.6s1.6-.7,1.6-1.6-.7-1.6-1.6-1.6-1.6.7-1.6,1.6ZM164.6,240.2c0,.9.7,1.6,1.6,1.6s1.6-.7,1.6-1.6-.7-1.6-1.6-1.6-1.6.7-1.6,1.6ZM151.9,240.2c0,.9.7,1.6,1.6,1.6-.9,0-1.6.7-1.6,1.6s.7,1.6,1.6,1.6c-.9,0-1.6.7-1.6,1.6s.7,1.6,1.6,1.6,1.6-.7,1.6-1.6-.7-1.6-1.6-1.6c.9,0,1.6-.7,1.6-1.6s-.7-1.6-1.6-1.6c.9,0,1.6-.7,1.6-1.6s-.7-1.6-1.6-1.6-1.6.7-1.6,1.6ZM136.1,240.2c0,.9.7,1.6,1.6,1.6s1.6-.7,1.6-1.6-.7-1.6-1.6-1.6-1.6.7-1.6,1.6ZM129.7,240.2c0,.9.7,1.6,1.6,1.6s1.6-.7,1.6-1.6-.7-1.6-1.6-1.6-1.6.7-1.6,1.6ZM107.5,240.2c0,.9.7,1.6,1.6,1.6s1.6-.7,1.6-1.6-.7-1.6-1.6-1.6-1.6.7-1.6,1.6ZM88.5,240.2c0,.9.7,1.6,1.6,1.6-.9,0-1.6.7-1.6,1.6s.7,1.6,1.6,1.6c-.9,0-1.6.7-1.6,1.6s.7,1.6,1.6,1.6c-.9,0-1.6.7-1.6,1.6s.7,1.6,1.6,1.6,1.6-.7,1.6-1.6-.7-1.6-1.6-1.6c.9,0,1.6-.7,1.6-1.6s-.7-1.6-1.6-1.6c.9,0,1.6-.7,1.6-1.6s-.7-1.6-1.6-1.6c.9,0,1.6-.7,1.6-1.6s-.7-1.6-1.6-1.6-1.6.7-1.6,1.6ZM85.3,240.2c0,.9.7,1.6,1.6,1.6-.9,0-1.6.7-1.6,1.6s.7,1.6,1.6,1.6,1.6-.7,1.6-1.6-.7-1.6-1.6-1.6c.9,0,1.6-.7,1.6-1.6s-.7-1.6-1.6-1.6-1.6.7-1.6,1.6ZM75.8,240.2c0,.9.7,1.6,1.6,1.6s1.6-.7,1.6-1.6-.7-1.6-1.6-1.6-1.6.7-1.6,1.6ZM132.9,243.4c0,.9.7,1.6,1.6,1.6s1.6-.7,1.6-1.6-.7-1.6-1.6-1.6-1.6.7-1.6,1.6ZM101.2,243.4c0,.9.7,1.6,1.6,1.6s1.6-.7,1.6-1.6-.7-1.6-1.6-1.6-1.6.7-1.6,1.6ZM94.8,243.4c0,.9.7,1.6,1.6,1.6s1.6-.7,1.6-1.6-.7-1.6-1.6-1.6-1.6.7-1.6,1.6ZM78.9,243.4c0,.9.7,1.6,1.6,1.6-.9,0-1.6.7-1.6,1.6s.7,1.6,1.6,1.6,1.6-.7,1.6-1.6-.7-1.6-1.6-1.6c.9,0,1.6-.7,1.6-1.6s-.7-1.6-1.6-1.6-1.6.7-1.6,1.6ZM171,246.5c0,.9.7,1.6,1.6,1.6-.9,0-1.6.7-1.6,1.6s.7,1.6,1.6,1.6c-.9,0-1.6.7-1.6,1.6s.7,1.6,1.6,1.6c-.9,0-1.6.7-1.6,1.6s.7,1.6,1.6,1.6,1.6-.7,1.6-1.6-.7-1.6-1.6-1.6c.9,0,1.6-.7,1.6-1.6s-.7-1.6-1.6-1.6c.9,0,1.6-.7,1.6-1.6s-.7-1.6-1.6-1.6c.9,0,1.6-.7,1.6-1.6s-.7-1.6-1.6-1.6-1.6.7-1.6,1.6ZM167.8,246.5c0,.9.7,1.6,1.6,1.6s1.6-.7,1.6-1.6-.7-1.6-1.6-1.6-1.6.7-1.6,1.6ZM155.1,246.5c0,.9.7,1.6,1.6,1.6-.9,0-1.6.7-1.6,1.6s.7,1.6,1.6,1.6c-.9,0-1.6.7-1.6,1.6s.7,1.6,1.6,1.6,1.6-.7,1.6-1.6-.7-1.6-1.6-1.6c.9,0,1.6-.7,1.6-1.6s-.7-1.6-1.6-1.6c.9,0,1.6-.7,1.6-1.6s-.7-1.6-1.6-1.6-1.6.7-1.6,1.6ZM145.6,246.5c0,.9.7,1.6,1.6,1.6s1.6-.7,1.6-1.6-.7-1.6-1.6-1.6-1.6.7-1.6,1.6ZM136.1,246.5c0,.9.7,1.6,1.6,1.6s1.6-.7,1.6-1.6-.7-1.6-1.6-1.6-1.6.7-1.6,1.6ZM129.7,246.5c0,.9.7,1.6,1.6,1.6-.9,0-1.6.7-1.6,1.6s.7,1.6,1.6,1.6,1.6-.7,1.6-1.6-.7-1.6-1.6-1.6c.9,0,1.6-.7,1.6-1.6s-.7-1.6-1.6-1.6-1.6.7-1.6,1.6ZM120.2,246.5c0,.9.7,1.6,1.6,1.6s1.6-.7,1.6-1.6-.7-1.6-1.6-1.6-1.6.7-1.6,1.6ZM113.8,246.5c0,.9.7,1.6,1.6,1.6-.9,0-1.6.7-1.6,1.6s.7,1.6,1.6,1.6,1.6-.7,1.6-1.6-.7-1.6-1.6-1.6c.9,0,1.6-.7,1.6-1.6s-.7-1.6-1.6-1.6-1.6.7-1.6,1.6ZM110.7,246.5c0,.9.7,1.6,1.6,1.6s1.6-.7,1.6-1.6-.7-1.6-1.6-1.6-1.6.7-1.6,1.6ZM107.5,246.5c0,.9.7,1.6,1.6,1.6s1.6-.7,1.6-1.6-.7-1.6-1.6-1.6-1.6.7-1.6,1.6ZM75.8,246.5c0,.9.7,1.6,1.6,1.6-.9,0-1.6.7-1.6,1.6s.7,1.6,1.6,1.6,1.6-.7,1.6-1.6-.7-1.6-1.6-1.6c.9,0,1.6-.7,1.6-1.6s-.7-1.6-1.6-1.6-1.6.7-1.6,1.6ZM177.3,249.7c0,.9.7,1.6,1.6,1.6s1.6-.7,1.6-1.6-.7-1.6-1.6-1.6-1.6.7-1.6,1.6ZM164.6,249.7c0,.9.7,1.6,1.6,1.6s1.6-.7,1.6-1.6-.7-1.6-1.6-1.6-1.6.7-1.6,1.6ZM139.2,249.7c0,.9.7,1.6,1.6,1.6s1.6-.7,1.6-1.6-.7-1.6-1.6-1.6-1.6.7-1.6,1.6ZM132.9,249.7c0,.9.7,1.6,1.6,1.6-.9,0-1.6.7-1.6,1.6s.7,1.6,1.6,1.6,1.6-.7,1.6-1.6-.7-1.6-1.6-1.6c.9,0,1.6-.7,1.6-1.6s-.7-1.6-1.6-1.6-1.6.7-1.6,1.6ZM117,249.7c0,.9.7,1.6,1.6,1.6-.9,0-1.6.7-1.6,1.6s.7,1.6,1.6,1.6c-.9,0-1.6.7-1.6,1.6s.7,1.6,1.6,1.6,1.6-.7,1.6-1.6-.7-1.6-1.6-1.6c.9,0,1.6-.7,1.6-1.6s-.7-1.6-1.6-1.6c.9,0,1.6-.7,1.6-1.6s-.7-1.6-1.6-1.6-1.6.7-1.6,1.6ZM98,249.7c0,.9.7,1.6,1.6,1.6s1.6-.7,1.6-1.6-.7-1.6-1.6-1.6-1.6.7-1.6,1.6ZM94.8,249.7c0,.9.7,1.6,1.6,1.6s1.6-.7,1.6-1.6-.7-1.6-1.6-1.6-1.6.7-1.6,1.6ZM82.1,249.7c0,.9.7,1.6,1.6,1.6s1.6-.7,1.6-1.6-.7-1.6-1.6-1.6-1.6.7-1.6,1.6ZM151.9,252.9c0,.9.7,1.6,1.6,1.6s1.6-.7,1.6-1.6-.7-1.6-1.6-1.6-1.6.7-1.6,1.6ZM148.8,252.9c0,.9.7,1.6,1.6,1.6-.9,0-1.6.7-1.6,1.6s.7,1.6,1.6,1.6c-.9,0-1.6.7-1.6,1.6s.7,1.6,1.6,1.6c-.9,0-1.6.7-1.6,1.6s.7,1.6,1.6,1.6,1.6-.7,1.6-1.6-.7-1.6-1.6-1.6c.9,0,1.6-.7,1.6-1.6s-.7-1.6-1.6-1.6c.9,0,1.6-.7,1.6-1.6s-.7-1.6-1.6-1.6c.9,0,1.6-.7,1.6-1.6s-.7-1.6-1.6-1.6-1.6.7-1.6,1.6ZM145.6,252.9c0,.9.7,1.6,1.6,1.6s1.6-.7,1.6-1.6-.7-1.6-1.6-1.6-1.6.7-1.6,1.6ZM136.1,252.9c0,.9.7,1.6,1.6,1.6s1.6-.7,1.6-1.6-.7-1.6-1.6-1.6-1.6.7-1.6,1.6ZM123.4,252.9c0,.9.7,1.6,1.6,1.6-.9,0-1.6.7-1.6,1.6s.7,1.6,1.6,1.6c-.9,0-1.6.7-1.6,1.6s.7,1.6,1.6,1.6,1.6-.7,1.6-1.6-.7-1.6-1.6-1.6c.9,0,1.6-.7,1.6-1.6s-.7-1.6-1.6-1.6c.9,0,1.6-.7,1.6-1.6s-.7-1.6-1.6-1.6-1.6.7-1.6,1.6ZM120.2,252.9c0,.9.7,1.6,1.6,1.6-.9,0-1.6.7-1.6,1.6s.7,1.6,1.6,1.6,1.6-.7,1.6-1.6-.7-1.6-1.6-1.6c.9,0,1.6-.7,1.6-1.6s-.7-1.6-1.6-1.6-1.6.7-1.6,1.6ZM91.6,252.9c0,.9.7,1.6,1.6,1.6-.9,0-1.6.7-1.6,1.6s.7,1.6,1.6,1.6,1.6-.7,1.6-1.6-.7-1.6-1.6-1.6c.9,0,1.6-.7,1.6-1.6s-.7-1.6-1.6-1.6-1.6.7-1.6,1.6ZM78.9,252.9c0,.9.7,1.6,1.6,1.6s1.6-.7,1.6-1.6-.7-1.6-1.6-1.6-1.6.7-1.6,1.6ZM177.3,256.1c0,.9.7,1.6,1.6,1.6-.9,0-1.6.7-1.6,1.6s.7,1.6,1.6,1.6,1.6-.7,1.6-1.6-.7-1.6-1.6-1.6c.9,0,1.6-.7,1.6-1.6s-.7-1.6-1.6-1.6-1.6.7-1.6,1.6ZM174.1,256.1c0,.9.7,1.6,1.6,1.6s1.6-.7,1.6-1.6-.7-1.6-1.6-1.6-1.6.7-1.6,1.6ZM167.8,256.1c0,.9.7,1.6,1.6,1.6-.9,0-1.6.7-1.6,1.6s.7,1.6,1.6,1.6c-.9,0-1.6.7-1.6,1.6s.7,1.6,1.6,1.6c-.9,0-1.6.7-1.6,1.6s.7,1.6,1.6,1.6c-.9,0-1.6.7-1.6,1.6s.7,1.6,1.6,1.6c-.9,0-1.6.7-1.6,1.6s.7,1.6,1.6,1.6,1.6-.7,1.6-1.6-.7-1.6-1.6-1.6c.9,0,1.6-.7,1.6-1.6s-.7-1.6-1.6-1.6c.9,0,1.6-.7,1.6-1.6s-.7-1.6-1.6-1.6c.9,0,1.6-.7,1.6-1.6s-.7-1.6-1.6-1.6c.9,0,1.6-.7,1.6-1.6s-.7-1.6-1.6-1.6c.9,0,1.6-.7,1.6-1.6s-.7-1.6-1.6-1.6-1.6.7-1.6,1.6ZM164.6,256.1c0,.9.7,1.6,1.6,1.6-.9,0-1.6.7-1.6,1.6s.7,1.6,1.6,1.6,1.6-.7,1.6-1.6-.7-1.6-1.6-1.6c.9,0,1.6-.7,1.6-1.6s-.7-1.6-1.6-1.6-1.6.7-1.6,1.6ZM158.3,256.1c0,.9.7,1.6,1.6,1.6s1.6-.7,1.6-1.6-.7-1.6-1.6-1.6-1.6.7-1.6,1.6ZM142.4,256.1c0,.9.7,1.6,1.6,1.6s1.6-.7,1.6-1.6-.7-1.6-1.6-1.6-1.6.7-1.6,1.6ZM129.7,256.1c0,.9.7,1.6,1.6,1.6s1.6-.7,1.6-1.6-.7-1.6-1.6-1.6-1.6.7-1.6,1.6ZM126.5,256.1c0,.9.7,1.6,1.6,1.6-.9,0-1.6.7-1.6,1.6s.7,1.6,1.6,1.6c-.9,0-1.6.7-1.6,1.6s.7,1.6,1.6,1.6c-.9,0-1.6.7-1.6,1.6s.7,1.6,1.6,1.6c-.9,0-1.6.7-1.6,1.6s.7,1.6,1.6,1.6c-.9,0-1.6.7-1.6,1.6s.7,1.6,1.6,1.6c-.9,0-1.6.7-1.6,1.6s.7,1.6,1.6,1.6c-.9,0-1.6.7-1.6,1.6s.7,1.6,1.6,1.6c-.9,0-1.6.7-1.6,1.6s.7,1.6,1.6,1.6,1.6-.7,1.6-1.6-.7-1.6-1.6-1.6c.9,0,1.6-.7,1.6-1.6s-.7-1.6-1.6-1.6c.9,0,1.6-.7,1.6-1.6s-.7-1.6-1.6-1.6c.9,0,1.6-.7,1.6-1.6s-.7-1.6-1.6-1.6c.9,0,1.6-.7,1.6-1.6s-.7-1.6-1.6-1.6c.9,0,1.6-.7,1.6-1.6s-.7-1.6-1.6-1.6c.9,0,1.6-.7,1.6-1.6s-.7-1.6-1.6-1.6c.9,0,1.6-.7,1.6-1.6s-.7-1.6-1.6-1.6c.9,0,1.6-.7,1.6-1.6s-.7-1.6-1.6-1.6-1.6.7-1.6,1.6ZM113.8,256.1c0,.9.7,1.6,1.6,1.6s1.6-.7,1.6-1.6-.7-1.6-1.6-1.6-1.6.7-1.6,1.6ZM110.7,256.1c0,.9.7,1.6,1.6,1.6-.9,0-1.6.7-1.6,1.6s.7,1.6,1.6,1.6,1.6-.7,1.6-1.6-.7-1.6-1.6-1.6c.9,0,1.6-.7,1.6-1.6s-.7-1.6-1.6-1.6-1.6.7-1.6,1.6ZM107.5,256.1c0,.9.7,1.6,1.6,1.6-.9,0-1.6.7-1.6,1.6s.7,1.6,1.6,1.6,1.6-.7,1.6-1.6-.7-1.6-1.6-1.6c.9,0,1.6-.7,1.6-1.6s-.7-1.6-1.6-1.6-1.6.7-1.6,1.6ZM104.3,256.1c0,.9.7,1.6,1.6,1.6s1.6-.7,1.6-1.6-.7-1.6-1.6-1.6-1.6.7-1.6,1.6ZM101.2,256.1c0,.9.7,1.6,1.6,1.6s1.6-.7,1.6-1.6-.7-1.6-1.6-1.6-1.6.7-1.6,1.6ZM94.8,256.1c0,.9.7,1.6,1.6,1.6s1.6-.7,1.6-1.6-.7-1.6-1.6-1.6-1.6.7-1.6,1.6ZM88.5,256.1c0,.9.7,1.6,1.6,1.6s1.6-.7,1.6-1.6-.7-1.6-1.6-1.6-1.6.7-1.6,1.6ZM75.8,256.1c0,.9.7,1.6,1.6,1.6s1.6-.7,1.6-1.6-.7-1.6-1.6-1.6-1.6.7-1.6,1.6ZM161.4,259.2c0,.9.7,1.6,1.6,1.6s1.6-.7,1.6-1.6-.7-1.6-1.6-1.6-1.6.7-1.6,1.6ZM155.1,259.2c0,.9.7,1.6,1.6,1.6s1.6-.7,1.6-1.6-.7-1.6-1.6-1.6-1.6.7-1.6,1.6ZM151.9,259.2c0,.9.7,1.6,1.6,1.6s1.6-.7,1.6-1.6-.7-1.6-1.6-1.6-1.6.7-1.6,1.6ZM136.1,259.2c0,.9.7,1.6,1.6,1.6s1.6-.7,1.6-1.6-.7-1.6-1.6-1.6-1.6.7-1.6,1.6ZM98,259.2c0,.9.7,1.6,1.6,1.6-.9,0-1.6.7-1.6,1.6s.7,1.6,1.6,1.6c-.9,0-1.6.7-1.6,1.6s.7,1.6,1.6,1.6c-.9,0-1.6.7-1.6,1.6s.7,1.6,1.6,1.6c-.9,0-1.6.7-1.6,1.6s.7,1.6,1.6,1.6,1.6-.7,1.6-1.6-.7-1.6-1.6-1.6c.9,0,1.6-.7,1.6-1.6s-.7-1.6-1.6-1.6c.9,0,1.6-.7,1.6-1.6s-.7-1.6-1.6-1.6c.9,0,1.6-.7,1.6-1.6s-.7-1.6-1.6-1.6c.9,0,1.6-.7,1.6-1.6s-.7-1.6-1.6-1.6-1.6.7-1.6,1.6ZM85.3,259.2c0,.9.7,1.6,1.6,1.6s1.6-.7,1.6-1.6-.7-1.6-1.6-1.6-1.6.7-1.6,1.6ZM82.1,259.2c0,.9.7,1.6,1.6,1.6s1.6-.7,1.6-1.6-.7-1.6-1.6-1.6-1.6.7-1.6,1.6ZM78.9,259.2c0,.9.7,1.6,1.6,1.6s1.6-.7,1.6-1.6-.7-1.6-1.6-1.6-1.6.7-1.6,1.6ZM171,262.4c0,.9.7,1.6,1.6,1.6s1.6-.7,1.6-1.6-.7-1.6-1.6-1.6-1.6.7-1.6,1.6ZM158.3,262.4c0,.9.7,1.6,1.6,1.6s1.6-.7,1.6-1.6-.7-1.6-1.6-1.6-1.6.7-1.6,1.6ZM145.6,262.4c0,.9.7,1.6,1.6,1.6s1.6-.7,1.6-1.6-.7-1.6-1.6-1.6-1.6.7-1.6,1.6ZM94.8,262.4c0,.9.7,1.6,1.6,1.6s1.6-.7,1.6-1.6-.7-1.6-1.6-1.6-1.6.7-1.6,1.6ZM75.8,262.4c0,.9.7,1.6,1.6,1.6-.9,0-1.6.7-1.6,1.6s.7,1.6,1.6,1.6,1.6-.7,1.6-1.6-.7-1.6-1.6-1.6c.9,0,1.6-.7,1.6-1.6s-.7-1.6-1.6-1.6-1.6.7-1.6,1.6ZM164.6,265.6c0,.9.7,1.6,1.6,1.6s1.6-.7,1.6-1.6-.7-1.6-1.6-1.6-1.6.7-1.6,1.6ZM161.4,265.6c0,.9.7,1.6,1.6,1.6-.9,0-1.6.7-1.6,1.6s.7,1.6,1.6,1.6,1.6-.7,1.6-1.6-.7-1.6-1.6-1.6c.9,0,1.6-.7,1.6-1.6s-.7-1.6-1.6-1.6-1.6.7-1.6,1.6ZM155.1,265.6c0,.9.7,1.6,1.6,1.6-.9,0-1.6.7-1.6,1.6s.7,1.6,1.6,1.6,1.6-.7,1.6-1.6-.7-1.6-1.6-1.6c.9,0,1.6-.7,1.6-1.6s-.7-1.6-1.6-1.6-1.6.7-1.6,1.6ZM151.9,265.6c0,.9.7,1.6,1.6,1.6s1.6-.7,1.6-1.6-.7-1.6-1.6-1.6-1.6.7-1.6,1.6ZM142.4,265.6c0,.9.7,1.6,1.6,1.6-.9,0-1.6.7-1.6,1.6s.7,1.6,1.6,1.6c-.9,0-1.6.7-1.6,1.6s.7,1.6,1.6,1.6c-.9,0-1.6.7-1.6,1.6s.7,1.6,1.6,1.6,1.6-.7,1.6-1.6-.7-1.6-1.6-1.6c.9,0,1.6-.7,1.6-1.6s-.7-1.6-1.6-1.6c.9,0,1.6-.7,1.6-1.6s-.7-1.6-1.6-1.6c.9,0,1.6-.7,1.6-1.6s-.7-1.6-1.6-1.6-1.6.7-1.6,1.6ZM123.4,265.6c0,.9.7,1.6,1.6,1.6s1.6-.7,1.6-1.6-.7-1.6-1.6-1.6-1.6.7-1.6,1.6ZM110.7,265.6c0,.9.7,1.6,1.6,1.6s1.6-.7,1.6-1.6-.7-1.6-1.6-1.6-1.6.7-1.6,1.6ZM107.5,265.6c0,.9.7,1.6,1.6,1.6-.9,0-1.6.7-1.6,1.6s.7,1.6,1.6,1.6c-.9,0-1.6.7-1.6,1.6s.7,1.6,1.6,1.6c-.9,0-1.6.7-1.6,1.6s.7,1.6,1.6,1.6,1.6-.7,1.6-1.6-.7-1.6-1.6-1.6c.9,0,1.6-.7,1.6-1.6s-.7-1.6-1.6-1.6c.9,0,1.6-.7,1.6-1.6s-.7-1.6-1.6-1.6c.9,0,1.6-.7,1.6-1.6s-.7-1.6-1.6-1.6-1.6.7-1.6,1.6ZM101.2,265.6c0,.9.7,1.6,1.6,1.6s1.6-.7,1.6-1.6-.7-1.6-1.6-1.6-1.6.7-1.6,1.6ZM88.5,265.6c0,.9.7,1.6,1.6,1.6s1.6-.7,1.6-1.6-.7-1.6-1.6-1.6-1.6.7-1.6,1.6ZM177.3,268.8c0,.9.7,1.6,1.6,1.6-.9,0-1.6.7-1.6,1.6s.7,1.6,1.6,1.6,1.6-.7,1.6-1.6-.7-1.6-1.6-1.6c.9,0,1.6-.7,1.6-1.6s-.7-1.6-1.6-1.6-1.6.7-1.6,1.6ZM145.6,268.8c0,.9.7,1.6,1.6,1.6s1.6-.7,1.6-1.6-.7-1.6-1.6-1.6-1.6.7-1.6,1.6ZM136.1,268.8c0,.9.7,1.6,1.6,1.6-.9,0-1.6.7-1.6,1.6s.7,1.6,1.6,1.6,1.6-.7,1.6-1.6-.7-1.6-1.6-1.6c.9,0,1.6-.7,1.6-1.6s-.7-1.6-1.6-1.6-1.6.7-1.6,1.6ZM120.2,268.8c0,.9.7,1.6,1.6,1.6-.9,0-1.6.7-1.6,1.6s.7,1.6,1.6,1.6c-.9,0-1.6.7-1.6,1.6s.7,1.6,1.6,1.6c-.9,0-1.6.7-1.6,1.6s.7,1.6,1.6,1.6,1.6-.7,1.6-1.6-.7-1.6-1.6-1.6c.9,0,1.6-.7,1.6-1.6s-.7-1.6-1.6-1.6c.9,0,1.6-.7,1.6-1.6s-.7-1.6-1.6-1.6c.9,0,1.6-.7,1.6-1.6s-.7-1.6-1.6-1.6-1.6.7-1.6,1.6ZM104.3,268.8c0,.9.7,1.6,1.6,1.6s1.6-.7,1.6-1.6-.7-1.6-1.6-1.6-1.6.7-1.6,1.6ZM94.8,268.8c0,.9.7,1.6,1.6,1.6s1.6-.7,1.6-1.6-.7-1.6-1.6-1.6-1.6.7-1.6,1.6ZM91.6,268.8c0,.9.7,1.6,1.6,1.6s1.6-.7,1.6-1.6-.7-1.6-1.6-1.6-1.6.7-1.6,1.6ZM78.9,268.8c0,.9.7,1.6,1.6,1.6-.9,0-1.6.7-1.6,1.6s.7,1.6,1.6,1.6c-.9,0-1.6.7-1.6,1.6s.7,1.6,1.6,1.6c-.9,0-1.6.7-1.6,1.6s.7,1.6,1.6,1.6,1.6-.7,1.6-1.6-.7-1.6-1.6-1.6c.9,0,1.6-.7,1.6-1.6s-.7-1.6-1.6-1.6c.9,0,1.6-.7,1.6-1.6s-.7-1.6-1.6-1.6c.9,0,1.6-.7,1.6-1.6s-.7-1.6-1.6-1.6-1.6.7-1.6,1.6ZM174.1,271.9c0,.9.7,1.6,1.6,1.6s1.6-.7,1.6-1.6-.7-1.6-1.6-1.6-1.6.7-1.6,1.6ZM171,271.9c0,.9.7,1.6,1.6,1.6-.9,0-1.6.7-1.6,1.6s.7,1.6,1.6,1.6,1.6-.7,1.6-1.6-.7-1.6-1.6-1.6c.9,0,1.6-.7,1.6-1.6s-.7-1.6-1.6-1.6-1.6.7-1.6,1.6ZM158.3,271.9c0,.9.7,1.6,1.6,1.6s1.6-.7,1.6-1.6-.7-1.6-1.6-1.6-1.6.7-1.6,1.6ZM151.9,271.9c0,.9.7,1.6,1.6,1.6s1.6-.7,1.6-1.6-.7-1.6-1.6-1.6-1.6.7-1.6,1.6ZM148.8,271.9c0,.9.7,1.6,1.6,1.6-.9,0-1.6.7-1.6,1.6s.7,1.6,1.6,1.6,1.6-.7,1.6-1.6-.7-1.6-1.6-1.6c.9,0,1.6-.7,1.6-1.6s-.7-1.6-1.6-1.6-1.6.7-1.6,1.6ZM129.7,271.9c0,.9.7,1.6,1.6,1.6s1.6-.7,1.6-1.6-.7-1.6-1.6-1.6-1.6.7-1.6,1.6ZM123.4,271.9c0,.9.7,1.6,1.6,1.6-.9,0-1.6.7-1.6,1.6s.7,1.6,1.6,1.6,1.6-.7,1.6-1.6-.7-1.6-1.6-1.6c.9,0,1.6-.7,1.6-1.6s-.7-1.6-1.6-1.6-1.6.7-1.6,1.6ZM117,271.9c0,.9.7,1.6,1.6,1.6-.9,0-1.6.7-1.6,1.6s.7,1.6,1.6,1.6c-.9,0-1.6.7-1.6,1.6s.7,1.6,1.6,1.6,1.6-.7,1.6-1.6-.7-1.6-1.6-1.6c.9,0,1.6-.7,1.6-1.6s-.7-1.6-1.6-1.6c.9,0,1.6-.7,1.6-1.6s-.7-1.6-1.6-1.6-1.6.7-1.6,1.6ZM101.2,271.9c0,.9.7,1.6,1.6,1.6s1.6-.7,1.6-1.6-.7-1.6-1.6-1.6-1.6.7-1.6,1.6ZM88.5,271.9c0,.9.7,1.6,1.6,1.6-.9,0-1.6.7-1.6,1.6s.7,1.6,1.6,1.6,1.6-.7,1.6-1.6-.7-1.6-1.6-1.6c.9,0,1.6-.7,1.6-1.6s-.7-1.6-1.6-1.6-1.6.7-1.6,1.6ZM85.3,271.9c0,.9.7,1.6,1.6,1.6s1.6-.7,1.6-1.6-.7-1.6-1.6-1.6-1.6.7-1.6,1.6ZM164.6,275.1c0,.9.7,1.6,1.6,1.6s1.6-.7,1.6-1.6-.7-1.6-1.6-1.6-1.6.7-1.6,1.6ZM145.6,275.1c0,.9.7,1.6,1.6,1.6s1.6-.7,1.6-1.6-.7-1.6-1.6-1.6-1.6.7-1.6,1.6ZM139.2,275.1c0,.9.7,1.6,1.6,1.6-.9,0-1.6.7-1.6,1.6s.7,1.6,1.6,1.6c-.9,0-1.6.7-1.6,1.6s.7,1.6,1.6,1.6c-.9,0-1.6.7-1.6,1.6s.7,1.6,1.6,1.6,1.6-.7,1.6-1.6-.7-1.6-1.6-1.6c.9,0,1.6-.7,1.6-1.6s-.7-1.6-1.6-1.6c.9,0,1.6-.7,1.6-1.6s-.7-1.6-1.6-1.6c.9,0,1.6-.7,1.6-1.6s-.7-1.6-1.6-1.6-1.6.7-1.6,1.6ZM132.9,275.1c0,.9.7,1.6,1.6,1.6s1.6-.7,1.6-1.6-.7-1.6-1.6-1.6-1.6.7-1.6,1.6ZM104.3,275.1c0,.9.7,1.6,1.6,1.6s1.6-.7,1.6-1.6-.7-1.6-1.6-1.6-1.6.7-1.6,1.6ZM94.8,275.1c0,.9.7,1.6,1.6,1.6s1.6-.7,1.6-1.6-.7-1.6-1.6-1.6-1.6.7-1.6,1.6ZM91.6,275.1c0,.9.7,1.6,1.6,1.6-.9,0-1.6.7-1.6,1.6s.7,1.6,1.6,1.6,1.6-.7,1.6-1.6-.7-1.6-1.6-1.6c.9,0,1.6-.7,1.6-1.6s-.7-1.6-1.6-1.6-1.6.7-1.6,1.6ZM75.8,275.1c0,.9.7,1.6,1.6,1.6-.9,0-1.6.7-1.6,1.6s.7,1.6,1.6,1.6,1.6-.7,1.6-1.6-.7-1.6-1.6-1.6c.9,0,1.6-.7,1.6-1.6s-.7-1.6-1.6-1.6-1.6.7-1.6,1.6ZM174.1,278.3c0,.9.7,1.6,1.6,1.6-.9,0-1.6.7-1.6,1.6s.7,1.6,1.6,1.6,1.6-.7,1.6-1.6-.7-1.6-1.6-1.6c.9,0,1.6-.7,1.6-1.6s-.7-1.6-1.6-1.6-1.6.7-1.6,1.6ZM167.8,278.3c0,.9.7,1.6,1.6,1.6-.9,0-1.6.7-1.6,1.6s.7,1.6,1.6,1.6,1.6-.7,1.6-1.6-.7-1.6-1.6-1.6c.9,0,1.6-.7,1.6-1.6s-.7-1.6-1.6-1.6-1.6.7-1.6,1.6ZM151.9,278.3c0,.9.7,1.6,1.6,1.6-.9,0-1.6.7-1.6,1.6s.7,1.6,1.6,1.6c-.9,0-1.6.7-1.6,1.6s.7,1.6,1.6,1.6c-.9,0-1.6.7-1.6,1.6s.7,1.6,1.6,1.6c-.9,0-1.6.7-1.6,1.6s.7,1.6,1.6,1.6c-.9,0-1.6.7-1.6,1.6s.7,1.6,1.6,1.6c-.9,0-1.6.7-1.6,1.6s.7,1.6,1.6,1.6,1.6-.7,1.6-1.6-.7-1.6-1.6-1.6c.9,0,1.6-.7,1.6-1.6s-.7-1.6-1.6-1.6c.9,0,1.6-.7,1.6-1.6s-.7-1.6-1.6-1.6c.9,0,1.6-.7,1.6-1.6s-.7-1.6-1.6-1.6c.9,0,1.6-.7,1.6-1.6s-.7-1.6-1.6-1.6c.9,0,1.6-.7,1.6-1.6s-.7-1.6-1.6-1.6c.9,0,1.6-.7,1.6-1.6s-.7-1.6-1.6-1.6-1.6.7-1.6,1.6ZM136.1,278.3c0,.9.7,1.6,1.6,1.6-.9,0-1.6.7-1.6,1.6s.7,1.6,1.6,1.6,1.6-.7,1.6-1.6-.7-1.6-1.6-1.6c.9,0,1.6-.7,1.6-1.6s-.7-1.6-1.6-1.6-1.6.7-1.6,1.6ZM129.7,278.3c0,.9.7,1.6,1.6,1.6-.9,0-1.6.7-1.6,1.6s.7,1.6,1.6,1.6c-.9,0-1.6.7-1.6,1.6s.7,1.6,1.6,1.6,1.6-.7,1.6-1.6-.7-1.6-1.6-1.6c.9,0,1.6-.7,1.6-1.6s-.7-1.6-1.6-1.6c.9,0,1.6-.7,1.6-1.6s-.7-1.6-1.6-1.6-1.6.7-1.6,1.6ZM113.8,278.3c0,.9.7,1.6,1.6,1.6-.9,0-1.6.7-1.6,1.6s.7,1.6,1.6,1.6,1.6-.7,1.6-1.6-.7-1.6-1.6-1.6c.9,0,1.6-.7,1.6-1.6s-.7-1.6-1.6-1.6-1.6.7-1.6,1.6ZM110.7,278.3c0,.9.7,1.6,1.6,1.6-.9,0-1.6.7-1.6,1.6s.7,1.6,1.6,1.6,1.6-.7,1.6-1.6-.7-1.6-1.6-1.6c.9,0,1.6-.7,1.6-1.6s-.7-1.6-1.6-1.6-1.6.7-1.6,1.6ZM85.3,278.3c0,.9.7,1.6,1.6,1.6s1.6-.7,1.6-1.6-.7-1.6-1.6-1.6-1.6.7-1.6,1.6ZM82.1,278.3c0,.9.7,1.6,1.6,1.6s1.6-.7,1.6-1.6-.7-1.6-1.6-1.6-1.6.7-1.6,1.6ZM177.3,281.4c0,.9.7,1.6,1.6,1.6-.9,0-1.6.7-1.6,1.6s.7,1.6,1.6,1.6c-.9,0-1.6.7-1.6,1.6s.7,1.6,1.6,1.6,1.6-.7,1.6-1.6-.7-1.6-1.6-1.6c.9,0,1.6-.7,1.6-1.6s-.7-1.6-1.6-1.6c.9,0,1.6-.7,1.6-1.6s-.7-1.6-1.6-1.6-1.6.7-1.6,1.6ZM171,281.4c0,.9.7,1.6,1.6,1.6-.9,0-1.6.7-1.6,1.6s.7,1.6,1.6,1.6,1.6-.7,1.6-1.6-.7-1.6-1.6-1.6c.9,0,1.6-.7,1.6-1.6s-.7-1.6-1.6-1.6-1.6.7-1.6,1.6ZM164.6,281.4c0,.9.7,1.6,1.6,1.6-.9,0-1.6.7-1.6,1.6s.7,1.6,1.6,1.6c-.9,0-1.6.7-1.6,1.6s.7,1.6,1.6,1.6c-.9,0-1.6.7-1.6,1.6s.7,1.6,1.6,1.6c-.9,0-1.6.7-1.6,1.6s.7,1.6,1.6,1.6c-.9,0-1.6.7-1.6,1.6s.7,1.6,1.6,1.6,1.6-.7,1.6-1.6-.7-1.6-1.6-1.6c.9,0,1.6-.7,1.6-1.6s-.7-1.6-1.6-1.6c.9,0,1.6-.7,1.6-1.6s-.7-1.6-1.6-1.6c.9,0,1.6-.7,1.6-1.6s-.7-1.6-1.6-1.6c.9,0,1.6-.7,1.6-1.6s-.7-1.6-1.6-1.6c.9,0,1.6-.7,1.6-1.6s-.7-1.6-1.6-1.6-1.6.7-1.6,1.6ZM161.4,281.4c0,.9.7,1.6,1.6,1.6s1.6-.7,1.6-1.6-.7-1.6-1.6-1.6-1.6.7-1.6,1.6ZM158.3,281.4c0,.9.7,1.6,1.6,1.6s1.6-.7,1.6-1.6-.7-1.6-1.6-1.6-1.6.7-1.6,1.6ZM155.1,281.4c0,.9.7,1.6,1.6,1.6s1.6-.7,1.6-1.6-.7-1.6-1.6-1.6-1.6.7-1.6,1.6ZM148.8,281.4c0,.9.7,1.6,1.6,1.6s1.6-.7,1.6-1.6-.7-1.6-1.6-1.6-1.6.7-1.6,1.6ZM145.6,281.4c0,.9.7,1.6,1.6,1.6-.9,0-1.6.7-1.6,1.6s.7,1.6,1.6,1.6c-.9,0-1.6.7-1.6,1.6s.7,1.6,1.6,1.6,1.6-.7,1.6-1.6-.7-1.6-1.6-1.6c.9,0,1.6-.7,1.6-1.6s-.7-1.6-1.6-1.6c.9,0,1.6-.7,1.6-1.6s-.7-1.6-1.6-1.6-1.6.7-1.6,1.6ZM123.4,281.4c0,.9.7,1.6,1.6,1.6s1.6-.7,1.6-1.6-.7-1.6-1.6-1.6-1.6.7-1.6,1.6ZM107.5,281.4c0,.9.7,1.6,1.6,1.6-.9,0-1.6.7-1.6,1.6s.7,1.6,1.6,1.6c-.9,0-1.6.7-1.6,1.6s.7,1.6,1.6,1.6c-.9,0-1.6.7-1.6,1.6s.7,1.6,1.6,1.6c-.9,0-1.6.7-1.6,1.6s.7,1.6,1.6,1.6,1.6-.7,1.6-1.6-.7-1.6-1.6-1.6c.9,0,1.6-.7,1.6-1.6s-.7-1.6-1.6-1.6c.9,0,1.6-.7,1.6-1.6s-.7-1.6-1.6-1.6c.9,0,1.6-.7,1.6-1.6s-.7-1.6-1.6-1.6c.9,0,1.6-.7,1.6-1.6s-.7-1.6-1.6-1.6-1.6.7-1.6,1.6ZM104.3,281.4c0,.9.7,1.6,1.6,1.6-.9,0-1.6.7-1.6,1.6s.7,1.6,1.6,1.6c-.9,0-1.6.7-1.6,1.6s.7,1.6,1.6,1.6c-.9,0-1.6.7-1.6,1.6s.7,1.6,1.6,1.6,1.6-.7,1.6-1.6-.7-1.6-1.6-1.6c.9,0,1.6-.7,1.6-1.6s-.7-1.6-1.6-1.6c.9,0,1.6-.7,1.6-1.6s-.7-1.6-1.6-1.6c.9,0,1.6-.7,1.6-1.6s-.7-1.6-1.6-1.6-1.6.7-1.6,1.6ZM98,281.4c0,.9.7,1.6,1.6,1.6s1.6-.7,1.6-1.6-.7-1.6-1.6-1.6-1.6.7-1.6,1.6ZM94.8,281.4c0,.9.7,1.6,1.6,1.6s1.6-.7,1.6-1.6-.7-1.6-1.6-1.6-1.6.7-1.6,1.6ZM142.4,284.6c0,.9.7,1.6,1.6,1.6-.9,0-1.6.7-1.6,1.6s.7,1.6,1.6,1.6,1.6-.7,1.6-1.6-.7-1.6-1.6-1.6c.9,0,1.6-.7,1.6-1.6s-.7-1.6-1.6-1.6-1.6.7-1.6,1.6ZM132.9,284.6c0,.9.7,1.6,1.6,1.6s1.6-.7,1.6-1.6-.7-1.6-1.6-1.6-1.6.7-1.6,1.6ZM120.2,284.6c0,.9.7,1.6,1.6,1.6-.9,0-1.6.7-1.6,1.6s.7,1.6,1.6,1.6c-.9,0-1.6.7-1.6,1.6s.7,1.6,1.6,1.6c-.9,0-1.6.7-1.6,1.6s.7,1.6,1.6,1.6c-.9,0-1.6.7-1.6,1.6s.7,1.6,1.6,1.6c-.9,0-1.6.7-1.6,1.6s.7,1.6,1.6,1.6c-.9,0-1.6.7-1.6,1.6s.7,1.6,1.6,1.6,1.6-.7,1.6-1.6-.7-1.6-1.6-1.6c.9,0,1.6-.7,1.6-1.6s-.7-1.6-1.6-1.6c.9,0,1.6-.7,1.6-1.6s-.7-1.6-1.6-1.6c.9,0,1.6-.7,1.6-1.6s-.7-1.6-1.6-1.6c.9,0,1.6-.7,1.6-1.6s-.7-1.6-1.6-1.6c.9,0,1.6-.7,1.6-1.6s-.7-1.6-1.6-1.6c.9,0,1.6-.7,1.6-1.6s-.7-1.6-1.6-1.6-1.6.7-1.6,1.6ZM101.2,284.6c0,.9.7,1.6,1.6,1.6-.9,0-1.6.7-1.6,1.6s.7,1.6,1.6,1.6c-.9,0-1.6.7-1.6,1.6s.7,1.6,1.6,1.6,1.6-.7,1.6-1.6-.7-1.6-1.6-1.6c.9,0,1.6-.7,1.6-1.6s-.7-1.6-1.6-1.6c.9,0,1.6-.7,1.6-1.6s-.7-1.6-1.6-1.6-1.6.7-1.6,1.6ZM86.9,286.2c-6.1,0-11.1,5-11.1,11.1h0c0,6.2,5,11.1,11.1,11.1,6.1,0,11.1-5,11.1-11.1,0-6.1-5-11.1-11.1-11.1h0ZM86.9,305.2c-4.4,0-7.9-3.5-7.9-7.9h0c0-4.4,3.6-8,7.9-7.9,4.4,0,7.9,3.6,7.9,7.9,0,4.4-3.6,7.9-7.9,7.9h0ZM167.8,287.8c0,.9.7,1.6,1.6,1.6s1.6-.7,1.6-1.6-.7-1.6-1.6-1.6-1.6.7-1.6,1.6ZM158.3,287.8c0,.9.7,1.6,1.6,1.6s1.6-.7,1.6-1.6-.7-1.6-1.6-1.6-1.6.7-1.6,1.6ZM148.8,287.8c0,.9.7,1.6,1.6,1.6s1.6-.7,1.6-1.6-.7-1.6-1.6-1.6-1.6.7-1.6,1.6ZM136.1,287.8c0,.9.7,1.6,1.6,1.6-.9,0-1.6.7-1.6,1.6s.7,1.6,1.6,1.6,1.6-.7,1.6-1.6-.7-1.6-1.6-1.6c.9,0,1.6-.7,1.6-1.6s-.7-1.6-1.6-1.6-1.6.7-1.6,1.6ZM126.5,287.8c0,.9.7,1.6,1.6,1.6s1.6-.7,1.6-1.6-.7-1.6-1.6-1.6-1.6.7-1.6,1.6ZM123.4,287.8c0,.9.7,1.6,1.6,1.6s1.6-.7,1.6-1.6-.7-1.6-1.6-1.6-1.6.7-1.6,1.6ZM117,287.8c0,.9.7,1.6,1.6,1.6s1.6-.7,1.6-1.6-.7-1.6-1.6-1.6-1.6.7-1.6,1.6ZM113.8,287.8c0,.9.7,1.6,1.6,1.6s1.6-.7,1.6-1.6-.7-1.6-1.6-1.6-1.6.7-1.6,1.6ZM139.2,291c0,.9.7,1.6,1.6,1.6s1.6-.7,1.6-1.6-.7-1.6-1.6-1.6-1.6.7-1.6,1.6ZM129.7,291c0,.9.7,1.6,1.6,1.6s1.6-.7,1.6-1.6-.7-1.6-1.6-1.6-1.6.7-1.6,1.6ZM177.3,294.1c0,.9.7,1.6,1.6,1.6-.9,0-1.6.7-1.6,1.6s.7,1.6,1.6,1.6,1.6-.7,1.6-1.6-.7-1.6-1.6-1.6c.9,0,1.6-.7,1.6-1.6s-.7-1.6-1.6-1.6-1.6.7-1.6,1.6ZM171,294.1c0,.9.7,1.6,1.6,1.6-.9,0-1.6.7-1.6,1.6s.7,1.6,1.6,1.6,1.6-.7,1.6-1.6-.7-1.6-1.6-1.6c.9,0,1.6-.7,1.6-1.6s-.7-1.6-1.6-1.6-1.6.7-1.6,1.6ZM167.8,294.1c0,.9.7,1.6,1.6,1.6s1.6-.7,1.6-1.6-.7-1.6-1.6-1.6-1.6.7-1.6,1.6ZM161.4,294.1c0,.9.7,1.6,1.6,1.6s1.6-.7,1.6-1.6-.7-1.6-1.6-1.6-1.6.7-1.6,1.6ZM158.3,294.1c0,.9.7,1.6,1.6,1.6-.9,0-1.6.7-1.6,1.6s.7,1.6,1.6,1.6c-.9,0-1.6.7-1.6,1.6s.7,1.6,1.6,1.6c-.9,0-1.6.7-1.6,1.6s.7,1.6,1.6,1.6,1.6-.7,1.6-1.6-.7-1.6-1.6-1.6c.9,0,1.6-.7,1.6-1.6s-.7-1.6-1.6-1.6c.9,0,1.6-.7,1.6-1.6s-.7-1.6-1.6-1.6c.9,0,1.6-.7,1.6-1.6s-.7-1.6-1.6-1.6-1.6.7-1.6,1.6ZM155.1,294.1c0,.9.7,1.6,1.6,1.6-.9,0-1.6.7-1.6,1.6s.7,1.6,1.6,1.6,1.6-.7,1.6-1.6-.7-1.6-1.6-1.6c.9,0,1.6-.7,1.6-1.6s-.7-1.6-1.6-1.6-1.6.7-1.6,1.6ZM148.8,294.1c0,.9.7,1.6,1.6,1.6-.9,0-1.6.7-1.6,1.6s.7,1.6,1.6,1.6,1.6-.7,1.6-1.6-.7-1.6-1.6-1.6c.9,0,1.6-.7,1.6-1.6s-.7-1.6-1.6-1.6-1.6.7-1.6,1.6ZM145.6,294.1c0,.9.7,1.6,1.6,1.6-.9,0-1.6.7-1.6,1.6s.7,1.6,1.6,1.6c-.9,0-1.6.7-1.6,1.6s.7,1.6,1.6,1.6,1.6-.7,1.6-1.6-.7-1.6-1.6-1.6c.9,0,1.6-.7,1.6-1.6s-.7-1.6-1.6-1.6c.9,0,1.6-.7,1.6-1.6s-.7-1.6-1.6-1.6-1.6.7-1.6,1.6ZM126.5,294.1c0,.9.7,1.6,1.6,1.6s1.6-.7,1.6-1.6-.7-1.6-1.6-1.6-1.6.7-1.6,1.6ZM117,294.1c0,.9.7,1.6,1.6,1.6s1.6-.7,1.6-1.6-.7-1.6-1.6-1.6-1.6.7-1.6,1.6ZM110.7,294.1c0,.9.7,1.6,1.6,1.6-.9,0-1.6.7-1.6,1.6s.7,1.6,1.6,1.6,1.6-.7,1.6-1.6-.7-1.6-1.6-1.6c.9,0,1.6-.7,1.6-1.6s-.7-1.6-1.6-1.6-1.6.7-1.6,1.6ZM82.1,297.3c0,2.6,2.1,4.8,4.8,4.8s4.8-2.1,4.8-4.8-2.1-4.8-4.8-4.8-4.8,2.1-4.8,4.8ZM174.1,297.3c0,.9.7,1.6,1.6,1.6s1.6-.7,1.6-1.6-.7-1.6-1.6-1.6-1.6.7-1.6,1.6ZM129.7,297.3c0,.9.7,1.6,1.6,1.6s1.6-.7,1.6-1.6-.7-1.6-1.6-1.6-1.6.7-1.6,1.6ZM113.8,297.3c0,.9.7,1.6,1.6,1.6s1.6-.7,1.6-1.6-.7-1.6-1.6-1.6-1.6.7-1.6,1.6ZM101.2,297.3c0,.9.7,1.6,1.6,1.6-.9,0-1.6.7-1.6,1.6s.7,1.6,1.6,1.6,1.6-.7,1.6-1.6-.7-1.6-1.6-1.6c.9,0,1.6-.7,1.6-1.6s-.7-1.6-1.6-1.6-1.6.7-1.6,1.6ZM132.9,300.5c0,.9.7,1.6,1.6,1.6-.9,0-1.6.7-1.6,1.6s.7,1.6,1.6,1.6c-.9,0-1.6.7-1.6,1.6s.7,1.6,1.6,1.6,1.6-.7,1.6-1.6-.7-1.6-1.6-1.6c.9,0,1.6-.7,1.6-1.6s-.7-1.6-1.6-1.6c.9,0,1.6-.7,1.6-1.6s-.7-1.6-1.6-1.6-1.6.7-1.6,1.6ZM117,300.5c0,.9.7,1.6,1.6,1.6-.9,0-1.6.7-1.6,1.6s.7,1.6,1.6,1.6c-.9,0-1.6.7-1.6,1.6s.7,1.6,1.6,1.6,1.6-.7,1.6-1.6-.7-1.6-1.6-1.6c.9,0,1.6-.7,1.6-1.6s-.7-1.6-1.6-1.6c.9,0,1.6-.7,1.6-1.6s-.7-1.6-1.6-1.6-1.6.7-1.6,1.6ZM107.5,300.5c0,.9.7,1.6,1.6,1.6s1.6-.7,1.6-1.6-.7-1.6-1.6-1.6-1.6.7-1.6,1.6ZM177.3,303.6c0,.9.7,1.6,1.6,1.6s1.6-.7,1.6-1.6-.7-1.6-1.6-1.6-1.6.7-1.6,1.6ZM167.8,303.6c0,.9.7,1.6,1.6,1.6s1.6-.7,1.6-1.6-.7-1.6-1.6-1.6-1.6.7-1.6,1.6ZM161.4,303.6c0,.9.7,1.6,1.6,1.6-.9,0-1.6.7-1.6,1.6s.7,1.6,1.6,1.6,1.6-.7,1.6-1.6-.7-1.6-1.6-1.6c.9,0,1.6-.7,1.6-1.6s-.7-1.6-1.6-1.6-1.6.7-1.6,1.6ZM155.1,303.6c0,.9.7,1.6,1.6,1.6-.9,0-1.6.7-1.6,1.6s.7,1.6,1.6,1.6,1.6-.7,1.6-1.6-.7-1.6-1.6-1.6c.9,0,1.6-.7,1.6-1.6s-.7-1.6-1.6-1.6-1.6.7-1.6,1.6ZM142.4,303.6c0,.9.7,1.6,1.6,1.6-.9,0-1.6.7-1.6,1.6s.7,1.6,1.6,1.6,1.6-.7,1.6-1.6-.7-1.6-1.6-1.6c.9,0,1.6-.7,1.6-1.6s-.7-1.6-1.6-1.6-1.6.7-1.6,1.6ZM139.2,303.6c0,.9.7,1.6,1.6,1.6s1.6-.7,1.6-1.6-.7-1.6-1.6-1.6-1.6.7-1.6,1.6ZM129.7,303.6c0,.9.7,1.6,1.6,1.6s1.6-.7,1.6-1.6-.7-1.6-1.6-1.6-1.6.7-1.6,1.6ZM126.5,303.6c0,.9.7,1.6,1.6,1.6s1.6-.7,1.6-1.6-.7-1.6-1.6-1.6-1.6.7-1.6,1.6ZM123.4,303.6c0,.9.7,1.6,1.6,1.6s1.6-.7,1.6-1.6-.7-1.6-1.6-1.6-1.6.7-1.6,1.6ZM104.3,303.6c0,.9.7,1.6,1.6,1.6-.9,0-1.6.7-1.6,1.6s.7,1.6,1.6,1.6,1.6-.7,1.6-1.6-.7-1.6-1.6-1.6c.9,0,1.6-.7,1.6-1.6s-.7-1.6-1.6-1.6-1.6.7-1.6,1.6ZM171,306.8c0,.9.7,1.6,1.6,1.6s1.6-.7,1.6-1.6-.7-1.6-1.6-1.6-1.6.7-1.6,1.6ZM151.9,306.8c0,.9.7,1.6,1.6,1.6s1.6-.7,1.6-1.6-.7-1.6-1.6-1.6-1.6.7-1.6,1.6ZM145.6,306.8c0,.9.7,1.6,1.6,1.6s1.6-.7,1.6-1.6-.7-1.6-1.6-1.6-1.6.7-1.6,1.6ZM110.7,306.8c0,.9.7,1.6,1.6,1.6s1.6-.7,1.6-1.6-.7-1.6-1.6-1.6-1.6.7-1.6,1.6ZM107.5,306.8c0,.9.7,1.6,1.6,1.6s1.6-.7,1.6-1.6-.7-1.6-1.6-1.6-1.6.7-1.6,1.6ZM101.2,306.8c0,.9.7,1.6,1.6,1.6s1.6-.7,1.6-1.6-.7-1.6-1.6-1.6-1.6.7-1.6,1.6Z"/>
    </clipPath>
  </defs>
  <g id="Capa_1-2">
    <path class="st11" d="M0-4.1h787v458.9H0V-4.1Z"/>
    <g class="st20">
      <image id="img0" class="st13" width="114" height="114" transform="translate(285 199.9) scale(1)" xlink:href="OC-1.png"/>
    </g>
    <path class="st3" d="M328,333.6l12.4-12.7,12.6,13-25-.3h0Z"/>
    <g class="st13">
      <text class="st10" transform="translate(294.5 122)"><tspan x="0" y="0">Matrculas</tspan></text>
    </g>
    <g class="st13">
      <text class="st10" transform="translate(304.8 145)"><tspan x="0" y="0">y Pagos</tspan></text>
    </g>
    <path class="st1" d="M250.5,106.4c0-7.7,6.3-14,14-14h153c7.7,0,14,6.3,14,14v258c0,7.7-6.3,14-14,14h-153c-7.7,0-14-6.3-14-14V106.4h0Z"/>
    <g class="st13">
      <text class="st7" transform="translate(277.4 169)"><tspan x="0" y="0">Informacin pagos en web</tspan></text>
    </g>
    <g class="st13">
      <text class="st7" transform="translate(275.4 182)"><tspan x="0" y="0">Departamento de Matrcula</tspan></text>
    </g>
    <g class="st13">
      <text class="st7" transform="translate(321.7 406)"><tspan x="0" y="0">Ir a sitio</tspan></text>
    </g>
    <g class="st13">
      <text class="st9" transform="translate(282.3 357)"><tspan x="0" y="0">ESCANAME!</tspan></text>
    </g>
    <g class="st16">
      <g class="st19">
        <image id="img3" class="st13" width="487" height="487" transform="translate(307.6 -12.2)" xlink:href="OC-2.png"/>
      </g>
    </g>
    <g class="st13">
      <text class="st5" transform="translate(564.8 108)"><tspan x="0" y="0"></tspan></text>
      <text class="st5" transform="translate(571.3 108)"><tspan x="0" y="0">V</tspan></text>
      <text class="st5" transform="translate(579.5 108)"><tspan x="0" y="0">ive la UC a travs del</tspan></text>
    </g>
    <g class="st13">
      <text class="st5" transform="translate(590.6 124)"><tspan x="0" y="0">deporte, salud,</tspan></text>
    </g>
    <g class="st13">
      <text class="st5" transform="translate(569.8 139)"><tspan x="0" y="0">bienestar y desarrollo</tspan></text>
    </g>
    <g class="st13">
      <text class="st5" transform="translate(567.8 154)"><tspan x="0" y="0">estudiantil. Escanea el</tspan></text>
    </g>
    <g class="st13">
      <text class="st5" transform="translate(571.3 169)"><tspan x="0" y="0">cdigo QR y revisa el</tspan></text>
    </g>
    <g class="st13">
      <text class="st5" transform="translate(572.3 184)"><tspan x="0" y="0">sitio web DASE en tu</tspan></text>
    </g>
    <g class="st13">
      <text class="st5" transform="translate(611.9 200)"><tspan x="0" y="0">celular</tspan></text>
    </g>
    <g class="st13">
      <text class="st8" transform="translate(564.7 230)"><tspan x="0" y="0">&quot;Si necesitas informacin</tspan></text>
    </g>
    <g class="st13">
      <text class="st8" transform="translate(569.5 245)"><tspan x="0" y="0">sobre pagos, dirgete al</tspan></text>
    </g>
    <g class="st13">
      <text class="st8" transform="translate(585.9 260)"><tspan x="0" y="0">Hall Universitario,</tspan></text>
    </g>
    <g class="st13">
      <text class="st8" transform="translate(563.3 276)"><tspan x="0" y="0">atencin DASE, 2do piso.</tspan></text>
    </g>
    <g class="st13">
      <text class="st8" transform="translate(584.5 291)"><tspan x="0" y="0">Puedes buscar en</tspan></text>
    </g>
    <g class="st13">
      <text class="st8" transform="translate(591.2 306)"><tspan x="0" y="0">nuestra seccin</tspan></text>
    </g>
    <g class="st13">
      <text class="st8" transform="translate(582.9 321)"><tspan x="0" y="0">&quot;Ubicacin Salas y</tspan></text>
    </g>
    <g class="st13">
      <text class="st8" transform="translate(564.8 336)"><tspan x="0" y="0">Espacios&quot; para encontrar</tspan></text>
    </g>
    <g class="st13">
      <text class="st8" transform="translate(571.5 352)"><tspan x="0" y="0">la ubicacin exacta del</tspan></text>
    </g>
    <g class="st13">
      <text class="st8" transform="translate(567.3 367)"><tspan x="0" y="0">Hall dentro del Campus</tspan></text>
    </g>
    <g class="st13">
      <text class="st4" transform="translate(40 57)"><tspan x="0" y="0">Otras Consultas</tspan></text>
    </g>
    <path class="st3" d="M38,105.9c0-7.7,6.3-14,14-14h153c7.7,0,14,6.3,14,14v258c0,7.7-6.3,14-14,14H52c-7.7,0-14-6.3-14-14V105.9Z"/>
    <g class="st13">
      <text class="st7" transform="translate(110 406)"><tspan x="0" y="0">Ir a sitio</tspan></text>
    </g>
    <g class="st13">
      <text class="st12" transform="translate(70.5 357)"><tspan x="0" y="0">ESCANAME!</tspan></text>
    </g>
    <path class="st2" d="M72.5,199.4h112v112h-112v-112Z"/>
    <path class="st11" d="M116,333.6l12.4-12.7,12.6,13-25-.3h0Z"/>
    <g class="st13">
      <text class="st14" transform="translate(73.7 142)"><tspan x="0" y="0">DASE UC</tspan></text>
    </g>
    <g class="st13">
      <text class="st15" transform="translate(65 164)"><tspan x="0" y="0">Direccin de</tspan></text>
      <text class="st15" transform="translate(137.2 164)"><tspan x="0" y="0"> </tspan></text>
      <text class="st15" transform="translate(140.1 164)"><tspan x="0" y="0">Asuntos</tspan></text>
    </g>
    <g class="st13">
      <text class="st15" transform="translate(90.1 180)"><tspan x="0" y="0">Estudiantiles</tspan></text>
    </g>
    <rect class="st6" x="285" y="201.2" width="110.7" height="110.7"/>
    <g class="st17">
      <rect x="284.8" y="201" width="111" height="111"/>
    </g>
    <g class="st18">
      <rect x="71.5" y="199.4" width="113.3" height="113.3"/>
    </g>
  </g>
</svg>